<svg version="1.1" id="Layer_1" xmlns="http://www.w3.org/2000/svg" xmlns:xlink="http://www.w3.org/1999/xlink" x="0px" y="0px"
	 width="100%" viewBox="0 0 1080 1080" enable-background="new 0 0 1080 1080" xml:space="preserve">
<path fill="#FECFB0" opacity="1.000000" stroke="none" 
	d="
M1.000000,408.000000 
	C1.000000,272.015625 1.000000,136.531265 1.000000,1.023454 
	C360.942841,1.023454 720.885681,1.023454 1080.914307,1.023454 
	C1080.914307,360.901276 1080.914307,720.802551 1080.914307,1080.851929 
	C721.000061,1080.851929 361.000031,1080.851929 1.000000,1080.851929 
	C1.000000,856.780579 1.000000,632.640320 1.000000,408.000000 
M558.869934,984.656311 
	C566.592102,998.054443 574.304749,1011.458069 582.039368,1024.848999 
	C588.026001,1035.213257 593.862488,1045.670044 600.101074,1055.880737 
	C604.618958,1063.275024 613.168762,1065.894409 621.007751,1062.907837 
	C628.518005,1060.046509 633.331238,1052.278809 631.824463,1044.165039 
	C631.148926,1040.527466 629.263428,1036.988525 627.380249,1033.719849 
	C594.094666,975.945435 560.723450,918.220398 527.378967,860.479919 
	C526.425659,858.829224 525.562622,857.126404 524.329407,854.839417 
	C536.799622,854.839417 548.435303,854.970642 560.064514,854.755005 
	C563.321655,854.694641 565.025879,855.713440 566.657043,858.552185 
	C593.993530,906.127197 621.455444,953.630127 648.899841,1001.143127 
	C659.212341,1018.996582 669.450806,1036.893921 679.916321,1054.657349 
	C685.997986,1064.979980 698.234070,1067.167847 706.756104,1059.781250 
	C713.642883,1053.812012 714.469055,1044.963989 708.942383,1035.388672 
	C680.848206,986.714294 652.734009,938.051392 624.630737,889.382202 
	C618.096558,878.066467 611.577820,866.741821 604.716614,854.839417 
	C607.301514,854.839417 609.097839,854.839355 610.894104,854.839355 
	C668.224976,854.839355 725.555908,854.844788 782.886780,854.835327 
	C795.494568,854.833252 802.463562,848.001770 802.494568,835.482361 
	C802.548645,813.650146 802.535767,791.817505 802.499573,769.985168 
	C802.478271,757.102234 795.623169,750.213989 782.796021,750.175293 
	C767.796814,750.130005 752.797363,750.164612 737.797974,750.164612 
	C736.210815,750.164612 734.623718,750.164612 732.998230,750.164612 
	C732.918945,748.822205 732.846680,748.168884 732.846619,747.515564 
	C732.840759,669.352234 732.822205,591.188843 732.937927,513.025635 
	C732.941040,510.951569 734.119324,508.706787 735.242920,506.838226 
	C738.997131,500.594391 743.864380,494.856720 746.634216,488.227020 
	C749.784485,480.686646 751.137939,472.395599 753.383606,464.016327 
	C753.286682,464.024658 753.923218,463.916748 754.558655,463.922913 
	C786.006409,464.228241 808.325928,442.287384 808.937561,410.659363 
	C808.977844,408.572876 809.938904,406.098755 811.296570,404.509644 
	C819.408020,395.015503 827.765869,385.731934 836.032959,376.370636 
	C846.062195,365.013947 856.117432,353.679932 866.097046,342.279785 
	C873.514587,333.806396 873.042480,322.669464 865.103760,316.154602 
	C857.278809,309.733154 847.229614,311.034149 839.501404,319.737305 
	C823.803284,337.415863 808.218262,355.194855 792.661011,372.848053 
	C785.652161,365.448456 778.735962,358.146667 771.768127,350.790375 
	C827.591187,301.614197 884.028564,251.896866 940.465881,202.179535 
	C940.877808,202.568359 941.289673,202.957184 941.701599,203.345993 
	C940.650146,204.662689 939.651306,206.025742 938.539307,207.289124 
	C921.596191,226.538544 904.566284,245.712173 887.718201,265.044250 
	C880.694824,273.103058 881.184082,283.373993 888.468018,290.070770 
	C895.736694,296.753479 906.245789,296.336151 913.341919,288.409363 
	C932.000305,267.566833 950.638123,246.695847 968.794922,225.418762 
	C977.688293,214.997070 979.178650,202.643005 974.341187,189.756516 
	C965.280945,165.620697 933.538635,160.731522 914.542358,177.787994 
	C856.558960,229.850433 797.922241,281.185608 739.441956,332.692749 
	C737.666931,334.256104 734.825439,335.333435 732.454224,335.384430 
	C705.052368,335.973633 684.894165,352.805908 680.454163,379.296631 
	C679.781250,383.311493 679.911682,387.460968 679.673340,391.500366 
	C647.730896,393.976166 626.575134,411.956665 616.688110,439.329681 
	C612.968811,449.627045 609.902588,460.187744 607.070374,470.770691 
	C603.970093,482.355652 601.484436,494.105103 598.632446,506.200409 
	C597.019287,505.003784 596.060669,503.986023 594.882324,503.473511 
	C590.587463,501.605560 590.078552,498.845825 591.276367,494.410980 
	C593.046082,487.858673 594.287231,481.068207 594.858643,474.303558 
	C597.987976,437.257172 588.558105,403.707245 565.769470,374.209106 
	C553.838135,358.764954 544.939148,341.864746 542.624451,322.457642 
	C540.955688,308.467010 541.426086,294.217926 541.012817,280.082031 
	C540.711670,269.783630 533.257935,261.999542 523.571838,262.009155 
	C513.770630,262.018890 506.275024,269.737488 506.177155,280.066345 
	C506.096680,288.565216 506.103485,297.065918 506.170807,305.565002 
	C506.425720,337.742798 516.046509,366.856567 535.851013,392.210419 
	C551.224670,411.891876 559.970398,433.817871 560.721191,458.736572 
	C561.030273,468.994385 559.830688,479.208282 556.743286,489.057709 
	C555.642273,489.057709 554.985901,489.078308 554.331116,489.054779 
	C520.611450,487.842926 496.048859,502.761871 480.430237,532.155762 
	C477.181732,538.269409 474.800873,542.897705 467.059296,541.194336 
	C466.142975,540.992676 465.040009,541.256470 464.109222,541.563965 
	C456.161835,544.188843 448.234192,546.873596 440.095825,549.609314 
	C433.737274,530.229919 426.896179,510.130035 420.579071,489.866821 
	C416.264740,476.027802 415.705597,461.741638 417.513977,447.381226 
	C420.189209,426.136749 429.328644,407.841949 442.399445,391.083130 
	C456.559723,372.927429 466.109680,352.302917 468.841431,329.446533 
	C470.926788,311.998535 471.525391,294.210907 470.886810,276.643372 
	C470.206329,257.923004 467.659119,239.235458 465.202301,220.629257 
	C463.950836,211.151581 461.110077,201.883759 458.974518,192.462845 
	C478.878265,192.462845 498.453613,192.462845 518.358459,192.462845 
	C517.123657,198.307373 515.490356,203.757950 514.907043,209.318680 
	C513.965332,218.296021 519.752930,225.870148 528.258179,227.780869 
	C536.771057,229.693283 545.837830,224.933304 548.354614,216.224869 
	C551.997437,203.620438 555.286377,190.879303 557.941833,178.034302 
	C560.275024,166.748184 552.250793,157.558990 540.670105,157.529510 
	C506.005127,157.441254 471.339539,157.426376 436.674683,157.536545 
	C424.529449,157.575134 416.818970,167.672668 419.656555,179.573120 
	C422.509827,191.539398 425.735565,203.418320 428.487946,215.406723 
	C430.660431,224.869278 432.362518,234.439819 434.380768,244.496841 
	C431.531677,244.496841 429.728180,244.496841 427.924652,244.496841 
	C408.592133,244.496918 389.259430,244.440979 369.927185,244.515686 
	C355.749359,244.570465 349.163940,251.265182 349.161774,265.383148 
	C349.157806,291.548706 348.941742,317.716705 349.228638,343.879120 
	C349.465912,365.513794 342.008514,383.709991 327.012695,399.223846 
	C307.016815,419.910400 297.010681,444.802124 297.000061,473.633270 
	C296.990601,499.298859 297.040741,524.964661 296.911682,550.629578 
	C296.902039,552.548889 296.174286,554.927795 294.917694,556.307190 
	C279.719635,572.990845 275.384094,591.729614 283.620789,613.042847 
	C284.012421,614.056213 284.453796,615.386658 284.120605,616.293213 
	C279.330505,629.325745 274.017944,642.180542 269.655762,655.351196 
	C266.538361,664.763550 263.847351,674.470215 262.461731,684.257263 
	C261.234650,692.924500 262.049103,701.883911 262.003021,710.714478 
	C261.926941,725.295898 256.081329,737.146729 244.926636,746.367493 
	C242.951294,748.000366 240.420868,749.876404 238.072311,749.981873 
	C228.810669,750.397644 219.519363,750.152405 209.839325,750.152405 
	C209.839325,747.884033 209.839325,746.091431 209.839325,744.298828 
	C209.839325,712.633484 209.856995,680.968201 209.807129,649.302917 
	C209.802963,646.657288 209.641479,643.942871 209.042725,641.379578 
	C206.882675,632.132324 197.642273,626.571106 188.380188,628.743469 
	C179.609512,630.800598 174.858002,637.518127 174.844666,648.215454 
	C174.804581,680.380676 174.830078,712.546082 174.829987,744.711365 
	C174.829987,746.455383 174.829987,748.199402 174.829987,750.164673 
	C157.911041,750.164673 141.752731,750.157837 125.594421,750.166687 
	C111.861664,750.174255 105.034531,756.960754 105.008537,770.750427 
	C104.968636,791.916138 104.977287,813.081970 105.005447,834.247742 
	C105.023819,848.052185 111.811600,854.838257 125.513512,854.838501 
	C209.343292,854.840210 293.173096,854.839355 377.002869,854.839355 
	C378.911011,854.839355 380.819153,854.839417 383.470001,854.839417 
	C382.413025,856.705139 381.788116,857.826843 381.146210,858.938782 
	C354.044220,905.882080 326.943512,952.826172 299.835541,999.765930 
	C292.683960,1012.149597 285.416840,1024.467651 278.373535,1036.912354 
	C272.570221,1047.166260 276.220642,1058.642578 286.385223,1062.828857 
	C294.914764,1066.341797 303.704468,1062.763794 309.008179,1053.588501 
	C334.304321,1009.826721 359.594940,966.061768 384.884430,922.296204 
	C390.069916,913.322327 395.241791,904.340515 400.419952,895.362305 
	C400.776733,895.457520 401.133545,895.552673 401.490356,895.647888 
	C401.490356,897.398193 401.490387,899.148560 401.490387,900.898926 
	C401.490387,947.896912 401.485626,994.894958 401.504425,1041.892944 
	C401.505371,1044.218872 401.564240,1046.562744 401.847748,1048.867432 
	C402.931091,1057.672974 410.066742,1063.983521 418.825317,1064.001221 
	C427.815460,1064.019165 435.126617,1057.566406 436.113861,1048.617432 
	C436.405151,1045.976807 436.493042,1043.302246 436.493927,1040.643188 
	C436.514343,980.812378 436.509613,920.981567 436.509613,861.150757 
	C436.509613,859.199890 436.509644,857.249023 436.509644,855.072083 
	C448.217010,855.072083 459.461304,855.072083 471.160645,855.072083 
	C471.160645,857.061890 471.160645,858.848511 471.160645,860.635071 
	C471.160645,921.299133 471.152679,981.963257 471.187500,1042.627319 
	C471.189026,1045.275879 471.274170,1047.993530 471.848480,1050.560791 
	C474.327148,1061.640259 486.363617,1067.251221 496.459839,1062.099976 
	C504.113708,1058.194946 506.230774,1051.477173 506.215149,1043.383789 
	C506.123230,995.719299 506.170013,948.054565 506.170013,900.389893 
	C506.170013,898.809570 506.169983,897.229309 506.169983,895.648987 
	C506.522095,895.549744 506.874207,895.450562 507.226318,895.351318 
	C524.309082,924.913513 541.391907,954.475708 558.869934,984.656311 
M174.831131,518.499939 
	C174.868988,537.829407 174.727219,557.161682 175.022873,576.487183 
	C175.164093,585.716980 182.251480,592.640503 191.050552,593.117310 
	C200.420349,593.625061 207.902008,587.709534 209.414124,578.415955 
	C209.812286,575.968811 209.821945,573.440308 209.822250,570.949158 
	C209.840088,423.631653 209.838181,276.314148 209.838181,128.996643 
	C209.838181,126.894089 209.838181,124.791542 209.838181,122.818970 
	C372.907776,122.818970 535.300598,122.818970 697.998962,122.818970 
	C697.998962,124.938446 697.999023,126.750259 697.999023,128.562073 
	C697.999023,180.723129 698.038574,232.884262 697.953430,285.045197 
	C697.941650,292.292847 700.269043,298.141113 706.584656,301.883698 
	C718.877014,309.168060 732.815674,300.208679 732.824402,285.020782 
	C732.858276,226.027145 732.689087,167.032745 732.970886,108.040436 
	C733.023804,96.956924 726.176880,87.592812 712.658386,87.667381 
	C645.834229,88.036034 579.007019,87.835220 512.180847,87.835220 
	C510.261780,87.835220 508.342712,87.835213 506.139191,87.835213 
	C506.139191,70.088356 506.309845,53.103123 506.079346,36.123333 
	C505.925018,24.752151 498.699005,18.014742 487.322235,18.004568 
	C465.491241,17.985043 443.650482,18.386320 421.833466,17.834206 
	C411.046173,17.561214 401.115784,23.990105 401.421570,38.108143 
	C401.739044,52.766357 401.492157,67.436790 401.492096,82.101883 
	C401.492096,83.871490 401.492065,85.641090 401.492065,87.835213 
	C399.046356,87.835213 397.246674,87.835220 395.446991,87.835220 
	C356.117889,87.835220 316.788757,87.835205 277.459656,87.835220 
	C249.296021,87.835236 221.132324,87.806938 192.968750,87.849930 
	C182.407135,87.866043 175.454239,94.556473 174.915207,105.047607 
	C174.821259,106.876221 174.834259,108.711449 174.834213,110.543617 
	C174.830841,246.195709 174.831131,381.847778 174.831131,518.499939 
M246.335907,952.833923 
	C238.616592,966.216858 230.896454,979.599304 223.178055,992.982788 
	C214.713165,1007.660828 206.166992,1022.292786 197.816467,1037.035522 
	C192.654068,1046.149780 194.827316,1055.885620 202.891953,1061.206665 
	C211.584412,1066.941895 222.312576,1064.123047 228.003036,1054.332397 
	C244.027954,1026.760864 259.945709,999.127014 275.890198,971.508850 
	C286.355560,953.381348 296.761505,935.219421 307.263702,917.113464 
	C310.585022,911.387512 311.398193,905.516968 308.437805,899.519836 
	C305.489532,893.547302 300.549103,890.190002 293.809998,889.857666 
	C286.422729,889.493225 281.019073,892.853638 277.382385,899.136719 
	C267.147278,916.819519 256.959442,934.529663 246.335907,952.833923 
M289.515198,192.168259 
	C292.177277,192.156601 294.843811,192.240082 297.500671,192.116196 
	C307.070038,191.669983 314.080688,184.480438 314.166473,175.108826 
	C314.253479,165.604965 307.565033,157.919678 298.030090,157.629196 
	C285.562775,157.249374 273.065918,157.279327 260.598267,157.664978 
	C252.312195,157.921280 245.319946,164.338409 245.011169,172.420105 
	C244.503937,185.695557 244.565659,199.017654 245.051697,212.295746 
	C245.296814,218.992371 249.716736,223.577225 255.924423,225.939514 
	C266.780243,230.070587 278.109161,223.046967 279.105347,211.355591 
	C279.634644,205.143478 279.199127,198.849152 279.199127,192.168274 
	C282.941040,192.168274 285.736511,192.168274 289.515198,192.168259 
M633.491089,157.497696 
	C625.999634,157.498398 618.505615,157.374054 611.017395,157.530411 
	C600.897888,157.741699 593.416626,165.089920 593.265137,174.711624 
	C593.114197,184.302612 600.977478,191.974228 611.254211,192.150421 
	C616.708801,192.243942 622.166321,192.167007 628.167419,192.167007 
	C628.167419,198.363022 627.966980,204.146866 628.211731,209.911804 
	C628.638733,219.972305 636.221069,227.149719 645.950745,227.017853 
	C655.557251,226.887650 662.895020,219.329758 662.979309,209.256012 
	C663.073975,197.936386 663.070496,186.614822 662.980835,175.295120 
	C662.898804,164.939346 655.820129,157.799545 645.472839,157.515305 
	C641.813110,157.414764 638.148254,157.498260 633.491089,157.497696 
z"/>
<path fill="#020101" opacity="1.000000" stroke="none" 
	d="
M558.672302,984.347107 
	C541.391907,954.475708 524.309082,924.913513 507.226318,895.351318 
	C506.874207,895.450562 506.522095,895.549744 506.169983,895.648987 
	C506.169983,897.229309 506.170013,898.809570 506.170013,900.389893 
	C506.170013,948.054565 506.123230,995.719299 506.215149,1043.383789 
	C506.230774,1051.477173 504.113708,1058.194946 496.459839,1062.099976 
	C486.363617,1067.251221 474.327148,1061.640259 471.848480,1050.560791 
	C471.274170,1047.993530 471.189026,1045.275879 471.187500,1042.627319 
	C471.152679,981.963257 471.160645,921.299133 471.160645,860.635071 
	C471.160645,858.848511 471.160645,857.061890 471.160645,855.072083 
	C459.461304,855.072083 448.217010,855.072083 436.509644,855.072083 
	C436.509644,857.249023 436.509613,859.199890 436.509613,861.150757 
	C436.509613,920.981567 436.514343,980.812378 436.493927,1040.643188 
	C436.493042,1043.302246 436.405151,1045.976807 436.113861,1048.617432 
	C435.126617,1057.566406 427.815460,1064.019165 418.825317,1064.001221 
	C410.066742,1063.983521 402.931091,1057.672974 401.847748,1048.867432 
	C401.564240,1046.562744 401.505371,1044.218872 401.504425,1041.892944 
	C401.485626,994.894958 401.490387,947.896912 401.490387,900.898926 
	C401.490387,899.148560 401.490356,897.398193 401.490356,895.647888 
	C401.133545,895.552673 400.776733,895.457520 400.419952,895.362305 
	C395.241791,904.340515 390.069916,913.322327 384.884430,922.296204 
	C359.594940,966.061768 334.304321,1009.826721 309.008179,1053.588501 
	C303.704468,1062.763794 294.914764,1066.341797 286.385223,1062.828857 
	C276.220642,1058.642578 272.570221,1047.166260 278.373535,1036.912354 
	C285.416840,1024.467651 292.683960,1012.149597 299.835541,999.765930 
	C326.943512,952.826172 354.044220,905.882080 381.146210,858.938782 
	C381.788116,857.826843 382.413025,856.705139 383.470001,854.839417 
	C380.819153,854.839417 378.911011,854.839355 377.002869,854.839355 
	C293.173096,854.839355 209.343292,854.840210 125.513512,854.838501 
	C111.811600,854.838257 105.023819,848.052185 105.005447,834.247742 
	C104.977287,813.081970 104.968636,791.916138 105.008537,770.750427 
	C105.034531,756.960754 111.861664,750.174255 125.594421,750.166687 
	C141.752731,750.157837 157.911041,750.164673 174.829987,750.164673 
	C174.829987,748.199402 174.829987,746.455383 174.829987,744.711365 
	C174.830078,712.546082 174.804581,680.380676 174.844666,648.215454 
	C174.858002,637.518127 179.609512,630.800598 188.380188,628.743469 
	C197.642273,626.571106 206.882675,632.132324 209.042725,641.379578 
	C209.641479,643.942871 209.802963,646.657288 209.807129,649.302917 
	C209.856995,680.968201 209.839325,712.633484 209.839325,744.298828 
	C209.839325,746.091431 209.839325,747.884033 209.839325,750.152405 
	C219.519363,750.152405 228.810669,750.397644 238.072311,749.981873 
	C240.420868,749.876404 242.951294,748.000366 244.926636,746.367493 
	C256.081329,737.146729 261.926941,725.295898 262.003021,710.714478 
	C262.049103,701.883911 261.234650,692.924500 262.461731,684.257263 
	C263.847351,674.470215 266.538361,664.763550 269.655762,655.351196 
	C274.017944,642.180542 279.330505,629.325745 284.120605,616.293213 
	C284.453796,615.386658 284.012421,614.056213 283.620789,613.042847 
	C275.384094,591.729614 279.719635,572.990845 294.917694,556.307190 
	C296.174286,554.927795 296.902039,552.548889 296.911682,550.629578 
	C297.040741,524.964661 296.990601,499.298859 297.000061,473.633270 
	C297.010681,444.802124 307.016815,419.910400 327.012695,399.223846 
	C342.008514,383.709991 349.465912,365.513794 349.228638,343.879120 
	C348.941742,317.716705 349.157806,291.548706 349.161774,265.383148 
	C349.163940,251.265182 355.749359,244.570465 369.927185,244.515686 
	C389.259430,244.440979 408.592133,244.496918 427.924652,244.496841 
	C429.728180,244.496841 431.531677,244.496841 434.380768,244.496841 
	C432.362518,234.439819 430.660431,224.869278 428.487946,215.406723 
	C425.735565,203.418320 422.509827,191.539398 419.656555,179.573120 
	C416.818970,167.672668 424.529449,157.575134 436.674683,157.536545 
	C471.339539,157.426376 506.005127,157.441254 540.670105,157.529510 
	C552.250793,157.558990 560.275024,166.748184 557.941833,178.034302 
	C555.286377,190.879303 551.997437,203.620438 548.354614,216.224869 
	C545.837830,224.933304 536.771057,229.693283 528.258179,227.780869 
	C519.752930,225.870148 513.965332,218.296021 514.907043,209.318680 
	C515.490356,203.757950 517.123657,198.307373 518.358459,192.462845 
	C498.453613,192.462845 478.878265,192.462845 458.974518,192.462845 
	C461.110077,201.883759 463.950836,211.151581 465.202301,220.629257 
	C467.659119,239.235458 470.206329,257.923004 470.886810,276.643372 
	C471.525391,294.210907 470.926788,311.998535 468.841431,329.446533 
	C466.109680,352.302917 456.559723,372.927429 442.399445,391.083130 
	C429.328644,407.841949 420.189209,426.136749 417.513977,447.381226 
	C415.705597,461.741638 416.264740,476.027802 420.579071,489.866821 
	C426.896179,510.130035 433.737274,530.229919 440.095825,549.609314 
	C448.234192,546.873596 456.161835,544.188843 464.109222,541.563965 
	C465.040009,541.256470 466.142975,540.992676 467.059296,541.194336 
	C474.800873,542.897705 477.181732,538.269409 480.430237,532.155762 
	C496.048859,502.761871 520.611450,487.842926 554.331116,489.054779 
	C554.985901,489.078308 555.642273,489.057709 556.743286,489.057709 
	C559.830688,479.208282 561.030273,468.994385 560.721191,458.736572 
	C559.970398,433.817871 551.224670,411.891876 535.851013,392.210419 
	C516.046509,366.856567 506.425720,337.742798 506.170807,305.565002 
	C506.103485,297.065918 506.096680,288.565216 506.177155,280.066345 
	C506.275024,269.737488 513.770630,262.018890 523.571838,262.009155 
	C533.257935,261.999542 540.711670,269.783630 541.012817,280.082031 
	C541.426086,294.217926 540.955688,308.467010 542.624451,322.457642 
	C544.939148,341.864746 553.838135,358.764954 565.769470,374.209106 
	C588.558105,403.707245 597.987976,437.257172 594.858643,474.303558 
	C594.287231,481.068207 593.046082,487.858673 591.276367,494.410980 
	C590.078552,498.845825 590.587463,501.605560 594.882324,503.473511 
	C596.060669,503.986023 597.019287,505.003784 598.632446,506.200409 
	C601.484436,494.105103 603.970093,482.355652 607.070374,470.770691 
	C609.902588,460.187744 612.968811,449.627045 616.688110,439.329681 
	C626.575134,411.956665 647.730896,393.976166 679.673340,391.500366 
	C679.911682,387.460968 679.781250,383.311493 680.454163,379.296631 
	C684.894165,352.805908 705.052368,335.973633 732.454224,335.384430 
	C734.825439,335.333435 737.666931,334.256104 739.441956,332.692749 
	C797.922241,281.185608 856.558960,229.850433 914.542358,177.787994 
	C933.538635,160.731522 965.280945,165.620697 974.341187,189.756516 
	C979.178650,202.643005 977.688293,214.997070 968.794922,225.418762 
	C950.638123,246.695847 932.000305,267.566833 913.341919,288.409363 
	C906.245789,296.336151 895.736694,296.753479 888.468018,290.070770 
	C881.184082,283.373993 880.694824,273.103058 887.718201,265.044250 
	C904.566284,245.712173 921.596191,226.538544 938.539307,207.289124 
	C939.651306,206.025742 940.650146,204.662689 941.701599,203.345993 
	C941.289673,202.957184 940.877808,202.568359 940.465881,202.179535 
	C884.028564,251.896866 827.591187,301.614197 771.768127,350.790375 
	C778.735962,358.146667 785.652161,365.448456 792.661011,372.848053 
	C808.218262,355.194855 823.803284,337.415863 839.501404,319.737305 
	C847.229614,311.034149 857.278809,309.733154 865.103760,316.154602 
	C873.042480,322.669464 873.514587,333.806396 866.097046,342.279785 
	C856.117432,353.679932 846.062195,365.013947 836.032959,376.370636 
	C827.765869,385.731934 819.408020,395.015503 811.296570,404.509644 
	C809.938904,406.098755 808.977844,408.572876 808.937561,410.659363 
	C808.325928,442.287384 786.006409,464.228241 754.558655,463.922913 
	C753.923218,463.916748 753.286682,464.024658 753.383606,464.016327 
	C751.137939,472.395599 749.784485,480.686646 746.634216,488.227020 
	C743.864380,494.856720 738.997131,500.594391 735.242920,506.838226 
	C734.119324,508.706787 732.941040,510.951569 732.937927,513.025635 
	C732.822205,591.188843 732.840759,669.352234 732.846619,747.515564 
	C732.846680,748.168884 732.918945,748.822205 732.998230,750.164612 
	C734.623718,750.164612 736.210815,750.164612 737.797974,750.164612 
	C752.797363,750.164612 767.796814,750.130005 782.796021,750.175293 
	C795.623169,750.213989 802.478271,757.102234 802.499573,769.985168 
	C802.535767,791.817505 802.548645,813.650146 802.494568,835.482361 
	C802.463562,848.001770 795.494568,854.833252 782.886780,854.835327 
	C725.555908,854.844788 668.224976,854.839355 610.894104,854.839355 
	C609.097839,854.839355 607.301514,854.839417 604.716614,854.839417 
	C611.577820,866.741821 618.096558,878.066467 624.630737,889.382202 
	C652.734009,938.051392 680.848206,986.714294 708.942383,1035.388672 
	C714.469055,1044.963989 713.642883,1053.812012 706.756104,1059.781250 
	C698.234070,1067.167847 685.997986,1064.979980 679.916321,1054.657349 
	C669.450806,1036.893921 659.212341,1018.996582 648.899841,1001.143127 
	C621.455444,953.630127 593.993530,906.127197 566.657043,858.552185 
	C565.025879,855.713440 563.321655,854.694641 560.064514,854.755005 
	C548.435303,854.970642 536.799622,854.839417 524.329407,854.839417 
	C525.562622,857.126404 526.425659,858.829224 527.378967,860.479919 
	C560.723450,918.220398 594.094666,975.945435 627.380249,1033.719849 
	C629.263428,1036.988525 631.148926,1040.527466 631.824463,1044.165039 
	C633.331238,1052.278809 628.518005,1060.046509 621.007751,1062.907837 
	C613.168762,1065.894409 604.618958,1063.275024 600.101074,1055.880737 
	C593.862488,1045.670044 588.026001,1035.213257 582.039368,1024.848999 
	C574.304749,1011.458069 566.592102,998.054443 558.672302,984.347107 
M343.500366,645.510010 
	C337.335693,645.510071 331.169891,645.437439 325.006683,645.532593 
	C319.880554,645.611694 313.548828,644.134766 309.986786,646.590210 
	C306.694885,648.859497 306.370850,655.435669 304.742462,660.116028 
	C300.707947,671.711914 296.257385,683.094727 296.892517,695.854431 
	C297.816498,714.416626 296.791870,732.808044 287.052948,749.903870 
	C315.748444,749.903870 343.798706,749.903870 371.374115,749.903870 
	C370.905457,742.891907 369.884918,736.096680 370.111633,729.343384 
	C370.676056,712.529846 377.100922,698.021484 388.893036,685.984497 
	C393.881622,680.892334 400.025391,679.383240 406.774994,681.423096 
	C413.193024,683.362793 417.121826,688.009888 418.569824,694.473206 
	C420.048248,701.072388 417.301331,706.353394 412.991913,711.255615 
	C404.023071,721.458130 402.380981,733.031921 407.175201,745.671509 
	C408.456085,749.048523 410.427734,750.287720 414.222870,750.265137 
	C444.546387,750.084656 474.871490,750.164368 505.196106,750.164368 
	C506.763031,750.164368 508.329956,750.164368 509.894073,750.164368 
	C509.801361,741.087036 506.672729,736.279419 497.544586,730.451721 
	C488.921417,724.946411 486.269135,715.070984 491.142426,706.613586 
	C495.950439,698.269470 506.146851,695.552124 515.016968,700.338562 
	C525.558655,706.027039 534.212219,713.874390 538.896545,724.951233 
	C542.203552,732.771240 543.946289,741.252808 546.534546,749.932373 
	C569.462036,749.932373 593.510864,749.932373 618.013916,749.932373 
	C604.008179,716.375244 596.025391,681.751953 593.794556,645.509949 
	C510.406403,645.509949 427.453400,645.509949 343.500366,645.510010 
M511.500000,785.002808 
	C387.756866,785.002808 264.013702,785.002808 140.303741,785.002808 
	C140.303741,796.970886 140.303741,808.370667 140.303741,819.610352 
	C349.617828,819.610352 558.630798,819.610352 767.579590,819.610352 
	C767.579590,807.954651 767.579590,796.687439 767.579590,785.002808 
	C682.387268,785.002808 597.443604,785.002808 511.500000,785.002808 
M390.286316,510.223297 
	C390.045502,509.426605 389.815613,508.626434 389.562378,507.833710 
	C374.261200,459.931732 380.870209,415.379028 411.129944,375.094147 
	C427.076874,353.863953 436.308563,330.738220 436.470886,304.127441 
	C436.520264,296.035278 436.478546,287.942535 436.478546,279.691162 
	C418.652374,279.691162 401.553253,279.691162 384.000885,279.691162 
	C384.000885,281.503326 384.000885,283.135132 384.000885,284.766937 
	C384.000885,304.429047 383.776215,324.094330 384.052643,343.752533 
	C384.486908,374.636841 373.920441,400.946167 352.404846,423.057465 
	C339.206726,436.621002 332.100555,452.977875 331.921204,471.985779 
	C331.708984,494.478058 331.865448,516.973877 331.885529,539.468140 
	C331.885925,539.916138 332.173798,540.363892 332.354065,540.889038 
	C349.886963,541.768860 364.229706,548.798645 374.407623,563.210510 
	C384.667206,577.738037 386.539520,593.723572 381.070892,610.610352 
	C393.845642,610.610352 406.140839,610.610352 419.968872,610.610352 
	C417.443756,599.121887 415.761475,587.940430 412.475433,577.252014 
	C405.638031,555.012146 397.951355,533.033447 390.286316,510.223297 
M664.113281,550.662231 
	C652.137634,553.752258 640.161926,556.842285 627.721130,560.052368 
	C629.736633,577.979797 624.967773,595.270630 614.577332,611.350891 
	C624.664124,614.768860 628.158691,621.709961 628.348022,631.731934 
	C628.573669,643.674622 629.609253,655.662598 631.211914,667.506653 
	C634.980408,695.354919 643.221802,721.945740 655.325378,747.310303 
	C655.903320,748.521484 657.539612,750.020325 658.703308,750.037720 
	C671.651184,750.231873 684.603149,750.160095 697.656372,750.160095 
	C697.656372,678.299683 697.656372,606.840027 697.656372,535.783203 
	C686.612122,540.660706 675.707031,545.476746 664.113281,550.662231 
M579.170593,535.322449 
	C555.128418,514.438721 519.691467,522.955078 509.042175,552.114380 
	C508.079071,554.751465 508.255890,556.530640 510.236328,558.759583 
	C520.113525,569.876343 524.515198,582.888794 523.268066,597.822205 
	C523.134399,599.422119 524.087769,601.783447 525.338867,602.718323 
	C532.910217,608.375671 541.664673,611.314087 551.025635,610.705933 
	C569.567566,609.501343 583.340210,600.537231 590.108704,582.955444 
	C596.924072,565.251770 593.119324,549.326904 579.170593,535.322449 
M697.681458,429.621582 
	C679.144165,421.463898 660.411560,428.261566 651.577881,446.461548 
	C649.842651,450.036438 648.098389,453.705994 647.106506,457.526154 
	C641.597595,478.743103 636.314392,500.018707 630.985657,521.282166 
	C630.805054,522.002869 630.962708,522.808289 630.962708,524.177490 
	C658.462097,517.479187 683.202332,506.206848 704.538330,488.236389 
	C724.638489,471.306824 721.413818,442.640625 697.681458,429.621582 
M746.542725,376.943604 
	C738.317627,366.930389 725.969482,368.524292 719.710022,374.855713 
	C714.024170,380.607056 711.654541,392.398254 722.049988,401.795288 
	C729.579773,408.601776 736.421509,416.163879 743.695129,423.260895 
	C751.445923,430.823639 762.030518,431.061737 769.098022,424.014465 
	C776.120056,417.012604 775.796875,406.315887 768.239990,398.660004 
	C761.217773,391.545685 754.113586,384.512177 746.542725,376.943604 
M454.058289,596.015259 
	C454.646606,597.729553 455.055542,599.532776 455.853333,601.143250 
	C459.975800,609.465210 469.838654,612.967834 478.247864,609.189148 
	C486.967041,605.271179 490.911957,595.491699 487.299744,586.749329 
	C484.100891,579.007263 476.044678,574.610718 467.956482,576.193054 
	C459.182800,577.909424 453.886292,585.107971 454.058289,596.015259 
M322.413025,578.727478 
	C316.031128,583.133179 313.339874,589.187073 314.861938,596.790161 
	C316.254395,603.745789 320.574738,608.251770 327.472260,610.066101 
	C334.643555,611.952454 340.605774,609.701843 345.277100,604.166138 
	C350.458069,598.026489 350.402924,588.961060 345.395935,582.564331 
	C340.102020,575.801025 331.921570,574.230957 322.413025,578.727478 
z"/>
<path fill="#010101" opacity="1.000000" stroke="none" 
	d="
M174.831131,517.999878 
	C174.831131,381.847778 174.830841,246.195709 174.834213,110.543617 
	C174.834259,108.711449 174.821259,106.876221 174.915207,105.047607 
	C175.454239,94.556473 182.407135,87.866043 192.968750,87.849930 
	C221.132324,87.806938 249.296021,87.835236 277.459656,87.835220 
	C316.788757,87.835205 356.117889,87.835220 395.446991,87.835220 
	C397.246674,87.835220 399.046356,87.835213 401.492065,87.835213 
	C401.492065,85.641090 401.492096,83.871490 401.492096,82.101883 
	C401.492157,67.436790 401.739044,52.766357 401.421570,38.108143 
	C401.115784,23.990105 411.046173,17.561214 421.833466,17.834206 
	C443.650482,18.386320 465.491241,17.985043 487.322235,18.004568 
	C498.699005,18.014742 505.925018,24.752151 506.079346,36.123333 
	C506.309845,53.103123 506.139191,70.088356 506.139191,87.835213 
	C508.342712,87.835213 510.261780,87.835220 512.180847,87.835220 
	C579.007019,87.835220 645.834229,88.036034 712.658386,87.667381 
	C726.176880,87.592812 733.023804,96.956924 732.970886,108.040436 
	C732.689087,167.032745 732.858276,226.027145 732.824402,285.020782 
	C732.815674,300.208679 718.877014,309.168060 706.584656,301.883698 
	C700.269043,298.141113 697.941650,292.292847 697.953430,285.045197 
	C698.038574,232.884262 697.999023,180.723129 697.999023,128.562073 
	C697.999023,126.750259 697.998962,124.938446 697.998962,122.818970 
	C535.300598,122.818970 372.907776,122.818970 209.838181,122.818970 
	C209.838181,124.791542 209.838181,126.894089 209.838181,128.996643 
	C209.838181,276.314148 209.840088,423.631653 209.822250,570.949158 
	C209.821945,573.440308 209.812286,575.968811 209.414124,578.415955 
	C207.902008,587.709534 200.420349,593.625061 191.050552,593.117310 
	C182.251480,592.640503 175.164093,585.716980 175.022873,576.487183 
	C174.727219,557.161682 174.868988,537.829407 174.831131,517.999878 
M436.498169,76.452637 
	C436.498169,80.184647 436.498169,83.916649 436.498169,87.454491 
	C448.546173,87.454491 459.748810,87.454491 470.782043,87.454491 
	C470.782043,75.697044 470.782043,64.326996 470.782043,53.210175 
	C459.194672,53.210175 447.992584,53.210175 436.498260,53.210175 
	C436.498260,60.876129 436.498260,68.170502 436.498169,76.452637 
z"/>
<path fill="#020101" opacity="1.000000" stroke="none" 
	d="
M246.544449,952.531494 
	C256.959442,934.529663 267.147278,916.819519 277.382385,899.136719 
	C281.019073,892.853638 286.422729,889.493225 293.809998,889.857666 
	C300.549103,890.190002 305.489532,893.547302 308.437805,899.519836 
	C311.398193,905.516968 310.585022,911.387512 307.263702,917.113464 
	C296.761505,935.219421 286.355560,953.381348 275.890198,971.508850 
	C259.945709,999.127014 244.027954,1026.760864 228.003036,1054.332397 
	C222.312576,1064.123047 211.584412,1066.941895 202.891953,1061.206665 
	C194.827316,1055.885620 192.654068,1046.149780 197.816467,1037.035522 
	C206.166992,1022.292786 214.713165,1007.660828 223.178055,992.982788 
	C230.896454,979.599304 238.616592,966.216858 246.544449,952.531494 
z"/>
<path fill="#010101" opacity="1.000000" stroke="none" 
	d="
M289.023590,192.168274 
	C285.736511,192.168274 282.941040,192.168274 279.199127,192.168274 
	C279.199127,198.849152 279.634644,205.143478 279.105347,211.355591 
	C278.109161,223.046967 266.780243,230.070587 255.924423,225.939514 
	C249.716736,223.577225 245.296814,218.992371 245.051697,212.295746 
	C244.565659,199.017654 244.503937,185.695557 245.011169,172.420105 
	C245.319946,164.338409 252.312195,157.921280 260.598267,157.664978 
	C273.065918,157.279327 285.562775,157.249374 298.030090,157.629196 
	C307.565033,157.919678 314.253479,165.604965 314.166473,175.108826 
	C314.080688,184.480438 307.070038,191.669983 297.500671,192.116196 
	C294.843811,192.240082 292.177277,192.156601 289.023590,192.168274 
z"/>
<path fill="#010101" opacity="1.000000" stroke="none" 
	d="
M633.988403,157.497726 
	C638.148254,157.498260 641.813110,157.414764 645.472839,157.515305 
	C655.820129,157.799545 662.898804,164.939346 662.980835,175.295120 
	C663.070496,186.614822 663.073975,197.936386 662.979309,209.256012 
	C662.895020,219.329758 655.557251,226.887650 645.950745,227.017853 
	C636.221069,227.149719 628.638733,219.972305 628.211731,209.911804 
	C627.966980,204.146866 628.167419,198.363022 628.167419,192.167007 
	C622.166321,192.167007 616.708801,192.243942 611.254211,192.150421 
	C600.977478,191.974228 593.114197,184.302612 593.265137,174.711624 
	C593.416626,165.089920 600.897888,157.741699 611.017395,157.530411 
	C618.505615,157.374054 625.999634,157.498398 633.988403,157.497726 
z"/>
<path fill="#FFCFB0" opacity="1.000000" stroke="none" 
	d="
M344.000366,645.510010 
	C427.453400,645.509949 510.406403,645.509949 593.794556,645.509949 
	C596.025391,681.751953 604.008179,716.375244 618.013916,749.932373 
	C593.510864,749.932373 569.462036,749.932373 546.534546,749.932373 
	C543.946289,741.252808 542.203552,732.771240 538.896545,724.951233 
	C534.212219,713.874390 525.558655,706.027039 515.016968,700.338562 
	C506.146851,695.552124 495.950439,698.269470 491.142426,706.613586 
	C486.269135,715.070984 488.921417,724.946411 497.544586,730.451721 
	C506.672729,736.279419 509.801361,741.087036 509.894073,750.164368 
	C508.329956,750.164368 506.763031,750.164368 505.196106,750.164368 
	C474.871490,750.164368 444.546387,750.084656 414.222870,750.265137 
	C410.427734,750.287720 408.456085,749.048523 407.175201,745.671509 
	C402.380981,733.031921 404.023071,721.458130 412.991913,711.255615 
	C417.301331,706.353394 420.048248,701.072388 418.569824,694.473206 
	C417.121826,688.009888 413.193024,683.362793 406.774994,681.423096 
	C400.025391,679.383240 393.881622,680.892334 388.893036,685.984497 
	C377.100922,698.021484 370.676056,712.529846 370.111633,729.343384 
	C369.884918,736.096680 370.905457,742.891907 371.374115,749.903870 
	C343.798706,749.903870 315.748444,749.903870 287.052948,749.903870 
	C296.791870,732.808044 297.816498,714.416626 296.892517,695.854431 
	C296.257385,683.094727 300.707947,671.711914 304.742462,660.116028 
	C306.370850,655.435669 306.694885,648.859497 309.986786,646.590210 
	C313.548828,644.134766 319.880554,645.611694 325.006683,645.532593 
	C331.169891,645.437439 337.335693,645.510071 344.000366,645.510010 
z"/>
<path fill="#FFCFB0" opacity="1.000000" stroke="none" 
	d="
M512.000000,785.002808 
	C597.443604,785.002808 682.387268,785.002808 767.579590,785.002808 
	C767.579590,796.687439 767.579590,807.954651 767.579590,819.610352 
	C558.630798,819.610352 349.617828,819.610352 140.303741,819.610352 
	C140.303741,808.370667 140.303741,796.970886 140.303741,785.002808 
	C264.013702,785.002808 387.756866,785.002808 512.000000,785.002808 
z"/>
<path fill="#FECEAF" opacity="1.000000" stroke="none" 
	d="
M390.450012,510.585358 
	C397.951355,533.033447 405.638031,555.012146 412.475433,577.252014 
	C415.761475,587.940430 417.443756,599.121887 419.968872,610.610352 
	C406.140839,610.610352 393.845642,610.610352 381.070892,610.610352 
	C386.539520,593.723572 384.667206,577.738037 374.407623,563.210510 
	C364.229706,548.798645 349.886963,541.768860 332.354065,540.889038 
	C332.173798,540.363892 331.885925,539.916138 331.885529,539.468140 
	C331.865448,516.973877 331.708984,494.478058 331.921204,471.985779 
	C332.100555,452.977875 339.206726,436.621002 352.404846,423.057465 
	C373.920441,400.946167 384.486908,374.636841 384.052643,343.752533 
	C383.776215,324.094330 384.000885,304.429047 384.000885,284.766937 
	C384.000885,283.135132 384.000885,281.503326 384.000885,279.691162 
	C401.553253,279.691162 418.652374,279.691162 436.478546,279.691162 
	C436.478546,287.942535 436.520264,296.035278 436.470886,304.127441 
	C436.308563,330.738220 427.076874,353.863953 411.129944,375.094147 
	C380.870209,415.379028 374.261200,459.931732 389.562378,507.833710 
	C389.815613,508.626434 390.045502,509.426605 390.450012,510.585358 
z"/>
<path fill="#FECFB0" opacity="1.000000" stroke="none" 
	d="
M664.457642,550.477539 
	C675.707031,545.476746 686.612122,540.660706 697.656372,535.783203 
	C697.656372,606.840027 697.656372,678.299683 697.656372,750.160095 
	C684.603149,750.160095 671.651184,750.231873 658.703308,750.037720 
	C657.539612,750.020325 655.903320,748.521484 655.325378,747.310303 
	C643.221802,721.945740 634.980408,695.354919 631.211914,667.506653 
	C629.609253,655.662598 628.573669,643.674622 628.348022,631.731934 
	C628.158691,621.709961 624.664124,614.768860 614.577332,611.350891 
	C624.967773,595.270630 629.736633,577.979797 627.721130,560.052368 
	C640.161926,556.842285 652.137634,553.752258 664.457642,550.477539 
z"/>
<path fill="#FECEAF" opacity="1.000000" stroke="none" 
	d="
M579.431885,535.566040 
	C593.119324,549.326904 596.924072,565.251770 590.108704,582.955444 
	C583.340210,600.537231 569.567566,609.501343 551.025635,610.705933 
	C541.664673,611.314087 532.910217,608.375671 525.338867,602.718323 
	C524.087769,601.783447 523.134399,599.422119 523.268066,597.822205 
	C524.515198,582.888794 520.113525,569.876343 510.236328,558.759583 
	C508.255890,556.530640 508.079071,554.751465 509.042175,552.114380 
	C519.691467,522.955078 555.128418,514.438721 579.431885,535.566040 
z"/>
<path fill="#FDCEAF" opacity="1.000000" stroke="none" 
	d="
M698.026855,429.776337 
	C721.413818,442.640625 724.638489,471.306824 704.538330,488.236389 
	C683.202332,506.206848 658.462097,517.479187 630.962708,524.177490 
	C630.962708,522.808289 630.805054,522.002869 630.985657,521.282166 
	C636.314392,500.018707 641.597595,478.743103 647.106506,457.526154 
	C648.098389,453.705994 649.842651,450.036438 651.577881,446.461548 
	C660.411560,428.261566 679.144165,421.463898 698.026855,429.776337 
z"/>
<path fill="#FDCEAF" opacity="1.000000" stroke="none" 
	d="
M746.794128,377.193359 
	C754.113586,384.512177 761.217773,391.545685 768.239990,398.660004 
	C775.796875,406.315887 776.120056,417.012604 769.098022,424.014465 
	C762.030518,431.061737 751.445923,430.823639 743.695129,423.260895 
	C736.421509,416.163879 729.579773,408.601776 722.049988,401.795288 
	C711.654541,392.398254 714.024170,380.607056 719.710022,374.855713 
	C725.969482,368.524292 738.317627,366.930389 746.794128,377.193359 
z"/>
<path fill="#FCCCAE" opacity="1.000000" stroke="none" 
	d="
M454.028931,595.588562 
	C453.886292,585.107971 459.182800,577.909424 467.956482,576.193054 
	C476.044678,574.610718 484.100891,579.007263 487.299744,586.749329 
	C490.911957,595.491699 486.967041,605.271179 478.247864,609.189148 
	C469.838654,612.967834 459.975800,609.465210 455.853333,601.143250 
	C455.055542,599.532776 454.646606,597.729553 454.028931,595.588562 
z"/>
<path fill="#FCCCAE" opacity="1.000000" stroke="none" 
	d="
M322.712341,578.497864 
	C331.921570,574.230957 340.102020,575.801025 345.395935,582.564331 
	C350.402924,588.961060 350.458069,598.026489 345.277100,604.166138 
	C340.605774,609.701843 334.643555,611.952454 327.472260,610.066101 
	C320.574738,608.251770 316.254395,603.745789 314.861938,596.790161 
	C313.339874,589.187073 316.031128,583.133179 322.712341,578.497864 
z"/>
<path fill="#FDCEAF" opacity="1.000000" stroke="none" 
	d="
M436.498230,75.958755 
	C436.498260,68.170502 436.498260,60.876129 436.498260,53.210175 
	C447.992584,53.210175 459.194672,53.210175 470.782043,53.210175 
	C470.782043,64.326996 470.782043,75.697044 470.782043,87.454491 
	C459.748810,87.454491 448.546173,87.454491 436.498169,87.454491 
	C436.498169,83.916649 436.498169,80.184647 436.498230,75.958755 
z"/>
</svg>