<svg version="1.1" id="Layer_1" xmlns="http://www.w3.org/2000/svg" xmlns:xlink="http://www.w3.org/1999/xlink" x="0px" y="0px"
	 width="100%" viewBox="0 0 1080 1080" enable-background="new 0 0 1080 1080" xml:space="preserve">
<path fill="#020101" opacity="1.000000" stroke="none" 
	d="
M0.999995,939.000000 
	C1.000000,673.971985 1.000000,408.943939 1.320683,143.226303 
	C7.491721,99.343948 42.818604,68.507217 86.477600,68.506821 
	C389.635498,68.504036 692.793396,68.503403 995.951294,68.507919 
	C1032.492310,68.508461 1063.903931,90.615143 1076.143433,125.086853 
	C1078.102295,130.603851 1079.397827,136.356369 1081.000000,142.000000 
	C1081.000000,407.694702 1081.000000,673.389404 1080.665527,939.748169 
	C1073.161987,983.595764 1038.740967,1013.503357 996.076782,1013.505188 
	C692.611084,1013.518311 389.145386,1013.519287 85.679665,1013.502502 
	C49.948803,1013.500488 18.416470,991.553650 6.183289,958.024597 
	C3.938382,951.871765 2.701935,945.350952 0.999995,939.000000 
M1047.160278,874.500061 
	C1047.160278,662.128601 1047.160278,449.757141 1047.160278,237.413849 
	C855.078918,237.413849 663.822998,237.413849 472.382446,237.413849 
	C472.198120,238.403778 472.046387,239.190598 471.905457,239.979340 
	C467.917725,262.293762 458.683014,282.136047 443.411011,298.931030 
	C419.481354,325.247101 389.568024,338.458527 354.011658,338.483643 
	C249.691895,338.557373 145.372025,338.509918 41.052200,338.509918 
	C39.114140,338.509918 37.176079,338.509918 34.839546,338.509918 
	C34.839546,340.505310 34.839546,341.977081 34.839546,343.448822 
	C34.839561,538.256958 34.827721,733.065063 34.852051,927.873169 
	C34.855785,957.785278 56.945969,979.816040 86.994026,979.818542 
	C389.621521,979.843750 692.249023,979.842346 994.876526,979.820984 
	C1025.168823,979.818848 1047.093262,957.803101 1047.154053,927.493408 
	C1047.188843,910.162354 1047.160278,892.831238 1047.160278,874.500061 
M481.500061,102.167084 
	C350.358978,102.167084 219.217911,102.164917 88.076828,102.168640 
	C56.447853,102.169540 34.840557,123.833305 34.837589,155.536865 
	C34.833118,203.360931 34.836430,251.184998 34.836430,299.009064 
	C34.836430,300.795349 34.836430,302.581635 34.836430,304.836975 
	C36.784164,304.836975 38.239822,304.836975 39.695484,304.836975 
	C145.008423,304.836975 250.321365,304.855774 355.634216,304.776276 
	C360.427979,304.772644 365.294586,304.261108 370.002899,303.346069 
	C411.026459,295.373474 438.623291,262.715179 439.833893,220.915543 
	C440.129547,210.707886 446.404327,204.189331 456.609924,203.548813 
	C458.436188,203.434174 460.274536,203.502548 462.107300,203.502533 
	C654.903259,203.501083 847.699280,203.501160 1040.495239,203.501160 
	C1042.594116,203.501160 1044.692993,203.501175 1047.163330,203.501175 
	C1047.163330,189.955475 1047.217651,176.988464 1047.139893,164.022217 
	C1047.101929,157.698868 1047.544556,151.256256 1046.517944,145.075500 
	C1042.207275,119.123154 1021.377502,102.171936 994.400940,102.170784 
	C823.767334,102.163498 653.133728,102.167084 481.500061,102.167084 
z"/>
<path fill="#FDCEAF" opacity="1.000000" stroke="none" 
	d="
M1081.000000,141.531342 
	C1079.397827,136.356369 1078.102295,130.603851 1076.143433,125.086853 
	C1063.903931,90.615143 1032.492310,68.508461 995.951294,68.507919 
	C692.793396,68.503403 389.635498,68.504036 86.477600,68.506821 
	C42.818604,68.507217 7.491721,99.343948 1.320683,142.768356 
	C1.000000,95.681854 1.000000,48.363712 1.000001,1.049706 
	C361.000000,1.053843 721.000000,1.053843 1081.000000,1.053843 
	C1081.000000,47.759350 1081.000000,94.411018 1081.000000,141.531342 
z"/>
<path fill="#FFCFB0" opacity="1.000000" stroke="none" 
	d="
M0.999995,939.468628 
	C2.701935,945.350952 3.938382,951.871765 6.183289,958.024597 
	C18.416470,991.553650 49.948803,1013.500488 85.679665,1013.502502 
	C389.145386,1013.519287 692.611084,1013.518311 996.076782,1013.505188 
	C1038.740967,1013.503357 1073.161987,983.595764 1080.665527,940.206177 
	C1081.000000,986.984924 1081.000000,1033.969849 1081.000000,1080.950439 
	C721.000000,1080.946045 361.000000,1080.946045 1.000000,1080.946045 
	C1.000000,1033.907104 1.000000,986.922180 0.999995,939.468628 
z"/>
<path fill="#FECEB0" opacity="1.000000" stroke="none" 
	d="
M1047.160278,875.000122 
	C1047.160278,892.831238 1047.188843,910.162354 1047.154053,927.493408 
	C1047.093262,957.803101 1025.168823,979.818848 994.876526,979.820984 
	C692.249023,979.842346 389.621521,979.843750 86.994026,979.818542 
	C56.945969,979.816040 34.855785,957.785278 34.852051,927.873169 
	C34.827721,733.065063 34.839561,538.256958 34.839546,343.448822 
	C34.839546,341.977081 34.839546,340.505310 34.839546,338.509918 
	C37.176079,338.509918 39.114140,338.509918 41.052200,338.509918 
	C145.372025,338.509918 249.691895,338.557373 354.011658,338.483643 
	C389.568024,338.458527 419.481354,325.247101 443.411011,298.931030 
	C458.683014,282.136047 467.917725,262.293762 471.905457,239.979340 
	C472.046387,239.190598 472.198120,238.403778 472.382446,237.413849 
	C663.822998,237.413849 855.078918,237.413849 1047.160278,237.413849 
	C1047.160278,449.757141 1047.160278,662.128601 1047.160278,875.000122 
M558.001770,695.500000 
	C558.001770,694.666687 558.002502,693.833374 558.001709,693.000061 
	C557.948730,636.170471 558.124634,579.339355 557.730713,522.512146 
	C557.571167,499.497345 541.100952,479.359070 518.567993,475.176666 
	C507.247192,473.075409 495.372192,473.568207 483.747223,473.558044 
	C368.584625,473.457397 253.421906,473.481293 138.259216,473.507812 
	C107.829514,473.514832 85.404549,495.369110 85.417831,524.764954 
	C85.458199,614.094666 85.469719,703.424316 85.489967,792.754028 
	C85.496696,822.447205 107.304077,844.765869 137.005859,844.792603 
	C260.001495,844.903442 382.997345,844.885986 505.993042,844.804871 
	C535.110229,844.785645 557.209717,823.622253 557.748169,794.488098 
	C558.351685,761.834961 557.960327,729.163513 558.001770,695.500000 
M873.500427,473.507050 
	C792.037048,473.507080 710.573608,473.504761 629.110229,473.519867 
	C626.951965,473.520294 624.765442,473.523804 622.640381,473.845123 
	C614.780823,475.033417 609.148560,481.174377 608.519348,489.020813 
	C607.697021,499.275940 616.140442,507.331421 627.426758,507.309021 
	C744.207092,507.076996 860.988159,507.166656 977.768982,507.162292 
	C979.100647,507.162262 980.440918,507.188263 981.762512,507.055908 
	C991.307983,506.099945 998.211609,496.839905 996.366089,487.511963 
	C994.577515,478.472168 988.167847,473.529175 977.953979,473.519562 
	C943.469482,473.487152 908.984985,473.507050 873.500427,473.507050 
M894.823669,569.913940 
	C891.434387,560.784973 884.529114,557.754639 875.221741,557.766663 
	C793.072571,557.873291 710.923279,557.822449 628.773987,557.855835 
	C626.128418,557.856873 623.386597,557.889282 620.855164,558.545654 
	C612.513367,560.708862 607.434326,568.677734 608.647522,577.224304 
	C609.898987,586.040527 616.779663,591.509827 626.773438,591.511292 
	C710.089111,591.523315 793.404846,591.523376 876.720520,591.512756 
	C889.719421,591.511108 896.654114,583.562195 894.823669,569.913940 
M691.500000,810.997375 
	C669.677795,810.997437 647.855591,810.961487 626.033508,811.013855 
	C616.356506,811.037048 609.166199,817.520508 608.517883,826.593262 
	C607.758240,837.224182 615.602417,844.830383 627.456848,844.832520 
	C710.414612,844.847290 793.372437,844.840454 876.330200,844.839355 
	C877.329468,844.839355 878.334045,844.886719 879.327209,844.804382 
	C887.353210,844.138611 893.699219,838.610596 895.059265,831.132019 
	C897.084473,819.995361 889.282471,811.016479 877.405945,811.010864 
	C815.770630,810.981934 754.135315,810.997375 691.500000,810.997375 
M867.490356,642.163635 
	C788.038330,642.163635 708.586365,642.155273 629.134338,642.198120 
	C626.330383,642.199646 623.422546,642.325134 620.741089,643.050476 
	C610.046753,645.943604 605.203552,658.453552 611.042053,667.873291 
	C614.837158,673.996277 620.601868,676.049561 627.611633,676.044067 
	C710.561523,675.979675 793.511475,676.002747 876.461426,676.000549 
	C877.460388,676.000549 878.463074,676.018677 879.457703,675.944336 
	C887.962158,675.309387 894.607056,668.815613 895.139160,660.642578 
	C895.731384,651.546753 890.285339,644.097717 881.432373,642.668762 
	C877.199585,641.985535 872.805603,642.300720 867.490356,642.163635 
M702.499939,760.166321 
	C760.791809,760.166260 819.083740,760.177124 877.375610,760.156189 
	C887.876160,760.152405 895.177673,753.239136 895.162537,743.472046 
	C895.147400,733.712952 887.846008,726.848633 877.323608,726.846619 
	C793.549805,726.830750 709.776001,726.833435 626.002197,726.864136 
	C624.030090,726.864868 621.965027,726.953003 620.102173,727.521118 
	C612.174500,729.938538 607.394836,737.941345 608.715027,746.250671 
	C610.005798,754.374573 616.618286,760.123718 625.054260,760.143921 
	C650.535950,760.204895 676.018005,760.166199 702.499939,760.166321 
M962.500000,557.828491 
	C951.185242,557.871887 939.861938,557.658447 928.558472,558.038147 
	C919.150696,558.354248 912.195312,565.959106 912.378662,574.903564 
	C912.567566,584.119812 919.484436,591.343506 928.900269,591.455505 
	C946.039429,591.659424 963.184631,591.659424 980.323730,591.453735 
	C989.617493,591.342224 996.795837,583.807800 996.832642,574.814758 
	C996.868286,566.107666 989.924622,558.577209 980.964172,558.041199 
	C975.159302,557.693909 969.322388,557.880920 962.500000,557.828491 
M912.632629,825.205322 
	C911.698486,836.651550 918.579956,844.637695 930.060730,844.786499 
	C946.552063,845.000427 963.049744,844.975891 979.541809,844.789246 
	C989.348633,844.678284 996.987061,836.876587 996.826904,827.706909 
	C996.662903,818.315613 989.113586,811.063843 979.203613,811.016907 
	C962.876465,810.939697 946.548462,810.942139 930.221313,811.017395 
	C921.136658,811.059265 915.348999,815.627441 912.632629,825.205322 
M927.987732,675.928955 
	C944.633362,675.954041 961.279053,676.012695 977.924622,675.992188 
	C988.838623,675.978760 996.312317,669.267761 996.509277,659.443604 
	C996.710144,649.424805 989.145447,642.245728 978.057556,642.184082 
	C962.243835,642.096191 946.428955,642.094666 930.615234,642.185913 
	C920.384644,642.244995 913.438477,648.224426 912.326599,657.630310 
	C911.302551,666.293457 917.204041,673.568420 927.987732,675.928955 
M976.402832,760.169739 
	C976.901978,760.169739 977.407043,760.119751 977.899475,760.177124 
	C987.490173,761.295044 996.283264,754.067566 996.436279,743.730957 
	C996.586365,733.588318 988.121582,726.337708 977.863220,726.689575 
	C961.908875,727.236938 945.921997,726.804260 929.948975,726.845337 
	C919.852356,726.871277 912.521606,733.774536 912.361084,743.282043 
	C912.198914,752.887024 919.720947,760.131348 930.005066,760.159180 
	C945.146118,760.200073 960.287354,760.169739 976.402832,760.169739 
z"/>
<path fill="#FDCEAF" opacity="1.000000" stroke="none" 
	d="
M482.000092,102.167084 
	C653.133728,102.167084 823.767334,102.163498 994.400940,102.170784 
	C1021.377502,102.171936 1042.207275,119.123154 1046.517944,145.075500 
	C1047.544556,151.256256 1047.101929,157.698868 1047.139893,164.022217 
	C1047.217651,176.988464 1047.163330,189.955475 1047.163330,203.501175 
	C1044.692993,203.501175 1042.594116,203.501160 1040.495239,203.501160 
	C847.699280,203.501160 654.903259,203.501083 462.107300,203.502533 
	C460.274536,203.502548 458.436188,203.434174 456.609924,203.548813 
	C446.404327,204.189331 440.129547,210.707886 439.833893,220.915543 
	C438.623291,262.715179 411.026459,295.373474 370.002899,303.346069 
	C365.294586,304.261108 360.427979,304.772644 355.634216,304.776276 
	C250.321365,304.855774 145.008423,304.836975 39.695484,304.836975 
	C38.239822,304.836975 36.784164,304.836975 34.836430,304.836975 
	C34.836430,302.581635 34.836430,300.795349 34.836430,299.009064 
	C34.836430,251.184998 34.833118,203.360931 34.837589,155.536865 
	C34.840557,123.833305 56.447853,102.169540 88.076828,102.168640 
	C219.217911,102.164917 350.358978,102.167084 482.000092,102.167084 
M795.499939,169.837234 
	C828.314636,169.837204 861.129333,169.868332 893.943970,169.819183 
	C904.519653,169.803329 911.971130,162.961609 912.166077,153.342850 
	C912.373840,143.090652 904.960205,136.008286 893.896362,136.006714 
	C804.947083,135.994080 715.997864,135.999573 627.048584,136.000473 
	C626.049194,136.000473 625.044556,135.948471 624.051331,136.029907 
	C616.278076,136.667191 610.018677,142.472275 608.768433,150.170898 
	C606.989929,161.123016 615.017578,169.816895 627.095337,169.823563 
	C682.896851,169.854370 738.698364,169.837219 795.499939,169.837234 
M147.597717,262.133606 
	C163.998322,250.103775 171.562500,234.060120 169.166153,213.731216 
	C165.870209,185.770691 138.520798,165.429474 111.138695,170.378860 
	C82.029198,175.640503 63.294003,203.096970 69.706070,231.098480 
	C77.713577,266.067261 115.851990,281.594116 147.597717,262.133606 
M220.369614,172.747482 
	C183.477783,186.139984 174.819290,233.559174 204.619888,259.002625 
	C220.564468,272.615967 243.420120,274.809601 261.940186,264.504181 
	C280.172394,254.358932 290.396851,233.636398 287.226379,213.255112 
	C282.292755,181.539551 252.955002,163.422073 220.369614,172.747482 
M319.337067,184.843140 
	C310.233978,194.380692 305.022888,205.680038 304.900269,218.908875 
	C304.707123,239.744125 313.811676,255.672897 332.286713,265.184814 
	C351.145630,274.894379 369.821747,273.084778 386.542206,259.961914 
	C402.940460,247.091888 409.286072,229.572739 404.656372,209.367676 
	C395.567383,169.701187 348.011810,156.981735 319.337067,184.843140 
M945.991394,169.829590 
	C956.963135,169.832626 967.936218,169.942078 978.906311,169.807709 
	C989.156616,169.682144 996.588806,162.418304 996.630005,152.791733 
	C996.670410,143.358353 988.943665,136.059113 978.757507,136.009064 
	C968.617188,135.959244 958.476318,135.981522 948.335815,136.002609 
	C937.498413,136.025131 930.064453,142.060898 929.190430,151.502594 
	C928.340881,160.679459 934.511169,167.753464 945.991394,169.829590 
z"/>
<path fill="#020101" opacity="1.000000" stroke="none" 
	d="
M558.001770,696.000000 
	C557.960327,729.163513 558.351685,761.834961 557.748169,794.488098 
	C557.209717,823.622253 535.110229,844.785645 505.993042,844.804871 
	C382.997345,844.885986 260.001495,844.903442 137.005859,844.792603 
	C107.304077,844.765869 85.496696,822.447205 85.489967,792.754028 
	C85.469719,703.424316 85.458199,614.094666 85.417831,524.764954 
	C85.404549,495.369110 107.829514,473.514832 138.259216,473.507812 
	C253.421906,473.481293 368.584625,473.457397 483.747223,473.558044 
	C495.372192,473.568207 507.247192,473.075409 518.567993,475.176666 
	C541.100952,479.359070 557.571167,499.497345 557.730713,522.512146 
	C558.124634,579.339355 557.948730,636.170471 558.001709,693.000061 
	C558.002502,693.833374 558.001770,694.666687 558.001770,696.000000 
M319.051910,671.551758 
	C348.747925,641.855530 378.441620,612.156982 408.141144,582.464294 
	C418.630951,571.976929 427.151703,572.003723 437.714172,582.562988 
	C465.057068,609.897461 492.391327,637.240540 519.733154,664.576111 
	C520.922607,665.765320 522.152893,666.913757 523.999023,668.693054 
	C523.999023,666.031677 523.999023,664.549988 523.999023,663.068359 
	C523.999023,617.406311 524.002441,571.744263 523.996704,526.082214 
	C523.995239,514.031250 517.280762,507.272430 505.158142,507.180115 
	C497.326050,507.120483 489.493164,507.168793 481.660614,507.168793 
	C368.172119,507.168793 254.683624,507.168732 141.195129,507.168854 
	C124.877754,507.168854 119.166542,512.829712 119.167351,528.968506 
	C119.170738,595.961731 119.168777,662.954956 119.168777,729.948181 
	C119.168777,731.701050 119.168785,733.453979 119.168785,736.204834 
	C121.255859,734.221130 122.566086,733.029480 123.817314,731.778687 
	C151.161194,704.445190 178.495682,677.102295 205.838516,649.767761 
	C216.012466,639.596985 224.782181,639.639282 235.057755,649.906860 
	C251.443802,666.280090 267.817535,682.665588 284.204498,699.037903 
	C285.346558,700.178894 286.554932,701.253418 288.007629,702.617126 
	C298.333069,692.284546 308.442474,682.168152 319.051910,671.551758 
M274.443451,737.056458 
	C256.480408,719.089966 238.517349,701.123413 220.615295,683.217957 
	C219.953049,683.665100 219.637802,683.812378 219.406494,684.043518 
	C186.643433,716.781860 153.883484,749.523315 121.147530,782.288696 
	C120.360497,783.076477 119.367393,784.090942 119.275398,785.075012 
	C118.059128,798.085388 120.429314,811.164978 139.466278,811.065491 
	C181.287704,810.846924 223.111053,810.997742 264.933624,810.997742 
	C344.913055,810.997742 424.892456,811.004089 504.871887,810.990967 
	C517.399963,810.988892 523.992920,804.403748 523.995972,791.990295 
	C524.001892,768.163086 524.064880,744.335449 523.884827,720.509583 
	C523.868408,718.333740 522.833923,715.607727 521.319702,714.083313 
	C489.498138,682.047791 457.541229,650.146729 425.597748,618.232422 
	C424.712189,617.347717 423.681244,616.608521 423.346313,616.327820 
	C386.199280,653.475098 349.377380,690.297180 312.072021,727.602722 
	C312.902100,728.253967 314.192078,729.073059 315.249542,730.125671 
	C326.704559,741.527710 338.114807,752.974854 349.555145,764.391724 
	C355.006653,769.832092 357.035583,776.207153 354.132477,783.489258 
	C349.400543,795.358704 335.374725,797.833496 325.867157,788.429626 
	C308.808441,771.557007 291.909332,754.523010 274.443451,737.056458 
z"/>
<path fill="#000000" opacity="1.000000" stroke="none" 
	d="
M874.000488,473.507019 
	C908.984985,473.507050 943.469482,473.487152 977.953979,473.519562 
	C988.167847,473.529175 994.577515,478.472168 996.366089,487.511963 
	C998.211609,496.839905 991.307983,506.099945 981.762512,507.055908 
	C980.440918,507.188263 979.100647,507.162262 977.768982,507.162292 
	C860.988159,507.166656 744.207092,507.076996 627.426758,507.309021 
	C616.140442,507.331421 607.697021,499.275940 608.519348,489.020813 
	C609.148560,481.174377 614.780823,475.033417 622.640381,473.845123 
	C624.765442,473.523804 626.951965,473.520294 629.110229,473.519867 
	C710.573608,473.504761 792.037048,473.507080 874.000488,473.507019 
z"/>
<path fill="#040303" opacity="1.000000" stroke="none" 
	d="
M894.902771,570.293823 
	C896.654114,583.562195 889.719421,591.511108 876.720520,591.512756 
	C793.404846,591.523376 710.089111,591.523315 626.773438,591.511292 
	C616.779663,591.509827 609.898987,586.040527 608.647522,577.224304 
	C607.434326,568.677734 612.513367,560.708862 620.855164,558.545654 
	C623.386597,557.889282 626.128418,557.856873 628.773987,557.855835 
	C710.923279,557.822449 793.072571,557.873291 875.221741,557.766663 
	C884.529114,557.754639 891.434387,560.784973 894.902771,570.293823 
z"/>
<path fill="#020201" opacity="1.000000" stroke="none" 
	d="
M692.000000,810.997375 
	C754.135315,810.997375 815.770630,810.981934 877.405945,811.010864 
	C889.282471,811.016479 897.084473,819.995361 895.059265,831.132019 
	C893.699219,838.610596 887.353210,844.138611 879.327209,844.804382 
	C878.334045,844.886719 877.329468,844.839355 876.330200,844.839355 
	C793.372437,844.840454 710.414612,844.847290 627.456848,844.832520 
	C615.602417,844.830383 607.758240,837.224182 608.517883,826.593262 
	C609.166199,817.520508 616.356506,811.037048 626.033508,811.013855 
	C647.855591,810.961487 669.677795,810.997437 692.000000,810.997375 
z"/>
<path fill="#020201" opacity="1.000000" stroke="none" 
	d="
M867.987549,642.163635 
	C872.805603,642.300720 877.199585,641.985535 881.432373,642.668762 
	C890.285339,644.097717 895.731384,651.546753 895.139160,660.642578 
	C894.607056,668.815613 887.962158,675.309387 879.457703,675.944336 
	C878.463074,676.018677 877.460388,676.000549 876.461426,676.000549 
	C793.511475,676.002747 710.561523,675.979675 627.611633,676.044067 
	C620.601868,676.049561 614.837158,673.996277 611.042053,667.873291 
	C605.203552,658.453552 610.046753,645.943604 620.741089,643.050476 
	C623.422546,642.325134 626.330383,642.199646 629.134338,642.198120 
	C708.586365,642.155273 788.038330,642.163635 867.987549,642.163635 
z"/>
<path fill="#000000" opacity="1.000000" stroke="none" 
	d="
M701.999878,760.166321 
	C676.018005,760.166199 650.535950,760.204895 625.054260,760.143921 
	C616.618286,760.123718 610.005798,754.374573 608.715027,746.250671 
	C607.394836,737.941345 612.174500,729.938538 620.102173,727.521118 
	C621.965027,726.953003 624.030090,726.864868 626.002197,726.864136 
	C709.776001,726.833435 793.549805,726.830750 877.323608,726.846619 
	C887.846008,726.848633 895.147400,733.712952 895.162537,743.472046 
	C895.177673,753.239136 887.876160,760.152405 877.375610,760.156189 
	C819.083740,760.177124 760.791809,760.166260 701.999878,760.166321 
z"/>
<path fill="#040303" opacity="1.000000" stroke="none" 
	d="
M962.999939,557.828491 
	C969.322388,557.880920 975.159302,557.693909 980.964172,558.041199 
	C989.924622,558.577209 996.868286,566.107666 996.832642,574.814758 
	C996.795837,583.807800 989.617493,591.342224 980.323730,591.453735 
	C963.184631,591.659424 946.039429,591.659424 928.900269,591.455505 
	C919.484436,591.343506 912.567566,584.119812 912.378662,574.903564 
	C912.195312,565.959106 919.150696,558.354248 928.558472,558.038147 
	C939.861938,557.658447 951.185242,557.871887 962.999939,557.828491 
z"/>
<path fill="#030202" opacity="1.000000" stroke="none" 
	d="
M912.729553,824.819214 
	C915.348999,815.627441 921.136658,811.059265 930.221313,811.017395 
	C946.548462,810.942139 962.876465,810.939697 979.203613,811.016907 
	C989.113586,811.063843 996.662903,818.315613 996.826904,827.706909 
	C996.987061,836.876587 989.348633,844.678284 979.541809,844.789246 
	C963.049744,844.975891 946.552063,845.000427 930.060730,844.786499 
	C918.579956,844.637695 911.698486,836.651550 912.729553,824.819214 
z"/>
<path fill="#030202" opacity="1.000000" stroke="none" 
	d="
M927.546448,675.888550 
	C917.204041,673.568420 911.302551,666.293457 912.326599,657.630310 
	C913.438477,648.224426 920.384644,642.244995 930.615234,642.185913 
	C946.428955,642.094666 962.243835,642.096191 978.057556,642.184082 
	C989.145447,642.245728 996.710144,649.424805 996.509277,659.443604 
	C996.312317,669.267761 988.838623,675.978760 977.924622,675.992188 
	C961.279053,676.012695 944.633362,675.954041 927.546448,675.888550 
z"/>
<path fill="#020101" opacity="1.000000" stroke="none" 
	d="
M975.915649,760.169739 
	C960.287354,760.169739 945.146118,760.200073 930.005066,760.159180 
	C919.720947,760.131348 912.198914,752.887024 912.361084,743.282043 
	C912.521606,733.774536 919.852356,726.871277 929.948975,726.845337 
	C945.921997,726.804260 961.908875,727.236938 977.863220,726.689575 
	C988.121582,726.337708 996.586365,733.588318 996.436279,743.730957 
	C996.283264,754.067566 987.490173,761.295044 977.899475,760.177124 
	C977.407043,760.119751 976.901978,760.169739 975.915649,760.169739 
z"/>
<path fill="#020201" opacity="1.000000" stroke="none" 
	d="
M794.999878,169.837234 
	C738.698364,169.837219 682.896851,169.854370 627.095337,169.823563 
	C615.017578,169.816895 606.989929,161.123016 608.768433,150.170898 
	C610.018677,142.472275 616.278076,136.667191 624.051331,136.029907 
	C625.044556,135.948471 626.049194,136.000473 627.048584,136.000473 
	C715.997864,135.999573 804.947083,135.994080 893.896362,136.006714 
	C904.960205,136.008286 912.373840,143.090652 912.166077,153.342850 
	C911.971130,162.961609 904.519653,169.803329 893.943970,169.819183 
	C861.129333,169.868332 828.314636,169.837204 794.999878,169.837234 
z"/>
<path fill="#020201" opacity="1.000000" stroke="none" 
	d="
M147.310349,262.354614 
	C115.851990,281.594116 77.713577,266.067261 69.706070,231.098480 
	C63.294003,203.096970 82.029198,175.640503 111.138695,170.378860 
	C138.520798,165.429474 165.870209,185.770691 169.166153,213.731216 
	C171.562500,234.060120 163.998322,250.103775 147.310349,262.354614 
M117.093864,203.794601 
	C109.516891,204.829468 104.745598,209.177719 102.845085,216.449539 
	C101.020645,223.430298 103.412895,229.240784 108.913521,233.665451 
	C114.642654,238.273941 122.735481,238.313568 128.820450,234.067230 
	C134.740616,229.935944 137.273468,222.590729 135.170044,215.653580 
	C132.811493,207.875015 127.007744,203.861633 117.093864,203.794601 
z"/>
<path fill="#020201" opacity="1.000000" stroke="none" 
	d="
M220.729156,172.579681 
	C252.955002,163.422073 282.292755,181.539551 287.226379,213.255112 
	C290.396851,233.636398 280.172394,254.358932 261.940186,264.504181 
	C243.420120,274.809601 220.564468,272.615967 204.619888,259.002625 
	C174.819290,233.559174 183.477783,186.139984 220.729156,172.579681 
M224.306854,231.113220 
	C231.010696,237.727295 239.322021,239.026764 246.343643,234.558594 
	C252.654541,230.542694 255.637894,222.470139 253.272919,215.419098 
	C251.012054,208.678406 246.368759,204.588852 239.227097,203.778412 
	C232.349747,202.997955 226.739395,205.519714 223.127747,211.425720 
	C219.220810,217.814606 219.431290,224.315094 224.306854,231.113220 
z"/>
<path fill="#020201" opacity="1.000000" stroke="none" 
	d="
M319.589661,184.590546 
	C348.011810,156.981735 395.567383,169.701187 404.656372,209.367676 
	C409.286072,229.572739 402.940460,247.091888 386.542206,259.961914 
	C369.821747,273.084778 351.145630,274.894379 332.286713,265.184814 
	C313.811676,255.672897 304.707123,239.744125 304.900269,218.908875 
	C305.022888,205.680038 310.233978,194.380692 319.589661,184.590546 
M370.883301,226.981003 
	C373.515137,218.576874 371.629181,211.631134 365.441620,206.940094 
	C359.777222,202.645676 351.709808,202.454514 345.911072,206.477356 
	C340.136597,210.483368 337.448578,217.454819 339.017029,224.357193 
	C340.420197,230.532272 346.116974,235.907898 352.362122,236.949921 
	C359.890717,238.206100 366.015167,235.083649 370.883301,226.981003 
z"/>
<path fill="#030202" opacity="1.000000" stroke="none" 
	d="
M945.549927,169.790741 
	C934.511169,167.753464 928.340881,160.679459 929.190430,151.502594 
	C930.064453,142.060898 937.498413,136.025131 948.335815,136.002609 
	C958.476318,135.981522 968.617188,135.959244 978.757507,136.009064 
	C988.943665,136.059113 996.670410,143.358353 996.630005,152.791733 
	C996.588806,162.418304 989.156616,169.682144 978.906311,169.807709 
	C967.936218,169.942078 956.963135,169.832626 945.549927,169.790741 
z"/>
<path fill="#FECEAF" opacity="1.000000" stroke="none" 
	d="
M318.801880,671.801758 
	C308.442474,682.168152 298.333069,692.284546 288.007629,702.617126 
	C286.554932,701.253418 285.346558,700.178894 284.204498,699.037903 
	C267.817535,682.665588 251.443802,666.280090 235.057755,649.906860 
	C224.782181,639.639282 216.012466,639.596985 205.838516,649.767761 
	C178.495682,677.102295 151.161194,704.445190 123.817314,731.778687 
	C122.566086,733.029480 121.255859,734.221130 119.168785,736.204834 
	C119.168785,733.453979 119.168777,731.701050 119.168777,729.948181 
	C119.168777,662.954956 119.170738,595.961731 119.167351,528.968506 
	C119.166542,512.829712 124.877754,507.168854 141.195129,507.168854 
	C254.683624,507.168732 368.172119,507.168793 481.660614,507.168793 
	C489.493164,507.168793 497.326050,507.120483 505.158142,507.180115 
	C517.280762,507.272430 523.995239,514.031250 523.996704,526.082214 
	C524.002441,571.744263 523.999023,617.406311 523.999023,663.068359 
	C523.999023,664.549988 523.999023,666.031677 523.999023,668.693054 
	C522.152893,666.913757 520.922607,665.765320 519.733154,664.576111 
	C492.391327,637.240540 465.057068,609.897461 437.714172,582.562988 
	C427.151703,572.003723 418.630951,571.976929 408.141144,582.464294 
	C378.441620,612.156982 348.747925,641.855530 318.801880,671.801758 
M313.553833,635.116394 
	C333.300446,623.010681 342.552185,600.685974 336.854767,578.890747 
	C330.564667,554.828247 306.797546,538.300659 282.678497,541.216797 
	C256.624023,544.366821 237.138046,565.946899 237.161880,591.624878 
	C237.197830,630.370178 278.212372,654.139709 313.553833,635.116394 
z"/>
<path fill="#FFCFB0" opacity="1.000000" stroke="none" 
	d="
M274.693481,737.306458 
	C291.909332,754.523010 308.808441,771.557007 325.867157,788.429626 
	C335.374725,797.833496 349.400543,795.358704 354.132477,783.489258 
	C357.035583,776.207153 355.006653,769.832092 349.555145,764.391724 
	C338.114807,752.974854 326.704559,741.527710 315.249542,730.125671 
	C314.192078,729.073059 312.902100,728.253967 312.072021,727.602722 
	C349.377380,690.297180 386.199280,653.475098 423.346313,616.327820 
	C423.681244,616.608521 424.712189,617.347717 425.597748,618.232422 
	C457.541229,650.146729 489.498138,682.047791 521.319702,714.083313 
	C522.833923,715.607727 523.868408,718.333740 523.884827,720.509583 
	C524.064880,744.335449 524.001892,768.163086 523.995972,791.990295 
	C523.992920,804.403748 517.399963,810.988892 504.871887,810.990967 
	C424.892456,811.004089 344.913055,810.997742 264.933624,810.997742 
	C223.111053,810.997742 181.287704,810.846924 139.466278,811.065491 
	C120.429314,811.164978 118.059128,798.085388 119.275398,785.075012 
	C119.367393,784.090942 120.360497,783.076477 121.147530,782.288696 
	C153.883484,749.523315 186.643433,716.781860 219.406494,684.043518 
	C219.637802,683.812378 219.953049,683.665100 220.615295,683.217957 
	C238.517349,701.123413 256.480408,719.089966 274.693481,737.306458 
z"/>
<path fill="#FDCEAF" opacity="1.000000" stroke="none" 
	d="
M117.479561,203.740829 
	C127.007744,203.861633 132.811493,207.875015 135.170044,215.653580 
	C137.273468,222.590729 134.740616,229.935944 128.820450,234.067230 
	C122.735481,238.313568 114.642654,238.273941 108.913521,233.665451 
	C103.412895,229.240784 101.020645,223.430298 102.845085,216.449539 
	C104.745598,209.177719 109.516891,204.829468 117.479561,203.740829 
z"/>
<path fill="#FDCEAF" opacity="1.000000" stroke="none" 
	d="
M224.092957,230.812744 
	C219.431290,224.315094 219.220810,217.814606 223.127747,211.425720 
	C226.739395,205.519714 232.349747,202.997955 239.227097,203.778412 
	C246.368759,204.588852 251.012054,208.678406 253.272919,215.419098 
	C255.637894,222.470139 252.654541,230.542694 246.343643,234.558594 
	C239.322021,239.026764 231.010696,237.727295 224.092957,230.812744 
z"/>
<path fill="#FDCEAF" opacity="1.000000" stroke="none" 
	d="
M370.708588,227.333221 
	C366.015167,235.083649 359.890717,238.206100 352.362122,236.949921 
	C346.116974,235.907898 340.420197,230.532272 339.017029,224.357193 
	C337.448578,217.454819 340.136597,210.483368 345.911072,206.477356 
	C351.709808,202.454514 359.777222,202.645676 365.441620,206.940094 
	C371.629181,211.631134 373.515137,218.576874 370.708588,227.333221 
z"/>
<path fill="#020201" opacity="1.000000" stroke="none" 
	d="
M313.253448,635.332520 
	C278.212372,654.139709 237.197830,630.370178 237.161880,591.624878 
	C237.138046,565.946899 256.624023,544.366821 282.678497,541.216797 
	C306.797546,538.300659 330.564667,554.828247 336.854767,578.890747 
	C342.552185,600.685974 333.300446,623.010681 313.253448,635.332520 
M299.272858,579.172485 
	C297.891510,578.259277 296.604584,577.134094 295.112457,576.469604 
	C288.809479,573.662842 282.722473,574.236389 277.352203,578.581604 
	C272.174805,582.770813 269.979340,588.420898 271.395844,594.992188 
	C272.842957,601.705750 277.050262,606.210876 283.786499,607.925903 
	C290.846191,609.723450 298.147369,606.724548 301.993958,600.735840 
	C306.357666,593.942261 305.657379,587.168640 299.272858,579.172485 
z"/>
<path fill="#FDCEAF" opacity="1.000000" stroke="none" 
	d="
M299.544464,579.421570 
	C305.657379,587.168640 306.357666,593.942261 301.993958,600.735840 
	C298.147369,606.724548 290.846191,609.723450 283.786499,607.925903 
	C277.050262,606.210876 272.842957,601.705750 271.395844,594.992188 
	C269.979340,588.420898 272.174805,582.770813 277.352203,578.581604 
	C282.722473,574.236389 288.809479,573.662842 295.112457,576.469604 
	C296.604584,577.134094 297.891510,578.259277 299.544464,579.421570 
z"/>
</svg>