<svg version="1.1" id="Layer_1" xmlns="http://www.w3.org/2000/svg" xmlns:xlink="http://www.w3.org/1999/xlink" x="0px" y="0px"
	 width="100%" viewBox="0 0 1080 1080" enable-background="new 0 0 1080 1080" xml:space="preserve">
<path fill="#020201" opacity="1.000000" stroke="none" 
	d="
M1081.000000,537.000000 
	C1081.000000,687.024109 1081.000000,837.048157 1080.652832,987.723999 
	C1072.271118,1034.212158 1037.456421,1063.512573 991.028015,1063.512573 
	C690.209167,1063.512573 389.390320,1063.513672 88.571487,1063.511353 
	C47.985252,1063.511108 13.511792,1036.653442 3.477630,997.271606 
	C2.767598,994.484924 1.831157,991.755859 0.999990,989.000000 
	C1.000000,838.309265 1.000000,687.618469 1.329497,536.267334 
	C2.745766,530.910950 3.869369,526.223083 4.913876,521.517639 
	C26.714537,423.307739 48.493019,325.092865 70.316254,226.887939 
	C73.087067,214.419205 78.814644,209.999130 91.695488,209.998718 
	C152.349335,209.996780 213.003174,209.997864 273.657013,209.997864 
	C275.596619,209.997864 277.536224,209.997849 279.571869,209.997849 
	C279.571869,198.176498 279.571869,186.930405 279.571869,175.170273 
	C277.535858,175.170273 275.750305,175.170273 273.964783,175.170273 
	C253.802383,175.170273 233.639969,175.181961 213.477585,175.166336 
	C199.005188,175.155136 192.518066,168.686127 192.503235,154.075684 
	C192.464508,115.917130 192.457199,77.758461 192.506805,39.599937 
	C192.526138,24.740553 198.949982,18.496923 213.922195,18.496895 
	C432.042725,18.496479 650.163269,18.496424 868.283813,18.497032 
	C882.958679,18.497072 889.459900,24.757185 889.486145,39.315186 
	C889.555542,77.806923 889.564697,116.298988 889.480286,154.790665 
	C889.450012,168.589554 882.669556,175.141754 868.794617,175.162445 
	C848.465637,175.192749 828.136536,175.170258 807.807495,175.170273 
	C806.043701,175.170273 804.279846,175.170273 802.428162,175.170273 
	C802.428162,187.098343 802.428162,198.347458 802.428162,209.997849 
	C804.478149,209.997849 806.274475,209.997864 808.070801,209.997864 
	C868.724609,209.997864 929.378479,209.997299 990.032288,209.998306 
	C1003.285889,209.998520 1008.901001,214.351013 1011.738831,227.116226 
	C1031.837769,317.527893 1051.887329,407.950592 1071.999146,498.359406 
	C1074.870605,511.268250 1077.993408,524.121216 1081.000000,537.000000 
M682.916443,884.528870 
	C689.876465,854.016785 707.388000,831.240234 734.118347,815.326904 
	C705.249573,782.292603 712.463135,741.147644 735.816467,718.026184 
	C760.251221,693.834167 798.902161,691.036377 826.250061,711.510559 
	C840.122192,721.895935 849.260071,735.537292 852.823303,752.461304 
	C857.815430,776.171997 851.562927,797.140869 835.439453,815.315247 
	C859.774475,829.552063 876.101501,849.596802 884.634277,875.909790 
	C886.089966,880.398682 886.193848,886.759338 889.262695,888.900513 
	C892.526367,891.177551 898.573364,889.486023 903.405029,889.490845 
	C917.784424,889.505249 924.164490,895.808594 924.168152,910.088989 
	C924.177856,947.750793 924.171509,985.412537 924.171509,1023.074341 
	C924.171509,1024.848511 924.171387,1026.622681 924.171387,1028.590576 
	C925.547119,1028.701416 926.346863,1028.821777 927.146545,1028.822144 
	C949.310303,1028.832764 971.476685,1029.015015 993.636047,1028.703125 
	C999.205261,1028.624756 1004.972961,1027.632690 1010.271057,1025.902344 
	C1033.057983,1018.460144 1046.151489,998.871155 1046.154175,972.912048 
	C1046.165405,862.426392 1046.158936,751.940735 1046.158936,641.455078 
	C1046.158936,639.834045 1046.158936,638.213013 1046.158936,635.922424 
	C1031.367065,644.023132 1016.263245,647.180908 1000.048157,644.466064 
	C983.693481,641.727844 970.352539,633.640137 959.165283,621.727478 
	C932.215454,651.658020 884.506897,654.815735 854.380249,621.755005 
	C840.365295,636.895691 823.145142,645.401245 802.382935,645.427795 
	C781.505310,645.454529 764.152954,636.933594 750.118225,621.657471 
	C721.455750,652.797058 674.980347,653.779358 645.392334,621.678467 
	C631.439758,636.837830 614.244751,645.350647 593.519592,645.426270 
	C572.615112,645.502563 555.243896,637.011292 540.983948,621.532104 
	C526.775757,636.969055 509.545258,645.391296 488.819366,645.428284 
	C467.926636,645.465637 450.607117,636.885803 436.404999,621.522766 
	C422.196350,637.106384 404.903839,645.391052 384.176392,645.426880 
	C363.292694,645.462952 346.008820,636.762939 331.878235,621.556152 
	C317.448761,637.212219 300.150543,645.484009 279.395386,645.427734 
	C258.671387,645.371582 241.516357,636.765564 227.371994,621.532227 
	C213.160233,637.087830 195.872833,645.391541 175.139771,645.430115 
	C154.256409,645.468933 136.980972,636.766418 123.106117,621.824158 
	C97.094864,647.223633 68.327789,652.343567 35.840794,636.272034 
	C35.840794,638.191223 35.840794,639.683777 35.840794,641.176392 
	C35.840801,751.828674 35.840317,862.481018 35.845802,973.133301 
	C35.845875,974.631409 35.906830,976.130066 35.963326,977.627563 
	C36.998997,1005.077759 56.608162,1026.711060 84.118263,1028.228271 
	C108.201981,1029.556641 132.409348,1028.644775 156.562134,1028.700317 
	C156.838501,1028.700928 157.115540,1028.405029 157.828506,1027.999390 
	C157.828506,1026.445679 157.828506,1024.651611 157.828506,1022.857483 
	C157.828552,984.862427 157.802322,946.867310 157.843369,908.872253 
	C157.857086,896.181702 164.612778,889.528625 177.287445,889.496826 
	C182.219635,889.484436 187.151871,889.494812 192.488327,889.494812 
	C192.488327,886.846313 192.488327,884.880188 192.488327,882.914124 
	C192.488342,822.588623 192.476822,762.263123 192.496628,701.937622 
	C192.501480,687.164062 198.996567,680.190186 213.016617,680.184753 
	C315.503296,680.144897 417.989990,680.145874 520.476685,680.183960 
	C534.230774,680.189087 540.997742,687.112854 541.000427,700.812988 
	C541.007812,738.641418 541.002991,776.469788 541.002991,814.298218 
	C541.002991,816.056091 541.002991,817.813904 541.002991,819.832703 
	C543.486938,819.832703 545.297241,819.832703 547.107544,819.832703 
	C573.270813,819.832703 599.434082,819.822937 625.597351,819.836792 
	C638.852295,819.843811 645.463928,826.461792 645.502075,839.815430 
	C645.543945,854.480103 645.511719,869.144958 645.511719,883.809753 
	C645.511719,885.572266 645.511719,887.334839 645.511719,889.291504 
	C657.971802,889.291504 669.734375,889.291504 681.683105,889.291504 
	C682.073425,887.897644 682.425659,886.639954 682.916443,884.528870 
M889.490967,963.500427 
	C889.490967,950.550415 889.490967,937.600403 889.490967,924.499390 
	C656.913696,924.499390 424.902710,924.499390 192.897339,924.499390 
	C192.897339,959.381897 192.897339,993.933167 192.897339,1028.588257 
	C425.168915,1028.588257 657.052185,1028.588257 889.491028,1028.588257 
	C889.491028,1007.064575 889.491028,985.782532 889.490967,963.500427 
M854.489136,112.500305 
	C854.489136,92.886436 854.489136,73.272568 854.489136,53.477242 
	C645.257019,53.477242 436.583832,53.477242 227.883514,53.477242 
	C227.883514,82.489853 227.883514,111.194565 227.883514,139.821594 
	C436.937866,139.821594 645.619385,139.821594 854.489197,139.821594 
	C854.489197,130.820236 854.489197,122.160278 854.489136,112.500305 
M375.003876,253.592575 
	C367.020813,343.402313 359.037781,433.212067 351.033569,523.259888 
	C374.129791,523.259888 396.720245,523.259888 419.812653,523.259888 
	C423.939636,430.394287 428.057068,337.743530 432.175171,245.078125 
	C413.013947,245.078125 394.569397,245.078125 375.890778,245.078125 
	C375.590485,247.746796 375.313324,250.209915 375.003876,253.592575 
M708.436218,270.135071 
	C707.678223,261.762146 706.920227,253.389252 706.169373,245.095337 
	C687.070007,245.095337 668.655212,245.095337 649.807617,245.095337 
	C653.938538,337.979523 658.057190,430.588593 662.177795,523.241211 
	C685.365479,523.241211 707.949280,523.241211 730.834045,523.241211 
	C730.834045,522.361572 730.882385,521.728210 730.827087,521.103943 
	C728.785278,498.069458 726.736328,475.035614 724.683167,452.002136 
	C721.788025,419.524139 718.892334,387.046173 715.990173,354.568817 
	C713.502563,326.730743 711.005432,298.893463 708.436218,270.135071 
M759.061890,446.316956 
	C761.380005,471.963959 763.698120,497.610962 766.001526,523.095581 
	C789.109070,523.095581 811.660156,523.095581 834.571472,523.095581 
	C822.181213,430.166687 809.849915,337.680298 797.513672,245.157028 
	C778.483459,245.157028 759.909363,245.157028 741.259460,245.157028 
	C742.192810,255.753281 743.090210,266.028107 744.004333,276.301483 
	C746.526733,304.649139 749.064880,332.995422 751.580383,361.343689 
	C754.066345,389.358643 756.532166,417.375366 759.061890,446.316956 
M316.167450,520.734253 
	C317.253784,508.800781 318.357788,496.868866 319.423035,484.933502 
	C322.293304,452.774902 325.142273,420.614441 328.008820,388.455505 
	C330.535614,360.108551 333.084167,331.763550 335.605133,303.416046 
	C337.326324,284.061523 339.016510,264.704224 340.722687,245.324036 
	C340.035187,245.131775 339.564240,244.885605 339.092896,244.884811 
	C321.930878,244.855835 304.768524,244.898254 287.607117,244.789612 
	C284.946655,244.772781 284.312866,245.874817 283.997192,248.268112 
	C278.752869,288.025208 273.412567,327.769592 268.106659,367.518555 
	C262.161926,412.053558 256.220795,456.589020 250.302094,501.127502 
	C249.329132,508.449158 248.479767,515.787231 247.527740,523.486145 
	C270.140045,523.486145 291.945587,523.505127 313.750610,523.410034 
	C314.544067,523.406616 315.332611,522.283020 316.167450,520.734253 
M192.878983,247.304428 
	C189.480988,266.467896 186.098541,285.634155 182.682205,304.794342 
	C170.830002,371.266174 158.961868,437.735199 147.113327,504.207703 
	C145.992950,510.493103 144.967300,516.795410 143.877869,523.206421 
	C167.025711,523.206421 189.444031,523.206421 212.234238,523.206421 
	C224.608795,430.387695 236.951691,337.806580 249.345459,244.843842 
	C230.901611,244.843842 213.261230,244.821487 195.621414,244.910706 
	C194.750977,244.915100 193.885452,245.892502 192.878983,247.304428 
M936.800720,514.835754 
	C936.555115,513.698486 936.272400,512.567810 936.069397,511.422974 
	C929.883484,476.536865 923.715454,441.647644 917.523743,406.762634 
	C909.676453,362.549713 901.817383,318.338928 893.948547,274.129883 
	C892.213074,264.379517 890.415100,254.640289 888.677490,245.069885 
	C869.781860,245.069885 851.493958,245.069885 832.930969,245.069885 
	C833.008667,246.599380 832.983521,247.899094 833.152710,249.172989 
	C837.839661,284.476440 842.541748,319.777893 847.250916,355.078400 
	C854.534485,409.677551 861.849854,464.272491 869.053345,518.882202 
	C869.502258,522.285278 870.508606,523.651672 874.266602,523.596191 
	C890.096436,523.362488 905.931702,523.497437 921.765015,523.497498 
	C927.052002,523.497498 932.338928,523.497498 938.095642,523.497498 
	C937.642517,520.521790 937.275696,518.112732 936.800720,514.835754 
M456.840149,477.404907 
	C456.131897,492.645294 455.423645,507.885681 454.714233,523.150513 
	C477.953003,523.150513 500.515411,523.150513 523.166992,523.150513 
	C523.166992,430.262360 523.166992,337.719788 523.166992,245.188141 
	C504.294922,245.188141 485.747437,245.188141 467.056946,245.188141 
	C463.642090,322.496765 460.242279,399.464600 456.840149,477.404907 
M627.012146,519.512268 
	C626.974792,517.680664 626.976196,515.847351 626.894287,514.017700 
	C624.975342,471.126007 623.019592,428.235931 621.128845,385.342957 
	C619.325928,344.442230 617.603333,303.537964 615.807800,262.636902 
	C615.548279,256.725433 615.078247,250.823242 614.716919,245.096130 
	C595.808777,245.096130 577.356812,245.096130 558.824890,245.096130 
	C558.824890,337.908142 558.824890,430.463806 558.824890,523.477966 
	C581.092407,523.477966 603.049255,523.506226 625.004944,523.352722 
	C625.723145,523.347717 626.428406,521.492249 627.012146,519.512268 
M1022.653259,436.928406 
	C1008.399414,372.934784 994.145508,308.941162 979.916138,245.057434 
	C961.088074,245.057434 942.806335,245.057434 924.188538,245.057434 
	C927.590759,264.440094 930.905273,283.561676 934.308350,302.667480 
	C947.165710,374.852325 960.081848,447.026733 972.832275,519.230469 
	C973.426575,522.595581 974.550537,523.587036 977.869446,523.564331 
	C997.692444,523.429260 1017.516907,523.502930 1037.340820,523.484680 
	C1038.632324,523.483459 1039.923706,523.299744 1041.694458,523.164307 
	C1035.364380,494.461090 1029.110596,466.103302 1022.653259,436.928406 
M64.450264,414.011108 
	C56.407745,450.289612 48.365223,486.568146 40.314392,522.884094 
	C41.328278,523.181396 41.792702,523.436096 42.257519,523.436829 
	C63.242798,523.470276 84.228638,523.539673 105.212105,523.350403 
	C106.469223,523.339050 108.579857,521.401367 108.824715,520.086548 
	C113.023849,497.537689 116.991348,474.945740 121.009880,452.363251 
	C130.212830,400.646606 139.422714,348.931213 148.614975,297.212677 
	C151.689560,279.914185 154.719284,262.607727 157.807541,245.089249 
	C138.994247,245.089249 120.575722,245.089249 102.028564,245.089249 
	C99.817261,255.031677 97.649078,264.762878 95.488869,274.495880 
	C85.226593,320.733307 74.966492,366.971283 64.450264,414.011108 
M416.500061,175.168091 
	C382.708221,175.168091 348.916382,175.168091 314.816650,175.168091 
	C314.816650,186.977951 314.816650,198.332703 314.816650,209.693451 
	C465.846863,209.693451 616.572632,209.693451 767.167847,209.693451 
	C767.167847,198.121597 767.167847,186.858337 767.167847,175.168091 
	C650.395325,175.168091 533.947693,175.168091 416.500061,175.168091 
M781.712769,837.162292 
	C750.514587,839.308105 720.867615,863.461365 718.139099,889.073120 
	C762.740662,889.073120 807.327148,889.073120 852.023560,889.073120 
	C844.086731,857.834167 816.268616,837.161621 781.712769,837.162292 
M815.167603,784.531433 
	C819.093567,777.284485 820.445984,769.665344 819.138367,761.447632 
	C816.207825,743.029480 798.287964,730.226257 779.124268,733.067627 
	C760.935608,735.764465 747.435913,754.246948 750.418640,772.368591 
	C752.862488,787.215698 763.123169,798.224304 777.568726,801.497986 
	C791.851013,804.734558 805.768738,798.646851 815.167603,784.531433 
M168.748001,610.023865 
	C187.713074,613.575439 205.123093,601.375000 208.687317,584.495300 
	C210.442322,576.183838 209.929489,567.393555 210.447098,558.749512 
	C186.563736,558.749512 163.636322,558.749512 140.736984,558.749512 
	C138.042587,583.230408 142.592560,602.803162 168.748001,610.023865 
M935.436646,558.507812 
	C914.387329,558.507812 893.338074,558.507812 872.001099,558.507812 
	C872.001099,564.786682 871.966980,570.425842 872.007751,576.064392 
	C872.112244,590.513916 881.044678,603.300720 894.515564,608.342407 
	C908.335388,613.514709 923.261169,609.642456 933.045898,598.643311 
	C943.441101,586.958069 941.829102,572.898132 941.699463,558.507751 
	C939.671936,558.507751 938.044495,558.507751 935.436646,558.507812 
M87.500000,558.509338 
	C70.408264,558.509338 53.316525,558.509338 35.992790,558.509338 
	C35.992790,565.371033 35.611588,571.696533 36.069660,577.960571 
	C37.125027,592.392334 44.490635,602.747314 57.920269,608.067322 
	C71.341637,613.384094 83.709106,610.802429 94.465996,601.124268 
	C107.441536,589.449951 105.771935,574.113098 105.233643,558.509277 
	C99.415802,558.509277 93.957977,558.509277 87.500000,558.509338 
M496.856781,609.725098 
	C510.538300,605.903198 519.827148,597.213928 522.497620,583.324951 
	C523.998962,575.516418 522.768066,567.182556 522.768066,558.795471 
	C500.088562,558.795471 477.218048,558.795471 454.374695,558.795471 
	C450.760284,594.400574 466.551727,613.659058 496.856781,609.725098 
M981.129150,593.216309 
	C988.568542,605.001038 999.173523,611.258240 1013.185425,610.467773 
	C1027.389160,609.666504 1037.498169,602.315430 1043.341553,589.372742 
	C1047.768433,579.567200 1045.698975,569.158997 1046.194580,558.775940 
	C1022.814392,558.775940 999.947021,558.775940 976.493835,558.775940 
	C976.987976,570.357178 974.623718,581.926270 981.129150,593.216309 
M610.440674,606.069580 
	C618.065002,601.628296 624.221252,595.474304 625.969910,586.850586 
	C627.821594,577.718994 627.903687,568.228516 628.762573,558.852112 
	C604.642090,558.852112 581.782715,558.852112 558.509094,558.852112 
	C558.509094,564.311584 558.502808,569.435181 558.510193,574.558838 
	C558.549927,602.255066 584.736389,618.537415 610.440674,606.069580 
M399.500061,558.509460 
	C382.932831,558.509460 366.365601,558.509460 349.523712,558.509460 
	C349.523712,565.622253 349.241241,571.947449 349.577667,578.239624 
	C350.517120,595.811462 364.389771,609.195190 382.821686,610.616028 
	C398.837799,611.850647 414.985321,599.849121 417.944916,583.460144 
	C419.399994,575.402405 418.941620,566.999146 419.361145,558.509399 
	C412.474274,558.509399 406.487183,558.509399 399.500061,558.509460 
M279.509033,610.804993 
	C310.344025,608.359680 317.993103,584.028198 313.614838,558.685913 
	C290.877808,558.685913 268.130341,558.685913 245.407440,558.685913 
	C241.339951,588.623230 252.213654,608.103455 279.509033,610.804993 
M793.353882,609.437927 
	C810.380554,613.982300 826.522888,604.943115 833.315369,591.639832 
	C838.698853,581.096069 836.702271,569.963928 837.159973,558.944336 
	C813.699829,558.944336 790.719055,558.944336 767.509583,558.944336 
	C767.509583,564.692688 767.484680,570.007751 767.514282,575.322510 
	C767.604248,591.495850 777.111572,604.333801 793.353882,609.437927 
M732.485168,561.437439 
	C732.828308,557.803894 730.175171,558.527649 728.141357,558.524292 
	C712.489380,558.498352 696.837463,558.509644 681.185486,558.509460 
	C675.247864,558.509399 669.310181,558.509521 663.001953,558.509521 
	C663.001953,564.630371 662.983643,570.264648 663.005432,575.898743 
	C663.071594,592.969971 675.539795,607.642029 692.055664,610.104431 
	C709.834473,612.755127 726.510681,602.804199 730.849243,585.707031 
	C732.730225,578.294556 732.021973,570.224915 732.485168,561.437439 
M236.608978,889.531616 
	C256.688263,889.531616 276.767578,889.531616 296.838837,889.531616 
	C296.838837,877.576294 296.838837,866.198730 296.838837,854.798950 
	C273.631317,854.798950 250.766983,854.798950 227.851471,854.798950 
	C227.851471,866.488342 227.851471,877.849915 227.851471,889.531616 
	C230.696121,889.531616 233.172928,889.531616 236.608978,889.531616 
M380.499939,854.491577 
	C364.405121,854.491577 348.310272,854.491577 332.178589,854.491577 
	C332.178589,866.442200 332.178589,877.732422 332.178589,889.177673 
	C355.431366,889.177673 378.499634,889.177673 401.605225,889.177673 
	C401.605225,877.570068 401.605225,866.301331 401.605225,854.491638 
	C394.754486,854.491638 388.127045,854.491638 380.499939,854.491577 
M436.474670,861.698120 
	C436.474670,870.799377 436.474670,879.900696 436.474670,889.129395 
	C459.986542,889.129395 482.955536,889.129395 505.949280,889.129395 
	C505.949280,877.465942 505.949280,866.206177 505.949280,854.889099 
	C482.717682,854.889099 459.719757,854.889099 436.474731,854.889099 
	C436.474731,857.120117 436.474731,858.939941 436.474670,861.698120 
M610.581909,888.836121 
	C610.581909,877.578064 610.581909,866.319946 610.581909,854.777832 
	C587.385376,854.777832 564.354492,854.777832 541.281982,854.777832 
	C541.281982,866.387268 541.281982,877.767517 541.281982,889.334167 
	C564.317993,889.334167 587.068481,889.334167 610.581909,888.836121 
M401.812378,716.940857 
	C400.334534,716.349182 398.859436,715.250244 397.378387,715.242188 
	C376.728851,715.129456 356.078461,715.159912 335.428314,715.183472 
	C334.331879,715.184692 333.235718,715.435059 332.252106,715.555664 
	C332.252106,727.153809 332.252106,738.414978 332.252106,749.644714 
	C355.536957,749.644714 378.566650,749.644714 401.831757,749.644714 
	C401.831757,738.817383 401.831757,728.344910 401.812378,716.940857 
M391.471008,784.835144 
	C371.750763,784.835144 352.030548,784.835144 332.311523,784.835144 
	C332.311523,796.776611 332.311523,808.151184 332.311523,819.433167 
	C355.623535,819.433167 378.620514,819.433167 401.575623,819.433167 
	C401.575623,807.776855 401.575623,796.527710 401.575623,784.835144 
	C398.367828,784.835144 395.412842,784.835144 391.471008,784.835144 
M227.508194,718.626282 
	C227.508194,728.925110 227.508194,739.223938 227.508194,749.689575 
	C250.874603,749.689575 273.918884,749.689575 296.894043,749.689575 
	C296.894043,738.121399 296.894043,726.864990 296.894043,715.176270 
	C274.353821,715.176270 252.079056,715.151611 229.805145,715.280457 
	C229.037827,715.284851 228.279404,716.825867 227.508194,718.626282 
M506.162567,738.486145 
	C506.162567,730.871094 506.162567,723.256042 506.162567,715.434509 
	C482.780731,715.434509 459.891907,715.434509 436.755127,715.434509 
	C436.755127,726.964294 436.755127,738.230591 436.755127,749.705444 
	C459.836853,749.705444 482.880737,749.705444 506.162567,749.705444 
	C506.162567,746.102722 506.162567,742.792114 506.162567,738.486145 
M297.162567,795.512817 
	C297.162567,792.072083 297.162567,788.631409 297.162567,785.227417 
	C273.648285,785.227417 250.662338,785.227417 227.804657,785.227417 
	C227.804657,796.871277 227.804657,808.123352 227.804657,819.585205 
	C250.968353,819.585205 273.833862,819.585205 297.162567,819.585205 
	C297.162567,811.731445 297.162567,804.121216 297.162567,795.512817 
M470.499939,819.836060 
	C482.257019,819.836060 494.014099,819.836060 505.871094,819.836060 
	C505.871094,807.905212 505.871094,796.528442 505.871094,785.081055 
	C482.699463,785.081055 459.820129,785.081055 436.838257,785.081055 
	C436.838257,796.689331 436.838257,808.051758 436.838257,819.836060 
	C447.942932,819.836060 458.721405,819.836060 470.499939,819.836060 
z"/>
<path fill="#FECEAF" opacity="1.000000" stroke="none" 
	d="
M1081.000000,536.531372 
	C1077.993408,524.121216 1074.870605,511.268250 1071.999146,498.359406 
	C1051.887329,407.950592 1031.837769,317.527893 1011.738831,227.116226 
	C1008.901001,214.351013 1003.285889,209.998520 990.032288,209.998306 
	C929.378479,209.997299 868.724609,209.997864 808.070801,209.997864 
	C806.274475,209.997864 804.478149,209.997849 802.428162,209.997849 
	C802.428162,198.347458 802.428162,187.098343 802.428162,175.170273 
	C804.279846,175.170273 806.043701,175.170273 807.807495,175.170273 
	C828.136536,175.170258 848.465637,175.192749 868.794617,175.162445 
	C882.669556,175.141754 889.450012,168.589554 889.480286,154.790665 
	C889.564697,116.298988 889.555542,77.806923 889.486145,39.315186 
	C889.459900,24.757185 882.958679,18.497072 868.283813,18.497032 
	C650.163269,18.496424 432.042725,18.496479 213.922195,18.496895 
	C198.949982,18.496923 192.526138,24.740553 192.506805,39.599937 
	C192.457199,77.758461 192.464508,115.917130 192.503235,154.075684 
	C192.518066,168.686127 199.005188,175.155136 213.477585,175.166336 
	C233.639969,175.181961 253.802383,175.170273 273.964783,175.170273 
	C275.750305,175.170273 277.535858,175.170273 279.571869,175.170273 
	C279.571869,186.930405 279.571869,198.176498 279.571869,209.997849 
	C277.536224,209.997849 275.596619,209.997864 273.657013,209.997864 
	C213.003174,209.997864 152.349335,209.996780 91.695488,209.998718 
	C78.814644,209.999130 73.087067,214.419205 70.316254,226.887939 
	C48.493019,325.092865 26.714537,423.307739 4.913876,521.517639 
	C3.869369,526.223083 2.745766,530.910950 1.329497,535.803467 
	C1.000000,357.702820 1.000000,179.405655 1.000000,1.054242 
	C360.890808,1.054242 720.781677,1.054242 1081.000000,1.054242 
	C1081.000000,179.354095 1081.000000,357.708374 1081.000000,536.531372 
z"/>
<path fill="#FFCFB0" opacity="1.000000" stroke="none" 
	d="
M0.999990,989.468628 
	C1.831157,991.755859 2.767598,994.484924 3.477630,997.271606 
	C13.511792,1036.653442 47.985252,1063.511108 88.571487,1063.511353 
	C389.390320,1063.513672 690.209167,1063.512573 991.028015,1063.512573 
	C1037.456421,1063.512573 1072.271118,1034.212158 1080.652832,988.187866 
	C1081.000000,1018.989319 1081.000000,1049.978638 1081.000000,1080.952881 
	C721.000000,1080.952881 361.000000,1080.952881 1.000000,1080.952881 
	C1.000000,1050.583008 1.000000,1020.260132 0.999990,989.468628 
z"/>
<path fill="#FECFB0" opacity="1.000000" stroke="none" 
	d="
M682.847168,884.955566 
	C682.425659,886.639954 682.073425,887.897644 681.683105,889.291504 
	C669.734375,889.291504 657.971802,889.291504 645.511719,889.291504 
	C645.511719,887.334839 645.511719,885.572266 645.511719,883.809753 
	C645.511719,869.144958 645.543945,854.480103 645.502075,839.815430 
	C645.463928,826.461792 638.852295,819.843811 625.597351,819.836792 
	C599.434082,819.822937 573.270813,819.832703 547.107544,819.832703 
	C545.297241,819.832703 543.486938,819.832703 541.002991,819.832703 
	C541.002991,817.813904 541.002991,816.056091 541.002991,814.298218 
	C541.002991,776.469788 541.007812,738.641418 541.000427,700.812988 
	C540.997742,687.112854 534.230774,680.189087 520.476685,680.183960 
	C417.989990,680.145874 315.503296,680.144897 213.016617,680.184753 
	C198.996567,680.190186 192.501480,687.164062 192.496628,701.937622 
	C192.476822,762.263123 192.488342,822.588623 192.488327,882.914124 
	C192.488327,884.880188 192.488327,886.846313 192.488327,889.494812 
	C187.151871,889.494812 182.219635,889.484436 177.287445,889.496826 
	C164.612778,889.528625 157.857086,896.181702 157.843369,908.872253 
	C157.802322,946.867310 157.828552,984.862427 157.828506,1022.857483 
	C157.828506,1024.651611 157.828506,1026.445679 157.828506,1027.999390 
	C157.115540,1028.405029 156.838501,1028.700928 156.562134,1028.700317 
	C132.409348,1028.644775 108.201981,1029.556641 84.118263,1028.228271 
	C56.608162,1026.711060 36.998997,1005.077759 35.963326,977.627563 
	C35.906830,976.130066 35.845875,974.631409 35.845802,973.133301 
	C35.840317,862.481018 35.840801,751.828674 35.840794,641.176392 
	C35.840794,639.683777 35.840794,638.191223 35.840794,636.272034 
	C68.327789,652.343567 97.094864,647.223633 123.106117,621.824158 
	C136.980972,636.766418 154.256409,645.468933 175.139771,645.430115 
	C195.872833,645.391541 213.160233,637.087830 227.371994,621.532227 
	C241.516357,636.765564 258.671387,645.371582 279.395386,645.427734 
	C300.150543,645.484009 317.448761,637.212219 331.878235,621.556152 
	C346.008820,636.762939 363.292694,645.462952 384.176392,645.426880 
	C404.903839,645.391052 422.196350,637.106384 436.404999,621.522766 
	C450.607117,636.885803 467.926636,645.465637 488.819366,645.428284 
	C509.545258,645.391296 526.775757,636.969055 540.983948,621.532104 
	C555.243896,637.011292 572.615112,645.502563 593.519592,645.426270 
	C614.244751,645.350647 631.439758,636.837830 645.392334,621.678467 
	C674.980347,653.779358 721.455750,652.797058 750.118225,621.657471 
	C764.152954,636.933594 781.505310,645.454529 802.382935,645.427795 
	C823.145142,645.401245 840.365295,636.895691 854.380249,621.755005 
	C884.506897,654.815735 932.215454,651.658020 959.165283,621.727478 
	C970.352539,633.640137 983.693481,641.727844 1000.048157,644.466064 
	C1016.263245,647.180908 1031.367065,644.023132 1046.158936,635.922424 
	C1046.158936,638.213013 1046.158936,639.834045 1046.158936,641.455078 
	C1046.158936,751.940735 1046.165405,862.426392 1046.154175,972.912048 
	C1046.151489,998.871155 1033.057983,1018.460144 1010.271057,1025.902344 
	C1004.972961,1027.632690 999.205261,1028.624756 993.636047,1028.703125 
	C971.476685,1029.015015 949.310303,1028.832764 927.146545,1028.822144 
	C926.346863,1028.821777 925.547119,1028.701416 924.171387,1028.590576 
	C924.171387,1026.622681 924.171509,1024.848511 924.171509,1023.074341 
	C924.171509,985.412537 924.177856,947.750793 924.168152,910.088989 
	C924.164490,895.808594 917.784424,889.505249 903.405029,889.490845 
	C898.573364,889.486023 892.526367,891.177551 889.262695,888.900513 
	C886.193848,886.759338 886.089966,880.398682 884.634277,875.909790 
	C876.101501,849.596802 859.774475,829.552063 835.439453,815.315247 
	C851.562927,797.140869 857.815430,776.171997 852.823303,752.461304 
	C849.260071,735.537292 840.122192,721.895935 826.250061,711.510559 
	C798.902161,691.036377 760.251221,693.834167 735.816467,718.026184 
	C712.463135,741.147644 705.249573,782.292603 734.118347,815.326904 
	C707.388000,831.240234 689.876465,854.016785 682.847168,884.955566 
z"/>
<path fill="#FECEAF" opacity="1.000000" stroke="none" 
	d="
M889.490967,964.000488 
	C889.491028,985.782532 889.491028,1007.064575 889.491028,1028.588257 
	C657.052185,1028.588257 425.168915,1028.588257 192.897339,1028.588257 
	C192.897339,993.933167 192.897339,959.381897 192.897339,924.499390 
	C424.902710,924.499390 656.913696,924.499390 889.490967,924.499390 
	C889.490967,937.600403 889.490967,950.550415 889.490967,964.000488 
z"/>
<path fill="#FECEAF" opacity="1.000000" stroke="none" 
	d="
M854.489136,113.000305 
	C854.489197,122.160278 854.489197,130.820236 854.489197,139.821594 
	C645.619385,139.821594 436.937866,139.821594 227.883514,139.821594 
	C227.883514,111.194565 227.883514,82.489853 227.883514,53.477242 
	C436.583832,53.477242 645.257019,53.477242 854.489136,53.477242 
	C854.489136,73.272568 854.489136,92.886436 854.489136,113.000305 
z"/>
<path fill="#FECEAF" opacity="1.000000" stroke="none" 
	d="
M375.020020,253.132812 
	C375.313324,250.209915 375.590485,247.746796 375.890778,245.078125 
	C394.569397,245.078125 413.013947,245.078125 432.175171,245.078125 
	C428.057068,337.743530 423.939636,430.394287 419.812653,523.259888 
	C396.720245,523.259888 374.129791,523.259888 351.033569,523.259888 
	C359.037781,433.212067 367.020813,343.402313 375.020020,253.132812 
z"/>
<path fill="#FECEAF" opacity="1.000000" stroke="none" 
	d="
M708.474365,270.595459 
	C711.005432,298.893463 713.502563,326.730743 715.990173,354.568817 
	C718.892334,387.046173 721.788025,419.524139 724.683167,452.002136 
	C726.736328,475.035614 728.785278,498.069458 730.827087,521.103943 
	C730.882385,521.728210 730.834045,522.361572 730.834045,523.241211 
	C707.949280,523.241211 685.365479,523.241211 662.177795,523.241211 
	C658.057190,430.588593 653.938538,337.979523 649.807617,245.095337 
	C668.655212,245.095337 687.070007,245.095337 706.169373,245.095337 
	C706.920227,253.389252 707.678223,261.762146 708.474365,270.595459 
z"/>
<path fill="#FECEAF" opacity="1.000000" stroke="none" 
	d="
M759.034363,445.854126 
	C756.532166,417.375366 754.066345,389.358643 751.580383,361.343689 
	C749.064880,332.995422 746.526733,304.649139 744.004333,276.301483 
	C743.090210,266.028107 742.192810,255.753281 741.259460,245.157028 
	C759.909363,245.157028 778.483459,245.157028 797.513672,245.157028 
	C809.849915,337.680298 822.181213,430.166687 834.571472,523.095581 
	C811.660156,523.095581 789.109070,523.095581 766.001526,523.095581 
	C763.698120,497.610962 761.380005,471.963959 759.034363,445.854126 
z"/>
<path fill="#FECEAF" opacity="1.000000" stroke="none" 
	d="
M316.145447,521.207825 
	C315.332611,522.283020 314.544067,523.406616 313.750610,523.410034 
	C291.945587,523.505127 270.140045,523.486145 247.527740,523.486145 
	C248.479767,515.787231 249.329132,508.449158 250.302094,501.127502 
	C256.220795,456.589020 262.161926,412.053558 268.106659,367.518555 
	C273.412567,327.769592 278.752869,288.025208 283.997192,248.268112 
	C284.312866,245.874817 284.946655,244.772781 287.607117,244.789612 
	C304.768524,244.898254 321.930878,244.855835 339.092896,244.884811 
	C339.564240,244.885605 340.035187,245.131775 340.722687,245.324036 
	C339.016510,264.704224 337.326324,284.061523 335.605133,303.416046 
	C333.084167,331.763550 330.535614,360.108551 328.008820,388.455505 
	C325.142273,420.614441 322.293304,452.774902 319.423035,484.933502 
	C318.357788,496.868866 317.253784,508.800781 316.145447,521.207825 
z"/>
<path fill="#FECEAF" opacity="1.000000" stroke="none" 
	d="
M192.948303,246.860626 
	C193.885452,245.892502 194.750977,244.915100 195.621414,244.910706 
	C213.261230,244.821487 230.901611,244.843842 249.345459,244.843842 
	C236.951691,337.806580 224.608795,430.387695 212.234238,523.206421 
	C189.444031,523.206421 167.025711,523.206421 143.877869,523.206421 
	C144.967300,516.795410 145.992950,510.493103 147.113327,504.207703 
	C158.961868,437.735199 170.830002,371.266174 182.682205,304.794342 
	C186.098541,285.634155 189.480988,266.467896 192.948303,246.860626 
z"/>
<path fill="#FECEAF" opacity="1.000000" stroke="none" 
	d="
M936.854797,515.269653 
	C937.275696,518.112732 937.642517,520.521790 938.095642,523.497498 
	C932.338928,523.497498 927.052002,523.497498 921.765015,523.497498 
	C905.931702,523.497437 890.096436,523.362488 874.266602,523.596191 
	C870.508606,523.651672 869.502258,522.285278 869.053345,518.882202 
	C861.849854,464.272491 854.534485,409.677551 847.250916,355.078400 
	C842.541748,319.777893 837.839661,284.476440 833.152710,249.172989 
	C832.983521,247.899094 833.008667,246.599380 832.930969,245.069885 
	C851.493958,245.069885 869.781860,245.069885 888.677490,245.069885 
	C890.415100,254.640289 892.213074,264.379517 893.948547,274.129883 
	C901.817383,318.338928 909.676453,362.549713 917.523743,406.762634 
	C923.715454,441.647644 929.883484,476.536865 936.069397,511.422974 
	C936.272400,512.567810 936.555115,513.698486 936.854797,515.269653 
z"/>
<path fill="#FECEAF" opacity="1.000000" stroke="none" 
	d="
M456.841309,476.918671 
	C460.242279,399.464600 463.642090,322.496765 467.056946,245.188141 
	C485.747437,245.188141 504.294922,245.188141 523.166992,245.188141 
	C523.166992,337.719788 523.166992,430.262360 523.166992,523.150513 
	C500.515411,523.150513 477.953003,523.150513 454.714233,523.150513 
	C455.423645,507.885681 456.131897,492.645294 456.841309,476.918671 
z"/>
<path fill="#FECEAF" opacity="1.000000" stroke="none" 
	d="
M627.075928,520.005798 
	C626.428406,521.492249 625.723145,523.347717 625.004944,523.352722 
	C603.049255,523.506226 581.092407,523.477966 558.824890,523.477966 
	C558.824890,430.463806 558.824890,337.908142 558.824890,245.096130 
	C577.356812,245.096130 595.808777,245.096130 614.716919,245.096130 
	C615.078247,250.823242 615.548279,256.725433 615.807800,262.636902 
	C617.603333,303.537964 619.325928,344.442230 621.128845,385.342957 
	C623.019592,428.235931 624.975342,471.126007 626.894287,514.017700 
	C626.976196,515.847351 626.974792,517.680664 627.075928,520.005798 
z"/>
<path fill="#FECEAF" opacity="1.000000" stroke="none" 
	d="
M1022.755005,437.336975 
	C1029.110596,466.103302 1035.364380,494.461090 1041.694458,523.164307 
	C1039.923706,523.299744 1038.632324,523.483459 1037.340820,523.484680 
	C1017.516907,523.502930 997.692444,523.429260 977.869446,523.564331 
	C974.550537,523.587036 973.426575,522.595581 972.832275,519.230469 
	C960.081848,447.026733 947.165710,374.852325 934.308350,302.667480 
	C930.905273,283.561676 927.590759,264.440094 924.188538,245.057434 
	C942.806335,245.057434 961.088074,245.057434 979.916138,245.057434 
	C994.145508,308.941162 1008.399414,372.934784 1022.755005,437.336975 
z"/>
<path fill="#FECEAF" opacity="1.000000" stroke="none" 
	d="
M64.577942,413.610077 
	C74.966492,366.971283 85.226593,320.733307 95.488869,274.495880 
	C97.649078,264.762878 99.817261,255.031677 102.028564,245.089249 
	C120.575722,245.089249 138.994247,245.089249 157.807541,245.089249 
	C154.719284,262.607727 151.689560,279.914185 148.614975,297.212677 
	C139.422714,348.931213 130.212830,400.646606 121.009880,452.363251 
	C116.991348,474.945740 113.023849,497.537689 108.824715,520.086548 
	C108.579857,521.401367 106.469223,523.339050 105.212105,523.350403 
	C84.228638,523.539673 63.242798,523.470276 42.257519,523.436829 
	C41.792702,523.436096 41.328278,523.181396 40.314392,522.884094 
	C48.365223,486.568146 56.407745,450.289612 64.577942,413.610077 
z"/>
<path fill="#FDCEAF" opacity="1.000000" stroke="none" 
	d="
M417.000092,175.168091 
	C533.947693,175.168091 650.395325,175.168091 767.167847,175.168091 
	C767.167847,186.858337 767.167847,198.121597 767.167847,209.693451 
	C616.572632,209.693451 465.846863,209.693451 314.816650,209.693451 
	C314.816650,198.332703 314.816650,186.977951 314.816650,175.168091 
	C348.916382,175.168091 382.708221,175.168091 417.000092,175.168091 
z"/>
<path fill="#FBCCAD" opacity="1.000000" stroke="none" 
	d="
M782.181396,837.162170 
	C816.268616,837.161621 844.086731,857.834167 852.023560,889.073120 
	C807.327148,889.073120 762.740662,889.073120 718.139099,889.073120 
	C720.867615,863.461365 750.514587,839.308105 782.181396,837.162170 
z"/>
<path fill="#FDCEAF" opacity="1.000000" stroke="none" 
	d="
M815.003601,784.863342 
	C805.768738,798.646851 791.851013,804.734558 777.568726,801.497986 
	C763.123169,798.224304 752.862488,787.215698 750.418640,772.368591 
	C747.435913,754.246948 760.935608,735.764465 779.124268,733.067627 
	C798.287964,730.226257 816.207825,743.029480 819.138367,761.447632 
	C820.445984,769.665344 819.093567,777.284485 815.003601,784.863342 
z"/>
<path fill="#FDCEAF" opacity="1.000000" stroke="none" 
	d="
M168.330307,609.976196 
	C142.592560,602.803162 138.042587,583.230408 140.736984,558.749512 
	C163.636322,558.749512 186.563736,558.749512 210.447098,558.749512 
	C209.929489,567.393555 210.442322,576.183838 208.687317,584.495300 
	C205.123093,601.375000 187.713074,613.575439 168.330307,609.976196 
z"/>
<path fill="#FDCEAF" opacity="1.000000" stroke="none" 
	d="
M935.926880,558.507812 
	C938.044495,558.507751 939.671936,558.507751 941.699463,558.507751 
	C941.829102,572.898132 943.441101,586.958069 933.045898,598.643311 
	C923.261169,609.642456 908.335388,613.514709 894.515564,608.342407 
	C881.044678,603.300720 872.112244,590.513916 872.007751,576.064392 
	C871.966980,570.425842 872.001099,564.786682 872.001099,558.507812 
	C893.338074,558.507812 914.387329,558.507812 935.926880,558.507812 
z"/>
<path fill="#FECEAF" opacity="1.000000" stroke="none" 
	d="
M88.000076,558.509277 
	C93.957977,558.509277 99.415802,558.509277 105.233643,558.509277 
	C105.771935,574.113098 107.441536,589.449951 94.465996,601.124268 
	C83.709106,610.802429 71.341637,613.384094 57.920269,608.067322 
	C44.490635,602.747314 37.125027,592.392334 36.069660,577.960571 
	C35.611588,571.696533 35.992790,565.371033 35.992790,558.509338 
	C53.316525,558.509338 70.408264,558.509338 88.000076,558.509277 
z"/>
<path fill="#FECEAF" opacity="1.000000" stroke="none" 
	d="
M496.448364,609.817993 
	C466.551727,613.659058 450.760284,594.400574 454.374695,558.795471 
	C477.218048,558.795471 500.088562,558.795471 522.768066,558.795471 
	C522.768066,567.182556 523.998962,575.516418 522.497620,583.324951 
	C519.827148,597.213928 510.538300,605.903198 496.448364,609.817993 
z"/>
<path fill="#FECEAF" opacity="1.000000" stroke="none" 
	d="
M980.979431,592.876160 
	C974.623718,581.926270 976.987976,570.357178 976.493835,558.775940 
	C999.947021,558.775940 1022.814392,558.775940 1046.194580,558.775940 
	C1045.698975,569.158997 1047.768433,579.567200 1043.341553,589.372742 
	C1037.498169,602.315430 1027.389160,609.666504 1013.185425,610.467773 
	C999.173523,611.258240 988.568542,605.001038 980.979431,592.876160 
z"/>
<path fill="#FECEAF" opacity="1.000000" stroke="none" 
	d="
M610.118896,606.260010 
	C584.736389,618.537415 558.549927,602.255066 558.510193,574.558838 
	C558.502808,569.435181 558.509094,564.311584 558.509094,558.852112 
	C581.782715,558.852112 604.642090,558.852112 628.762573,558.852112 
	C627.903687,568.228516 627.821594,577.718994 625.969910,586.850586 
	C624.221252,595.474304 618.065002,601.628296 610.118896,606.260010 
z"/>
<path fill="#FECEAF" opacity="1.000000" stroke="none" 
	d="
M400.000061,558.509399 
	C406.487183,558.509399 412.474274,558.509399 419.361145,558.509399 
	C418.941620,566.999146 419.399994,575.402405 417.944916,583.460144 
	C414.985321,599.849121 398.837799,611.850647 382.821686,610.616028 
	C364.389771,609.195190 350.517120,595.811462 349.577667,578.239624 
	C349.241241,571.947449 349.523712,565.622253 349.523712,558.509460 
	C366.365601,558.509460 382.932831,558.509460 400.000061,558.509399 
z"/>
<path fill="#FECEAF" opacity="1.000000" stroke="none" 
	d="
M279.091736,610.734985 
	C252.213654,608.103455 241.339951,588.623230 245.407440,558.685913 
	C268.130341,558.685913 290.877808,558.685913 313.614838,558.685913 
	C317.993103,584.028198 310.344025,608.359680 279.091736,610.734985 
z"/>
<path fill="#FECEAF" opacity="1.000000" stroke="none" 
	d="
M792.962158,609.314941 
	C777.111572,604.333801 767.604248,591.495850 767.514282,575.322510 
	C767.484680,570.007751 767.509583,564.692688 767.509583,558.944336 
	C790.719055,558.944336 813.699829,558.944336 837.159973,558.944336 
	C836.702271,569.963928 838.698853,581.096069 833.315369,591.639832 
	C826.522888,604.943115 810.380554,613.982300 792.962158,609.314941 
z"/>
<path fill="#FECEAF" opacity="1.000000" stroke="none" 
	d="
M732.487427,561.945618 
	C732.021973,570.224915 732.730225,578.294556 730.849243,585.707031 
	C726.510681,602.804199 709.834473,612.755127 692.055664,610.104431 
	C675.539795,607.642029 663.071594,592.969971 663.005432,575.898743 
	C662.983643,570.264648 663.001953,564.630371 663.001953,558.509521 
	C669.310181,558.509521 675.247864,558.509399 681.185486,558.509460 
	C696.837463,558.509644 712.489380,558.498352 728.141357,558.524292 
	C730.175171,558.527649 732.828308,557.803894 732.487427,561.945618 
z"/>
<path fill="#F6C8AA" opacity="1.000000" stroke="none" 
	d="
M236.129364,889.531616 
	C233.172928,889.531616 230.696121,889.531616 227.851471,889.531616 
	C227.851471,877.849915 227.851471,866.488342 227.851471,854.798950 
	C250.766983,854.798950 273.631317,854.798950 296.838837,854.798950 
	C296.838837,866.198730 296.838837,877.576294 296.838837,889.531616 
	C276.767578,889.531616 256.688263,889.531616 236.129364,889.531616 
z"/>
<path fill="#FBCBAD" opacity="1.000000" stroke="none" 
	d="
M380.999756,854.491577 
	C388.127045,854.491638 394.754486,854.491638 401.605225,854.491638 
	C401.605225,866.301331 401.605225,877.570068 401.605225,889.177673 
	C378.499634,889.177673 355.431366,889.177673 332.178589,889.177673 
	C332.178589,877.732422 332.178589,866.442200 332.178589,854.491577 
	C348.310272,854.491577 364.405121,854.491577 380.999756,854.491577 
z"/>
<path fill="#F6C8AA" opacity="1.000000" stroke="none" 
	d="
M436.474701,861.228943 
	C436.474731,858.939941 436.474731,857.120117 436.474731,854.889099 
	C459.719757,854.889099 482.717682,854.889099 505.949280,854.889099 
	C505.949280,866.206177 505.949280,877.465942 505.949280,889.129395 
	C482.955536,889.129395 459.986542,889.129395 436.474670,889.129395 
	C436.474670,879.900696 436.474670,870.799377 436.474701,861.228943 
z"/>
<path fill="#FBCBAD" opacity="1.000000" stroke="none" 
	d="
M610.200439,889.085144 
	C587.068481,889.334167 564.317993,889.334167 541.281982,889.334167 
	C541.281982,877.767517 541.281982,866.387268 541.281982,854.777832 
	C564.354492,854.777832 587.385376,854.777832 610.581909,854.777832 
	C610.581909,866.319946 610.581909,877.578064 610.200439,889.085144 
z"/>
<path fill="#FCCDAE" opacity="1.000000" stroke="none" 
	d="
M401.822083,717.406616 
	C401.831757,728.344910 401.831757,738.817383 401.831757,749.644714 
	C378.566650,749.644714 355.536957,749.644714 332.252106,749.644714 
	C332.252106,738.414978 332.252106,727.153809 332.252106,715.555664 
	C333.235718,715.435059 334.331879,715.184692 335.428314,715.183472 
	C356.078461,715.159912 376.728851,715.129456 397.378387,715.242188 
	C398.859436,715.250244 400.334534,716.349182 401.822083,717.406616 
z"/>
<path fill="#FCCDAE" opacity="1.000000" stroke="none" 
	d="
M391.964417,784.835144 
	C395.412842,784.835144 398.367828,784.835144 401.575623,784.835144 
	C401.575623,796.527710 401.575623,807.776855 401.575623,819.433167 
	C378.620514,819.433167 355.623535,819.433167 332.311523,819.433167 
	C332.311523,808.151184 332.311523,796.776611 332.311523,784.835144 
	C352.030548,784.835144 371.750763,784.835144 391.964417,784.835144 
z"/>
<path fill="#FDCEAF" opacity="1.000000" stroke="none" 
	d="
M227.512512,718.138489 
	C228.279404,716.825867 229.037827,715.284851 229.805145,715.280457 
	C252.079056,715.151611 274.353821,715.176270 296.894043,715.176270 
	C296.894043,726.864990 296.894043,738.121399 296.894043,749.689575 
	C273.918884,749.689575 250.874603,749.689575 227.508194,749.689575 
	C227.508194,739.223938 227.508194,728.925110 227.512512,718.138489 
z"/>
<path fill="#FDCEAF" opacity="1.000000" stroke="none" 
	d="
M506.162567,738.983887 
	C506.162567,742.792114 506.162567,746.102722 506.162567,749.705444 
	C482.880737,749.705444 459.836853,749.705444 436.755127,749.705444 
	C436.755127,738.230591 436.755127,726.964294 436.755127,715.434509 
	C459.891907,715.434509 482.780731,715.434509 506.162567,715.434509 
	C506.162567,723.256042 506.162567,730.871094 506.162567,738.983887 
z"/>
<path fill="#FDCEAF" opacity="1.000000" stroke="none" 
	d="
M297.162567,796.011902 
	C297.162567,804.121216 297.162567,811.731445 297.162567,819.585205 
	C273.833862,819.585205 250.968353,819.585205 227.804657,819.585205 
	C227.804657,808.123352 227.804657,796.871277 227.804657,785.227417 
	C250.662338,785.227417 273.648285,785.227417 297.162567,785.227417 
	C297.162567,788.631409 297.162567,792.072083 297.162567,796.011902 
z"/>
<path fill="#FDCEAF" opacity="1.000000" stroke="none" 
	d="
M469.999908,819.836060 
	C458.721405,819.836060 447.942932,819.836060 436.838257,819.836060 
	C436.838257,808.051758 436.838257,796.689331 436.838257,785.081055 
	C459.820129,785.081055 482.699463,785.081055 505.871094,785.081055 
	C505.871094,796.528442 505.871094,807.905212 505.871094,819.836060 
	C494.014099,819.836060 482.257019,819.836060 469.999908,819.836060 
z"/>
</svg>