<svg version="1.1" id="Layer_1" xmlns="http://www.w3.org/2000/svg" xmlns:xlink="http://www.w3.org/1999/xlink" x="0px" y="0px"
	 width="100%" viewBox="0 0 1080 1080" enable-background="new 0 0 1080 1080" xml:space="preserve">
<path fill="#FFCFB0" opacity="1.000000" stroke="none" 
	d="
M1081.000000,103.000000 
	C1081.000000,428.887848 1081.000000,754.775696 1081.000000,1081.000000 
	C992.642883,1081.000000 904.285278,1081.000000 815.586060,1080.659180 
	C824.633606,1077.434082 828.991821,1071.354980 828.992676,1060.916626 
	C829.003784,928.086731 829.000854,795.256836 828.988586,662.426941 
	C828.988464,661.079590 828.815918,659.732239 828.689392,657.879211 
	C817.677368,667.467163 807.332397,676.635071 796.778442,685.555786 
	C793.983093,687.918579 792.907837,690.318970 792.911316,694.023682 
	C793.019592,809.020630 793.000000,924.017639 793.000000,1039.014648 
	C793.000000,1040.942749 793.000000,1042.870728 793.000000,1044.677612 
	C540.648071,1044.677612 288.918579,1044.677612 37.279640,1044.677612 
	C37.279640,958.577454 37.279640,872.799988 37.279640,787.022522 
	C41.113136,809.598450 51.375298,828.506653 68.901871,843.210205 
	C72.064529,845.863464 73.102509,848.415649 73.089905,852.408386 
	C72.947861,897.406738 72.998360,942.405701 73.000900,987.404541 
	C73.001740,1002.290955 79.729752,1008.999146 94.659225,1008.999207 
	C308.153656,1009.000305 521.648132,1008.932739 735.142334,1009.161377 
	C748.417908,1009.175598 757.225586,1001.314575 757.169861,987.089844 
	C756.829956,900.260132 757.000000,813.428406 757.000000,726.597351 
	C757.000000,724.838623 757.000000,723.079956 757.000000,720.469727 
	C754.940613,722.165100 753.556885,723.250244 752.232239,724.403259 
	C742.183167,733.150574 732.015076,741.767151 722.146790,750.714172 
	C714.593018,757.562622 706.395386,762.750854 694.531433,763.328491 
	C702.754944,768.786804 709.785217,773.690247 717.071716,778.177551 
	C720.169678,780.085327 721.091309,782.250183 721.084351,785.814636 
	C720.966675,846.479492 721.000000,907.144592 721.000000,967.809692 
	C721.000000,969.423584 721.000000,971.037415 721.000000,972.498840 
	C720.231506,972.761536 719.934753,972.951660 719.637878,972.951843 
	C664.973022,972.976624 610.308105,973.007874 555.643494,972.911316 
	C553.856689,972.908142 551.817383,971.944458 550.326294,970.844788 
	C536.387329,960.564575 522.538269,950.162476 508.679901,939.773254 
	C507.735077,939.064880 506.926147,938.175415 505.538452,936.894226 
	C535.677490,930.848755 565.049133,924.957275 594.858643,918.977966 
	C593.548645,916.926453 592.683655,915.519226 591.768066,914.145691 
	C570.362610,882.033203 548.946899,849.927429 527.556152,817.805176 
	C526.560425,816.309814 525.777771,814.672485 525.004517,812.997437 
	C525.113159,812.893494 525.332886,812.688171 525.677246,812.755493 
	C566.567383,835.940247 607.113098,859.057617 648.887390,882.875427 
	C636.766418,846.447388 625.147217,811.527222 613.527954,776.607056 
	C613.849976,776.451233 614.171936,776.295471 614.493896,776.139709 
	C637.747559,793.567688 661.001160,810.995605 684.530151,828.629883 
	C684.773987,827.661682 684.979248,827.226135 684.979553,826.790527 
	C684.995178,805.296692 684.993286,783.802856 684.993286,762.152771 
	C683.819458,761.713623 682.743774,761.316162 681.671692,760.909485 
	C667.768127,755.635376 658.690552,742.776245 658.523376,727.864136 
	C658.458069,722.041443 658.733521,716.215271 658.833069,710.390381 
	C659.610046,664.934143 660.392395,619.478088 661.104797,574.020813 
	C661.126282,572.646729 660.780823,570.950012 659.953735,569.935974 
	C656.848022,566.128235 653.471252,562.541565 650.196106,558.872009 
	C649.765015,559.198059 649.333984,559.524048 648.902893,559.850098 
	C642.954590,607.369629 637.006348,654.889221 630.986450,702.980469 
	C577.167786,673.095032 523.768005,643.442261 470.368256,613.789429 
	C470.153290,614.093445 469.938354,614.397400 469.723389,614.701416 
	C487.283417,655.698425 504.843414,696.695435 522.933594,738.930298 
	C450.648285,714.849304 379.645782,691.195679 308.643250,667.542053 
	C308.522217,667.831726 308.401154,668.121399 308.280121,668.411133 
	C367.702942,733.777039 427.125732,799.142944 486.983917,864.987793 
	C434.390869,876.477417 382.361206,887.843872 329.529236,899.385681 
	C352.584839,924.091919 375.086792,948.204895 397.883636,972.633911 
	C337.161041,972.633911 277.130707,972.633911 217.000015,972.633911 
	C217.000015,954.772461 216.979248,937.276855 217.010071,919.781372 
	C217.022675,912.628479 215.344208,904.791260 217.727158,898.515381 
	C220.112869,892.232239 226.593674,887.497681 231.301788,882.103760 
	C256.483948,853.253113 281.695862,824.428467 306.846863,795.550720 
	C315.198700,785.961365 316.869537,774.033630 311.546600,763.588501 
	C303.215668,747.240906 283.779205,743.160095 268.177856,754.735413 
	C242.768112,773.587891 217.490814,792.618774 192.150085,811.564270 
	C190.901260,812.497986 189.580353,813.335327 187.495560,814.764038 
	C222.642883,759.147339 173.900864,689.978943 109.222565,704.975464 
	C109.222565,679.009888 109.222565,653.087646 109.222565,627.189941 
	C110.379036,626.810425 111.312195,626.437988 112.278084,626.196594 
	C203.237305,603.464050 294.198608,580.739929 385.160706,558.019043 
	C485.476868,532.961792 585.795288,507.913452 686.097717,482.801453 
	C687.569519,482.432983 689.558289,481.626587 690.107605,480.460236 
	C696.252197,467.413391 702.160889,454.255493 708.368164,441.048157 
	C708.242310,440.807953 707.881470,440.647064 707.129395,440.516357 
	C686.257874,445.667358 665.778015,450.789642 645.297363,455.908691 
	C459.841858,502.262421 274.385529,548.612732 88.932365,594.975830 
	C77.706741,597.782166 73.011703,603.791016 73.005173,615.264343 
	C72.989258,643.259338 73.062134,671.254822 72.873474,699.248535 
	C72.859467,701.327209 71.577385,704.028381 69.983467,705.366943 
	C55.534397,717.501709 45.648598,732.543945 40.399784,750.629395 
	C39.272839,754.512451 38.517109,758.503174 37.306313,763.652405 
	C37.306313,520.637207 37.306313,278.929291 37.306313,37.277046 
	C289.315125,37.277046 541.017517,37.277046 793.142334,37.277046 
	C793.142334,111.056198 793.142334,184.559402 793.142334,258.062622 
	C794.229797,257.353790 794.638306,256.519043 795.031677,255.677261 
	C805.717529,232.805008 816.456848,209.957321 827.010742,187.024353 
	C828.208557,184.421539 828.912109,181.339401 828.918335,178.477493 
	C829.030640,127.153542 828.807251,75.827972 829.150513,24.506063 
	C829.225891,13.227568 825.859131,5.146677 815.000000,1.000000 
	C869.690735,1.000000 924.381531,1.000000 979.393616,1.376680 
	C946.336304,6.802866 922.595276,24.795570 908.372253,55.279446 
	C832.946106,216.939194 757.565796,378.620392 682.273499,540.342468 
	C680.707275,543.706665 679.702698,547.635193 679.605347,551.331299 
	C678.947632,576.295837 678.617432,601.268982 678.158325,626.238831 
	C677.616516,655.703613 676.934814,685.166565 676.584778,714.633545 
	C676.504761,721.367371 676.298767,728.517578 678.336365,734.763062 
	C681.597229,744.758118 696.013916,749.842834 708.229370,739.081116 
	C751.579590,700.889587 795.304199,663.123230 838.784241,625.078369 
	C841.320435,622.859253 843.493958,619.858521 844.924683,616.795715 
	C918.171143,460.000519 991.354858,303.175964 1064.399780,146.286835 
	C1069.638428,135.034882 1073.837280,123.294998 1078.399414,111.734604 
	C1079.510376,108.919441 1080.145874,105.916573 1081.000000,103.000000 
M611.563110,390.615265 
	C612.989502,384.781006 614.415955,378.946777 615.805176,373.264679 
	C609.734680,374.699615 602.783875,376.342621 595.833069,377.985626 
	C595.411743,377.522614 594.990417,377.059631 594.569092,376.596649 
	C599.076660,369.442871 603.584229,362.289124 608.007446,355.269287 
	C592.531250,356.764587 578.757935,352.018311 568.027954,339.772369 
	C557.238892,327.459015 554.731323,313.031067 558.413086,296.456970 
	C544.969849,306.879150 530.755066,310.403961 515.126831,305.812836 
	C499.380737,301.187073 489.234558,290.445526 484.133179,275.866943 
	C480.215942,282.221436 476.279175,288.607697 472.342407,294.993927 
	C471.814270,294.824158 471.286163,294.654388 470.758026,294.484619 
	C461.128937,262.792908 451.499847,231.101212 441.822235,199.249756 
	C464.587738,191.074585 479.372833,175.592285 487.040161,152.065735 
	C495.125275,176.716797 510.592682,192.664017 534.264160,199.662689 
	C557.911255,206.654144 579.550659,201.507553 599.766052,185.451187 
	C593.621521,210.673859 597.951660,232.583557 614.418213,251.287460 
	C630.810486,269.907013 651.916077,276.925201 676.991882,274.191895 
	C676.020996,275.273590 675.614929,275.781311 675.153503,276.232300 
	C646.270752,304.460052 644.927551,344.628235 671.748413,375.128265 
	C673.195251,376.773621 674.130127,379.040314 674.783203,381.176697 
	C676.117004,385.540039 677.096313,390.011780 678.264221,394.606384 
	C697.451782,389.851349 716.025452,385.331543 734.524475,380.524384 
	C736.213074,380.085571 737.947205,378.056702 738.770996,376.339630 
	C744.447571,364.507507 749.957764,352.593475 755.339722,340.624054 
	C756.320801,338.442261 756.930786,335.885986 756.933228,333.501770 
	C757.013977,253.518753 757.005554,173.535645 756.994812,93.552544 
	C756.992981,80.097527 749.844849,73.004883 736.301025,73.004005 
	C621.491943,72.996529 506.682892,72.996437 391.873810,73.003807 
	C377.152039,73.004753 368.952942,83.974976 373.246613,98.156845 
	C384.654022,135.835220 396.176758,173.478653 407.639038,211.140427 
	C429.456055,282.824799 451.272308,354.509430 473.064697,426.201294 
	C476.609406,437.862549 485.243347,442.882782 497.315399,439.889008 
	C529.905151,431.806946 562.479797,423.663208 595.042603,415.473114 
	C608.562683,412.072571 612.965149,405.616730 611.563110,390.615265 
M72.999374,400.500000 
	C72.999374,440.997986 72.975304,481.496002 73.013199,521.993958 
	C73.025505,535.146484 83.234474,543.170105 96.065819,540.228882 
	C99.145073,539.523132 102.203384,538.725464 105.268700,537.959534 
	C212.209549,511.240265 319.152618,484.529785 426.087524,457.786865 
	C439.470795,454.439850 444.713165,444.972412 440.675690,431.729675 
	C405.836151,317.458099 370.993835,203.187363 336.146362,88.918205 
	C332.507050,76.984451 327.134827,73.000809 314.749451,73.000443 
	C241.584000,72.998276 168.417480,73.202309 95.254059,72.818359 
	C81.561546,72.746506 72.759346,80.543816 72.812248,95.505722 
	C73.170547,196.836090 72.999374,298.168365 72.999374,400.500000 
z"/>
<path fill="#000000" opacity="1.000000" stroke="none" 
	d="
M524.895935,813.101318 
	C525.777771,814.672485 526.560425,816.309814 527.556152,817.805176 
	C548.946899,849.927429 570.362610,882.033203 591.768066,914.145691 
	C592.683655,915.519226 593.548645,916.926453 594.858643,918.977966 
	C565.049133,924.957275 535.677490,930.848755 505.538452,936.894226 
	C506.926147,938.175415 507.735077,939.064880 508.679901,939.773254 
	C522.538269,950.162476 536.387329,960.564575 550.326294,970.844788 
	C551.817383,971.944458 553.856689,972.908142 555.643494,972.911316 
	C610.308105,973.007874 664.973022,972.976624 719.637878,972.951843 
	C719.934753,972.951660 720.231506,972.761536 721.000000,972.498840 
	C721.000000,971.037415 721.000000,969.423584 721.000000,967.809692 
	C721.000000,907.144592 720.966675,846.479492 721.084351,785.814636 
	C721.091309,782.250183 720.169678,780.085327 717.071716,778.177551 
	C709.785217,773.690247 702.754944,768.786804 694.531433,763.328491 
	C706.395386,762.750854 714.593018,757.562622 722.146790,750.714172 
	C732.015076,741.767151 742.183167,733.150574 752.232239,724.403259 
	C753.556885,723.250244 754.940613,722.165100 757.000000,720.469727 
	C757.000000,723.079956 757.000000,724.838623 757.000000,726.597351 
	C757.000000,813.428406 756.829956,900.260132 757.169861,987.089844 
	C757.225586,1001.314575 748.417908,1009.175598 735.142334,1009.161377 
	C521.648132,1008.932739 308.153656,1009.000305 94.659225,1008.999207 
	C79.729752,1008.999146 73.001740,1002.290955 73.000900,987.404541 
	C72.998360,942.405701 72.947861,897.406738 73.089905,852.408386 
	C73.102509,848.415649 72.064529,845.863464 68.901871,843.210205 
	C51.375298,828.506653 41.113136,809.598450 37.279640,787.022522 
	C37.279640,872.799988 37.279640,958.577454 37.279640,1044.677612 
	C288.918579,1044.677612 540.648071,1044.677612 793.000000,1044.677612 
	C793.000000,1042.870728 793.000000,1040.942749 793.000000,1039.014648 
	C793.000000,924.017639 793.019592,809.020630 792.911316,694.023682 
	C792.907837,690.318970 793.983093,687.918579 796.778442,685.555786 
	C807.332397,676.635071 817.677368,667.467163 828.689392,657.879211 
	C828.815918,659.732239 828.988464,661.079590 828.988586,662.426941 
	C829.000854,795.256836 829.003784,928.086731 828.992676,1060.916626 
	C828.991821,1071.354980 824.633606,1077.434082 815.122192,1080.659180 
	C548.645752,1081.000000 282.291534,1081.000000 15.276681,1080.705322 
	C7.474622,1078.583008 3.702827,1073.334229 1.000000,1067.000000 
	C1.000000,716.645752 1.000000,366.291534 1.294840,15.277012 
	C3.414407,7.472521 8.671604,3.708779 15.000000,1.000000 
	C281.354218,1.000000 547.708435,1.000000 814.531372,1.000000 
	C825.859131,5.146677 829.225891,13.227568 829.150513,24.506063 
	C828.807251,75.827972 829.030640,127.153542 828.918335,178.477493 
	C828.912109,181.339401 828.208557,184.421539 827.010742,187.024353 
	C816.456848,209.957321 805.717529,232.805008 795.031677,255.677261 
	C794.638306,256.519043 794.229797,257.353790 793.142334,258.062622 
	C793.142334,184.559402 793.142334,111.056198 793.142334,37.277046 
	C541.017517,37.277046 289.315125,37.277046 37.306313,37.277046 
	C37.306313,278.929291 37.306313,520.637207 37.306313,763.652405 
	C38.517109,758.503174 39.272839,754.512451 40.399784,750.629395 
	C45.648598,732.543945 55.534397,717.501709 69.983467,705.366943 
	C71.577385,704.028381 72.859467,701.327209 72.873474,699.248535 
	C73.062134,671.254822 72.989258,643.259338 73.005173,615.264343 
	C73.011703,603.791016 77.706741,597.782166 88.932365,594.975830 
	C274.385529,548.612732 459.841858,502.262421 645.297363,455.908691 
	C665.778015,450.789642 686.257874,445.667358 707.278931,440.680115 
	C707.819763,440.813660 708.133118,441.127502 708.133118,441.127502 
	C702.160889,454.255493 696.252197,467.413391 690.107605,480.460236 
	C689.558289,481.626587 687.569519,482.432983 686.097717,482.801453 
	C585.795288,507.913452 485.476868,532.961792 385.160706,558.019043 
	C294.198608,580.739929 203.237305,603.464050 112.278084,626.196594 
	C111.312195,626.437988 110.379036,626.810425 109.222565,627.189941 
	C109.222565,653.087646 109.222565,679.009888 109.222565,704.975464 
	C173.900864,689.978943 222.642883,759.147339 187.495560,814.764038 
	C189.580353,813.335327 190.901260,812.497986 192.150085,811.564270 
	C217.490814,792.618774 242.768112,773.587891 268.177856,754.735413 
	C283.779205,743.160095 303.215668,747.240906 311.546600,763.588501 
	C316.869537,774.033630 315.198700,785.961365 306.846863,795.550720 
	C281.695862,824.428467 256.483948,853.253113 231.301788,882.103760 
	C226.593674,887.497681 220.112869,892.232239 217.727158,898.515381 
	C215.344208,904.791260 217.022675,912.628479 217.010071,919.781372 
	C216.979248,937.276855 217.000015,954.772461 217.000015,972.633911 
	C277.130707,972.633911 337.161041,972.633911 397.883636,972.633911 
	C375.086792,948.204895 352.584839,924.091919 329.529236,899.385681 
	C382.361206,887.843872 434.390869,876.477417 486.983917,864.987793 
	C427.125732,799.142944 367.702942,733.777039 308.280121,668.411133 
	C308.401154,668.121399 308.522217,667.831726 308.643250,667.542053 
	C379.645782,691.195679 450.648285,714.849304 522.933594,738.930298 
	C504.843414,696.695435 487.283417,655.698425 469.723389,614.701416 
	C469.938354,614.397400 470.153290,614.093445 470.368256,613.789429 
	C523.768005,643.442261 577.167786,673.095032 630.986450,702.980469 
	C637.006348,654.889221 642.954590,607.369629 648.902893,559.850098 
	C649.333984,559.524048 649.765015,559.198059 650.196106,558.872009 
	C653.471252,562.541565 656.848022,566.128235 659.953735,569.935974 
	C660.780823,570.950012 661.126282,572.646729 661.104797,574.020813 
	C660.392395,619.478088 659.610046,664.934143 658.833069,710.390381 
	C658.733521,716.215271 658.458069,722.041443 658.523376,727.864136 
	C658.690552,742.776245 667.768127,755.635376 681.671692,760.909485 
	C682.743774,761.316162 683.819458,761.713623 684.993286,762.152771 
	C684.993286,783.802856 684.995178,805.296692 684.979553,826.790527 
	C684.979248,827.226135 684.773987,827.661682 684.530151,828.629883 
	C661.001160,810.995605 637.747559,793.567688 614.493896,776.139709 
	C614.171936,776.295471 613.849976,776.451233 613.527954,776.607056 
	C625.147217,811.527222 636.766418,846.447388 648.887390,882.875427 
	C607.113098,859.057617 566.567383,835.940247 525.524719,812.520996 
	C524.771301,812.245361 524.514771,812.271606 524.258301,812.297791 
	C524.470886,812.565613 524.683411,812.833435 524.895935,813.101318 
M132.052185,744.567017 
	C126.041794,752.106079 125.364845,759.959961 130.114304,767.050171 
	C134.266220,773.248352 142.282440,776.311035 149.322205,774.388611 
	C156.630600,772.392883 161.861618,766.590637 162.842926,759.391296 
	C163.813950,752.267456 160.055481,744.795044 153.767807,741.348450 
	C146.665070,737.455078 139.737274,738.338074 132.052185,744.567017 
z"/>
<path fill="#010101" opacity="1.000000" stroke="none" 
	d="
M1081.000000,102.531372 
	C1080.145874,105.916573 1079.510376,108.919441 1078.399414,111.734604 
	C1073.837280,123.294998 1069.638428,135.034882 1064.399780,146.286835 
	C991.354858,303.175964 918.171143,460.000519 844.924683,616.795715 
	C843.493958,619.858521 841.320435,622.859253 838.784241,625.078369 
	C795.304199,663.123230 751.579590,700.889587 708.229370,739.081116 
	C696.013916,749.842834 681.597229,744.758118 678.336365,734.763062 
	C676.298767,728.517578 676.504761,721.367371 676.584778,714.633545 
	C676.934814,685.166565 677.616516,655.703613 678.158325,626.238831 
	C678.617432,601.268982 678.947632,576.295837 679.605347,551.331299 
	C679.702698,547.635193 680.707275,543.706665 682.273499,540.342468 
	C757.565796,378.620392 832.946106,216.939194 908.372253,55.279446 
	C922.595276,24.795570 946.336304,6.802866 979.857483,1.376680 
	C986.687622,1.000000 993.375305,1.000000 1000.679749,1.381943 
	C1035.440796,4.951597 1066.933960,30.878653 1076.786743,64.004036 
	C1078.358032,69.286385 1079.603760,74.665573 1081.000000,80.000000 
	C1081.000000,87.354256 1081.000000,94.708504 1081.000000,102.531372 
M730.310059,521.814819 
	C727.418091,528.124817 724.526123,534.434814 721.431946,541.186035 
	C732.441711,546.332642 743.166260,551.346008 754.117493,556.465210 
	C820.183228,414.835480 886.008179,273.721893 951.928589,132.403625 
	C940.764526,127.195740 930.135681,122.237495 919.157471,117.116287 
	C856.240540,252.018692 793.475220,386.596100 730.310059,521.814819 
M1034.391479,125.886406 
	C1036.698730,120.734879 1039.198242,115.659767 1041.282227,110.419411 
	C1054.632324,76.849129 1030.485718,38.787766 994.395996,37.219959 
	C961.400269,35.786564 944.105042,56.926651 934.955322,84.830841 
	C967.267273,99.897606 999.601746,114.974869 1032.202026,130.176086 
	C1032.894287,128.832718 1033.478882,127.698212 1034.391479,125.886406 
M748.896057,633.614136 
	C753.568115,635.784607 758.200745,638.047913 762.940125,640.059692 
	C764.105835,640.554565 766.133911,640.835205 766.895203,640.189026 
	C776.369324,632.146973 785.682678,623.915527 795.307495,615.496460 
	C768.322998,602.920166 741.881592,590.596924 714.321594,577.752441 
	C714.321594,590.903748 714.245789,603.044495 714.442444,615.180847 
	C714.461487,616.355469 715.926819,618.002991 717.130005,618.584167 
	C727.451721,623.570923 737.867737,628.362549 748.896057,633.614136 
z"/>
<path fill="#FDCEAF" opacity="1.000000" stroke="none" 
	d="
M1081.000000,79.531342 
	C1079.603760,74.665573 1078.358032,69.286385 1076.786743,64.004036 
	C1066.933960,30.878653 1035.440796,4.951597 1001.148315,1.381943 
	C1027.593140,1.000000 1054.186157,1.000000 1081.000000,1.000000 
	C1081.000000,27.020479 1081.000000,53.041580 1081.000000,79.531342 
z"/>
<path fill="#F7C9AB" opacity="1.000000" stroke="none" 
	d="
M14.525872,1.000000 
	C8.671604,3.708779 3.414407,7.472521 1.294840,14.808353 
	C1.000000,10.409401 1.000000,5.818802 1.000000,1.000000 
	C5.348905,1.000000 9.700325,1.000000 14.525872,1.000000 
z"/>
<path fill="#F8C9AB" opacity="1.000000" stroke="none" 
	d="
M1.000000,1067.474121 
	C3.702827,1073.334229 7.474622,1078.583008 14.808023,1080.705322 
	C10.409399,1081.000000 5.818798,1081.000000 1.000000,1081.000000 
	C1.000000,1076.651123 1.000000,1072.299683 1.000000,1067.474121 
z"/>
<path fill="#010000" opacity="1.000000" stroke="none" 
	d="
M611.606201,391.089783 
	C612.965149,405.616730 608.562683,412.072571 595.042603,415.473114 
	C562.479797,423.663208 529.905151,431.806946 497.315399,439.889008 
	C485.243347,442.882782 476.609406,437.862549 473.064697,426.201294 
	C451.272308,354.509430 429.456055,282.824799 407.639038,211.140427 
	C396.176758,173.478653 384.654022,135.835220 373.246613,98.156845 
	C368.952942,83.974976 377.152039,73.004753 391.873810,73.003807 
	C506.682892,72.996437 621.491943,72.996529 736.301025,73.004005 
	C749.844849,73.004883 756.992981,80.097527 756.994812,93.552544 
	C757.005554,173.535645 757.013977,253.518753 756.933228,333.501770 
	C756.930786,335.885986 756.320801,338.442261 755.339722,340.624054 
	C749.957764,352.593475 744.447571,364.507507 738.770996,376.339630 
	C737.947205,378.056702 736.213074,380.085571 734.524475,380.524384 
	C716.025452,385.331543 697.451782,389.851349 678.264221,394.606384 
	C677.096313,390.011780 676.117004,385.540039 674.783203,381.176697 
	C674.130127,379.040314 673.195251,376.773621 671.748413,375.128265 
	C644.927551,344.628235 646.270752,304.460052 675.153503,276.232300 
	C675.614929,275.781311 676.020996,275.273590 676.991882,274.191895 
	C651.916077,276.925201 630.810486,269.907013 614.418213,251.287460 
	C597.951660,232.583557 593.621521,210.673859 599.766052,185.451187 
	C579.550659,201.507553 557.911255,206.654144 534.264160,199.662689 
	C510.592682,192.664017 495.125275,176.716797 487.040161,152.065735 
	C479.372833,175.592285 464.587738,191.074585 441.822235,199.249756 
	C451.499847,231.101212 461.128937,262.792908 470.758026,294.484619 
	C471.286163,294.654388 471.814270,294.824158 472.342407,294.993927 
	C476.279175,288.607697 480.215942,282.221436 484.133179,275.866943 
	C489.234558,290.445526 499.380737,301.187073 515.126831,305.812836 
	C530.755066,310.403961 544.969849,306.879150 558.413086,296.456970 
	C554.731323,313.031067 557.238892,327.459015 568.027954,339.772369 
	C578.757935,352.018311 592.531250,356.764587 608.007446,355.269287 
	C603.584229,362.289124 599.076660,369.442871 594.569092,376.596649 
	C594.990417,377.059631 595.411743,377.522614 595.833069,377.985626 
	C602.783875,376.342621 609.734680,374.699615 615.805176,373.264679 
	C614.415955,378.946777 612.989502,384.781006 611.606201,391.089783 
M599.475281,185.849884 
	C599.475281,185.849884 599.575928,185.554230 599.575928,185.554230 
	C599.575928,185.554230 599.309326,185.642441 599.475281,185.849884 
z"/>
<path fill="#010101" opacity="1.000000" stroke="none" 
	d="
M72.999374,400.000000 
	C72.999374,298.168365 73.170547,196.836090 72.812248,95.505722 
	C72.759346,80.543816 81.561546,72.746506 95.254059,72.818359 
	C168.417480,73.202309 241.584000,72.998276 314.749451,73.000443 
	C327.134827,73.000809 332.507050,76.984451 336.146362,88.918205 
	C370.993835,203.187363 405.836151,317.458099 440.675690,431.729675 
	C444.713165,444.972412 439.470795,454.439850 426.087524,457.786865 
	C319.152618,484.529785 212.209549,511.240265 105.268700,537.959534 
	C102.203384,538.725464 99.145073,539.523132 96.065819,540.228882 
	C83.234474,543.170105 73.025505,535.146484 73.013199,521.993958 
	C72.975304,481.496002 72.999374,440.997986 72.999374,400.000000 
M316.968018,149.535965 
	C312.869110,136.075745 308.770233,122.615509 304.722717,109.324074 
	C239.292282,109.324074 174.239578,109.324074 109.325729,109.324074 
	C109.325729,239.638046 109.325729,369.628387 109.325729,499.852478 
	C141.705246,491.758209 173.723129,483.754303 205.804504,475.734558 
	C206.941406,457.108276 202.304413,440.716949 191.111679,426.283264 
	C179.839218,411.746704 164.803436,403.461975 145.735626,400.177032 
	C168.856369,388.626831 182.497406,371.193756 186.051666,346.678986 
	C189.624725,322.034637 181.346710,301.365082 162.936111,284.137360 
	C213.041565,290.686951 253.524902,243.995255 239.970169,194.997238 
	C253.452774,206.203384 268.419800,212.162476 285.548492,212.043701 
	C302.638641,211.925201 317.727600,206.376511 330.895416,195.335052 
	C326.261749,180.177750 321.698517,165.250778 316.968018,149.535965 
M297.465668,379.303131 
	C300.431366,402.409180 291.012329,419.180237 270.554108,430.564484 
	C283.493958,432.837708 293.670685,438.619629 301.154633,448.697327 
	C302.878815,451.019135 304.503754,451.101807 307.067383,450.452118 
	C326.712402,445.473663 346.405762,440.686554 366.071198,435.787964 
	C377.801147,432.866089 389.507782,429.850342 401.471375,426.814209 
	C397.222778,412.874603 393.113617,399.390839 389.003418,385.907379 
	C380.921295,359.393890 372.867126,332.871765 364.687927,306.388275 
	C364.175903,304.730438 362.811035,302.193542 361.627045,302.065765 
	C351.800751,301.005127 343.104401,297.344269 334.445282,290.555115 
	C338.280670,307.920227 335.348083,322.700409 324.250885,335.315338 
	C313.172516,347.908875 298.926697,352.707672 281.456238,350.986298 
	C290.241119,358.965546 295.464935,367.769409 297.465668,379.303131 
M334.476013,290.677399 
	C334.476013,290.677399 334.546570,290.678497 334.476013,290.677399 
z"/>
<path fill="#000000" opacity="1.000000" stroke="none" 
	d="
M707.670166,440.649902 
	C707.881470,440.647064 708.242310,440.807953 708.368164,441.048157 
	C708.133118,441.127502 707.819763,440.813660 707.670166,440.649902 
z"/>
<path fill="#FBCBAD" opacity="1.000000" stroke="none" 
	d="
M132.310730,744.308716 
	C139.737274,738.338074 146.665070,737.455078 153.767807,741.348450 
	C160.055481,744.795044 163.813950,752.267456 162.842926,759.391296 
	C161.861618,766.590637 156.630600,772.392883 149.322205,774.388611 
	C142.282440,776.311035 134.266220,773.248352 130.114304,767.050171 
	C125.364845,759.959961 126.041794,752.106079 132.310730,744.308716 
z"/>
<path fill="#FFCFB0" opacity="1.000000" stroke="none" 
	d="
M525.004517,812.997437 
	C524.683411,812.833435 524.470886,812.565613 524.258301,812.297791 
	C524.514771,812.271606 524.771301,812.245361 525.180298,812.453674 
	C525.332886,812.688171 525.113159,812.893494 525.004517,812.997437 
z"/>
<path fill="#FECEAF" opacity="1.000000" stroke="none" 
	d="
M730.510010,521.494141 
	C793.475220,386.596100 856.240540,252.018692 919.157471,117.116287 
	C930.135681,122.237495 940.764526,127.195740 951.928589,132.403625 
	C886.008179,273.721893 820.183228,414.835480 754.117493,556.465210 
	C743.166260,551.346008 732.441711,546.332642 721.431946,541.186035 
	C724.526123,534.434814 727.418091,528.124817 730.510010,521.494141 
z"/>
<path fill="#FECEAF" opacity="1.000000" stroke="none" 
	d="
M1034.227539,126.225052 
	C1033.478882,127.698212 1032.894287,128.832718 1032.202026,130.176086 
	C999.601746,114.974869 967.267273,99.897606 934.955322,84.830841 
	C944.105042,56.926651 961.400269,35.786564 994.395996,37.219959 
	C1030.485718,38.787766 1054.632324,76.849129 1041.282227,110.419411 
	C1039.198242,115.659767 1036.698730,120.734879 1034.227539,126.225052 
z"/>
<path fill="#FDCDAF" opacity="1.000000" stroke="none" 
	d="
M748.575806,633.413330 
	C737.867737,628.362549 727.451721,623.570923 717.130005,618.584167 
	C715.926819,618.002991 714.461487,616.355469 714.442444,615.180847 
	C714.245789,603.044495 714.321594,590.903748 714.321594,577.752441 
	C741.881592,590.596924 768.322998,602.920166 795.307495,615.496460 
	C785.682678,623.915527 776.369324,632.146973 766.895203,640.189026 
	C766.133911,640.835205 764.105835,640.554565 762.940125,640.059692 
	C758.200745,638.047913 753.568115,635.784607 748.575806,633.413330 
z"/>
<path fill="#FFCFB0" opacity="1.000000" stroke="none" 
	d="
M599.392334,185.746155 
	C599.309326,185.642441 599.575928,185.554230 599.575928,185.554230 
	C599.575928,185.554230 599.475281,185.849884 599.392334,185.746155 
z"/>
<path fill="#FFCFB0" opacity="1.000000" stroke="none" 
	d="
M317.051636,149.929886 
	C321.698517,165.250778 326.261749,180.177750 330.895416,195.335052 
	C317.727600,206.376511 302.638641,211.925201 285.548492,212.043701 
	C268.419800,212.162476 253.452774,206.203384 239.970169,194.997238 
	C253.524902,243.995255 213.041565,290.686951 162.936111,284.137360 
	C181.346710,301.365082 189.624725,322.034637 186.051666,346.678986 
	C182.497406,371.193756 168.856369,388.626831 145.735626,400.177032 
	C164.803436,403.461975 179.839218,411.746704 191.111679,426.283264 
	C202.304413,440.716949 206.941406,457.108276 205.804504,475.734558 
	C173.723129,483.754303 141.705246,491.758209 109.325729,499.852478 
	C109.325729,369.628387 109.325729,239.638046 109.325729,109.324074 
	C174.239578,109.324074 239.292282,109.324074 304.722717,109.324074 
	C308.770233,122.615509 312.869110,136.075745 317.051636,149.929886 
z"/>
<path fill="#FECEAF" opacity="1.000000" stroke="none" 
	d="
M297.382568,378.875427 
	C295.464935,367.769409 290.241119,358.965546 281.456238,350.986298 
	C298.926697,352.707672 313.172516,347.908875 324.250885,335.315338 
	C335.348083,322.700409 338.280670,307.920227 334.445282,290.555115 
	C343.104401,297.344269 351.800751,301.005127 361.627045,302.065765 
	C362.811035,302.193542 364.175903,304.730438 364.687927,306.388275 
	C372.867126,332.871765 380.921295,359.393890 389.003418,385.907379 
	C393.113617,399.390839 397.222778,412.874603 401.471375,426.814209 
	C389.507782,429.850342 377.801147,432.866089 366.071198,435.787964 
	C346.405762,440.686554 326.712402,445.473663 307.067383,450.452118 
	C304.503754,451.101807 302.878815,451.019135 301.154633,448.697327 
	C293.670685,438.619629 283.493958,432.837708 270.554108,430.564484 
	C291.012329,419.180237 300.431366,402.409180 297.382568,378.875427 
z"/>
<path fill="#FECEAF" opacity="1.000000" stroke="none" 
	d="
M334.511292,290.677948 
	C334.546570,290.678497 334.476013,290.677399 334.511292,290.677948 
z"/>
</svg>