<svg version="1.1" id="Layer_1" xmlns="http://www.w3.org/2000/svg" xmlns:xlink="http://www.w3.org/1999/xlink" x="0px" y="0px"
	 width="100%" viewBox="0 0 1024 1024" enable-background="new 0 0 1024 1024" xml:space="preserve">
<path fill="#000000" opacity="1.000000" stroke="none" 
	d="
M912.688110,791.258850 
	C958.548157,823.387878 985.066223,867.026550 993.429260,921.915161 
	C995.729004,937.008972 995.764587,952.097900 994.068237,967.210510 
	C991.867554,986.815796 976.753906,999.947510 956.492371,999.949646 
	C856.170166,999.960205 755.848022,999.941223 655.525818,999.945496 
	C457.381165,999.953979 259.236176,999.813477 61.092220,1000.191895 
	C37.416019,1000.237061 22.673950,983.654602 21.285357,963.837036 
	C17.365606,907.895874 33.406345,859.231018 71.359032,818.098755 
	C100.016373,787.040588 135.777344,768.028809 177.311035,761.284912 
	C234.654465,751.973999 285.868378,766.827881 330.688477,803.762573 
	C332.207428,805.014343 333.434357,806.698181 335.539520,807.151062 
	C337.406647,806.482727 338.313965,804.813965 339.462769,803.422180 
	C375.283905,760.027161 421.079956,733.660278 476.678436,725.938232 
	C544.009949,716.586670 603.123352,735.891785 653.814514,780.987488 
	C662.022766,788.289612 669.620056,796.298279 676.236511,805.132141 
	C678.327026,807.923340 680.089966,808.028015 682.723206,805.699097 
	C746.496521,749.293030 840.348022,742.492615 912.688110,791.258850 
M443.874634,758.427368 
	C413.590271,769.072571 387.334747,785.956543 365.782532,809.771118 
	C327.531860,852.037231 310.980255,901.800781 315.465302,958.544800 
	C316.649200,973.523804 319.403900,975.742004 334.458771,975.740967 
	C445.439850,975.732910 556.420959,975.725403 667.402039,975.715881 
	C673.401001,975.715393 679.400391,975.739014 685.398804,975.678894 
	C692.642700,975.606201 696.455627,972.619568 697.935669,965.393066 
	C698.799622,961.174988 699.340210,956.848511 699.559204,952.547058 
	C701.548767,913.451965 693.109009,876.825256 673.319275,842.933289 
	C627.219055,763.981934 530.984497,728.331421 443.874634,758.427368 
M969.680298,926.644836 
	C963.655762,882.334167 943.557129,845.770203 908.380554,818.133850 
	C872.334167,789.814209 831.117615,778.571960 785.596436,784.256653 
	C751.905396,788.463989 722.527832,802.480347 697.019836,824.820618 
	C693.900574,827.552429 693.303711,829.674866 695.505737,833.597107 
	C716.388367,870.794189 726.268555,910.600464 723.476257,953.394104 
	C723.001587,960.668152 722.049438,967.870422 721.028137,974.949036 
	C723.102661,976.124634 724.974854,975.694275 726.765808,975.694824 
	C802.097656,975.716553 877.429565,975.712341 952.761414,975.707642 
	C954.927673,975.707520 957.105774,975.804077 959.257874,975.618164 
	C964.922302,975.129028 968.944763,971.399780 969.663452,965.886902 
	C971.328491,953.115234 971.429626,940.329651 969.680298,926.644836 
M120.499969,975.719299 
	C178.047043,975.719299 235.594116,975.719299 293.346619,975.719299 
	C293.346619,974.110596 293.452332,973.450684 293.331268,972.835510 
	C289.530731,953.523743 289.651367,934.040100 291.977020,914.667480 
	C295.465271,885.610718 304.353149,858.151306 319.132996,832.789551 
	C321.276337,829.111633 320.794891,827.147644 317.762207,824.495605 
	C279.051392,790.643188 233.938614,776.885498 183.435974,784.835571 
	C130.763184,793.127197 91.062408,821.708008 64.754669,868.259338 
	C48.183472,897.581848 42.715836,929.348755 45.456802,962.664246 
	C46.269497,972.542297 50.089474,975.695068 60.025150,975.703247 
	C79.850075,975.719543 99.675018,975.714661 120.499969,975.719299 
z"/>
<path fill="#000000" opacity="1.000000" stroke="none" 
	d="
M311.689728,346.242004 
	C296.242798,317.732910 286.960388,287.803253 284.632996,255.718231 
	C280.419769,197.635376 296.158203,145.454437 332.190247,99.972641 
	C367.404877,55.522621 413.347992,28.032328 469.545197,18.657875 
	C526.452698,9.164935 579.763489,19.436954 628.097595,50.964031 
	C684.125854,87.509712 718.021301,139.385757 727.869873,205.633560 
	C737.155518,268.094299 722.433167,325.253113 683.652527,375.298462 
	C647.842468,421.510345 600.531433,449.974731 542.751831,458.938080 
	C473.013733,469.756500 411.160614,451.066650 358.011597,404.569122 
	C339.176025,388.090759 323.910858,368.553711 311.689728,346.242004 
M380.280396,392.212067 
	C427.852509,430.156921 481.717834,444.783844 541.748779,434.585602 
	C590.355408,426.328156 630.486389,402.511505 661.490540,364.325653 
	C696.562378,321.129883 710.844971,271.413696 704.911621,215.994431 
	C700.322083,173.126328 683.213745,135.763885 654.115601,104.222137 
	C618.348450,65.451370 573.874390,44.139870 521.106995,40.066391 
	C491.317352,37.766724 462.553955,42.178432 434.951965,53.023731 
	C391.596954,70.058678 357.895142,98.819916 334.689087,139.340927 
	C309.676544,183.016296 301.998322,229.779388 312.163208,279.060822 
	C321.507904,324.365631 344.490082,361.820282 380.280396,392.212067 
z"/>
<path fill="#000000" opacity="1.000000" stroke="none" 
	d="
M486.305908,701.990234 
	C441.554047,691.491760 410.988861,659.566772 404.088867,614.091919 
	C396.308624,562.815796 428.927490,511.608368 482.076111,498.668274 
	C526.880493,487.759735 570.373108,506.869171 594.287354,542.296631 
	C620.161926,580.628052 616.113647,635.677002 584.527954,669.487854 
	C562.851135,692.691772 536.235962,704.284302 504.553833,704.037109 
	C498.602722,703.990662 492.660736,702.777161 486.305908,701.990234 
M508.470428,679.776794 
	C512.465454,679.748779 516.410339,679.452942 520.388062,678.837952 
	C562.861206,672.270508 593.522766,630.015625 586.508667,587.547607 
	C579.265625,543.693420 539.475708,514.360535 495.432648,520.406860 
	C453.387756,526.178955 422.250092,566.323425 427.479156,608.534180 
	C433.434113,656.604736 474.168579,680.869080 508.470428,679.776794 
z"/>
<path fill="#000000" opacity="1.000000" stroke="none" 
	d="
M297.718933,671.447449 
	C287.580353,710.007385 257.115021,737.465088 217.880844,741.864258 
	C166.359650,747.641113 124.490189,711.435669 116.709869,667.185730 
	C108.538467,620.711548 132.733643,578.431702 176.192474,562.331604 
	C230.910690,542.060303 292.637665,579.737427 299.470154,637.363037 
	C300.823242,648.775146 300.256653,659.913391 297.718933,671.447449 
M167.365540,705.138306 
	C181.178604,714.901062 196.351379,719.344910 213.395432,718.003540 
	C247.821091,715.294617 278.845032,684.133911 275.857880,644.705872 
	C272.888489,605.512146 237.938858,576.653198 199.003876,581.492798 
	C172.167984,584.828430 148.443405,605.093872 141.574783,630.548462 
	C133.880646,659.062317 143.501984,687.362671 167.365540,705.138306 
z"/>
<path fill="#000000" opacity="1.000000" stroke="none" 
	d="
M857.691772,572.227417 
	C888.064087,593.367004 901.778687,622.468201 899.094727,658.652771 
	C896.047974,699.728394 862.925415,734.545959 822.073425,741.229004 
	C771.188782,749.553284 723.707764,715.180359 715.531311,664.099792 
	C707.313843,612.762878 742.670593,564.893066 794.015991,557.772827 
	C816.942322,554.593628 837.981689,559.644165 857.691772,572.227417 
M863.655884,688.149292 
	C872.766479,673.940430 876.546143,658.603333 874.897461,641.634216 
	C871.261047,604.204346 833.797302,575.285156 796.750366,581.752930 
	C754.392883,589.147827 729.477112,628.627136 741.459412,670.039612 
	C749.527344,697.923767 775.991760,718.626587 807.126099,718.361694 
	C830.551819,718.162415 849.332520,707.705566 863.655884,688.149292 
z"/>
<path fill="#000000" opacity="1.000000" stroke="none" 
	d="
M426.803467,305.196503 
	C415.482788,293.866913 404.316162,282.881226 393.361633,271.687958 
	C374.511444,252.426987 372.947388,226.394623 389.282562,206.619263 
	C405.724396,186.714813 435.931366,183.755249 455.517090,200.644150 
	C464.329620,208.243240 472.407349,216.725006 480.499115,225.114319 
	C483.721405,228.455124 485.689789,228.832382 489.276184,225.406189 
	C516.977112,198.942535 544.705444,172.501816 572.798462,146.456573 
	C589.558350,130.918365 615.567688,130.415955 633.479736,144.424255 
	C655.592712,161.717896 658.101196,195.083771 637.953186,214.608856 
	C607.575134,244.047562 576.626404,272.897491 545.911682,301.988586 
	C535.513062,311.837524 525.467651,322.102844 514.592102,331.395264 
	C495.221741,347.945862 469.118927,346.797119 450.757843,329.106201 
	C442.719696,321.361511 434.946472,313.341827 426.803467,305.196503 
M550.723755,200.226273 
	C531.985474,217.987900 513.311157,235.817688 494.476746,253.476715 
	C487.214447,260.285767 481.566132,260.039398 474.555145,253.081284 
	C463.915802,242.522171 453.459259,231.776520 442.712341,221.328873 
	C432.616272,211.513901 418.397095,211.362473 409.157501,220.636673 
	C399.702301,230.127258 399.812347,243.928131 409.874634,254.121750 
	C428.954834,273.450958 448.164551,292.654419 467.486115,311.742371 
	C477.141052,321.280579 490.784363,321.106842 500.676025,311.731598 
	C508.050201,304.742401 515.380310,297.706726 522.753357,290.716339 
	C555.029175,260.115570 587.365723,229.578613 619.564087,198.896606 
	C629.785767,189.156311 630.262939,175.357513 621.151978,165.869675 
	C611.938293,156.274841 597.540344,156.025024 587.544495,165.407394 
	C575.400269,176.806259 563.340393,188.295029 550.723755,200.226273 
z"/>
</svg>