<svg version="1.1" id="Layer_1" xmlns="http://www.w3.org/2000/svg" xmlns:xlink="http://www.w3.org/1999/xlink" x="0px" y="0px"
	 width="100%" viewBox="0 0 1080 1080" enable-background="new 0 0 1080 1080" xml:space="preserve">
<path fill="#FFCFB0" opacity="1.000000" stroke="none" 
	d="
M155.000000,1081.000000 
	C103.678856,1081.000000 52.357708,1081.000000 1.018280,1081.000000 
	C1.018280,721.097656 1.018280,361.195312 1.018280,1.000000 
	C187.024796,1.000000 373.049744,1.000000 559.344238,1.325287 
	C533.996033,6.689287 518.121643,28.718863 521.852112,54.054142 
	C524.824890,74.243202 541.201538,90.120171 561.832458,92.814560 
	C581.530212,95.387077 601.709473,83.566422 609.610352,64.827202 
	C617.663208,45.727440 612.238525,23.284143 595.515930,11.178595 
	C589.198486,6.605346 581.220825,4.325355 574.000000,0.999998 
	C742.958679,1.000000 911.917419,1.000000 1080.937988,1.000000 
	C1080.937988,361.000000 1080.937988,721.000000 1080.937988,1081.000000 
	C1029.900513,1081.000000 978.912903,1081.000000 927.536011,1080.536377 
	C927.153259,1039.926025 927.361206,999.777466 927.019287,959.633606 
	C926.937805,950.062622 925.844727,940.327881 923.809998,930.974548 
	C912.417419,878.604736 864.005920,838.096130 810.564331,837.161133 
	C763.270569,836.333618 715.952576,836.863770 668.645508,836.939270 
	C666.746765,836.942261 664.508240,838.024719 663.003174,839.288940 
	C627.566956,869.054077 592.179932,898.878296 556.931274,928.864868 
	C555.261108,930.285583 554.128418,933.296997 554.120972,935.572083 
	C553.961975,984.047668 554.000183,1032.523926 554.000000,1081.000000 
	C545.641785,1081.000000 537.283508,1081.000000 528.462402,1080.531372 
	C527.999512,1031.918457 528.037720,983.773987 527.880371,935.630188 
	C527.872925,933.351807 526.766907,930.331421 525.102051,928.913757 
	C489.866821,898.911987 454.499786,869.064575 419.050812,839.315308 
	C417.348938,837.887024 414.660706,836.946106 412.428345,836.939453 
	C366.949860,836.803772 321.470154,836.676453 275.992188,836.879761 
	C222.319626,837.119751 174.935043,872.671814 160.080017,924.200500 
	C157.165192,934.311401 155.311935,945.083191 155.177902,955.578430 
	C154.644104,997.379578 154.983749,1039.191895 155.000000,1081.000000 
M483.500061,500.834869 
	C460.741302,500.834869 437.982513,500.834869 414.982361,500.834869 
	C416.415131,516.590515 412.065643,529.647400 400.318268,539.754517 
	C390.969727,547.797729 379.799988,551.842957 367.852234,554.020691 
	C364.043365,554.714905 360.204254,555.243103 355.782196,555.941528 
	C363.223206,569.572998 370.037994,582.702698 377.438538,595.493469 
	C399.420807,633.486694 423.630280,669.871887 455.627014,700.399048 
	C461.873016,706.358154 468.615784,711.796631 475.129425,717.475281 
	C475.831055,715.656982 475.705231,714.675293 475.530884,713.702271 
	C472.304718,695.697205 469.057831,677.695801 465.849213,659.687683 
	C464.532623,652.298340 466.658508,645.666931 472.784729,641.671326 
	C478.506805,637.939331 485.010468,634.892639 491.593384,633.090210 
	C510.870605,627.812195 530.712585,627.396606 550.561707,627.956116 
	C566.906250,628.416809 583.167664,629.814636 598.692505,635.386780 
	C614.135559,640.929565 618.574890,649.421204 615.533325,665.442505 
	C612.287903,682.537537 609.354370,699.691895 606.284668,716.820312 
	C660.754578,674.050598 694.479431,616.176331 725.502625,557.420776 
	C713.853333,554.511719 702.456970,552.651550 691.797668,548.768311 
	C676.582764,543.225403 666.096008,532.453308 662.570557,516.039307 
	C661.911377,512.970032 661.570007,509.772369 661.569397,506.633850 
	C661.567993,499.238617 666.629639,493.666199 673.539368,493.075714 
	C680.334534,492.494995 686.986450,497.327637 687.267639,504.646362 
	C687.797974,518.450439 696.261658,524.568115 708.032654,527.025452 
	C718.040222,529.114624 728.350525,529.753845 738.441895,531.023804 
	C741.730469,523.711304 744.808350,517.614868 747.231262,511.268402 
	C749.629150,504.987610 753.742493,501.001068 759.704407,497.878815 
	C787.720276,483.206879 796.872864,445.295471 777.414490,420.340881 
	C770.188782,411.074219 766.045593,402.034271 766.245850,390.638763 
	C766.266235,389.478516 766.180969,388.296234 765.973755,387.155243 
	C763.822510,375.309082 761.636292,363.469330 759.298279,350.749207 
	C732.649658,364.391876 705.872742,373.323212 678.916138,379.915192 
	C686.002441,383.296448 693.577759,386.050690 700.216064,390.276825 
	C710.609619,396.893677 717.900208,406.152740 717.937561,419.230530 
	C717.984924,435.796814 707.993286,445.847687 694.427734,452.851532 
	C676.475098,462.120392 657.261841,463.661194 637.572632,460.522614 
	C624.383240,458.420197 612.133423,453.974182 602.092468,444.727448 
	C587.043640,430.869019 586.442505,411.319305 600.555603,396.592407 
	C601.415955,395.694611 602.174194,394.698853 603.359375,393.301270 
	C576.550415,394.104492 550.423279,394.887268 523.998718,395.678955 
	C523.998718,397.176453 523.998718,398.813965 523.998718,400.451447 
	C523.998718,428.445465 524.016663,456.439514 523.989868,484.433502 
	C523.978943,495.824768 518.987976,500.763763 507.495178,500.826843 
	C499.830353,500.868896 492.165161,500.834839 483.500061,500.834869 
M552.503967,369.165619 
	C589.353394,368.414368 625.899597,364.835968 661.933228,356.917877 
	C694.023010,349.866394 725.203979,340.196655 753.715576,323.336334 
	C766.250366,315.923859 777.956604,307.455902 786.829468,295.656952 
	C799.300110,279.073547 799.585388,261.806213 787.586121,244.968933 
	C778.194336,231.790497 765.309937,222.687607 751.492798,214.800964 
	C728.955200,201.936844 704.688416,193.451492 679.670227,186.977371 
	C671.144836,184.771179 662.533875,182.895279 652.469788,180.515625 
	C663.067078,200.610107 672.896606,219.262558 682.739929,237.907745 
	C687.618713,247.149094 686.160950,252.980942 677.308350,258.544067 
	C658.227234,270.535004 637.219177,277.745483 615.479797,282.994019 
	C605.983521,285.286713 596.365906,287.076813 586.486816,289.161987 
	C586.486816,296.089325 586.643982,302.898499 586.450073,309.697632 
	C586.157104,319.970062 581.058533,324.815613 570.739563,324.826782 
	C544.748291,324.854919 518.757080,324.853424 492.765839,324.827698 
	C482.247986,324.817291 477.105499,319.725586 477.012390,309.255646 
	C476.950439,302.288239 477.000641,295.319794 477.000641,288.393158 
	C474.761749,287.882324 472.986572,287.478455 471.211914,287.072235 
	C448.594727,281.895081 427.715576,273.303558 409.321167,258.575897 
	C398.473907,249.890930 395.114014,239.501221 397.235687,226.519196 
	C397.932709,222.254456 398.567657,217.947174 399.723358,213.796417 
	C402.289856,204.578644 405.167633,195.447556 408.017822,185.950104 
	C407.109619,186.035172 406.298340,186.002899 405.545715,186.197479 
	C385.258148,191.442978 365.343811,197.788712 346.359131,206.763321 
	C328.353638,215.275024 311.304779,225.201599 298.035736,240.511871 
	C284.691986,255.908340 282.142120,272.205963 290.717255,288.340851 
	C297.391510,300.898987 307.792084,309.974030 319.375854,317.705872 
	C346.424438,335.760101 376.657318,346.237396 407.925964,353.995117 
	C455.067230,365.690887 503.042999,369.798248 552.503967,369.165619 
M401.427582,379.027008 
	C387.721924,375.118103 374.016266,371.209198 360.162079,367.257965 
	C360.162079,402.884705 360.162079,438.595428 360.162079,474.220215 
	C405.917358,474.220215 451.343109,474.220215 496.944275,474.220215 
	C496.944275,447.341217 496.944275,420.742432 496.944275,393.726379 
	C464.905304,391.194702 433.282532,387.023651 401.427582,379.027008 
M490.726746,91.219376 
	C469.823792,119.165100 453.787201,149.884552 438.403198,182.107941 
	C451.812714,185.568527 464.549683,188.855560 477.857239,192.289841 
	C477.857239,186.655853 477.731232,182.168045 477.884338,177.689774 
	C478.172180,169.269470 483.438995,164.196625 491.930908,164.184067 
	C518.921509,164.144119 545.912292,164.141571 572.902954,164.185349 
	C581.568848,164.199402 586.759155,169.519745 586.823303,178.269669 
	C586.863403,183.734619 586.830811,189.200134 586.830811,195.108521 
	C600.738953,192.989380 613.751404,189.759323 626.279785,183.415741 
	C612.877258,159.444534 609.925781,133.395782 607.749878,106.627869 
	C589.012512,118.173355 569.289978,121.847946 548.287842,115.989876 
	C527.146729,110.093025 512.246704,96.455048 502.050385,76.793579 
	C498.118896,81.768562 494.619537,86.196739 490.726746,91.219376 
M530.500061,779.835144 
	C520.167725,779.835144 509.835266,779.864319 499.503082,779.825500 
	C491.688660,779.796143 486.686371,775.653870 485.193481,767.986816 
	C484.589569,764.885071 483.968658,761.765747 483.699402,758.624939 
	C483.357422,754.635742 481.553986,752.198242 477.921631,750.255676 
	C472.663940,747.443848 467.758118,743.939636 462.850159,740.518555 
	C458.432892,737.439392 454.214996,734.074280 449.480286,730.512634 
	C449.480286,757.807739 449.480286,784.342529 449.480286,810.950928 
	C510.725922,810.950928 571.652649,810.950928 632.734741,810.950928 
	C632.734741,784.195129 632.734741,757.658020 632.734741,730.776733 
	C625.041077,736.331665 618.195374,742.659180 610.191528,746.682617 
	C601.332886,751.135742 598.114441,757.626831 597.055054,766.801636 
	C595.951599,776.358521 591.205933,779.829956 581.494934,779.833496 
	C564.830017,779.839478 548.165039,779.835144 530.500061,779.835144 
M586.869812,678.342590 
	C587.931335,672.319458 588.992920,666.296326 590.200073,659.447388 
	C557.288635,652.055725 524.885925,652.010925 492.062958,659.468140 
	C497.855042,691.627686 503.468536,722.795715 509.075500,753.927429 
	C530.640259,753.927429 551.735901,753.927429 573.012878,753.927429 
	C577.612671,728.882935 582.175659,704.038513 586.869812,678.342590 
M560.354309,223.500488 
	C560.354309,212.412491 560.354309,201.324493 560.354309,190.204788 
	C541.128967,190.204788 522.524780,190.204788 503.705688,190.204788 
	C503.705688,226.390686 503.705688,262.393005 503.705688,298.453247 
	C522.619751,298.453247 541.215515,298.453247 560.354309,298.453247 
	C560.354309,273.686279 560.354309,249.093399 560.354309,223.500488 
M463.127472,842.307922 
	C489.091858,864.204651 515.056274,886.101318 541.175842,908.128906 
	C569.185242,884.508789 596.944214,861.099854 625.328857,837.163269 
	C568.857422,837.163269 513.489929,837.163269 457.154419,837.163269 
	C459.415466,839.125793 460.987305,840.490112 463.127472,842.307922 
M334.001892,481.429321 
	C334.001892,442.615967 334.001892,403.802643 334.001892,364.989288 
	C334.001892,355.203247 334.001892,355.203247 324.426544,351.243622 
	C323.926941,352.793671 323.237091,354.296204 322.967041,355.870758 
	C320.329620,371.246918 317.520660,386.600708 315.324280,402.041107 
	C314.676453,406.595123 313.365875,410.267975 310.161133,413.475525 
	C303.809326,419.832855 299.291107,427.366974 297.007385,436.057098 
	C290.202026,461.953308 300.770752,485.989410 324.616394,498.654785 
	C329.292236,501.138275 332.482971,504.427612 334.416107,509.357483 
	C336.716644,515.224121 339.600647,520.859558 342.017365,526.684204 
	C343.041168,529.151733 344.318787,530.453674 347.158813,530.028748 
	C355.032684,528.850647 363.120331,528.544250 370.769318,526.540894 
	C385.137115,522.777893 389.570862,516.250549 389.866882,500.496979 
	C388.234253,500.496979 386.607391,500.497040 384.980530,500.496948 
	C372.986725,500.496490 360.992279,500.569061 348.999298,500.469879 
	C340.998901,500.403717 335.657410,496.767944 334.315765,490.360718 
	C333.779114,487.797974 334.081482,485.059540 334.001892,481.429321 
M624.271973,253.829025 
	C634.619568,249.999069 644.967102,246.169113 655.560913,242.248032 
	C649.153503,229.936325 643.272400,218.635849 637.261414,207.085754 
	C621.949036,214.405884 605.845825,218.698364 589.211243,221.251190 
	C588.141663,221.415359 586.677002,223.614075 586.612793,224.925888 
	C586.328491,230.731064 586.488953,236.558029 586.488770,242.377106 
	C586.488525,248.945831 586.488708,255.514557 586.488708,263.251129 
	C599.459290,260.009827 611.475098,257.007111 624.271973,253.829025 
M449.569824,212.012985 
	C442.661774,209.970535 435.753754,207.928085 428.185547,205.690445 
	C426.396698,213.878433 424.721680,221.628799 423.004700,229.369843 
	C422.121399,233.352341 423.476685,236.237930 426.625885,238.849854 
	C441.287354,251.009811 458.427002,257.502167 477.158508,261.697632 
	C477.158508,246.942108 477.158508,232.602539 477.158508,218.239807 
	C468.146362,216.204453 459.261047,214.197754 449.569824,212.012985 
M623.635132,428.969299 
	C630.725525,431.176361 637.678650,434.376678 644.935486,435.379852 
	C659.211182,437.353241 673.236328,435.733887 685.627869,427.419769 
	C693.265869,422.294952 693.178528,417.752502 685.774536,412.378662 
	C685.103210,411.891418 684.422546,411.393494 683.683716,411.026428 
	C663.755676,401.127075 643.633728,400.762634 623.836914,410.913177 
	C612.978088,416.480896 613.047424,421.674011 623.635132,428.969299 
z"/>
<path fill="#000000" opacity="1.000000" stroke="none" 
	d="
M155.468658,1081.000000 
	C154.983749,1039.191895 154.644104,997.379578 155.177902,955.578430 
	C155.311935,945.083191 157.165192,934.311401 160.080017,924.200500 
	C174.935043,872.671814 222.319626,837.119751 275.992188,836.879761 
	C321.470154,836.676453 366.949860,836.803772 412.428345,836.939453 
	C414.660706,836.946106 417.348938,837.887024 419.050812,839.315308 
	C454.499786,869.064575 489.866821,898.911987 525.102051,928.913757 
	C526.766907,930.331421 527.872925,933.351807 527.880371,935.630188 
	C528.037720,983.773987 527.999512,1031.918457 527.999756,1080.531372 
	C454.312439,1081.000000 380.624878,1081.000000 306.468933,1080.531372 
	C306.000549,1045.406738 306.008087,1010.750610 305.993774,976.094543 
	C305.991150,969.676575 303.121552,965.097595 297.918518,963.012939 
	C288.766815,959.346313 280.024384,965.885559 280.013245,976.531982 
	C279.976807,1011.354675 279.999817,1046.177368 280.000000,1081.000000 
	C238.645767,1081.000000 197.291550,1081.000000 155.468658,1081.000000 
z"/>
<path fill="#000000" opacity="1.000000" stroke="none" 
	d="
M554.468628,1081.000000 
	C554.000183,1032.523926 553.961975,984.047668 554.120972,935.572083 
	C554.128418,933.296997 555.261108,930.285583 556.931274,928.864868 
	C592.179932,898.878296 627.566956,869.054077 663.003174,839.288940 
	C664.508240,838.024719 666.746765,836.942261 668.645508,836.939270 
	C715.952576,836.863770 763.270569,836.333618 810.564331,837.161133 
	C864.005920,838.096130 912.417419,878.604736 923.809998,930.974548 
	C925.844727,940.327881 926.937805,950.062622 927.019287,959.633606 
	C927.361206,999.777466 927.153259,1039.926025 927.073364,1080.536377 
	C885.645752,1081.000000 844.291565,1081.000000 802.468872,1080.531372 
	C802.000488,1045.742065 802.011108,1011.421387 801.993469,977.100708 
	C801.988831,968.053406 796.761658,962.035034 788.991333,962.006348 
	C781.140625,961.977356 776.002747,967.908813 776.001465,977.038269 
	C775.996643,1011.692200 775.999817,1046.346069 776.000000,1081.000000 
	C702.312439,1081.000000 628.624878,1081.000000 554.468628,1081.000000 
z"/>
<path fill="#010101" opacity="1.000000" stroke="none" 
	d="
M573.535339,0.999998 
	C581.220825,4.325355 589.198486,6.605346 595.515930,11.178595 
	C612.238525,23.284143 617.663208,45.727440 609.610352,64.827202 
	C601.709473,83.566422 581.530212,95.387077 561.832458,92.814560 
	C541.201538,90.120171 524.824890,74.243202 521.852112,54.054142 
	C518.121643,28.718863 533.996033,6.689287 559.806885,1.325287 
	C564.356873,1.000000 568.713806,1.000000 573.535339,0.999998 
z"/>
<path fill="#FFCFB0" opacity="1.000000" stroke="none" 
	d="
M280.468658,1081.000000 
	C279.999817,1046.177368 279.976807,1011.354675 280.013245,976.531982 
	C280.024384,965.885559 288.766815,959.346313 297.918518,963.012939 
	C303.121552,965.097595 305.991150,969.676575 305.993774,976.094543 
	C306.008087,1010.750610 306.000549,1045.406738 306.000275,1080.531372 
	C297.645782,1081.000000 289.291534,1081.000000 280.468658,1081.000000 
z"/>
<path fill="#FFCFB0" opacity="1.000000" stroke="none" 
	d="
M776.468628,1081.000000 
	C775.999817,1046.346069 775.996643,1011.692200 776.001465,977.038269 
	C776.002747,967.908813 781.140625,961.977356 788.991333,962.006348 
	C796.761658,962.035034 801.988831,968.053406 801.993469,977.100708 
	C802.011108,1011.421387 802.000488,1045.742065 802.000244,1080.531372 
	C793.645752,1081.000000 785.291504,1081.000000 776.468628,1081.000000 
z"/>
<path fill="#010101" opacity="1.000000" stroke="none" 
	d="
M484.000092,500.834869 
	C492.165161,500.834839 499.830353,500.868896 507.495178,500.826843 
	C518.987976,500.763763 523.978943,495.824768 523.989868,484.433502 
	C524.016663,456.439514 523.998718,428.445465 523.998718,400.451447 
	C523.998718,398.813965 523.998718,397.176453 523.998718,395.678955 
	C550.423279,394.887268 576.550415,394.104492 603.359375,393.301270 
	C602.174194,394.698853 601.415955,395.694611 600.555603,396.592407 
	C586.442505,411.319305 587.043640,430.869019 602.092468,444.727448 
	C612.133423,453.974182 624.383240,458.420197 637.572632,460.522614 
	C657.261841,463.661194 676.475098,462.120392 694.427734,452.851532 
	C707.993286,445.847687 717.984924,435.796814 717.937561,419.230530 
	C717.900208,406.152740 710.609619,396.893677 700.216064,390.276825 
	C693.577759,386.050690 686.002441,383.296448 678.916138,379.915192 
	C705.872742,373.323212 732.649658,364.391876 759.298279,350.749207 
	C761.636292,363.469330 763.822510,375.309082 765.973755,387.155243 
	C766.180969,388.296234 766.266235,389.478516 766.245850,390.638763 
	C766.045593,402.034271 770.188782,411.074219 777.414490,420.340881 
	C796.872864,445.295471 787.720276,483.206879 759.704407,497.878815 
	C753.742493,501.001068 749.629150,504.987610 747.231262,511.268402 
	C744.808350,517.614868 741.730469,523.711304 738.441895,531.023804 
	C728.350525,529.753845 718.040222,529.114624 708.032654,527.025452 
	C696.261658,524.568115 687.797974,518.450439 687.267639,504.646362 
	C686.986450,497.327637 680.334534,492.494995 673.539368,493.075714 
	C666.629639,493.666199 661.567993,499.238617 661.569397,506.633850 
	C661.570007,509.772369 661.911377,512.970032 662.570557,516.039307 
	C666.096008,532.453308 676.582764,543.225403 691.797668,548.768311 
	C702.456970,552.651550 713.853333,554.511719 725.502625,557.420776 
	C694.479431,616.176331 660.754578,674.050598 606.284668,716.820312 
	C609.354370,699.691895 612.287903,682.537537 615.533325,665.442505 
	C618.574890,649.421204 614.135559,640.929565 598.692505,635.386780 
	C583.167664,629.814636 566.906250,628.416809 550.561707,627.956116 
	C530.712585,627.396606 510.870605,627.812195 491.593384,633.090210 
	C485.010468,634.892639 478.506805,637.939331 472.784729,641.671326 
	C466.658508,645.666931 464.532623,652.298340 465.849213,659.687683 
	C469.057831,677.695801 472.304718,695.697205 475.530884,713.702271 
	C475.705231,714.675293 475.831055,715.656982 475.129425,717.475281 
	C468.615784,711.796631 461.873016,706.358154 455.627014,700.399048 
	C423.630280,669.871887 399.420807,633.486694 377.438538,595.493469 
	C370.037994,582.702698 363.223206,569.572998 355.782196,555.941528 
	C360.204254,555.243103 364.043365,554.714905 367.852234,554.020691 
	C379.799988,551.842957 390.969727,547.797729 400.318268,539.754517 
	C412.065643,529.647400 416.415131,516.590515 414.982361,500.834869 
	C437.982513,500.834869 460.741302,500.834869 484.000092,500.834869 
M605.308533,610.092163 
	C612.601501,607.677429 616.244385,602.363708 615.268799,595.563599 
	C614.295715,588.781128 609.104553,584.511108 601.548096,584.501221 
	C574.072510,584.465210 546.596985,584.486694 519.121399,584.486877 
	C506.132935,584.486938 493.143402,584.387024 480.156403,584.524658 
	C471.852997,584.612671 466.279968,590.745117 466.933228,598.659851 
	C467.533173,605.928833 473.280670,610.498352 482.116608,610.505554 
	C521.414978,610.537354 560.713379,610.522949 600.011780,610.505432 
	C601.502441,610.504761 602.992981,610.299438 605.308533,610.092163 
M502.148956,538.431091 
	C497.425629,541.679810 495.391541,546.217468 496.406708,551.796265 
	C497.427094,557.403809 501.083374,560.840515 506.559753,562.251770 
	C509.283569,562.953735 512.041077,563.687195 514.826904,563.957642 
	C525.673950,565.010437 534.026672,560.215454 541.108459,551.732727 
	C542.328003,553.160217 543.208557,554.366455 544.261719,555.396179 
	C553.237549,564.172485 565.538452,566.495056 577.007080,561.624329 
	C583.613464,558.818604 586.910828,551.859375 584.780334,545.218384 
	C582.842529,539.177795 576.344910,535.622314 569.601868,536.912659 
	C562.144165,538.339783 560.436218,537.928528 558.593628,530.596741 
	C556.341736,521.636475 555.057007,512.392700 553.956055,503.199432 
	C553.345520,498.101837 552.161255,493.781738 547.609192,490.931427 
	C538.976257,485.525940 528.431519,491.229218 527.938293,501.710052 
	C527.428223,512.549072 526.442688,523.267883 521.968384,533.344666 
	C520.281738,537.143372 518.160706,538.857483 513.411865,537.427979 
	C510.231995,536.470642 506.369659,537.780396 502.148956,538.431091 
z"/>
<path fill="#010100" opacity="1.000000" stroke="none" 
	d="
M552.003784,369.166626 
	C503.042999,369.798248 455.067230,365.690887 407.925964,353.995117 
	C376.657318,346.237396 346.424438,335.760101 319.375854,317.705872 
	C307.792084,309.974030 297.391510,300.898987 290.717255,288.340851 
	C282.142120,272.205963 284.691986,255.908340 298.035736,240.511871 
	C311.304779,225.201599 328.353638,215.275024 346.359131,206.763321 
	C365.343811,197.788712 385.258148,191.442978 405.545715,186.197479 
	C406.298340,186.002899 407.109619,186.035172 408.017822,185.950104 
	C405.167633,195.447556 402.289856,204.578644 399.723358,213.796417 
	C398.567657,217.947174 397.932709,222.254456 397.235687,226.519196 
	C395.114014,239.501221 398.473907,249.890930 409.321167,258.575897 
	C427.715576,273.303558 448.594727,281.895081 471.211914,287.072235 
	C472.986572,287.478455 474.761749,287.882324 477.000641,288.393158 
	C477.000641,295.319794 476.950439,302.288239 477.012390,309.255646 
	C477.105499,319.725586 482.247986,324.817291 492.765839,324.827698 
	C518.757080,324.853424 544.748291,324.854919 570.739563,324.826782 
	C581.058533,324.815613 586.157104,319.970062 586.450073,309.697632 
	C586.643982,302.898499 586.486816,296.089325 586.486816,289.161987 
	C596.365906,287.076813 605.983521,285.286713 615.479797,282.994019 
	C637.219177,277.745483 658.227234,270.535004 677.308350,258.544067 
	C686.160950,252.980942 687.618713,247.149094 682.739929,237.907745 
	C672.896606,219.262558 663.067078,200.610107 652.469788,180.515625 
	C662.533875,182.895279 671.144836,184.771179 679.670227,186.977371 
	C704.688416,193.451492 728.955200,201.936844 751.492798,214.800964 
	C765.309937,222.687607 778.194336,231.790497 787.586121,244.968933 
	C799.585388,261.806213 799.300110,279.073547 786.829468,295.656952 
	C777.956604,307.455902 766.250366,315.923859 753.715576,323.336334 
	C725.203979,340.196655 694.023010,349.866394 661.933228,356.917877 
	C625.899597,364.835968 589.353394,368.414368 552.003784,369.166626 
z"/>
<path fill="#000000" opacity="1.000000" stroke="none" 
	d="
M401.834534,379.103333 
	C433.282532,387.023651 464.905304,391.194702 496.944275,393.726379 
	C496.944275,420.742432 496.944275,447.341217 496.944275,474.220215 
	C451.343109,474.220215 405.917358,474.220215 360.162079,474.220215 
	C360.162079,438.595428 360.162079,402.884705 360.162079,367.257965 
	C374.016266,371.209198 387.721924,375.118103 401.834534,379.103333 
z"/>
<path fill="#010101" opacity="1.000000" stroke="none" 
	d="
M490.923462,90.922150 
	C494.619537,86.196739 498.118896,81.768562 502.050385,76.793579 
	C512.246704,96.455048 527.146729,110.093025 548.287842,115.989876 
	C569.289978,121.847946 589.012512,118.173355 607.749878,106.627869 
	C609.925781,133.395782 612.877258,159.444534 626.279785,183.415741 
	C613.751404,189.759323 600.738953,192.989380 586.830811,195.108521 
	C586.830811,189.200134 586.863403,183.734619 586.823303,178.269669 
	C586.759155,169.519745 581.568848,164.199402 572.902954,164.185349 
	C545.912292,164.141571 518.921509,164.144119 491.930908,164.184067 
	C483.438995,164.196625 478.172180,169.269470 477.884338,177.689774 
	C477.731232,182.168045 477.857239,186.655853 477.857239,192.289841 
	C464.549683,188.855560 451.812714,185.568527 438.403198,182.107941 
	C453.787201,149.884552 469.823792,119.165100 490.923462,90.922150 
z"/>
<path fill="#010101" opacity="1.000000" stroke="none" 
	d="
M531.000122,779.835144 
	C548.165039,779.835144 564.830017,779.839478 581.494934,779.833496 
	C591.205933,779.829956 595.951599,776.358521 597.055054,766.801636 
	C598.114441,757.626831 601.332886,751.135742 610.191528,746.682617 
	C618.195374,742.659180 625.041077,736.331665 632.734741,730.776733 
	C632.734741,757.658020 632.734741,784.195129 632.734741,810.950928 
	C571.652649,810.950928 510.725922,810.950928 449.480286,810.950928 
	C449.480286,784.342529 449.480286,757.807739 449.480286,730.512634 
	C454.214996,734.074280 458.432892,737.439392 462.850159,740.518555 
	C467.758118,743.939636 472.663940,747.443848 477.921631,750.255676 
	C481.553986,752.198242 483.357422,754.635742 483.699402,758.624939 
	C483.968658,761.765747 484.589569,764.885071 485.193481,767.986816 
	C486.686371,775.653870 491.688660,779.796143 499.503082,779.825500 
	C509.835266,779.864319 520.167725,779.835144 531.000122,779.835144 
z"/>
<path fill="#010101" opacity="1.000000" stroke="none" 
	d="
M586.804260,678.768311 
	C582.175659,704.038513 577.612671,728.882935 573.012878,753.927429 
	C551.735901,753.927429 530.640259,753.927429 509.075500,753.927429 
	C503.468536,722.795715 497.855042,691.627686 492.062958,659.468140 
	C524.885925,652.010925 557.288635,652.055725 590.200073,659.447388 
	C588.992920,666.296326 587.931335,672.319458 586.804260,678.768311 
z"/>
<path fill="#030302" opacity="1.000000" stroke="none" 
	d="
M560.354309,224.000504 
	C560.354309,249.093399 560.354309,273.686279 560.354309,298.453247 
	C541.215515,298.453247 522.619751,298.453247 503.705688,298.453247 
	C503.705688,262.393005 503.705688,226.390686 503.705688,190.204788 
	C522.524780,190.204788 541.128967,190.204788 560.354309,190.204788 
	C560.354309,201.324493 560.354309,212.412491 560.354309,224.000504 
z"/>
<path fill="#010101" opacity="1.000000" stroke="none" 
	d="
M462.843323,842.081177 
	C460.987305,840.490112 459.415466,839.125793 457.154419,837.163269 
	C513.489929,837.163269 568.857422,837.163269 625.328857,837.163269 
	C596.944214,861.099854 569.185242,884.508789 541.175842,908.128906 
	C515.056274,886.101318 489.091858,864.204651 462.843323,842.081177 
z"/>
<path fill="#010101" opacity="1.000000" stroke="none" 
	d="
M334.001892,481.915222 
	C334.081482,485.059540 333.779114,487.797974 334.315765,490.360718 
	C335.657410,496.767944 340.998901,500.403717 348.999298,500.469879 
	C360.992279,500.569061 372.986725,500.496490 384.980530,500.496948 
	C386.607391,500.497040 388.234253,500.496979 389.866882,500.496979 
	C389.570862,516.250549 385.137115,522.777893 370.769318,526.540894 
	C363.120331,528.544250 355.032684,528.850647 347.158813,530.028748 
	C344.318787,530.453674 343.041168,529.151733 342.017365,526.684204 
	C339.600647,520.859558 336.716644,515.224121 334.416107,509.357483 
	C332.482971,504.427612 329.292236,501.138275 324.616394,498.654785 
	C300.770752,485.989410 290.202026,461.953308 297.007385,436.057098 
	C299.291107,427.366974 303.809326,419.832855 310.161133,413.475525 
	C313.365875,410.267975 314.676453,406.595123 315.324280,402.041107 
	C317.520660,386.600708 320.329620,371.246918 322.967041,355.870758 
	C323.237091,354.296204 323.926941,352.793671 324.426544,351.243622 
	C334.001892,355.203247 334.001892,355.203247 334.001892,364.989288 
	C334.001892,403.802643 334.001892,442.615967 334.001892,481.915222 
z"/>
<path fill="#020201" opacity="1.000000" stroke="none" 
	d="
M623.881409,253.916718 
	C611.475098,257.007111 599.459290,260.009827 586.488708,263.251129 
	C586.488708,255.514557 586.488525,248.945831 586.488770,242.377106 
	C586.488953,236.558029 586.328491,230.731064 586.612793,224.925888 
	C586.677002,223.614075 588.141663,221.415359 589.211243,221.251190 
	C605.845825,218.698364 621.949036,214.405884 637.261414,207.085754 
	C643.272400,218.635849 649.153503,229.936325 655.560913,242.248032 
	C644.967102,246.169113 634.619568,249.999069 623.881409,253.916718 
z"/>
<path fill="#020101" opacity="1.000000" stroke="none" 
	d="
M449.972778,212.102020 
	C459.261047,214.197754 468.146362,216.204453 477.158508,218.239807 
	C477.158508,232.602539 477.158508,246.942108 477.158508,261.697632 
	C458.427002,257.502167 441.287354,251.009811 426.625885,238.849854 
	C423.476685,236.237930 422.121399,233.352341 423.004700,229.369843 
	C424.721680,221.628799 426.396698,213.878433 428.185547,205.690445 
	C435.753754,207.928085 442.661774,209.970535 449.972778,212.102020 
z"/>
<path fill="#020201" opacity="1.000000" stroke="none" 
	d="
M623.316284,428.783661 
	C613.047424,421.674011 612.978088,416.480896 623.836914,410.913177 
	C643.633728,400.762634 663.755676,401.127075 683.683716,411.026428 
	C684.422546,411.393494 685.103210,411.891418 685.774536,412.378662 
	C693.178528,417.752502 693.265869,422.294952 685.627869,427.419769 
	C673.236328,435.733887 659.211182,437.353241 644.935486,435.379852 
	C637.678650,434.376678 630.725525,431.176361 623.316284,428.783661 
z"/>
<path fill="#FACBAD" opacity="1.000000" stroke="none" 
	d="
M604.896057,610.140869 
	C602.992981,610.299438 601.502441,610.504761 600.011780,610.505432 
	C560.713379,610.522949 521.414978,610.537354 482.116608,610.505554 
	C473.280670,610.498352 467.533173,605.928833 466.933228,598.659851 
	C466.279968,590.745117 471.852997,584.612671 480.156403,584.524658 
	C493.143402,584.387024 506.132935,584.486938 519.121399,584.486877 
	C546.596985,584.486694 574.072510,584.465210 601.548096,584.501221 
	C609.104553,584.511108 614.295715,588.781128 615.268799,595.563599 
	C616.244385,602.363708 612.601501,607.677429 604.896057,610.140869 
z"/>
<path fill="#FDCDAF" opacity="1.000000" stroke="none" 
	d="
M502.480835,538.253418 
	C506.369659,537.780396 510.231995,536.470642 513.411865,537.427979 
	C518.160706,538.857483 520.281738,537.143372 521.968384,533.344666 
	C526.442688,523.267883 527.428223,512.549072 527.938293,501.710052 
	C528.431519,491.229218 538.976257,485.525940 547.609192,490.931427 
	C552.161255,493.781738 553.345520,498.101837 553.956055,503.199432 
	C555.057007,512.392700 556.341736,521.636475 558.593628,530.596741 
	C560.436218,537.928528 562.144165,538.339783 569.601868,536.912659 
	C576.344910,535.622314 582.842529,539.177795 584.780334,545.218384 
	C586.910828,551.859375 583.613464,558.818604 577.007080,561.624329 
	C565.538452,566.495056 553.237549,564.172485 544.261719,555.396179 
	C543.208557,554.366455 542.328003,553.160217 541.108459,551.732727 
	C534.026672,560.215454 525.673950,565.010437 514.826904,563.957642 
	C512.041077,563.687195 509.283569,562.953735 506.559753,562.251770 
	C501.083374,560.840515 497.427094,557.403809 496.406708,551.796265 
	C495.391541,546.217468 497.425629,541.679810 502.480835,538.253418 
z"/>
</svg>