<svg version="1.1" id="Layer_1" xmlns="http://www.w3.org/2000/svg" xmlns:xlink="http://www.w3.org/1999/xlink" x="0px" y="0px"
	 width="100%" viewBox="0 0 1024 1024" enable-background="new 0 0 1024 1024" xml:space="preserve">
<path fill="#000000" opacity="1.000000" stroke="none" 
	d="
M1025.000000,516.531372 
	C1021.350525,523.226501 1016.051025,525.599243 1008.747742,525.414490 
	C993.091370,525.018494 977.416443,525.419678 961.752686,525.217163 
	C957.453613,525.161560 955.907898,526.391052 955.981689,530.872986 
	C956.228699,545.868652 956.090271,560.870911 956.078979,575.870605 
	C956.069641,588.242798 951.110291,593.251282 938.856934,593.256653 
	C915.023987,593.267151 891.191040,593.253662 867.358093,593.261963 
	C860.502014,593.264404 860.540344,593.284485 860.275818,599.907654 
	C860.203186,601.724915 859.838379,603.531860 859.585083,605.340393 
	C859.334045,607.132263 859.054565,608.920105 858.815979,610.519165 
	C859.864807,612.067139 861.349670,611.717896 862.595154,611.985718 
	C880.591125,615.855042 892.967224,630.560120 893.223694,648.985046 
	C893.464966,666.314819 893.303101,683.650269 893.304504,700.983215 
	C893.309448,764.815552 893.343933,828.647888 893.287598,892.480164 
	C893.271362,910.915405 884.431946,924.052246 868.245117,930.153870 
	C864.483459,931.571838 860.590149,932.353882 856.527832,932.351257 
	C816.861816,932.325378 777.195496,932.433228 737.529968,932.291748 
	C717.142456,932.218994 700.706482,915.552063 700.698120,895.219360 
	C700.664246,813.054016 700.670959,730.888672 700.696533,648.723328 
	C700.701843,631.694885 711.975647,617.136841 728.471191,612.665283 
	C730.534668,612.105896 732.631653,611.669739 735.265320,611.045715 
	C734.038452,606.038269 733.449402,601.131897 733.613403,596.166138 
	C733.684814,594.004089 732.336060,593.285156 730.393616,593.285522 
	C728.727173,593.285828 727.060669,593.251831 725.394226,593.251709 
	C655.395325,593.245911 585.396484,593.244934 515.397583,593.235413 
	C503.440033,593.233826 498.707489,588.527466 498.707550,576.668030 
	C498.708435,447.003448 498.710968,317.338867 498.716919,187.674301 
	C498.717468,175.183945 503.127991,170.740738 515.485107,170.739197 
	C531.484863,170.737213 547.485901,170.626694 563.483337,170.819534 
	C567.227478,170.864655 568.495911,169.610519 568.482788,165.998764 
	C568.426575,150.500824 568.555603,135.002319 568.548767,119.504059 
	C568.543518,107.513901 573.131409,102.747620 585.016235,102.746452 
	C703.847656,102.734726 822.679077,102.762024 941.510437,102.674187 
	C947.559204,102.669716 952.341858,104.466682 956.776917,108.636673 
	C977.048035,127.696373 997.516296,146.546539 1017.910828,165.475006 
	C1020.476990,167.856628 1023.049316,170.237137 1024.786987,173.743408 
	C1025.000000,209.354233 1025.000000,244.708450 1024.753662,280.297729 
	C1021.371216,277.054230 1018.488525,276.567993 1014.185608,279.514374 
	C1009.273132,282.878235 1006.865723,287.471008 1004.656738,292.515533 
	C1004.038940,293.926605 1004.515747,295.944733 1002.223999,296.787048 
	C999.882385,291.777618 999.856506,286.472351 999.841492,281.208649 
	C999.754211,250.552795 999.673828,219.896606 999.749084,189.240936 
	C999.758057,185.591599 998.661316,183.004807 995.982422,180.545456 
	C978.927063,164.887695 961.913696,149.181747 945.088135,133.278320 
	C941.767700,130.139771 938.377930,129.113510 933.940979,129.116837 
	C823.978394,129.199585 714.015747,129.164978 604.053101,129.152985 
	C602.220459,129.152786 600.380310,129.285126 598.556885,129.160980 
	C595.261841,128.936615 594.197998,130.474182 594.244446,133.631226 
	C594.369263,142.126434 594.280640,150.624771 594.275879,159.121872 
	C594.269348,170.770370 594.268982,170.766541 605.866516,170.764984 
	C716.995422,170.750122 828.124390,170.742142 939.253296,170.700928 
	C943.314087,170.699432 947.275940,170.825104 950.672485,173.424744 
	C955.454895,177.085175 956.065063,182.346191 956.065979,187.792480 
	C956.070801,216.282776 956.040344,244.773071 956.041870,273.263367 
	C956.045654,346.738190 956.090210,420.213043 955.994751,493.687744 
	C955.989014,498.127167 957.104370,499.886719 961.873962,499.733521 
	C972.359558,499.396820 982.872314,499.374847 993.356079,499.738983 
	C998.563232,499.919830 999.811768,498.016418 999.778931,493.100372 
	C999.634033,471.443420 999.816467,449.783691 999.981873,428.125763 
	C1000.012939,424.058899 1000.150940,419.914093 1002.698975,415.652588 
	C1005.101990,420.027008 1007.139343,423.950104 1009.375916,427.756134 
	C1012.623413,433.282318 1019.901123,436.120575 1025.000000,434.000000 
	C1025.000000,461.354218 1025.000000,488.708466 1025.000000,516.531372 
M764.500061,196.380890 
	C686.688171,196.378464 608.876160,196.409119 531.064453,196.292130 
	C526.358765,196.285049 524.289429,197.125076 524.301147,202.530670 
	C524.562866,322.991882 524.655640,443.453461 524.694946,563.914978 
	C524.695923,566.945923 525.833557,567.605103 528.507385,567.574097 
	C545.988403,567.371277 563.470337,567.156616 580.952209,567.139893 
	C630.438843,567.092407 679.925720,567.118469 729.412292,567.199341 
	C732.244141,567.203979 733.443726,566.664124 733.787781,563.475159 
	C735.498474,547.619080 743.860657,536.643066 758.874207,531.052307 
	C761.697266,530.001038 763.171570,528.593689 763.783081,525.563782 
	C768.715088,501.122681 773.805054,476.713501 778.843872,452.293945 
	C780.524475,444.149261 782.114136,435.984741 783.897888,427.862762 
	C785.380127,421.113831 790.162659,416.892303 796.212952,416.676392 
	C802.855347,416.439362 807.538818,420.059998 809.563538,427.074646 
	C810.162720,429.150513 810.676270,431.256714 811.112854,433.372955 
	C817.427124,463.982056 823.762695,494.586945 829.954590,525.220825 
	C830.547363,528.153625 831.630005,529.805725 834.562805,530.899719 
	C848.675232,536.164062 857.390198,546.199829 859.590149,561.224182 
	C860.314331,566.170410 862.542664,567.222778 867.138367,567.166992 
	C885.963745,566.938599 904.796509,566.914490 923.620117,567.217529 
	C928.329163,567.293274 929.866943,566.315857 929.861145,561.315247 
	C929.721863,442.013702 929.753967,322.711975 929.751038,203.410263 
	C929.750854,196.389420 929.736145,196.384995 922.458496,196.384689 
	C870.139038,196.382553 817.819580,196.382370 764.500061,196.380890 
M867.597839,690.500061 
	C867.516052,677.173035 867.763550,663.833191 867.242737,650.523315 
	C866.862427,640.805237 862.611694,637.249268 852.896973,637.239502 
	C815.573730,637.201904 778.250488,637.198730 740.927246,637.230469 
	C730.797058,637.239075 726.275146,641.764771 726.273804,651.877075 
	C726.263184,731.522156 726.267883,811.167236 726.307495,890.812317 
	C726.313416,902.690002 730.421143,906.735901 742.282715,906.741577 
	C778.606262,906.759033 814.929749,906.747498 851.253296,906.723083 
	C863.179688,906.715088 867.574829,902.309692 867.576721,890.446350 
	C867.587280,824.130920 867.591370,757.815552 867.597839,690.500061 
M822.138855,555.044006 
	C805.478271,555.039673 788.817017,554.944031 772.157410,555.071594 
	C764.379456,555.131165 759.760193,559.493652 759.588806,566.971497 
	C759.348694,577.452820 759.293579,587.945129 759.477234,598.427246 
	C759.620544,606.604004 764.146790,610.966492 772.418518,611.021729 
	C788.911682,611.131714 805.406860,611.104980 821.900024,610.978638 
	C829.010010,610.924133 832.820862,607.735168 833.872559,600.802612 
	C835.607666,589.364868 834.495789,577.871216 833.906921,566.411499 
	C833.546021,559.387329 830.253052,556.162720 822.138855,555.044006 
M799.035889,505.276581 
	C798.406982,502.108612 797.778076,498.940613 796.891785,494.476318 
	C794.954285,503.711334 793.357117,511.601166 791.634705,519.463562 
	C789.496643,529.223206 789.588928,529.290955 799.871155,528.765015 
	C802.941895,528.608032 803.995300,527.728577 803.207397,524.512634 
	C801.713074,518.413208 800.571655,512.227295 799.035889,505.276581 
z"/>
<path fill="#000000" opacity="1.000000" stroke="none" 
	d="
M1.000000,487.468658 
	C3.240624,484.427429 2.882794,481.041412 3.681868,478.045135 
	C14.179999,438.680481 46.295609,410.588623 86.659698,405.939026 
	C92.586143,405.256378 98.644920,405.669617 104.642487,405.668030 
	C118.811935,405.664337 130.943405,400.749023 139.617813,389.476624 
	C153.433395,371.523224 166.638519,353.101013 180.222992,334.967865 
	C182.601212,331.793304 180.769424,329.739685 179.082413,327.473389 
	C166.048065,309.963440 152.998322,292.464966 139.949112,274.966064 
	C123.812531,253.327011 107.400833,231.885971 91.639862,209.976776 
	C82.899033,197.826218 79.011108,183.878677 78.431862,168.723877 
	C77.482437,143.883987 85.967964,123.154930 103.420006,105.791206 
	C106.749695,102.478371 110.513733,99.739204 114.362549,97.098236 
	C122.637482,91.420197 129.913406,92.688744 135.962372,100.850693 
	C146.279968,114.772316 156.591019,128.698807 166.903915,142.623901 
	C191.696060,176.099762 216.485382,209.577728 241.289017,243.045074 
	C242.163803,244.225418 243.178543,245.302063 243.962219,246.230560 
	C246.026779,246.364334 246.567108,244.946320 247.313217,243.935654 
	C272.249451,210.157135 297.154633,176.355682 322.081726,142.570404 
	C332.368988,128.627472 342.643066,114.674278 353.024872,100.801865 
	C359.140869,92.629555 365.712372,91.612167 374.185822,97.242943 
	C413.538391,123.393517 422.386353,177.063293 393.846039,214.947479 
	C365.780243,252.201797 338.045502,289.705505 309.988281,326.966339 
	C307.108795,330.790375 307.385071,333.277344 310.142273,336.936127 
	C321.973724,352.636322 333.642059,368.465027 345.082458,384.452515 
	C354.064087,397.003967 365.703796,405.025696 381.328339,405.227692 
	C390.146912,405.341736 398.888763,405.304657 407.637573,406.617462 
	C448.367493,412.729309 482.402100,448.764404 487.442230,489.813568 
	C493.779999,541.431763 459.642609,592.617126 399.717957,598.890137 
	C363.744049,602.655884 335.235382,587.168701 313.190735,559.402771 
	C299.566315,542.242371 292.916870,522.326721 293.790955,500.390717 
	C294.332153,486.808838 290.173126,475.392303 281.968781,464.802551 
	C270.847992,450.448486 260.259033,435.682861 249.401291,421.124084 
	C248.026276,419.280365 246.895554,417.182129 244.589844,415.745819 
	C241.599472,417.373871 240.192993,420.512482 238.266708,423.076660 
	C227.360764,437.593964 216.776779,452.357147 205.685349,466.729614 
	C198.444214,476.112762 194.697220,486.294525 195.216827,498.197601 
	C196.496155,527.504089 185.734940,552.206360 164.539688,571.874817 
	C137.109329,597.329163 105.031029,606.926880 68.585121,594.946655 
	C32.768559,583.173279 10.483379,558.585266 2.568222,521.418396 
	C2.293196,520.127014 1.779924,518.886230 1.188848,517.310913 
	C1.000000,507.312439 1.000000,497.624878 1.000000,487.468658 
M318.354492,191.821014 
	C271.649261,255.143265 224.944031,318.465485 178.395218,381.575653 
	C179.944427,383.734589 181.523621,383.516785 182.986832,383.667053 
	C196.098938,385.013733 208.483353,388.664825 219.436554,396.135864 
	C222.891510,398.492432 224.502594,398.043671 226.939377,394.772491 
	C275.690460,329.327393 324.648987,264.036774 373.358856,198.561096 
	C387.435760,179.638992 388.362335,159.308456 377.696106,138.429398 
	C375.222931,133.588196 372.215057,129.030319 367.320007,125.416069 
	C350.964996,147.601700 334.876434,169.425903 318.354492,191.821014 
M397.959991,431.450378 
	C393.466248,431.400604 388.968781,431.208801 384.479370,431.325775 
	C365.569092,431.818604 349.240997,425.505219 335.298370,412.845734 
	C333.662811,411.360657 331.998749,409.925018 329.752319,409.709717 
	C314.316711,408.230499 299.164764,408.401001 285.125214,416.509033 
	C281.317383,418.708130 281.288574,420.586853 283.782349,423.836121 
	C291.183624,433.479401 298.437897,443.238708 305.595947,453.064636 
	C313.379822,463.749725 318.640045,475.483246 319.402191,488.883179 
	C319.864960,497.019196 319.393463,505.280151 320.621460,513.288696 
	C326.481018,551.502197 360.541779,577.197021 399.245544,573.044678 
	C442.359070,568.419189 472.179657,524.472595 459.498322,483.024841 
	C450.414276,453.334381 429.787262,436.092621 397.959991,431.450378 
M159.451233,537.928772 
	C166.220886,526.658936 169.952988,514.251587 169.333496,501.314575 
	C168.475693,483.400879 172.506516,467.393799 183.258362,453.073578 
	C188.459732,446.145935 193.673431,439.227478 198.850494,432.281738 
	C201.806381,428.316040 204.699890,424.303833 207.578796,420.370880 
	C205.545197,417.554138 202.926880,416.422180 200.427856,415.151794 
	C187.558151,408.609558 173.872498,408.370148 159.945679,409.908142 
	C157.324600,410.197632 155.399902,411.437592 153.450226,413.180939 
	C139.448166,425.701233 122.969505,432.932617 104.213005,431.519104 
	C59.072567,428.117249 22.492270,465.595520 27.081148,509.601898 
	C29.250916,530.409546 38.479240,547.100708 55.016998,559.470825 
	C89.446846,585.223938 135.623672,575.782410 159.451233,537.928772 
M215.047348,251.426422 
	C183.863251,209.357956 152.679153,167.289474 121.586334,125.344124 
	C118.309250,127.015724 117.148506,129.348312 115.623016,131.276886 
	C101.413780,149.240494 100.303268,178.221786 113.098366,195.392776 
	C137.888458,228.661026 162.673706,261.932922 187.490097,295.181549 
	C191.035461,299.931610 194.743332,304.560364 198.804352,309.797699 
	C208.449371,296.653595 217.688934,284.062347 226.928070,271.470795 
	C228.338821,269.548157 227.225723,268.004089 226.130844,266.503845 
	C222.594482,261.658020 219.028564,256.833771 215.047348,251.426422 
M297.402588,384.647797 
	C301.779816,383.938232 306.157074,383.228668 311.343201,382.387970 
	C303.901306,372.842621 297.838562,363.097046 289.975708,353.972809 
	C281.045929,365.919952 272.598602,377.220093 264.153107,388.521637 
	C260.494141,393.417908 260.579010,393.958557 265.805573,398.095764 
	C274.983673,391.334320 285.428314,387.231842 297.402588,384.647797 
z"/>
<path fill="#000000" opacity="1.000000" stroke="none" 
	d="
M118.736450,728.865356 
	C145.862701,651.996277 230.921188,610.850952 307.625946,637.534302 
	C351.195038,652.690674 381.970032,681.933411 398.764893,724.886353 
	C415.551544,767.818298 411.932526,809.999146 390.794556,850.952759 
	C393.038574,852.539612 395.253845,852.007629 397.305786,852.009155 
	C459.132782,852.055420 520.959839,852.066650 582.786865,852.080933 
	C596.082214,852.083984 598.604614,853.712463 603.779541,866.014587 
	C609.720825,880.138794 615.687012,894.253845 621.456299,908.448547 
	C626.214905,920.156677 620.605103,928.238342 607.856995,928.241028 
	C490.702271,928.265625 373.541870,928.949646 256.395294,927.978210 
	C202.400131,927.530457 160.945358,902.013916 131.988419,856.527527 
	C116.717789,832.539917 110.253220,805.879883 110.135162,777.703613 
	C110.065735,761.134399 113.256958,744.952820 118.736450,728.865356 
M308.794464,665.764587 
	C286.200226,656.053711 262.835815,652.992188 238.510727,657.232544 
	C170.709595,669.051697 125.251511,735.020630 138.563461,802.421570 
	C149.954330,860.095642 199.915405,901.320068 258.336121,902.207703 
	C328.191406,903.269104 390.184509,843.531555 382.239624,766.292114 
	C377.449982,719.728149 352.190643,686.092834 308.794464,665.764587 
M421.499908,902.622498 
	C477.678467,902.622498 533.857056,902.622498 590.618774,902.622498 
	C588.627991,894.846741 585.000183,888.816711 582.663879,882.298706 
	C581.606262,879.348083 579.843567,878.310120 576.691406,878.313843 
	C509.587921,878.393127 442.484283,878.390198 375.380737,878.339050 
	C372.500427,878.336853 370.361267,879.164856 368.369293,881.295044 
	C361.988831,888.117798 355.016907,894.294067 347.375549,899.702087 
	C346.584290,900.262146 345.226349,900.679993 345.643433,902.621765 
	C370.589386,902.621765 395.544617,902.621765 421.499908,902.622498 
z"/>
<path fill="#000000" opacity="1.000000" stroke="none" 
	d="
M763.539062,678.781372 
	C771.083679,680.923096 774.167542,686.126404 774.179321,693.093689 
	C774.263184,742.891663 774.257568,792.689941 774.181763,842.487915 
	C774.168457,851.253357 768.734253,857.079346 761.068237,857.162720 
	C753.550232,857.244385 747.994690,851.217773 747.984863,842.488342 
	C747.929199,792.856934 747.927734,743.225220 747.992432,693.593811 
	C748.005676,683.460205 753.128113,678.598267 763.539062,678.781372 
z"/>
<path fill="#000000" opacity="1.000000" stroke="none" 
	d="
M355.448364,542.572510 
	C338.947876,526.554077 332.928345,507.662354 339.916534,485.944580 
	C346.689392,464.895844 362.008789,452.672394 383.693268,449.093201 
	C413.980103,444.094147 443.403992,469.558075 444.466766,500.276184 
	C445.511261,530.464844 420.856476,556.530640 389.886871,556.138428 
	C376.970154,555.974854 365.569855,551.194214 355.448364,542.572510 
M389.667450,529.779724 
	C408.706146,530.882568 421.702423,511.955414 417.792633,496.472809 
	C414.146393,482.033722 402.026184,473.540344 386.273346,475.262726 
	C373.479980,476.661469 362.997101,489.622894 363.313202,503.651428 
	C363.615906,517.083191 374.903290,528.644226 389.667450,529.779724 
z"/>
<path fill="#000000" opacity="1.000000" stroke="none" 
	d="
M95.174667,556.268250 
	C65.326675,554.068237 42.623730,528.979614 44.051239,500.277527 
	C45.518394,470.778259 70.663185,447.763184 100.258095,448.831329 
	C126.128754,449.765076 149.474426,471.892822 151.275604,497.187286 
	C153.301926,525.643616 135.439377,549.891296 108.554115,555.238403 
	C104.280739,556.088257 99.989861,556.463257 95.174667,556.268250 
M114.084442,480.363647 
	C112.947014,479.673676 111.838875,478.929016 110.667625,478.302216 
	C99.168594,472.148438 86.279068,474.586090 77.133842,484.623413 
	C69.044868,493.501404 67.977425,507.523590 74.632805,517.476929 
	C81.838043,528.252625 95.191864,532.857727 107.103554,528.499756 
	C126.362892,521.453552 132.740585,495.585876 114.084442,480.363647 
z"/>
<path fill="#000000" opacity="1.000000" stroke="none" 
	d="
M229.643341,684.461060 
	C289.569061,666.715393 348.430054,704.066162 357.964661,765.524353 
	C365.863770,816.440552 328.439453,867.807983 277.287201,876.259460 
	C221.897308,885.411133 171.572678,850.451660 162.008347,795.325500 
	C153.860657,748.364502 180.651901,700.442810 229.643341,684.461060 
M308.024353,724.484619 
	C297.027924,714.698242 284.326691,708.824707 269.655975,706.788818 
	C222.025330,700.179260 180.892227,740.245300 187.535980,789.090698 
	C193.435745,832.466248 235.366058,860.216248 278.018402,849.142029 
	C305.773315,841.935730 323.376923,823.521118 330.355377,796.109558 
	C337.393677,768.462891 329.182953,744.584839 308.024353,724.484619 
z"/>
<path fill="#000000" opacity="1.000000" stroke="none" 
	d="
M231.751755,837.392334 
	C206.469925,824.001892 193.419907,803.064819 195.128510,775.056519 
	C196.835037,747.082153 212.063477,727.505249 238.633377,717.784241 
	C266.456329,707.604797 297.925964,718.961975 314.537262,744.588013 
	C330.133270,768.647766 327.015076,801.643799 307.154602,822.709961 
	C287.346741,843.720337 259.241852,849.271606 231.751755,837.392334 
M286.942871,751.554810 
	C274.408936,739.940369 258.377380,737.062073 243.506088,743.756348 
	C229.026642,750.274170 220.680923,764.118530 221.229279,781.257446 
	C221.833115,800.129822 238.212692,819.077087 262.254639,817.421753 
	C277.912537,816.343689 289.622131,807.974487 295.530640,793.160400 
	C301.589691,777.968994 298.563812,764.104309 286.942871,751.554810 
z"/>
</svg>