<svg version="1.1" id="Layer_1" xmlns="http://www.w3.org/2000/svg" xmlns:xlink="http://www.w3.org/1999/xlink" x="0px" y="0px"
	 width="100%" viewBox="0 0 1080 1080" enable-background="new 0 0 1080 1080" xml:space="preserve">
<path fill="#020101" opacity="1.000000" stroke="none" 
	d="
M1.000000,761.000000 
	C1.000000,541.973145 1.000000,322.946289 1.340821,103.239311 
	C7.620516,54.343861 40.589493,16.474005 87.199982,4.473664 
	C92.731438,3.049534 98.396744,2.145251 104.000000,0.999999 
	C395.026855,1.000000 686.053711,1.000000 977.764893,1.344963 
	C1025.857544,7.927692 1057.953003,33.602966 1074.743408,78.206123 
	C1077.727173,86.132607 1078.959229,94.718544 1081.000000,103.000000 
	C1081.000000,322.026855 1081.000000,541.053711 1080.636719,760.718628 
	C1075.865967,792.798584 1061.405396,818.534180 1036.303345,838.054749 
	C1014.560181,854.963501 989.539062,861.883362 962.258301,861.862427 
	C881.475525,861.800476 800.692627,861.840332 719.909790,861.840332 
	C717.981506,861.840332 716.053284,861.840332 713.905457,861.840332 
	C714.090515,863.074524 714.110596,863.741699 714.294678,864.360168 
	C724.963379,900.206482 743.995972,930.919739 770.747681,957.006409 
	C775.340149,961.484680 780.026245,963.925476 786.566162,963.098999 
	C790.828735,962.560303 795.221008,962.843384 799.544189,963.022888 
	C824.417603,964.055603 842.746094,975.683411 854.632996,997.462341 
	C862.213013,1011.350342 862.131226,1026.571655 861.789246,1041.749756 
	C861.501038,1054.541138 857.139587,1065.707886 846.327271,1073.152954 
	C841.413574,1076.536499 835.474121,1078.430420 830.000000,1081.000000 
	C637.639771,1081.000000 445.279602,1081.000000 252.268784,1080.677856 
	C233.452759,1076.482422 220.904053,1062.074585 220.514343,1044.480957 
	C220.366806,1037.820190 220.353104,1031.150269 220.509735,1024.490112 
	C221.174561,996.219299 240.583679,971.252502 268.050415,965.225952 
	C278.610382,962.908997 289.850586,963.767273 300.758789,962.900940 
	C303.009583,962.722168 305.645386,961.849731 307.287781,960.383240 
	C331.664825,938.616638 349.682922,912.358826 361.768951,882.040955 
	C364.326385,875.625671 366.314819,868.983521 368.773895,861.840332 
	C365.879028,861.840332 363.901154,861.842651 361.923279,861.840088 
	C278.452637,861.730591 194.979782,861.949890 111.512177,861.388550 
	C60.736214,861.047058 15.329591,823.438904 4.038578,773.797791 
	C3.066199,769.522644 2.014739,765.265503 1.000000,761.000000 
M581.993164,199.499573 
	C618.865417,258.138092 660.351929,313.249542 707.576965,363.988190 
	C723.602539,381.206055 725.054077,399.961792 712.655823,419.959167 
	C703.985718,433.943359 695.451599,448.041504 687.563904,462.475189 
	C668.979492,496.482605 656.697937,532.530029 656.119446,571.646667 
	C655.535522,611.132568 655.893921,650.632385 655.845520,690.126099 
	C655.844543,690.924683 655.916992,691.723450 655.966248,692.753662 
	C789.250671,692.753662 922.306030,692.753662 1055.830200,692.753662 
	C1055.830200,690.928467 1055.830078,689.308228 1055.830078,687.687988 
	C1055.830078,497.542145 1055.856201,307.396271 1055.730957,117.250549 
	C1055.726196,109.990280 1055.008301,102.556160 1053.355469,95.499947 
	C1043.548584,53.635918 1008.365173,26.183195 964.872375,26.180151 
	C682.236633,26.160360 399.600952,26.162523 116.965240,26.225323 
	C111.495964,26.226540 105.939926,26.583065 100.571388,27.571943 
	C55.848286,35.809895 26.175711,71.717598 26.173626,117.406044 
	C26.164961,307.385254 26.169985,497.364441 26.169985,687.343628 
	C26.169985,689.117798 26.169985,690.891907 26.169985,692.703857 
	C159.802933,692.703857 292.863647,692.703857 426.159576,692.703857 
	C426.159576,691.596741 426.159576,690.783630 426.159607,689.970520 
	C426.159851,654.474426 425.995697,618.977295 426.207550,583.482483 
	C426.411285,549.345337 420.442261,516.365356 405.556671,485.690186 
	C394.480408,462.865143 381.514679,440.917816 368.669586,419.002106 
	C357.414795,399.799744 358.743103,380.801483 373.805786,364.587982 
	C407.402588,328.424133 438.597473,290.301819 466.614929,249.653473 
	C479.735931,230.617218 492.204193,211.129623 504.889099,191.794617 
	C517.807983,172.102814 540.371765,165.706024 560.607178,176.070129 
	C570.426819,181.099518 576.137573,189.872955 581.993164,199.499573 
M899.499939,836.165039 
	C921.663696,836.165039 943.827515,836.165222 965.991272,836.164978 
	C1013.619324,836.164307 1051.554810,801.569275 1055.254639,754.165161 
	C1056.178467,742.328125 1055.392822,730.357544 1055.392822,718.521973 
	C712.220520,718.521973 369.358337,718.521973 26.169701,718.521973 
	C26.169701,728.180420 26.099289,737.490662 26.181423,746.799561 
	C26.628098,797.425049 65.625580,836.164856 116.100342,836.164856 
	C376.900177,836.165039 637.700012,836.165039 899.499939,836.165039 
M515.017517,459.522827 
	C501.036407,449.674072 493.516998,436.044495 494.373474,419.107422 
	C495.477814,397.268585 507.504517,382.830719 527.834167,375.682526 
	C527.834167,318.319031 527.834167,261.297852 527.834167,203.260437 
	C526.374146,205.431641 525.446289,206.730682 524.600342,208.081039 
	C485.705872,270.164703 442.179535,328.716919 391.994537,382.205414 
	C385.289032,389.352325 384.804871,396.498840 389.849091,404.926636 
	C398.386780,419.191193 407.199158,433.308716 415.229156,447.856140 
	C431.477753,477.292542 443.601288,508.293488 448.541077,541.763428 
	C449.840637,550.568848 450.547333,559.461731 451.518066,568.239807 
	C511.379913,568.239807 570.973755,568.239807 630.819519,568.239807 
	C630.895081,567.039490 630.961487,566.068665 631.016602,565.097107 
	C632.554016,537.972961 638.492920,511.834106 648.502197,486.592194 
	C659.890930,457.871460 675.292725,431.302582 691.854370,405.342194 
	C697.464539,396.548157 696.658997,389.583740 689.697388,381.823120 
	C678.359619,369.184113 666.946106,356.606049 655.885254,343.726868 
	C619.474304,301.330322 587.455872,255.727646 557.691040,208.495605 
	C556.718872,206.952927 555.574646,205.518616 554.047485,203.387375 
	C554.047485,261.545898 554.047485,318.654022 554.047485,375.806152 
	C555.476685,376.297974 556.747498,376.691956 557.986694,377.168243 
	C576.280884,384.200043 589.268982,404.007965 587.783203,422.591949 
	C584.832886,459.496582 547.535034,478.795380 515.017517,459.522827 
M246.531525,1047.365601 
	C249.451889,1054.672119 255.525925,1055.866211 262.449768,1055.864868 
	C448.105835,1055.830688 633.761902,1055.838501 819.417969,1055.826538 
	C821.244629,1055.826416 823.096680,1055.821045 824.893555,1055.540649 
	C832.089050,1054.417725 836.037781,1049.879761 836.146240,1042.596191 
	C836.228149,1037.097778 836.185852,1031.596924 836.159851,1026.097412 
	C836.060669,1005.086792 819.416199,988.195068 798.471008,988.190002 
	C626.814148,988.148560 455.157257,988.153687 283.500397,988.186523 
	C266.216888,988.189880 250.544632,999.835754 247.244354,1016.796753 
	C245.368958,1026.434937 246.436356,1036.645752 246.531525,1047.365601 
M565.500061,861.840332 
	C510.173431,861.840332 454.846771,861.870361 399.520325,861.769775 
	C396.000824,861.763367 394.443726,862.536438 393.441437,866.283081 
	C385.039673,897.688660 370.667267,926.140625 350.328278,951.538879 
	C347.389679,955.208435 344.359528,958.804626 341.080200,962.789062 
	C474.682495,962.789062 607.573059,962.789062 741.276611,962.789062 
	C714.859436,933.215881 697.023193,899.715393 687.400146,861.840332 
	C646.804016,861.840332 606.652039,861.840332 565.500061,861.840332 
M544.500061,652.167236 
	C513.608582,652.167236 482.717102,652.167236 451.801971,652.167236 
	C451.801971,666.212524 451.801971,679.446228 451.801971,692.701660 
	C511.498474,692.701660 570.898132,692.701660 630.179382,692.701660 
	C630.179382,679.137695 630.179382,665.874023 630.179382,652.167236 
	C601.744568,652.167236 573.622314,652.167236 544.500061,652.167236 
M627.442627,626.996460 
	C628.451843,626.312500 630.327148,625.644592 630.340149,624.942139 
	C630.529785,614.716858 630.470337,604.486938 630.470337,594.288208 
	C570.438782,594.288208 511.075104,594.288208 451.855103,594.288208 
	C451.855103,605.296875 451.855103,616.017578 451.855103,626.997009 
	C510.280823,626.997009 568.363403,626.997009 627.442627,626.996460 
M560.065796,430.273224 
	C565.294312,417.759125 560.343262,405.123444 548.467957,400.674286 
	C536.898132,396.339539 524.242676,402.555481 520.578247,414.372803 
	C517.449341,424.463165 522.168701,435.238770 531.759460,439.902557 
	C541.877502,444.822784 552.739136,441.362640 560.065796,430.273224 
z"/>
<path fill="#FFCFB0" opacity="1.000000" stroke="none" 
	d="
M1.000000,761.468628 
	C2.014739,765.265503 3.066199,769.522644 4.038578,773.797791 
	C15.329591,823.438904 60.736214,861.047058 111.512177,861.388550 
	C194.979782,861.949890 278.452637,861.730591 361.923279,861.840088 
	C363.901154,861.842651 365.879028,861.840332 368.773895,861.840332 
	C366.314819,868.983521 364.326385,875.625671 361.768951,882.040955 
	C349.682922,912.358826 331.664825,938.616638 307.287781,960.383240 
	C305.645386,961.849731 303.009583,962.722168 300.758789,962.900940 
	C289.850586,963.767273 278.610382,962.908997 268.050415,965.225952 
	C240.583679,971.252502 221.174561,996.219299 220.509735,1024.490112 
	C220.353104,1031.150269 220.366806,1037.820190 220.514343,1044.480957 
	C220.904053,1062.074585 233.452759,1076.482422 251.809082,1080.677856 
	C168.397476,1081.000000 84.794937,1081.000000 1.000000,1081.000000 
	C1.000000,974.645874 1.000000,868.291565 1.000000,761.468628 
z"/>
<path fill="#FFCFB0" opacity="1.000000" stroke="none" 
	d="
M830.468628,1081.000000 
	C835.474121,1078.430420 841.413574,1076.536499 846.327271,1073.152954 
	C857.139587,1065.707886 861.501038,1054.541138 861.789246,1041.749756 
	C862.131226,1026.571655 862.213013,1011.350342 854.632996,997.462341 
	C842.746094,975.683411 824.417603,964.055603 799.544189,963.022888 
	C795.221008,962.843384 790.828735,962.560303 786.566162,963.098999 
	C780.026245,963.925476 775.340149,961.484680 770.747681,957.006409 
	C743.995972,930.919739 724.963379,900.206482 714.294678,864.360168 
	C714.110596,863.741699 714.090515,863.074524 713.905457,861.840332 
	C716.053284,861.840332 717.981506,861.840332 719.909790,861.840332 
	C800.692627,861.840332 881.475525,861.800476 962.258301,861.862427 
	C989.539062,861.883362 1014.560181,854.963501 1036.303345,838.054749 
	C1061.405396,818.534180 1075.865967,792.798584 1080.636719,761.178345 
	C1081.000000,867.584900 1081.000000,974.169739 1081.000000,1081.000000 
	C997.645935,1081.000000 914.291626,1081.000000 830.468628,1081.000000 
z"/>
<path fill="#FECEAF" opacity="1.000000" stroke="none" 
	d="
M103.531342,0.999999 
	C98.396744,2.145251 92.731438,3.049534 87.199982,4.473664 
	C40.589493,16.474005 7.620516,54.343861 1.340821,102.779602 
	C1.000000,69.072701 1.000000,35.145405 1.000000,1.000000 
	C35.020584,1.000000 69.041634,1.000000 103.531342,0.999999 
z"/>
<path fill="#FECEAF" opacity="1.000000" stroke="none" 
	d="
M1081.000000,102.531342 
	C1078.959229,94.718544 1077.727173,86.132607 1074.743408,78.206123 
	C1057.953003,33.602966 1025.857544,7.927692 978.224609,1.344963 
	C1012.259949,1.000000 1046.519897,1.000000 1081.000000,1.000000 
	C1081.000000,34.687241 1081.000000,68.374962 1081.000000,102.531342 
z"/>
<path fill="#FECFB0" opacity="1.000000" stroke="none" 
	d="
M581.796875,199.195480 
	C576.137573,189.872955 570.426819,181.099518 560.607178,176.070129 
	C540.371765,165.706024 517.807983,172.102814 504.889099,191.794617 
	C492.204193,211.129623 479.735931,230.617218 466.614929,249.653473 
	C438.597473,290.301819 407.402588,328.424133 373.805786,364.587982 
	C358.743103,380.801483 357.414795,399.799744 368.669586,419.002106 
	C381.514679,440.917816 394.480408,462.865143 405.556671,485.690186 
	C420.442261,516.365356 426.411285,549.345337 426.207550,583.482483 
	C425.995697,618.977295 426.159851,654.474426 426.159607,689.970520 
	C426.159576,690.783630 426.159576,691.596741 426.159576,692.703857 
	C292.863647,692.703857 159.802933,692.703857 26.169985,692.703857 
	C26.169985,690.891907 26.169985,689.117798 26.169985,687.343628 
	C26.169985,497.364441 26.164961,307.385254 26.173626,117.406044 
	C26.175711,71.717598 55.848286,35.809895 100.571388,27.571943 
	C105.939926,26.583065 111.495964,26.226540 116.965240,26.225323 
	C399.600952,26.162523 682.236633,26.160360 964.872375,26.180151 
	C1008.365173,26.183195 1043.548584,53.635918 1053.355469,95.499947 
	C1055.008301,102.556160 1055.726196,109.990280 1055.730957,117.250549 
	C1055.856201,307.396271 1055.830078,497.542145 1055.830078,687.687988 
	C1055.830078,689.308228 1055.830200,690.928467 1055.830200,692.753662 
	C922.306030,692.753662 789.250671,692.753662 655.966248,692.753662 
	C655.916992,691.723450 655.844543,690.924683 655.845520,690.126099 
	C655.893921,650.632385 655.535522,611.132568 656.119446,571.646667 
	C656.697937,532.530029 668.979492,496.482605 687.563904,462.475189 
	C695.451599,448.041504 703.985718,433.943359 712.655823,419.959167 
	C725.054077,399.961792 723.602539,381.206055 707.576965,363.988190 
	C660.351929,313.249542 618.865417,258.138092 581.796875,199.195480 
M709.829346,260.521179 
	C709.829346,275.017792 709.783630,289.514587 709.841919,304.010956 
	C709.903564,319.336304 720.649841,329.974152 736.027954,329.997070 
	C752.192871,330.021149 768.357727,330.016876 784.522644,329.998322 
	C800.123047,329.980438 810.951843,319.250732 810.993042,303.718536 
	C811.035522,287.720428 811.016846,271.722046 810.998352,255.723846 
	C810.979858,239.712631 800.515137,229.032364 784.592651,228.850189 
	C776.427917,228.756790 768.246643,228.540161 760.101196,228.947006 
	C755.459045,229.178864 753.185364,227.617828 751.165222,223.402710 
	C727.788452,174.626587 691.849731,137.970932 643.886292,113.045357 
	C643.006104,112.587959 642.223938,111.942123 641.063965,111.160500 
	C689.927063,111.160500 738.193787,111.160500 786.377014,111.160500 
	C793.655762,139.817917 816.621582,156.074509 843.875732,152.124374 
	C867.551147,148.692947 885.929871,128.450027 886.911194,104.723831 
	C887.909302,80.590080 871.601746,58.526695 848.788391,53.145309 
	C824.660706,47.453899 800.119080,59.178089 790.404724,81.322792 
	C788.958862,84.618820 787.257507,85.576088 783.799500,85.570404 
	C721.473206,85.467941 659.146606,85.497734 596.820129,85.484871 
	C595.238403,85.484543 593.656616,85.321793 591.838196,85.221771 
	C591.838196,82.783974 591.905334,80.800896 591.827576,78.823509 
	C591.146606,61.505272 581.161316,51.834541 563.990723,51.833561 
	C547.992493,51.832653 531.994141,51.808987 515.995972,51.840534 
	C501.215424,51.869682 490.617859,62.498886 490.492645,77.360306 
	C490.470795,79.952393 490.489563,82.544823 490.489563,85.183823 
	C489.129150,85.337578 488.486237,85.473770 487.843292,85.473907 
	C424.183655,85.487732 360.523987,85.467506 296.864502,85.570694 
	C293.911804,85.575478 292.997925,84.213242 291.887238,81.921761 
	C282.361847,62.269791 266.798279,51.873222 244.755722,51.853127 
	C222.557343,51.832890 202.682281,67.219917 196.923279,88.696426 
	C190.891281,111.190987 200.190994,134.229904 220.011490,145.894745 
	C239.396469,157.303268 264.571381,154.343414 280.517914,138.920975 
	C288.522308,131.179657 293.306305,121.730453 295.594116,111.225601 
	C344.173187,111.225601 392.315491,111.225601 441.161072,111.225601 
	C440.114044,111.932945 439.753113,112.235535 439.344330,112.444588 
	C390.058105,137.652130 353.501495,175.238602 329.872009,225.299118 
	C328.450104,228.311493 326.743286,228.941864 323.775299,228.891190 
	C314.612335,228.734772 305.440948,228.665085 296.280243,228.878906 
	C281.537933,229.223022 271.047516,240.087189 271.007629,254.851318 
	C270.963531,271.182739 270.966736,287.514404 271.006500,303.845856 
	C271.043671,319.108368 281.880890,329.965088 297.091003,329.995239 
	C313.255829,330.027252 329.420807,330.012817 345.585693,329.999542 
	C361.548340,329.986420 372.126434,319.409302 372.163666,303.386871 
	C372.196991,289.055206 371.777283,274.709442 372.284576,260.395660 
	C372.763885,246.871735 369.009827,236.151413 355.325134,230.204803 
	C385.020111,174.578690 429.091400,137.434860 490.489655,119.974457 
	C490.489655,123.057480 490.463928,125.344467 490.493866,127.630730 
	C490.670898,141.150986 500.485992,152.276276 513.959412,152.699844 
	C531.936340,153.264969 549.954224,153.203735 567.935669,152.716797 
	C580.252197,152.383255 589.721985,142.957153 591.349548,130.727432 
	C591.785828,127.448982 591.851318,124.121170 592.135620,120.134651 
	C653.006958,137.543808 697.076233,174.665131 726.654358,230.210861 
	C713.421387,236.068542 708.865479,246.274094 709.829346,260.521179 
z"/>
<path fill="#FECEB0" opacity="1.000000" stroke="none" 
	d="
M898.999878,836.165039 
	C637.700012,836.165039 376.900177,836.165039 116.100342,836.164856 
	C65.625580,836.164856 26.628098,797.425049 26.181423,746.799561 
	C26.099289,737.490662 26.169701,728.180420 26.169701,718.521973 
	C369.358337,718.521973 712.220520,718.521973 1055.392822,718.521973 
	C1055.392822,730.357544 1056.178467,742.328125 1055.254639,754.165161 
	C1051.554810,801.569275 1013.619324,836.164307 965.991272,836.164978 
	C943.827515,836.165222 921.663696,836.165039 898.999878,836.165039 
M540.577881,794.070007 
	C551.948303,793.517273 559.722290,784.511597 557.655823,774.286255 
	C555.946228,765.826416 548.324402,759.774353 540.105530,760.350586 
	C531.362854,760.963562 524.463196,767.940308 524.077576,776.557617 
	C523.676941,785.510681 529.948792,792.521057 540.577881,794.070007 
z"/>
<path fill="#FECEAF" opacity="1.000000" stroke="none" 
	d="
M515.318909,459.726807 
	C547.535034,478.795380 584.832886,459.496582 587.783203,422.591949 
	C589.268982,404.007965 576.280884,384.200043 557.986694,377.168243 
	C556.747498,376.691956 555.476685,376.297974 554.047485,375.806152 
	C554.047485,318.654022 554.047485,261.545898 554.047485,203.387375 
	C555.574646,205.518616 556.718872,206.952927 557.691040,208.495605 
	C587.455872,255.727646 619.474304,301.330322 655.885254,343.726868 
	C666.946106,356.606049 678.359619,369.184113 689.697388,381.823120 
	C696.658997,389.583740 697.464539,396.548157 691.854370,405.342194 
	C675.292725,431.302582 659.890930,457.871460 648.502197,486.592194 
	C638.492920,511.834106 632.554016,537.972961 631.016602,565.097107 
	C630.961487,566.068665 630.895081,567.039490 630.819519,568.239807 
	C570.973755,568.239807 511.379913,568.239807 451.518066,568.239807 
	C450.547333,559.461731 449.840637,550.568848 448.541077,541.763428 
	C443.601288,508.293488 431.477753,477.292542 415.229156,447.856140 
	C407.199158,433.308716 398.386780,419.191193 389.849091,404.926636 
	C384.804871,396.498840 385.289032,389.352325 391.994537,382.205414 
	C442.179535,328.716919 485.705872,270.164703 524.600342,208.081039 
	C525.446289,206.730682 526.374146,205.431641 527.834167,203.260437 
	C527.834167,261.297852 527.834167,318.319031 527.834167,375.682526 
	C507.504517,382.830719 495.477814,397.268585 494.373474,419.107422 
	C493.516998,436.044495 501.036407,449.674072 515.318909,459.726807 
z"/>
<path fill="#FDCEAF" opacity="1.000000" stroke="none" 
	d="
M246.355011,1046.982178 
	C246.436356,1036.645752 245.368958,1026.434937 247.244354,1016.796753 
	C250.544632,999.835754 266.216888,988.189880 283.500397,988.186523 
	C455.157257,988.153687 626.814148,988.148560 798.471008,988.190002 
	C819.416199,988.195068 836.060669,1005.086792 836.159851,1026.097412 
	C836.185852,1031.596924 836.228149,1037.097778 836.146240,1042.596191 
	C836.037781,1049.879761 832.089050,1054.417725 824.893555,1055.540649 
	C823.096680,1055.821045 821.244629,1055.826416 819.417969,1055.826538 
	C633.761902,1055.838501 448.105835,1055.830688 262.449768,1055.864868 
	C255.525925,1055.866211 249.451889,1054.672119 246.355011,1046.982178 
z"/>
<path fill="#FFCFB0" opacity="1.000000" stroke="none" 
	d="
M566.000122,861.840332 
	C606.652039,861.840332 646.804016,861.840332 687.400146,861.840332 
	C697.023193,899.715393 714.859436,933.215881 741.276611,962.789062 
	C607.573059,962.789062 474.682495,962.789062 341.080200,962.789062 
	C344.359528,958.804626 347.389679,955.208435 350.328278,951.538879 
	C370.667267,926.140625 385.039673,897.688660 393.441437,866.283081 
	C394.443726,862.536438 396.000824,861.763367 399.520325,861.769775 
	C454.846771,861.870361 510.173431,861.840332 566.000122,861.840332 
z"/>
<path fill="#FDCEAF" opacity="1.000000" stroke="none" 
	d="
M545.000122,652.167236 
	C573.622314,652.167236 601.744568,652.167236 630.179382,652.167236 
	C630.179382,665.874023 630.179382,679.137695 630.179382,692.701660 
	C570.898132,692.701660 511.498474,692.701660 451.801971,692.701660 
	C451.801971,679.446228 451.801971,666.212524 451.801971,652.167236 
	C482.717102,652.167236 513.608582,652.167236 545.000122,652.167236 
z"/>
<path fill="#FFCFB0" opacity="1.000000" stroke="none" 
	d="
M626.944336,626.996704 
	C568.363403,626.997009 510.280823,626.997009 451.855103,626.997009 
	C451.855103,616.017578 451.855103,605.296875 451.855103,594.288208 
	C511.075104,594.288208 570.438782,594.288208 630.470337,594.288208 
	C630.470337,604.486938 630.529785,614.716858 630.340149,624.942139 
	C630.327148,625.644592 628.451843,626.312500 626.944336,626.996704 
z"/>
<path fill="#FDCDAE" opacity="1.000000" stroke="none" 
	d="
M559.916992,430.626587 
	C552.739136,441.362640 541.877502,444.822784 531.759460,439.902557 
	C522.168701,435.238770 517.449341,424.463165 520.578247,414.372803 
	C524.242676,402.555481 536.898132,396.339539 548.467957,400.674286 
	C560.343262,405.123444 565.294312,417.759125 559.916992,430.626587 
z"/>
<path fill="#020101" opacity="1.000000" stroke="none" 
	d="
M709.829346,260.026611 
	C708.865479,246.274094 713.421387,236.068542 726.654358,230.210861 
	C697.076233,174.665131 653.006958,137.543808 592.135620,120.134651 
	C591.851318,124.121170 591.785828,127.448982 591.349548,130.727432 
	C589.721985,142.957153 580.252197,152.383255 567.935669,152.716797 
	C549.954224,153.203735 531.936340,153.264969 513.959412,152.699844 
	C500.485992,152.276276 490.670898,141.150986 490.493866,127.630730 
	C490.463928,125.344467 490.489655,123.057480 490.489655,119.974457 
	C429.091400,137.434860 385.020111,174.578690 355.325134,230.204803 
	C369.009827,236.151413 372.763885,246.871735 372.284576,260.395660 
	C371.777283,274.709442 372.196991,289.055206 372.163666,303.386871 
	C372.126434,319.409302 361.548340,329.986420 345.585693,329.999542 
	C329.420807,330.012817 313.255829,330.027252 297.091003,329.995239 
	C281.880890,329.965088 271.043671,319.108368 271.006500,303.845856 
	C270.966736,287.514404 270.963531,271.182739 271.007629,254.851318 
	C271.047516,240.087189 281.537933,229.223022 296.280243,228.878906 
	C305.440948,228.665085 314.612335,228.734772 323.775299,228.891190 
	C326.743286,228.941864 328.450104,228.311493 329.872009,225.299118 
	C353.501495,175.238602 390.058105,137.652130 439.344330,112.444588 
	C439.753113,112.235535 440.114044,111.932945 441.161072,111.225601 
	C392.315491,111.225601 344.173187,111.225601 295.594116,111.225601 
	C293.306305,121.730453 288.522308,131.179657 280.517914,138.920975 
	C264.571381,154.343414 239.396469,157.303268 220.011490,145.894745 
	C200.190994,134.229904 190.891281,111.190987 196.923279,88.696426 
	C202.682281,67.219917 222.557343,51.832890 244.755722,51.853127 
	C266.798279,51.873222 282.361847,62.269791 291.887238,81.921761 
	C292.997925,84.213242 293.911804,85.575478 296.864502,85.570694 
	C360.523987,85.467506 424.183655,85.487732 487.843292,85.473907 
	C488.486237,85.473770 489.129150,85.337578 490.489563,85.183823 
	C490.489563,82.544823 490.470795,79.952393 490.492645,77.360306 
	C490.617859,62.498886 501.215424,51.869682 515.995972,51.840534 
	C531.994141,51.808987 547.992493,51.832653 563.990723,51.833561 
	C581.161316,51.834541 591.146606,61.505272 591.827576,78.823509 
	C591.905334,80.800896 591.838196,82.783974 591.838196,85.221771 
	C593.656616,85.321793 595.238403,85.484543 596.820129,85.484871 
	C659.146606,85.497734 721.473206,85.467941 783.799500,85.570404 
	C787.257507,85.576088 788.958862,84.618820 790.404724,81.322792 
	C800.119080,59.178089 824.660706,47.453899 848.788391,53.145309 
	C871.601746,58.526695 887.909302,80.590080 886.911194,104.723831 
	C885.929871,128.450027 867.551147,148.692947 843.875732,152.124374 
	C816.621582,156.074509 793.655762,139.817917 786.377014,111.160500 
	C738.193787,111.160500 689.927063,111.160500 641.063965,111.160500 
	C642.223938,111.942123 643.006104,112.587959 643.886292,113.045357 
	C691.849731,137.970932 727.788452,174.626587 751.165222,223.402710 
	C753.185364,227.617828 755.459045,229.178864 760.101196,228.947006 
	C768.246643,228.540161 776.427917,228.756790 784.592651,228.850189 
	C800.515137,229.032364 810.979858,239.712631 810.998352,255.723846 
	C811.016846,271.722046 811.035522,287.720428 810.993042,303.718536 
	C810.951843,319.250732 800.123047,329.980438 784.522644,329.998322 
	C768.357727,330.016876 752.192871,330.021149 736.027954,329.997070 
	C720.649841,329.974152 709.903564,319.336304 709.841919,304.010956 
	C709.783630,289.514587 709.829346,275.017792 709.829346,260.026611 
M742.590820,254.162399 
	C740.156006,254.162399 737.721191,254.162399 735.279480,254.162399 
	C735.279480,271.339996 735.279480,287.906219 735.279480,304.429230 
	C752.255432,304.429230 768.944763,304.429230 785.422424,304.429230 
	C785.422424,287.462219 785.422424,270.910309 785.422424,254.162399 
	C771.194458,254.162399 757.380798,254.162399 742.590820,254.162399 
M302.647949,254.162399 
	C300.565979,254.162399 298.483978,254.162399 296.556946,254.162399 
	C296.556946,271.500549 296.556946,288.052307 296.556946,304.548096 
	C313.529419,304.548096 330.105682,304.548096 346.732086,304.548096 
	C346.732086,287.686859 346.732086,271.120483 346.732086,254.162399 
	C332.181763,254.162399 317.899445,254.162399 302.647949,254.162399 
M515.835083,96.500305 
	C515.835083,106.730461 515.835083,116.960617 515.835083,127.258217 
	C532.949890,127.258217 549.360352,127.258217 565.915955,127.258217 
	C565.915955,110.461418 565.915955,93.915535 565.915955,77.296143 
	C549.131287,77.296143 532.597229,77.296143 515.835083,77.296143 
	C515.835083,83.560959 515.835083,89.530708 515.835083,96.500305 
M258.402710,124.050095 
	C269.859406,116.581093 274.033264,103.794701 268.867981,91.990067 
	C264.157684,81.225258 251.705307,74.843102 240.493561,77.526161 
	C230.379700,79.946480 223.572830,86.142197 221.192673,96.253815 
	C218.886093,106.052818 221.404633,114.880615 229.341171,121.440598 
	C238.031189,128.623367 247.663345,129.405319 258.402710,124.050095 
M828.887451,78.049667 
	C818.081970,81.898552 811.929260,89.545189 811.071960,100.952072 
	C810.265991,111.675484 817.020813,121.872818 826.893066,125.798424 
	C836.799377,129.737595 848.810181,126.746719 855.483948,118.679031 
	C862.610352,110.064133 863.551025,98.068352 857.816101,88.938423 
	C851.822571,79.396805 841.024475,75.154655 828.887451,78.049667 
z"/>
<path fill="#040303" opacity="1.000000" stroke="none" 
	d="
M540.149048,794.056152 
	C529.948792,792.521057 523.676941,785.510681 524.077576,776.557617 
	C524.463196,767.940308 531.362854,760.963562 540.105530,760.350586 
	C548.324402,759.774353 555.946228,765.826416 557.655823,774.286255 
	C559.722290,784.511597 551.948303,793.517273 540.149048,794.056152 
z"/>
<path fill="#FBCCAD" opacity="1.000000" stroke="none" 
	d="
M743.078979,254.162399 
	C757.380798,254.162399 771.194458,254.162399 785.422424,254.162399 
	C785.422424,270.910309 785.422424,287.462219 785.422424,304.429230 
	C768.944763,304.429230 752.255432,304.429230 735.279480,304.429230 
	C735.279480,287.906219 735.279480,271.339996 735.279480,254.162399 
	C737.721191,254.162399 740.156006,254.162399 743.078979,254.162399 
z"/>
<path fill="#FBCCAD" opacity="1.000000" stroke="none" 
	d="
M303.132538,254.162399 
	C317.899445,254.162399 332.181763,254.162399 346.732086,254.162399 
	C346.732086,271.120483 346.732086,287.686859 346.732086,304.548096 
	C330.105682,304.548096 313.529419,304.548096 296.556946,304.548096 
	C296.556946,288.052307 296.556946,271.500549 296.556946,254.162399 
	C298.483978,254.162399 300.565979,254.162399 303.132538,254.162399 
z"/>
<path fill="#FDCDAE" opacity="1.000000" stroke="none" 
	d="
M515.835083,96.000381 
	C515.835083,89.530708 515.835083,83.560959 515.835083,77.296143 
	C532.597229,77.296143 549.131287,77.296143 565.915955,77.296143 
	C565.915955,93.915535 565.915955,110.461418 565.915955,127.258217 
	C549.360352,127.258217 532.949890,127.258217 515.835083,127.258217 
	C515.835083,116.960617 515.835083,106.730461 515.835083,96.000381 
z"/>
<path fill="#FDCDAE" opacity="1.000000" stroke="none" 
	d="
M258.086731,124.248268 
	C247.663345,129.405319 238.031189,128.623367 229.341171,121.440598 
	C221.404633,114.880615 218.886093,106.052818 221.192673,96.253815 
	C223.572830,86.142197 230.379700,79.946480 240.493561,77.526161 
	C251.705307,74.843102 264.157684,81.225258 268.867981,91.990067 
	C274.033264,103.794701 269.859406,116.581093 258.086731,124.248268 
z"/>
<path fill="#FDCDAE" opacity="1.000000" stroke="none" 
	d="
M829.291260,77.970291 
	C841.024475,75.154655 851.822571,79.396805 857.816101,88.938423 
	C863.551025,98.068352 862.610352,110.064133 855.483948,118.679031 
	C848.810181,126.746719 836.799377,129.737595 826.893066,125.798424 
	C817.020813,121.872818 810.265991,111.675484 811.071960,100.952072 
	C811.929260,89.545189 818.081970,81.898552 829.291260,77.970291 
z"/>
</svg>