<svg version="1.1" id="Layer_1" xmlns="http://www.w3.org/2000/svg" xmlns:xlink="http://www.w3.org/1999/xlink" x="0px" y="0px"
	 width="100%" viewBox="0 0 1080 1080" enable-background="new 0 0 1080 1080" xml:space="preserve">
<path fill="#000000" opacity="1.000000" stroke="none" 
	d="
M1.000000,1031.000000 
	C1.000000,788.640808 1.000000,546.281677 1.289389,303.261230 
	C4.975958,293.178101 10.735146,289.035980 20.709856,289.010529 
	C36.704296,288.969757 52.698921,289.005768 68.693451,288.988800 
	C70.111191,288.987305 71.528778,288.834534 72.999573,288.748932 
	C72.999573,271.758759 73.488823,255.246704 72.846497,238.778778 
	C72.322105,225.334396 80.960152,216.775528 94.974655,216.826660 
	C186.942062,217.162155 278.911316,216.969345 370.879761,217.102417 
	C374.842621,217.108154 376.550903,215.871201 378.202606,212.331589 
	C410.198212,143.766357 482.114044,102.525040 557.415100,109.861687 
	C607.664795,114.757545 648.526733,137.780411 680.202698,176.671524 
	C690.185364,188.927948 697.991577,202.957016 707.343140,216.999573 
	C707.841187,216.999573 709.833740,216.999573 711.826294,216.999573 
	C803.628296,216.999573 895.430908,217.150345 987.231750,216.831223 
	C1000.458130,216.785248 1009.760010,224.756073 1009.147034,238.984558 
	C1008.495056,254.117950 1008.993958,269.301208 1009.010864,284.462708 
	C1009.012451,285.899811 1009.159912,287.336792 1009.252197,288.999603 
	C1025.554932,288.999603 1041.539917,289.406128 1057.492188,288.861664 
	C1068.784790,288.476227 1076.856812,292.136719 1081.000000,303.000000 
	C1081.000000,545.359192 1081.000000,787.718323 1080.710693,1030.738892 
	C1076.774414,1041.267212 1071.281738,1044.996704 1060.278931,1044.997070 
	C913.970093,1045.001831 767.661194,1045.078979 621.352661,1044.882202 
	C606.240417,1044.861938 593.065735,1048.890625 580.793579,1057.620850 
	C569.190430,1065.875000 556.956482,1073.242554 545.000000,1081.000000 
	C542.629089,1081.000000 540.258240,1081.000000 537.250305,1080.705078 
	C533.961609,1079.054077 531.167236,1077.917847 528.682861,1076.304321 
	C517.804565,1069.239014 506.949127,1062.134155 496.214447,1054.853271 
	C486.100494,1047.993408 475.033020,1044.950317 462.836884,1044.956055 
	C316.724213,1045.024536 170.611389,1044.927734 24.498999,1045.142822 
	C13.228909,1045.159424 5.142055,1041.861694 1.000000,1031.000000 
M362.360565,266.944092 
	C363.020203,262.411072 363.679840,257.878021 364.342651,253.323105 
	C278.981812,253.323105 194.084946,253.323105 109.319794,253.323105 
	C109.319794,481.365601 109.319794,709.085205 109.319794,936.999695 
	C111.455139,936.999695 113.272171,936.999695 115.089211,936.999695 
	C230.245529,936.999695 345.402069,937.113953 460.557983,936.896423 
	C481.753906,936.856384 500.951263,942.141479 518.300537,954.255005 
	C519.668335,955.210022 521.120605,956.043945 522.999695,957.227783 
	C522.999695,954.422119 522.999695,952.590332 522.999695,950.758545 
	C522.999695,875.598633 522.999146,800.438721 523.002808,725.278809 
	C523.002869,723.446411 522.952332,721.606628 523.089905,719.782715 
	C524.045776,707.110352 537.203613,699.404419 548.643982,704.891541 
	C556.519287,708.668762 559.053406,715.367798 559.044983,723.733337 
	C558.968811,799.559753 559.000305,875.386292 559.000305,951.212830 
	C559.000305,952.978516 559.000305,954.744202 559.000305,956.555542 
	C559.699707,956.467773 560.041077,956.516479 560.274475,956.380188 
	C561.423279,955.709473 562.580627,955.042847 563.668030,954.279297 
	C581.146729,942.005981 600.536682,936.847778 621.895813,936.890625 
	C736.885010,937.121094 851.874939,936.999695 966.864624,936.999695 
	C968.806763,936.999695 970.748901,936.999695 972.744873,936.999695 
	C972.744873,708.763855 972.744873,481.044312 972.744873,253.248596 
	C887.427063,253.248596 802.364197,253.248596 717.232178,253.248596 
	C717.290161,253.993073 717.282410,254.494034 717.373291,254.976410 
	C727.736267,309.941772 715.208496,359.278992 680.535583,402.960266 
	C665.107971,422.396149 645.768433,437.228912 623.900024,448.858246 
	C615.335999,453.412476 612.091919,459.888245 613.592224,468.999939 
	C619.018005,468.999939 624.495178,468.941162 629.970642,469.012146 
	C641.472168,469.161255 648.943237,476.636444 648.978882,488.226440 
	C649.050232,511.390808 649.048401,534.555664 648.980042,557.720093 
	C648.945129,569.536438 641.436340,576.894897 629.515503,576.991211 
	C623.203186,577.042175 616.890076,577.000183 610.693054,577.000183 
	C599.583618,613.551270 570.085449,630.826294 543.091614,630.819946 
	C506.242493,630.811218 483.096649,611.251343 471.080078,577.000305 
	C464.983276,577.000305 458.828064,577.033875 452.673340,576.993225 
	C440.455994,576.912537 433.043396,569.590210 433.015167,557.421265 
	C432.961761,534.423462 432.956757,511.425354 433.017487,488.427612 
	C433.048950,476.522278 440.470703,469.125671 452.328979,469.009003 
	C457.788696,468.955292 463.249329,468.999817 468.815613,468.999817 
	C469.832642,458.883148 465.387268,452.378387 457.096771,448.040771 
	C434.807220,436.378815 415.617157,420.864929 400.106293,401.068146 
	C369.384308,361.857208 357.083160,317.295135 362.360565,266.944092 
M174.500000,973.000427 
	C148.002151,973.000427 121.494797,972.579346 95.010414,973.176575 
	C81.588280,973.479248 72.807762,965.382996 72.825851,950.753967 
	C73.081154,744.266968 72.999466,537.779541 72.999466,331.292206 
	C72.999466,329.335541 72.999466,327.378845 72.999466,325.220917 
	C60.860481,325.220917 49.127018,325.220917 37.224636,325.220917 
	C37.224636,553.165466 37.224636,780.889587 37.224636,1008.999512 
	C39.401672,1008.999512 41.360798,1008.999634 43.319923,1008.999634 
	C183.477997,1008.999634 323.636047,1009.005798 463.794128,1008.988953 
	C476.433472,1008.987427 489.006561,1010.466614 500.152344,1016.360352 
	C513.045532,1023.178223 525.191467,1031.427246 537.526123,1039.268433 
	C539.998474,1040.839966 541.627991,1041.070312 544.076294,1039.283569 
	C550.255859,1034.773560 556.717773,1030.652954 562.987061,1026.262817 
	C579.727905,1014.539795 598.251831,1008.938843 618.723206,1008.952087 
	C758.881226,1009.042542 899.039307,1008.999634 1039.197388,1008.999634 
	C1041.109741,1008.999634 1043.022095,1008.999512 1044.796875,1008.999512 
	C1044.796875,780.641479 1044.796875,553.035217 1044.796875,325.220886 
	C1032.860596,325.220886 1021.127136,325.220886 1009.000488,325.220886 
	C1009.000488,327.393005 1009.000366,329.351196 1009.000366,331.309387 
	C1009.000366,537.796692 1008.918884,744.284180 1009.170593,950.771179 
	C1009.188843,965.717102 1000.117981,973.200684 986.963623,973.169922 
	C864.638489,972.883423 742.312317,973.050842 619.986633,972.927246 
	C606.865601,972.914001 595.091187,976.300110 584.291809,983.635803 
	C573.691162,990.836487 562.980835,997.875854 552.307495,1004.969177 
	C544.132751,1010.401917 537.890503,1010.407593 529.665405,1004.949463 
	C519.128357,997.957153 508.575317,990.987549 498.107574,983.892395 
	C487.330963,976.588074 475.634430,972.909668 462.482300,972.928162 
	C366.821686,973.062561 271.160797,973.000427 174.500000,973.000427 
M485.437683,256.786102 
	C505.876923,249.185760 524.254761,253.221680 541.064819,266.883728 
	C542.151123,266.013641 543.139038,265.159393 544.189453,264.390503 
	C561.325317,251.847626 579.871460,249.140854 599.216125,258.026611 
	C619.080811,267.151245 629.435486,283.358215 630.934021,305.124786 
	C631.459167,312.752838 628.418701,318.863556 621.684509,322.634827 
	C609.998169,329.179321 596.022217,321.436951 595.108337,307.858704 
	C594.638977,300.885223 592.212585,295.208038 586.104309,291.601776 
	C573.646667,284.246796 559.053040,293.099884 559.030457,308.144501 
	C558.951355,360.799713 558.997986,413.455109 559.016357,466.110443 
	C559.016663,467.039551 559.260559,467.968597 559.355957,468.649292 
	C565.439209,468.649292 571.185730,468.649292 576.801147,468.649292 
	C577.011169,465.137115 576.988464,461.952148 577.422791,458.830780 
	C580.217773,438.744507 591.663025,425.236572 609.140747,415.632172 
	C666.495972,384.114075 694.513245,323.775970 681.952026,259.749817 
	C669.885986,198.247818 611.786011,148.069595 549.193542,145.169464 
	C507.644165,143.244354 471.760803,156.723022 441.385895,185.060379 
	C394.585175,228.721634 383.335632,302.695587 414.765930,358.401184 
	C429.172821,383.935150 449.263885,403.373169 475.095947,417.059570 
	C488.471954,424.146454 498.037201,434.724640 502.429108,449.287842 
	C504.312469,455.532928 504.732452,462.219360 505.814789,468.690063 
	C511.326691,468.690063 517.060486,468.690063 522.734802,468.690063 
	C522.857117,468.066223 522.972900,467.751221 522.973022,467.436249 
	C522.986877,414.114563 523.034424,360.792816 522.961975,307.471252 
	C522.947998,297.215790 515.412292,289.409485 505.715759,289.033936 
	C495.781708,288.649231 487.808136,296.110901 487.010223,306.538513 
	C486.126221,318.091949 478.191620,325.644348 467.702332,324.916473 
	C457.501801,324.208618 450.298859,315.683136 451.139923,304.455475 
	C452.820343,282.023743 464.222565,266.257721 485.437683,256.786102 
M612.999207,537.336670 
	C612.999207,526.591919 612.999207,515.847168 612.999207,505.352234 
	C564.564575,505.352234 516.846741,505.352234 469.364624,505.352234 
	C469.364624,517.438965 469.364624,529.172058 469.364624,540.999268 
	C497.710144,540.999268 525.691956,540.999268 553.673767,540.999268 
	C572.164490,540.999268 590.655273,541.005981 609.145996,540.988647 
	C611.002075,540.986877 613.478699,541.726196 612.999207,537.336670 
M562.366516,587.938171 
	C565.601257,584.615295 568.835999,581.292358 572.792603,577.227905 
	C551.031250,577.227905 530.848999,577.227905 510.553284,577.227905 
	C519.456360,595.094971 543.664795,600.238831 562.366516,587.938171 
z"/>
<path fill="#FFCFB0" opacity="1.000000" stroke="none" 
	d="
M1081.000000,302.531342 
	C1076.856812,292.136719 1068.784790,288.476227 1057.492188,288.861664 
	C1041.539917,289.406128 1025.554932,288.999603 1009.252197,288.999603 
	C1009.159912,287.336792 1009.012451,285.899811 1009.010864,284.462708 
	C1008.993958,269.301208 1008.495056,254.117950 1009.147034,238.984558 
	C1009.760010,224.756073 1000.458130,216.785248 987.231750,216.831223 
	C895.430908,217.150345 803.628296,216.999573 711.826294,216.999573 
	C709.833740,216.999573 707.841187,216.999573 707.343140,216.999573 
	C697.991577,202.957016 690.185364,188.927948 680.202698,176.671524 
	C648.526733,137.780411 607.664795,114.757545 557.415100,109.861687 
	C482.114044,102.525040 410.198212,143.766357 378.202606,212.331589 
	C376.550903,215.871201 374.842621,217.108154 370.879761,217.102417 
	C278.911316,216.969345 186.942062,217.162155 94.974655,216.826660 
	C80.960152,216.775528 72.322105,225.334396 72.846497,238.778778 
	C73.488823,255.246704 72.999573,271.758759 72.999573,288.748932 
	C71.528778,288.834534 70.111191,288.987305 68.693451,288.988800 
	C52.698921,289.005768 36.704296,288.969757 20.709856,289.010529 
	C10.735146,289.035980 4.975958,293.178101 1.289389,302.799988 
	C1.000000,202.385895 1.000000,101.771805 1.000000,1.000000 
	C179.354202,1.000000 357.708435,1.000000 536.314941,1.276016 
	C527.321472,4.754442 523.036194,10.563830 523.006226,20.092003 
	C522.970154,31.561142 522.939575,43.030869 523.015137,54.499626 
	C523.084900,65.085136 530.945984,73.052574 541.101135,72.997498 
	C551.231201,72.942558 558.925110,64.953972 558.988892,54.296631 
	C559.050537,43.991295 558.584412,33.663689 559.115845,23.385454 
	C559.688599,12.307405 555.345459,4.907259 545.000000,1.000000 
	C723.573425,1.000000 902.146790,1.000000 1081.000000,1.000000 
	C1081.000000,101.354057 1081.000000,201.708374 1081.000000,302.531342 
M732.493408,186.088608 
	C738.900146,190.790649 745.686218,191.409058 752.617310,187.525543 
	C762.917236,181.754440 773.205505,175.948959 783.307007,169.841080 
	C792.769165,164.119858 795.443420,153.899612 790.271118,144.886658 
	C785.261353,136.156952 774.713989,133.539108 765.113037,138.896881 
	C755.240784,144.406021 745.439209,150.049133 735.727051,155.835587 
	C723.799377,162.941986 722.259094,175.632172 732.493408,186.088608 
M289.242157,151.933197 
	C288.735321,159.839279 291.926056,165.884018 298.692535,169.871368 
	C308.858307,175.861832 318.947205,182.033676 329.458313,187.359711 
	C333.169128,189.239990 338.161987,189.870468 342.324585,189.296143 
	C349.631836,188.287933 354.989655,182.098877 355.974762,175.191940 
	C357.123108,167.140594 354.296722,160.677734 347.342896,156.475662 
	C337.531555,150.546890 327.577545,144.846893 317.579193,139.236786 
	C304.879669,132.111023 293.292786,137.070663 289.242157,151.933197 
M671.569214,98.054657 
	C678.448181,86.295074 685.681946,74.724701 692.087158,62.712471 
	C696.712036,54.038998 692.882690,43.855259 684.288208,39.240414 
	C676.041626,34.812401 665.829041,37.431683 660.763062,45.761322 
	C654.543152,55.988331 648.604736,66.392952 642.778503,76.851074 
	C637.862183,85.675850 639.650513,94.787178 647.052551,100.562935 
	C654.212158,106.149551 663.636475,105.376198 671.569214,98.054657 
M424.441895,104.173462 
	C438.405487,103.254456 446.193481,89.959328 439.609131,77.612801 
	C433.905457,66.917557 427.746918,56.451004 421.444946,46.092937 
	C416.058655,37.239880 405.648315,34.643307 397.184570,39.550915 
	C388.422089,44.631744 385.438538,54.954720 390.494843,64.165527 
	C396.248871,74.647346 402.292816,84.973999 408.389587,95.262100 
	C411.747589,100.928612 416.788208,104.127007 424.441895,104.173462 
z"/>
<path fill="#FFCFB0" opacity="1.000000" stroke="none" 
	d="
M545.468628,1081.000000 
	C556.956482,1073.242554 569.190430,1065.875000 580.793579,1057.620850 
	C593.065735,1048.890625 606.240417,1044.861938 621.352661,1044.882202 
	C767.661194,1045.078979 913.970093,1045.001831 1060.278931,1044.997070 
	C1071.281738,1044.996704 1076.774414,1041.267212 1080.710693,1031.200195 
	C1081.000000,1047.654175 1081.000000,1064.308472 1081.000000,1081.000000 
	C902.645752,1081.000000 724.291565,1081.000000 545.468628,1081.000000 
z"/>
<path fill="#FFCFB0" opacity="1.000000" stroke="none" 
	d="
M1.000000,1031.468628 
	C5.142055,1041.861694 13.228909,1045.159424 24.498999,1045.142822 
	C170.611389,1044.927734 316.724213,1045.024536 462.836884,1044.956055 
	C475.033020,1044.950317 486.100494,1047.993408 496.214447,1054.853271 
	C506.949127,1062.134155 517.804565,1069.239014 528.682861,1076.304321 
	C531.167236,1077.917847 533.961609,1079.054077 536.806641,1080.705078 
	C358.333313,1081.000000 179.666656,1081.000000 1.000000,1081.000000 
	C1.000000,1064.579590 1.000000,1048.258423 1.000000,1031.468628 
z"/>
<path fill="#010101" opacity="1.000000" stroke="none" 
	d="
M544.555847,1.000000 
	C555.345459,4.907259 559.688599,12.307405 559.115845,23.385454 
	C558.584412,33.663689 559.050537,43.991295 558.988892,54.296631 
	C558.925110,64.953972 551.231201,72.942558 541.101135,72.997498 
	C530.945984,73.052574 523.084900,65.085136 523.015137,54.499626 
	C522.939575,43.030869 522.970154,31.561142 523.006226,20.092003 
	C523.036194,10.563830 527.321472,4.754442 536.783569,1.276016 
	C539.370544,1.000000 541.741150,1.000000 544.555847,1.000000 
z"/>
<path fill="#FFCFB0" opacity="1.000000" stroke="none" 
	d="
M362.286682,267.387787 
	C357.083160,317.295135 369.384308,361.857208 400.106293,401.068146 
	C415.617157,420.864929 434.807220,436.378815 457.096771,448.040771 
	C465.387268,452.378387 469.832642,458.883148 468.815613,468.999817 
	C463.249329,468.999817 457.788696,468.955292 452.328979,469.009003 
	C440.470703,469.125671 433.048950,476.522278 433.017487,488.427612 
	C432.956757,511.425354 432.961761,534.423462 433.015167,557.421265 
	C433.043396,569.590210 440.455994,576.912537 452.673340,576.993225 
	C458.828064,577.033875 464.983276,577.000305 471.080078,577.000305 
	C483.096649,611.251343 506.242493,630.811218 543.091614,630.819946 
	C570.085449,630.826294 599.583618,613.551270 610.693054,577.000183 
	C616.890076,577.000183 623.203186,577.042175 629.515503,576.991211 
	C641.436340,576.894897 648.945129,569.536438 648.980042,557.720093 
	C649.048401,534.555664 649.050232,511.390808 648.978882,488.226440 
	C648.943237,476.636444 641.472168,469.161255 629.970642,469.012146 
	C624.495178,468.941162 619.018005,468.999939 613.592224,468.999939 
	C612.091919,459.888245 615.335999,453.412476 623.900024,448.858246 
	C645.768433,437.228912 665.107971,422.396149 680.535583,402.960266 
	C715.208496,359.278992 727.736267,309.941772 717.373291,254.976410 
	C717.282410,254.494034 717.290161,253.993073 717.232178,253.248596 
	C802.364197,253.248596 887.427063,253.248596 972.744873,253.248596 
	C972.744873,481.044312 972.744873,708.763855 972.744873,936.999695 
	C970.748901,936.999695 968.806763,936.999695 966.864624,936.999695 
	C851.874939,936.999695 736.885010,937.121094 621.895813,936.890625 
	C600.536682,936.847778 581.146729,942.005981 563.668030,954.279297 
	C562.580627,955.042847 561.423279,955.709473 560.274475,956.380188 
	C560.041077,956.516479 559.699707,956.467773 559.000305,956.555542 
	C559.000305,954.744202 559.000305,952.978516 559.000305,951.212830 
	C559.000305,875.386292 558.968811,799.559753 559.044983,723.733337 
	C559.053406,715.367798 556.519287,708.668762 548.643982,704.891541 
	C537.203613,699.404419 524.045776,707.110352 523.089905,719.782715 
	C522.952332,721.606628 523.002869,723.446411 523.002808,725.278809 
	C522.999146,800.438721 522.999695,875.598633 522.999695,950.758545 
	C522.999695,952.590332 522.999695,954.422119 522.999695,957.227783 
	C521.120605,956.043945 519.668335,955.210022 518.300537,954.255005 
	C500.951263,942.141479 481.753906,936.856384 460.557983,936.896423 
	C345.402069,937.113953 230.245529,936.999695 115.089211,936.999695 
	C113.272171,936.999695 111.455139,936.999695 109.319794,936.999695 
	C109.319794,709.085205 109.319794,481.365601 109.319794,253.323105 
	C194.084946,253.323105 278.981812,253.323105 364.342651,253.323105 
	C363.679840,257.878021 363.020203,262.411072 362.286682,267.387787 
M311.500000,900.999939 
	C363.142029,900.999939 414.784058,901.007690 466.426086,900.994690 
	C479.938660,900.991272 486.991760,893.903564 486.995300,880.337158 
	C487.007355,834.192444 487.005096,788.047668 486.996704,741.902954 
	C486.994202,728.028870 479.995941,721.004333 466.163055,721.003479 
	C366.043976,720.997070 265.924927,720.996948 165.805847,721.003723 
	C151.978928,721.004639 145.005829,728.017395 145.003296,741.907959 
	C144.994888,787.886108 144.996521,833.864197 145.002258,879.842346 
	C145.004028,894.090332 151.878052,900.995483 166.068665,900.997437 
	C214.212448,901.003967 262.356232,900.999939 311.500000,900.999939 
M937.000000,726.496765 
	C937.000000,683.685974 937.004517,640.875244 936.997375,598.064453 
	C936.994995,583.880676 930.080688,577.002869 915.826721,577.002136 
	C834.036743,576.997803 752.246765,576.998718 670.456787,577.001221 
	C655.841675,577.001648 649.003357,583.772949 649.001770,598.254517 
	C648.996826,643.896973 649.288391,689.542419 648.824646,735.180176 
	C648.685181,748.911316 657.137207,757.231140 670.906250,757.172180 
	C752.361633,756.823059 833.819153,757.000000 915.276001,757.000000 
	C916.275452,757.000000 917.275330,757.016968 918.274353,756.996521 
	C929.249817,756.771729 936.749146,749.378662 936.985474,738.488403 
	C937.065002,734.825378 936.999329,731.159241 937.000000,726.496765 
M724.500000,792.999817 
	C710.509277,792.999817 696.518616,792.999390 682.527893,793.000000 
	C659.376526,793.000916 636.224487,792.905945 613.074036,793.050293 
	C603.492615,793.110046 596.052124,800.034851 595.125244,809.142700 
	C594.210083,818.135803 599.902222,826.245789 608.931519,828.433350 
	C611.312927,829.010376 613.877258,828.978394 616.357727,828.979004 
	C716.125183,829.003784 815.892639,829.000732 915.660095,828.995667 
	C917.324463,828.995605 918.998718,829.032166 920.651611,828.875305 
	C933.052856,827.698425 940.539001,814.658386 935.179382,803.424561 
	C931.531128,795.777771 925.086548,792.962158 916.873657,792.969238 
	C853.082458,793.024658 789.291199,792.999817 724.500000,792.999817 
M460.478912,648.999817 
	C362.708710,648.999817 264.938477,648.999146 167.168274,649.005127 
	C165.171036,649.005249 163.160492,648.950378 161.178864,649.148376 
	C152.950974,649.970642 146.302414,656.411133 145.168304,664.547852 
	C144.060181,672.498169 148.431259,680.543579 156.037506,683.388000 
	C159.203690,684.571960 162.838989,684.934387 166.261520,684.937073 
	C266.030426,685.015015 365.799347,685.000427 465.568298,684.997742 
	C467.066772,684.997681 468.570129,685.030884 470.062927,684.927979 
	C478.761383,684.328613 485.806519,677.707520 486.851624,669.193298 
	C487.906799,660.596741 482.851074,652.375305 474.297882,650.066467 
	C470.222260,648.966370 465.756927,649.310120 460.478912,648.999817 
M911.467896,864.999878 
	C813.345703,864.999878 715.223572,864.999573 617.101379,865.002075 
	C615.269287,865.002136 613.427917,864.922363 611.606506,865.071106 
	C599.982544,866.020142 592.400269,877.362671 595.914185,888.483765 
	C598.492004,896.641846 605.200989,900.996399 615.291565,900.996887 
	C715.745972,901.002258 816.200317,901.000305 916.654724,900.997070 
	C917.986877,900.997009 919.327393,901.041748 920.649841,900.916199 
	C929.287903,900.096558 936.135132,893.232605 936.931335,884.645752 
	C937.731140,876.019897 932.347351,867.925964 923.836487,865.853882 
	C920.189087,864.965820 916.256470,865.248901 911.467896,864.999878 
M228.500000,576.999695 
	C206.683624,577.001099 184.866547,576.900757 163.051193,577.050781 
	C153.480469,577.116577 146.038651,584.057495 145.123642,593.162231 
	C144.220016,602.153564 149.928604,610.238281 158.943924,612.451416 
	C161.007828,612.958130 163.226517,612.978882 165.374039,612.979492 
	C247.810196,613.004150 330.246368,613.000854 412.682526,612.995728 
	C414.013611,612.995667 415.351959,613.003540 416.674561,612.877686 
	C424.876678,612.096619 431.609863,605.699524 432.823273,597.580872 
	C434.026978,589.527222 429.407684,581.223572 421.625244,578.440857 
	C418.586487,577.354370 415.127258,577.060791 411.858734,577.056641 
	C351.072571,576.979004 290.286255,576.999695 228.500000,576.999695 
M685.352905,447.255127 
	C684.077026,460.371399 691.536865,468.974670 704.456726,468.981720 
	C775.584595,469.020599 846.712524,469.020721 917.840393,468.978882 
	C928.981140,468.972351 937.039673,461.235565 936.992188,450.924347 
	C936.945557,440.793915 928.990967,433.036682 918.185425,433.028381 
	C846.724365,432.973358 775.263367,432.980133 703.802307,433.024261 
	C694.585693,433.029968 688.671387,437.589600 685.352905,447.255127 
M695.536560,539.256897 
	C698.605713,539.838074 701.674255,540.922485 704.744202,540.926636 
	C775.545227,541.022278 846.346313,541.011230 917.147461,540.989624 
	C928.798950,540.986084 936.928345,533.593445 936.992188,523.114807 
	C937.056091,512.624146 928.914551,505.018585 917.373718,505.013916 
	C846.406006,504.985321 775.438293,504.987762 704.470581,505.013550 
	C694.781860,505.017090 688.197388,509.791595 685.727478,518.342773 
	C683.397949,526.407898 686.688049,533.858887 695.536560,539.256897 
M152.262131,537.365601 
	C156.156967,538.577087 160.048676,540.833496 163.947083,540.845093 
	C235.251678,541.057190 306.557068,541.020935 377.862305,540.978394 
	C388.995819,540.971741 397.053925,533.212891 396.992157,522.897949 
	C396.930389,512.589111 388.877686,505.023560 377.654846,505.017914 
	C306.516205,504.982025 235.377579,505.005493 164.238937,504.992004 
	C155.915359,504.990417 149.790665,508.558319 146.392883,516.187012 
	C143.221527,523.307251 145.226517,530.633057 152.262131,537.365601 
M146.077957,457.056091 
	C149.583557,465.419312 155.987411,469.037933 164.925476,469.028503 
	C218.564316,468.971954 272.203247,469.000549 325.842163,469.000427 
	C343.333099,469.000397 360.824585,469.081421 378.314819,468.969482 
	C389.069092,468.900696 397.025177,461.077881 396.992126,450.948639 
	C396.959045,440.816559 389.006378,433.194153 378.208710,433.011383 
	C374.045380,432.940918 369.879883,432.999512 365.715363,432.999512 
	C298.750031,432.999512 231.784668,432.982330 164.819336,433.013519 
	C150.874863,433.020020 142.547516,443.349915 146.077957,457.056091 
M911.468140,360.999512 
	C858.170349,360.999512 804.872620,360.998444 751.574829,361.004089 
	C749.743835,361.004272 747.902222,360.957062 746.083679,361.126953 
	C736.751160,361.998688 729.894043,369.494995 729.833069,378.812836 
	C729.761719,389.721619 737.627563,396.985046 749.695129,396.990112 
	C805.491211,397.013550 861.287292,397.000793 917.083374,396.997894 
	C918.082153,396.997833 919.083923,397.002380 920.079163,396.931885 
	C928.773254,396.315460 935.815491,389.693329 936.853088,381.178406 
	C937.901001,372.578705 932.833069,364.413910 924.287109,362.049805 
	C920.533081,361.011383 916.409607,361.308685 911.468140,360.999512 
M268.500000,397.000488 
	C290.152527,397.000153 311.805389,397.070801 333.457458,396.970306 
	C344.764496,396.917847 352.512848,388.971954 352.161987,378.147919 
	C351.841309,368.254395 344.038727,361.033905 333.253693,361.024017 
	C276.790619,360.972351 220.327438,360.999481 163.864304,361.004456 
	C163.032761,361.004547 162.197540,361.034576 161.370209,361.114441 
	C148.122467,362.393280 140.771698,376.947693 147.709473,388.294861 
	C151.534470,394.550842 157.368774,397.031372 164.567230,397.021515 
	C198.878098,396.974426 233.189072,397.000458 268.500000,397.000488 
M852.500000,325.000885 
	C874.307617,325.000763 896.115173,324.990204 917.922791,325.006500 
	C925.151917,325.011902 930.908569,322.216187 934.545410,315.890869 
	C941.632812,303.564209 932.862610,289.111847 918.141602,289.036163 
	C892.505920,288.904358 866.869080,288.999176 841.232727,288.999146 
	C819.591675,288.999115 797.950500,289.025024 776.309509,288.984528 
	C769.310669,288.971436 763.636047,291.465363 759.853821,297.482086 
	C756.195435,303.301666 755.942566,309.414459 759.229492,315.459778 
	C762.718506,321.876770 768.352173,324.970398 775.589783,324.982819 
	C800.893127,325.026367 826.196594,325.000427 852.500000,325.000885 
M211.500000,325.000885 
	C212.665268,325.000885 213.830551,325.000885 214.995819,325.000885 
	C245.126877,325.000885 275.257996,324.969330 305.388947,325.022766 
	C313.007629,325.036285 319.066895,322.291656 322.759979,315.479584 
	C329.522583,303.005798 320.547150,289.046295 305.676758,289.024658 
	C258.565857,288.956024 211.454819,288.993561 164.343857,289.020966 
	C162.530899,289.022003 160.663254,289.118927 158.914505,289.550049 
	C149.924881,291.766235 144.214645,299.832336 145.121719,308.842163 
	C146.018097,317.745880 153.337173,324.790527 162.558044,324.918396 
	C178.536011,325.140045 194.519073,324.993195 211.500000,325.000885 
z"/>
<path fill="#FFCFB0" opacity="1.000000" stroke="none" 
	d="
M175.000000,973.000427 
	C271.160797,973.000427 366.821686,973.062561 462.482300,972.928162 
	C475.634430,972.909668 487.330963,976.588074 498.107574,983.892395 
	C508.575317,990.987549 519.128357,997.957153 529.665405,1004.949463 
	C537.890503,1010.407593 544.132751,1010.401917 552.307495,1004.969177 
	C562.980835,997.875854 573.691162,990.836487 584.291809,983.635803 
	C595.091187,976.300110 606.865601,972.914001 619.986633,972.927246 
	C742.312317,973.050842 864.638489,972.883423 986.963623,973.169922 
	C1000.117981,973.200684 1009.188843,965.717102 1009.170593,950.771179 
	C1008.918884,744.284180 1009.000366,537.796692 1009.000366,331.309387 
	C1009.000366,329.351196 1009.000488,327.393005 1009.000488,325.220886 
	C1021.127136,325.220886 1032.860596,325.220886 1044.796875,325.220886 
	C1044.796875,553.035217 1044.796875,780.641479 1044.796875,1008.999512 
	C1043.022095,1008.999512 1041.109741,1008.999634 1039.197388,1008.999634 
	C899.039307,1008.999634 758.881226,1009.042542 618.723206,1008.952087 
	C598.251831,1008.938843 579.727905,1014.539795 562.987061,1026.262817 
	C556.717773,1030.652954 550.255859,1034.773560 544.076294,1039.283569 
	C541.627991,1041.070312 539.998474,1040.839966 537.526123,1039.268433 
	C525.191467,1031.427246 513.045532,1023.178223 500.152344,1016.360352 
	C489.006561,1010.466614 476.433472,1008.987427 463.794128,1008.988953 
	C323.636047,1009.005798 183.477997,1008.999634 43.319923,1008.999634 
	C41.360798,1008.999634 39.401672,1008.999512 37.224636,1008.999512 
	C37.224636,780.889587 37.224636,553.165466 37.224636,325.220917 
	C49.127018,325.220917 60.860481,325.220917 72.999466,325.220917 
	C72.999466,327.378845 72.999466,329.335541 72.999466,331.292206 
	C72.999466,537.779541 73.081154,744.266968 72.825851,950.753967 
	C72.807762,965.382996 81.588280,973.479248 95.010414,973.176575 
	C121.494797,972.579346 148.002151,973.000427 175.000000,973.000427 
z"/>
<path fill="#FECEB0" opacity="1.000000" stroke="none" 
	d="
M485.070953,256.904480 
	C464.222565,266.257721 452.820343,282.023743 451.139923,304.455475 
	C450.298859,315.683136 457.501801,324.208618 467.702332,324.916473 
	C478.191620,325.644348 486.126221,318.091949 487.010223,306.538513 
	C487.808136,296.110901 495.781708,288.649231 505.715759,289.033936 
	C515.412292,289.409485 522.947998,297.215790 522.961975,307.471252 
	C523.034424,360.792816 522.986877,414.114563 522.973022,467.436249 
	C522.972900,467.751221 522.857117,468.066223 522.734802,468.690063 
	C517.060486,468.690063 511.326691,468.690063 505.814789,468.690063 
	C504.732452,462.219360 504.312469,455.532928 502.429108,449.287842 
	C498.037201,434.724640 488.471954,424.146454 475.095947,417.059570 
	C449.263885,403.373169 429.172821,383.935150 414.765930,358.401184 
	C383.335632,302.695587 394.585175,228.721634 441.385895,185.060379 
	C471.760803,156.723022 507.644165,143.244354 549.193542,145.169464 
	C611.786011,148.069595 669.885986,198.247818 681.952026,259.749817 
	C694.513245,323.775970 666.495972,384.114075 609.140747,415.632172 
	C591.663025,425.236572 580.217773,438.744507 577.422791,458.830780 
	C576.988464,461.952148 577.011169,465.137115 576.801147,468.649292 
	C571.185730,468.649292 565.439209,468.649292 559.355957,468.649292 
	C559.260559,467.968597 559.016663,467.039551 559.016357,466.110443 
	C558.997986,413.455109 558.951355,360.799713 559.030457,308.144501 
	C559.053040,293.099884 573.646667,284.246796 586.104309,291.601776 
	C592.212585,295.208038 594.638977,300.885223 595.108337,307.858704 
	C596.022217,321.436951 609.998169,329.179321 621.684509,322.634827 
	C628.418701,318.863556 631.459167,312.752838 630.934021,305.124786 
	C629.435486,283.358215 619.080811,267.151245 599.216125,258.026611 
	C579.871460,249.140854 561.325317,251.847626 544.189453,264.390503 
	C543.139038,265.159393 542.151123,266.013641 541.064819,266.883728 
	C524.254761,253.221680 505.876923,249.185760 485.070953,256.904480 
z"/>
<path fill="#FFCFB0" opacity="1.000000" stroke="none" 
	d="
M612.998901,537.820923 
	C613.478699,541.726196 611.002075,540.986877 609.145996,540.988647 
	C590.655273,541.005981 572.164490,540.999268 553.673767,540.999268 
	C525.691956,540.999268 497.710144,540.999268 469.364624,540.999268 
	C469.364624,529.172058 469.364624,517.438965 469.364624,505.352234 
	C516.846741,505.352234 564.564575,505.352234 612.999207,505.352234 
	C612.999207,515.847168 612.999207,526.591919 612.998901,537.820923 
z"/>
<path fill="#FCCDAE" opacity="1.000000" stroke="none" 
	d="
M562.056641,588.125610 
	C543.664795,600.238831 519.456360,595.094971 510.553284,577.227905 
	C530.848999,577.227905 551.031250,577.227905 572.792603,577.227905 
	C568.835999,581.292358 565.601257,584.615295 562.056641,588.125610 
z"/>
<path fill="#030202" opacity="1.000000" stroke="none" 
	d="
M732.216064,185.852142 
	C722.259094,175.632172 723.799377,162.941986 735.727051,155.835587 
	C745.439209,150.049133 755.240784,144.406021 765.113037,138.896881 
	C774.713989,133.539108 785.261353,136.156952 790.271118,144.886658 
	C795.443420,153.899612 792.769165,164.119858 783.307007,169.841080 
	C773.205505,175.948959 762.917236,181.754440 752.617310,187.525543 
	C745.686218,191.409058 738.900146,190.790649 732.216064,185.852142 
z"/>
<path fill="#030202" opacity="1.000000" stroke="none" 
	d="
M289.324982,151.529236 
	C293.292786,137.070663 304.879669,132.111023 317.579193,139.236786 
	C327.577545,144.846893 337.531555,150.546890 347.342896,156.475662 
	C354.296722,160.677734 357.123108,167.140594 355.974762,175.191940 
	C354.989655,182.098877 349.631836,188.287933 342.324585,189.296143 
	C338.161987,189.870468 333.169128,189.239990 329.458313,187.359711 
	C318.947205,182.033676 308.858307,175.861832 298.692535,169.871368 
	C291.926056,165.884018 288.735321,159.839279 289.324982,151.529236 
z"/>
<path fill="#030202" opacity="1.000000" stroke="none" 
	d="
M671.324829,98.322937 
	C663.636475,105.376198 654.212158,106.149551 647.052551,100.562935 
	C639.650513,94.787178 637.862183,85.675850 642.778503,76.851074 
	C648.604736,66.392952 654.543152,55.988331 660.763062,45.761322 
	C665.829041,37.431683 676.041626,34.812401 684.288208,39.240414 
	C692.882690,43.855259 696.712036,54.038998 692.087158,62.712471 
	C685.681946,74.724701 678.448181,86.295074 671.324829,98.322937 
z"/>
<path fill="#030202" opacity="1.000000" stroke="none" 
	d="
M424.002411,104.173462 
	C416.788208,104.127007 411.747589,100.928612 408.389587,95.262100 
	C402.292816,84.973999 396.248871,74.647346 390.494843,64.165527 
	C385.438538,54.954720 388.422089,44.631744 397.184570,39.550915 
	C405.648315,34.643307 416.058655,37.239880 421.444946,46.092937 
	C427.746918,56.451004 433.905457,66.917557 439.609131,77.612801 
	C446.193481,89.959328 438.405487,103.254456 424.002411,104.173462 
z"/>
<path fill="#000000" opacity="1.000000" stroke="none" 
	d="
M311.000000,900.999939 
	C262.356232,900.999939 214.212448,901.003967 166.068665,900.997437 
	C151.878052,900.995483 145.004028,894.090332 145.002258,879.842346 
	C144.996521,833.864197 144.994888,787.886108 145.003296,741.907959 
	C145.005829,728.017395 151.978928,721.004639 165.805847,721.003723 
	C265.924927,720.996948 366.043976,720.997070 466.163055,721.003479 
	C479.995941,721.004333 486.994202,728.028870 486.996704,741.902954 
	C487.005096,788.047668 487.007355,834.192444 486.995300,880.337158 
	C486.991760,893.903564 479.938660,900.991272 466.426086,900.994690 
	C414.784058,901.007690 363.142029,900.999939 311.000000,900.999939 
M181.000229,775.500610 
	C181.000229,805.255371 181.000229,835.010132 181.000229,864.710083 
	C271.312439,864.710083 361.029327,864.710083 450.702179,864.710083 
	C450.702179,828.692017 450.702179,792.964478 450.702179,757.290039 
	C360.687408,757.290039 270.970551,757.290039 181.000229,757.290039 
	C181.000229,763.218933 181.000229,768.860107 181.000229,775.500610 
z"/>
<path fill="#000000" opacity="1.000000" stroke="none" 
	d="
M937.000000,726.995605 
	C936.999329,731.159241 937.065002,734.825378 936.985474,738.488403 
	C936.749146,749.378662 929.249817,756.771729 918.274353,756.996521 
	C917.275330,757.016968 916.275452,757.000000 915.276001,757.000000 
	C833.819153,757.000000 752.361633,756.823059 670.906250,757.172180 
	C657.137207,757.231140 648.685181,748.911316 648.824646,735.180176 
	C649.288391,689.542419 648.996826,643.896973 649.001770,598.254517 
	C649.003357,583.772949 655.841675,577.001648 670.456787,577.001221 
	C752.246765,576.998718 834.036743,576.997803 915.826721,577.002136 
	C930.080688,577.002869 936.994995,583.880676 936.997375,598.064453 
	C937.004517,640.875244 937.000000,683.685974 937.000000,726.995605 
M900.999817,712.452881 
	C900.999817,679.370483 900.999817,646.288086 900.999817,613.308472 
	C828.655334,613.308472 756.935913,613.308472 685.315552,613.308472 
	C685.315552,649.344727 685.315552,685.071899 685.315552,720.688354 
	C757.350647,720.688354 829.069885,720.688354 900.999817,720.688354 
	C900.999817,718.064087 900.999817,715.749756 900.999817,712.452881 
z"/>
<path fill="#000000" opacity="1.000000" stroke="none" 
	d="
M725.000000,792.999817 
	C789.291199,792.999817 853.082458,793.024658 916.873657,792.969238 
	C925.086548,792.962158 931.531128,795.777771 935.179382,803.424561 
	C940.539001,814.658386 933.052856,827.698425 920.651611,828.875305 
	C918.998718,829.032166 917.324463,828.995605 915.660095,828.995667 
	C815.892639,829.000732 716.125183,829.003784 616.357727,828.979004 
	C613.877258,828.978394 611.312927,829.010376 608.931519,828.433350 
	C599.902222,826.245789 594.210083,818.135803 595.125244,809.142700 
	C596.052124,800.034851 603.492615,793.110046 613.074036,793.050293 
	C636.224487,792.905945 659.376526,793.000916 682.527893,793.000000 
	C696.518616,792.999390 710.509277,792.999817 725.000000,792.999817 
z"/>
<path fill="#000000" opacity="1.000000" stroke="none" 
	d="
M460.973511,648.999817 
	C465.756927,649.310120 470.222260,648.966370 474.297882,650.066467 
	C482.851074,652.375305 487.906799,660.596741 486.851624,669.193298 
	C485.806519,677.707520 478.761383,684.328613 470.062927,684.927979 
	C468.570129,685.030884 467.066772,684.997681 465.568298,684.997742 
	C365.799347,685.000427 266.030426,685.015015 166.261520,684.937073 
	C162.838989,684.934387 159.203690,684.571960 156.037506,683.388000 
	C148.431259,680.543579 144.060181,672.498169 145.168304,664.547852 
	C146.302414,656.411133 152.950974,649.970642 161.178864,649.148376 
	C163.160492,648.950378 165.171036,649.005249 167.168274,649.005127 
	C264.938477,648.999146 362.708710,648.999817 460.973511,648.999817 
z"/>
<path fill="#000000" opacity="1.000000" stroke="none" 
	d="
M911.960693,864.999878 
	C916.256470,865.248901 920.189087,864.965820 923.836487,865.853882 
	C932.347351,867.925964 937.731140,876.019897 936.931335,884.645752 
	C936.135132,893.232605 929.287903,900.096558 920.649841,900.916199 
	C919.327393,901.041748 917.986877,900.997009 916.654724,900.997070 
	C816.200317,901.000305 715.745972,901.002258 615.291565,900.996887 
	C605.200989,900.996399 598.492004,896.641846 595.914185,888.483765 
	C592.400269,877.362671 599.982544,866.020142 611.606506,865.071106 
	C613.427917,864.922363 615.269287,865.002136 617.101379,865.002075 
	C715.223572,864.999573 813.345703,864.999878 911.960693,864.999878 
z"/>
<path fill="#000000" opacity="1.000000" stroke="none" 
	d="
M229.000000,576.999695 
	C290.286255,576.999695 351.072571,576.979004 411.858734,577.056641 
	C415.127258,577.060791 418.586487,577.354370 421.625244,578.440857 
	C429.407684,581.223572 434.026978,589.527222 432.823273,597.580872 
	C431.609863,605.699524 424.876678,612.096619 416.674561,612.877686 
	C415.351959,613.003540 414.013611,612.995667 412.682526,612.995728 
	C330.246368,613.000854 247.810196,613.004150 165.374039,612.979492 
	C163.226517,612.978882 161.007828,612.958130 158.943924,612.451416 
	C149.928604,610.238281 144.220016,602.153564 145.123642,593.162231 
	C146.038651,584.057495 153.480469,577.116577 163.051193,577.050781 
	C184.866547,576.900757 206.683624,577.001099 229.000000,576.999695 
z"/>
<path fill="#000000" opacity="1.000000" stroke="none" 
	d="
M685.516113,446.878510 
	C688.671387,437.589600 694.585693,433.029968 703.802307,433.024261 
	C775.263367,432.980133 846.724365,432.973358 918.185425,433.028381 
	C928.990967,433.036682 936.945557,440.793915 936.992188,450.924347 
	C937.039673,461.235565 928.981140,468.972351 917.840393,468.978882 
	C846.712524,469.020721 775.584595,469.020599 704.456726,468.981720 
	C691.536865,468.974670 684.077026,460.371399 685.516113,446.878510 
z"/>
<path fill="#000000" opacity="1.000000" stroke="none" 
	d="
M695.182129,539.104431 
	C686.688049,533.858887 683.397949,526.407898 685.727478,518.342773 
	C688.197388,509.791595 694.781860,505.017090 704.470581,505.013550 
	C775.438293,504.987762 846.406006,504.985321 917.373718,505.013916 
	C928.914551,505.018585 937.056091,512.624146 936.992188,523.114807 
	C936.928345,533.593445 928.798950,540.986084 917.147461,540.989624 
	C846.346313,541.011230 775.545227,541.022278 704.744202,540.926636 
	C701.674255,540.922485 698.605713,539.838074 695.182129,539.104431 
z"/>
<path fill="#000000" opacity="1.000000" stroke="none" 
	d="
M151.967560,537.142944 
	C145.226517,530.633057 143.221527,523.307251 146.392883,516.187012 
	C149.790665,508.558319 155.915359,504.990417 164.238937,504.992004 
	C235.377579,505.005493 306.516205,504.982025 377.654846,505.017914 
	C388.877686,505.023560 396.930389,512.589111 396.992157,522.897949 
	C397.053925,533.212891 388.995819,540.971741 377.862305,540.978394 
	C306.557068,541.020935 235.251678,541.057190 163.947083,540.845093 
	C160.048676,540.833496 156.156967,538.577087 151.967560,537.142944 
z"/>
<path fill="#000000" opacity="1.000000" stroke="none" 
	d="
M145.994476,456.661804 
	C142.547516,443.349915 150.874863,433.020020 164.819336,433.013519 
	C231.784668,432.982330 298.750031,432.999512 365.715363,432.999512 
	C369.879883,432.999512 374.045380,432.940918 378.208710,433.011383 
	C389.006378,433.194153 396.959045,440.816559 396.992126,450.948639 
	C397.025177,461.077881 389.069092,468.900696 378.314819,468.969482 
	C360.824585,469.081421 343.333099,469.000397 325.842163,469.000427 
	C272.203247,469.000549 218.564316,468.971954 164.925476,469.028503 
	C155.987411,469.037933 149.583557,465.419312 145.994476,456.661804 
z"/>
<path fill="#000000" opacity="1.000000" stroke="none" 
	d="
M911.960999,360.999512 
	C916.409607,361.308685 920.533081,361.011383 924.287109,362.049805 
	C932.833069,364.413910 937.901001,372.578705 936.853088,381.178406 
	C935.815491,389.693329 928.773254,396.315460 920.079163,396.931885 
	C919.083923,397.002380 918.082153,396.997833 917.083374,396.997894 
	C861.287292,397.000793 805.491211,397.013550 749.695129,396.990112 
	C737.627563,396.985046 729.761719,389.721619 729.833069,378.812836 
	C729.894043,369.494995 736.751160,361.998688 746.083679,361.126953 
	C747.902222,360.957062 749.743835,361.004272 751.574829,361.004089 
	C804.872620,360.998444 858.170349,360.999512 911.960999,360.999512 
z"/>
<path fill="#000000" opacity="1.000000" stroke="none" 
	d="
M268.000000,397.000488 
	C233.189072,397.000458 198.878098,396.974426 164.567230,397.021515 
	C157.368774,397.031372 151.534470,394.550842 147.709473,388.294861 
	C140.771698,376.947693 148.122467,362.393280 161.370209,361.114441 
	C162.197540,361.034576 163.032761,361.004547 163.864304,361.004456 
	C220.327438,360.999481 276.790619,360.972351 333.253693,361.024017 
	C344.038727,361.033905 351.841309,368.254395 352.161987,378.147919 
	C352.512848,388.971954 344.764496,396.917847 333.457458,396.970306 
	C311.805389,397.070801 290.152527,397.000153 268.000000,397.000488 
z"/>
<path fill="#010100" opacity="1.000000" stroke="none" 
	d="
M852.000000,325.000885 
	C826.196594,325.000427 800.893127,325.026367 775.589783,324.982819 
	C768.352173,324.970398 762.718506,321.876770 759.229492,315.459778 
	C755.942566,309.414459 756.195435,303.301666 759.853821,297.482086 
	C763.636047,291.465363 769.310669,288.971436 776.309509,288.984528 
	C797.950500,289.025024 819.591675,288.999115 841.232727,288.999146 
	C866.869080,288.999176 892.505920,288.904358 918.141602,289.036163 
	C932.862610,289.111847 941.632812,303.564209 934.545410,315.890869 
	C930.908569,322.216187 925.151917,325.011902 917.922791,325.006500 
	C896.115173,324.990204 874.307617,325.000763 852.000000,325.000885 
z"/>
<path fill="#010100" opacity="1.000000" stroke="none" 
	d="
M211.000000,325.000885 
	C194.519073,324.993195 178.536011,325.140045 162.558044,324.918396 
	C153.337173,324.790527 146.018097,317.745880 145.121719,308.842163 
	C144.214645,299.832336 149.924881,291.766235 158.914505,289.550049 
	C160.663254,289.118927 162.530899,289.022003 164.343857,289.020966 
	C211.454819,288.993561 258.565857,288.956024 305.676758,289.024658 
	C320.547150,289.046295 329.522583,303.005798 322.759979,315.479584 
	C319.066895,322.291656 313.007629,325.036285 305.388947,325.022766 
	C275.257996,324.969330 245.126877,325.000885 214.995819,325.000885 
	C213.830551,325.000885 212.665268,325.000885 211.000000,325.000885 
z"/>
<path fill="#FFCFB0" opacity="1.000000" stroke="none" 
	d="
M181.000229,775.000977 
	C181.000229,768.860107 181.000229,763.218933 181.000229,757.290039 
	C270.970551,757.290039 360.687408,757.290039 450.702179,757.290039 
	C450.702179,792.964478 450.702179,828.692017 450.702179,864.710083 
	C361.029327,864.710083 271.312439,864.710083 181.000229,864.710083 
	C181.000229,835.010132 181.000229,805.255371 181.000229,775.000977 
z"/>
<path fill="#FFCFB0" opacity="1.000000" stroke="none" 
	d="
M900.999817,712.944153 
	C900.999817,715.749756 900.999817,718.064087 900.999817,720.688354 
	C829.069885,720.688354 757.350647,720.688354 685.315552,720.688354 
	C685.315552,685.071899 685.315552,649.344727 685.315552,613.308472 
	C756.935913,613.308472 828.655334,613.308472 900.999817,613.308472 
	C900.999817,646.288086 900.999817,679.370483 900.999817,712.944153 
z"/>
</svg>