<svg version="1.1" id="Layer_1" xmlns="http://www.w3.org/2000/svg" xmlns:xlink="http://www.w3.org/1999/xlink" x="0px" y="0px"
	 width="100%" viewBox="0 0 1024 1024" enable-background="new 0 0 1024 1024" xml:space="preserve">
<path fill="#000000" opacity="1.000000" stroke="none" 
	d="
M391.449982,1025.000000 
	C384.050079,1020.520752 383.828979,1013.059631 382.754852,1006.062561 
	C379.497864,984.845703 377.222168,963.512085 375.832611,942.096069 
	C375.564911,937.970337 372.780792,937.986694 370.121277,937.272705 
	C351.611908,932.303406 340.368744,920.418274 336.416046,901.685425 
	C334.482941,892.523926 336.320587,883.400330 337.262970,874.342651 
	C340.289551,845.253296 347.609039,817.096863 356.531128,789.320496 
	C356.976227,787.934814 357.712738,786.545105 357.093933,784.545471 
	C350.290161,783.139099 343.315186,781.725342 336.353088,780.250977 
	C328.536926,778.595642 320.713196,776.968994 312.928131,775.176331 
	C304.847260,773.315491 301.405975,768.067261 302.447357,759.759155 
	C302.964508,755.633545 303.337128,751.487610 303.683807,747.343140 
	C305.218811,728.992920 318.369507,714.381042 336.562042,710.584900 
	C339.266083,710.020691 343.389862,710.906433 343.999939,706.997192 
	C344.566193,703.368958 340.467133,703.082703 338.282013,701.744934 
	C314.598602,687.245056 292.607697,670.637939 273.074982,650.807434 
	C260.705200,638.249023 253.986694,623.209595 252.986832,605.787903 
	C252.325531,594.265625 256.353912,583.571167 260.416656,572.949219 
	C275.345367,533.918640 294.737396,497.127136 316.238098,461.400177 
	C322.934784,450.272461 330.045349,439.392548 337.048950,428.452026 
	C338.183411,426.679840 338.733398,424.977875 338.583527,422.852173 
	C336.377045,391.558655 341.331329,361.189423 350.496765,331.370209 
	C351.123962,329.329651 352.158112,327.355377 351.772217,324.963257 
	C349.621948,323.635071 347.291901,324.372833 345.071808,324.620850 
	C324.716858,326.895233 305.418671,316.758453 296.038910,298.792206 
	C285.827637,279.233185 288.093811,257.985199 302.231689,242.056320 
	C327.089294,214.049713 354.410553,188.730377 384.991638,167.053665 
	C388.989685,164.219742 390.357697,161.439606 389.816467,156.382919 
	C387.144531,131.419418 388.966980,106.806313 397.603638,83.019447 
	C409.995728,48.889496 433.916351,25.920286 466.937500,11.813803 
	C478.644287,6.812720 490.906769,3.821459 503.660553,1.157940 
	C512.687561,1.000000 521.375183,1.000000 530.531372,1.000000 
	C555.025696,4.814416 575.378479,15.637018 592.289795,33.063271 
	C603.163025,44.267563 612.321106,56.743099 619.150574,70.761543 
	C621.505615,75.595596 624.437683,77.328148 629.598145,76.677002 
	C649.317078,74.188881 669.156128,74.222893 688.951538,74.919579 
	C699.865417,75.303703 710.940186,75.086571 721.604187,78.458878 
	C747.040955,86.502815 761.850525,113.572220 754.474731,139.189316 
	C753.305969,143.248520 753.698425,146.191010 756.150208,149.733124 
	C762.784058,159.317383 762.080933,170.337708 760.648193,181.131790 
	C759.384949,190.648865 755.613953,199.412659 750.311890,207.437561 
	C748.756409,209.791763 748.083557,212.135880 748.536072,214.961060 
	C753.164917,243.855713 757.808838,272.748322 762.298096,301.664825 
	C765.943665,325.147034 770.186584,348.577698 772.642212,372.189514 
	C774.377380,388.873322 768.203857,403.946014 757.121277,416.704895 
	C752.837036,421.637024 747.730591,425.613281 742.192810,429.127075 
	C705.338196,452.512146 668.569824,476.033386 631.681763,499.365417 
	C627.831421,501.800812 626.975647,504.298950 627.785767,508.793335 
	C632.468811,534.775146 629.019714,558.917969 610.233398,579.072937 
	C602.870117,586.972595 594.140625,593.116882 584.059143,597.003357 
	C580.219971,598.483398 579.113159,600.584290 579.265076,604.450195 
	C579.683594,615.098938 578.964783,625.762024 579.713379,636.422546 
	C580.784485,651.675720 587.517639,664.058167 598.186768,674.658203 
	C618.911377,695.248596 635.995300,718.585999 649.760925,744.307678 
	C672.517517,786.829224 685.874573,832.260498 691.010010,880.145203 
	C693.174683,900.329407 679.140625,920.900879 659.188965,926.764160 
	C652.971985,928.591064 646.620850,930.279785 640.213745,931.033020 
	C635.716675,931.561646 634.702942,933.757751 634.382324,937.454590 
	C632.886292,954.703430 630.613342,971.862488 628.226746,989.004761 
	C627.103882,997.070129 625.491028,1005.072449 624.546997,1013.155579 
	C623.950989,1018.258911 621.623535,1021.857727 617.192627,1024.724365 
	C614.629456,1025.000000 612.258850,1025.000000 609.191528,1024.777344 
	C603.331604,1022.039734 600.334045,1017.922729 601.034485,1012.179688 
	C602.523010,999.974854 604.591614,987.841797 606.170959,975.646790 
	C607.836731,962.783630 609.233337,949.885376 610.690918,936.995972 
	C610.980347,934.436340 611.046936,932.058105 607.486084,931.359314 
	C589.160034,927.762756 570.867126,926.656982 552.495544,931.110352 
	C545.069214,932.910461 537.663879,935.186157 529.963623,935.230713 
	C525.614075,935.255920 524.245361,936.677063 524.284668,941.051880 
	C524.484863,963.382019 524.432678,985.714844 524.375671,1008.046509 
	C524.353455,1016.740906 519.892151,1021.548645 512.348267,1021.364258 
	C505.285461,1021.191650 501.241974,1015.968018 501.306366,1007.611877 
	C501.466736,986.789917 501.568817,965.966675 501.526794,945.144287 
	C501.506042,934.870911 501.307892,934.984070 491.422974,932.322327 
	C476.771393,928.376953 462.007233,927.373718 446.882263,928.982605 
	C431.399506,930.629456 417.172424,937.748230 401.589478,938.739319 
	C399.193085,938.891724 398.335205,940.429932 398.553314,942.929871 
	C400.403473,964.135437 402.127991,985.367310 406.207306,1006.284363 
	C407.710419,1013.991882 407.221436,1020.462036 400.000000,1025.000000 
	C397.299988,1025.000000 394.599976,1025.000000 391.449982,1025.000000 
M363.358490,854.716919 
	C360.923157,867.320496 359.579987,880.067139 358.538422,892.842529 
	C357.641815,903.839355 365.129883,913.742126 375.970825,915.686951 
	C389.437592,918.102783 402.907379,917.740295 415.983765,913.583801 
	C442.655212,905.106018 469.455414,903.439392 496.660645,910.749451 
	C512.773254,915.078979 528.912598,914.843506 544.994019,910.377563 
	C565.975037,904.550964 587.152161,904.493774 608.287354,909.041687 
	C623.480408,912.310913 638.129211,910.173462 652.581238,905.782410 
	C663.007751,902.614380 669.572510,892.706177 668.360596,883.015137 
	C667.080383,872.777954 665.840637,862.539001 663.775452,852.406860 
	C651.251099,790.960876 626.042786,736.042419 581.201111,691.148804 
	C568.203308,678.135925 559.511902,662.631042 557.481750,644.313293 
	C555.462463,626.093811 556.735046,607.697266 556.924377,589.382141 
	C556.970886,584.883301 560.189636,581.842834 564.481262,580.331604 
	C566.360474,579.669861 568.331848,579.275146 570.233826,578.672180 
	C593.056335,571.438293 606.484009,553.818298 606.956665,530.651184 
	C607.265442,515.512573 604.081238,501.006104 597.094116,487.760223 
	C586.192078,467.092743 582.722229,444.680206 579.800537,422.042480 
	C579.057556,416.285950 578.149597,415.429596 572.404297,415.395996 
	C566.628479,415.362244 568.304871,419.479553 568.231995,422.441284 
	C567.927368,434.826172 566.437256,446.998962 562.294067,458.743317 
	C552.174622,487.428162 524.076538,502.697083 494.541840,495.576660 
	C464.033203,488.221405 445.785614,467.950165 441.419342,437.285706 
	C440.561493,431.260956 441.494476,425.123230 440.053406,418.859375 
	C436.638855,419.892792 433.680817,421.307983 430.616730,421.596313 
	C425.742157,422.054993 424.681244,425.075958 424.453613,429.026245 
	C423.357269,448.052673 418.199158,466.086700 410.560120,483.391846 
	C405.970184,493.789642 401.872742,504.261810 399.602264,515.430176 
	C395.695190,534.648804 398.623657,551.898132 413.697418,565.764099 
	C426.237793,577.299683 440.817169,582.723633 457.994812,580.919617 
	C465.769226,580.103149 471.210999,584.317383 472.135529,591.130920 
	C472.960205,597.208557 468.577362,602.333130 461.322479,603.698730 
	C454.584167,604.967102 447.782471,604.076782 441.133514,603.934814 
	C439.920471,605.881775 440.330933,607.760437 440.323669,609.549438 
	C440.279663,620.382019 440.234924,631.215271 440.308228,642.047424 
	C440.405182,656.375671 436.858124,669.806030 429.875763,682.205322 
	C399.451630,736.232300 375.872437,792.883362 363.358490,854.716919 
M650.970642,250.280945 
	C646.115540,262.752655 638.683838,272.810303 625.292664,277.012115 
	C621.886658,278.080811 622.381897,280.568878 622.315369,283.007629 
	C621.419250,315.813416 596.656494,344.985413 564.563538,351.428864 
	C554.996582,353.349670 545.506836,353.395813 536.165955,351.752075 
	C535.756409,352.523224 535.527161,352.794556 535.470581,353.098083 
	C535.380005,353.583344 535.315674,354.104095 535.392517,354.585541 
	C537.514282,367.879730 542.418762,379.860382 551.861633,389.743988 
	C553.404724,391.359070 555.164185,391.766754 557.245605,391.775665 
	C565.242432,391.809937 573.244263,391.756378 581.233276,392.043182 
	C585.250854,392.187347 587.758545,390.510132 589.823120,387.267944 
	C594.566528,379.819031 596.861389,371.529236 598.753174,363.040558 
	C599.798035,358.352264 599.543335,353.390839 601.775696,348.951874 
	C604.131042,344.268433 609.254822,341.666229 614.213989,342.707092 
	C619.281372,343.770660 623.043945,348.046051 623.296326,353.253204 
	C623.432983,356.072662 623.362732,358.882202 622.739258,361.697601 
	C621.496704,367.307800 620.484253,372.968964 619.349487,378.747711 
	C620.274536,378.828674 620.808838,379.037811 621.206665,378.886963 
	C638.339111,372.392303 655.212585,365.272522 671.944275,357.811768 
	C673.957764,356.913940 674.242554,355.398926 674.071594,353.315887 
	C673.241089,343.194489 673.512085,333.031738 673.034668,322.883606 
	C671.853699,297.780792 671.680725,272.631165 670.551636,247.525101 
	C670.087830,237.212921 670.342896,226.861649 669.372986,216.594757 
	C667.622681,198.066971 672.768005,182.016693 685.734497,168.647446 
	C693.156555,160.994736 700.882812,153.637863 708.412476,146.088303 
	C713.752808,140.733871 719.941711,136.982651 727.545288,136.173065 
	C730.591248,135.848740 731.891541,134.365097 732.536682,131.623413 
	C735.796204,117.770538 727.035645,103.300575 713.143372,100.230186 
	C705.490723,98.538849 697.595825,98.539665 689.798401,98.365677 
	C663.306396,97.774559 636.909363,98.883919 610.543640,102.002068 
	C574.977600,106.208298 540.299622,114.130615 506.851501,126.681786 
	C472.567749,139.546509 440.790009,157.433762 410.541351,178.079437 
	C377.347321,200.735428 347.357635,226.990875 320.817963,257.154755 
	C313.088928,265.939240 311.072571,276.036377 316.233124,286.799072 
	C321.185486,297.127655 329.803619,302.045105 341.221832,301.809052 
	C346.374542,301.702515 351.521271,300.906982 356.666229,300.950958 
	C360.859711,300.986786 363.358276,299.562195 365.172791,295.656708 
	C370.088898,285.075317 375.603394,274.772949 382.399109,265.262115 
	C403.865997,235.218521 430.493225,210.516769 461.293915,190.335587 
	C492.440582,169.927765 525.581299,153.984268 562.339722,146.302750 
	C590.562988,140.404831 616.322754,157.531967 621.500610,185.820755 
	C622.958130,193.783737 622.181091,201.769714 622.223816,209.738632 
	C622.244019,213.507828 623.539429,214.748840 627.144775,214.648499 
	C632.804626,214.490997 638.475952,214.536911 644.137207,214.689621 
	C650.996521,214.874680 655.213867,219.234665 655.419556,226.068512 
	C655.663879,234.187775 653.867249,241.939301 650.970642,250.280945 
M357.762390,441.230103 
	C352.509247,449.531921 347.151245,457.769531 342.020813,466.146545 
	C318.063660,505.264343 296.426697,545.552063 280.146301,588.562866 
	C273.350403,606.516785 276.665802,622.108826 290.124969,635.698608 
	C311.268219,657.047058 335.274719,674.563049 361.557709,688.998474 
	C372.116119,694.797424 373.701843,699.322205 368.537292,710.412842 
	C366.007263,715.846069 363.662567,721.366333 361.089233,726.778381 
	C358.637665,731.934326 354.549377,734.601257 348.711639,734.313232 
	C347.048492,734.231201 345.380707,734.165100 343.716675,734.192078 
	C333.973755,734.350159 326.420288,742.119324 326.319244,751.845459 
	C326.293854,754.288391 327.048676,755.417847 329.525269,755.903625 
	C338.672424,757.697632 347.743774,759.896057 356.915771,761.539856 
	C364.365601,762.875000 367.021240,761.184753 369.810425,754.115723 
	C378.623169,731.780884 389.013245,710.178040 400.068573,688.888916 
	C403.698700,681.898376 403.934082,681.900513 398.393616,676.272034 
	C375.959259,653.481262 353.472748,630.741821 331.002533,607.986328 
	C324.141418,601.038025 323.705536,596.696899 329.128693,588.599731 
	C341.315826,570.403687 355.232422,553.662598 371.285065,538.739380 
	C373.191803,536.966736 374.710815,535.231445 374.629303,532.402222 
	C374.068207,512.927490 380.040253,495.039001 388.002625,477.631989 
	C394.900208,462.552765 399.474731,446.809845 401.549896,430.332764 
	C402.054932,426.322693 400.731934,424.749329 396.682831,425.268890 
	C386.044098,426.634033 375.756226,429.146362 366.187592,434.161133 
	C363.080292,435.789581 359.934235,437.359619 357.762390,441.230103 
M640.227661,467.695312 
	C670.155212,448.624969 700.200378,429.735718 729.960999,410.408447 
	C745.012939,400.633453 751.580994,386.488495 748.812988,368.448303 
	C747.174011,357.767059 745.448608,347.099091 743.782898,336.421906 
	C737.836914,298.307434 732.070312,260.163727 725.845642,222.094864 
	C724.178101,211.896454 723.833069,202.831024 730.896973,193.966812 
	C736.688232,186.699615 738.497986,177.449127 737.837402,167.944595 
	C737.591980,164.413651 736.987732,161.250626 733.264771,159.833359 
	C729.712769,158.481201 727.179016,160.423309 724.853271,162.730698 
	C716.933960,170.587555 708.943909,178.376022 701.157288,186.362549 
	C695.315186,192.354568 692.319519,199.792267 692.556763,208.096191 
	C693.274231,233.214340 694.322144,258.322937 695.215149,283.436188 
	C696.126160,309.056976 696.942383,334.681366 697.940125,360.298706 
	C698.225830,367.634979 695.545349,372.848389 688.658569,375.777924 
	C682.068237,378.581390 675.579651,381.627258 668.961914,384.362305 
	C647.877563,393.076233 626.752319,401.691437 605.647766,410.356537 
	C603.551086,411.217346 601.196411,411.585602 601.638367,415.012482 
	C603.232849,427.376465 604.819519,439.738251 607.682251,451.886200 
	C610.052002,461.942108 613.743286,471.471436 619.367249,480.543915 
	C626.788208,476.982086 632.865662,471.968323 640.227661,467.695312 
M374.876984,334.297638 
	C366.982178,358.559753 362.251831,383.320862 362.255005,409.128967 
	C363.590271,409.019409 364.108612,409.087341 364.540833,408.925415 
	C380.645447,402.892242 397.340637,400.617645 414.475983,400.670868 
	C433.865265,400.731049 451.370972,386.627136 455.777527,367.694519 
	C458.337036,356.697723 458.763489,345.479492 456.951935,334.458527 
	C453.035095,310.629547 458.181427,290.397614 476.024475,273.000977 
	C493.922577,255.550690 505.414886,233.989273 510.230438,209.215622 
	C511.476349,202.806015 512.660645,196.320084 511.190857,189.741486 
	C508.353180,189.843430 506.525146,191.065399 504.614960,192.034958 
	C483.571686,202.716110 464.178375,215.848953 446.112244,231.024597 
	C413.103729,258.751892 388.319214,292.122101 374.876984,334.297638 
M532.965576,25.481319 
	C523.535583,24.030222 514.087830,23.561991 504.646301,25.277954 
	C475.412445,30.591106 450.437866,43.297535 432.328003,67.565407 
	C418.003845,86.760300 413.086121,108.967339 412.373474,132.379395 
	C412.225677,137.234528 411.591949,142.253067 414.209106,147.686859 
	C470.124695,110.712296 531.709534,89.772202 597.483521,80.002045 
	C588.837463,59.741573 565.098083,31.735670 532.965576,25.481319 
M519.100586,380.196991 
	C514.499756,368.795532 512.782410,356.795685 511.832092,344.654053 
	C511.665527,342.525909 511.171173,340.909576 509.326355,339.572815 
	C497.987335,331.356506 488.516785,321.415161 481.652344,309.113831 
	C481.479767,308.804565 480.941071,308.699646 480.556763,308.490509 
	C479.414337,310.647491 479.372803,312.802704 479.272980,314.974945 
	C478.911896,322.832336 480.457153,330.557068 480.826843,338.362091 
	C481.695007,356.689209 481.009430,374.847809 471.021759,391.004089 
	C467.385406,396.886353 465.433197,402.947968 464.571869,409.581390 
	C464.207794,412.385223 463.865875,415.198212 463.680115,418.018005 
	C461.978394,443.849487 471.640106,466.373596 500.900940,472.994537 
	C515.962280,476.402527 530.494263,469.943390 537.460571,456.233063 
	C543.665894,444.020355 544.933044,430.819946 544.552002,417.368896 
	C544.482727,414.925232 543.388062,412.948425 541.460083,411.348755 
	C531.509705,403.092743 524.316772,392.819061 519.100586,380.196991 
M597.140564,295.570709 
	C597.892822,292.505951 599.045654,289.474335 599.302490,286.368622 
	C599.677490,281.833374 601.507751,276.493866 598.296875,272.927490 
	C595.180420,269.465973 591.537170,266.256805 588.063538,262.611755 
	C577.914062,273.394196 565.663452,278.368256 551.223999,277.676025 
	C536.455322,276.968018 525.201233,269.899200 516.885498,257.301178 
	C510.799622,266.881317 505.051331,275.641113 497.967072,283.406281 
	C496.327576,285.203339 496.711670,286.896973 497.599426,288.876465 
	C501.308014,297.145691 505.950745,304.853729 512.235901,311.367523 
	C523.277283,322.810516 536.398682,330.876953 552.793945,329.412354 
	C573.915222,327.525574 589.092468,316.550476 597.140564,295.570709 
M374.173096,568.682434 
	C367.451294,576.298584 361.062225,584.174072 355.001770,592.336304 
	C352.787140,595.319031 352.751740,597.053711 355.515076,599.811951 
	C370.007904,614.277893 384.239105,629.005676 398.590820,643.613403 
	C403.675018,648.788269 408.842957,653.880920 414.424561,659.463074 
	C415.837067,655.264893 416.707214,651.756226 416.733307,648.092346 
	C416.828217,634.771484 416.323029,621.417542 417.122894,608.141052 
	C417.633148,599.671692 415.682098,593.665771 407.493011,590.429932 
	C406.591492,590.073730 405.858185,589.294739 405.042084,588.718689 
	C395.104736,581.704834 387.212494,572.849915 381.227600,561.108826 
	C378.672516,563.855530 376.664032,566.014648 374.173096,568.682434 
M556.890808,171.441818 
	C550.705322,173.367920 544.524231,175.308243 538.332092,177.212723 
	C536.031433,177.920319 534.788452,178.973221 535.023010,181.822769 
	C535.789062,191.128708 535.284180,200.410828 533.515747,209.599335 
	C532.943481,212.572723 534.032288,213.948166 537.145386,213.941696 
	C556.601318,213.901306 576.057495,213.895447 595.513367,213.955383 
	C598.498108,213.964569 599.702087,212.751328 599.641785,209.787781 
	C599.530151,204.302368 599.840271,198.800430 599.548096,193.328140 
	C598.696350,177.377197 585.990051,166.524292 570.303101,168.420563 
	C566.045837,168.935211 561.892761,170.311203 556.890808,171.441818 
M550.503357,237.326324 
	C546.191833,237.336090 541.880249,237.358536 537.568726,237.350952 
	C534.943298,237.346329 534.018677,238.303467 534.823120,241.062531 
	C537.544922,250.397705 545.358643,255.400040 556.405151,254.666412 
	C564.984436,254.096634 573.674561,246.166260 574.810547,237.325409 
	C566.997681,237.325409 559.249939,237.325409 550.503357,237.326324 
M614.843506,254.658066 
	C623.191650,254.378555 629.032349,247.904556 629.883728,237.398956 
	C621.750122,237.398956 613.651611,237.376038 605.553528,237.417419 
	C603.843506,237.426163 603.392395,238.594757 603.406311,240.138550 
	C603.453613,245.386581 608.700134,252.536728 614.843506,254.658066 
z"/>
</svg>