<svg version="1.1" id="Layer_1" xmlns="http://www.w3.org/2000/svg" xmlns:xlink="http://www.w3.org/1999/xlink" x="0px" y="0px"
	 width="100%" viewBox="0 0 1080 1080" enable-background="new 0 0 1080 1080" xml:space="preserve">
<path fill="#000000" opacity="1.000000" stroke="none" 
	d="
M0.999997,573.000000 
	C1.000000,563.974182 1.000000,554.948303 1.353761,545.267334 
	C5.828456,513.610413 19.066969,487.297852 42.119968,466.032379 
	C90.740662,421.181763 166.592178,422.161926 214.100937,468.239136 
	C214.819443,468.935974 215.723557,469.441437 217.000000,470.370178 
	C217.000000,313.433014 217.000000,157.216507 217.000000,1.000000 
	C504.956665,1.000000 792.913330,1.000000 1080.935059,1.000000 
	C1080.935059,360.902466 1080.935059,720.804932 1080.935059,1081.000000 
	C793.307556,1081.000000 505.615021,1081.000000 217.460999,1080.531372 
	C216.999512,1044.474121 216.999512,1008.885498 216.999512,972.869934 
	C204.734314,972.869934 192.997177,972.869934 180.849152,972.869934 
	C180.849152,948.713501 180.849152,924.983459 180.849152,900.841553 
	C144.701874,900.841553 108.976616,900.841553 72.829056,900.841553 
	C72.829056,882.693909 72.829056,864.961182 72.829056,847.000000 
	C48.602024,847.000000 24.801012,847.000000 1.000000,847.000000 
	C1.000000,799.307495 1.000000,751.614990 1.468657,703.461670 
	C25.522087,703.000854 49.106857,703.000854 72.549477,703.000854 
	C72.791542,702.182068 72.957954,701.880371 72.958862,701.578064 
	C72.983261,693.419250 72.853088,685.256714 73.069901,677.103333 
	C73.154564,673.919312 72.291481,672.287170 69.266258,670.654175 
	C34.022713,651.629761 11.863753,622.622009 3.413862,583.328369 
	C2.670666,579.872375 1.807464,576.442200 0.999997,573.000000 
M469.000336,675.891052 
	C469.000336,684.829651 469.000336,693.768311 469.000336,702.996765 
	C485.664001,702.996765 501.798676,703.036255 517.932495,702.934204 
	C519.508972,702.924255 521.141663,702.186523 522.644287,701.543518 
	C554.730652,687.810913 586.798462,674.034851 618.878113,660.286560 
	C634.728455,653.493652 650.595520,646.739685 666.688660,639.868347 
	C666.688660,730.125488 666.688660,819.932739 666.688660,910.143250 
	C664.932800,909.383057 663.585449,908.794006 662.233582,908.215210 
	C615.789429,888.331116 569.345581,868.446228 522.896301,848.574158 
	C521.530945,847.989929 520.109985,847.105896 518.710327,847.097046 
	C502.264313,846.993347 485.817413,847.030457 468.941345,847.030457 
	C468.941345,865.191406 468.941345,882.929016 468.941345,901.090332 
	C432.776642,901.090332 397.042542,901.090332 360.879822,901.090332 
	C360.879822,925.254211 360.879822,948.990234 360.879822,973.153564 
	C348.713470,973.153564 336.973236,973.153564 325.309937,973.153564 
	C325.309937,997.321960 325.309937,1021.055115 325.309937,1044.674072 
	C349.354279,1044.674072 373.087677,1044.674072 397.248718,1044.674072 
	C397.248718,1008.615784 397.248718,972.881714 397.248718,937.356750 
	C409.419128,937.356750 421.155487,937.356750 433.312103,937.356750 
	C433.312103,973.446899 433.312103,1009.180908 433.312103,1044.623291 
	C577.468628,1044.623291 721.193420,1044.623291 864.791687,1044.623291 
	C864.791687,942.637024 864.791687,841.027405 864.791687,738.988281 
	C810.853638,738.988281 757.121460,738.988281 703.237427,738.988281 
	C703.237427,726.824036 703.237427,715.090576 703.237427,702.928345 
	C757.205322,702.928345 810.937500,702.928345 864.741089,702.928345 
	C864.741089,594.771057 864.741089,487.043884 864.741089,379.263489 
	C720.757385,379.263489 577.032532,379.263489 432.874023,379.263489 
	C432.874023,391.259583 432.874023,402.999725 432.874023,414.703491 
	C420.703339,414.703491 408.968964,414.703491 396.816956,414.703491 
	C396.816956,288.680511 396.816956,162.953857 396.816956,37.316917 
	C348.661957,37.316917 300.930634,37.316917 253.000320,37.316917 
	C253.000320,39.615208 253.000336,41.598175 253.000336,43.581146 
	C253.000320,215.065628 253.017471,386.550110 252.935577,558.034546 
	C252.932404,564.664673 252.705185,571.452148 251.308609,577.889954 
	C248.756470,589.654358 245.250214,601.211792 242.150085,612.824951 
	C261.089600,612.824951 280.841217,612.824951 300.977448,612.824951 
	C300.281769,611.115662 299.683777,609.617065 299.063843,608.127563 
	C288.997894,583.943115 286.243805,559.002014 291.698700,533.327271 
	C305.853394,466.705048 368.767426,423.828003 436.002899,434.872101 
	C511.369843,447.251801 558.866211,525.317932 534.813110,597.659058 
	C524.159851,629.699219 503.731720,653.760620 473.975677,669.872498 
	C471.912231,670.989746 468.415344,671.131348 469.000336,675.891052 
M537.500000,342.999481 
	C646.582031,342.999481 755.664062,342.999481 864.706665,342.999481 
	C864.706665,240.695862 864.706665,138.971954 864.706665,37.290195 
	C720.693909,37.290195 576.974243,37.290195 433.293335,37.290195 
	C433.293335,139.304016 433.293335,241.027908 433.293335,342.999481 
	C467.890381,342.999481 502.195190,342.999481 537.500000,342.999481 
M1044.999634,680.500000 
	C1044.999634,466.087769 1044.999634,251.675507 1044.999634,37.299698 
	C996.697144,37.299698 948.965881,37.299698 901.285889,37.299698 
	C901.285889,373.311462 901.285889,709.023987 901.285889,1044.700317 
	C949.303162,1044.700317 997.034363,1044.700317 1044.999634,1044.700317 
	C1044.999634,923.434082 1044.999634,802.467041 1044.999634,680.500000 
M109.000320,845.499634 
	C109.000320,851.930969 109.000320,858.362244 109.000320,864.690796 
	C217.335236,864.690796 325.059784,864.690796 432.656525,864.690796 
	C432.656525,804.180786 432.656525,743.980286 432.656525,683.695312 
	C430.483276,683.874390 428.655579,684.002258 426.832611,684.178711 
	C389.924225,687.750610 358.057373,676.268921 330.330750,652.110229 
	C328.439514,650.462341 325.512115,649.144104 323.058533,649.130493 
	C288.397308,648.939026 253.734436,648.947815 219.072968,649.117249 
	C216.741226,649.128601 213.914871,650.251770 212.167053,651.809692 
	C191.677292,670.073608 168.059052,681.507935 140.633194,684.004578 
	C130.299240,684.945312 119.807899,684.157166 109.000320,684.157166 
	C109.000320,737.570007 109.000320,791.034912 109.000320,845.499634 
M134.141922,648.822266 
	C135.625412,648.603394 137.104614,648.348572 138.593018,648.170898 
	C188.823837,642.175049 224.971008,593.135498 215.709534,543.541077 
	C206.738861,495.503754 164.007385,464.205383 115.122963,469.867065 
	C72.132355,474.846191 37.501907,513.391479 36.997944,556.823853 
	C36.376293,610.398193 79.430450,651.577698 134.141922,648.822266 
M500.984192,585.417786 
	C504.741547,572.814392 505.731354,560.058716 504.181519,546.937256 
	C498.314392,497.263885 448.298187,460.703857 399.127625,470.373810 
	C351.007111,479.837250 320.207672,522.062622 325.914001,570.748230 
	C331.777222,620.772339 381.951050,657.372986 431.270538,647.291138 
	C465.955658,640.200867 488.984131,619.482910 500.984192,585.417786 
M631.000427,776.500000 
	C631.000427,749.322510 631.000427,722.145020 631.000427,694.556824 
	C629.578613,695.007935 628.942932,695.152222 628.353760,695.404785 
	C600.266541,707.443909 572.206116,719.546265 544.063965,731.455566 
	C541.286987,732.630676 540.951721,734.217285 540.958496,736.757874 
	C541.026123,762.239929 541.080261,787.722778 540.901794,813.203796 
	C540.878357,816.546448 542.261475,817.758118 544.961914,818.906982 
	C572.167664,830.480774 599.329224,842.158447 626.511108,853.788513 
	C627.833313,854.354248 629.229187,854.747925 631.000427,855.364258 
	C631.000427,829.079468 631.000427,803.289734 631.000427,776.500000 
M220.663086,936.999451 
	C255.392563,936.999451 290.122040,936.999451 324.647949,936.999451 
	C324.647949,924.583740 324.647949,912.852051 324.647949,901.346985 
	C288.576416,901.346985 252.857132,901.346985 217.001129,901.346985 
	C217.001129,912.510742 216.932861,923.329712 217.118164,934.144348 
	C217.134720,935.110352 218.796722,936.048035 220.663086,936.999451 
M72.999451,743.628357 
	C72.999451,742.188354 72.999451,740.748352 72.999451,739.267212 
	C60.751617,739.267212 49.024693,739.267212 37.263451,739.267212 
	C37.263451,763.254272 37.263451,786.973633 37.263451,810.729126 
	C49.255486,810.729126 60.982666,810.729126 72.999458,810.729126 
	C72.999458,788.509033 72.999458,766.558044 72.999451,743.628357 
M288.999481,991.500488 
	C288.999481,985.407471 288.999481,979.314453 288.999481,973.306152 
	C276.670929,973.306152 264.943726,973.306152 253.299866,973.306152 
	C253.299866,997.331116 253.299866,1021.049316 253.299866,1044.694092 
	C265.328857,1044.694092 277.055969,1044.694092 288.999481,1044.694092 
	C288.999481,1027.093018 288.999481,1009.796692 288.999481,991.500488 
M504.999481,784.500000 
	C504.999481,769.415466 504.999481,754.330933 504.999481,739.296997 
	C492.689575,739.296997 480.962677,739.296997 469.290649,739.296997 
	C469.290649,763.312622 469.290649,787.030579 469.290649,810.703247 
	C481.310120,810.703247 493.037018,810.703247 504.999481,810.703247 
	C504.999481,802.105896 504.999481,793.802979 504.999481,784.500000 
z"/>
<path fill="#FFCFB0" opacity="1.000000" stroke="none" 
	d="
M216.531342,1.000000 
	C217.000000,157.216507 217.000000,313.433014 217.000000,470.370178 
	C215.723557,469.441437 214.819443,468.935974 214.100937,468.239136 
	C166.592178,422.161926 90.740662,421.181763 42.119968,466.032379 
	C19.066969,487.297852 5.828456,513.610413 1.353761,544.806091 
	C1.000000,363.771088 1.000000,182.542191 1.000000,1.000000 
	C72.687256,1.000000 144.374969,1.000000 216.531342,1.000000 
z"/>
<path fill="#FFCFB0" opacity="1.000000" stroke="none" 
	d="
M1.000000,847.468628 
	C24.801012,847.000000 48.602024,847.000000 72.829056,847.000000 
	C72.829056,864.961182 72.829056,882.693909 72.829056,900.841553 
	C108.976616,900.841553 144.701874,900.841553 180.849152,900.841553 
	C180.849152,924.983459 180.849152,948.713501 180.849152,972.869934 
	C192.997177,972.869934 204.734314,972.869934 216.999512,972.869934 
	C216.999512,1008.885498 216.999512,1044.474121 216.999756,1080.531372 
	C145.070053,1081.000000 73.140091,1081.000000 1.000000,1081.000000 
	C1.000000,1003.312561 1.000000,925.624939 1.000000,847.468628 
z"/>
<path fill="#FECEAF" opacity="1.000000" stroke="none" 
	d="
M0.999997,573.468628 
	C1.807464,576.442200 2.670666,579.872375 3.413862,583.328369 
	C11.863753,622.622009 34.022713,651.629761 69.266258,670.654175 
	C72.291481,672.287170 73.154564,673.919312 73.069901,677.103333 
	C72.853088,685.256714 72.983261,693.419250 72.958862,701.578064 
	C72.957954,701.880371 72.791542,702.182068 72.549477,703.000854 
	C49.106857,703.000854 25.522087,703.000854 1.468657,703.000427 
	C1.000000,659.979126 1.000000,616.958191 0.999997,573.468628 
z"/>
<path fill="#FFCFB0" opacity="1.000000" stroke="none" 
	d="
M469.000488,675.440552 
	C468.415344,671.131348 471.912231,670.989746 473.975677,669.872498 
	C503.731720,653.760620 524.159851,629.699219 534.813110,597.659058 
	C558.866211,525.317932 511.369843,447.251801 436.002899,434.872101 
	C368.767426,423.828003 305.853394,466.705048 291.698700,533.327271 
	C286.243805,559.002014 288.997894,583.943115 299.063843,608.127563 
	C299.683777,609.617065 300.281769,611.115662 300.977448,612.824951 
	C280.841217,612.824951 261.089600,612.824951 242.150085,612.824951 
	C245.250214,601.211792 248.756470,589.654358 251.308609,577.889954 
	C252.705185,571.452148 252.932404,564.664673 252.935577,558.034546 
	C253.017471,386.550110 253.000320,215.065628 253.000336,43.581146 
	C253.000336,41.598175 253.000320,39.615208 253.000320,37.316917 
	C300.930634,37.316917 348.661957,37.316917 396.816956,37.316917 
	C396.816956,162.953857 396.816956,288.680511 396.816956,414.703491 
	C408.968964,414.703491 420.703339,414.703491 432.874023,414.703491 
	C432.874023,402.999725 432.874023,391.259583 432.874023,379.263489 
	C577.032532,379.263489 720.757385,379.263489 864.741089,379.263489 
	C864.741089,487.043884 864.741089,594.771057 864.741089,702.928345 
	C810.937500,702.928345 757.205322,702.928345 703.237427,702.928345 
	C703.237427,715.090576 703.237427,726.824036 703.237427,738.988281 
	C757.121460,738.988281 810.853638,738.988281 864.791687,738.988281 
	C864.791687,841.027405 864.791687,942.637024 864.791687,1044.623291 
	C721.193420,1044.623291 577.468628,1044.623291 433.312103,1044.623291 
	C433.312103,1009.180908 433.312103,973.446899 433.312103,937.356750 
	C421.155487,937.356750 409.419128,937.356750 397.248718,937.356750 
	C397.248718,972.881714 397.248718,1008.615784 397.248718,1044.674072 
	C373.087677,1044.674072 349.354279,1044.674072 325.309937,1044.674072 
	C325.309937,1021.055115 325.309937,997.321960 325.309937,973.153564 
	C336.973236,973.153564 348.713470,973.153564 360.879822,973.153564 
	C360.879822,948.990234 360.879822,925.254211 360.879822,901.090332 
	C397.042542,901.090332 432.776642,901.090332 468.941345,901.090332 
	C468.941345,882.929016 468.941345,865.191406 468.941345,847.030457 
	C485.817413,847.030457 502.264313,846.993347 518.710327,847.097046 
	C520.109985,847.105896 521.530945,847.989929 522.896301,848.574158 
	C569.345581,868.446228 615.789429,888.331116 662.233582,908.215210 
	C663.585449,908.794006 664.932800,909.383057 666.688660,910.143250 
	C666.688660,819.932739 666.688660,730.125488 666.688660,639.868347 
	C650.595520,646.739685 634.728455,653.493652 618.878113,660.286560 
	C586.798462,674.034851 554.730652,687.810913 522.644287,701.543518 
	C521.141663,702.186523 519.508972,702.924255 517.932495,702.934204 
	C501.798676,703.036255 485.664001,702.996765 469.000336,702.996765 
	C469.000336,693.768311 469.000336,684.829651 469.000488,675.440552 
M271.000183,216.501312 
	C271.000183,246.584839 271.000183,276.668365 271.000183,306.708740 
	C307.305420,306.708740 343.027679,306.708740 378.708710,306.708740 
	C378.708710,270.694550 378.708710,234.972275 378.708710,199.291321 
	C342.694519,199.291321 306.972229,199.291321 271.000183,199.291321 
	C271.000183,204.887543 271.000183,210.194748 271.000183,216.501312 
M302.500000,55.000206 
	C292.073822,55.000206 281.647644,55.000206 271.300720,55.000206 
	C271.300720,91.324448 271.300720,127.046768 271.300720,162.699310 
	C307.324371,162.699310 343.046692,162.699310 378.699371,162.699310 
	C378.699371,126.675705 378.699371,90.953392 378.699371,55.000206 
	C353.433075,55.000206 328.466522,55.000206 302.500000,55.000206 
M328.500000,343.000153 
	C309.417480,343.000153 290.334991,343.000153 271.278259,343.000153 
	C271.278259,373.292511 271.278259,403.008209 271.278259,432.714661 
	C283.286102,432.714661 295.013550,432.714661 307.154480,432.714661 
	C307.154480,414.706268 307.154480,396.979248 307.154480,379.293091 
	C319.302765,379.293091 331.030548,379.293091 343.176727,379.293091 
	C343.176727,391.313873 343.176727,403.047150 343.176727,414.692566 
	C355.331024,414.692566 367.059082,414.692566 378.696716,414.692566 
	C378.696716,390.664246 378.696716,366.944397 378.696716,343.000153 
	C362.096466,343.000153 345.798218,343.000153 328.500000,343.000153 
z"/>
<path fill="#FFCFB0" opacity="1.000000" stroke="none" 
	d="
M537.000000,342.999481 
	C502.195190,342.999481 467.890381,342.999481 433.293335,342.999481 
	C433.293335,241.027908 433.293335,139.304016 433.293335,37.290195 
	C576.974243,37.290195 720.693909,37.290195 864.706665,37.290195 
	C864.706665,138.971954 864.706665,240.695862 864.706665,342.999481 
	C755.664062,342.999481 646.582031,342.999481 537.000000,342.999481 
z"/>
<path fill="#FFCFB0" opacity="1.000000" stroke="none" 
	d="
M1044.999634,681.000000 
	C1044.999634,802.467041 1044.999634,923.434082 1044.999634,1044.700317 
	C997.034363,1044.700317 949.303162,1044.700317 901.285889,1044.700317 
	C901.285889,709.023987 901.285889,373.311462 901.285889,37.299698 
	C948.965881,37.299698 996.697144,37.299698 1044.999634,37.299698 
	C1044.999634,251.675507 1044.999634,466.087769 1044.999634,681.000000 
M1027.000000,638.564453 
	C1027.000000,636.129211 1027.000000,633.694031 1027.000000,631.283386 
	C990.712036,631.283386 954.988708,631.283386 919.284851,631.283386 
	C919.284851,667.290894 919.284851,703.014282 919.284851,738.713623 
	C955.293884,738.713623 991.017273,738.713623 1027.000000,738.713623 
	C1027.000000,705.467590 1027.000000,672.507324 1027.000000,638.564453 
M1027.000000,501.504578 
	C1027.000000,496.741638 1027.000000,491.978699 1027.000000,487.301880 
	C990.673035,487.301880 954.950500,487.301880 919.301880,487.301880 
	C919.301880,523.327087 919.301880,559.049622 919.301880,594.697998 
	C955.327087,594.697998 991.049683,594.697998 1027.000000,594.697998 
	C1027.000000,563.765564 1027.000000,533.134521 1027.000000,501.504578 
M931.510803,343.000000 
	C927.411133,343.000000 923.311523,343.000000 919.300049,343.000000 
	C919.300049,379.323273 919.300049,415.045868 919.300049,450.699707 
	C955.323547,450.699707 991.046143,450.699707 1026.699463,450.699707 
	C1026.699463,414.676025 1026.699463,378.953400 1026.699463,343.000000 
	C995.102539,343.000000 963.805420,343.000000 931.510803,343.000000 
M919.000000,798.500000 
	C919.000000,826.584534 919.000000,854.669067 919.000000,882.708374 
	C955.306458,882.708374 991.028870,882.708374 1026.708496,882.708374 
	C1026.708496,846.693604 1026.708496,810.971191 1026.708496,775.291504 
	C990.693665,775.291504 954.971313,775.291504 919.000000,775.291504 
	C919.000000,782.886963 919.000000,790.193481 919.000000,798.500000 
M919.000000,286.499847 
	C919.000000,293.262604 919.000000,300.025360 919.000000,306.697693 
	C955.327881,306.697693 991.050354,306.697693 1026.697754,306.697693 
	C1026.697754,270.672119 1026.697754,234.949646 1026.697754,199.302216 
	C990.672180,199.302216 954.949707,199.302216 919.000000,199.302216 
	C919.000000,228.235870 919.000000,256.867859 919.000000,286.499847 
M1015.481812,919.000000 
	C983.400208,919.000000 951.318604,919.000000 919.297119,919.000000 
	C919.297119,955.316711 919.297119,991.039551 919.297119,1026.702393 
	C955.317810,1026.702393 991.040588,1026.702393 1026.701904,1026.702393 
	C1026.701904,990.681152 1026.701904,954.958313 1026.701904,919.000000 
	C1023.097107,919.000000 1019.786255,919.000000 1015.481812,919.000000 
M1027.000000,134.500000 
	C1027.000000,108.081505 1027.000000,81.663010 1027.000000,55.292435 
	C990.691833,55.292435 954.969482,55.292435 919.292358,55.292435 
	C919.292358,91.308044 919.292358,127.030434 919.292358,162.707642 
	C955.307922,162.707642 991.030334,162.707642 1027.000000,162.707642 
	C1027.000000,153.444763 1027.000000,144.472382 1027.000000,134.500000 
z"/>
<path fill="#FFCFB0" opacity="1.000000" stroke="none" 
	d="
M109.000320,844.999756 
	C109.000320,791.034912 109.000320,737.570007 109.000320,684.157166 
	C119.807899,684.157166 130.299240,684.945312 140.633194,684.004578 
	C168.059052,681.507935 191.677292,670.073608 212.167053,651.809692 
	C213.914871,650.251770 216.741226,649.128601 219.072968,649.117249 
	C253.734436,648.947815 288.397308,648.939026 323.058533,649.130493 
	C325.512115,649.144104 328.439514,650.462341 330.330750,652.110229 
	C358.057373,676.268921 389.924225,687.750610 426.832611,684.178711 
	C428.655579,684.002258 430.483276,683.874390 432.656525,683.695312 
	C432.656525,743.980286 432.656525,804.180786 432.656525,864.690796 
	C325.059784,864.690796 217.335236,864.690796 109.000320,864.690796 
	C109.000320,858.362244 109.000320,851.930969 109.000320,844.999756 
M359.274994,685.007507 
	C299.882416,685.007507 240.489822,685.007507 181.374115,685.007507 
	C181.374115,721.462463 181.374115,757.190369 181.374115,792.626343 
	C241.470779,792.626343 301.193237,792.626343 360.999207,792.626343 
	C360.999207,757.431396 361.004944,722.609802 360.967285,687.788330 
	C360.966309,686.884460 360.490936,685.981140 359.274994,685.007507 
z"/>
<path fill="#FECEAF" opacity="1.000000" stroke="none" 
	d="
M133.673996,648.832642 
	C79.430450,651.577698 36.376293,610.398193 36.997944,556.823853 
	C37.501907,513.391479 72.132355,474.846191 115.122963,469.867065 
	C164.007385,464.205383 206.738861,495.503754 215.709534,543.541077 
	C224.971008,593.135498 188.823837,642.175049 138.593018,648.170898 
	C137.104614,648.348572 135.625412,648.603394 133.673996,648.832642 
M130.234695,505.132202 
	C126.261734,505.369019 122.240685,505.292236 118.323524,505.892944 
	C90.585365,510.146606 70.703712,535.709229 73.169510,563.768555 
	C75.606339,591.498230 99.425468,613.166138 127.288857,613.000122 
	C155.411316,612.832520 179.042740,590.630493 180.856125,562.672913 
	C182.776016,533.073364 161.960434,508.989502 130.234695,505.132202 
z"/>
<path fill="#FDCEAF" opacity="1.000000" stroke="none" 
	d="
M500.906311,585.811890 
	C488.984131,619.482910 465.955658,640.200867 431.270538,647.291138 
	C381.951050,657.372986 331.777222,620.772339 325.914001,570.748230 
	C320.207672,522.062622 351.007111,479.837250 399.127625,470.373810 
	C448.298187,460.703857 498.314392,497.263885 504.181519,546.937256 
	C505.731354,560.058716 504.741547,572.814392 500.906311,585.811890 
M436.106628,608.731323 
	C462.299408,597.149841 473.901031,569.270508 466.981293,544.433289 
	C459.144012,516.302490 429.575348,499.264221 401.361145,506.856812 
	C372.282715,514.682007 355.136902,544.003357 362.864136,572.691162 
	C371.395508,604.364380 403.632599,620.500916 436.106628,608.731323 
z"/>
<path fill="#FECFB0" opacity="1.000000" stroke="none" 
	d="
M631.000427,777.000000 
	C631.000427,803.289734 631.000427,829.079468 631.000427,855.364258 
	C629.229187,854.747925 627.833313,854.354248 626.511108,853.788513 
	C599.329224,842.158447 572.167664,830.480774 544.961914,818.906982 
	C542.261475,817.758118 540.878357,816.546448 540.901794,813.203796 
	C541.080261,787.722778 541.026123,762.239929 540.958496,736.757874 
	C540.951721,734.217285 541.286987,732.630676 544.063965,731.455566 
	C572.206116,719.546265 600.266541,707.443909 628.353760,695.404785 
	C628.942932,695.152222 629.578613,695.007935 631.000427,694.556824 
	C631.000427,722.145020 631.000427,749.322510 631.000427,777.000000 
z"/>
<path fill="#FFCFB0" opacity="1.000000" stroke="none" 
	d="
M220.178802,936.999146 
	C218.796722,936.048035 217.134720,935.110352 217.118164,934.144348 
	C216.932861,923.329712 217.001129,912.510742 217.001129,901.346985 
	C252.857132,901.346985 288.576416,901.346985 324.647949,901.346985 
	C324.647949,912.852051 324.647949,924.583740 324.647949,936.999451 
	C290.122040,936.999451 255.392563,936.999451 220.178802,936.999146 
z"/>
<path fill="#FFCFB0" opacity="1.000000" stroke="none" 
	d="
M72.999451,744.117676 
	C72.999458,766.558044 72.999458,788.509033 72.999458,810.729126 
	C60.982666,810.729126 49.255486,810.729126 37.263451,810.729126 
	C37.263451,786.973633 37.263451,763.254272 37.263451,739.267212 
	C49.024693,739.267212 60.751617,739.267212 72.999451,739.267212 
	C72.999451,740.748352 72.999451,742.188354 72.999451,744.117676 
z"/>
<path fill="#FFCFB0" opacity="1.000000" stroke="none" 
	d="
M288.999481,992.000427 
	C288.999481,1009.796692 288.999481,1027.093018 288.999481,1044.694092 
	C277.055969,1044.694092 265.328857,1044.694092 253.299866,1044.694092 
	C253.299866,1021.049316 253.299866,997.331116 253.299866,973.306152 
	C264.943726,973.306152 276.670929,973.306152 288.999481,973.306152 
	C288.999481,979.314453 288.999481,985.407471 288.999481,992.000427 
z"/>
<path fill="#FFCFB0" opacity="1.000000" stroke="none" 
	d="
M504.999481,785.000000 
	C504.999481,793.802979 504.999481,802.105896 504.999481,810.703247 
	C493.037018,810.703247 481.310120,810.703247 469.290649,810.703247 
	C469.290649,787.030579 469.290649,763.312622 469.290649,739.296997 
	C480.962677,739.296997 492.689575,739.296997 504.999481,739.296997 
	C504.999481,754.330933 504.999481,769.415466 504.999481,785.000000 
z"/>
<path fill="#000000" opacity="1.000000" stroke="none" 
	d="
M271.000183,216.001633 
	C271.000183,210.194748 271.000183,204.887543 271.000183,199.291321 
	C306.972229,199.291321 342.694519,199.291321 378.708710,199.291321 
	C378.708710,234.972275 378.708710,270.694550 378.708710,306.708740 
	C343.027679,306.708740 307.305420,306.708740 271.000183,306.708740 
	C271.000183,276.668365 271.000183,246.584839 271.000183,216.001633 
M321.504883,271.000000 
	C328.595154,271.000000 335.685394,271.000000 342.703064,271.000000 
	C342.703064,258.680756 342.703064,246.957367 342.703064,235.297089 
	C330.680328,235.297089 318.956940,235.297089 307.297302,235.297089 
	C307.297302,247.319916 307.297302,259.043335 307.297302,271.000000 
	C311.897766,271.000000 316.203033,271.000000 321.504883,271.000000 
z"/>
<path fill="#000000" opacity="1.000000" stroke="none" 
	d="
M303.000000,55.000206 
	C328.466522,55.000206 353.433075,55.000206 378.699371,55.000206 
	C378.699371,90.953392 378.699371,126.675705 378.699371,162.699310 
	C343.046692,162.699310 307.324371,162.699310 271.300720,162.699310 
	C271.300720,127.046768 271.300720,91.324448 271.300720,55.000206 
	C281.647644,55.000206 292.073822,55.000206 303.000000,55.000206 
M307.000000,118.455246 
	C307.000000,121.223892 307.000000,123.992538 307.000000,126.713478 
	C319.297424,126.713478 331.020905,126.713478 342.712830,126.713478 
	C342.712830,114.701187 342.712830,102.977730 342.712830,91.287857 
	C330.699890,91.287857 318.976379,91.287857 307.000000,91.287857 
	C307.000000,100.203644 307.000000,108.833900 307.000000,118.455246 
z"/>
<path fill="#000000" opacity="1.000000" stroke="none" 
	d="
M329.000000,343.000153 
	C345.798218,343.000153 362.096466,343.000153 378.696716,343.000153 
	C378.696716,366.944397 378.696716,390.664246 378.696716,414.692566 
	C367.059082,414.692566 355.331024,414.692566 343.176727,414.692566 
	C343.176727,403.047150 343.176727,391.313873 343.176727,379.293091 
	C331.030548,379.293091 319.302765,379.293091 307.154480,379.293091 
	C307.154480,396.979248 307.154480,414.706268 307.154480,432.714661 
	C295.013550,432.714661 283.286102,432.714661 271.278259,432.714661 
	C271.278259,403.008209 271.278259,373.292511 271.278259,343.000153 
	C290.334991,343.000153 309.417480,343.000153 329.000000,343.000153 
z"/>
<path fill="#000000" opacity="1.000000" stroke="none" 
	d="
M1027.000000,639.055786 
	C1027.000000,672.507324 1027.000000,705.467590 1027.000000,738.713623 
	C991.017273,738.713623 955.293884,738.713623 919.284851,738.713623 
	C919.284851,703.014282 919.284851,667.290894 919.284851,631.283386 
	C954.988708,631.283386 990.712036,631.283386 1027.000000,631.283386 
	C1027.000000,633.694031 1027.000000,636.129211 1027.000000,639.055786 
M959.631592,703.000000 
	C970.040527,703.000000 980.449524,703.000000 990.658569,703.000000 
	C990.658569,690.593689 990.658569,678.867188 990.658569,667.344116 
	C978.588257,667.344116 966.861633,667.344116 955.000183,667.344116 
	C955.000183,678.331848 955.118652,688.978149 954.925293,699.618896 
	C954.869934,702.666870 956.044556,703.387695 959.631592,703.000000 
z"/>
<path fill="#000000" opacity="1.000000" stroke="none" 
	d="
M1027.000000,502.004028 
	C1027.000000,533.134521 1027.000000,563.765564 1027.000000,594.697998 
	C991.049683,594.697998 955.327087,594.697998 919.301880,594.697998 
	C919.301880,559.049622 919.301880,523.327087 919.301880,487.301880 
	C954.950500,487.301880 990.673035,487.301880 1027.000000,487.301880 
	C1027.000000,491.978699 1027.000000,496.741638 1027.000000,502.004028 
M970.503296,523.000000 
	C965.411316,523.000000 960.319336,523.000000 955.296875,523.000000 
	C955.296875,535.319336 955.296875,547.042664 955.296875,558.703125 
	C967.319397,558.703125 979.042725,558.703125 990.703125,558.703125 
	C990.703125,546.680603 990.703125,534.957275 990.703125,523.000000 
	C984.105835,523.000000 977.803650,523.000000 970.503296,523.000000 
z"/>
<path fill="#000000" opacity="1.000000" stroke="none" 
	d="
M932.009583,343.000000 
	C963.805420,343.000000 995.102539,343.000000 1026.699463,343.000000 
	C1026.699463,378.953400 1026.699463,414.676025 1026.699463,450.699707 
	C991.046143,450.699707 955.323547,450.699707 919.300049,450.699707 
	C919.300049,415.045868 919.300049,379.323273 919.300049,343.000000 
	C923.311523,343.000000 927.411133,343.000000 932.009583,343.000000 
M965.523071,379.000000 
	C962.089111,379.000000 958.655212,379.000000 955.292725,379.000000 
	C955.292725,391.310638 955.292725,403.033997 955.292725,414.706970 
	C967.311157,414.706970 979.034546,414.706970 990.706665,414.706970 
	C990.706665,402.688202 990.706665,390.964783 990.706665,379.000000 
	C982.449707,379.000000 974.483948,379.000000 965.523071,379.000000 
z"/>
<path fill="#000000" opacity="1.000000" stroke="none" 
	d="
M919.000000,798.000000 
	C919.000000,790.193481 919.000000,782.886963 919.000000,775.291504 
	C954.971313,775.291504 990.693665,775.291504 1026.708496,775.291504 
	C1026.708496,810.971191 1026.708496,846.693604 1026.708496,882.708374 
	C991.028870,882.708374 955.306458,882.708374 919.000000,882.708374 
	C919.000000,854.669067 919.000000,826.584534 919.000000,798.000000 
M977.491638,847.000000 
	C981.920471,847.000000 986.349243,847.000000 990.703735,847.000000 
	C990.703735,834.682129 990.703735,822.958679 990.703735,811.296448 
	C978.681763,811.296448 966.958313,811.296448 955.296631,811.296448 
	C955.296631,823.318665 955.296631,835.042053 955.296631,847.000000 
	C962.559387,847.000000 969.527283,847.000000 977.491638,847.000000 
z"/>
<path fill="#000000" opacity="1.000000" stroke="none" 
	d="
M919.000000,285.999878 
	C919.000000,256.867859 919.000000,228.235870 919.000000,199.302216 
	C954.949707,199.302216 990.672180,199.302216 1026.697754,199.302216 
	C1026.697754,234.949646 1026.697754,270.672119 1026.697754,306.697693 
	C991.050354,306.697693 955.327881,306.697693 919.000000,306.697693 
	C919.000000,300.025360 919.000000,293.262604 919.000000,285.999878 
M955.000610,237.693802 
	C955.000610,248.763382 955.000610,259.832947 955.000610,270.636536 
	C967.450317,270.636536 979.178040,270.636536 990.633362,270.636536 
	C990.633362,258.543304 990.633362,246.815399 990.633362,235.000259 
	C979.616272,235.000259 968.965027,234.949478 958.315857,235.075958 
	C957.206604,235.089142 956.109802,236.153061 955.000610,237.693802 
z"/>
<path fill="#000000" opacity="1.000000" stroke="none" 
	d="
M1015.978577,919.000000 
	C1019.786255,919.000000 1023.097107,919.000000 1026.701904,919.000000 
	C1026.701904,954.958313 1026.701904,990.681152 1026.701904,1026.702393 
	C991.040588,1026.702393 955.317810,1026.702393 919.297119,1026.702393 
	C919.297119,991.039551 919.297119,955.316711 919.297119,919.000000 
	C951.318604,919.000000 983.400208,919.000000 1015.978577,919.000000 
M960.606812,991.000000 
	C970.684692,991.000000 980.762573,991.000000 990.667969,991.000000 
	C990.667969,978.611938 990.667969,966.886169 990.667969,955.334106 
	C978.607788,955.334106 966.881836,955.334106 955.159546,955.334106 
	C955.159546,967.274597 955.159546,978.880127 955.159546,991.000000 
	C956.751709,991.000000 958.191650,991.000000 960.606812,991.000000 
z"/>
<path fill="#000000" opacity="1.000000" stroke="none" 
	d="
M1027.000000,135.000000 
	C1027.000000,144.472382 1027.000000,153.444763 1027.000000,162.707642 
	C991.030334,162.707642 955.307922,162.707642 919.292358,162.707642 
	C919.292358,127.030434 919.292358,91.308044 919.292358,55.292435 
	C954.969482,55.292435 990.691833,55.292435 1027.000000,55.292435 
	C1027.000000,81.663010 1027.000000,108.081505 1027.000000,135.000000 
M991.000000,122.368401 
	C991.000000,111.959450 991.000000,101.550491 991.000000,91.341461 
	C978.593628,91.341461 966.867126,91.341461 955.344116,91.341461 
	C955.344116,103.411835 955.344116,115.138451 955.344116,126.999756 
	C966.331970,126.999756 976.978210,126.881210 987.618896,127.074615 
	C990.666931,127.130028 991.387634,125.955353 991.000000,122.368401 
z"/>
<path fill="#000000" opacity="1.000000" stroke="none" 
	d="
M359.755890,685.042542 
	C360.490936,685.981140 360.966309,686.884460 360.967285,687.788330 
	C361.004944,722.609802 360.999207,757.431396 360.999207,792.626343 
	C301.193237,792.626343 241.470779,792.626343 181.374115,792.626343 
	C181.374115,757.190369 181.374115,721.462463 181.374115,685.007507 
	C240.489822,685.007507 299.882416,685.007507 359.755890,685.042542 
M266.500000,757.000000 
	C285.918060,757.000000 305.336090,757.000000 324.699951,757.000000 
	C324.699951,744.686279 324.699951,732.956970 324.699951,721.290894 
	C288.682770,721.290894 252.966431,721.290894 217.299957,721.290894 
	C217.299957,733.313538 217.299957,745.042786 217.299957,757.000000 
	C233.565857,757.000000 249.532928,757.000000 266.500000,757.000000 
z"/>
<path fill="#020101" opacity="1.000000" stroke="none" 
	d="
M130.692917,505.147888 
	C161.960434,508.989502 182.776016,533.073364 180.856125,562.672913 
	C179.042740,590.630493 155.411316,612.832520 127.288857,613.000122 
	C99.425468,613.166138 75.606339,591.498230 73.169510,563.768555 
	C70.703712,535.709229 90.585365,510.146606 118.323524,505.892944 
	C122.240685,505.292236 126.261734,505.369019 130.692917,505.147888 
M114.562958,571.952209 
	C121.724159,577.633301 128.798462,578.533997 135.770294,574.652283 
	C141.977646,571.196167 145.621140,564.171448 144.875259,557.097473 
	C144.088608,549.636658 138.874771,543.677795 131.312622,541.596802 
	C124.306396,539.668823 116.243515,542.758545 112.118164,548.952271 
	C107.374146,556.074829 108.041481,563.856384 114.562958,571.952209 
z"/>
<path fill="#020101" opacity="1.000000" stroke="none" 
	d="
M435.742004,608.859741 
	C403.632599,620.500916 371.395508,604.364380 362.864136,572.691162 
	C355.136902,544.003357 372.282715,514.682007 401.361145,506.856812 
	C429.575348,499.264221 459.144012,516.302490 466.981293,544.433289 
	C473.901031,569.270508 462.299408,597.149841 435.742004,608.859741 
M400.174194,569.153259 
	C406.025574,576.183594 412.893646,578.533020 420.378571,576.064758 
	C427.522736,573.708984 432.418915,567.548401 432.921448,560.282776 
	C433.443512,552.734070 429.253876,545.772766 422.315125,542.659790 
	C415.162842,539.450989 407.069092,541.099670 401.797546,546.839172 
	C396.257416,552.871094 395.573364,560.331482 400.174194,569.153259 
z"/>
<path fill="#FFCFB0" opacity="1.000000" stroke="none" 
	d="
M321.006592,271.000000 
	C316.203033,271.000000 311.897766,271.000000 307.297302,271.000000 
	C307.297302,259.043335 307.297302,247.319916 307.297302,235.297089 
	C318.956940,235.297089 330.680328,235.297089 342.703064,235.297089 
	C342.703064,246.957367 342.703064,258.680756 342.703064,271.000000 
	C335.685394,271.000000 328.595154,271.000000 321.006592,271.000000 
z"/>
<path fill="#FFCFB0" opacity="1.000000" stroke="none" 
	d="
M307.000000,117.959702 
	C307.000000,108.833900 307.000000,100.203644 307.000000,91.287857 
	C318.976379,91.287857 330.699890,91.287857 342.712830,91.287857 
	C342.712830,102.977730 342.712830,114.701187 342.712830,126.713478 
	C331.020905,126.713478 319.297424,126.713478 307.000000,126.713478 
	C307.000000,123.992538 307.000000,121.223892 307.000000,117.959702 
z"/>
<path fill="#FFCFB0" opacity="1.000000" stroke="none" 
	d="
M959.147217,703.000000 
	C956.044556,703.387695 954.869934,702.666870 954.925293,699.618896 
	C955.118652,688.978149 955.000183,678.331848 955.000183,667.344116 
	C966.861633,667.344116 978.588257,667.344116 990.658569,667.344116 
	C990.658569,678.867188 990.658569,690.593689 990.658569,703.000000 
	C980.449524,703.000000 970.040527,703.000000 959.147217,703.000000 
z"/>
<path fill="#FFCFB0" opacity="1.000000" stroke="none" 
	d="
M971.002380,523.000000 
	C977.803650,523.000000 984.105835,523.000000 990.703125,523.000000 
	C990.703125,534.957275 990.703125,546.680603 990.703125,558.703125 
	C979.042725,558.703125 967.319397,558.703125 955.296875,558.703125 
	C955.296875,547.042664 955.296875,535.319336 955.296875,523.000000 
	C960.319336,523.000000 965.411316,523.000000 971.002380,523.000000 
z"/>
<path fill="#FFCFB0" opacity="1.000000" stroke="none" 
	d="
M966.020630,379.000000 
	C974.483948,379.000000 982.449707,379.000000 990.706665,379.000000 
	C990.706665,390.964783 990.706665,402.688202 990.706665,414.706970 
	C979.034546,414.706970 967.311157,414.706970 955.292725,414.706970 
	C955.292725,403.033997 955.292725,391.310638 955.292725,379.000000 
	C958.655212,379.000000 962.089111,379.000000 966.020630,379.000000 
z"/>
<path fill="#FFCFB0" opacity="1.000000" stroke="none" 
	d="
M976.993408,847.000000 
	C969.527283,847.000000 962.559387,847.000000 955.296631,847.000000 
	C955.296631,835.042053 955.296631,823.318665 955.296631,811.296448 
	C966.958313,811.296448 978.681763,811.296448 990.703735,811.296448 
	C990.703735,822.958679 990.703735,834.682129 990.703735,847.000000 
	C986.349243,847.000000 981.920471,847.000000 976.993408,847.000000 
z"/>
<path fill="#FFCFB0" opacity="1.000000" stroke="none" 
	d="
M955.003906,237.211639 
	C956.109802,236.153061 957.206604,235.089142 958.315857,235.075958 
	C968.965027,234.949478 979.616272,235.000259 990.633362,235.000259 
	C990.633362,246.815399 990.633362,258.543304 990.633362,270.636536 
	C979.178040,270.636536 967.450317,270.636536 955.000610,270.636536 
	C955.000610,259.832947 955.000610,248.763382 955.003906,237.211639 
z"/>
<path fill="#FFCFB0" opacity="1.000000" stroke="none" 
	d="
M960.119202,991.000000 
	C958.191650,991.000000 956.751709,991.000000 955.159546,991.000000 
	C955.159546,978.880127 955.159546,967.274597 955.159546,955.334106 
	C966.881836,955.334106 978.607788,955.334106 990.667969,955.334106 
	C990.667969,966.886169 990.667969,978.611938 990.667969,991.000000 
	C980.762573,991.000000 970.684692,991.000000 960.119202,991.000000 
z"/>
<path fill="#FFCFB0" opacity="1.000000" stroke="none" 
	d="
M991.000000,122.852814 
	C991.387634,125.955353 990.666931,127.130028 987.618896,127.074615 
	C976.978210,126.881210 966.331970,126.999756 955.344116,126.999756 
	C955.344116,115.138451 955.344116,103.411835 955.344116,91.341461 
	C966.867126,91.341461 978.593628,91.341461 991.000000,91.341461 
	C991.000000,101.550491 991.000000,111.959450 991.000000,122.852814 
z"/>
<path fill="#FFCFB0" opacity="1.000000" stroke="none" 
	d="
M266.000000,757.000000 
	C249.532928,757.000000 233.565857,757.000000 217.299957,757.000000 
	C217.299957,745.042786 217.299957,733.313538 217.299957,721.290894 
	C252.966431,721.290894 288.682770,721.290894 324.699951,721.290894 
	C324.699951,732.956970 324.699951,744.686279 324.699951,757.000000 
	C305.336090,757.000000 285.918060,757.000000 266.000000,757.000000 
z"/>
<path fill="#FBCCAD" opacity="1.000000" stroke="none" 
	d="
M114.304581,571.693665 
	C108.041481,563.856384 107.374146,556.074829 112.118164,548.952271 
	C116.243515,542.758545 124.306396,539.668823 131.312622,541.596802 
	C138.874771,543.677795 144.088608,549.636658 144.875259,557.097473 
	C145.621140,564.171448 141.977646,571.196167 135.770294,574.652283 
	C128.798462,578.533997 121.724159,577.633301 114.304581,571.693665 
z"/>
<path fill="#FBCCAD" opacity="1.000000" stroke="none" 
	d="
M399.993103,568.823975 
	C395.573364,560.331482 396.257416,552.871094 401.797546,546.839172 
	C407.069092,541.099670 415.162842,539.450989 422.315125,542.659790 
	C429.253876,545.772766 433.443512,552.734070 432.921448,560.282776 
	C432.418915,567.548401 427.522736,573.708984 420.378571,576.064758 
	C412.893646,578.533020 406.025574,576.183594 399.993103,568.823975 
z"/>
</svg>