<svg version="1.1" id="Layer_1" xmlns="http://www.w3.org/2000/svg" xmlns:xlink="http://www.w3.org/1999/xlink" x="0px" y="0px"
	 width="100%" viewBox="0 0 1024 1024" enable-background="new 0 0 1024 1024" xml:space="preserve">
<path fill="#000000" opacity="1.000000" stroke="none" 
	d="
M545.000000,1025.000000 
	C523.979126,1025.000000 502.958221,1025.000000 481.106567,1024.823242 
	C468.197754,1023.424194 456.077911,1022.516907 444.048950,1020.923462 
	C396.872528,1014.674561 351.495911,1001.831909 307.913849,982.771851 
	C237.810638,952.113159 177.429901,908.059509 127.186752,850.333435 
	C79.043015,795.019409 44.221287,732.257385 22.794426,662.060852 
	C13.284209,630.904480 6.585054,599.223755 3.590430,566.777832 
	C2.674746,556.856689 1.860632,546.926208 1.000000,537.000000 
	C1.000000,521.312439 1.000000,505.624878 1.036472,489.058655 
	C1.262925,487.207947 1.595754,486.239777 1.621982,485.263367 
	C2.262670,461.411835 5.473069,437.821930 10.075573,414.490906 
	C24.959154,339.043030 54.824699,270.028809 100.728294,208.216019 
	C148.700455,143.617706 208.535843,92.851891 280.248169,56.269344 
	C331.244934,30.254406 385.062561,13.081202 441.874939,5.422480 
	C455.881042,3.534355 469.956696,2.454778 484.000000,1.000000 
	C506.020905,1.000000 528.041809,1.000000 550.897095,1.122522 
	C561.791016,2.434209 571.862366,3.531004 581.907898,4.828269 
	C629.613220,10.988916 675.394836,24.086386 719.405579,43.385738 
	C772.844360,66.819458 820.671448,98.766762 863.267883,138.618164 
	C871.508484,146.327652 871.654968,146.217422 879.900085,138.397522 
	C885.603333,132.988434 892.071350,130.905151 899.566284,134.021042 
	C907.114319,137.159027 910.077393,143.313843 910.088684,151.154129 
	C910.104126,161.814957 910.220154,172.479309 909.975830,183.134872 
	C909.889893,186.882401 910.818176,189.873154 913.187317,192.737503 
	C922.218201,203.656052 930.499023,215.148026 938.400635,226.896622 
	C968.084534,271.032471 990.396545,318.628113 1005.190430,369.739777 
	C1013.627441,398.888947 1019.679932,428.490021 1022.439209,458.737152 
	C1023.238220,467.496399 1024.143433,476.245972 1025.000000,485.000000 
	C1025.000000,503.354218 1025.000000,521.708435 1024.969727,540.939819 
	C1024.099487,550.236267 1023.198120,558.649963 1022.431091,567.075928 
	C1019.814392,595.820129 1014.313965,623.994629 1006.427551,651.761108 
	C977.850342,752.375732 923.509827,836.532166 844.127930,904.329895 
	C790.111328,950.463867 728.683105,983.441101 660.554199,1003.804199 
	C629.868591,1012.975952 598.709351,1019.628906 566.760315,1022.612244 
	C559.514832,1023.288818 552.088562,1022.779480 545.000000,1025.000000 
M872.224365,717.664062 
	C858.804077,741.030090 843.386292,762.984253 825.566528,783.207825 
	C822.935913,786.193237 822.277222,788.836914 823.824768,792.632141 
	C827.551636,801.772156 828.297363,811.482544 827.101990,821.138550 
	C821.553589,865.958008 772.331726,890.715698 732.995361,868.505676 
	C729.466248,866.513062 726.805115,866.520142 723.392395,868.533936 
	C670.079773,899.993896 612.576111,918.565674 550.957886,924.525818 
	C513.913208,928.109009 477.104218,926.472046 440.533447,919.780334 
	C399.312714,912.237732 359.927063,899.210449 322.857788,879.504456 
	C319.999939,877.985229 317.952332,878.075806 315.255127,880.177063 
	C303.373505,889.433838 289.734619,893.890442 274.699951,893.080139 
	C232.615387,890.812012 205.321457,849.957825 218.934937,809.772400 
	C220.022232,806.562866 220.477661,804.129822 217.674164,801.285461 
	C178.179047,761.214600 148.522552,714.749023 128.090073,662.381226 
	C114.090706,626.501343 105.357773,589.346375 101.677101,551.007446 
	C98.913383,522.219727 99.285889,493.484253 102.616486,464.742371 
	C106.021477,435.358429 112.923325,406.807556 122.034096,378.729401 
	C123.055862,375.580475 124.521271,374.417084 127.909134,375.726562 
	C135.674240,378.727936 143.512161,381.553192 151.392776,384.237885 
	C154.841858,385.412872 155.626175,387.128601 154.405640,390.600189 
	C143.347992,422.052002 137.364609,454.497467 135.085922,487.735840 
	C132.989868,518.309814 134.802383,548.630981 139.930267,578.769104 
	C145.947586,614.134827 157.255219,647.825439 173.047791,680.004150 
	C189.760483,714.057678 211.201111,744.856445 237.183472,772.499207 
	C239.646820,775.120056 241.458725,777.043823 245.109558,773.381958 
	C310.415283,707.878784 375.831299,642.485596 441.312927,577.158203 
	C444.314575,574.163635 444.079803,572.311646 441.270844,569.461914 
	C430.509644,558.544617 419.944000,547.434448 409.317200,536.384827 
	C392.337311,518.729431 375.380005,501.052185 358.373840,483.422089 
	C356.467346,481.445679 354.839813,479.205048 351.302887,479.617493 
	C324.935913,482.691956 302.368347,474.598053 283.595642,455.943726 
	C265.152954,437.617371 246.825668,419.174896 228.436462,400.794678 
	C194.015625,366.390778 159.630630,331.950653 125.092598,297.664764 
	C121.667168,294.264313 121.505943,292.116577 125.102943,288.877167 
	C130.297348,284.199249 135.081650,279.064514 140.018005,274.101898 
	C145.107834,268.984955 145.080200,268.988586 150.038071,273.947906 
	C184.444855,308.364899 218.893478,342.740204 253.210175,377.246765 
	C256.249481,380.302856 258.234741,380.648468 261.279572,377.387970 
	C266.849487,371.423553 272.649597,365.657959 278.598206,360.069733 
	C281.786774,357.074310 281.712555,354.858887 278.615692,351.848083 
	C269.056793,342.554962 259.694641,333.059387 250.263733,323.634735 
	C225.036224,298.423981 199.855392,273.166168 174.533234,248.050873 
	C171.395020,244.938339 170.795395,242.875336 174.380646,239.614777 
	C180.291748,234.239014 185.812027,228.424591 191.362686,222.665604 
	C193.730438,220.208984 195.523804,220.156631 197.977875,222.660278 
	C207.776962,232.657425 217.739670,242.494110 227.632278,252.399689 
	C252.835159,277.635529 278.073334,302.836487 303.175659,328.171997 
	C305.950195,330.972382 307.734802,331.075500 310.437531,328.236847 
	C316.410858,321.963135 322.570801,315.860687 328.809540,309.849182 
	C331.448761,307.306122 331.418335,305.535309 328.728180,302.917419 
	C317.979462,292.457520 307.441650,281.780884 296.833130,271.177094 
	C272.668976,247.023651 248.573685,222.800629 224.277008,198.781265 
	C220.688477,195.233688 220.523911,193.012802 224.352768,189.632034 
	C229.589600,185.008011 234.326462,179.816879 239.265915,174.857162 
	C244.275726,169.826813 244.287491,169.802628 249.384949,174.908447 
	C302.129913,227.739975 354.938629,280.508179 407.570465,333.452240 
	C425.537567,351.525909 433.185944,373.635376 430.994354,398.983521 
	C430.682404,402.591431 431.493408,404.845398 434.005066,407.250488 
	C461.564941,433.640717 489.017578,460.142975 516.538330,486.574127 
	C524.288208,494.017181 524.350891,493.960388 531.952759,486.360474 
	C612.333679,406.000305 692.692505,325.618042 773.161987,245.346695 
	C776.684998,241.832382 776.717041,239.458328 772.884949,236.658081 
	C772.218567,236.171127 771.691772,235.496979 771.078003,234.933762 
	C699.245056,169.019669 614.410339,135.450699 517.108582,133.711121 
	C489.609741,133.219498 462.234833,136.094803 435.234833,141.762985 
	C399.954102,149.169586 366.459320,161.465988 334.642700,178.386597 
	C328.845337,181.469742 328.830841,181.421005 325.591431,175.563293 
	C322.043427,169.147552 318.672882,162.621994 314.846375,156.376297 
	C312.487366,152.525909 313.443054,150.748154 317.218231,148.705383 
	C335.288025,138.927719 354.020691,130.616699 373.354523,123.793716 
	C435.610657,101.823265 499.511292,94.238831 565.165527,102.559479 
	C609.644653,108.196510 652.109558,120.623627 692.501953,140.057892 
	C730.944519,158.554001 765.611816,182.554703 796.577881,211.901566 
	C801.615234,216.675491 801.632263,216.657028 806.646545,211.650894 
	C818.794495,199.522583 830.822815,187.270386 843.165833,175.343872 
	C846.759949,171.871109 846.404846,169.729904 842.964233,166.560532 
	C832.787720,157.186249 822.596497,147.826538 811.731628,139.260757 
	C721.797791,68.357643 619.639404,33.388248 505.027466,34.802959 
	C464.152893,35.307491 424.064941,41.181469 384.795288,52.164936 
	C311.992584,72.527382 247.521820,108.178444 191.579987,159.119949 
	C138.492661,207.462097 98.250000,264.867157 70.817764,331.168213 
	C51.056320,378.929749 39.637730,428.693848 36.149101,480.298004 
	C34.064610,511.132019 34.596512,541.909790 38.624649,572.513977 
	C43.217052,607.405151 51.138153,641.536255 63.159161,674.740295 
	C86.669121,739.679016 122.433517,796.935364 170.568863,846.281067 
	C220.886658,897.864075 279.977386,936.270508 347.613831,961.439209 
	C393.059753,978.350464 440.079620,987.859375 488.369751,990.399048 
	C519.800720,992.052185 551.225586,990.657410 582.483093,985.893066 
	C622.695862,979.763672 661.642822,969.300903 699.064636,953.401245 
	C759.359009,927.783447 812.259583,891.338318 857.723083,844.142212 
	C899.592224,800.677246 932.247986,751.102905 955.180115,695.309998 
	C981.679260,630.838806 993.833923,563.740112 990.954712,493.943115 
	C989.653198,462.391724 985.174194,431.355225 977.891357,400.695251 
	C966.719177,353.661713 948.418884,309.502472 923.719971,267.982208 
	C918.214478,258.727081 912.753845,249.422409 906.005493,240.912949 
	C904.594299,242.007721 904.553223,243.354141 904.325317,244.641876 
	C899.846069,269.946594 893.359741,294.722168 883.988403,318.659637 
	C882.096313,323.492645 882.390076,327.310272 884.617371,331.834167 
	C905.020691,373.275177 917.851257,416.989136 923.466064,462.834595 
	C927.883118,498.899933 927.698547,534.905579 922.473206,570.890076 
	C914.946899,622.720886 898.447998,671.464233 872.224365,717.664062 
M670.075623,634.420166 
	C713.286133,676.085144 756.496582,717.750183 800.165283,759.856995 
	C860.914124,688.021423 891.586426,606.009583 892.302185,513.371399 
	C892.692322,462.882446 883.311218,413.824371 862.441772,366.374237 
	C801.460083,471.342804 712.434387,535.716675 593.819092,561.052856 
	C619.718628,585.977600 644.637573,609.958618 670.075623,634.420166 
M510.137054,653.622375 
	C506.712097,657.707397 503.310089,661.811890 499.858856,665.874512 
	C448.736755,726.051941 397.606842,786.222717 346.483917,846.399414 
	C342.770081,850.770996 342.879547,851.303284 348.094818,853.822449 
	C407.681763,882.604980 470.472076,895.019104 536.548889,890.838440 
	C564.723267,889.055908 592.417725,884.602844 619.501343,876.577515 
	C646.749634,868.503357 672.807800,857.592468 697.680298,843.813049 
	C701.619873,841.630554 701.779785,839.821411 698.701355,836.778381 
	C693.370911,831.509338 688.258789,826.019226 683.061829,820.615356 
	C648.994873,785.191833 614.936646,749.759766 580.861267,714.344360 
	C560.415649,693.094666 539.904846,671.907227 519.530945,650.589050 
	C516.800903,647.732483 514.767761,647.328857 512.460205,650.741516 
	C511.902252,651.566589 511.211578,652.301819 510.137054,653.622375 
M709.192932,357.692841 
	C661.595581,405.292664 614.030212,452.924683 566.330139,500.421356 
	C563.080383,503.657257 562.847107,505.634979 566.261169,508.745728 
	C571.674927,513.678467 576.769653,518.969177 581.874390,524.229675 
	C583.964172,526.383179 586.271729,527.026306 589.105469,526.417969 
	C603.264221,523.378113 617.399170,520.213074 631.176453,515.712158 
	C682.179199,499.049988 727.295593,472.448273 766.128784,435.350769 
	C812.856079,390.712036 844.886353,337.188049 862.723755,275.123932 
	C868.901123,253.630173 872.234680,231.614609 874.532837,209.426392 
	C875.100403,203.946609 875.161621,198.414383 875.455627,192.906265 
	C875.079895,192.780655 874.704224,192.655045 874.328491,192.529449 
	C819.450134,247.417404 764.571777,302.305359 709.192932,357.692841 
M305.691162,761.191162 
	C290.262024,776.627808 274.852905,792.084595 259.390320,807.487732 
	C255.265732,811.596375 252.501205,816.420288 250.998520,822.013000 
	C247.308334,835.747375 252.697128,849.020264 264.570496,855.417114 
	C276.644623,861.922058 289.991302,859.178406 299.689972,848.191345 
	C300.902679,846.817566 302.100067,845.429932 303.286774,844.033569 
	C368.442108,767.365356 433.591187,690.691895 498.751984,614.028320 
	C516.661011,592.957825 534.552002,571.871338 552.591125,550.912659 
	C555.191345,547.891602 555.570801,545.818298 552.346985,543.118408 
	C549.420593,540.667480 546.885071,537.751343 544.163452,535.054260 
	C537.381287,528.333313 538.738831,528.159973 532.036621,534.860046 
	C456.745209,610.127502 381.471283,685.412476 305.691162,761.191162 
M640.590149,653.922485 
	C618.070496,632.172729 595.501892,610.473022 573.084045,588.618835 
	C569.735596,585.354553 567.687134,585.504639 564.755737,589.116882 
	C557.097717,598.553406 549.165283,607.771240 541.189148,616.943115 
	C538.851868,619.630737 538.861755,621.509583 541.424377,624.089417 
	C549.638306,632.358643 557.625244,640.853210 565.708008,649.252991 
	C605.427917,690.530457 645.147339,731.808411 684.873474,773.079895 
	C704.044067,792.996094 723.076660,813.048340 742.462646,832.752808 
	C754.900269,845.394714 772.785400,845.195862 784.716248,832.890625 
	C796.094788,821.155029 795.481812,803.413452 783.215149,791.329590 
	C777.877014,786.071045 772.422729,780.930420 767.026123,775.731140 
	C725.051758,735.291016 683.078613,694.849731 640.590149,653.922485 
M390.712555,418.205444 
	C401.314301,396.630707 398.399994,374.500641 382.192017,356.727661 
	C375.021606,348.864929 367.191254,341.607697 359.826202,333.916870 
	C357.208252,331.183167 355.381958,331.510651 352.859558,334.047363 
	C330.210663,356.824738 307.495178,379.536194 284.722137,402.189484 
	C282.243530,404.655121 282.341583,406.412842 284.785095,408.791016 
	C291.940491,415.755127 298.895325,422.924713 305.997833,429.943878 
	C331.877075,455.519440 371.933197,450.244049 390.712555,418.205444 
M469.367126,547.970642 
	C471.163300,547.632751 472.102631,546.139587 473.261475,544.991821 
	C480.835663,537.490479 488.214874,529.783386 495.988892,522.496704 
	C499.460236,519.242920 499.049042,517.303528 495.793091,514.208008 
	C476.119415,495.503906 456.640747,476.594849 437.079193,457.772675 
	C430.876801,451.804718 424.620087,445.893188 417.847015,439.440186 
	C410.423462,450.746765 401.126526,459.370483 390.679230,467.057617 
	C391.809143,468.455444 392.465851,469.403442 393.254944,470.224121 
	C411.376373,489.071075 429.459412,507.955414 447.672424,526.713562 
	C454.612610,533.861450 461.134430,541.435059 469.367126,547.970642 
z"/>
<path fill="#000000" opacity="1.000000" stroke="none" 
	d="
M753.518127,417.036041 
	C751.854797,420.224396 750.305481,423.146698 748.516907,425.914490 
	C746.497070,429.040375 743.661987,429.152100 740.720886,427.348328 
	C737.328125,425.267578 740.294189,423.340912 741.131470,421.522827 
	C742.881958,417.721680 745.406921,414.804718 750.097900,414.769562 
	C751.684204,414.757629 753.150269,414.688782 753.518127,417.036041 
z"/>
</svg>