<svg version="1.1" id="Layer_1" xmlns="http://www.w3.org/2000/svg" xmlns:xlink="http://www.w3.org/1999/xlink" x="0px" y="0px"
	 width="100%" viewBox="0 0 1024 1024" enable-background="new 0 0 1024 1024" xml:space="preserve">
<path fill="#000000" opacity="1.000000" stroke="none" 
	d="
M1.000000,745.468628 
	C1.756535,743.265564 1.700322,741.431091 1.691273,739.595459 
	C1.489131,698.587036 4.438445,657.725891 8.070068,616.931152 
	C12.008969,572.684692 18.743858,528.815613 27.406317,485.230652 
	C37.750175,433.185822 51.796112,382.230804 71.749855,333.021606 
	C90.052521,287.884247 112.598030,245.098724 143.696640,207.262054 
	C156.213135,192.033630 169.948593,178.013718 185.591293,165.920044 
	C196.131775,157.770966 207.858673,153.756760 221.281189,153.848282 
	C253.778442,154.069885 286.278351,153.861084 318.776917,153.935211 
	C339.706299,153.982956 355.499695,163.201965 366.244415,181.114899 
	C374.726349,195.255417 383.736450,209.085190 391.448639,223.677689 
	C392.633759,225.920074 394.233124,226.744675 396.644379,226.684509 
	C400.141815,226.597214 403.643280,226.672424 407.143005,226.672882 
	C480.306854,226.682266 553.470947,226.615723 626.634094,226.846146 
	C632.325134,226.864044 634.954712,224.758316 637.900452,220.189407 
	C650.159607,201.175034 661.943970,181.714294 678.943176,166.300095 
	C688.071167,158.023209 698.712524,153.784088 711.224915,153.869919 
	C738.889160,154.059692 766.577698,154.597549 794.214294,153.699677 
	C816.078613,152.989334 832.332214,161.925186 846.867737,177.360168 
	C894.892700,228.356842 927.401062,288.495331 952.177795,353.319305 
	C974.594055,411.967560 990.088379,472.502533 1001.348816,534.190063 
	C1008.757385,574.776001 1014.667114,615.576782 1018.684265,656.634766 
	C1020.255127,672.690613 1021.181702,688.810364 1022.333313,704.905945 
	C1023.175903,716.682251 1023.906982,728.466492 1024.843872,740.623596 
	C1025.000000,751.687561 1025.000000,762.375122 1025.000000,773.531372 
	C1022.146851,788.518677 1017.461060,802.224609 1008.377441,814.228088 
	C1001.431824,823.406311 992.530029,830.352661 983.572266,837.290710 
	C971.215271,846.861572 959.498230,857.256165 945.006104,863.857361 
	C907.663940,880.866760 861.315063,870.781555 833.863281,840.216309 
	C804.915466,807.985291 775.310608,776.344482 746.004150,744.435364 
	C735.296936,732.777222 724.599182,721.110229 713.939209,709.408936 
	C701.765686,696.046204 686.763611,690.033447 668.610657,690.068542 
	C563.779358,690.271301 458.947021,690.315857 354.116180,690.014709 
	C333.973969,689.956787 318.300720,697.294189 305.061981,712.278687 
	C283.444519,736.746704 261.098633,760.570984 239.071457,784.677307 
	C222.663635,802.633850 205.949295,820.323547 189.960220,838.645874 
	C170.948517,860.431946 147.287796,870.926819 118.525383,872.226685 
	C89.132324,873.555115 64.092087,864.812927 41.992722,845.375549 
	C29.178444,834.104736 17.591524,822.297852 10.195882,806.758484 
	C5.644406,797.195129 3.087701,787.070679 1.133790,776.355957 
	C1.000000,765.979126 1.000000,755.958191 1.000000,745.468628 
M629.653320,336.320923 
	C621.696533,340.253052 613.219299,341.427734 604.432068,341.401093 
	C577.602295,341.319824 550.772156,341.385742 523.942139,341.364960 
	C487.947357,341.337128 451.947388,341.640961 415.959473,341.121002 
	C388.686798,340.726990 365.237335,314.423645 367.152161,287.353577 
	C368.182648,272.785828 365.801605,258.823547 360.005402,245.476669 
	C353.404938,230.277878 343.257416,217.086716 335.427399,202.589661 
	C331.198517,194.760056 325.203033,191.721405 316.364105,191.811172 
	C286.204407,192.117477 256.038910,192.010147 225.877167,191.816696 
	C220.445633,191.781845 215.903519,193.162598 211.404678,196.121368 
	C188.007751,211.509018 170.064774,232.183334 154.316681,254.919586 
	C123.243362,299.781586 103.109802,349.710327 87.337685,401.558472 
	C77.064720,435.329102 69.117371,469.675232 62.671478,504.394745 
	C55.469906,543.184631 50.029781,582.208130 46.434380,621.474792 
	C44.219906,645.659912 42.284668,669.875061 40.994072,694.142517 
	C39.641407,719.577148 38.365479,745.003540 38.151943,770.478760 
	C38.097275,777.001160 39.479801,783.138977 42.759312,788.646667 
	C51.771893,803.782288 63.885315,816.151306 78.641846,825.604126 
	C93.410309,835.064636 109.852783,835.741699 126.837929,833.374451 
	C139.867584,831.558472 150.398529,825.913696 159.164780,816.253662 
	C179.317490,794.046082 199.609268,771.964478 219.887329,749.870972 
	C241.854874,725.936707 263.401642,701.591492 286.021301,678.288879 
	C302.720947,661.084961 323.980927,652.730408 348.095062,652.711731 
	C455.581604,652.628601 563.068359,652.759277 670.554688,652.596924 
	C698.150757,652.555237 721.406189,662.334534 740.015320,682.392700 
	C779.901184,725.384583 819.432373,768.705383 859.110291,811.890198 
	C863.279358,816.427795 867.304993,821.127319 872.365845,824.730591 
	C891.412170,838.291748 923.020569,837.031982 942.246704,821.950378 
	C950.636169,815.369324 958.908630,808.637390 967.361511,802.139404 
	C981.608337,791.187195 988.438110,776.933838 987.763672,758.869507 
	C986.695496,730.261414 984.626587,701.737305 981.931824,673.238525 
	C979.565369,648.211609 977.065552,623.189941 973.429688,598.332214 
	C967.750244,559.503723 960.796021,520.879395 951.671387,482.685577 
	C935.910461,416.713715 915.253967,352.485779 883.038818,292.462799 
	C864.427490,257.786346 842.209412,225.696899 814.051392,197.948730 
	C810.153931,194.107910 805.851318,191.910538 800.323120,191.918365 
	C770.826965,191.960114 741.330688,191.937592 711.834412,191.910309 
	C706.222168,191.905106 702.042236,194.209045 698.788513,198.844620 
	C692.664124,207.570053 686.483276,216.271835 679.945190,224.687653 
	C665.726379,242.989929 658.468933,263.370819 659.219116,286.768127 
	C659.931519,308.985870 649.880737,325.409027 629.653320,336.320923 
M490.500000,303.761505 
	C500.993713,303.762817 511.487427,303.764923 521.981140,303.765259 
	C549.131348,303.766052 576.281555,303.787231 603.431763,303.757233 
	C616.487427,303.742798 621.455750,298.783386 621.835083,285.662323 
	C621.964661,281.177979 621.768616,276.700165 622.395569,272.207550 
	C623.460022,264.580170 623.064148,264.279938 615.462952,264.280304 
	C547.337585,264.283569 479.212189,264.289581 411.086792,264.294922 
	C410.087402,264.294983 409.083679,264.357819 408.089447,264.286713 
	C405.270599,264.085052 404.244476,265.425476 404.300262,268.160553 
	C404.415833,273.821594 404.099304,279.501282 404.426788,285.146240 
	C405.258820,299.486877 409.979309,303.755157 424.539368,303.761383 
	C446.192902,303.770630 467.846466,303.761932 490.500000,303.761505 
z"/>
<path fill="#000000" opacity="1.000000" stroke="none" 
	d="
M163.496399,389.371033 
	C167.424133,389.396301 170.932739,389.283295 174.397568,389.620453 
	C178.308914,390.001038 179.704239,388.587097 179.702835,384.609375 
	C179.700317,377.476471 179.197937,370.342438 180.594254,363.206024 
	C185.951477,335.825897 210.252640,316.373444 238.840317,316.841034 
	C265.867188,317.283112 289.831818,338.118164 294.051941,365.072540 
	C294.950592,370.812408 295.100372,376.656891 294.975403,382.502167 
	C294.818604,389.835144 294.945679,389.841461 302.490570,389.866669 
	C304.989594,389.875031 307.488708,389.849274 309.987732,389.856598 
	C341.884918,389.949768 368.019531,415.221741 368.023590,447.078583 
	C368.027893,480.758331 341.783600,504.063049 313.085205,505.238861 
	C307.136932,505.482574 301.170135,505.274231 294.950195,505.274231 
	C294.554291,512.582397 295.088165,519.023743 294.488678,525.465576 
	C291.951019,552.734741 272.178894,573.914490 245.087982,577.997314 
	C219.271057,581.888123 193.522949,566.638855 183.529968,541.831360 
	C179.880753,532.772217 179.335495,523.430298 179.590912,513.895691 
	C179.657074,511.425659 179.600845,508.952393 179.600845,505.973297 
	C172.059082,506.011719 165.141266,506.155792 158.223862,505.327026 
	C126.864304,501.569702 104.840858,476.260803 105.724243,444.646667 
	C106.456039,418.457245 127.731888,394.565186 153.671310,390.802338 
	C156.800629,390.348419 159.929108,389.888580 163.496399,389.371033 
M218.031509,367.814911 
	C217.242813,369.887970 217.256241,372.057587 217.256470,374.226349 
	C217.257645,385.057495 217.390884,395.890686 217.223267,406.719238 
	C217.016342,420.086853 209.556183,427.344727 196.294556,427.374786 
	C185.963379,427.398193 175.630325,427.261230 165.301285,427.412567 
	C152.449066,427.600830 143.316208,436.262573 143.372452,447.944794 
	C143.426071,459.080505 152.985367,467.649719 165.461044,467.689880 
	C175.292282,467.721497 185.123749,467.703094 194.955078,467.688263 
	C209.666397,467.666077 217.167068,475.013184 217.255219,489.679077 
	C217.316299,499.843262 217.240738,510.008209 217.260269,520.172791 
	C217.264725,522.492310 217.246292,524.785767 218.039536,527.072998 
	C221.403763,536.773743 230.042191,542.102539 240.342743,540.681274 
	C249.662292,539.395264 256.693512,531.607971 256.944580,521.707886 
	C257.202179,511.549530 257.047241,501.380402 257.047241,491.216003 
	C257.047241,487.706757 257.229645,484.187042 258.236877,480.839844 
	C260.808350,472.294250 267.924255,467.832977 278.314270,467.640503 
	C290.619995,467.412537 302.968323,468.831909 315.228485,466.746674 
	C324.007965,465.253448 330.121521,458.519379 330.724426,449.675781 
	C331.597900,436.863556 322.638153,427.660645 308.757141,427.427307 
	C297.595795,427.239685 286.427643,427.473907 275.265320,427.318878 
	C266.120728,427.191895 258.801086,420.506256 257.664520,411.378082 
	C256.176514,399.427490 257.245453,387.420929 257.100067,375.440735 
	C256.969299,364.667206 251.195419,356.467651 242.122147,354.477783 
	C231.694977,352.191010 222.919556,356.818359 218.031509,367.814911 
z"/>
<path fill="#000000" opacity="1.000000" stroke="none" 
	d="
M606.776489,459.826660 
	C620.059631,444.388641 636.679871,436.627625 656.595093,436.820282 
	C687.009033,437.114502 713.544739,462.045715 717.495972,492.039307 
	C721.477417,522.261353 702.009949,554.521790 668.112549,562.463257 
	C634.040527,570.445618 597.101868,544.620361 592.859131,509.674805 
	C590.615295,491.193298 595.020569,474.701080 606.776489,459.826660 
M636.305786,482.817291 
	C631.272949,488.515198 629.597351,495.194641 630.064880,502.690308 
	C630.964844,517.119507 643.962830,527.606628 658.818604,525.681030 
	C672.609802,523.893372 682.912537,509.385010 680.373840,495.873444 
	C677.059814,478.235535 654.661072,465.402527 636.305786,482.817291 
z"/>
<path fill="#000000" opacity="1.000000" stroke="none" 
	d="
M714.300537,354.354187 
	C727.841431,338.926636 744.445557,331.359955 764.751038,331.632416 
	C793.090820,332.012726 819.910095,354.953552 824.289246,382.928741 
	C830.222290,420.830719 807.391479,452.826874 769.329956,457.841339 
	C739.419739,461.781921 710.417053,442.509430 702.111389,411.570984 
	C696.527039,390.769714 700.777222,371.654419 714.300537,354.354187 
M748.428101,416.133850 
	C749.434326,416.720215 750.409180,417.370117 751.451599,417.883026 
	C761.324219,422.740631 771.554993,421.233673 779.641418,413.757233 
	C787.555115,406.440491 790.256165,395.621155 786.599060,385.887848 
	C782.881104,375.992615 773.216675,369.241608 762.705933,369.197540 
	C752.024475,369.152740 742.677734,375.733032 738.993103,385.891846 
	C734.908386,397.153717 738.008789,407.600311 748.428101,416.133850 
z"/>
<path fill="#000000" opacity="1.000000" stroke="none" 
	d="
M796.118042,585.995850 
	C776.880920,573.066711 766.907166,555.245422 766.757629,532.483948 
	C766.548889,500.710510 792.209290,473.627167 823.867004,470.548035 
	C858.182434,467.210419 887.522034,492.119843 892.759949,523.050842 
	C898.411987,556.427368 873.524902,590.720764 839.904907,595.312683 
	C824.192993,597.458679 809.827271,594.433472 796.118042,585.995850 
M837.802612,508.580811 
	C827.276855,505.182068 818.173035,508.061798 811.157288,516.029602 
	C803.880005,524.294495 802.101501,534.010498 807.255615,544.251099 
	C812.231689,554.138123 820.472778,558.950806 831.461670,558.693665 
	C843.334961,558.415894 853.086487,549.179932 855.397644,536.428711 
	C857.376953,525.508423 850.139771,513.671814 837.802612,508.580811 
z"/>
<path fill="#000000" opacity="1.000000" stroke="none" 
	d="
M401.990265,621.151855 
	C394.597412,614.338135 392.624786,607.334595 395.652710,599.471008 
	C398.695435,591.568970 404.921478,587.662903 414.527100,587.657349 
	C427.686035,587.649658 440.845093,587.625183 454.003906,587.666565 
	C464.709045,587.700195 472.276337,594.438354 473.228302,604.677368 
	C474.118958,614.256897 467.512573,622.479126 457.407135,624.569580 
	C452.770203,625.528687 448.111084,625.082520 443.463318,625.130615 
	C434.136414,625.227234 424.807770,625.144897 415.480042,625.183838 
	C410.695282,625.203857 406.235016,624.199585 401.990265,621.151855 
z"/>
<path fill="#000000" opacity="1.000000" stroke="none" 
	d="
M600.989807,625.155212 
	C591.011902,625.156616 581.528381,625.319824 572.052551,625.119568 
	C557.954773,624.821594 549.110901,612.636108 553.478760,599.803284 
	C555.968079,592.489685 562.310730,587.726562 570.035156,587.682678 
	C584.337891,587.601440 598.641968,587.596436 612.944580,587.688965 
	C622.259338,587.749207 630.098145,594.719055 631.182983,603.642212 
	C632.326782,613.049866 626.111450,621.963562 616.880127,624.276489 
	C611.792908,625.551147 606.626770,625.019897 600.989807,625.155212 
z"/>
</svg>