<svg version="1.1" id="Layer_1" xmlns="http://www.w3.org/2000/svg" xmlns:xlink="http://www.w3.org/1999/xlink" x="0px" y="0px"
	 width="100%" viewBox="0 0 1080 1080" enable-background="new 0 0 1080 1080" xml:space="preserve">
<path fill="#000000" opacity="1.000000" stroke="none" 
	d="
M1.000000,203.000000 
	C1.000000,176.645767 1.000000,150.291550 1.289485,123.268738 
	C4.979066,113.170563 10.730343,109.027779 20.717392,109.011131 
	C42.714951,108.974464 64.714890,108.816811 86.709114,109.089783 
	C95.502007,109.198921 104.378029,109.705177 113.052887,111.069298 
	C166.576508,119.485817 211.272522,166.586487 215.838043,220.521790 
	C217.603561,241.378784 216.694016,262.462341 216.996902,283.442780 
	C217.022415,285.210297 217.000275,286.978455 217.000275,288.753357 
	C301.985901,288.753357 386.400208,288.753357 470.738770,288.753357 
	C471.059540,287.711731 471.332092,286.923676 471.545563,286.119934 
	C482.902191,243.365036 517.208191,217.000336 561.498596,217.000061 
	C704.816406,216.999191 848.134277,216.987854 991.452087,217.007156 
	C1033.138672,217.012772 1070.234619,246.958557 1078.911011,287.499786 
	C1079.589478,290.670349 1080.302734,293.833466 1081.000000,297.000000 
	C1081.000000,447.687561 1081.000000,598.375122 1080.662109,749.741699 
	C1073.510010,796.894897 1036.266235,829.000061 989.167725,829.000244 
	C961.503357,829.000305 933.839050,829.000183 906.174683,829.000183 
	C904.562378,829.000183 902.950134,829.000244 901.000000,829.000244 
	C901.000000,846.948242 901.061462,864.410522 900.978271,881.872070 
	C900.923218,893.417603 893.419678,900.968872 881.863159,900.976501 
	C810.535828,901.023499 739.208435,901.026489 667.881104,900.972595 
	C656.632141,900.964050 649.097717,893.373779 649.026062,882.128540 
	C648.924194,866.130554 648.999939,850.131409 648.999817,834.132751 
	C648.999817,832.524475 648.999756,830.916199 648.999756,829.276428 
	C636.745850,829.276428 625.012024,829.276428 613.000183,829.276428 
	C613.000183,846.855103 613.043579,864.159180 612.985168,881.462952 
	C612.944824,893.418884 605.582153,900.973450 593.772400,900.978271 
	C498.613708,901.017029 403.455048,901.015320 308.296356,900.980591 
	C296.488770,900.976257 289.062592,893.430176 289.015564,881.544006 
	C288.952240,865.545593 289.005829,849.546753 288.989502,833.548096 
	C288.988037,832.109802 288.842560,830.671631 288.767914,829.305298 
	C264.687531,829.305298 240.954330,829.305298 217.000290,829.305298 
	C217.000290,831.421997 217.000290,833.235229 217.000290,835.048462 
	C217.000244,874.545166 217.026138,914.041870 216.983688,953.538574 
	C216.971573,964.803772 209.827438,972.835938 199.196060,972.926270 
	C175.033310,973.131653 150.866592,973.115051 126.703583,972.924805 
	C116.703514,972.846069 109.216881,965.056580 109.043610,954.949585 
	C108.863670,944.453491 109.010475,933.952026 108.988678,923.452881 
	C108.985703,922.022400 108.833763,920.592163 108.741425,919.000122 
	C97.038437,919.000122 85.721153,919.049011 74.404488,918.986206 
	C63.176422,918.923828 55.090202,911.433472 55.008015,901.151855 
	C54.924191,890.666199 63.082783,883.081116 74.605103,883.009399 
	C82.604118,882.959656 90.603699,882.999817 98.603027,882.999817 
	C102.024963,882.999817 105.446907,882.999756 108.640373,882.999756 
	C108.640373,870.576660 108.640373,858.840271 108.640373,847.000244 
	C91.121422,847.000244 73.961494,847.034485 56.801777,846.988770 
	C44.334080,846.955566 37.021744,839.597717 37.010487,827.049561 
	C36.979385,792.385803 36.980534,757.722046 37.009708,723.058289 
	C37.020500,710.233643 44.294628,703.032532 57.198349,703.007263 
	C73.030289,702.976196 88.862350,703.006104 104.694328,702.988953 
	C106.112312,702.987427 107.530128,702.834778 108.784668,702.761780 
	C108.784668,690.633179 108.784668,679.016724 108.784668,666.999451 
	C96.952042,666.999451 85.330185,667.026550 73.708527,666.989563 
	C66.458740,666.966492 60.769493,663.938721 57.283199,657.534912 
	C50.785534,645.599670 59.043911,631.397827 72.802711,631.068054 
	C84.742363,630.781799 96.694305,631.008484 108.747849,631.008484 
	C108.747849,618.795532 108.747849,607.062012 108.747849,595.000183 
	C91.200600,595.000183 73.903076,595.038757 56.605827,594.986511 
	C45.082199,594.951721 36.921158,587.336731 37.008076,576.853271 
	C37.093338,566.569275 45.176441,559.065552 56.403740,559.015564 
	C70.902229,558.950989 85.401237,558.999817 99.900017,558.999817 
	C102.844467,558.999756 105.788918,558.999756 108.712097,558.999756 
	C108.712097,546.722595 108.712097,534.988464 108.712097,523.000244 
	C106.788910,523.000244 105.144821,523.000183 103.500725,523.000183 
	C77.169601,523.000183 50.832745,522.679688 24.510044,523.150574 
	C13.223763,523.352417 5.143835,519.865784 1.000000,509.000000 
	C1.000000,458.645782 1.000000,408.291534 1.289670,357.268982 
	C4.978872,347.172729 10.729218,343.023926 20.710114,343.011810 
	C48.365795,342.978241 76.021538,343.000092 103.677261,343.000092 
	C105.422188,343.000092 107.167114,343.000122 108.796021,343.000122 
	C108.796021,330.649811 108.796021,319.035980 108.796021,306.999878 
	C106.979141,306.999878 105.359009,307.000214 103.738876,306.999847 
	C87.412071,306.996155 71.083420,307.138214 54.759178,306.931854 
	C45.486313,306.814667 38.117741,299.868134 37.134293,290.995148 
	C36.143082,282.052155 41.823807,273.855499 50.829361,271.615112 
	C53.206116,271.023834 55.769547,271.031769 58.247990,271.024780 
	C75.028229,270.977509 91.808662,271.000122 108.198700,271.000122 
	C108.696938,270.459991 108.905449,270.339600 108.905922,270.218414 
	C108.947639,259.556976 108.991913,248.895477 108.995598,238.233978 
	C109.000519,223.972229 102.106186,217.008987 87.985634,217.002426 
	C66.827339,216.992615 45.660496,216.640930 24.514217,217.144928 
	C13.231889,217.413864 5.144381,213.867706 1.000000,203.000000 
M681.500000,721.000549 
	C783.989563,721.000549 886.479065,721.001953 988.968628,720.999695 
	C1021.407227,720.998962 1044.999634,697.360107 1045.000000,664.863708 
	C1045.001099,546.542297 1045.001343,428.220917 1044.999878,309.899506 
	C1044.999390,276.259857 1021.830139,253.000839 988.314331,253.000320 
	C846.161987,252.998138 704.009705,252.998886 561.857361,253.004593 
	C559.858948,253.004669 557.857666,253.028381 555.862549,253.132904 
	C530.901245,254.440628 508.500732,273.447510 506.229340,298.334869 
	C504.350311,318.923004 505.845215,339.819092 505.845215,361.000580 
	C522.364075,361.000580 539.316223,360.988770 556.268372,361.004303 
	C569.853577,361.016724 576.980774,368.065491 576.994141,381.526367 
	C577.014404,402.024292 576.360168,422.547913 577.182129,443.012848 
	C577.979187,462.859100 569.260681,470.043701 551.207397,469.154114 
	C535.963684,468.402985 520.653503,468.999420 505.244019,468.999420 
	C505.244019,481.190308 505.244019,492.923706 505.244019,505.000580 
	C507.115051,505.000580 508.745819,505.000519 510.376617,505.000580 
	C526.375000,505.001038 542.374084,504.908661 558.371521,505.034027 
	C569.300537,505.119690 576.912537,512.703369 576.964111,523.629395 
	C577.075012,547.126465 577.062744,570.624756 576.971252,594.122009 
	C576.927429,605.374023 569.379272,612.897095 558.111450,612.972046 
	C542.113770,613.078430 526.114868,612.999268 510.116486,612.999451 
	C508.509766,612.999512 506.903046,612.999451 504.999420,612.999451 
	C504.999420,630.493652 504.996338,647.460876 505.000122,664.428040 
	C505.007538,697.675598 528.298096,720.994446 561.512024,720.999207 
	C601.174683,721.004822 640.837341,721.000549 681.500000,721.000549 
M145.000000,705.500000 
	C145.000000,782.587158 145.000000,859.674255 145.000000,936.686279 
	C157.331024,936.686279 169.065704,936.686279 181.000000,936.686279 
	C181.000000,934.391724 181.000000,932.409546 181.000000,930.427368 
	C181.000000,699.784668 181.006180,469.141968 180.961426,238.499268 
	C180.960388,233.186325 180.628571,227.846115 180.037155,222.564972 
	C175.726639,184.072144 142.046860,149.651031 103.539864,146.203735 
	C83.031868,144.367783 62.275074,145.309830 41.630505,145.002808 
	C40.189713,144.981369 38.748325,145.000015 37.276436,145.000015 
	C37.276436,157.255096 37.276436,168.988815 37.276436,181.000000 
	C54.355061,181.000000 71.158783,180.999023 87.962509,181.000214 
	C121.893196,181.002640 144.999390,204.111359 144.999588,238.048462 
	C145.000534,393.532318 145.000000,549.016174 145.000000,705.500000 
M361.000031,614.500000 
	C361.000031,590.835327 361.014099,567.170654 360.994537,543.505981 
	C360.983582,530.268738 353.836914,523.023743 340.747742,523.007690 
	C318.249725,522.980103 295.751617,522.980469 273.253601,523.007568 
	C260.338257,523.023132 253.015686,530.229370 253.010483,543.005737 
	C252.986572,601.667297 252.986618,660.328857 253.010422,718.990417 
	C253.015594,731.761353 260.343201,738.976624 273.246460,738.992493 
	C295.411163,739.019714 317.575958,739.004639 339.740692,738.998352 
	C354.193054,738.994263 360.997528,732.108215 360.998962,717.491150 
	C361.002350,683.494080 361.000031,649.497070 361.000031,614.500000 
M252.999573,434.500000 
	C252.999573,445.165314 252.983597,455.830627 253.003616,466.495911 
	C253.028473,479.735046 260.159546,486.976837 273.249695,486.992798 
	C295.746704,487.020264 318.243835,487.019897 340.740845,486.992889 
	C353.654327,486.977356 360.969788,479.764679 360.990234,466.992920 
	C361.026489,444.329285 361.026031,421.665558 360.990265,399.001923 
	C360.970428,386.415710 353.697968,379.038208 341.244659,379.012848 
	C318.414429,378.966339 295.583954,378.966278 272.753723,379.012878 
	C260.291870,379.038330 253.048721,386.407227 253.007568,399.004547 
	C252.970001,410.502930 252.999588,422.001495 252.999573,434.500000 
M37.000397,436.500000 
	C37.000397,453.254669 37.000397,470.009308 37.000397,486.700348 
	C61.317673,486.700348 85.042496,486.700348 108.704079,486.700348 
	C108.704079,450.680573 108.704079,414.960876 108.704079,379.299561 
	C84.682526,379.299561 60.957706,379.299561 37.000397,379.299561 
	C37.000397,398.231842 37.000397,416.865936 37.000397,436.500000 
M401.110291,475.696960 
	C399.739899,479.866089 397.209137,484.026855 397.178864,488.205719 
	C396.881195,529.338806 396.971893,570.474976 397.016907,611.610229 
	C397.029175,622.822937 404.592590,630.929260 414.844482,630.992676 
	C425.338715,631.057556 432.974915,622.912231 432.985840,611.409485 
	C433.024628,570.440735 432.989380,529.472046 433.010712,488.503296 
	C433.015015,480.234589 429.726898,473.943237 421.999207,470.589203 
	C414.213593,467.210083 407.409027,469.216125 401.110291,475.696960 
M73.007576,809.269775 
	C73.611290,809.844177 74.210602,810.914185 74.819366,810.919556 
	C86.090828,811.019775 97.363419,810.993042 108.769363,810.993042 
	C108.769363,786.814148 108.769363,763.093689 108.769363,739.238831 
	C96.810631,739.238831 85.083244,739.238831 73.001083,739.238831 
	C73.001083,762.418823 73.001083,785.362122 73.007576,809.269775 
M397.129913,722.920715 
	C399.436005,733.611328 406.984467,739.801636 416.609222,738.895020 
	C426.446136,737.968445 432.954163,730.183777 432.994171,719.187378 
	C433.034729,708.046570 433.088348,696.904541 432.978210,685.764648 
	C432.872131,675.033447 425.153046,667.049622 415.076202,667.005310 
	C404.995483,666.960999 397.129791,674.935791 397.029022,685.613342 
	C396.914429,697.750244 397.036316,709.889404 397.129913,722.920715 
M432.999634,845.501221 
	C432.999634,840.077026 432.999634,834.652893 432.999634,829.297302 
	C420.680237,829.297302 408.957275,829.297302 397.297241,829.297302 
	C397.297241,841.319580 397.297241,853.042480 397.297241,864.702881 
	C409.319397,864.702881 421.042358,864.702881 432.999634,864.702881 
	C432.999634,858.438782 432.999634,852.469666 432.999634,845.501221 
M504.999634,847.499268 
	C504.999634,841.408936 504.999634,835.318604 504.999634,829.296997 
	C492.680969,829.296997 480.958008,829.296997 469.296936,829.296997 
	C469.296936,841.318909 469.296936,853.041870 469.296936,864.703125 
	C481.318787,864.703125 493.041748,864.703125 504.999634,864.703125 
	C504.999634,859.105225 504.999634,853.801819 504.999634,847.499268 
M353.435364,864.999695 
	C355.868927,864.999695 358.302490,864.999695 360.718628,864.999695 
	C360.718628,852.714661 360.718628,840.991150 360.718628,829.282776 
	C348.711761,829.282776 336.988220,829.282776 325.284241,829.282776 
	C325.284241,841.291077 325.284241,853.014709 325.284241,864.999695 
	C334.528076,864.999695 343.490448,864.999695 353.435364,864.999695 
M560.498779,864.999695 
	C565.922974,864.999695 571.347107,864.999695 576.702698,864.999695 
	C576.702698,852.680237 576.702698,840.957275 576.702698,829.297241 
	C564.680420,829.297241 552.957520,829.297241 541.297119,829.297241 
	C541.297119,841.319397 541.297119,853.042358 541.297119,864.999695 
	C547.561218,864.999695 553.530334,864.999695 560.498779,864.999695 
M685.000305,855.464111 
	C685.000305,858.566956 685.000305,861.669739 685.000305,864.710144 
	C697.303406,864.710144 709.026733,864.710144 720.709229,864.710144 
	C720.709229,852.694824 720.709229,840.971436 720.709229,829.291626 
	C708.693115,829.291626 696.969727,829.291626 685.000305,829.291626 
	C685.000305,837.878967 685.000305,846.177124 685.000305,855.464111 
M757.000305,857.435425 
	C757.000305,859.868958 757.000305,862.302551 757.000305,864.718628 
	C769.285400,864.718628 781.008911,864.718628 792.717163,864.718628 
	C792.717163,852.711792 792.717163,840.988159 792.717163,829.284180 
	C780.708862,829.284180 768.985291,829.284180 757.000305,829.284180 
	C757.000305,838.528259 757.000305,847.490540 757.000305,857.435425 
M864.999695,850.495056 
	C864.999695,843.404968 864.999695,836.314819 864.999695,829.297241 
	C852.680603,829.297241 840.957520,829.297241 829.297485,829.297241 
	C829.297485,841.319763 829.297485,853.042847 829.297485,864.702393 
	C841.320068,864.702393 853.043213,864.702393 864.999695,864.702393 
	C864.999695,860.101929 864.999695,855.796814 864.999695,850.495056 
M509.628296,541.000305 
	C508.188751,541.000305 506.749207,541.000305 505.260681,541.000305 
	C505.260681,553.242859 505.260681,564.966125 505.260681,576.737549 
	C517.246277,576.737549 528.969666,576.737549 540.735779,576.737549 
	C540.735779,564.750122 540.735779,553.026672 540.735779,541.000305 
	C530.518677,541.000305 520.562805,541.000305 509.628296,541.000305 
M520.503296,397.000366 
	C515.411499,397.000366 510.319702,397.000366 505.297302,397.000366 
	C505.297302,409.319458 505.297302,421.042480 505.297302,432.702698 
	C517.319519,432.702698 529.042542,432.702698 540.702698,432.702698 
	C540.702698,420.680420 540.702698,408.957367 540.702698,397.000366 
	C534.105469,397.000366 527.803467,397.000366 520.503296,397.000366 
M423.200317,430.933624 
	C430.822876,426.144012 434.401794,418.699158 432.652588,411.271027 
	C430.832581,403.542206 424.250610,397.746826 416.552032,397.094666 
	C409.270844,396.477875 402.224152,400.440338 398.975739,406.978088 
	C395.625793,413.720215 396.632538,421.314117 401.619446,426.919739 
	C406.879730,432.832672 414.272430,434.351440 423.200317,430.933624 
z"/>
<path fill="#FFCFB0" opacity="1.000000" stroke="none" 
	d="
M1081.000000,296.531342 
	C1080.302734,293.833466 1079.589478,290.670349 1078.911011,287.499786 
	C1070.234619,246.958557 1033.138672,217.012772 991.452087,217.007156 
	C848.134277,216.987854 704.816406,216.999191 561.498596,217.000061 
	C517.208191,217.000336 482.902191,243.365036 471.545563,286.119934 
	C471.332092,286.923676 471.059540,287.711731 470.738770,288.753357 
	C386.400208,288.753357 301.985901,288.753357 217.000275,288.753357 
	C217.000275,286.978455 217.022415,285.210297 216.996902,283.442780 
	C216.694016,262.462341 217.603561,241.378784 215.838043,220.521790 
	C211.272522,166.586487 166.576508,119.485817 113.052887,111.069298 
	C104.378029,109.705177 95.502007,109.198921 86.709114,109.089783 
	C64.714890,108.816811 42.714951,108.974464 20.717392,109.011131 
	C10.730343,109.027779 4.979066,113.170563 1.289485,122.800079 
	C1.000000,82.345200 1.000000,41.690403 1.000000,1.035603 
	C1.154750,1.023735 1.309501,1.001464 1.464252,1.001464 
	C361.192566,0.999996 720.920837,1.000000 1081.000000,1.000000 
	C1081.000000,99.353951 1081.000000,197.708313 1081.000000,296.531342 
z"/>
<path fill="#FFCFB0" opacity="1.000000" stroke="none" 
	d="
M1.000000,509.468658 
	C5.143835,519.865784 13.223763,523.352417 24.510044,523.150574 
	C50.832745,522.679688 77.169601,523.000183 103.500725,523.000183 
	C105.144821,523.000183 106.788910,523.000244 108.712097,523.000244 
	C108.712097,534.988464 108.712097,546.722595 108.712097,558.999756 
	C105.788918,558.999756 102.844467,558.999756 99.900017,558.999817 
	C85.401237,558.999817 70.902229,558.950989 56.403740,559.015564 
	C45.176441,559.065552 37.093338,566.569275 37.008076,576.853271 
	C36.921158,587.336731 45.082199,594.951721 56.605827,594.986511 
	C73.903076,595.038757 91.200600,595.000183 108.747849,595.000183 
	C108.747849,607.062012 108.747849,618.795532 108.747849,631.008484 
	C96.694305,631.008484 84.742363,630.781799 72.802711,631.068054 
	C59.043911,631.397827 50.785534,645.599670 57.283199,657.534912 
	C60.769493,663.938721 66.458740,666.966492 73.708527,666.989563 
	C85.330185,667.026550 96.952042,666.999451 108.784668,666.999451 
	C108.784668,679.016724 108.784668,690.633179 108.784668,702.761780 
	C107.530128,702.834778 106.112312,702.987427 104.694328,702.988953 
	C88.862350,703.006104 73.030289,702.976196 57.198349,703.007263 
	C44.294628,703.032532 37.020500,710.233643 37.009708,723.058289 
	C36.980534,757.722046 36.979385,792.385803 37.010487,827.049561 
	C37.021744,839.597717 44.334080,846.955566 56.801777,846.988770 
	C73.961494,847.034485 91.121422,847.000244 108.640373,847.000244 
	C108.640373,858.840271 108.640373,870.576660 108.640373,882.999756 
	C105.446907,882.999756 102.024963,882.999817 98.603027,882.999817 
	C90.603699,882.999817 82.604118,882.959656 74.605103,883.009399 
	C63.082783,883.081116 54.924191,890.666199 55.008015,901.151855 
	C55.090202,911.433472 63.176422,918.923828 74.404488,918.986206 
	C85.721153,919.049011 97.038437,919.000122 108.741425,919.000122 
	C108.833763,920.592163 108.985703,922.022400 108.988678,923.452881 
	C109.010475,933.952026 108.863670,944.453491 109.043610,954.949585 
	C109.216881,965.056580 116.703514,972.846069 126.703583,972.924805 
	C150.866592,973.115051 175.033310,973.131653 199.196060,972.926270 
	C209.827438,972.835938 216.971573,964.803772 216.983688,953.538574 
	C217.026138,914.041870 217.000244,874.545166 217.000290,835.048462 
	C217.000290,833.235229 217.000290,831.421997 217.000290,829.305298 
	C240.954330,829.305298 264.687531,829.305298 288.767914,829.305298 
	C288.842560,830.671631 288.988037,832.109802 288.989502,833.548096 
	C289.005829,849.546753 288.952240,865.545593 289.015564,881.544006 
	C289.062592,893.430176 296.488770,900.976257 308.296356,900.980591 
	C403.455048,901.015320 498.613708,901.017029 593.772400,900.978271 
	C605.582153,900.973450 612.944824,893.418884 612.985168,881.462952 
	C613.043579,864.159180 613.000183,846.855103 613.000183,829.276428 
	C625.012024,829.276428 636.745850,829.276428 648.999756,829.276428 
	C648.999756,830.916199 648.999817,832.524475 648.999817,834.132751 
	C648.999939,850.131409 648.924194,866.130554 649.026062,882.128540 
	C649.097717,893.373779 656.632141,900.964050 667.881104,900.972595 
	C739.208435,901.026489 810.535828,901.023499 881.863159,900.976501 
	C893.419678,900.968872 900.923218,893.417603 900.978271,881.872070 
	C901.061462,864.410522 901.000000,846.948242 901.000000,829.000244 
	C902.950134,829.000244 904.562378,829.000183 906.174683,829.000183 
	C933.839050,829.000183 961.503357,829.000305 989.167725,829.000244 
	C1036.266235,829.000061 1073.510010,796.894897 1080.662109,750.210327 
	C1081.000000,860.309021 1081.000000,970.617981 1081.000000,1080.927002 
	C1080.857666,1080.951416 1080.715454,1080.996948 1080.573120,1080.996948 
	C720.819153,1081.000000 361.065155,1081.000000 1.000000,1081.000000 
	C1.000000,890.645874 1.000000,700.291626 1.000000,509.468658 
z"/>
<path fill="#FFCFB0" opacity="1.000000" stroke="none" 
	d="
M1.000000,203.468658 
	C5.144381,213.867706 13.231889,217.413864 24.514217,217.144928 
	C45.660496,216.640930 66.827339,216.992615 87.985634,217.002426 
	C102.106186,217.008987 109.000519,223.972229 108.995598,238.233978 
	C108.991913,248.895477 108.947639,259.556976 108.905922,270.218414 
	C108.905449,270.339600 108.696938,270.459991 108.198700,271.000122 
	C91.808662,271.000122 75.028229,270.977509 58.247990,271.024780 
	C55.769547,271.031769 53.206116,271.023834 50.829361,271.615112 
	C41.823807,273.855499 36.143082,282.052155 37.134293,290.995148 
	C38.117741,299.868134 45.486313,306.814667 54.759178,306.931854 
	C71.083420,307.138214 87.412071,306.996155 103.738876,306.999847 
	C105.359009,307.000214 106.979141,306.999878 108.796021,306.999878 
	C108.796021,319.035980 108.796021,330.649811 108.796021,343.000122 
	C107.167114,343.000122 105.422188,343.000092 103.677261,343.000092 
	C76.021538,343.000092 48.365795,342.978241 20.710114,343.011810 
	C10.729218,343.023926 4.978872,347.172729 1.289670,356.800293 
	C1.000000,305.979095 1.000000,254.958206 1.000000,203.468658 
z"/>
<path fill="#FECFB0" opacity="1.000000" stroke="none" 
	d="
M681.000000,721.000549 
	C640.837341,721.000549 601.174683,721.004822 561.512024,720.999207 
	C528.298096,720.994446 505.007538,697.675598 505.000122,664.428040 
	C504.996338,647.460876 504.999420,630.493652 504.999420,612.999451 
	C506.903046,612.999451 508.509766,612.999512 510.116486,612.999451 
	C526.114868,612.999268 542.113770,613.078430 558.111450,612.972046 
	C569.379272,612.897095 576.927429,605.374023 576.971252,594.122009 
	C577.062744,570.624756 577.075012,547.126465 576.964111,523.629395 
	C576.912537,512.703369 569.300537,505.119690 558.371521,505.034027 
	C542.374084,504.908661 526.375000,505.001038 510.376617,505.000580 
	C508.745819,505.000519 507.115051,505.000580 505.244019,505.000580 
	C505.244019,492.923706 505.244019,481.190308 505.244019,468.999420 
	C520.653503,468.999420 535.963684,468.402985 551.207397,469.154114 
	C569.260681,470.043701 577.979187,462.859100 577.182129,443.012848 
	C576.360168,422.547913 577.014404,402.024292 576.994141,381.526367 
	C576.980774,368.065491 569.853577,361.016724 556.268372,361.004303 
	C539.316223,360.988770 522.364075,361.000580 505.845215,361.000580 
	C505.845215,339.819092 504.350311,318.923004 506.229340,298.334869 
	C508.500732,273.447510 530.901245,254.440628 555.862549,253.132904 
	C557.857666,253.028381 559.858948,253.004669 561.857361,253.004593 
	C704.009705,252.998886 846.161987,252.998138 988.314331,253.000320 
	C1021.830139,253.000839 1044.999390,276.259857 1044.999878,309.899506 
	C1045.001343,428.220917 1045.001099,546.542297 1045.000000,664.863708 
	C1044.999634,697.360107 1021.407227,720.998962 988.968628,720.999695 
	C886.479065,721.001953 783.989563,721.000549 681.000000,721.000549 
M650.523376,371.028015 
	C622.457947,410.705841 609.830505,454.714325 613.853333,503.242645 
	C618.174133,555.366882 639.770020,599.380005 678.702026,634.048035 
	C726.645569,676.740601 783.100891,692.375610 846.337830,681.726196 
	C887.057373,674.868835 922.334229,656.238342 951.137390,626.767639 
	C993.442078,583.482178 1012.776855,531.222473 1008.117920,470.638855 
	C1004.394470,422.220123 985.047668,380.461914 950.497375,346.681274 
	C904.534180,301.741974 848.856567,282.760223 784.896729,290.989288 
	C729.079956,298.170715 684.660889,325.519043 650.523376,371.028015 
M989.736267,684.977234 
	C1001.410034,684.797607 1009.468750,676.896729 1008.987976,666.102661 
	C1008.539307,656.029236 999.585205,648.213928 989.440430,649.041199 
	C980.764587,649.748657 973.586182,657.044434 973.023071,665.727112 
	C972.404846,675.259521 978.346069,682.446289 989.736267,684.977234 
M576.923828,664.886230 
	C575.637146,652.516846 561.064087,644.001038 548.886475,652.129578 
	C541.827576,656.841309 539.128418,665.962952 542.284119,673.766541 
	C545.412476,681.502625 553.999390,686.283386 562.092834,684.795349 
	C571.116089,683.136353 576.823425,675.826538 576.923828,664.886230 
M1007.948242,300.900513 
	C1005.022461,293.790558 999.784729,289.647858 992.088501,289.054688 
	C984.422791,288.463867 977.121460,293.194702 974.276855,300.254456 
	C971.318115,307.597382 973.510803,315.949402 979.718994,320.984009 
	C985.789612,325.906921 994.135376,326.373657 1000.677307,322.156097 
	C1007.526367,317.740509 1010.280823,310.188110 1007.948242,300.900513 
M550.071716,322.662170 
	C558.639832,326.475067 565.951294,325.480316 571.715210,319.717438 
	C576.965576,314.468048 578.465637,306.671448 575.533203,299.874115 
	C572.562866,292.988922 565.508240,288.627167 557.971252,289.015869 
	C550.492188,289.401581 544.086792,294.476990 541.814575,301.817749 
	C539.413269,309.575928 542.026917,316.561066 550.071716,322.662170 
z"/>
<path fill="#FFCFB0" opacity="1.000000" stroke="none" 
	d="
M145.000000,705.000000 
	C145.000000,549.016174 145.000534,393.532318 144.999588,238.048462 
	C144.999390,204.111359 121.893196,181.002640 87.962509,181.000214 
	C71.158783,180.999023 54.355061,181.000000 37.276436,181.000000 
	C37.276436,168.988815 37.276436,157.255096 37.276436,145.000015 
	C38.748325,145.000015 40.189713,144.981369 41.630505,145.002808 
	C62.275074,145.309830 83.031868,144.367783 103.539864,146.203735 
	C142.046860,149.651031 175.726639,184.072144 180.037155,222.564972 
	C180.628571,227.846115 180.960388,233.186325 180.961426,238.499268 
	C181.006180,469.141968 181.000000,699.784668 181.000000,930.427368 
	C181.000000,932.409546 181.000000,934.391724 181.000000,936.686279 
	C169.065704,936.686279 157.331024,936.686279 145.000000,936.686279 
	C145.000000,859.674255 145.000000,782.587158 145.000000,705.000000 
z"/>
<path fill="#FFCFB0" opacity="1.000000" stroke="none" 
	d="
M361.000031,615.000000 
	C361.000031,649.497070 361.002350,683.494080 360.998962,717.491150 
	C360.997528,732.108215 354.193054,738.994263 339.740692,738.998352 
	C317.575958,739.004639 295.411163,739.019714 273.246460,738.992493 
	C260.343201,738.976624 253.015594,731.761353 253.010422,718.990417 
	C252.986618,660.328857 252.986572,601.667297 253.010483,543.005737 
	C253.015686,530.229370 260.338257,523.023132 273.253601,523.007568 
	C295.751617,522.980469 318.249725,522.980103 340.747742,523.007690 
	C353.836914,523.023743 360.983582,530.268738 360.994537,543.505981 
	C361.014099,567.170654 361.000031,590.835327 361.000031,615.000000 
M302.508362,559.000366 
	C298.077332,559.000366 293.646271,559.000366 289.290100,559.000366 
	C289.290100,607.316650 289.290100,655.031494 289.290100,702.698730 
	C301.312653,702.698730 313.042999,702.698730 324.709381,702.698730 
	C324.709381,654.682373 324.709381,606.967468 324.709381,559.000366 
	C317.449554,559.000366 310.477234,559.000366 302.508362,559.000366 
z"/>
<path fill="#FFCFB0" opacity="1.000000" stroke="none" 
	d="
M252.999573,434.000000 
	C252.999588,422.001495 252.970001,410.502930 253.007568,399.004547 
	C253.048721,386.407227 260.291870,379.038330 272.753723,379.012878 
	C295.583954,378.966278 318.414429,378.966339 341.244659,379.012848 
	C353.697968,379.038208 360.970428,386.415710 360.990265,399.001923 
	C361.026031,421.665558 361.026489,444.329285 360.990234,466.992920 
	C360.969788,479.764679 353.654327,486.977356 340.740845,486.992889 
	C318.243835,487.019897 295.746704,487.020264 273.249695,486.992798 
	C260.159546,486.976837 253.028473,479.735046 253.003616,466.495911 
	C252.983597,455.830627 252.999573,445.165314 252.999573,434.000000 
M289.000824,438.489136 
	C289.000824,442.585968 289.000824,446.682800 289.000824,450.703247 
	C301.317505,450.703247 313.040222,450.703247 324.703156,450.703247 
	C324.703156,438.682220 324.703156,426.959534 324.703156,415.296936 
	C312.682037,415.296936 300.959381,415.296936 289.000824,415.296936 
	C289.000824,422.891022 289.000824,430.191315 289.000824,438.489136 
z"/>
<path fill="#FFCFB0" opacity="1.000000" stroke="none" 
	d="
M37.000397,436.000000 
	C37.000397,416.865936 37.000397,398.231842 37.000397,379.299561 
	C60.957706,379.299561 84.682526,379.299561 108.704079,379.299561 
	C108.704079,414.960876 108.704079,450.680573 108.704079,486.700348 
	C85.042496,486.700348 61.317673,486.700348 37.000397,486.700348 
	C37.000397,470.009308 37.000397,453.254669 37.000397,436.000000 
z"/>
<path fill="#FECEAF" opacity="1.000000" stroke="none" 
	d="
M401.347473,475.417358 
	C407.409027,469.216125 414.213593,467.210083 421.999207,470.589203 
	C429.726898,473.943237 433.015015,480.234589 433.010712,488.503296 
	C432.989380,529.472046 433.024628,570.440735 432.985840,611.409485 
	C432.974915,622.912231 425.338715,631.057556 414.844482,630.992676 
	C404.592590,630.929260 397.029175,622.822937 397.016907,611.610229 
	C396.971893,570.474976 396.881195,529.338806 397.178864,488.205719 
	C397.209137,484.026855 399.739899,479.866089 401.347473,475.417358 
z"/>
<path fill="#FFCFB0" opacity="1.000000" stroke="none" 
	d="
M73.004333,808.787598 
	C73.001083,785.362122 73.001083,762.418823 73.001083,739.238831 
	C85.083244,739.238831 96.810631,739.238831 108.769363,739.238831 
	C108.769363,763.093689 108.769363,786.814148 108.769363,810.993042 
	C97.363419,810.993042 86.090828,811.019775 74.819366,810.919556 
	C74.210602,810.914185 73.611290,809.844177 73.004333,808.787598 
z"/>
<path fill="#FDCEAF" opacity="1.000000" stroke="none" 
	d="
M397.092651,722.474121 
	C397.036316,709.889404 396.914429,697.750244 397.029022,685.613342 
	C397.129791,674.935791 404.995483,666.960999 415.076202,667.005310 
	C425.153046,667.049622 432.872131,675.033447 432.978210,685.764648 
	C433.088348,696.904541 433.034729,708.046570 432.994171,719.187378 
	C432.954163,730.183777 426.446136,737.968445 416.609222,738.895020 
	C406.984467,739.801636 399.436005,733.611328 397.092651,722.474121 
z"/>
<path fill="#FFCFB0" opacity="1.000000" stroke="none" 
	d="
M432.999634,846.000916 
	C432.999634,852.469666 432.999634,858.438782 432.999634,864.702881 
	C421.042358,864.702881 409.319397,864.702881 397.297241,864.702881 
	C397.297241,853.042480 397.297241,841.319580 397.297241,829.297302 
	C408.957275,829.297302 420.680237,829.297302 432.999634,829.297302 
	C432.999634,834.652893 432.999634,840.077026 432.999634,846.000916 
z"/>
<path fill="#FFCFB0" opacity="1.000000" stroke="none" 
	d="
M504.999634,847.998901 
	C504.999634,853.801819 504.999634,859.105225 504.999634,864.703125 
	C493.041748,864.703125 481.318787,864.703125 469.296936,864.703125 
	C469.296936,853.041870 469.296936,841.318909 469.296936,829.296997 
	C480.958008,829.296997 492.680969,829.296997 504.999634,829.296997 
	C504.999634,835.318604 504.999634,841.408936 504.999634,847.998901 
z"/>
<path fill="#FFCFB0" opacity="1.000000" stroke="none" 
	d="
M352.944092,864.999695 
	C343.490448,864.999695 334.528076,864.999695 325.284241,864.999695 
	C325.284241,853.014709 325.284241,841.291077 325.284241,829.282776 
	C336.988220,829.282776 348.711761,829.282776 360.718628,829.282776 
	C360.718628,840.991150 360.718628,852.714661 360.718628,864.999695 
	C358.302490,864.999695 355.868927,864.999695 352.944092,864.999695 
z"/>
<path fill="#FFCFB0" opacity="1.000000" stroke="none" 
	d="
M559.999084,864.999695 
	C553.530334,864.999695 547.561218,864.999695 541.297119,864.999695 
	C541.297119,853.042358 541.297119,841.319397 541.297119,829.297241 
	C552.957520,829.297241 564.680420,829.297241 576.702698,829.297241 
	C576.702698,840.957275 576.702698,852.680237 576.702698,864.999695 
	C571.347107,864.999695 565.922974,864.999695 559.999084,864.999695 
z"/>
<path fill="#FFCFB0" opacity="1.000000" stroke="none" 
	d="
M685.000305,854.969727 
	C685.000305,846.177124 685.000305,837.878967 685.000305,829.291626 
	C696.969727,829.291626 708.693115,829.291626 720.709229,829.291626 
	C720.709229,840.971436 720.709229,852.694824 720.709229,864.710144 
	C709.026733,864.710144 697.303406,864.710144 685.000305,864.710144 
	C685.000305,861.669739 685.000305,858.566956 685.000305,854.969727 
z"/>
<path fill="#FFCFB0" opacity="1.000000" stroke="none" 
	d="
M757.000305,856.944153 
	C757.000305,847.490540 757.000305,838.528259 757.000305,829.284180 
	C768.985291,829.284180 780.708862,829.284180 792.717163,829.284180 
	C792.717163,840.988159 792.717163,852.711792 792.717163,864.718628 
	C781.008911,864.718628 769.285400,864.718628 757.000305,864.718628 
	C757.000305,862.302551 757.000305,859.868958 757.000305,856.944153 
z"/>
<path fill="#FFCFB0" opacity="1.000000" stroke="none" 
	d="
M864.999695,850.993347 
	C864.999695,855.796814 864.999695,860.101929 864.999695,864.702393 
	C853.043213,864.702393 841.320068,864.702393 829.297485,864.702393 
	C829.297485,853.042847 829.297485,841.319763 829.297485,829.297241 
	C840.957520,829.297241 852.680603,829.297241 864.999695,829.297241 
	C864.999695,836.314819 864.999695,843.404968 864.999695,850.993347 
z"/>
<path fill="#FFCFB0" opacity="1.000000" stroke="none" 
	d="
M510.117615,541.000305 
	C520.562805,541.000305 530.518677,541.000305 540.735779,541.000305 
	C540.735779,553.026672 540.735779,564.750122 540.735779,576.737549 
	C528.969666,576.737549 517.246277,576.737549 505.260681,576.737549 
	C505.260681,564.966125 505.260681,553.242859 505.260681,541.000305 
	C506.749207,541.000305 508.188751,541.000305 510.117615,541.000305 
z"/>
<path fill="#FFCFB0" opacity="1.000000" stroke="none" 
	d="
M521.002380,397.000366 
	C527.803467,397.000366 534.105469,397.000366 540.702698,397.000366 
	C540.702698,408.957367 540.702698,420.680420 540.702698,432.702698 
	C529.042542,432.702698 517.319519,432.702698 505.297302,432.702698 
	C505.297302,421.042480 505.297302,409.319458 505.297302,397.000366 
	C510.319702,397.000366 515.411499,397.000366 521.002380,397.000366 
z"/>
<path fill="#FBCBAD" opacity="1.000000" stroke="none" 
	d="
M422.841431,431.069702 
	C414.272430,434.351440 406.879730,432.832672 401.619446,426.919739 
	C396.632538,421.314117 395.625793,413.720215 398.975739,406.978088 
	C402.224152,400.440338 409.270844,396.477875 416.552032,397.094666 
	C424.250610,397.746826 430.832581,403.542206 432.652588,411.271027 
	C434.401794,418.699158 430.822876,426.144012 422.841431,431.069702 
z"/>
<path fill="#020101" opacity="1.000000" stroke="none" 
	d="
M650.744446,370.745239 
	C684.660889,325.519043 729.079956,298.170715 784.896729,290.989288 
	C848.856567,282.760223 904.534180,301.741974 950.497375,346.681274 
	C985.047668,380.461914 1004.394470,422.220123 1008.117920,470.638855 
	C1012.776855,531.222473 993.442078,583.482178 951.137390,626.767639 
	C922.334229,656.238342 887.057373,674.868835 846.337830,681.726196 
	C783.100891,692.375610 726.645569,676.740601 678.702026,634.048035 
	C639.770020,599.380005 618.174133,555.366882 613.853333,503.242645 
	C609.830505,454.714325 622.457947,410.705841 650.744446,370.745239 
M653.654907,449.092834 
	C652.135986,457.876587 650.617065,466.660309 649.145691,475.169220 
	C682.366394,489.162781 723.720154,489.338348 755.289368,475.886047 
	C757.154297,475.091400 758.472778,473.014496 760.628967,470.985199 
	C724.583923,453.212433 697.767883,427.698517 678.680664,393.692047 
	C666.870911,410.706116 658.451599,428.627045 653.654907,449.092834 
M806.912354,565.693054 
	C804.615662,558.070740 802.514771,550.379944 799.887207,542.873413 
	C799.215881,540.955383 796.877686,539.620850 794.878845,537.583496 
	C785.831055,555.802307 775.362244,571.115417 762.438477,584.740234 
	C749.409912,598.475281 734.523499,609.808777 717.654907,619.298218 
	C741.656311,635.918518 767.569702,645.630005 796.183594,648.161865 
	C799.335876,648.440796 800.114319,646.957825 800.974670,644.605713 
	C810.290039,619.139587 812.363647,593.125793 806.912354,565.693054 
M958.104431,456.304779 
	C962.035278,457.276031 965.966064,458.247314 970.556458,459.381561 
	C965.071655,429.302063 952.611755,403.586487 933.059265,380.916718 
	C898.340271,396.626038 872.994690,421.248108 857.909302,456.086365 
	C857.204773,457.713379 858.111511,460.038025 858.310486,462.583923 
	C891.538879,451.144531 924.136475,449.064880 958.104431,456.304779 
M965.287903,535.796997 
	C967.524353,524.910461 969.720947,514.015503 972.019897,503.142151 
	C972.774170,499.574524 971.414246,497.977631 967.988342,496.762573 
	C934.151062,484.761322 900.497192,485.102295 867.027466,498.025269 
	C865.060486,498.784760 863.655090,500.998901 861.406250,503.072998 
	C897.532837,520.796936 924.188171,546.408875 943.333313,580.294250 
	C952.910461,566.351807 960.325867,552.125183 965.287903,535.796997 
M839.280029,414.795685 
	C855.946472,389.545685 877.616272,369.622681 904.315674,354.682861 
	C880.528931,338.227753 855.014526,328.649689 826.918152,325.925476 
	C823.526306,325.596649 822.016174,326.433075 820.834167,329.750153 
	C808.715942,363.758301 809.081604,397.579987 822.110107,431.212860 
	C822.846069,433.112732 825.173767,434.395996 826.844360,436.048981 
	C831.375549,428.327972 835.158691,421.881653 839.280029,414.795685 
M728.353210,567.863647 
	C743.504883,554.186218 755.338501,538.069092 763.547485,519.383667 
	C764.459167,517.308411 763.928406,514.599487 764.119446,511.260529 
	C726.023560,524.350098 689.114746,525.128479 651.437256,514.515198 
	C656.898376,544.675293 669.367126,570.300293 688.774353,592.918457 
	C703.245728,586.913269 716.140503,578.599060 728.353210,567.863647 
M740.679626,341.124542 
	C727.918274,347.628296 715.862183,355.176575 705.246338,364.749268 
	C716.794678,395.886444 749.376526,428.752411 780.044861,440.090210 
	C781.761230,440.724731 784.022278,439.886230 786.601501,439.689850 
	C773.551453,402.002441 772.771118,365.100433 783.474548,327.487488 
	C768.126648,330.097046 754.485474,334.626343 740.679626,341.124542 
M841.721863,533.709045 
	C839.738831,533.989685 837.755798,534.270325 835.438599,534.598267 
	C842.115173,553.435547 845.383057,571.703491 845.949646,590.428528 
	C846.519470,609.260010 843.733887,627.725159 838.672180,646.017273 
	C860.744446,644.791809 900.191467,625.921692 916.666138,608.985046 
	C904.523499,577.430481 876.426636,549.037720 841.721863,533.709045 
M827.924927,480.939484 
	C825.752625,478.066132 824.076233,474.536560 821.311401,472.447174 
	C814.098633,466.996216 804.292419,468.109894 798.114380,474.407867 
	C791.969116,480.672394 791.320801,490.436554 796.565247,497.737061 
	C801.392151,504.456329 810.789856,506.864685 818.444153,503.344055 
	C826.767578,499.515656 830.527344,491.090271 827.924927,480.939484 
z"/>
<path fill="#030302" opacity="1.000000" stroke="none" 
	d="
M989.314697,684.950806 
	C978.346069,682.446289 972.404846,675.259521 973.023071,665.727112 
	C973.586182,657.044434 980.764587,649.748657 989.440430,649.041199 
	C999.585205,648.213928 1008.539307,656.029236 1008.987976,666.102661 
	C1009.468750,676.896729 1001.410034,684.797607 989.314697,684.950806 
z"/>
<path fill="#030302" opacity="1.000000" stroke="none" 
	d="
M576.950439,665.309082 
	C576.823425,675.826538 571.116089,683.136353 562.092834,684.795349 
	C553.999390,686.283386 545.412476,681.502625 542.284119,673.766541 
	C539.128418,665.962952 541.827576,656.841309 548.886475,652.129578 
	C561.064087,644.001038 575.637146,652.516846 576.950439,665.309082 
z"/>
<path fill="#030302" opacity="1.000000" stroke="none" 
	d="
M1008.046265,301.291504 
	C1010.280823,310.188110 1007.526367,317.740509 1000.677307,322.156097 
	C994.135376,326.373657 985.789612,325.906921 979.718994,320.984009 
	C973.510803,315.949402 971.318115,307.597382 974.276855,300.254456 
	C977.121460,293.194702 984.422791,288.463867 992.088501,289.054688 
	C999.784729,289.647858 1005.022461,293.790558 1008.046265,301.291504 
z"/>
<path fill="#030302" opacity="1.000000" stroke="none" 
	d="
M549.762878,322.448181 
	C542.026917,316.561066 539.413269,309.575928 541.814575,301.817749 
	C544.086792,294.476990 550.492188,289.401581 557.971252,289.015869 
	C565.508240,288.627167 572.562866,292.988922 575.533203,299.874115 
	C578.465637,306.671448 576.965576,314.468048 571.715210,319.717438 
	C565.951294,325.480316 558.639832,326.475067 549.762878,322.448181 
z"/>
<path fill="#000000" opacity="1.000000" stroke="none" 
	d="
M303.006653,559.000366 
	C310.477234,559.000366 317.449554,559.000366 324.709381,559.000366 
	C324.709381,606.967468 324.709381,654.682373 324.709381,702.698730 
	C313.042999,702.698730 301.312653,702.698730 289.290100,702.698730 
	C289.290100,655.031494 289.290100,607.316650 289.290100,559.000366 
	C293.646271,559.000366 298.077332,559.000366 303.006653,559.000366 
z"/>
<path fill="#000000" opacity="1.000000" stroke="none" 
	d="
M289.000824,437.990387 
	C289.000824,430.191315 289.000824,422.891022 289.000824,415.296936 
	C300.959381,415.296936 312.682037,415.296936 324.703156,415.296936 
	C324.703156,426.959534 324.703156,438.682220 324.703156,450.703247 
	C313.040222,450.703247 301.317505,450.703247 289.000824,450.703247 
	C289.000824,446.682800 289.000824,442.585968 289.000824,437.990387 
z"/>
<path fill="#FDCEAF" opacity="1.000000" stroke="none" 
	d="
M653.760681,448.693115 
	C658.451599,428.627045 666.870911,410.706116 678.680664,393.692047 
	C697.767883,427.698517 724.583923,453.212433 760.628967,470.985199 
	C758.472778,473.014496 757.154297,475.091400 755.289368,475.886047 
	C723.720154,489.338348 682.366394,489.162781 649.145691,475.169220 
	C650.617065,466.660309 652.135986,457.876587 653.760681,448.693115 
z"/>
<path fill="#FDCEAF" opacity="1.000000" stroke="none" 
	d="
M806.973145,566.111633 
	C812.363647,593.125793 810.290039,619.139587 800.974670,644.605713 
	C800.114319,646.957825 799.335876,648.440796 796.183594,648.161865 
	C767.569702,645.630005 741.656311,635.918518 717.654907,619.298218 
	C734.523499,609.808777 749.409912,598.475281 762.438477,584.740234 
	C775.362244,571.115417 785.831055,555.802307 794.878845,537.583496 
	C796.877686,539.620850 799.215881,540.955383 799.887207,542.873413 
	C802.514771,550.379944 804.615662,558.070740 806.973145,566.111633 
z"/>
<path fill="#FDCEAF" opacity="1.000000" stroke="none" 
	d="
M957.689880,456.216492 
	C924.136475,449.064880 891.538879,451.144531 858.310486,462.583923 
	C858.111511,460.038025 857.204773,457.713379 857.909302,456.086365 
	C872.994690,421.248108 898.340271,396.626038 933.059265,380.916718 
	C952.611755,403.586487 965.071655,429.302063 970.556458,459.381561 
	C965.966064,458.247314 962.035278,457.276031 957.689880,456.216492 
z"/>
<path fill="#FDCEAF" opacity="1.000000" stroke="none" 
	d="
M965.178101,536.183228 
	C960.325867,552.125183 952.910461,566.351807 943.333313,580.294250 
	C924.188171,546.408875 897.532837,520.796936 861.406250,503.072998 
	C863.655090,500.998901 865.060486,498.784760 867.027466,498.025269 
	C900.497192,485.102295 934.151062,484.761322 967.988342,496.762573 
	C971.414246,497.977631 972.774170,499.574524 972.019897,503.142151 
	C969.720947,514.015503 967.524353,524.910461 965.178101,536.183228 
z"/>
<path fill="#FDCEAF" opacity="1.000000" stroke="none" 
	d="
M839.110962,415.115509 
	C835.158691,421.881653 831.375549,428.327972 826.844360,436.048981 
	C825.173767,434.395996 822.846069,433.112732 822.110107,431.212860 
	C809.081604,397.579987 808.715942,363.758301 820.834167,329.750153 
	C822.016174,326.433075 823.526306,325.596649 826.918152,325.925476 
	C855.014526,328.649689 880.528931,338.227753 904.315674,354.682861 
	C877.616272,369.622681 855.946472,389.545685 839.110962,415.115509 
z"/>
<path fill="#FDCEAF" opacity="1.000000" stroke="none" 
	d="
M728.088745,568.100098 
	C716.140503,578.599060 703.245728,586.913269 688.774353,592.918457 
	C669.367126,570.300293 656.898376,544.675293 651.437256,514.515198 
	C689.114746,525.128479 726.023560,524.350098 764.119446,511.260529 
	C763.928406,514.599487 764.459167,517.308411 763.547485,519.383667 
	C755.338501,538.069092 743.504883,554.186218 728.088745,568.100098 
z"/>
<path fill="#FDCEAF" opacity="1.000000" stroke="none" 
	d="
M741.031372,340.992920 
	C754.485474,334.626343 768.126648,330.097046 783.474548,327.487488 
	C772.771118,365.100433 773.551453,402.002441 786.601501,439.689850 
	C784.022278,439.886230 781.761230,440.724731 780.044861,440.090210 
	C749.376526,428.752411 716.794678,395.886444 705.246338,364.749268 
	C715.862183,355.176575 727.918274,347.628296 741.031372,340.992920 
z"/>
<path fill="#FDCEAF" opacity="1.000000" stroke="none" 
	d="
M842.083130,533.845337 
	C876.426636,549.037720 904.523499,577.430481 916.666138,608.985046 
	C900.191467,625.921692 860.744446,644.791809 838.672180,646.017273 
	C843.733887,627.725159 846.519470,609.260010 845.949646,590.428528 
	C845.383057,571.703491 842.115173,553.435547 835.438599,534.598267 
	C837.755798,534.270325 839.738831,533.989685 842.083130,533.845337 
z"/>
<path fill="#FBCCAD" opacity="1.000000" stroke="none" 
	d="
M828.007446,481.334167 
	C830.527344,491.090271 826.767578,499.515656 818.444153,503.344055 
	C810.789856,506.864685 801.392151,504.456329 796.565247,497.737061 
	C791.320801,490.436554 791.969116,480.672394 798.114380,474.407867 
	C804.292419,468.109894 814.098633,466.996216 821.311401,472.447174 
	C824.076233,474.536560 825.752625,478.066132 828.007446,481.334167 
z"/>
</svg>