<svg version="1.1" id="Layer_1" xmlns="http://www.w3.org/2000/svg" xmlns:xlink="http://www.w3.org/1999/xlink" x="0px" y="0px"
	 width="100%" viewBox="0 0 1024 1024" enable-background="new 0 0 1024 1024" xml:space="preserve">
<path fill="#000000" opacity="1.000000" stroke="none" 
	d="
M1.000000,466.449982 
	C5.126461,459.849426 11.075738,458.022491 18.219820,458.047943 
	C61.706570,458.202942 105.194038,458.153473 148.680847,458.299194 
	C151.924774,458.310059 152.797928,457.452271 152.272324,454.282440 
	C149.159912,435.511078 147.992294,416.518768 148.265610,397.574829 
	C148.979156,348.120392 157.541016,300.176941 179.001495,255.172882 
	C204.091034,202.558472 241.505859,161.878922 295.125336,137.411179 
	C331.864960,120.646088 370.551147,115.096581 410.667206,118.474304 
	C463.700562,122.939651 511.310394,142.663376 556.239685,169.995193 
	C565.069458,175.366592 573.820374,180.878204 582.019409,187.168167 
	C585.527100,189.859116 588.168213,189.697174 591.750244,187.198761 
	C619.469177,167.865067 648.987183,151.789139 680.586548,139.758759 
	C718.984985,125.139839 758.630859,117.016106 799.883667,120.022469 
	C848.817688,123.588623 892.553284,140.751648 930.168701,172.550720 
	C970.490356,206.637589 995.753357,250.382690 1011.314026,300.263000 
	C1019.038452,325.023956 1022.744629,350.477875 1024.854980,376.623108 
	C1025.000000,386.020905 1025.000000,395.041779 1025.000000,404.531342 
	C1022.798157,407.922241 1020.718201,410.909485 1017.037598,412.293030 
	C1009.623596,415.079987 1001.154419,410.549164 999.850342,402.665833 
	C999.147156,398.414856 998.994873,394.042694 998.932556,389.720337 
	C998.319092,347.149750 989.706421,306.346954 970.975159,268.029785 
	C945.092346,215.083145 906.105774,176.030472 849.468140,156.570679 
	C814.179504,144.446091 778.039490,142.977066 741.518311,149.725357 
	C689.896729,159.263885 644.186829,182.203278 601.562561,212.018555 
	C599.514587,213.451096 597.480408,214.906677 595.386292,216.269287 
	C588.747925,220.588760 584.288330,220.699402 577.902832,216.036087 
	C556.197266,200.184692 533.628418,185.782532 509.480713,173.880981 
	C478.426147,158.575241 445.912750,147.841187 411.405304,144.650711 
	C353.512634,139.298111 301.446777,153.859085 257.119141,192.602234 
	C225.416748,220.310669 204.757736,255.174728 191.220871,294.668060 
	C181.204117,323.891632 176.281784,353.962067 174.839142,384.761078 
	C174.222015,397.936218 174.466629,411.021973 175.406647,424.701141 
	C177.632660,423.246429 178.404953,421.212738 179.430679,419.456329 
	C198.755508,386.365479 218.077744,353.273041 237.326950,320.138184 
	C240.768723,314.213623 244.232346,308.366608 252.248260,308.772003 
	C260.562866,309.192535 263.291565,315.609192 265.985229,322.101227 
	C293.752808,389.023956 321.562805,455.929077 349.386353,522.828552 
	C357.701599,542.822021 366.093628,562.783569 374.462128,582.754883 
	C374.903351,583.807739 375.453583,584.815002 375.936737,585.809814 
	C378.152832,585.785522 378.311188,583.961548 379.001862,582.802002 
	C416.515839,519.819946 454.017334,456.830353 491.449585,393.799713 
	C494.303711,388.993774 497.556335,384.942566 503.530090,384.464783 
	C509.979553,383.948944 514.144897,387.311218 517.080139,392.780884 
	C528.740051,414.508514 540.460449,436.203705 552.176514,457.901184 
	C565.792053,483.116364 579.464478,508.300964 593.003113,533.557373 
	C594.621094,536.575806 596.596619,537.832886 600.070374,537.812561 
	C623.069519,537.678040 646.070007,537.678589 669.069519,537.766724 
	C672.405579,537.779480 673.946472,536.736084 675.066162,533.378357 
	C682.936401,509.776886 702.785767,496.646484 728.489990,497.686798 
	C749.762695,498.547760 768.853455,514.893738 774.642212,537.203308 
	C782.611206,567.915833 758.099487,600.050964 726.444580,600.390747 
	C702.555969,600.647217 685.345642,589.478333 676.104736,567.387878 
	C674.733765,564.110474 672.816528,563.341614 669.624207,563.429321 
	C642.802979,564.166016 615.981323,564.042786 589.155029,563.516296 
	C582.334961,563.382385 578.111572,560.463989 574.929932,554.552063 
	C552.269470,512.445618 529.431091,470.434937 506.637909,428.399994 
	C506.010315,427.242554 505.254181,426.154785 504.574280,425.060822 
	C502.520264,425.243683 502.206940,426.964722 501.508575,428.135864 
	C477.105896,469.061005 452.734558,510.004883 428.383392,550.960693 
	C414.847198,573.727051 401.335327,596.507751 387.856232,619.307861 
	C384.498291,624.987854 380.738861,629.941101 373.142944,629.291321 
	C365.762878,628.659912 362.996002,623.195251 360.562561,617.320435 
	C345.390594,580.692688 330.243927,544.054443 314.993073,507.459564 
	C294.039459,457.180817 273.003235,406.936523 251.985962,356.684326 
	C251.359070,355.185455 251.042740,353.482727 249.149506,352.017731 
	C244.560135,359.821289 240.017105,367.502808 235.515305,375.208435 
	C218.203415,404.840881 200.934967,434.498840 183.557465,464.092743 
	C181.679291,467.291290 181.040543,470.261230 181.823959,474.005066 
	C193.609634,530.327942 216.243347,582.017639 248.000458,629.848999 
	C279.216217,676.864990 317.254272,717.654846 360.630280,753.616333 
	C423.144775,805.444824 493.068054,844.678711 567.813293,875.734009 
	C588.824890,884.463867 584.373657,884.513794 606.268433,875.240356 
	C664.308533,850.657898 719.498108,820.889648 770.877380,784.279846 
	C825.544250,745.327576 873.976685,699.890991 913.541138,645.430420 
	C949.278198,596.238403 975.394165,542.476746 989.546631,483.148895 
	C990.332825,479.852844 991.336426,476.714478 993.835083,474.303558 
	C997.893005,470.388184 1003.712036,469.608032 1008.622437,472.249756 
	C1013.980957,475.132507 1016.699219,480.825470 1015.324158,487.040070 
	C1011.830627,502.829285 1006.979980,518.234741 1001.726929,533.510193 
	C980.801453,594.359680 947.765930,648.130493 906.100708,696.842773 
	C857.093384,754.139160 798.926147,800.404480 734.683533,839.398376 
	C692.710938,864.874878 648.737671,886.303894 603.382202,904.990662 
	C592.344299,909.538330 581.342773,909.488403 570.300293,905.053528 
	C499.157318,876.480286 431.849365,840.908997 370.482239,794.694397 
	C314.137573,752.262268 265.067627,702.770752 226.041687,643.724915 
	C195.270706,597.168640 172.660400,547.001709 159.359009,492.727997 
	C159.002731,491.274231 158.688492,489.808167 158.412903,488.336945 
	C157.870285,485.440125 156.296066,483.965363 153.213989,484.246429 
	C151.726562,484.382111 150.216202,484.264557 148.716217,484.264404 
	C104.549683,484.259430 60.383018,484.199615 16.216759,484.307556 
	C9.321355,484.324402 4.263288,481.966156 1.180567,475.282593 
	C1.000000,472.299988 1.000000,469.599976 1.000000,466.449982 
M742.448120,531.053345 
	C732.636230,522.142395 720.601196,520.922363 709.893372,527.753113 
	C700.657959,533.644531 696.474915,546.281677 700.119202,557.281006 
	C703.349548,567.030884 712.064270,574.086792 721.866272,574.665405 
	C733.118958,575.329529 741.640991,570.685120 746.971741,560.774902 
	C752.135193,551.175842 750.489441,540.410645 742.448120,531.053345 
z"/>
<path fill="#000000" opacity="1.000000" stroke="none" 
	d="
M951.094971,410.389069 
	C952.527344,398.767334 951.322693,387.614166 950.476562,376.536316 
	C948.824585,354.907776 944.748474,333.625702 937.556458,313.135864 
	C924.699951,276.508118 904.714722,244.752335 872.533752,221.857361 
	C847.849976,204.296265 820.294312,195.028580 789.971130,194.117767 
	C787.310547,194.037842 784.617432,194.104309 781.999939,193.705429 
	C774.560303,192.571732 770.051208,186.991623 770.537170,179.815887 
	C771.008362,172.858231 775.983765,167.919174 783.467590,167.890289 
	C799.165466,167.829651 814.737732,169.452499 829.926331,173.505646 
	C883.368042,187.766724 921.329834,221.123444 946.896179,269.353119 
	C964.368774,302.314453 973.446960,337.693542 976.403015,374.804657 
	C980.493042,426.151855 971.891235,475.588867 954.593201,523.768433 
	C952.173218,530.508606 947.042236,534.301147 941.331909,534.060120 
	C935.833679,533.827942 931.063110,529.909119 929.254150,524.348267 
	C928.139709,520.922424 928.985168,517.742432 930.183960,514.615479 
	C938.200012,493.705994 943.416443,472.062347 947.091736,450.024933 
	C949.254089,437.059265 950.794861,424.017792 951.094971,410.389069 
z"/>
<path fill="#000000" opacity="1.000000" stroke="none" 
	d="
M927.450012,583.270386 
	C922.099731,593.289062 916.241089,602.560486 910.340576,611.804504 
	C907.252441,616.642456 902.651611,618.727478 897.107422,617.826233 
	C891.287903,616.880249 887.803955,613.074097 886.370117,607.357300 
	C885.338135,603.242859 887.117310,599.857422 889.146973,596.587952 
	C894.668518,587.693420 900.269348,578.853271 905.193604,569.598694 
	C909.383850,561.723511 916.590759,559.069885 923.397583,562.654663 
	C930.052124,566.159241 932.030029,573.756226 928.328369,581.612488 
	C928.116089,582.062927 927.861206,582.493286 927.450012,583.270386 
z"/>
</svg>