<svg version="1.1" id="Layer_1" xmlns="http://www.w3.org/2000/svg" xmlns:xlink="http://www.w3.org/1999/xlink" x="0px" y="0px"
	 width="100%" viewBox="0 0 1080 1080" enable-background="new 0 0 1080 1080" xml:space="preserve">
<path fill="#FECFB0" opacity="1.000000" stroke="none" 
	d="
M1.000000,1058.000000 
	C1.000000,789.641724 1.000000,521.283508 1.387219,252.619720 
	C2.268766,256.610138 2.626813,260.926880 3.278154,265.198883 
	C11.239079,317.413208 33.461987,362.616882 71.941345,398.851807 
	C130.060028,453.580505 199.143127,473.861755 277.556427,459.174927 
	C334.083435,448.587402 380.226898,419.494293 415.289337,373.971588 
	C456.181580,320.879852 471.172394,260.578796 460.577972,194.502213 
	C452.391876,143.446030 428.868317,99.984909 391.222656,64.429253 
	C354.515594,29.760012 311.007996,9.266820 260.887299,2.865550 
	C257.238312,2.399507 253.628189,1.628970 250.000000,1.000001 
	C426.358246,1.000000 602.716492,1.000000 779.306458,1.347076 
	C750.086853,3.972655 723.621948,14.254900 700.882080,32.937328 
	C690.852844,41.177120 682.439331,51.383648 673.343018,60.992653 
	C673.669495,61.273499 673.945251,61.258961 674.220947,61.244423 
	C673.877197,61.071716 673.533386,60.899014 673.430603,61.169266 
	C674.942993,61.248871 676.247375,60.973217 677.481079,60.509422 
	C716.184998,45.958908 756.167053,39.054783 797.546082,39.785751 
	C833.963135,40.429062 869.189331,47.024166 903.344971,59.561787 
	C905.209167,60.246082 907.103821,60.847168 908.984314,61.486996 
	C908.934692,59.892284 908.496765,59.217133 908.005737,58.583164 
	C885.740601,29.840288 856.770508,11.744099 821.274170,4.067248 
	C815.880615,2.900777 810.426270,2.015398 805.000000,1.000002 
	C896.943481,1.000000 988.886963,1.000000 1081.000000,1.000000 
	C1081.000000,139.691528 1081.000000,278.383118 1080.668457,417.321045 
	C1077.985840,395.759094 1059.833252,375.625519 1042.536743,371.774933 
	C1042.536743,407.519684 1042.536743,443.201508 1042.536743,479.270752 
	C1044.077759,478.762177 1045.355591,478.471283 1046.521118,477.935822 
	C1060.923706,471.319153 1071.206787,460.740631 1077.034180,445.950531 
	C1078.456665,442.340027 1079.683350,438.652252 1081.000000,435.000000 
	C1081.000000,642.358215 1081.000000,849.716492 1080.884766,1057.196533 
	C1076.111572,1045.943604 1070.885620,1042.507568 1058.234253,1042.507568 
	C713.666382,1042.507324 369.098511,1042.535767 24.530710,1042.387939 
	C12.663722,1042.382935 4.712100,1046.560791 1.000000,1058.000000 
M579.499207,488.499725 
	C580.422058,499.922516 580.321899,511.539276 582.444214,522.734680 
	C591.793579,572.052795 615.406494,613.541565 654.146118,645.544373 
	C707.535828,689.649719 768.671936,704.516418 836.398254,689.884216 
	C879.385864,680.596802 915.918823,659.151428 945.809143,626.927917 
	C983.092468,586.734192 1002.805542,538.959595 1003.664490,484.155487 
	C1004.468628,432.848389 1003.842590,381.518738 1003.832886,330.199036 
	C1003.830322,316.686890 996.096375,308.830139 982.880188,306.898041 
	C963.654846,304.087433 944.267761,301.529999 925.477051,296.778625 
	C887.274353,287.118744 853.934937,268.401642 827.110168,239.012131 
	C822.608337,234.079926 817.099731,231.946228 810.571350,232.532806 
	C795.340759,233.901306 780.025513,234.739227 764.914307,236.951370 
	C705.202820,245.692596 650.698242,267.765869 600.623352,301.396606 
	C585.737793,311.393921 579.213379,324.298889 579.360596,342.039490 
	C579.763000,390.523254 579.499146,439.012604 579.499207,488.499725 
M943.618896,120.874023 
	C847.804626,62.708778 729.745911,62.832924 637.107788,122.693008 
	C555.983826,175.113022 512.536194,250.691681 503.720428,346.557281 
	C514.309082,340.015320 525.124695,334.688019 537.049744,331.996552 
	C540.344116,331.253021 541.517090,329.844635 541.926025,326.480164 
	C544.550537,304.884338 554.646729,287.307434 572.148193,274.532501 
	C594.765625,258.023193 619.066345,244.282288 644.569458,232.667160 
	C694.318726,210.009399 746.560242,197.808151 801.033325,194.050156 
	C823.812134,192.478699 842.810364,198.117508 858.289856,215.665314 
	C871.097656,230.184494 887.221558,240.634094 904.764343,248.748199 
	C931.395386,261.065918 959.793396,266.070862 988.731567,268.969635 
	C1008.778137,270.977692 1023.974976,280.920258 1034.381714,298.209656 
	C1040.390991,308.193146 1042.402222,319.188507 1042.532837,329.211670 
	C1055.507446,335.058685 1067.663696,340.536926 1080.253418,346.210510 
	C1070.675049,249.844208 1026.197021,174.306213 943.618896,120.874023 
M834.405518,965.940857 
	C838.181763,959.674988 841.990540,953.428406 845.727600,947.139343 
	C853.812927,933.532532 865.631409,926.608521 881.571228,926.820557 
	C890.030212,926.933105 898.491882,926.840515 907.024780,926.840515 
	C907.234680,925.807007 907.475952,925.172363 907.476440,924.537598 
	C907.500549,891.037720 907.517334,857.537842 907.455811,824.038086 
	C907.453674,822.865356 907.005615,821.176025 906.166687,820.601440 
	C896.491394,813.972900 886.700195,807.513367 876.805908,800.919800 
	C875.874207,802.788025 875.184204,804.108826 874.548523,805.455261 
	C855.188354,846.463623 835.768799,887.444214 816.521484,928.505554 
	C811.469788,939.282471 803.635925,945.964905 791.513123,945.887146 
	C779.607117,945.810730 771.889771,939.176270 766.963135,928.562988 
	C756.331177,905.658752 745.468201,882.861755 734.675354,860.032349 
	C725.383789,840.378296 716.058533,820.740112 706.660400,800.909729 
	C697.415527,807.060913 688.474548,813.138489 679.380310,818.977234 
	C676.867554,820.590454 675.905273,822.296814 675.917480,825.352844 
	C676.046265,857.685608 675.993530,890.019104 676.009827,922.352356 
	C676.010559,923.779541 676.194702,925.206604 676.307739,926.840515 
	C685.021423,926.840515 693.337036,926.939148 701.649597,926.819397 
	C717.782898,926.587036 729.676514,933.644043 737.877502,947.385559 
	C748.360229,964.950195 758.986877,982.429382 769.402039,1000.033813 
	C771.022034,1002.772095 772.691772,1004.013733 776.039612,1003.933289 
	C786.533508,1003.680969 797.039978,1003.708313 807.535583,1003.922729 
	C810.598083,1003.985291 812.326050,1003.043518 813.855164,1000.419922 
	C820.469421,989.071655 827.286011,977.841309 834.405518,965.940857 
M535.855408,905.368652 
	C519.269958,936.365234 521.442993,969.952209 522.076233,1003.525269 
	C590.155823,1003.525269 657.988098,1003.525269 726.568665,1003.525269 
	C718.994324,990.894104 711.813782,978.783691 704.408081,966.812561 
	C703.774719,965.788757 701.651855,965.264404 700.206482,965.235718 
	C692.544739,965.083496 684.878479,965.170959 677.213745,965.162659 
	C654.071838,965.137695 637.523071,948.654175 637.513672,925.595581 
	C637.501648,896.269714 637.510742,866.943848 637.510742,837.617981 
	C637.510742,835.843689 637.510742,834.069397 637.510742,831.692200 
	C632.530701,832.734741 628.122498,833.455933 623.822998,834.589172 
	C584.270325,845.014832 555.242920,868.651917 535.855408,905.368652 
M1061.839233,970.512085 
	C1061.726318,966.522949 1061.763428,962.523010 1061.477539,958.546326 
	C1058.121216,911.869690 1036.735840,875.780090 997.393738,850.530701 
	C981.861572,840.562317 964.716248,834.579834 945.998413,831.906555 
	C945.998413,834.087524 945.998352,835.897705 945.998352,837.707947 
	C945.998352,866.855042 946.019897,896.002136 945.991577,925.149231 
	C945.968811,948.577332 929.474182,965.125854 906.169800,965.163086 
	C898.674866,965.175110 891.176270,965.298645 883.686768,965.097412 
	C880.810791,965.020203 879.216736,965.973816 877.776428,968.466003 
	C872.203247,978.108704 866.382935,987.608582 860.657837,997.163513 
	C859.423706,999.223206 858.202454,1001.290527 856.837585,1003.585815 
	C925.522949,1003.585815 993.418213,1003.585815 1061.839111,1003.585815 
	C1061.839111,992.730103 1061.839111,982.119019 1061.839233,970.512085 
M405.650085,765.132507 
	C379.418457,778.427795 353.087494,791.532166 326.997833,805.100403 
	C314.318085,811.694702 307.667877,822.865540 307.340607,837.047791 
	C307.211578,842.641418 305.328949,845.320923 300.715912,848.113281 
	C268.531555,867.595764 251.985123,896.207947 251.845169,934.004028 
	C251.766190,955.333435 251.830933,976.663391 251.830933,997.993103 
	C251.830933,999.781433 251.830933,1001.569702 251.830933,1003.480957 
	C264.856873,1003.480957 277.394653,1003.480957 290.169037,1003.480957 
	C290.169037,980.136292 290.004761,957.146362 290.279297,934.161621 
	C290.352020,928.072815 291.158905,921.839966 292.690460,915.949280 
	C297.888062,895.958313 312.627411,884.396606 329.920746,875.380615 
	C331.018311,874.808411 332.817322,875.196838 334.173767,875.565857 
	C347.461243,879.180359 359.495239,876.887573 370.352478,868.311462 
	C397.792816,846.636353 425.300964,825.047058 452.724426,803.350708 
	C464.574219,793.975708 467.259766,778.780579 459.483673,766.289795 
	C451.786591,753.925903 436.738617,749.717346 423.211517,756.258423 
	C417.530975,759.005249 411.965027,761.989014 405.650085,765.132507 
M807.220886,857.717712 
	C818.655640,833.560913 829.733826,809.225891 841.679749,785.324524 
	C847.405945,773.867310 850.778625,762.432617 849.628357,749.551636 
	C848.972168,742.204224 849.509583,734.750244 849.509583,726.892578 
	C810.667725,736.275574 772.461060,735.844177 733.830139,726.987793 
	C733.830139,739.605774 733.719238,751.741089 733.915649,763.871399 
	C733.959412,766.576599 734.637878,769.471191 735.779175,771.927734 
	C745.921448,793.757080 756.221252,815.513245 766.499451,837.279297 
	C774.763367,854.779663 783.061646,872.263794 791.686096,890.476074 
	C796.983398,879.348694 801.965393,868.883789 807.220886,857.717712 
M522.212219,469.306366 
	C527.747681,473.787506 533.609497,477.638855 540.659424,479.406921 
	C540.659424,443.246185 540.659424,407.557037 540.659424,371.294067 
	C521.399353,378.657288 509.010895,391.817688 504.385468,411.231079 
	C499.089752,433.458099 504.418152,453.084961 522.212219,469.306366 
z"/>
<path fill="#010101" opacity="1.000000" stroke="none" 
	d="
M249.531342,1.000001 
	C253.628189,1.628970 257.238312,2.399507 260.887299,2.865550 
	C311.007996,9.266820 354.515594,29.760012 391.222656,64.429253 
	C428.868317,99.984909 452.391876,143.446030 460.577972,194.502213 
	C471.172394,260.578796 456.181580,320.879852 415.289337,373.971588 
	C380.226898,419.494293 334.083435,448.587402 277.556427,459.174927 
	C199.143127,473.861755 130.060028,453.580505 71.941345,398.851807 
	C33.461987,362.616882 11.239079,317.413208 3.278154,265.198883 
	C2.626813,260.926880 2.268766,256.610138 1.387219,252.157089 
	C1.000000,240.312439 1.000000,228.624878 1.349205,216.233948 
	C2.921318,206.136002 3.612054,196.636002 5.449242,187.363129 
	C24.354279,91.943375 100.694443,18.876671 197.039352,3.781479 
	C203.675278,2.741770 210.345642,1.922033 217.000000,0.999999 
	C227.687561,1.000000 238.375122,1.000000 249.531342,1.000001 
M137.933578,400.373383 
	C137.943100,400.397491 137.966904,400.437042 137.960022,400.443359 
	C137.840622,400.553619 137.717438,400.659790 138.056412,400.047760 
	C138.081543,399.720978 138.232483,399.337128 138.113815,399.075592 
	C130.730011,382.807159 123.342194,366.540405 115.871162,350.311981 
	C115.465393,349.430573 114.353821,348.271729 113.558792,348.262421 
	C102.207916,348.128876 90.854965,348.171295 78.671371,348.171295 
	C87.978561,360.601898 97.701729,371.260162 109.102852,380.189789 
	C118.324738,387.412659 128.091782,393.939484 137.933578,400.373383 
M327.518311,400.076385 
	C350.320068,386.896149 369.800415,369.991241 386.287170,348.156067 
	C375.019440,348.156067 364.765686,348.302124 354.520172,348.075500 
	C351.019592,347.998047 349.478699,349.070251 348.037598,352.410736 
	C341.679382,367.149017 334.832092,381.675842 328.244141,396.316254 
	C327.635101,397.669739 327.606201,399.284302 326.999695,400.356598 
	C326.870239,400.273804 326.740753,400.191040 326.611267,400.108276 
	C326.837402,400.332458 327.063507,400.556610 327.518311,400.076385 
M326.708466,64.419380 
	C326.614777,64.624550 326.521118,64.829712 326.427460,65.034882 
	C326.563171,65.062943 326.779541,65.157288 326.820435,65.107491 
	C326.990051,64.900978 327.106659,64.650948 326.459412,64.894333 
	C333.956451,81.469521 341.428497,98.056183 349.014313,114.590637 
	C349.457458,115.556534 350.812775,116.731331 351.757812,116.743912 
	C362.974304,116.893349 374.193481,116.840164 386.288177,116.840164 
	C369.835785,94.782333 350.066681,77.944481 326.708466,64.419380 
M206.353516,309.509430 
	C208.486588,309.509430 210.619675,309.509430 212.935257,309.509430 
	C212.935257,290.104858 212.935257,271.189240 212.935257,252.073471 
	C187.465240,252.073471 162.225937,252.073471 135.737564,252.073471 
	C138.409836,271.436981 141.026260,290.395935 143.664001,309.509369 
	C165.092957,309.509369 185.238449,309.509369 206.353516,309.509430 
M213.163132,198.497070 
	C213.163132,184.118866 213.163132,169.740662 213.163132,155.437836 
	C189.751846,155.437836 167.178787,155.437836 143.623291,155.437836 
	C141.004898,174.559677 138.404770,193.547943 135.767929,212.804504 
	C162.325439,212.804504 187.657730,212.804504 213.163132,212.804504 
	C213.163132,208.127274 213.163132,203.811050 213.163132,198.497070 
M328.141449,253.591797 
	C326.702637,253.005981 325.266235,251.916412 323.824677,251.909653 
	C301.031342,251.802582 278.237305,251.831085 255.443451,251.845276 
	C254.336609,251.845978 253.229843,252.001144 252.093292,252.086639 
	C252.093292,271.305328 252.093292,290.191132 252.093292,309.498962 
	C274.282410,309.498962 296.215424,309.539124 318.146729,309.365417 
	C319.115326,309.357727 320.756012,307.497467 320.925568,306.331696 
	C323.432922,289.091522 325.744171,271.822845 328.141449,253.591797 
M302.497986,155.167542 
	C285.738403,155.167542 268.978821,155.167542 252.134903,155.167542 
	C252.134903,174.776154 252.134903,193.820648 252.134903,212.809723 
	C277.630005,212.809723 302.825378,212.809723 329.015839,212.809723 
	C326.937012,197.363632 325.153351,182.361420 322.836731,167.441956 
	C320.924103,155.124176 320.644806,155.167542 307.991455,155.167542 
	C306.493225,155.167542 304.994995,155.167542 302.497986,155.167542 
M366.607178,256.046082 
	C364.674744,273.785309 362.742279,291.524536 360.783020,309.509766 
	C375.858612,309.509766 391.150543,309.553619 406.441040,309.422791 
	C407.609314,309.412781 409.406952,308.444214 409.834686,307.455231 
	C417.449127,289.849274 422.271576,271.508240 424.209076,251.837692 
	C405.610107,251.837692 387.360077,251.795990 369.112305,251.977325 
	C368.312195,251.985260 367.532410,254.035172 366.607178,256.046082 
M99.211090,270.077698 
	C98.759270,264.017975 98.307457,257.958252 97.874489,252.151352 
	C78.477173,252.151352 59.710835,252.151352 40.702164,252.151352 
	C42.384460,270.348877 47.107704,287.409485 53.356483,304.156921 
	C54.987667,308.528687 57.235840,309.859222 61.746849,309.622345 
	C69.392105,309.220917 77.073715,309.511993 84.740044,309.511993 
	C91.347191,309.511993 97.954330,309.512024 104.504601,309.512024 
	C102.738922,296.326782 101.042526,283.658875 99.211090,270.077698 
M398.499939,213.168427 
	C406.940552,213.168427 415.381134,213.168427 424.258392,213.168427 
	C422.223297,193.359299 417.436249,174.838013 409.681427,157.109482 
	C409.206177,156.022964 406.775696,155.265762 405.245270,155.249252 
	C391.938324,155.105576 378.629242,155.166336 365.320770,155.166321 
	C363.606720,155.166306 361.892670,155.166306 360.556915,155.166306 
	C362.934235,174.819427 365.223145,193.741470 367.573120,213.168427 
	C377.273865,213.168427 387.386871,213.168427 398.499939,213.168427 
M63.640442,155.166306 
	C57.400249,153.776474 54.095032,156.571823 52.772060,162.548752 
	C52.310871,164.632309 51.239876,166.574417 50.536484,168.611893 
	C45.599213,182.913391 41.988731,197.502579 40.728180,212.904175 
	C59.956562,212.904175 78.837021,212.904175 97.271896,212.904175 
	C99.632530,193.535080 101.954826,174.480591 104.308784,155.166306 
	C91.213356,155.166306 77.907982,155.166306 63.640442,155.166306 
M190.499878,116.839142 
	C197.933716,116.839142 205.367569,116.839142 212.838226,116.839142 
	C212.838226,92.295113 212.838226,68.323174 212.838226,43.789356 
	C184.342484,61.085987 165.668472,85.163635 155.967896,116.839142 
	C167.549255,116.839142 178.524567,116.839142 190.499878,116.839142 
M186.322693,400.174011 
	C194.179092,408.231049 202.782547,415.296417 212.840866,420.865082 
	C212.840866,396.340179 212.840866,372.429321 212.840866,348.343933 
	C193.899216,348.343933 175.281296,348.343933 156.177505,348.343933 
	C161.907547,368.031830 171.752289,385.054047 186.322693,400.174011 
M308.157410,114.883583 
	C299.329010,82.905083 272.001953,53.213688 252.183502,44.889904 
	C252.183502,68.711815 252.183502,92.619926 252.183502,116.817108 
	C270.663940,116.817108 288.797180,116.824944 306.930267,116.772812 
	C307.393372,116.771484 307.854584,116.111626 308.157410,114.883583 
M251.837967,350.738770 
	C251.837967,373.944000 251.837967,397.149231 251.837967,421.183990 
	C280.441559,403.674683 299.095367,379.842834 308.779907,348.169495 
	C290.034668,348.169495 272.219635,348.147308 254.405182,348.238068 
	C253.555344,348.242401 252.710602,349.245911 251.837967,350.738770 
M81.858124,112.406273 
	C80.939087,113.675133 80.020058,114.944000 78.641060,116.847908 
	C89.925919,116.847908 100.355545,116.734283 110.779953,116.917397 
	C113.892097,116.972061 115.176216,116.039642 116.482513,113.034218 
	C123.083923,97.846222 130.128876,82.850983 137.022369,67.790016 
	C137.396347,66.972946 137.807343,66.172829 138.871094,63.990036 
	C116.074982,76.893829 97.729492,92.634460 81.858124,112.406273 
z"/>
<path fill="#000000" opacity="1.000000" stroke="none" 
	d="
M1.000000,1058.437500 
	C4.712100,1046.560791 12.663722,1042.382935 24.530710,1042.387939 
	C369.098511,1042.535767 713.666382,1042.507324 1058.234253,1042.507568 
	C1070.885620,1042.507568 1076.111572,1045.943604 1080.884766,1057.659180 
	C1081.000000,1060.041626 1081.000000,1062.083374 1080.999512,1064.935059 
	C1078.244873,1073.534668 1073.193481,1078.915161 1065.000000,1081.000000 
	C715.979126,1081.000000 366.958221,1081.000000 17.110500,1080.949219 
	C8.349607,1078.328735 3.128377,1073.151001 1.000000,1065.000000 
	C1.000000,1062.958374 1.000000,1060.916626 1.000000,1058.437500 
z"/>
<path fill="#FECEAF" opacity="1.000000" stroke="none" 
	d="
M216.531342,0.999999 
	C210.345642,1.922033 203.675278,2.741770 197.039352,3.781479 
	C100.694443,18.876671 24.354279,91.943375 5.449242,187.363129 
	C3.612054,196.636002 2.921318,206.136002 1.349205,215.765289 
	C1.000000,144.406128 1.000000,72.812256 1.000000,1.000000 
	C72.687416,1.000000 144.375046,1.000000 216.531342,0.999999 
z"/>
<path fill="#020202" opacity="1.000000" stroke="none" 
	d="
M804.531372,1.000002 
	C810.426270,2.015398 815.880615,2.900777 821.274170,4.067248 
	C856.770508,11.744099 885.740601,29.840288 908.005737,58.583164 
	C908.496765,59.217133 908.934692,59.892284 908.984314,61.486996 
	C907.103821,60.847168 905.209167,60.246082 903.344971,59.561787 
	C869.189331,47.024166 833.963135,40.429062 797.546082,39.785751 
	C756.167053,39.054783 716.184998,45.958908 677.481079,60.509422 
	C676.247375,60.973217 674.942993,61.248871 673.463745,61.188400 
	C673.255920,60.764576 673.292297,60.697273 673.292297,60.697273 
	C682.439331,51.383648 690.852844,41.177120 700.882080,32.937328 
	C723.621948,14.254900 750.086853,3.972655 779.769104,1.347076 
	C788.020935,1.000000 796.041809,1.000000 804.531372,1.000002 
z"/>
<path fill="#060504" opacity="1.000000" stroke="none" 
	d="
M1081.000000,434.532410 
	C1079.683350,438.652252 1078.456665,442.340027 1077.034180,445.950531 
	C1071.206787,460.740631 1060.923706,471.319153 1046.521118,477.935822 
	C1045.355591,478.471283 1044.077759,478.762177 1042.536743,479.270752 
	C1042.536743,443.201508 1042.536743,407.519684 1042.536743,371.774933 
	C1059.833252,375.625519 1077.985840,395.759094 1080.668457,417.783691 
	C1081.000000,423.354919 1081.000000,428.709869 1081.000000,434.532410 
z"/>
<path fill="#F9CAAC" opacity="1.000000" stroke="none" 
	d="
M1.000000,1065.471191 
	C3.128377,1073.151001 8.349607,1078.328735 16.641844,1080.949219 
	C11.741568,1081.000000 6.483135,1081.000000 1.000000,1081.000000 
	C1.000000,1075.982300 1.000000,1070.962280 1.000000,1065.471191 
z"/>
<path fill="#F9CAAC" opacity="1.000000" stroke="none" 
	d="
M1065.471191,1081.000000 
	C1073.193481,1078.915161 1078.244873,1073.534668 1080.999512,1065.372559 
	C1081.000000,1070.258423 1081.000000,1075.516846 1081.000000,1081.000000 
	C1075.982300,1081.000000 1070.962280,1081.000000 1065.471191,1081.000000 
z"/>
<path fill="#010000" opacity="1.000000" stroke="none" 
	d="
M579.499146,487.999725 
	C579.499146,439.012604 579.763000,390.523254 579.360596,342.039490 
	C579.213379,324.298889 585.737793,311.393921 600.623352,301.396606 
	C650.698242,267.765869 705.202820,245.692596 764.914307,236.951370 
	C780.025513,234.739227 795.340759,233.901306 810.571350,232.532806 
	C817.099731,231.946228 822.608337,234.079926 827.110168,239.012131 
	C853.934937,268.401642 887.274353,287.118744 925.477051,296.778625 
	C944.267761,301.529999 963.654846,304.087433 982.880188,306.898041 
	C996.096375,308.830139 1003.830322,316.686890 1003.832886,330.199036 
	C1003.842590,381.518738 1004.468628,432.848389 1003.664490,484.155487 
	C1002.805542,538.959595 983.092468,586.734192 945.809143,626.927917 
	C915.918823,659.151428 879.385864,680.596802 836.398254,689.884216 
	C768.671936,704.516418 707.535828,689.649719 654.146118,645.544373 
	C615.406494,613.541565 591.793579,572.052795 582.444214,522.734680 
	C580.321899,511.539276 580.422058,499.922516 579.499146,487.999725 
M757.693298,593.960449 
	C745.456726,588.655640 735.720764,580.418335 728.266235,569.341431 
	C722.048828,560.102600 710.638062,557.891785 701.567627,563.901550 
	C692.515198,569.899414 690.295898,581.115234 696.422058,590.634033 
	C707.043518,607.137695 721.309143,619.513794 739.025879,627.942871 
	C755.965881,636.002380 773.906921,637.720703 792.449036,637.656982 
	C830.662598,637.525513 860.553711,622.243835 881.956116,590.594421 
	C888.303345,581.208252 886.068054,569.916260 877.058716,563.833618 
	C867.946838,557.681763 856.698914,560.243347 849.889954,569.477783 
	C846.163452,574.531799 842.184509,579.692444 837.335144,583.576172 
	C813.271118,602.848511 786.341187,602.557068 757.693298,593.960449 
z"/>
<path fill="#010101" opacity="1.000000" stroke="none" 
	d="
M943.934204,121.053772 
	C1026.197021,174.306213 1070.675049,249.844208 1080.253418,346.210510 
	C1067.663696,340.536926 1055.507446,335.058685 1042.532837,329.211670 
	C1042.402222,319.188507 1040.390991,308.193146 1034.381714,298.209656 
	C1023.974976,280.920258 1008.778137,270.977692 988.731567,268.969635 
	C959.793396,266.070862 931.395386,261.065918 904.764343,248.748199 
	C887.221558,240.634094 871.097656,230.184494 858.289856,215.665314 
	C842.810364,198.117508 823.812134,192.478699 801.033325,194.050156 
	C746.560242,197.808151 694.318726,210.009399 644.569458,232.667160 
	C619.066345,244.282288 594.765625,258.023193 572.148193,274.532501 
	C554.646729,287.307434 544.550537,304.884338 541.926025,326.480164 
	C541.517090,329.844635 540.344116,331.253021 537.049744,331.996552 
	C525.124695,334.688019 514.309082,340.015320 503.720428,346.557281 
	C512.536194,250.691681 555.983826,175.113022 637.107788,122.693008 
	C729.745911,62.832924 847.804626,62.708778 943.934204,121.053772 
z"/>
<path fill="#020201" opacity="1.000000" stroke="none" 
	d="
M834.217224,966.254456 
	C827.286011,977.841309 820.469421,989.071655 813.855164,1000.419922 
	C812.326050,1003.043518 810.598083,1003.985291 807.535583,1003.922729 
	C797.039978,1003.708313 786.533508,1003.680969 776.039612,1003.933289 
	C772.691772,1004.013733 771.022034,1002.772095 769.402039,1000.033813 
	C758.986877,982.429382 748.360229,964.950195 737.877502,947.385559 
	C729.676514,933.644043 717.782898,926.587036 701.649597,926.819397 
	C693.337036,926.939148 685.021423,926.840515 676.307739,926.840515 
	C676.194702,925.206604 676.010559,923.779541 676.009827,922.352356 
	C675.993530,890.019104 676.046265,857.685608 675.917480,825.352844 
	C675.905273,822.296814 676.867554,820.590454 679.380310,818.977234 
	C688.474548,813.138489 697.415527,807.060913 706.660400,800.909729 
	C716.058533,820.740112 725.383789,840.378296 734.675354,860.032349 
	C745.468201,882.861755 756.331177,905.658752 766.963135,928.562988 
	C771.889771,939.176270 779.607117,945.810730 791.513123,945.887146 
	C803.635925,945.964905 811.469788,939.282471 816.521484,928.505554 
	C835.768799,887.444214 855.188354,846.463623 874.548523,805.455261 
	C875.184204,804.108826 875.874207,802.788025 876.805908,800.919800 
	C886.700195,807.513367 896.491394,813.972900 906.166687,820.601440 
	C907.005615,821.176025 907.453674,822.865356 907.455811,824.038086 
	C907.517334,857.537842 907.500549,891.037720 907.476440,924.537598 
	C907.475952,925.172363 907.234680,925.807007 907.024780,926.840515 
	C898.491882,926.840515 890.030212,926.933105 881.571228,926.820557 
	C865.631409,926.608521 853.812927,933.532532 845.727600,947.139343 
	C841.990540,953.428406 838.181763,959.674988 834.217224,966.254456 
z"/>
<path fill="#020101" opacity="1.000000" stroke="none" 
	d="
M535.991333,905.020081 
	C555.242920,868.651917 584.270325,845.014832 623.822998,834.589172 
	C628.122498,833.455933 632.530701,832.734741 637.510742,831.692200 
	C637.510742,834.069397 637.510742,835.843689 637.510742,837.617981 
	C637.510742,866.943848 637.501648,896.269714 637.513672,925.595581 
	C637.523071,948.654175 654.071838,965.137695 677.213745,965.162659 
	C684.878479,965.170959 692.544739,965.083496 700.206482,965.235718 
	C701.651855,965.264404 703.774719,965.788757 704.408081,966.812561 
	C711.813782,978.783691 718.994324,990.894104 726.568665,1003.525269 
	C657.988098,1003.525269 590.155823,1003.525269 522.076233,1003.525269 
	C521.442993,969.952209 519.269958,936.365234 535.991333,905.020081 
z"/>
<path fill="#010101" opacity="1.000000" stroke="none" 
	d="
M1061.839111,971.010010 
	C1061.839111,982.119019 1061.839111,992.730103 1061.839111,1003.585815 
	C993.418213,1003.585815 925.522949,1003.585815 856.837585,1003.585815 
	C858.202454,1001.290527 859.423706,999.223206 860.657837,997.163513 
	C866.382935,987.608582 872.203247,978.108704 877.776428,968.466003 
	C879.216736,965.973816 880.810791,965.020203 883.686768,965.097412 
	C891.176270,965.298645 898.674866,965.175110 906.169800,965.163086 
	C929.474182,965.125854 945.968811,948.577332 945.991577,925.149231 
	C946.019897,896.002136 945.998352,866.855042 945.998352,837.707947 
	C945.998352,835.897705 945.998413,834.087524 945.998413,831.906555 
	C964.716248,834.579834 981.861572,840.562317 997.393738,850.530701 
	C1036.735840,875.780090 1058.121216,911.869690 1061.477539,958.546326 
	C1061.763428,962.523010 1061.726318,966.522949 1061.839111,971.010010 
z"/>
<path fill="#010101" opacity="1.000000" stroke="none" 
	d="
M405.998535,764.998779 
	C411.965027,761.989014 417.530975,759.005249 423.211517,756.258423 
	C436.738617,749.717346 451.786591,753.925903 459.483673,766.289795 
	C467.259766,778.780579 464.574219,793.975708 452.724426,803.350708 
	C425.300964,825.047058 397.792816,846.636353 370.352478,868.311462 
	C359.495239,876.887573 347.461243,879.180359 334.173767,875.565857 
	C332.817322,875.196838 331.018311,874.808411 329.920746,875.380615 
	C312.627411,884.396606 297.888062,895.958313 292.690460,915.949280 
	C291.158905,921.839966 290.352020,928.072815 290.279297,934.161621 
	C290.004761,957.146362 290.169037,980.136292 290.169037,1003.480957 
	C277.394653,1003.480957 264.856873,1003.480957 251.830933,1003.480957 
	C251.830933,1001.569702 251.830933,999.781433 251.830933,997.993103 
	C251.830933,976.663391 251.766190,955.333435 251.845169,934.004028 
	C251.985123,896.207947 268.531555,867.595764 300.715912,848.113281 
	C305.328949,845.320923 307.211578,842.641418 307.340607,837.047791 
	C307.667877,822.865540 314.318085,811.694702 326.997833,805.100403 
	C353.087494,791.532166 379.418457,778.427795 405.998535,764.998779 
z"/>
<path fill="#020101" opacity="1.000000" stroke="none" 
	d="
M807.084106,858.068298 
	C801.965393,868.883789 796.983398,879.348694 791.686096,890.476074 
	C783.061646,872.263794 774.763367,854.779663 766.499451,837.279297 
	C756.221252,815.513245 745.921448,793.757080 735.779175,771.927734 
	C734.637878,769.471191 733.959412,766.576599 733.915649,763.871399 
	C733.719238,751.741089 733.830139,739.605774 733.830139,726.987793 
	C772.461060,735.844177 810.667725,736.275574 849.509583,726.892578 
	C849.509583,734.750244 848.972168,742.204224 849.628357,749.551636 
	C850.778625,762.432617 847.405945,773.867310 841.679749,785.324524 
	C829.733826,809.225891 818.655640,833.560913 807.084106,858.068298 
z"/>
<path fill="#020101" opacity="1.000000" stroke="none" 
	d="
M521.945740,469.069916 
	C504.418152,453.084961 499.089752,433.458099 504.385468,411.231079 
	C509.010895,391.817688 521.399353,378.657288 540.659424,371.294067 
	C540.659424,407.557037 540.659424,443.246185 540.659424,479.406921 
	C533.609497,477.638855 527.747681,473.787506 521.945740,469.069916 
z"/>
<path fill="#020202" opacity="1.000000" stroke="none" 
	d="
M673.222778,60.745441 
	C673.533386,60.899014 673.877197,61.071716 674.220947,61.244423 
	C673.945251,61.258961 673.669495,61.273499 673.343018,60.992653 
	C673.292297,60.697273 673.255920,60.764576 673.222778,60.745441 
z"/>
<path fill="#FDCDAE" opacity="1.000000" stroke="none" 
	d="
M205.868729,309.509399 
	C185.238449,309.509369 165.092957,309.509369 143.664001,309.509369 
	C141.026260,290.395935 138.409836,271.436981 135.737564,252.073471 
	C162.225937,252.073471 187.465240,252.073471 212.935257,252.073471 
	C212.935257,271.189240 212.935257,290.104858 212.935257,309.509430 
	C210.619675,309.509430 208.486588,309.509430 205.868729,309.509399 
z"/>
<path fill="#FECEAF" opacity="1.000000" stroke="none" 
	d="
M213.163132,198.995956 
	C213.163132,203.811050 213.163132,208.127274 213.163132,212.804504 
	C187.657730,212.804504 162.325439,212.804504 135.767929,212.804504 
	C138.404770,193.547943 141.004898,174.559677 143.623291,155.437836 
	C167.178787,155.437836 189.751846,155.437836 213.163132,155.437836 
	C213.163132,169.740662 213.163132,184.118866 213.163132,198.995956 
z"/>
<path fill="#FDCDAE" opacity="1.000000" stroke="none" 
	d="
M328.121643,254.076355 
	C325.744171,271.822845 323.432922,289.091522 320.925568,306.331696 
	C320.756012,307.497467 319.115326,309.357727 318.146729,309.365417 
	C296.215424,309.539124 274.282410,309.498962 252.093292,309.498962 
	C252.093292,290.191132 252.093292,271.305328 252.093292,252.086639 
	C253.229843,252.001144 254.336609,251.845978 255.443451,251.845276 
	C278.237305,251.831085 301.031342,251.802582 323.824677,251.909653 
	C325.266235,251.916412 326.702637,253.005981 328.121643,254.076355 
z"/>
<path fill="#FECEAF" opacity="1.000000" stroke="none" 
	d="
M302.997375,155.167542 
	C304.994995,155.167542 306.493225,155.167542 307.991455,155.167542 
	C320.644806,155.167542 320.924103,155.124176 322.836731,167.441956 
	C325.153351,182.361420 326.937012,197.363632 329.015839,212.809723 
	C302.825378,212.809723 277.630005,212.809723 252.134903,212.809723 
	C252.134903,193.820648 252.134903,174.776154 252.134903,155.167542 
	C268.978821,155.167542 285.738403,155.167542 302.997375,155.167542 
z"/>
<path fill="#FCCDAE" opacity="1.000000" stroke="none" 
	d="
M366.675171,255.589996 
	C367.532410,254.035172 368.312195,251.985260 369.112305,251.977325 
	C387.360077,251.795990 405.610107,251.837692 424.209076,251.837692 
	C422.271576,271.508240 417.449127,289.849274 409.834686,307.455231 
	C409.406952,308.444214 407.609314,309.412781 406.441040,309.422791 
	C391.150543,309.553619 375.858612,309.509766 360.783020,309.509766 
	C362.742279,291.524536 364.674744,273.785309 366.675171,255.589996 
z"/>
<path fill="#FCCDAE" opacity="1.000000" stroke="none" 
	d="
M99.278610,270.534332 
	C101.042526,283.658875 102.738922,296.326782 104.504601,309.512024 
	C97.954330,309.512024 91.347191,309.511993 84.740044,309.511993 
	C77.073715,309.511993 69.392105,309.220917 61.746849,309.622345 
	C57.235840,309.859222 54.987667,308.528687 53.356483,304.156921 
	C47.107704,287.409485 42.384460,270.348877 40.702164,252.151352 
	C59.710835,252.151352 78.477173,252.151352 97.874489,252.151352 
	C98.307457,257.958252 98.759270,264.017975 99.278610,270.534332 
z"/>
<path fill="#FDCEAF" opacity="1.000000" stroke="none" 
	d="
M397.999908,213.168427 
	C387.386871,213.168427 377.273865,213.168427 367.573120,213.168427 
	C365.223145,193.741470 362.934235,174.819427 360.556915,155.166306 
	C361.892670,155.166306 363.606720,155.166306 365.320770,155.166321 
	C378.629242,155.166336 391.938324,155.105576 405.245270,155.249252 
	C406.775696,155.265762 409.206177,156.022964 409.681427,157.109482 
	C417.436249,174.838013 422.223297,193.359299 424.258392,213.168427 
	C415.381134,213.168427 406.940552,213.168427 397.999908,213.168427 
z"/>
<path fill="#FDCEAF" opacity="1.000000" stroke="none" 
	d="
M64.121529,155.166306 
	C77.907982,155.166306 91.213356,155.166306 104.308784,155.166306 
	C101.954826,174.480591 99.632530,193.535080 97.271896,212.904175 
	C78.837021,212.904175 59.956562,212.904175 40.728180,212.904175 
	C41.988731,197.502579 45.599213,182.913391 50.536484,168.611893 
	C51.239876,166.574417 52.310871,164.632309 52.772060,162.548752 
	C54.095032,156.571823 57.400249,153.776474 64.121529,155.166306 
z"/>
<path fill="#FDCDAE" opacity="1.000000" stroke="none" 
	d="
M189.999878,116.839142 
	C178.524567,116.839142 167.549255,116.839142 155.967896,116.839142 
	C165.668472,85.163635 184.342484,61.085987 212.838226,43.789356 
	C212.838226,68.323174 212.838226,92.295113 212.838226,116.839142 
	C205.367569,116.839142 197.933716,116.839142 189.999878,116.839142 
z"/>
<path fill="#FDCDAE" opacity="1.000000" stroke="none" 
	d="
M186.072662,399.923706 
	C171.752289,385.054047 161.907547,368.031830 156.177505,348.343933 
	C175.281296,348.343933 193.899216,348.343933 212.840866,348.343933 
	C212.840866,372.429321 212.840866,396.340179 212.840866,420.865082 
	C202.782547,415.296417 194.179092,408.231049 186.072662,399.923706 
z"/>
<path fill="#FDCDAE" opacity="1.000000" stroke="none" 
	d="
M308.237061,115.321228 
	C307.854584,116.111626 307.393372,116.771484 306.930267,116.772812 
	C288.797180,116.824944 270.663940,116.817108 252.183502,116.817108 
	C252.183502,92.619926 252.183502,68.711815 252.183502,44.889904 
	C272.001953,53.213688 299.329010,82.905083 308.237061,115.321228 
z"/>
<path fill="#FDCDAE" opacity="1.000000" stroke="none" 
	d="
M251.850739,350.261475 
	C252.710602,349.245911 253.555344,348.242401 254.405182,348.238068 
	C272.219635,348.147308 290.034668,348.169495 308.779907,348.169495 
	C299.095367,379.842834 280.441559,403.674683 251.837967,421.183990 
	C251.837967,397.149231 251.837967,373.944000 251.850739,350.261475 
z"/>
<path fill="#F9CAAC" opacity="1.000000" stroke="none" 
	d="
M82.069092,112.114471 
	C97.729492,92.634460 116.074982,76.893829 138.871094,63.990036 
	C137.807343,66.172829 137.396347,66.972946 137.022369,67.790016 
	C130.128876,82.850983 123.083923,97.846222 116.482513,113.034218 
	C115.176216,116.039642 113.892097,116.972061 110.779953,116.917397 
	C100.355545,116.734283 89.925919,116.847908 78.641060,116.847908 
	C80.020058,114.944000 80.939087,113.675133 82.069092,112.114471 
z"/>
<path fill="#F9CAAC" opacity="1.000000" stroke="none" 
	d="
M327.215515,64.570786 
	C350.066681,77.944481 369.835785,94.782333 386.288177,116.840164 
	C374.193481,116.840164 362.974304,116.893349 351.757812,116.743912 
	C350.812775,116.731331 349.457458,115.556534 349.014313,114.590637 
	C341.428497,98.056183 333.956451,81.469521 326.841339,64.693573 
	C327.223267,64.492813 327.215515,64.570786 327.215515,64.570786 
z"/>
<path fill="#F9CAAC" opacity="1.000000" stroke="none" 
	d="
M327.307922,400.777618 
	C327.606201,399.284302 327.635101,397.669739 328.244141,396.316254 
	C334.832092,381.675842 341.679382,367.149017 348.037598,352.410736 
	C349.478699,349.070251 351.019592,347.998047 354.520172,348.075500 
	C364.765686,348.302124 375.019440,348.156067 386.287170,348.156067 
	C369.800415,369.991241 350.320068,386.896149 327.394409,400.382782 
	C327.270477,400.689178 327.307953,400.777618 327.307922,400.777618 
z"/>
<path fill="#F9CAAC" opacity="1.000000" stroke="none" 
	d="
M137.617004,400.775055 
	C128.091782,393.939484 118.324738,387.412659 109.102852,380.189789 
	C97.701729,371.260162 87.978561,360.601898 78.671371,348.171295 
	C90.854965,348.171295 102.207916,348.128876 113.558792,348.262421 
	C114.353821,348.271729 115.465393,349.430573 115.871162,350.311981 
	C123.342194,366.540405 130.730011,382.807159 138.113815,399.075592 
	C138.232483,399.337128 138.081543,399.720978 137.849762,400.365540 
	C137.643127,400.683289 137.617004,400.775055 137.617004,400.775055 
z"/>
<path fill="#F9CAAC" opacity="1.000000" stroke="none" 
	d="
M327.232971,64.454849 
	C327.106659,64.650948 326.990051,64.900978 326.820435,65.107491 
	C326.779541,65.157288 326.563171,65.062943 326.427460,65.034882 
	C326.521118,64.829712 326.614777,64.624550 326.961975,64.495087 
	C327.215515,64.570786 327.223267,64.492813 327.232971,64.454849 
z"/>
<path fill="#F9CAAC" opacity="1.000000" stroke="none" 
	d="
M327.280060,400.734985 
	C327.063507,400.556610 326.837402,400.332458 326.611267,400.108276 
	C326.740753,400.191040 326.870239,400.273804 327.153809,400.567108 
	C327.307953,400.777618 327.270477,400.689178 327.280060,400.734985 
z"/>
<path fill="#F9CAAC" opacity="1.000000" stroke="none" 
	d="
M137.619110,400.725067 
	C137.717438,400.659790 137.840622,400.553619 137.960022,400.443359 
	C137.966904,400.437042 137.943100,400.397491 137.775299,400.574219 
	C137.617004,400.775055 137.643127,400.683289 137.619110,400.725067 
z"/>
<path fill="#FDCEAF" opacity="1.000000" stroke="none" 
	d="
M758.063721,594.062683 
	C786.341187,602.557068 813.271118,602.848511 837.335144,583.576172 
	C842.184509,579.692444 846.163452,574.531799 849.889954,569.477783 
	C856.698914,560.243347 867.946838,557.681763 877.058716,563.833618 
	C886.068054,569.916260 888.303345,581.208252 881.956116,590.594421 
	C860.553711,622.243835 830.662598,637.525513 792.449036,637.656982 
	C773.906921,637.720703 755.965881,636.002380 739.025879,627.942871 
	C721.309143,619.513794 707.043518,607.137695 696.422058,590.634033 
	C690.295898,581.115234 692.515198,569.899414 701.567627,563.901550 
	C710.638062,557.891785 722.048828,560.102600 728.266235,569.341431 
	C735.720764,580.418335 745.456726,588.655640 758.063721,594.062683 
z"/>
</svg>