<svg version="1.1" id="Layer_1" xmlns="http://www.w3.org/2000/svg" xmlns:xlink="http://www.w3.org/1999/xlink" x="0px" y="0px"
	 width="100%" viewBox="0 0 1024 1024" enable-background="new 0 0 1024 1024" xml:space="preserve">
<path fill="#000000" opacity="1.000000" stroke="none" 
	d="
M331.468658,1025.000000 
	C324.857758,1021.658264 322.824921,1016.298157 322.996979,1009.573364 
	C323.197266,1001.746094 322.923859,993.907532 323.067963,986.077759 
	C323.134491,982.463257 321.815674,980.983032 318.112305,981.053894 
	C309.616241,981.216431 301.114349,981.164734 292.615875,981.087402 
	C283.662354,981.005920 278.999115,976.489868 278.837402,967.578369 
	C278.686279,959.248535 278.483917,950.897522 278.912079,942.587219 
	C279.182770,937.333557 277.278687,936.006531 272.334900,936.226379 
	C264.018768,936.596069 255.674072,936.362549 247.341751,936.317871 
	C239.648056,936.276550 235.444519,932.975647 234.527374,925.244263 
	C233.151077,913.642151 234.173248,901.947266 233.958206,890.294678 
	C233.893890,886.809692 233.721756,883.317261 234.395782,879.831543 
	C235.926147,871.917297 239.572586,868.809814 247.813858,868.771606 
	C256.146240,868.733032 264.485992,868.560852 272.808685,868.848206 
	C277.290314,869.002991 279.077271,867.693604 278.886566,862.962646 
	C278.557892,854.810181 278.743591,846.633911 278.823120,838.468750 
	C278.918060,828.717163 283.076111,824.352356 292.779083,824.118408 
	C301.106995,823.917664 309.445587,823.938782 317.774567,824.105957 
	C321.650757,824.183716 323.151978,822.698730 323.080048,818.833069 
	C322.931274,810.836853 322.920197,802.832458 323.102417,794.837097 
	C323.358978,783.580261 327.495789,779.693359 338.788910,779.697021 
	C358.953735,779.703491 379.118530,779.697449 399.283356,779.718018 
	C409.028931,779.727966 413.305206,783.942200 413.326965,793.688965 
	C413.377930,816.520142 413.478912,839.352356 413.287872,862.181824 
	C413.247528,867.002686 414.355347,868.884827 419.641632,868.867065 
	C474.469330,868.682983 529.298035,868.692749 584.125916,868.845154 
	C589.105042,868.859009 590.795349,867.490417 590.743286,862.376099 
	C590.510986,839.547241 590.635742,816.714661 590.652527,793.883423 
	C590.659973,783.663086 594.642517,779.694580 604.872742,779.691467 
	C625.370850,779.685181 645.868958,779.690002 666.367065,779.707947 
	C676.187012,779.716553 680.354675,783.875732 680.377991,793.665100 
	C680.398254,802.164307 680.519470,810.666321 680.334717,819.161438 
	C680.253723,822.887451 681.693726,824.181030 685.316833,824.114746 
	C693.646667,823.962524 701.981750,823.995972 710.313477,824.077637 
	C720.811462,824.180542 725.093689,828.576965 725.128479,839.129333 
	C725.155884,847.461792 725.250854,855.796143 725.111328,864.126160 
	C725.054016,867.551147 726.282959,868.875732 729.768921,868.811890 
	C738.598511,868.650085 747.433105,868.725098 756.265442,868.766296 
	C764.860046,868.806396 769.302979,873.132568 769.332703,881.568726 
	C769.382080,895.567261 769.378845,909.566162 769.332886,923.564697 
	C769.305908,931.755249 764.841309,936.255737 756.698853,936.310852 
	C747.700134,936.371826 738.698486,936.436523 729.702576,936.265686 
	C726.196960,936.199158 724.989258,937.538330 725.047302,940.948975 
	C725.194763,949.612488 725.144653,958.280029 725.117920,966.945740 
	C725.088867,976.372742 720.491089,981.000183 710.967834,981.088379 
	C702.469482,981.167053 693.966187,981.246033 685.472046,981.038879 
	C681.542236,980.943054 680.204468,982.362122 680.308594,986.272583 
	C680.534729,994.765808 680.185608,1003.275146 680.448059,1011.766296 
	C680.627258,1017.562317 678.516418,1021.753723 673.237061,1024.760254 
	C647.979126,1025.000000 622.958191,1025.000000 597.292480,1024.713135 
	C591.902100,1020.963745 590.535950,1016.264343 590.589600,1010.494873 
	C590.799866,987.858032 590.581909,965.217407 590.759338,942.579956 
	C590.795837,937.921509 589.487488,936.213074 584.557556,936.226929 
	C529.459167,936.381775 474.360046,936.380005 419.261627,936.234985 
	C414.585144,936.222656 413.274170,937.741394 413.308258,942.244934 
	C413.474731,964.216492 413.193512,986.192261 413.459900,1008.161804 
	C413.541199,1014.866211 412.594208,1020.699707 407.000000,1025.000000 
	C381.979095,1025.000000 356.958221,1025.000000 331.468658,1025.000000 
M346.368805,936.499939 
	C346.371124,956.326050 346.501709,976.153625 346.278900,995.977173 
	C346.227875,1000.518066 347.493317,1002.171936 352.150787,1002.053772 
	C362.806671,1001.783264 373.478546,1001.784729 384.134674,1002.049194 
	C388.766602,1002.164124 390.288818,1000.482544 390.156738,995.965393 
	C389.743073,981.819214 390.322784,967.669617 390.232941,953.513428 
	C389.929382,905.699707 390.120148,857.882935 390.102417,810.067322 
	C390.099854,803.179688 389.884094,802.989319 383.159058,802.988647 
	C372.829590,802.987671 362.496643,803.181580 352.172211,802.961914 
	C347.595673,802.864563 346.248993,804.455139 346.267212,809.046997 
	C346.434448,851.197449 346.367859,893.348816 346.368805,936.499939 
M657.595215,906.500061 
	C657.592957,873.852417 657.521667,841.204529 657.670776,808.557556 
	C657.690735,804.190613 656.405151,802.769409 651.975342,802.897583 
	C641.156921,803.210510 630.321899,803.165100 619.498413,802.978943 
	C615.350403,802.907532 614.036926,804.411194 614.041931,808.508606 
	C614.118591,871.138489 614.109009,933.768555 613.976501,996.398315 
	C613.966980,1000.922241 615.705811,1002.107361 619.887756,1002.028137 
	C630.377747,1001.829407 640.883850,1001.701355 651.364014,1002.081116 
	C656.607849,1002.271179 657.748474,1000.348267 657.713013,995.447937 
	C657.500977,966.133240 657.600037,936.816284 657.595215,906.500061 
M535.500000,912.854248 
	C549.485535,912.857544 563.471069,912.861267 577.456604,912.863953 
	C590.702087,912.866455 590.702087,912.865967 590.655579,899.655396 
	C590.629150,892.164124 590.629150,892.141541 583.231873,892.139526 
	C529.121155,892.124817 475.010406,892.119812 420.899658,892.112671 
	C420.067230,892.112549 419.229462,892.187439 418.403259,892.118713 
	C414.839233,891.821716 413.136383,893.248596 413.362122,897.001831 
	C413.561646,900.320190 413.653748,903.678162 413.376831,906.983765 
	C413.008911,911.375610 414.276031,912.997253 419.119934,912.970398 
	C457.578979,912.756775 496.039764,912.852783 535.500000,912.854248 
M701.722778,859.535095 
	C701.714233,857.039246 701.574524,854.535339 701.728882,852.049561 
	C701.941772,848.622498 700.526428,847.173401 697.071533,847.342651 
	C693.751953,847.505188 690.417725,847.359863 687.089966,847.367981 
	C680.420715,847.384338 680.398010,847.389465 680.395203,853.967285 
	C680.382568,883.584778 680.384277,913.202332 680.379944,942.819824 
	C680.377747,957.799072 680.380066,957.604919 695.250122,957.848389 
	C700.261047,957.930298 701.856445,956.453735 701.822144,951.371948 
	C701.617676,921.090210 701.721252,890.806519 701.722778,859.535095 
M323.020294,932.500000 
	C323.023926,906.030029 322.961243,879.559692 323.098846,853.090454 
	C323.120880,848.852173 321.907776,846.902588 317.415100,847.312378 
	C314.112823,847.613586 310.741058,847.607178 307.436798,847.318848 
	C303.119629,846.942200 301.910004,848.865479 302.159576,852.854492 
	C302.418976,857.000244 302.217712,861.174805 302.218719,865.336731 
	C302.225616,894.303833 302.290161,923.271240 302.172638,952.237854 
	C302.156555,956.203430 303.123779,958.135498 307.463593,957.751526 
	C310.931396,957.444641 314.463013,957.523132 317.942230,957.769958 
	C321.964966,958.055298 323.195374,956.256958 323.081604,952.476868 
	C322.891357,946.156372 323.023956,939.826111 323.020294,932.500000 
M278.788727,900.573242 
	C278.824097,892.104248 278.824097,892.104309 270.451965,892.071045 
	C269.619202,892.067749 268.786377,892.059143 267.953644,892.063110 
	C255.430969,892.122192 257.425201,890.945618 257.386932,902.698120 
	C257.349030,914.348389 255.894150,912.764893 267.356720,912.835938 
	C278.780823,912.906860 278.781189,912.850281 278.788727,900.573242 
M733.567566,892.066895 
	C725.078613,892.092590 725.078613,892.092590 725.106995,900.445496 
	C725.108154,900.778259 725.106934,901.111145 725.112366,901.443848 
	C725.331421,914.824280 723.506775,912.714722 736.466125,912.821289 
	C746.848694,912.906677 745.977722,913.827026 745.911743,903.539001 
	C745.828552,890.576599 747.611816,892.262024 733.567566,892.066895 
z"/>
<path fill="#000000" opacity="1.000000" stroke="none" 
	d="
M1025.000000,661.531372 
	C1021.835144,667.474548 1017.151550,669.602783 1010.815430,669.305176 
	C1003.168579,668.946106 995.491638,669.201050 987.827942,669.232544 
	C981.123718,669.260071 981.107910,669.285950 981.106689,675.819580 
	C981.103149,694.645935 981.129883,713.472351 981.112305,732.298706 
	C981.102539,742.829407 976.753479,747.193359 966.236084,747.206970 
	C938.579651,747.242859 910.923157,747.263062 883.266724,747.253235 
	C873.018005,747.249573 868.770874,742.935059 868.766174,732.612244 
	C868.757385,713.452637 868.648987,694.291565 868.874390,675.134521 
	C868.928589,670.530762 867.501221,668.990601 862.894775,669.165649 
	C854.576416,669.481628 846.237610,669.278015 837.907410,669.258484 
	C828.982544,669.237610 824.421143,664.925842 824.178772,655.843018 
	C823.969971,648.018555 823.837280,640.167969 824.226624,632.356689 
	C825.007202,616.693604 824.213379,601.052063 824.156799,585.401062 
	C824.142761,581.512451 822.696594,580.051025 818.816345,580.226868 
	C813.662292,580.460510 808.487671,580.368225 803.325195,580.260010 
	C795.988770,580.106201 791.074341,575.885620 790.929504,568.677368 
	C790.631653,553.856323 790.630127,539.020691 790.932068,524.199768 
	C791.082153,516.834961 795.858704,512.774841 803.281555,512.675842 
	C808.278870,512.609192 813.295593,512.391479 818.270508,512.729370 
	C822.691345,513.029541 824.099792,511.363129 824.071289,507.049286 
	C823.951294,488.890533 824.073853,470.730103 824.129395,452.570374 
	C824.135498,450.574768 824.161743,448.566193 824.383118,446.586487 
	C825.298035,438.405121 829.296753,434.728821 837.464050,434.652344 
	C845.460327,434.577454 853.457947,434.647888 861.454956,434.638123 
	C868.736389,434.629242 868.745117,434.619507 868.748169,427.088531 
	C868.755676,408.428741 868.747375,389.768982 868.759399,371.109192 
	C868.765991,360.838623 872.750916,356.749939 882.837280,356.742310 
	C910.993530,356.721008 939.149841,356.714355 967.306091,356.736938 
	C976.588135,356.744385 981.121948,361.224823 981.143677,370.492249 
	C981.189392,389.984924 981.254150,409.478821 981.064148,428.969818 
	C981.022217,433.267822 982.237244,434.905182 986.710999,434.738922 
	C994.863220,434.435974 1003.041931,434.864441 1011.196472,434.593994 
	C1017.109558,434.397919 1021.593079,436.304749 1024.764648,441.760254 
	C1025.000000,515.020874 1025.000000,588.041809 1025.000000,661.531372 
M847.377625,462.828644 
	C847.366272,521.620422 847.353882,580.412170 847.345093,639.203918 
	C847.344116,646.005859 847.353638,646.036987 854.303589,646.040466 
	C901.270386,646.063904 948.237244,646.076904 995.204041,646.082703 
	C1001.806946,646.083496 1001.977844,645.910217 1001.977844,639.413208 
	C1001.978149,581.287659 1001.972168,523.162109 1001.962402,465.036560 
	C1001.961182,457.940979 1001.925415,457.928650 994.628601,457.931458 
	C950.326660,457.948364 906.024719,457.962067 861.722778,457.975372 
	C858.225464,457.976440 854.727905,457.990601 851.230896,457.953888 
	C848.519714,457.925446 847.211548,459.185699 847.377625,462.828644 
M910.500854,669.276489 
	C906.006897,669.277283 901.504517,669.448425 897.021606,669.225952 
	C893.321838,669.042419 892.066956,670.471558 892.102722,674.144348 
	C892.246826,688.956360 892.258728,703.771423 892.102417,718.583130 
	C892.061890,722.418701 893.240356,723.857605 897.227478,723.825806 
	C915.701294,723.678162 934.178040,723.692017 952.651489,723.872131 
	C956.630066,723.910889 957.819214,722.515869 957.776123,718.660034 
	C957.612488,704.014954 957.559265,689.364319 957.808594,674.721619 
	C957.886230,670.156616 956.132568,669.101074 951.944824,669.167664 
	C938.466248,669.382019 924.982361,669.266174 910.500854,669.276489 
M957.652893,396.503265 
	C957.647888,392.506531 957.507141,388.503906 957.680054,384.514893 
	C957.823181,381.213257 956.372314,380.139038 953.232727,380.151245 
	C934.415100,380.224396 915.596863,380.247406 896.779541,380.146301 
	C893.299133,380.127594 892.118164,381.445282 892.142883,384.856995 
	C892.251343,399.843781 892.267761,414.832733 892.117371,429.818878 
	C892.079956,433.550781 893.467712,434.717194 897.093811,434.694031 
	C915.577759,434.575775 934.063477,434.576508 952.547241,434.711060 
	C956.431824,434.739319 957.816528,433.397766 957.740112,429.474609 
	C957.532532,418.820618 957.658203,408.160126 957.652893,396.503265 
M814.244080,551.260254 
	C813.800415,555.102356 814.950256,557.041016 819.379333,556.974854 
	C823.821777,556.908508 824.161499,554.484741 824.088013,551.169373 
	C824.014221,547.839661 823.960876,544.500732 824.123230,541.176880 
	C824.314270,537.264221 822.578369,535.975037 818.751465,535.970093 
	C814.697571,535.964905 814.063354,538.027466 814.228577,541.329712 
	C814.378174,544.320312 814.249390,547.324829 814.244080,551.260254 
z"/>
<path fill="#000000" opacity="1.000000" stroke="none" 
	d="
M586.531372,1.000000 
	C600.279541,3.814227 613.041565,7.783230 624.150940,16.073666 
	C656.323181,40.082455 666.956787,80.652954 650.580078,117.338440 
	C649.927429,118.800385 648.657715,120.110214 649.209717,122.792389 
	C653.965454,122.792389 658.885986,122.944901 663.792053,122.743919 
	C667.686401,122.584396 669.713684,123.716743 669.503052,128.050018 
	C669.293762,132.357376 669.441711,136.703918 669.762451,141.008713 
	C670.050293,144.871811 668.710754,146.439728 664.711853,146.369659 
	C654.549072,146.191589 644.377258,146.468231 634.217041,146.226944 
	C630.222229,146.132065 627.380066,147.392441 624.576355,150.221405 
	C587.395874,187.736450 550.117249,225.154190 512.851440,262.584534 
	C504.507050,270.965729 499.240692,270.982635 490.900421,262.590179 
	C461.417145,232.922470 431.898651,203.289108 402.571136,173.468048 
	C398.853149,169.687469 395.091461,168.167419 389.837616,168.300446 
	C376.847076,168.629379 363.841003,168.291809 350.844086,168.454666 
	C346.963531,168.503296 345.413269,167.201370 345.612000,163.265747 
	C345.847046,158.611282 345.770935,153.932831 345.631653,149.270706 
	C345.540100,146.206116 346.759125,145.248383 349.795502,145.327454 
	C357.249969,145.521652 364.712921,145.390976 373.706299,145.390976 
	C370.918549,142.262772 369.219788,140.310440 367.472473,138.402557 
	C325.023010,92.051971 347.484222,17.871510 408.515137,2.877628 
	C410.776184,2.322148 413.052063,1.827027 415.660522,1.151890 
	C423.020966,1.000000 430.041901,1.000000 437.874298,1.151555 
	C443.040222,2.327938 447.443420,3.182085 451.740295,4.408726 
	C466.202423,8.537276 478.045074,16.857967 488.396912,27.552488 
	C492.750671,32.050354 497.265289,36.392498 502.749146,41.841125 
	C506.250031,37.828819 509.212036,34.261822 512.356934,30.864042 
	C519.839600,22.779594 527.977478,15.502114 537.731445,10.157905 
	C545.995056,5.630221 555.146606,3.769758 564.000000,1.000000 
	C571.354248,1.000000 578.708496,1.000000 586.531372,1.000000 
M455.221741,137.758713 
	C463.449921,124.047356 471.717560,110.359428 479.879852,96.608986 
	C482.055237,92.944275 484.942688,90.427574 489.197144,89.793571 
	C495.373627,88.873123 500.565277,92.485069 502.359955,99.376022 
	C505.506165,111.456467 508.329712,123.620567 511.364990,135.730423 
	C513.275574,143.353119 515.325623,150.940857 517.626648,159.743942 
	C523.694153,149.712845 529.341370,141.065125 534.259705,132.021072 
	C537.993530,125.155098 543.160950,122.525391 550.865784,122.641136 
	C571.688843,122.953957 592.520874,122.634430 613.346252,122.855125 
	C617.689331,122.901161 620.567627,121.442566 622.989014,118.040581 
	C632.831665,104.211693 636.783630,89.004921 633.723694,72.217072 
	C629.744080,50.383930 617.225403,35.176006 596.501160,27.714584 
	C575.909790,20.300999 556.422485,23.486271 539.224121,37.470455 
	C529.639160,45.264076 521.556885,54.635101 512.920410,63.425007 
	C505.111877,71.372200 498.903900,71.277718 491.052551,63.499165 
	C483.713959,56.228573 476.417480,48.915260 469.132385,41.590981 
	C457.221130,29.615690 442.832336,23.665520 425.955231,24.235802 
	C403.196930,25.004818 386.019409,35.444000 375.725220,55.694298 
	C365.205841,76.387642 366.678314,96.986481 379.691193,116.273987 
	C386.811340,126.827385 396.940430,134.750992 405.738922,143.835403 
	C407.002228,145.139786 408.585205,145.275772 410.333954,145.257553 
	C421.162964,145.144669 432.016815,144.679062 442.813263,145.253754 
	C448.843109,145.574692 452.647400,143.856995 455.221741,137.758713 
M438.069855,176.433777 
	C457.951721,196.361053 477.890198,216.232498 497.656311,236.273941 
	C500.729584,239.390045 502.561768,239.923584 505.974579,236.474625 
	C534.091675,208.059891 562.421814,179.856018 590.656189,151.557144 
	C591.968079,150.242264 593.760010,149.127365 594.049744,146.330017 
	C582.071960,146.330017 570.449768,146.503006 558.837646,146.238388 
	C554.641907,146.142776 552.125488,147.541550 550.021423,151.144409 
	C541.540894,165.665375 532.836914,180.056152 524.172974,194.469452 
	C520.708191,200.233490 516.541504,202.432587 511.103394,201.534653 
	C505.148132,200.551315 502.545471,196.513931 501.195312,191.051666 
	C496.766022,173.132324 492.211517,155.243896 487.682831,137.349243 
	C487.306976,135.864120 487.332611,134.134613 485.559174,132.918549 
	C481.446014,139.672226 477.240509,146.073135 473.538452,152.753052 
	C463.517212,170.835144 463.783447,168.168854 445.741608,168.435699 
	C441.075439,168.504700 436.324280,167.850876 430.158752,169.759521 
	C433.222412,172.315384 435.394470,174.127441 438.069855,176.433777 
z"/>
<path fill="#000000" opacity="1.000000" stroke="none" 
	d="
M0.999999,541.468628 
	C2.427607,535.885437 3.679694,530.714233 5.310326,525.665283 
	C19.533360,481.625763 64.032219,458.740417 108.093208,472.727081 
	C109.633942,473.216187 111.096207,474.190216 113.161446,473.798737 
	C115.037834,463.155762 117.411819,452.663940 121.729179,442.705109 
	C125.124939,434.872101 129.524170,427.632751 134.146317,420.493317 
	C135.797607,417.942688 137.433990,417.718872 139.862122,419.440765 
	C143.936005,422.329712 148.091568,425.117462 152.341125,427.739807 
	C155.169037,429.484894 155.222260,431.026672 153.322754,433.721130 
	C145.265503,445.150482 139.823273,457.725128 137.302658,472.425659 
	C142.363678,471.445740 146.942825,470.423492 151.567322,469.685120 
	C189.025772,463.704681 224.820404,484.051941 239.489716,519.102356 
	C247.671051,538.650574 248.878067,558.509827 243.079300,578.638489 
	C234.218231,609.396912 218.742233,636.207397 193.834686,656.934265 
	C182.866058,666.061707 170.498337,672.217651 156.084793,673.827026 
	C147.942215,674.736206 140.185318,672.953613 132.447342,670.942383 
	C127.559380,669.671936 122.695419,668.516357 117.711372,670.200562 
	C87.016289,680.572998 62.915890,668.800720 42.362930,646.999817 
	C21.836637,625.227234 8.005175,599.693542 2.295402,570.065186 
	C2.012989,568.599731 1.601199,567.159180 1.124824,565.353516 
	C1.000000,557.312439 1.000000,549.624817 0.999999,541.468628 
M24.203070,557.322998 
	C24.265104,558.821228 24.154707,560.350037 24.414576,561.813110 
	C29.909817,592.752686 44.000496,618.999695 67.893036,639.552063 
	C79.402397,649.452393 92.699142,653.652283 107.849785,648.658142 
	C118.156036,645.260803 128.530472,645.231445 138.800812,648.589600 
	C153.556061,653.414368 166.348267,649.428528 178.048660,640.272949 
	C191.140671,630.028503 200.938080,617.027161 208.569809,602.426941 
	C217.584366,585.181213 224.515533,567.397827 222.963257,547.227539 
	C219.538162,502.722168 171.525024,477.523315 133.165833,500.520966 
	C126.518394,504.506317 120.972733,504.981079 114.241089,500.792206 
	C101.153008,492.648010 86.653786,489.963318 71.522163,492.946869 
	C41.944656,498.778809 22.719225,525.497681 24.203070,557.322998 
z"/>
<path fill="#000000" opacity="1.000000" stroke="none" 
	d="
M343.900452,414.087738 
	C354.051086,383.266357 370.827576,357.594574 397.373932,338.989105 
	C418.446625,324.219940 442.110016,316.527924 467.549866,313.623505 
	C492.130402,310.817169 516.432251,311.996582 540.254272,318.696716 
	C586.959412,331.832855 618.195251,361.846649 634.962219,407.094696 
	C636.589600,411.486420 638.684509,413.714813 643.339844,414.814148 
	C675.275269,422.355591 699.613525,451.060059 702.442932,483.850494 
	C702.845154,488.512299 702.994202,493.154297 702.994385,497.816559 
	C702.996460,567.479675 702.996887,637.142822 702.996826,706.805969 
	C702.996826,708.305847 703.010681,709.806396 702.974670,711.305542 
	C702.753479,720.515320 697.639404,725.682922 688.382935,725.016968 
	C655.473145,722.649292 632.228149,706.249756 618.661926,676.168884 
	C616.127441,670.549194 614.740723,664.565308 613.343140,657.875122 
	C608.698975,664.001709 604.651733,669.816406 599.948425,675.124573 
	C574.253967,704.123169 542.168701,720.465332 503.619415,724.320129 
	C431.395660,731.542053 361.846252,681.104736 348.005615,605.660828 
	C346.505341,597.483032 345.588104,589.221680 345.616669,580.853638 
	C345.711700,553.022034 345.611481,525.189697 345.711670,497.358154 
	C345.724762,493.718872 345.280334,491.322083 341.177307,489.829987 
	C336.347321,488.073608 334.628998,483.647247 334.646393,478.494751 
	C334.719879,456.721710 337.305817,435.320709 343.900452,414.087738 
M500.500061,491.280396 
	C458.838776,491.266052 417.177063,491.335785 375.516754,491.128784 
	C370.425323,491.103485 368.995819,492.609650 369.034973,497.633209 
	C369.254730,525.794678 369.159393,553.958679 369.143890,582.121765 
	C369.140137,588.966125 369.925690,595.694824 371.151459,602.439026 
	C382.997681,667.616089 447.508118,714.225952 517.225586,698.761536 
	C573.629395,686.250183 612.486877,637.101562 612.746826,579.229797 
	C612.868835,552.067139 612.769409,524.903381 612.757812,497.740112 
	C612.755066,491.255188 612.732056,491.242889 605.986938,491.244446 
	C571.158020,491.252502 536.329041,491.267365 500.500061,491.280396 
M502.361359,459.398651 
	C502.440338,468.300873 501.269104,467.752472 510.672394,467.756897 
	C524.333862,467.763336 537.996643,467.640167 551.656067,467.805817 
	C555.507446,467.852539 557.028503,466.661499 556.916565,462.682251 
	C556.701111,455.024994 556.955688,447.355652 556.857239,439.693390 
	C556.812500,436.214996 557.917969,434.418854 561.743103,434.593079 
	C566.398071,434.805115 571.075806,434.768097 575.733643,434.584229 
	C579.219543,434.446625 580.449890,435.884491 580.391602,439.295990 
	C580.255005,447.290405 580.452271,455.290405 580.328857,463.285278 
	C580.280640,466.404999 581.240662,467.838684 584.588013,467.803833 
	C596.248962,467.682373 607.912292,467.710297 619.574036,467.783661 
	C622.495056,467.802032 623.769470,467.014862 623.455383,463.727692 
	C622.219238,450.787476 620.272522,437.996185 616.681091,425.476624 
	C605.659119,387.054840 582.786804,358.873474 544.852356,344.730927 
	C515.930603,333.948395 486.013672,332.968201 455.835052,339.195587 
	C423.958832,345.773254 398.563812,362.116089 380.856201,389.615479 
	C366.334503,412.167145 360.266235,437.411255 358.315552,463.857300 
	C358.038269,467.616211 360.217926,467.815186 362.997314,467.799713 
	C373.992859,467.738495 384.992310,467.593445 395.982819,467.829193 
	C399.998260,467.915344 401.340027,466.292572 401.350891,462.626587 
	C401.374084,454.798157 401.668610,446.966248 401.499420,439.143433 
	C401.421967,435.561279 402.725342,434.464539 406.126434,434.607666 
	C410.782593,434.803650 415.459473,434.772949 420.117004,434.582733 
	C423.664703,434.437836 424.668732,435.882507 424.578552,439.334534 
	C424.369904,447.322357 424.666565,455.322174 424.554749,463.314301 
	C424.506012,466.796173 425.893768,467.865173 429.301971,467.829773 
	C444.128174,467.675842 458.958099,467.636322 473.783569,467.812775 
	C477.756317,467.860077 479.078857,466.424225 478.991882,462.593781 
	C478.817963,454.934143 479.037903,447.266022 478.902527,439.604797 
	C478.839142,436.019623 480.114929,434.424225 483.858582,434.610535 
	C488.179260,434.825592 492.531647,434.849396 496.847504,434.584869 
	C500.892334,434.336975 502.587616,435.707001 502.411072,439.934082 
	C502.154083,446.087433 502.354248,452.259918 502.361359,459.398651 
M679.663452,655.500061 
	C679.660645,600.700562 679.920166,545.899109 679.526794,491.102417 
	C679.367920,468.976196 668.804016,452.413666 649.161499,441.895691 
	C647.898560,441.219452 646.624268,440.192566 644.945679,440.926544 
	C643.880920,442.653351 644.500122,444.423462 644.755249,446.218567 
	C646.300476,457.093170 647.468201,468.001617 647.286133,479.009003 
	C647.208557,483.695801 645.434326,487.888092 641.055664,489.558044 
	C636.704041,491.217712 636.070007,493.843903 636.079285,497.922058 
	C636.191956,547.371338 636.131653,596.820862 636.160461,646.270386 
	C636.174500,670.323730 650.805664,690.843628 673.552673,698.822632 
	C675.357971,699.455872 677.169678,700.591125 679.663147,699.213135 
	C679.663147,685.084900 679.663147,670.792480 679.663452,655.500061 
z"/>
<path fill="#000000" opacity="1.000000" stroke="none" 
	d="
M42.942970,422.160339 
	C58.171879,344.687195 90.926117,275.865875 140.648376,215.248627 
	C175.403091,172.878555 216.564041,137.772766 263.881592,109.956337 
	C276.969147,102.262566 290.539642,95.541557 304.085571,88.739311 
	C307.214691,87.167984 308.863922,87.586853 310.189667,90.853325 
	C311.878845,95.015366 313.705414,99.150558 315.856201,103.087845 
	C317.821686,106.685799 317.168823,108.591171 313.361633,110.334091 
	C294.250305,119.083244 275.943573,129.323227 258.363708,140.846329 
	C227.284073,161.218124 199.205597,185.086349 174.052078,212.479797 
	C137.704315,252.064377 109.590233,296.829742 89.513145,346.579071 
	C78.720657,373.321930 70.184143,400.824066 65.289558,429.346161 
	C63.879341,437.563843 63.808636,437.561157 55.551914,436.195221 
	C52.925091,435.760651 50.303452,435.290344 47.688560,434.788818 
	C40.663189,433.441498 40.670403,433.432434 42.129356,426.501465 
	C42.403267,425.200195 42.616379,423.886139 42.942970,422.160339 
z"/>
<path fill="#000000" opacity="1.000000" stroke="none" 
	d="
M857.831726,209.177139 
	C883.544861,239.369720 905.034180,271.891785 922.622986,307.899506 
	C916.125366,311.146210 910.127075,314.302277 903.982117,317.140839 
	C901.277710,318.390106 900.675049,315.712372 899.817322,314.031677 
	C889.277466,293.379150 877.509583,273.471863 863.967529,254.630875 
	C823.217041,197.935013 772.151489,153.027893 710.425842,120.319839 
	C700.421936,115.018852 690.408569,109.702713 679.861816,105.538315 
	C676.041687,104.029945 675.114929,102.103928 677.064331,98.342224 
	C679.049011,94.512337 680.656982,90.459229 682.108643,86.389320 
	C683.439636,82.657852 685.319580,82.148300 688.894043,83.743843 
	C726.807190,100.667404 762.198669,121.719757 794.564880,147.782898 
	C817.458435,166.218109 838.601868,186.455643 857.831726,209.177139 
z"/>
<path fill="#000000" opacity="1.000000" stroke="none" 
	d="
M163.096619,800.914856 
	C179.518845,820.057556 196.876434,837.772583 216.154709,853.515320 
	C219.561081,856.296936 219.916428,858.347412 216.844589,861.505676 
	C214.068680,864.359558 211.457306,867.462830 209.281570,870.788513 
	C206.554092,874.957642 204.207565,874.207092 200.940323,871.403992 
	C186.258148,858.807373 172.139816,845.622375 159.036560,831.392944 
	C129.298370,799.099121 104.399971,763.408691 84.369003,724.332397 
	C81.095688,717.946838 81.075096,717.981506 87.475838,714.937988 
	C90.784233,713.364868 94.186729,711.928406 97.305130,710.032776 
	C100.971001,707.804443 102.683388,708.895691 104.514938,712.529480 
	C117.368233,738.030640 132.391037,762.191101 150.003006,784.700989 
	C154.210648,790.078796 158.582733,795.327881 163.096619,800.914856 
z"/>
<path fill="#000000" opacity="1.000000" stroke="none" 
	d="
M824.730225,818.737061 
	C836.160889,806.596130 846.927429,794.347534 856.493958,781.111694 
	C859.091492,777.517883 861.266785,776.712402 864.870361,779.830322 
	C869.110107,783.498718 873.759033,786.694153 878.518433,790.313599 
	C871.975220,800.076843 864.815308,808.578308 857.637756,817.047668 
	C843.847046,833.320312 828.871582,848.447510 812.996582,862.690979 
	C808.080566,867.101807 807.837891,867.145447 803.595764,862.322693 
	C800.958679,859.324646 798.518433,856.139099 795.729126,853.293274 
	C793.150574,850.662415 793.275635,848.722229 796.083557,846.327942 
	C806.095398,837.791016 815.336548,828.437805 824.730225,818.737061 
z"/>
<path fill="#000000" opacity="1.000000" stroke="none" 
	d="
M978.837402,554.488403 
	C976.983826,558.735901 974.294434,561.877930 971.256775,564.777710 
	C959.449585,576.048950 947.720764,587.402832 935.847412,598.603699 
	C927.470764,606.505920 922.125977,606.416321 913.915344,598.617920 
	C901.717773,587.032715 889.314514,575.654724 877.379700,563.804932 
	C864.969666,551.483154 865.972534,532.128601 879.106567,521.413940 
	C888.627869,513.646545 903.169739,512.351746 913.844482,518.496826 
	C916.421265,519.980164 918.991333,521.710327 921.027710,523.840149 
	C923.879089,526.822205 925.853271,526.651794 928.781067,523.779419 
	C936.684509,516.025696 946.375916,512.914673 957.214844,515.298035 
	C975.955627,519.418945 984.923523,535.734802 978.837402,554.488403 
M907.922058,560.559753 
	C912.593750,565.061890 917.261902,569.567688 921.939331,574.063843 
	C923.258423,575.331848 924.534851,576.939148 926.532349,575.052795 
	C936.447144,565.690063 946.459351,556.426697 956.204346,546.890320 
	C958.935303,544.217773 957.727234,540.260193 954.157776,538.798523 
	C951.006042,537.507812 947.974060,537.822571 945.359375,540.271484 
	C941.354248,544.022583 937.343872,547.768250 933.312073,551.490601 
	C930.067871,554.485718 926.354614,556.014038 921.899231,554.805054 
	C918.889648,553.988403 916.756836,551.808472 914.546936,549.796143 
	C910.857910,546.436829 907.411682,542.773254 903.486267,539.722900 
	C900.314453,537.258118 896.487244,537.044189 893.576660,540.301636 
	C890.579346,543.656189 892.756470,546.431641 895.351135,548.862793 
	C899.356018,552.615234 903.389893,556.336792 907.922058,560.559753 
z"/>
<path fill="#000000" opacity="1.000000" stroke="none" 
	d="
M493.707214,645.812988 
	C508.688202,644.112427 519.629700,634.177368 522.793457,619.787292 
	C524.344788,612.731140 524.344727,612.729309 531.724854,612.727234 
	C535.554810,612.726135 539.384827,612.750671 543.214600,612.730042 
	C545.935303,612.715332 546.919800,613.754639 546.735107,616.704407 
	C545.002625,644.372559 522.349487,667.731567 495.625031,669.220764 
	C465.626740,670.892395 440.481079,651.452148 435.556915,622.781738 
	C433.833344,612.746399 433.833344,612.746338 443.904114,612.730286 
	C444.570190,612.729187 445.236664,612.713806 445.902283,612.730652 
	C449.389374,612.819031 453.238007,612.017395 456.271088,613.238525 
	C460.002594,614.740845 458.191132,619.439026 459.241669,622.629395 
	C463.256470,634.821777 475.518250,647.292419 493.707214,645.812988 
z"/>
<path fill="#000000" opacity="1.000000" stroke="none" 
	d="
M546.104980,547.154419 
	C540.852722,547.648560 537.610413,550.237122 536.450256,554.928955 
	C535.773804,557.664612 534.175781,558.276917 531.758545,558.252502 
	C526.932007,558.203796 522.098816,558.092468 517.279480,558.285339 
	C513.375671,558.441650 512.224182,556.652222 512.841492,553.114807 
	C515.252563,539.299377 522.778198,529.535339 536.235229,525.250244 
	C549.473633,521.034851 561.206970,524.392334 570.994141,534.198853 
	C575.958130,539.172668 578.766846,545.307495 580.020142,552.220764 
	C580.771240,556.363708 579.787842,558.659485 575.025024,558.292847 
	C571.881409,558.050781 568.691650,558.079590 565.543884,558.296570 
	C560.762573,558.626160 556.982727,558.300171 555.372009,552.419189 
	C554.351074,548.691467 550.474792,547.233826 546.104980,547.154419 
z"/>
<path fill="#000000" opacity="1.000000" stroke="none" 
	d="
M468.641602,551.661987 
	C469.955780,556.681030 468.187042,558.642212 463.446594,558.289551 
	C460.801208,558.092834 458.124939,558.159302 455.470062,558.276489 
	C450.419220,558.499512 445.819397,558.908875 443.933563,552.162537 
	C442.862701,548.331604 438.670624,546.916260 434.463104,547.138611 
	C430.181458,547.364746 426.880096,549.499207 425.734344,553.425659 
	C424.454926,557.809875 421.818970,558.535828 417.934937,558.295105 
	C414.291412,558.069336 410.622437,558.281982 406.965424,558.238525 
	C401.549683,558.174194 401.044403,557.552673 401.709625,552.033020 
	C403.418365,537.854126 417.441956,524.664001 431.788361,523.741760 
	C450.039062,522.568542 463.835663,532.895935 468.641602,551.661987 
z"/>
</svg>