<svg version="1.1" id="Layer_1" xmlns="http://www.w3.org/2000/svg" xmlns:xlink="http://www.w3.org/1999/xlink" x="0px" y="0px"
	 width="100%" viewBox="0 0 1080 1080" enable-background="new 0 0 1080 1080" xml:space="preserve">
<path fill="#010100" opacity="1.000000" stroke="none" 
	d="
M590.000000,1081.000000 
	C587.629944,1081.000000 585.259888,1081.000000 582.244873,1080.710449 
	C571.896484,1076.833862 568.012451,1071.279175 568.006592,1060.791382 
	C567.988464,1028.298218 568.001648,995.805054 567.999268,963.311890 
	C567.997986,945.789490 565.538025,928.455505 557.440674,912.979797 
	C548.688782,896.253113 538.418274,880.235962 527.817078,864.581909 
	C512.073792,841.334839 500.282135,816.483704 497.675262,788.438904 
	C495.785126,768.104431 496.462128,747.531067 496.005676,727.063965 
	C495.962555,725.129700 495.999878,723.193604 495.999878,721.000061 
	C493.462433,721.000061 491.488556,721.000061 489.514679,721.000061 
	C337.046722,721.000061 184.578796,721.003296 32.110859,720.974915 
	C29.302773,720.974365 26.389437,721.008972 23.705788,720.321838 
	C14.445579,717.951050 10.001567,711.135437 10.001458,699.862976 
	C9.999294,474.743652 10.047496,249.624268 9.859303,24.505091 
	C9.849879,13.233404 13.120176,5.134308 24.000000,1.000000 
	C266.356659,1.000000 508.713287,1.000000 751.733765,1.290428 
	C762.100952,5.161913 765.986633,10.716375 765.994019,21.203789 
	C766.013916,49.360668 766.000854,77.517570 766.000854,105.674461 
	C766.000854,107.461929 766.000854,109.249397 766.000854,111.399994 
	C790.851196,105.585899 812.785767,110.736031 831.612000,127.171982 
	C850.590637,143.741150 857.408936,165.483429 855.915588,190.769318 
	C858.275146,189.592651 859.716003,188.839691 861.185242,188.146774 
	C875.968628,181.174561 891.366333,179.003616 907.349976,182.765778 
	C941.640503,190.836914 963.956726,218.995743 963.985901,254.218765 
	C964.038696,318.029907 964.000854,381.841095 964.000854,445.652283 
	C964.000854,447.371674 964.000854,449.091095 964.000854,451.591248 
	C978.282166,440.854797 993.445068,434.580719 1010.190002,433.457977 
	C1023.957825,432.534851 1037.825195,433.040558 1051.648560,433.015076 
	C1064.793823,432.990845 1071.993042,440.224335 1071.994507,453.394226 
	C1072.005737,555.858643 1072.093262,658.323242 1071.937134,760.787415 
	C1071.896851,787.197021 1065.026489,812.020874 1052.756470,835.409729 
	C1043.375488,853.291565 1030.200195,868.372620 1017.015320,883.322449 
	C992.757629,910.827087 980.934204,942.422485 981.871521,979.180786 
	C982.538147,1005.321411 981.674011,1031.498657 982.153503,1057.647461 
	C982.360107,1068.916016 978.737305,1076.856689 968.000000,1081.000000 
	C965.629944,1081.000000 963.259888,1081.000000 960.244568,1080.710693 
	C949.896179,1076.835815 946.012329,1071.280273 946.005798,1060.791260 
	C945.987000,1030.793579 945.899963,1000.795532 946.027344,970.798401 
	C946.152405,941.376404 952.965210,913.448303 968.967102,888.765198 
	C979.875183,871.939392 993.013062,856.504211 1005.736084,840.922607 
	C1024.837769,817.529358 1035.787598,791.036072 1035.885010,760.840759 
	C1036.193970,665.015808 1036.000366,569.189270 1035.989014,473.363312 
	C1035.988892,471.940552 1035.833984,470.517792 1035.745972,469.000793 
	C1030.297729,469.000793 1025.304810,468.998627 1020.311829,469.001160 
	C987.426453,469.017975 964.011658,492.411774 964.002808,525.278870 
	C963.993469,559.609558 964.008972,593.940186 963.996704,628.270874 
	C963.991821,641.852905 957.098816,648.790344 943.465576,649.000854 
	C896.863281,649.720703 854.214172,682.509155 842.258972,727.579041 
	C839.643188,737.440247 838.405090,747.899475 838.187134,758.118591 
	C837.628540,784.314453 833.623352,792.861938 820.122803,792.992554 
	C806.518677,793.124207 801.999146,784.365906 801.999329,757.872375 
	C801.999329,757.539062 801.999268,757.205750 801.999268,756.872437 
	C802.007385,693.424011 844.350830,636.766113 905.197266,618.992310 
	C912.627014,616.821960 920.260437,615.348633 927.905457,613.527039 
	C927.936768,612.853577 927.993958,612.195984 927.994019,611.538391 
	C927.998291,492.047607 928.013428,372.556824 927.927002,253.066071 
	C927.924377,249.463913 927.284790,245.730377 926.216125,242.283173 
	C921.061035,225.653610 904.238037,214.841354 887.635864,217.223999 
	C869.537292,219.821381 856.065186,234.805481 856.031677,252.829102 
	C855.941833,301.158539 856.039856,349.488342 855.926636,397.817688 
	C855.917603,401.680939 856.938538,404.649109 859.218018,407.796967 
	C894.066650,455.920074 902.075867,508.381592 880.683777,563.704529 
	C845.263062,655.307617 738.034363,694.391174 652.221375,646.888428 
	C564.297913,598.217590 541.291199,486.577332 601.726746,406.261383 
	C603.000061,404.569244 603.867859,402.127106 603.900452,400.019073 
	C604.098450,387.189789 604.058411,374.355591 603.985535,361.523682 
	C603.870056,341.189728 587.954712,325.043427 568.084412,325.001373 
	C548.089478,324.959076 532.014221,341.319244 532.011169,361.871338 
	C531.991089,497.027588 531.992188,632.183838 532.011414,767.340088 
	C532.013855,784.699036 534.564514,801.878662 542.604553,817.188843 
	C551.460510,834.052673 561.778992,850.247070 572.557251,865.981689 
	C593.414917,896.430725 604.370239,929.648499 604.053650,966.649536 
	C603.794128,996.978333 603.704529,1027.315430 604.154480,1057.639771 
	C604.321655,1068.907471 600.742432,1076.855713 590.000000,1081.000000 
M505.992310,324.528381 
	C514.333984,310.425354 526.118530,300.192963 541.305054,294.197632 
	C562.679260,285.759613 583.566833,287.612762 603.999695,298.920227 
	C603.999695,283.701385 603.985046,269.209900 604.002625,254.718475 
	C604.043152,221.338852 622.892212,195.111465 654.527832,184.652802 
	C657.738037,183.591522 658.887512,182.210266 657.622192,179.358719 
	C620.340210,169.616425 597.157471,146.291855 587.571716,109.168396 
	C454.523651,109.168396 321.412384,109.168396 188.410370,109.168396 
	C178.764862,146.509766 155.355804,169.833969 118.231117,179.413971 
	C118.231117,228.598663 118.231117,277.701111 118.231117,326.829315 
	C135.939926,330.738678 151.129547,338.889496 163.790680,351.599030 
	C176.410004,364.266602 184.349701,379.542358 188.203995,396.665527 
	C291.048462,396.665527 393.441528,396.665527 495.999695,396.665527 
	C495.999695,384.846039 496.000275,373.360046 495.999542,361.874084 
	C495.998688,348.795380 499.058014,336.521698 505.992310,324.528381 
M46.751450,468.919830 
	C47.083641,468.943878 47.415833,468.988983 47.748024,468.988983 
	C196.063202,468.994293 344.378357,468.997375 492.693542,468.982056 
	C493.781311,468.981934 494.869110,468.728729 495.784027,468.615173 
	C495.784027,456.633026 495.784027,445.016998 495.784027,433.000854 
	C493.619080,433.000854 491.662323,433.000854 489.705597,433.000854 
	C385.051727,433.000854 280.397888,433.001373 175.744019,433.000275 
	C161.130600,433.000122 154.661972,426.917633 153.925003,412.496796 
	C152.502472,384.661041 130.221939,362.418854 102.406807,361.067261 
	C88.267036,360.380157 82.001297,353.815582 82.000481,339.659210 
	C81.997154,281.999603 81.998016,224.339996 81.999855,166.680389 
	C82.000320,152.096893 88.095291,145.654465 102.571091,144.920303 
	C130.155579,143.521332 152.397568,121.376587 153.899521,93.816345 
	C154.709198,78.958977 161.014587,72.999573 175.934189,72.999481 
	C289.420288,72.998787 402.906403,72.999100 516.392517,72.999107 
	C544.889038,72.999107 573.385559,72.979568 601.882080,73.008156 
	C614.349121,73.020668 621.492126,79.858101 622.005371,92.135345 
	C623.241577,121.710327 645.426453,143.748474 675.219788,144.997849 
	C686.878601,145.486755 693.898010,152.742493 693.991638,164.473358 
	C694.042053,170.785858 694.000671,177.099121 694.000671,183.076324 
	C700.187866,185.629318 705.945374,188.005020 711.999146,190.502960 
	C711.999146,188.913345 712.042175,187.597336 711.992737,186.284821 
	C711.282532,167.423538 716.419739,150.499756 728.367371,135.694595 
	C729.554321,134.223679 729.925781,131.740646 729.932739,129.724777 
	C730.030640,101.561890 729.999146,73.398567 729.999146,45.235348 
	C729.999146,42.613628 729.999146,39.991909 729.999146,37.212879 
	C501.839386,37.212879 274.125183,37.212879 46.000904,37.212879 
	C46.000904,39.207134 46.000896,40.996403 46.000896,42.785671 
	C46.000904,161.604462 45.996883,280.423248 46.004387,399.242035 
	C46.005836,422.238373 46.052338,445.234711 46.751450,468.919830 
M112.500000,505.001190 
	C90.409103,505.001190 68.318199,505.001190 46.318642,505.001190 
	C46.318642,517.339722 46.318642,529.073303 46.318642,540.697632 
	C196.346710,540.697632 346.057190,540.697632 495.681458,540.697632 
	C495.681458,528.660400 495.681458,516.926819 495.681458,505.001190 
	C368.076111,505.001190 240.788055,505.001190 112.500000,505.001190 
M476.499573,612.998840 
	C482.930328,612.998840 489.361115,612.998840 495.677887,612.998840 
	C495.677887,600.653076 495.677887,588.919434 495.677887,577.305908 
	C345.646271,577.305908 195.935730,577.305908 46.322132,577.305908 
	C46.322132,589.346863 46.322132,601.080505 46.322132,612.998840 
	C189.595230,612.998840 332.547516,612.998840 476.499573,612.998840 
M94.500000,649.001160 
	C78.407425,649.001160 62.314842,649.001160 46.320095,649.001160 
	C46.320095,661.342651 46.320095,673.076294 46.320095,684.696228 
	C196.349609,684.696228 346.060059,684.696228 495.679993,684.696228 
	C495.679993,672.657410 495.679993,660.923889 495.679993,649.001160 
	C362.074188,649.001160 228.787094,649.001160 94.500000,649.001160 
M715.326660,379.911530 
	C685.985657,383.416565 660.724731,395.635437 640.219604,416.754730 
	C578.132446,480.701599 598.589355,584.640015 680.184875,620.713867 
	C694.213806,626.916138 708.978394,630.180603 724.453796,630.566223 
	C714.588623,626.239136 711.346375,618.434082 711.950317,608.306519 
	C712.246521,603.341003 712.001648,598.343201 712.001648,593.225830 
	C700.269592,590.740417 689.372375,586.822021 679.834534,579.841675 
	C666.671387,570.208130 658.185913,557.781799 658.065308,540.909546 
	C657.995728,531.180054 665.804810,523.385376 675.319885,523.033142 
	C684.676208,522.686768 692.933594,529.585022 693.760376,539.088745 
	C694.193420,544.067017 696.496704,547.512268 700.172791,550.371765 
	C715.055420,561.948547 745.280029,561.857483 759.993958,550.219849 
	C767.754700,544.081665 767.832092,538.028381 760.152283,531.896545 
	C758.733337,530.763550 757.134094,529.827881 755.534119,528.955078 
	C747.598328,524.626221 738.999451,523.098328 730.061218,522.992554 
	C712.213501,522.781433 695.411560,518.851013 680.563293,508.501953 
	C667.965027,499.721191 659.308777,488.108704 658.278870,472.420227 
	C656.838867,450.485321 668.689941,435.919403 686.796692,425.969666 
	C694.538696,421.715454 703.231812,419.192230 712.001648,415.678528 
	C712.001648,411.506775 712.242188,406.505890 711.951233,401.536163 
	C711.357666,391.399017 714.703003,383.653351 724.396729,379.038666 
	C721.664001,379.308105 718.931274,379.577545 715.326660,379.911530 
M789.921875,510.603455 
	C810.632019,534.649597 803.606628,565.091797 777.899597,581.125183 
	C768.899719,586.738403 758.509766,590.122864 747.998352,594.866272 
	C747.998352,598.288879 747.747070,603.124695 748.050232,607.925537 
	C748.698730,618.194092 745.567383,626.226013 735.562012,630.722168 
	C781.964233,627.267090 818.023254,606.314087 840.202148,565.379089 
	C864.409241,520.700623 861.882996,475.749634 833.483276,433.635651 
	C810.395264,399.398468 776.902161,381.980377 735.780762,379.412811 
	C744.751892,383.612823 748.482605,390.656067 748.042786,400.376801 
	C747.795715,405.838562 747.998352,411.320679 747.998352,416.808350 
	C759.903931,419.238525 770.782288,423.251801 780.316895,430.268768 
	C793.455078,439.937653 801.897949,452.406342 801.931274,469.288696 
	C801.950012,478.792572 794.275391,486.464722 784.955261,486.944031 
	C775.587646,487.425781 767.107788,480.634155 766.275391,471.196014 
	C765.781799,465.599579 763.101929,461.923187 758.831665,458.937286 
	C743.608521,448.292664 716.128601,448.335541 701.030212,459.012451 
	C691.828369,465.519623 691.892273,472.624573 701.231628,479.093323 
	C702.321350,479.848145 703.475769,480.520691 704.644592,481.148651 
	C712.608337,485.427368 721.209534,486.856689 730.147217,487.022583 
	C752.720581,487.441620 773.140930,493.496307 789.921875,510.603455 
M818.869019,171.984009 
	C812.635254,153.337509 796.276917,142.400742 778.999207,145.328079 
	C760.017761,148.544098 748.001953,163.313919 748.001160,183.442780 
	C747.999084,235.074615 748.000488,286.706451 748.000488,338.338287 
	C748.000488,340.150330 748.000488,341.962372 748.000488,344.072510 
	C774.031738,347.086548 797.755005,355.876465 819.999329,370.305206 
	C819.999329,368.523438 819.999329,367.558746 819.999329,366.594055 
	C819.999390,304.968964 820.013245,243.343842 819.957336,181.718796 
	C819.954590,178.748611 819.337280,175.778976 818.869019,171.984009 
M640.000122,360.415955 
	C640.000122,363.490204 640.000122,366.564453 640.000122,370.346558 
	C662.347351,355.789581 685.993713,347.109314 711.753967,344.104706 
	C711.848267,343.083893 711.988953,342.270203 711.989258,341.456421 
	C712.000427,311.790100 712.055054,282.123535 711.921387,252.457809 
	C711.905945,249.021988 711.222351,245.469086 710.187744,242.178207 
	C704.964294,225.564224 688.088867,214.778778 671.525391,217.237335 
	C653.394104,219.928574 640.073914,234.870850 640.027283,252.942719 
	C639.935608,288.442078 640.000183,323.941803 640.000122,360.415955 
z"/>
<path fill="#FFCFB0" opacity="1.000000" stroke="none" 
	d="
M590.468628,1081.000000 
	C600.742432,1076.855713 604.321655,1068.907471 604.154480,1057.639771 
	C603.704529,1027.315430 603.794128,996.978333 604.053650,966.649536 
	C604.370239,929.648499 593.414917,896.430725 572.557251,865.981689 
	C561.778992,850.247070 551.460510,834.052673 542.604553,817.188843 
	C534.564514,801.878662 532.013855,784.699036 532.011414,767.340088 
	C531.992188,632.183838 531.991089,497.027588 532.011169,361.871338 
	C532.014221,341.319244 548.089478,324.959076 568.084412,325.001373 
	C587.954712,325.043427 603.870056,341.189728 603.985535,361.523682 
	C604.058411,374.355591 604.098450,387.189789 603.900452,400.019073 
	C603.867859,402.127106 603.000061,404.569244 601.726746,406.261383 
	C541.291199,486.577332 564.297913,598.217590 652.221375,646.888428 
	C738.034363,694.391174 845.263062,655.307617 880.683777,563.704529 
	C902.075867,508.381592 894.066650,455.920074 859.218018,407.796967 
	C856.938538,404.649109 855.917603,401.680939 855.926636,397.817688 
	C856.039856,349.488342 855.941833,301.158539 856.031677,252.829102 
	C856.065186,234.805481 869.537292,219.821381 887.635864,217.223999 
	C904.238037,214.841354 921.061035,225.653610 926.216125,242.283173 
	C927.284790,245.730377 927.924377,249.463913 927.927002,253.066071 
	C928.013428,372.556824 927.998291,492.047607 927.994019,611.538391 
	C927.993958,612.195984 927.936768,612.853577 927.905457,613.527039 
	C920.260437,615.348633 912.627014,616.821960 905.197266,618.992310 
	C844.350830,636.766113 802.007385,693.424011 801.999268,756.872437 
	C801.999268,757.205750 801.999329,757.539062 801.999329,757.872375 
	C801.999146,784.365906 806.518677,793.124207 820.122803,792.992554 
	C833.623352,792.861938 837.628540,784.314453 838.187134,758.118591 
	C838.405090,747.899475 839.643188,737.440247 842.258972,727.579041 
	C854.214172,682.509155 896.863281,649.720703 943.465576,649.000854 
	C957.098816,648.790344 963.991821,641.852905 963.996704,628.270874 
	C964.008972,593.940186 963.993469,559.609558 964.002808,525.278870 
	C964.011658,492.411774 987.426453,469.017975 1020.311829,469.001160 
	C1025.304810,468.998627 1030.297729,469.000793 1035.745972,469.000793 
	C1035.833984,470.517792 1035.988892,471.940552 1035.989014,473.363312 
	C1036.000366,569.189270 1036.193970,665.015808 1035.885010,760.840759 
	C1035.787598,791.036072 1024.837769,817.529358 1005.736084,840.922607 
	C993.013062,856.504211 979.875183,871.939392 968.967102,888.765198 
	C952.965210,913.448303 946.152405,941.376404 946.027344,970.798401 
	C945.899963,1000.795532 945.987000,1030.793579 946.005798,1060.791260 
	C946.012329,1071.280273 949.896179,1076.835815 959.799683,1080.710693 
	C836.979126,1081.000000 713.958191,1081.000000 590.468628,1081.000000 
z"/>
<path fill="#FFCFB0" opacity="1.000000" stroke="none" 
	d="
M968.468628,1081.000000 
	C978.737305,1076.856689 982.360107,1068.916016 982.153503,1057.647461 
	C981.674011,1031.498657 982.538147,1005.321411 981.871521,979.180786 
	C980.934204,942.422485 992.757629,910.827087 1017.015320,883.322449 
	C1030.200195,868.372620 1043.375488,853.291565 1052.756470,835.409729 
	C1065.026489,812.020874 1071.896851,787.197021 1071.937134,760.787415 
	C1072.093262,658.323242 1072.005737,555.858643 1071.994507,453.394226 
	C1071.993042,440.224335 1064.793823,432.990845 1051.648560,433.015076 
	C1037.825195,433.040558 1023.957825,432.534851 1010.190002,433.457977 
	C993.445068,434.580719 978.282166,440.854797 964.000854,451.591248 
	C964.000854,449.091095 964.000854,447.371674 964.000854,445.652283 
	C964.000854,381.841095 964.038696,318.029907 963.985901,254.218765 
	C963.956726,218.995743 941.640503,190.836914 907.349976,182.765778 
	C891.366333,179.003616 875.968628,181.174561 861.185242,188.146774 
	C859.716003,188.839691 858.275146,189.592651 855.915588,190.769318 
	C857.408936,165.483429 850.590637,143.741150 831.612000,127.171982 
	C812.785767,110.736031 790.851196,105.585899 766.000854,111.399994 
	C766.000854,109.249397 766.000854,107.461929 766.000854,105.674461 
	C766.000854,77.517570 766.013916,49.360668 765.994019,21.203789 
	C765.986633,10.716375 762.100952,5.161913 752.198792,1.290428 
	C861.635132,1.000000 971.270264,1.000000 1080.952637,1.000000 
	C1080.952637,361.000000 1080.952637,721.000000 1080.952637,1081.000000 
	C1043.582520,1081.000000 1006.259949,1081.000000 968.468628,1081.000000 
z"/>
<path fill="#020101" opacity="1.000000" stroke="none" 
	d="
M331.000000,1081.000000 
	C321.312439,1081.000000 311.624878,1081.000000 301.323730,1080.627441 
	C298.751526,1079.932739 296.748566,1079.775391 294.841553,1079.261719 
	C282.032135,1075.811768 269.510254,1078.192627 257.000000,1081.000000 
	C247.979111,1081.000000 238.958206,1081.000000 229.323730,1080.627441 
	C226.751556,1079.932739 224.748642,1079.775269 222.841583,1079.261719 
	C210.032150,1075.812134 197.510239,1078.191895 185.000000,1081.000000 
	C175.312439,1081.000000 165.624878,1081.000000 155.324982,1080.621826 
	C133.225372,1077.518921 112.726936,1071.535767 93.842186,1060.818848 
	C16.172813,1016.741821 -11.859366,923.982910 28.298487,844.352539 
	C58.638691,784.189941 127.550720,748.686646 194.222137,758.682861 
	C200.856888,759.677612 207.866791,760.824707 214.341278,759.741516 
	C234.618805,756.349060 254.705597,756.233765 274.889465,759.996643 
	C277.907104,760.559265 281.200134,760.796936 284.180603,760.223206 
	C306.884644,755.852234 329.475311,755.971680 352.058563,761.053040 
	C432.482147,779.148804 487.214417,857.133240 476.816742,938.888062 
	C468.166229,1006.904907 418.013306,1062.072144 351.148804,1077.040405 
	C344.471680,1078.535156 337.718079,1079.688232 331.000000,1081.000000 
M114.177025,850.670593 
	C125.195099,839.587097 139.056061,834.024109 153.999847,830.691345 
	C153.999847,825.423279 154.257523,820.581787 153.946747,815.777039 
	C153.279312,805.458252 156.716446,797.608704 167.559158,793.214783 
	C100.050667,795.481812 42.063358,852.778748 46.267010,926.153625 
	C50.452267,999.207581 112.607819,1044.347290 166.689240,1044.375732 
	C157.073837,1040.357300 153.442413,1033.094360 153.951279,1023.223267 
	C154.224503,1017.923340 153.999847,1012.597778 153.999847,1007.184387 
	C142.180984,1004.781860 131.302811,1000.783691 121.766457,993.796326 
	C108.613068,984.158936 100.149887,971.708923 100.063469,954.833252 
	C100.014671,945.305603 107.568893,937.632812 116.891998,937.068787 
	C126.468475,936.489380 134.924545,943.419495 135.769363,953.152588 
	C136.202072,958.137756 138.548920,961.562012 142.226730,964.408020 
	C157.002426,975.841736 186.709625,975.858093 201.639053,964.473328 
	C209.908768,958.167053 209.947906,951.817749 201.703552,945.554382 
	C200.387558,944.554565 198.931625,943.719238 197.475906,942.926208 
	C189.692017,938.685669 181.258667,937.095520 172.496490,937.010132 
	C156.245850,936.851685 140.817459,933.573669 126.687737,925.200317 
	C97.032974,907.626892 91.294273,875.014648 114.177025,850.670593 
M274.565033,845.962402 
	C249.501144,810.613831 209.439194,793.555176 177.505035,793.504211 
	C187.794067,799.384521 189.998703,803.193298 190.000015,815.092957 
	C190.000595,820.350403 190.000122,825.607910 190.000122,830.815247 
	C202.114136,833.293457 212.966064,837.350647 222.483505,844.390442 
	C235.445038,853.977661 243.777832,866.320984 243.940399,882.980957 
	C244.035660,892.743103 236.298233,900.567627 226.775620,900.961426 
	C217.401443,901.349121 209.061768,894.505859 208.251038,885.028564 
	C207.770950,879.416382 204.964966,875.810669 200.686920,872.854187 
	C185.490280,862.352356 158.547379,862.350464 143.331039,872.840759 
	C133.775894,879.428162 133.780212,886.595947 143.362488,893.167542 
	C144.455627,893.917236 145.607895,894.591736 146.777985,895.216431 
	C154.593781,899.388733 163.028488,900.905640 171.791519,901.001038 
	C189.638916,901.195312 206.461166,905.082153 221.317902,915.399536 
	C251.569672,936.408203 251.779724,973.680420 221.201645,994.188293 
	C212.011398,1000.351990 201.070007,1003.904602 190.041153,1009.070068 
	C188.338974,1020.580383 195.560410,1036.900391 177.440704,1044.805298 
	C225.857147,1040.897095 262.740265,1018.641174 284.384705,975.227661 
	C306.383118,931.104248 302.257233,887.680420 274.565033,845.962402 
M394.726837,1017.235291 
	C440.659210,980.210754 454.880554,917.903015 429.595978,864.463623 
	C415.214874,834.068909 371.647675,797.106079 354.414459,800.678894 
	C421.348236,862.989197 424.998535,971.558105 354.633362,1038.078613 
	C369.355011,1034.349854 382.246552,1026.972778 394.726837,1017.235291 
M333.075470,935.457581 
	C328.804077,975.790955 311.353546,1009.595276 282.491425,1038.016235 
	C301.877594,1032.925781 318.311188,1022.699402 332.296906,1008.726624 
	C358.069397,982.977905 371.007690,951.631714 369.865845,915.187195 
	C368.725067,878.776672 353.994965,848.310608 326.688141,824.117188 
	C313.842499,812.736206 299.265594,804.404541 282.680725,799.916443 
	C324.047699,840.003418 337.697174,891.681152 333.075470,935.457581 
z"/>
<path fill="#FECFB0" opacity="1.000000" stroke="none" 
	d="
M331.468658,1081.000000 
	C337.718079,1079.688232 344.471680,1078.535156 351.148804,1077.040405 
	C418.013306,1062.072144 468.166229,1006.904907 476.816742,938.888062 
	C487.214417,857.133240 432.482147,779.148804 352.058563,761.053040 
	C329.475311,755.971680 306.884644,755.852234 284.180603,760.223206 
	C281.200134,760.796936 277.907104,760.559265 274.889465,759.996643 
	C254.705597,756.233765 234.618805,756.349060 214.341278,759.741516 
	C207.866791,760.824707 200.856888,759.677612 194.222137,758.682861 
	C127.550720,748.686646 58.638691,784.189941 28.298487,844.352539 
	C-11.859366,923.982910 16.172813,1016.741821 93.842186,1060.818848 
	C112.726936,1071.535767 133.225372,1077.518921 154.856323,1080.621826 
	C103.684540,1081.000000 52.369083,1081.000000 1.035067,1081.000000 
	C1.035067,721.000000 1.035067,361.000000 1.035067,1.000000 
	C8.400931,1.000000 15.731730,1.000000 23.531263,1.000000 
	C13.120176,5.134308 9.849879,13.233404 9.859303,24.505091 
	C10.047496,249.624268 9.999294,474.743652 10.001458,699.862976 
	C10.001567,711.135437 14.445579,717.951050 23.705788,720.321838 
	C26.389437,721.008972 29.302773,720.974365 32.110859,720.974915 
	C184.578796,721.003296 337.046722,721.000061 489.514679,721.000061 
	C491.488556,721.000061 493.462433,721.000061 495.999878,721.000061 
	C495.999878,723.193604 495.962555,725.129700 496.005676,727.063965 
	C496.462128,747.531067 495.785126,768.104431 497.675262,788.438904 
	C500.282135,816.483704 512.073792,841.334839 527.817078,864.581909 
	C538.418274,880.235962 548.688782,896.253113 557.440674,912.979797 
	C565.538025,928.455505 567.997986,945.789490 567.999268,963.311890 
	C568.001648,995.805054 567.988464,1028.298218 568.006592,1060.791382 
	C568.012451,1071.279175 571.896484,1076.833862 581.799927,1080.710449 
	C498.645782,1081.000000 415.291534,1081.000000 331.468658,1081.000000 
z"/>
<path fill="#F0C3A5" opacity="1.000000" stroke="none" 
	d="
M185.468658,1081.000000 
	C197.510239,1078.191895 210.032150,1075.812134 222.841583,1079.261719 
	C224.748642,1079.775269 226.751556,1079.932739 228.855072,1080.627441 
	C214.645767,1081.000000 200.291550,1081.000000 185.468658,1081.000000 
z"/>
<path fill="#F0C3A5" opacity="1.000000" stroke="none" 
	d="
M257.468658,1081.000000 
	C269.510254,1078.192627 282.032135,1075.811768 294.841553,1079.261719 
	C296.748566,1079.775391 298.751526,1079.932739 300.855042,1080.627441 
	C286.645782,1081.000000 272.291534,1081.000000 257.468658,1081.000000 
z"/>
<path fill="#FFCFB0" opacity="1.000000" stroke="none" 
	d="
M505.821045,324.852600 
	C499.058014,336.521698 495.998688,348.795380 495.999542,361.874084 
	C496.000275,373.360046 495.999695,384.846039 495.999695,396.665527 
	C393.441528,396.665527 291.048462,396.665527 188.203995,396.665527 
	C184.349701,379.542358 176.410004,364.266602 163.790680,351.599030 
	C151.129547,338.889496 135.939926,330.738678 118.231117,326.829315 
	C118.231117,277.701111 118.231117,228.598663 118.231117,179.413971 
	C155.355804,169.833969 178.764862,146.509766 188.410370,109.168396 
	C321.412384,109.168396 454.523651,109.168396 587.571716,109.168396 
	C597.157471,146.291855 620.340210,169.616425 657.622192,179.358719 
	C658.887512,182.210266 657.738037,183.591522 654.527832,184.652802 
	C622.892212,195.111465 604.043152,221.338852 604.002625,254.718475 
	C603.985046,269.209900 603.999695,283.701385 603.999695,298.920227 
	C583.566833,287.612762 562.679260,285.759613 541.305054,294.197632 
	C526.118530,300.192963 514.333984,310.425354 505.821045,324.852600 
M454.494537,309.906738 
	C464.626984,289.806824 459.872742,267.631195 442.488678,253.338242 
	C426.575592,240.254715 407.989532,235.276886 387.807739,234.999634 
	C377.469940,234.857620 367.604248,232.903931 358.958618,226.903091 
	C349.895508,220.612534 349.942780,213.517334 358.891327,207.099930 
	C373.954590,196.297394 402.200409,196.096756 416.988220,207.262375 
	C420.126495,209.631943 423.063843,213.809387 423.758026,217.583511 
	C425.801331,228.692886 433.418945,235.874390 443.758118,234.886551 
	C453.798553,233.927292 460.700439,225.474365 459.852295,214.510101 
	C458.376038,195.425842 447.342499,182.641068 431.283173,173.995270 
	C423.490814,169.800156 414.834442,167.209824 406.002319,163.665482 
	C406.002319,158.420547 406.058167,152.269821 405.990082,146.120499 
	C405.866913,134.993866 398.198273,126.937584 387.881592,127.005890 
	C377.585083,127.074066 370.108521,135.125961 370.007507,146.331177 
	C369.952118,152.476120 369.997589,158.621994 369.997589,163.647842 
	C361.010437,167.267288 352.337769,169.878128 344.529083,174.090530 
	C328.816589,182.566681 317.578766,195.086548 316.276703,213.724487 
	C314.830475,234.426941 325.708008,248.718002 342.551208,259.070129 
	C356.541382,267.668732 372.053894,270.826782 388.303223,271.012085 
	C398.458130,271.127899 408.157684,273.067719 416.712036,278.893127 
	C426.165405,285.330780 426.217041,292.319672 416.985413,298.943634 
	C401.949860,309.732056 373.584595,309.882629 358.902924,298.672791 
	C355.783234,296.290802 352.924561,292.078217 352.230682,288.290436 
	C350.249023,277.473389 342.764252,270.315765 332.600403,271.089783 
	C322.521423,271.857330 315.436890,280.264771 316.099335,291.111145 
	C317.075012,307.086548 325.419434,318.822113 337.987183,327.954926 
	C347.532623,334.891479 358.432648,338.716003 369.997528,341.282196 
	C369.997528,347.521210 369.959534,353.507263 370.005646,359.492615 
	C370.094208,370.986053 377.710449,379.116577 388.217926,378.994354 
	C398.516235,378.874573 405.904175,370.819672 405.993774,359.546661 
	C406.042450,353.424866 406.002441,347.302399 406.002441,341.307861 
	C425.993500,336.630707 443.299957,328.639862 454.494537,309.906738 
M207.874374,270.997711 
	C219.518082,270.999268 231.162186,271.060944 242.805389,270.985107 
	C253.947433,270.912537 261.993866,263.302765 261.994324,253.005508 
	C261.994781,242.710922 253.947174,235.093643 242.812988,235.014923 
	C231.668823,234.936111 220.523422,234.948273 209.379059,235.011612 
	C198.541611,235.073196 190.713135,241.934769 190.074387,251.792236 
	C189.427948,261.768219 196.142120,269.378876 207.874374,270.997711 
M526.773804,235.899231 
	C517.720642,239.443527 512.925781,246.909485 514.169556,255.525269 
	C515.366882,263.819031 522.278259,270.621490 530.734741,270.840118 
	C543.537964,271.171112 556.362549,271.184387 569.165344,270.848053 
	C578.231018,270.609924 585.397156,263.057678 585.934814,254.121735 
	C586.484802,244.983719 580.013367,235.842789 570.897583,235.423538 
	C556.488647,234.760864 542.015015,235.505219 526.773804,235.899231 
z"/>
<path fill="#FFCFB0" opacity="1.000000" stroke="none" 
	d="
M46.414753,468.575439 
	C46.052338,445.234711 46.005836,422.238373 46.004387,399.242035 
	C45.996883,280.423248 46.000904,161.604462 46.000896,42.785671 
	C46.000896,40.996403 46.000904,39.207134 46.000904,37.212879 
	C274.125183,37.212879 501.839386,37.212879 729.999146,37.212879 
	C729.999146,39.991909 729.999146,42.613628 729.999146,45.235348 
	C729.999146,73.398567 730.030640,101.561890 729.932739,129.724777 
	C729.925781,131.740646 729.554321,134.223679 728.367371,135.694595 
	C716.419739,150.499756 711.282532,167.423538 711.992737,186.284821 
	C712.042175,187.597336 711.999146,188.913345 711.999146,190.502960 
	C705.945374,188.005020 700.187866,185.629318 694.000671,183.076324 
	C694.000671,177.099121 694.042053,170.785858 693.991638,164.473358 
	C693.898010,152.742493 686.878601,145.486755 675.219788,144.997849 
	C645.426453,143.748474 623.241577,121.710327 622.005371,92.135345 
	C621.492126,79.858101 614.349121,73.020668 601.882080,73.008156 
	C573.385559,72.979568 544.889038,72.999107 516.392517,72.999107 
	C402.906403,72.999100 289.420288,72.998787 175.934189,72.999481 
	C161.014587,72.999573 154.709198,78.958977 153.899521,93.816345 
	C152.397568,121.376587 130.155579,143.521332 102.571091,144.920303 
	C88.095291,145.654465 82.000320,152.096893 81.999855,166.680389 
	C81.998016,224.339996 81.997154,281.999603 82.000481,339.659210 
	C82.001297,353.815582 88.267036,360.380157 102.406807,361.067261 
	C130.221939,362.418854 152.502472,384.661041 153.925003,412.496796 
	C154.661972,426.917633 161.130600,433.000122 175.744019,433.000275 
	C280.397888,433.001373 385.051727,433.000854 489.705597,433.000854 
	C491.662323,433.000854 493.619080,433.000854 495.784027,433.000854 
	C495.784027,445.016998 495.784027,456.633026 495.784027,468.615173 
	C494.869110,468.728729 493.781311,468.981934 492.693542,468.982056 
	C344.378357,468.997375 196.063202,468.994293 47.748024,468.988983 
	C47.415833,468.988983 47.083641,468.943878 46.414753,468.575439 
z"/>
<path fill="#FFCFB0" opacity="1.000000" stroke="none" 
	d="
M113.000000,505.001190 
	C240.788055,505.001190 368.076111,505.001190 495.681458,505.001190 
	C495.681458,516.926819 495.681458,528.660400 495.681458,540.697632 
	C346.057190,540.697632 196.346710,540.697632 46.318642,540.697632 
	C46.318642,529.073303 46.318642,517.339722 46.318642,505.001190 
	C68.318199,505.001190 90.409103,505.001190 113.000000,505.001190 
z"/>
<path fill="#FFCFB0" opacity="1.000000" stroke="none" 
	d="
M475.999695,612.998840 
	C332.547516,612.998840 189.595230,612.998840 46.322132,612.998840 
	C46.322132,601.080505 46.322132,589.346863 46.322132,577.305908 
	C195.935730,577.305908 345.646271,577.305908 495.677887,577.305908 
	C495.677887,588.919434 495.677887,600.653076 495.677887,612.998840 
	C489.361115,612.998840 482.930328,612.998840 475.999695,612.998840 
z"/>
<path fill="#FFCFB0" opacity="1.000000" stroke="none" 
	d="
M95.000000,649.001160 
	C228.787094,649.001160 362.074188,649.001160 495.679993,649.001160 
	C495.679993,660.923889 495.679993,672.657410 495.679993,684.696228 
	C346.060059,684.696228 196.349609,684.696228 46.320095,684.696228 
	C46.320095,673.076294 46.320095,661.342651 46.320095,649.001160 
	C62.314842,649.001160 78.407425,649.001160 95.000000,649.001160 
z"/>
<path fill="#FDCEAF" opacity="1.000000" stroke="none" 
	d="
M715.762573,379.879272 
	C718.931274,379.577545 721.664001,379.308105 724.396729,379.038666 
	C714.703003,383.653351 711.357666,391.399017 711.951233,401.536163 
	C712.242188,406.505890 712.001648,411.506775 712.001648,415.678528 
	C703.231812,419.192230 694.538696,421.715454 686.796692,425.969666 
	C668.689941,435.919403 656.838867,450.485321 658.278870,472.420227 
	C659.308777,488.108704 667.965027,499.721191 680.563293,508.501953 
	C695.411560,518.851013 712.213501,522.781433 730.061218,522.992554 
	C738.999451,523.098328 747.598328,524.626221 755.534119,528.955078 
	C757.134094,529.827881 758.733337,530.763550 760.152283,531.896545 
	C767.832092,538.028381 767.754700,544.081665 759.993958,550.219849 
	C745.280029,561.857483 715.055420,561.948547 700.172791,550.371765 
	C696.496704,547.512268 694.193420,544.067017 693.760376,539.088745 
	C692.933594,529.585022 684.676208,522.686768 675.319885,523.033142 
	C665.804810,523.385376 657.995728,531.180054 658.065308,540.909546 
	C658.185913,557.781799 666.671387,570.208130 679.834534,579.841675 
	C689.372375,586.822021 700.269592,590.740417 712.001648,593.225830 
	C712.001648,598.343201 712.246521,603.341003 711.950317,608.306519 
	C711.346375,618.434082 714.588623,626.239136 724.453796,630.566223 
	C708.978394,630.180603 694.213806,626.916138 680.184875,620.713867 
	C598.589355,584.640015 578.132446,480.701599 640.219604,416.754730 
	C660.724731,395.635437 685.985657,383.416565 715.762573,379.879272 
z"/>
<path fill="#FDCEAF" opacity="1.000000" stroke="none" 
	d="
M789.688599,510.335876 
	C773.140930,493.496307 752.720581,487.441620 730.147217,487.022583 
	C721.209534,486.856689 712.608337,485.427368 704.644592,481.148651 
	C703.475769,480.520691 702.321350,479.848145 701.231628,479.093323 
	C691.892273,472.624573 691.828369,465.519623 701.030212,459.012451 
	C716.128601,448.335541 743.608521,448.292664 758.831665,458.937286 
	C763.101929,461.923187 765.781799,465.599579 766.275391,471.196014 
	C767.107788,480.634155 775.587646,487.425781 784.955261,486.944031 
	C794.275391,486.464722 801.950012,478.792572 801.931274,469.288696 
	C801.897949,452.406342 793.455078,439.937653 780.316895,430.268768 
	C770.782288,423.251801 759.903931,419.238525 747.998352,416.808350 
	C747.998352,411.320679 747.795715,405.838562 748.042786,400.376801 
	C748.482605,390.656067 744.751892,383.612823 735.780762,379.412811 
	C776.902161,381.980377 810.395264,399.398468 833.483276,433.635651 
	C861.882996,475.749634 864.409241,520.700623 840.202148,565.379089 
	C818.023254,606.314087 781.964233,627.267090 735.562012,630.722168 
	C745.567383,626.226013 748.698730,618.194092 748.050232,607.925537 
	C747.747070,603.124695 747.998352,598.288879 747.998352,594.866272 
	C758.509766,590.122864 768.899719,586.738403 777.899597,581.125183 
	C803.606628,565.091797 810.632019,534.649597 789.688599,510.335876 
z"/>
<path fill="#FFCFB0" opacity="1.000000" stroke="none" 
	d="
M818.937622,172.396545 
	C819.337280,175.778976 819.954590,178.748611 819.957336,181.718796 
	C820.013245,243.343842 819.999390,304.968964 819.999329,366.594055 
	C819.999329,367.558746 819.999329,368.523438 819.999329,370.305206 
	C797.755005,355.876465 774.031738,347.086548 748.000488,344.072510 
	C748.000488,341.962372 748.000488,340.150330 748.000488,338.338287 
	C748.000488,286.706451 747.999084,235.074615 748.001160,183.442780 
	C748.001953,163.313919 760.017761,148.544098 778.999207,145.328079 
	C796.276917,142.400742 812.635254,153.337509 818.937622,172.396545 
z"/>
<path fill="#FECFB0" opacity="1.000000" stroke="none" 
	d="
M640.000122,359.928680 
	C640.000183,323.941803 639.935608,288.442078 640.027283,252.942719 
	C640.073914,234.870850 653.394104,219.928574 671.525391,217.237335 
	C688.088867,214.778778 704.964294,225.564224 710.187744,242.178207 
	C711.222351,245.469086 711.905945,249.021988 711.921387,252.457809 
	C712.055054,282.123535 712.000427,311.790100 711.989258,341.456421 
	C711.988953,342.270203 711.848267,343.083893 711.753967,344.104706 
	C685.993713,347.109314 662.347351,355.789581 640.000122,370.346558 
	C640.000122,366.564453 640.000122,363.490204 640.000122,359.928680 
z"/>
<path fill="#FDCEAF" opacity="1.000000" stroke="none" 
	d="
M113.924667,850.922974 
	C91.294273,875.014648 97.032974,907.626892 126.687737,925.200317 
	C140.817459,933.573669 156.245850,936.851685 172.496490,937.010132 
	C181.258667,937.095520 189.692017,938.685669 197.475906,942.926208 
	C198.931625,943.719238 200.387558,944.554565 201.703552,945.554382 
	C209.947906,951.817749 209.908768,958.167053 201.639053,964.473328 
	C186.709625,975.858093 157.002426,975.841736 142.226730,964.408020 
	C138.548920,961.562012 136.202072,958.137756 135.769363,953.152588 
	C134.924545,943.419495 126.468475,936.489380 116.891998,937.068787 
	C107.568893,937.632812 100.014671,945.305603 100.063469,954.833252 
	C100.149887,971.708923 108.613068,984.158936 121.766457,993.796326 
	C131.302811,1000.783691 142.180984,1004.781860 153.999847,1007.184387 
	C153.999847,1012.597778 154.224503,1017.923340 153.951279,1023.223267 
	C153.442413,1033.094360 157.073837,1040.357300 166.689240,1044.375732 
	C112.607819,1044.347290 50.452267,999.207581 46.267010,926.153625 
	C42.063358,852.778748 100.050667,795.481812 167.559158,793.214783 
	C156.716446,797.608704 153.279312,805.458252 153.946747,815.777039 
	C154.257523,820.581787 153.999847,825.423279 153.999847,830.691345 
	C139.056061,834.024109 125.195099,839.587097 113.924667,850.922974 
z"/>
<path fill="#FDCEAF" opacity="1.000000" stroke="none" 
	d="
M274.773682,846.255371 
	C302.257233,887.680420 306.383118,931.104248 284.384705,975.227661 
	C262.740265,1018.641174 225.857147,1040.897095 177.440704,1044.805298 
	C195.560410,1036.900391 188.338974,1020.580383 190.041153,1009.070068 
	C201.070007,1003.904602 212.011398,1000.351990 221.201645,994.188293 
	C251.779724,973.680420 251.569672,936.408203 221.317902,915.399536 
	C206.461166,905.082153 189.638916,901.195312 171.791519,901.001038 
	C163.028488,900.905640 154.593781,899.388733 146.777985,895.216431 
	C145.607895,894.591736 144.455627,893.917236 143.362488,893.167542 
	C133.780212,886.595947 133.775894,879.428162 143.331039,872.840759 
	C158.547379,862.350464 185.490280,862.352356 200.686920,872.854187 
	C204.964966,875.810669 207.770950,879.416382 208.251038,885.028564 
	C209.061768,894.505859 217.401443,901.349121 226.775620,900.961426 
	C236.298233,900.567627 244.035660,892.743103 243.940399,882.980957 
	C243.777832,866.320984 235.445038,853.977661 222.483505,844.390442 
	C212.966064,837.350647 202.114136,833.293457 190.000122,830.815247 
	C190.000122,825.607910 190.000595,820.350403 190.000015,815.092957 
	C189.998703,803.193298 187.794067,799.384521 177.505035,793.504211 
	C209.439194,793.555176 249.501144,810.613831 274.773682,846.255371 
z"/>
<path fill="#FDCDAF" opacity="1.000000" stroke="none" 
	d="
M394.457428,1017.468445 
	C382.246552,1026.972778 369.355011,1034.349854 354.633362,1038.078613 
	C424.998535,971.558105 421.348236,862.989197 354.414459,800.678894 
	C371.647675,797.106079 415.214874,834.068909 429.595978,864.463623 
	C454.880554,917.903015 440.659210,980.210754 394.457428,1017.468445 
z"/>
<path fill="#FDCDAF" opacity="1.000000" stroke="none" 
	d="
M333.113892,935.002441 
	C337.697174,891.681152 324.047699,840.003418 282.680725,799.916443 
	C299.265594,804.404541 313.842499,812.736206 326.688141,824.117188 
	C353.994965,848.310608 368.725067,878.776672 369.865845,915.187195 
	C371.007690,951.631714 358.069397,982.977905 332.296906,1008.726624 
	C318.311188,1022.699402 301.877594,1032.925781 282.491425,1038.016235 
	C311.353546,1009.595276 328.804077,975.790955 333.113892,935.002441 
z"/>
<path fill="#020101" opacity="1.000000" stroke="none" 
	d="
M454.289551,310.215759 
	C443.299957,328.639862 425.993500,336.630707 406.002441,341.307861 
	C406.002441,347.302399 406.042450,353.424866 405.993774,359.546661 
	C405.904175,370.819672 398.516235,378.874573 388.217926,378.994354 
	C377.710449,379.116577 370.094208,370.986053 370.005646,359.492615 
	C369.959534,353.507263 369.997528,347.521210 369.997528,341.282196 
	C358.432648,338.716003 347.532623,334.891479 337.987183,327.954926 
	C325.419434,318.822113 317.075012,307.086548 316.099335,291.111145 
	C315.436890,280.264771 322.521423,271.857330 332.600403,271.089783 
	C342.764252,270.315765 350.249023,277.473389 352.230682,288.290436 
	C352.924561,292.078217 355.783234,296.290802 358.902924,298.672791 
	C373.584595,309.882629 401.949860,309.732056 416.985413,298.943634 
	C426.217041,292.319672 426.165405,285.330780 416.712036,278.893127 
	C408.157684,273.067719 398.458130,271.127899 388.303223,271.012085 
	C372.053894,270.826782 356.541382,267.668732 342.551208,259.070129 
	C325.708008,248.718002 314.830475,234.426941 316.276703,213.724487 
	C317.578766,195.086548 328.816589,182.566681 344.529083,174.090530 
	C352.337769,169.878128 361.010437,167.267288 369.997589,163.647842 
	C369.997589,158.621994 369.952118,152.476120 370.007507,146.331177 
	C370.108521,135.125961 377.585083,127.074066 387.881592,127.005890 
	C398.198273,126.937584 405.866913,134.993866 405.990082,146.120499 
	C406.058167,152.269821 406.002319,158.420547 406.002319,163.665482 
	C414.834442,167.209824 423.490814,169.800156 431.283173,173.995270 
	C447.342499,182.641068 458.376038,195.425842 459.852295,214.510101 
	C460.700439,225.474365 453.798553,233.927292 443.758118,234.886551 
	C433.418945,235.874390 425.801331,228.692886 423.758026,217.583511 
	C423.063843,213.809387 420.126495,209.631943 416.988220,207.262375 
	C402.200409,196.096756 373.954590,196.297394 358.891327,207.099930 
	C349.942780,213.517334 349.895508,220.612534 358.958618,226.903091 
	C367.604248,232.903931 377.469940,234.857620 387.807739,234.999634 
	C407.989532,235.276886 426.575592,240.254715 442.488678,253.338242 
	C459.872742,267.631195 464.626984,289.806824 454.289551,310.215759 
z"/>
<path fill="#020101" opacity="1.000000" stroke="none" 
	d="
M207.422974,270.971619 
	C196.142120,269.378876 189.427948,261.768219 190.074387,251.792236 
	C190.713135,241.934769 198.541611,235.073196 209.379059,235.011612 
	C220.523422,234.948273 231.668823,234.936111 242.812988,235.014923 
	C253.947174,235.093643 261.994781,242.710922 261.994324,253.005508 
	C261.993866,263.302765 253.947433,270.912537 242.805389,270.985107 
	C231.162186,271.060944 219.518082,270.999268 207.422974,270.971619 
z"/>
<path fill="#020101" opacity="1.000000" stroke="none" 
	d="
M527.171265,235.776672 
	C542.015015,235.505219 556.488647,234.760864 570.897583,235.423538 
	C580.013367,235.842789 586.484802,244.983719 585.934814,254.121735 
	C585.397156,263.057678 578.231018,270.609924 569.165344,270.848053 
	C556.362549,271.184387 543.537964,271.171112 530.734741,270.840118 
	C522.278259,270.621490 515.366882,263.819031 514.169556,255.525269 
	C512.925781,246.909485 517.720642,239.443527 527.171265,235.776672 
z"/>
</svg>