<svg version="1.1" id="Layer_1" xmlns="http://www.w3.org/2000/svg" xmlns:xlink="http://www.w3.org/1999/xlink" x="0px" y="0px"
	 width="100%" viewBox="0 0 1080 1080" enable-background="new 0 0 1080 1080" xml:space="preserve">
<path fill="#000000" opacity="1.000000" stroke="none" 
	d="
M289.000000,1.000000 
	C456.691559,1.000000 624.383118,1.000000 792.537109,1.468657 
	C792.999512,23.599285 793.004517,45.261253 792.998413,66.923225 
	C792.984375,117.079491 800.435608,166.051193 816.877747,213.493073 
	C855.440125,324.760132 926.512573,408.743042 1029.369263,465.930908 
	C1031.341797,467.027618 1033.307373,468.137054 1035.056763,469.117523 
	C1034.939575,469.943909 1034.947144,470.120972 1034.888428,470.272186 
	C995.887817,570.564758 956.860291,670.846924 917.974731,771.184082 
	C916.663513,774.567444 914.867249,775.056152 911.731506,775.055359 
	C664.604736,774.994446 417.477966,774.989990 170.351242,775.087036 
	C166.531860,775.088562 165.087601,773.834900 163.727570,770.322571 
	C132.722580,690.251709 101.545891,610.247314 70.410744,530.226807 
	C62.535748,509.987305 54.692993,489.735199 46.750931,469.271149 
	C48.414452,468.310089 49.812233,467.454437 51.252453,466.677460 
	C92.432289,444.462372 129.349426,416.635468 161.893982,382.983856 
	C200.965729,342.583038 231.392883,296.505585 253.342636,244.779419 
	C275.089355,193.531631 286.835907,140.022781 288.679810,84.474724 
	C289.602539,56.676903 288.943573,28.826578 289.000000,1.000000 
M468.998932,360.500000 
	C468.998932,402.465851 468.998932,444.431732 468.998932,486.999725 
	C540.890869,457.044708 612.354553,427.268158 684.994080,397.001678 
	C612.361755,366.738007 540.903137,336.963409 468.998932,307.003143 
	C468.998932,324.898254 468.998932,342.199127 468.998932,360.500000 
M505.077942,162.233673 
	C506.646606,162.489029 508.214355,162.959045 509.784119,162.965988 
	C523.109131,163.025024 536.434570,162.999741 549.759888,162.999756 
	C558.707703,162.999756 567.655579,162.999756 576.781494,162.999756 
	C576.781494,138.845047 576.781494,115.121155 576.781494,91.221565 
	C552.838989,91.221565 529.115051,91.221565 505.007507,91.221565 
	C505.007507,114.717125 505.007507,137.993530 505.077942,162.233673 
M667.000183,149.491608 
	C667.000183,153.922272 667.000183,158.352951 667.000183,162.699951 
	C691.323242,162.699951 715.045959,162.699951 738.699707,162.699951 
	C738.699707,138.676270 738.699707,114.953590 738.699707,91.300545 
	C714.675781,91.300545 690.953064,91.300545 667.000183,91.300545 
	C667.000183,110.564919 667.000183,129.529938 667.000183,149.491608 
M181.000244,656.500000 
	C181.000244,665.925171 181.000244,675.350403 181.000244,684.701172 
	C205.321213,684.701172 229.043671,684.701172 252.701218,684.701172 
	C252.701218,660.678833 252.701218,636.956360 252.701218,613.298706 
	C228.679031,613.298706 204.956589,613.298706 181.000244,613.298706 
	C181.000244,627.563965 181.000244,641.531982 181.000244,656.500000 
M383.500000,684.999817 
	C393.924316,684.999817 404.348633,684.999817 414.701935,684.999817 
	C414.701935,660.680298 414.701935,636.957825 414.701935,613.297974 
	C390.680450,613.297974 366.957977,613.297974 343.297943,613.297974 
	C343.297943,637.319458 343.297943,661.041931 343.297943,684.999817 
	C356.562866,684.999817 369.531433,684.999817 383.500000,684.999817 
M564.489136,684.999817 
	C568.588135,684.999817 572.687134,684.999817 576.700684,684.999817 
	C576.700684,660.678040 576.700684,636.955444 576.700684,613.299438 
	C552.677734,613.299438 528.955078,613.299438 505.299683,613.299438 
	C505.299683,637.322571 505.299683,661.045227 505.299683,684.999817 
	C524.895996,684.999817 544.193787,684.999817 564.489136,684.999817 
M693.500000,613.000183 
	C684.740845,613.000183 675.981628,613.000183 667.299316,613.000183 
	C667.299316,637.322266 667.299316,661.044739 667.299316,684.700745 
	C691.322144,684.700745 715.044617,684.700745 738.700806,684.700745 
	C738.700806,660.677979 738.700806,636.955505 738.700806,613.000183 
	C723.768677,613.000183 709.134338,613.000183 693.500000,613.000183 
M829.000183,673.481812 
	C829.000183,677.249451 829.000183,681.017029 829.000183,684.702637 
	C853.317566,684.702637 877.040405,684.702637 900.702087,684.702637 
	C900.702087,660.681335 900.702087,636.958496 900.702087,613.298401 
	C876.680359,613.298401 852.957520,613.298401 829.000183,613.298401 
	C829.000183,633.226562 829.000183,652.857422 829.000183,673.481812 
M372.500000,162.999756 
	C386.588104,162.999756 400.676239,162.999756 414.704712,162.999756 
	C414.704712,138.685989 414.704712,114.963577 414.704712,91.295212 
	C390.686096,91.295212 366.963684,91.295212 343.295135,91.295212 
	C343.295135,115.313744 343.295135,139.036148 343.295135,162.999756 
	C352.892242,162.999756 362.196136,162.999756 372.500000,162.999756 
z"/>
<path fill="#FFCFB0" opacity="1.000000" stroke="none" 
	d="
M288.531342,1.000000 
	C288.943573,28.826578 289.602539,56.676903 288.679810,84.474724 
	C286.835907,140.022781 275.089355,193.531631 253.342636,244.779419 
	C231.392883,296.505585 200.965729,342.583038 161.893982,382.983856 
	C129.349426,416.635468 92.432289,444.462372 51.252453,466.677460 
	C49.812233,467.454437 48.414452,468.310089 46.750931,469.271149 
	C54.692993,489.735199 62.535748,509.987305 70.410744,530.226807 
	C101.545891,610.247314 132.722580,690.251709 163.727570,770.322571 
	C165.087601,773.834900 166.531860,775.088562 170.351242,775.087036 
	C417.477966,774.989990 664.604736,774.994446 911.731506,775.055359 
	C914.867249,775.056152 916.663513,774.567444 917.974731,771.184082 
	C956.860291,670.846924 995.887817,570.564758 1034.888428,470.272186 
	C1034.947144,470.120972 1034.939575,469.943909 1035.056763,469.117523 
	C1033.307373,468.137054 1031.341797,467.027618 1029.369263,465.930908 
	C926.512573,408.743042 855.440125,324.760132 816.877747,213.493073 
	C800.435608,166.051193 792.984375,117.079491 792.998413,66.923225 
	C793.004517,45.261253 792.999512,23.599285 792.999756,1.468657 
	C804.687561,1.000000 816.375122,1.000000 828.531555,1.468657 
	C829.000427,23.598423 829.019226,45.259548 828.995667,66.920631 
	C828.965332,94.797272 831.474792,122.432091 837.006042,149.762344 
	C854.022400,233.841629 893.218872,306.035950 954.209778,366.201324 
	C990.079346,401.585388 1031.365112,429.293060 1077.647095,449.400726 
	C1078.660278,449.840912 1079.877808,449.810760 1081.000000,450.000000 
	C1081.000000,451.388885 1081.000000,452.777802 1080.730225,454.237701 
	C1079.665894,455.702179 1078.679688,457.021088 1078.104004,458.499725 
	C1042.495361,549.954712 1006.917175,641.421570 971.345032,732.890747 
	C965.941589,746.785095 960.579590,760.695557 955.043030,775.000000 
	C997.396667,775.000000 1039.198364,775.000000 1081.000000,775.000000 
	C1081.000000,876.875916 1081.000000,978.751892 1081.000000,1081.000000 
	C1063.314209,1081.000000 1045.625732,1081.000000 1027.468506,1080.531372 
	C1026.689697,1064.753906 1027.483276,1049.325806 1025.842651,1034.160889 
	C1022.300232,1001.418091 992.179504,973.645447 959.327881,973.330444 
	C897.003662,972.732849 834.665283,972.647583 772.342102,973.272278 
	C737.944702,973.617004 709.631897,999.489441 703.982483,1033.464600 
	C703.812500,1034.486938 703.335876,1035.458252 702.826294,1036.978149 
	C702.405334,1036.064819 702.220825,1035.828491 702.189636,1035.573486 
	C698.000732,1001.285095 668.878418,973.685791 634.271423,973.315491 
	C572.447937,972.654114 510.608215,972.624329 448.784210,973.233704 
	C413.998810,973.576660 385.762543,999.224670 379.975372,1033.520630 
	C379.803833,1034.537231 379.309052,1035.499268 378.654236,1037.378662 
	C372.685333,999.718506 345.007965,973.616577 309.217773,973.236206 
	C247.726715,972.582581 186.217484,972.530518 124.727913,973.251221 
	C86.404472,973.700378 56.310818,1004.650757 55.102699,1043.003662 
	C54.704094,1055.657593 55.014034,1068.333862 55.000000,1081.000000 
	C37.021896,1081.000000 19.043793,1081.000000 1.000000,1081.000000 
	C1.000000,979.312439 1.000000,877.624878 1.468657,775.468628 
	C43.415146,775.000000 84.892975,775.000000 126.852951,775.000000 
	C126.015556,772.695801 125.332710,770.695679 124.567078,768.727783 
	C94.766975,692.130005 64.951546,615.538086 35.156765,538.938232 
	C24.683096,512.011292 14.275795,485.058472 3.751354,458.151398 
	C3.273304,456.929230 1.936703,456.042816 0.999992,455.000000 
	C1.000000,453.611115 1.000000,452.222198 1.252385,450.765381 
	C50.336887,429.627594 93.560692,400.337280 131.189346,362.709290 
	C166.639969,327.259338 194.704544,286.727509 215.541519,241.182434 
	C238.378204,191.266373 250.786514,138.771545 252.674713,83.978760 
	C253.626877,56.348251 252.943710,28.661385 253.000000,1.000000 
	C264.687561,1.000000 276.375122,1.000000 288.531342,1.000000 
M155.353317,899.886414 
	C148.637085,911.232788 145.081635,923.424805 145.076492,936.766907 
	C193.228943,936.766907 240.948608,936.766907 288.655823,936.766907 
	C290.215668,907.428711 268.304626,877.565796 238.607330,868.304138 
	C207.055069,858.463989 173.149231,871.151917 155.353317,899.886414 
M485.501923,937.000916 
	C527.936707,937.000916 570.371460,937.000916 612.796021,937.000916 
	C613.338135,895.406128 577.463562,862.007568 535.264893,865.301941 
	C491.140320,868.746704 467.487183,907.910767 469.595520,937.000916 
	C474.550568,937.000916 479.527008,937.000916 485.501923,937.000916 
M825.500000,937.000916 
	C862.601868,937.000916 899.703796,937.000916 936.794922,937.000916 
	C937.348022,895.415833 901.467102,862.009766 859.266602,865.301880 
	C815.162598,868.742615 791.492676,907.880859 793.593872,937.000916 
	C803.882019,937.000916 814.190979,937.000916 825.500000,937.000916 
z"/>
<path fill="#000000" opacity="1.000000" stroke="none" 
	d="
M55.468658,1081.000000 
	C55.014034,1068.333862 54.704094,1055.657593 55.102699,1043.003662 
	C56.310818,1004.650757 86.404472,973.700378 124.727913,973.251221 
	C186.217484,972.530518 247.726715,972.582581 309.217773,973.236206 
	C345.007965,973.616577 372.685333,999.718506 378.654236,1037.378662 
	C379.309052,1035.499268 379.803833,1034.537231 379.975372,1033.520630 
	C385.762543,999.224670 413.998810,973.576660 448.784210,973.233704 
	C510.608215,972.624329 572.447937,972.654114 634.271423,973.315491 
	C668.878418,973.685791 698.000732,1001.285095 702.189636,1035.573486 
	C702.220825,1035.828491 702.405334,1036.064819 702.826294,1036.978149 
	C703.335876,1035.458252 703.812500,1034.486938 703.982483,1033.464600 
	C709.631897,999.489441 737.944702,973.617004 772.342102,973.272278 
	C834.665283,972.647583 897.003662,972.732849 959.327881,973.330444 
	C992.179504,973.645447 1022.300232,1001.418091 1025.842651,1034.160889 
	C1027.483276,1049.325806 1026.689697,1064.753906 1026.999878,1080.531372 
	C703.312439,1081.000000 379.624878,1081.000000 55.468658,1081.000000 
z"/>
<path fill="#000000" opacity="1.000000" stroke="none" 
	d="
M1081.000000,449.531342 
	C1079.877808,449.810760 1078.660278,449.840912 1077.647095,449.400726 
	C1031.365112,429.293060 990.079346,401.585388 954.209778,366.201324 
	C893.218872,306.035950 854.022400,233.841629 837.006042,149.762344 
	C831.474792,122.432091 828.965332,94.797272 828.995667,66.920631 
	C829.019226,45.259548 829.000427,23.598423 829.000244,1.468657 
	C912.947571,1.000000 996.895081,1.000000 1081.000000,1.000000 
	C1081.000000,150.354187 1081.000000,299.708435 1081.000000,449.531342 
z"/>
<path fill="#000000" opacity="1.000000" stroke="none" 
	d="
M252.531342,1.000000 
	C252.943710,28.661385 253.626877,56.348251 252.674713,83.978760 
	C250.786514,138.771545 238.378204,191.266373 215.541519,241.182434 
	C194.704544,286.727509 166.639969,327.259338 131.189346,362.709290 
	C93.560692,400.337280 50.336887,429.627594 1.252385,450.348694 
	C1.000000,300.426788 1.000000,150.853561 1.000000,1.000000 
	C84.687355,1.000000 168.375015,1.000000 252.531342,1.000000 
z"/>
<path fill="#010000" opacity="1.000000" stroke="none" 
	d="
M0.999992,455.468658 
	C1.936703,456.042816 3.273304,456.929230 3.751354,458.151398 
	C14.275795,485.058472 24.683096,512.011292 35.156765,538.938232 
	C64.951546,615.538086 94.766975,692.130005 124.567078,768.727783 
	C125.332710,770.695679 126.015556,772.695801 126.852951,775.000000 
	C84.892975,775.000000 43.415146,775.000000 1.468657,775.000000 
	C1.000000,668.645752 1.000000,562.291565 0.999992,455.468658 
z"/>
<path fill="#010000" opacity="1.000000" stroke="none" 
	d="
M1081.000000,774.531372 
	C1039.198364,775.000000 997.396667,775.000000 955.043030,775.000000 
	C960.579590,760.695557 965.941589,746.785095 971.345032,732.890747 
	C1006.917175,641.421570 1042.495361,549.954712 1078.104004,458.499725 
	C1078.679688,457.021088 1079.665894,455.702179 1080.730225,454.654358 
	C1081.000000,561.354248 1081.000000,667.708435 1081.000000,774.531372 
z"/>
<path fill="#FECEB0" opacity="1.000000" stroke="none" 
	d="
M468.998932,360.000000 
	C468.998932,342.199127 468.998932,324.898254 468.998932,307.003143 
	C540.903137,336.963409 612.361755,366.738007 684.994080,397.001678 
	C612.354553,427.268158 540.890869,457.044708 468.998932,486.999725 
	C468.998932,444.431732 468.998932,402.465851 468.998932,360.000000 
z"/>
<path fill="#FFCFB0" opacity="1.000000" stroke="none" 
	d="
M505.042725,161.751801 
	C505.007507,137.993530 505.007507,114.717125 505.007507,91.221565 
	C529.115051,91.221565 552.838989,91.221565 576.781494,91.221565 
	C576.781494,115.121155 576.781494,138.845047 576.781494,162.999756 
	C567.655579,162.999756 558.707703,162.999756 549.759888,162.999756 
	C536.434570,162.999741 523.109131,163.025024 509.784119,162.965988 
	C508.214355,162.959045 506.646606,162.489029 505.042725,161.751801 
z"/>
<path fill="#FFCFB0" opacity="1.000000" stroke="none" 
	d="
M667.000183,148.993286 
	C667.000183,129.529938 667.000183,110.564919 667.000183,91.300545 
	C690.953064,91.300545 714.675781,91.300545 738.699707,91.300545 
	C738.699707,114.953590 738.699707,138.676270 738.699707,162.699951 
	C715.045959,162.699951 691.323242,162.699951 667.000183,162.699951 
	C667.000183,158.352951 667.000183,153.922272 667.000183,148.993286 
z"/>
<path fill="#FFCFB0" opacity="1.000000" stroke="none" 
	d="
M181.000244,656.000000 
	C181.000244,641.531982 181.000244,627.563965 181.000244,613.298706 
	C204.956589,613.298706 228.679031,613.298706 252.701218,613.298706 
	C252.701218,636.956360 252.701218,660.678833 252.701218,684.701172 
	C229.043671,684.701172 205.321213,684.701172 181.000244,684.701172 
	C181.000244,675.350403 181.000244,665.925171 181.000244,656.000000 
z"/>
<path fill="#FFCFB0" opacity="1.000000" stroke="none" 
	d="
M383.000000,684.999817 
	C369.531433,684.999817 356.562866,684.999817 343.297943,684.999817 
	C343.297943,661.041931 343.297943,637.319458 343.297943,613.297974 
	C366.957977,613.297974 390.680450,613.297974 414.701935,613.297974 
	C414.701935,636.957825 414.701935,660.680298 414.701935,684.999817 
	C404.348633,684.999817 393.924316,684.999817 383.000000,684.999817 
z"/>
<path fill="#FFCFB0" opacity="1.000000" stroke="none" 
	d="
M563.990356,684.999817 
	C544.193787,684.999817 524.895996,684.999817 505.299683,684.999817 
	C505.299683,661.045227 505.299683,637.322571 505.299683,613.299438 
	C528.955078,613.299438 552.677734,613.299438 576.700684,613.299438 
	C576.700684,636.955444 576.700684,660.678040 576.700684,684.999817 
	C572.687134,684.999817 568.588135,684.999817 563.990356,684.999817 
z"/>
<path fill="#FFCFB0" opacity="1.000000" stroke="none" 
	d="
M694.000000,613.000183 
	C709.134338,613.000183 723.768677,613.000183 738.700806,613.000183 
	C738.700806,636.955505 738.700806,660.677979 738.700806,684.700745 
	C715.044617,684.700745 691.322144,684.700745 667.299316,684.700745 
	C667.299316,661.044739 667.299316,637.322266 667.299316,613.000183 
	C675.981628,613.000183 684.740845,613.000183 694.000000,613.000183 
z"/>
<path fill="#FFCFB0" opacity="1.000000" stroke="none" 
	d="
M829.000183,672.985046 
	C829.000183,652.857422 829.000183,633.226562 829.000183,613.298401 
	C852.957520,613.298401 876.680359,613.298401 900.702087,613.298401 
	C900.702087,636.958496 900.702087,660.681335 900.702087,684.702637 
	C877.040405,684.702637 853.317566,684.702637 829.000183,684.702637 
	C829.000183,681.017029 829.000183,677.249451 829.000183,672.985046 
z"/>
<path fill="#FFCFB0" opacity="1.000000" stroke="none" 
	d="
M372.000000,162.999756 
	C362.196136,162.999756 352.892242,162.999756 343.295135,162.999756 
	C343.295135,139.036148 343.295135,115.313744 343.295135,91.295212 
	C366.963684,91.295212 390.686096,91.295212 414.704712,91.295212 
	C414.704712,114.963577 414.704712,138.685989 414.704712,162.999756 
	C400.676239,162.999756 386.588104,162.999756 372.000000,162.999756 
z"/>
<path fill="#010101" opacity="1.000000" stroke="none" 
	d="
M155.569458,899.591614 
	C173.149231,871.151917 207.055069,858.463989 238.607330,868.304138 
	C268.304626,877.565796 290.215668,907.428711 288.655823,936.766907 
	C240.948608,936.766907 193.228943,936.766907 145.076492,936.766907 
	C145.081635,923.424805 148.637085,911.232788 155.569458,899.591614 
z"/>
<path fill="#010101" opacity="1.000000" stroke="none" 
	d="
M485.002686,937.000916 
	C479.527008,937.000916 474.550568,937.000916 469.595520,937.000916 
	C467.487183,907.910767 491.140320,868.746704 535.264893,865.301941 
	C577.463562,862.007568 613.338135,895.406128 612.796021,937.000916 
	C570.371460,937.000916 527.936707,937.000916 485.002686,937.000916 
z"/>
<path fill="#010101" opacity="1.000000" stroke="none" 
	d="
M825.000000,937.000916 
	C814.190979,937.000916 803.882019,937.000916 793.593872,937.000916 
	C791.492676,907.880859 815.162598,868.742615 859.266602,865.301880 
	C901.467102,862.009766 937.348022,895.415833 936.794922,937.000916 
	C899.703796,937.000916 862.601868,937.000916 825.000000,937.000916 
z"/>
</svg>