<svg version="1.1" id="Layer_1" xmlns="http://www.w3.org/2000/svg" xmlns:xlink="http://www.w3.org/1999/xlink" x="0px" y="0px"
	 width="100%" viewBox="0 0 1024 1024" enable-background="new 0 0 1024 1024" xml:space="preserve">
<path fill="#000000" opacity="1.000000" stroke="none" 
	d="
M205.468658,1025.000000 
	C206.196701,1015.433105 206.045975,1005.785156 207.360977,996.186646 
	C211.747116,964.171448 223.936478,935.297180 241.453064,908.465149 
	C266.653595,869.862793 299.997681,839.116943 335.925659,810.886963 
	C339.583252,808.013000 343.268372,805.174133 346.863007,802.379395 
	C346.813293,800.227417 345.129761,799.862305 343.925476,799.143188 
	C304.397034,775.541626 272.872009,743.787781 248.227570,705.065857 
	C246.358856,702.129761 244.669952,701.012024 240.790054,701.066956 
	C215.966278,701.418396 191.096359,702.082703 166.314957,700.986145 
	C132.372543,699.484375 103.280510,668.661133 102.903091,634.646606 
	C102.509293,599.156616 102.494331,563.655457 102.884956,528.165527 
	C103.275307,492.701263 132.416901,463.236298 167.979797,461.732147 
	C171.710083,461.574371 172.701202,460.100861 172.949036,456.617645 
	C177.368439,394.505676 196.199005,337.187500 231.536087,285.791840 
	C276.734985,220.052719 337.607666,175.144989 413.928680,151.597046 
	C450.660278,140.263947 488.380920,135.214417 526.783508,137.030624 
	C589.871582,140.014313 648.323303,158.231949 700.889587,193.456345 
	C777.101868,244.525742 825.406921,315.262970 846.827942,404.377228 
	C850.798706,420.896271 853.361328,437.686493 854.280029,454.676392 
	C854.529480,459.290863 855.633728,461.507751 861.164673,461.896423 
	C891.438354,464.023987 918.130737,489.519745 922.351196,519.462585 
	C923.028870,524.270203 923.308411,529.051880 923.305481,533.883789 
	C923.285889,566.045532 923.297913,598.207275 923.282837,630.369019 
	C923.265442,667.356567 897.671387,696.682068 861.021179,700.962646 
	C851.809387,702.038574 842.378540,701.274231 833.048279,701.292542 
	C818.383911,701.321289 803.661438,702.065063 789.079834,700.964783 
	C781.962708,700.427795 779.156006,703.000732 775.723022,708.287292 
	C751.111938,746.186340 719.648987,777.089722 680.518677,799.973083 
	C679.969604,800.294189 679.491638,800.736877 678.804504,801.255676 
	C679.967529,803.825623 682.376099,804.826416 684.267822,806.295532 
	C722.508301,835.993103 757.413757,868.906677 784.021912,909.801636 
	C801.293762,936.347290 813.622070,964.894653 818.552673,996.368896 
	C819.997192,1005.589661 820.257080,1014.915100 820.871338,1024.608643 
	C809.645752,1025.000000 798.291565,1025.000000 786.353516,1024.633057 
	C785.114746,1015.818848 784.601562,1007.357971 783.104187,998.998047 
	C777.172485,965.880920 761.874939,937.174744 741.522705,910.874756 
	C717.248535,879.506653 687.719116,853.684998 656.036072,830.154663 
	C655.120544,829.474731 654.250366,828.609497 652.523926,828.843445 
	C651.327942,830.252136 649.891541,831.851929 648.555359,833.531433 
	C608.737732,883.582397 568.920532,933.633728 529.127197,983.704102 
	C519.316650,996.048340 506.497467,995.930603 496.585358,983.441162 
	C456.610138,933.072266 416.555939,882.765869 376.684875,832.314697 
	C373.638062,828.459412 371.517609,828.593567 367.858826,831.245422 
	C342.311951,849.760803 317.875763,869.545410 296.744629,893.105042 
	C276.552795,915.617554 259.971954,940.353027 249.991409,969.207703 
	C243.725891,987.322021 241.226959,1006.026733 240.000000,1025.000000 
	C228.645767,1025.000000 217.291550,1025.000000 205.468658,1025.000000 
M452.815216,437.614349 
	C449.627625,432.294678 446.440033,426.975006 442.917938,421.097107 
	C441.713806,423.191589 440.950195,424.459991 440.242981,425.759094 
	C430.923065,442.878967 419.241302,458.137512 404.660675,471.139648 
	C376.392426,496.347565 343.414825,510.642548 305.728638,514.440125 
	C291.241821,515.899963 276.765015,515.102539 262.286804,515.201111 
	C257.628510,515.232910 255.906677,516.376160 255.927002,521.328308 
	C256.094574,562.156189 256.024719,602.985107 255.983963,643.813721 
	C255.980911,646.883057 256.632263,649.695190 257.884583,652.496399 
	C283.207855,709.141113 323.397339,751.518250 379.219452,778.835205 
	C410.761841,794.270813 444.165466,802.597290 479.241211,803.683472 
	C497.721832,804.255737 516.230530,803.883606 534.725769,804.029297 
	C559.900208,804.227539 584.571472,800.613159 608.505798,793.046082 
	C680.173157,770.387390 731.708923,724.752930 763.087341,656.391968 
	C765.633423,650.845276 766.826050,645.244812 766.797791,639.066223 
	C766.619324,600.071472 766.725342,561.075439 766.726624,522.079834 
	C766.726868,515.317688 766.702942,515.309875 759.770935,515.309448 
	C705.610352,515.306152 651.449768,515.256104 597.289307,515.340210 
	C583.728394,515.361206 570.391846,513.720520 557.241699,510.632324 
	C513.018127,500.247009 478.543549,475.782104 452.815216,437.614349 
M286.271942,369.694031 
	C267.492310,402.483704 258.819611,438.029633 257.347992,475.552948 
	C257.236176,478.403412 258.050598,479.993744 261.211884,479.898407 
	C277.178986,479.416779 293.212830,481.111237 309.117584,478.738800 
	C351.539642,472.410797 384.185699,450.820557 406.937592,414.670349 
	C420.430389,393.231812 427.163879,369.603638 427.141907,344.082581 
	C427.132263,332.870636 434.138489,326.517578 445.206512,326.633057 
	C455.657593,326.742126 462.059967,333.563354 462.365021,344.575500 
	C462.526245,350.395691 462.723358,356.262054 463.575317,362.008057 
	C468.172180,393.011017 481.318451,419.779755 504.041260,441.547333 
	C528.152405,464.644958 556.808350,478.838440 590.287476,479.475739 
	C645.598389,480.528534 700.942200,479.852203 756.272156,479.901001 
	C758.938599,479.903351 761.609070,479.772247 764.270508,479.879761 
	C767.884399,480.025818 769.064697,478.198303 768.570068,474.908997 
	C767.479248,467.654785 767.755066,460.311981 766.882568,453.017975 
	C761.633179,409.137543 745.251404,369.955536 716.601807,336.372070 
	C672.152344,284.268005 614.929138,258.783234 546.787598,257.422211 
	C524.297424,256.972992 501.785950,257.071106 479.293304,257.452942 
	C463.998718,257.712555 448.736023,258.944977 433.709534,262.249115 
	C369.127472,276.449921 320.196594,312.160675 286.271942,369.694031 
M322.943787,238.456863 
	C308.638062,249.970993 295.297028,262.497925 283.299225,276.417023 
	C239.883179,326.785736 214.689041,384.893066 209.151260,451.318451 
	C208.276321,461.813416 208.352066,461.694946 219.103760,461.656036 
	C222.865448,461.642395 224.405777,460.435486 224.675598,456.532898 
	C226.861771,424.911407 235.345154,394.921814 249.218826,366.524963 
	C272.637512,318.591187 307.694183,281.379150 354.098663,255.104919 
	C391.004517,234.208817 430.736877,223.060196 473.267853,222.706161 
	C499.425568,222.488419 525.586975,222.747910 551.745911,222.615387 
	C563.274597,222.556976 574.735413,223.537369 586.045898,225.363159 
	C649.138306,235.547821 701.358887,265.372192 742.562134,314.027924 
	C775.972412,353.481201 795.312744,399.288849 800.933838,450.701111 
	C802.316895,463.350739 801.051575,461.350220 813.154480,461.648346 
	C816.659973,461.734680 817.954102,460.334534 817.640991,456.881378 
	C815.956360,438.298035 813.717285,419.777557 808.897888,401.725128 
	C790.276367,331.973145 752.362915,275.061646 694.371765,231.932861 
	C643.690918,194.240829 586.364136,174.977646 523.406006,172.445755 
	C496.832214,171.377060 470.483734,174.057922 444.564240,179.961014 
	C399.856232,190.143127 359.534058,209.647430 322.943787,238.456863 
M141.380936,647.005493 
	C148.232208,659.802979 158.774918,666.178772 173.430756,665.964905 
	C187.923218,665.753296 202.422531,665.803650 216.915787,665.984436 
	C221.210678,666.037903 222.736725,664.633240 222.727173,660.229553 
	C222.612671,607.412781 222.620758,554.595642 222.720642,501.778809 
	C222.728378,497.691620 221.432587,496.215576 217.275620,496.265839 
	C202.282440,496.447144 187.284790,496.231049 172.290619,496.364868 
	C152.859863,496.538269 138.289307,511.276245 138.253754,530.757751 
	C138.192322,564.413940 138.248993,598.070251 138.205673,631.726501 
	C138.199142,636.803589 139.052094,641.656921 141.380936,647.005493 
M865.775757,498.594360 
	C861.330750,497.071808 856.778015,496.299042 852.060486,496.316406 
	C838.232361,496.367218 824.403992,496.332520 810.575684,496.339569 
	C803.412720,496.343201 803.374084,496.351074 803.371704,503.445862 
	C803.354553,555.593445 803.420227,607.741211 803.242188,659.888184 
	C803.225098,664.899902 804.973694,666.059082 809.593872,665.984741 
	C823.918091,665.754089 838.248718,665.943909 852.576721,665.906982 
	C873.611938,665.852844 887.719666,651.804077 887.744507,630.846191 
	C887.783630,597.858276 887.685852,564.870056 887.802917,531.882568 
	C887.858765,516.148132 880.814575,505.231201 865.775757,498.594360 
M493.107361,920.415222 
	C499.618469,928.530640 506.129578,936.645996 513.041077,945.260437 
	C543.849670,907.223206 574.068970,869.913452 604.635132,832.175476 
	C544.044739,842.636719 484.248291,842.266968 423.197174,832.379761 
	C446.900269,862.241699 469.773651,891.058289 493.107361,920.415222 
z"/>
<path fill="#000000" opacity="1.000000" stroke="none" 
	d="
M1025.000000,210.531342 
	C1023.043396,214.919891 1020.300903,218.227341 1017.205383,221.302414 
	C1007.868042,230.578186 998.521973,239.847046 989.324646,249.260574 
	C986.775818,251.869217 984.984680,252.038544 982.386658,249.284256 
	C976.558594,243.105759 970.533020,237.105499 964.412537,231.214798 
	C961.897217,228.793961 961.951172,227.132782 964.462769,224.702774 
	C972.124695,217.289993 979.483643,209.564087 987.147888,202.153778 
	C989.763428,199.624847 990.899353,196.970551 990.722900,193.340897 
	C990.464355,188.021866 990.535156,182.677765 990.690125,177.350891 
	C990.791626,173.860352 989.735229,172.205475 985.883423,172.230972 
	C966.557678,172.358826 947.230225,172.340698 927.904175,172.226883 
	C924.484497,172.206741 923.164001,173.295929 923.231812,176.823700 
	C923.407959,185.983734 923.173767,195.151306 923.321106,204.312378 
	C923.409912,209.836487 921.491882,214.370911 917.647949,218.211899 
	C907.276733,228.575180 896.856262,238.890198 886.587463,249.354080 
	C884.151245,251.836563 882.484558,251.870697 880.075317,249.322861 
	C874.353699,243.272095 868.484741,237.351074 862.473694,231.587952 
	C859.715027,228.943115 859.464478,227.059601 862.391785,224.272324 
	C869.507202,217.497177 876.234497,210.315094 883.328918,203.516891 
	C886.567139,200.413940 887.896545,197.084976 887.866943,192.530807 
	C887.681519,164.041855 887.772400,135.551071 887.781006,107.060905 
	C887.785583,91.897911 893.885864,85.720528 908.856262,85.718193 
	C941.345032,85.713142 973.833984,85.769661 1006.322510,85.683250 
	C1015.077820,85.659966 1021.454895,88.955620 1024.845703,97.694366 
	C1025.000000,135.354233 1025.000000,172.708450 1025.000000,210.531342 
M960.500000,121.145485 
	C951.170532,121.151588 941.840881,121.132393 932.511536,121.170456 
	C921.793030,121.214188 923.598755,120.426743 923.206238,130.643860 
	C923.023743,135.393509 924.431885,137.020050 929.330444,136.945801 
	C946.319458,136.688232 963.314819,136.849915 980.307800,136.861771 
	C991.145508,136.869324 991.029907,136.880264 990.714417,125.777802 
	C990.616699,122.339256 989.419617,121.049576 985.988953,121.110062 
	C977.828308,121.253952 969.663269,121.149628 960.500000,121.145485 
z"/>
<path fill="#000000" opacity="1.000000" stroke="none" 
	d="
M176.531342,1.000000 
	C186.031204,4.376557 189.438660,11.060305 189.384201,20.475229 
	C189.195221,53.139267 189.229950,85.805298 189.359207,118.469856 
	C189.383331,124.565628 187.370010,129.442093 183.115540,133.661942 
	C173.058060,143.637604 162.988586,153.604736 153.128540,163.773697 
	C150.352280,166.636948 148.602631,166.618179 145.894363,163.727798 
	C140.200089,157.650650 134.251099,151.802353 128.224792,146.050674 
	C125.560555,143.507858 125.552696,141.662506 128.220154,139.091278 
	C135.777679,131.806381 143.073456,124.250465 150.601929,116.934654 
	C152.918823,114.683197 154.061707,112.311035 153.944473,109.023315 
	C153.742691,103.364510 153.799438,97.689720 153.955719,92.027382 
	C154.053589,88.481804 152.794510,86.889809 149.053726,86.912529 
	C130.055298,87.027893 111.055687,87.046646 92.057144,86.957832 
	C88.053123,86.939125 86.900940,88.722549 86.968056,92.445068 
	C87.124245,101.108330 86.906616,109.778008 87.034813,118.442207 
	C87.124031,124.471962 85.088852,129.493347 80.844170,133.719238 
	C70.805786,143.713196 60.742428,153.683167 50.811333,163.782959 
	C48.308041,166.328781 46.455624,166.660934 43.826363,163.905075 
	C37.960979,157.757263 31.956486,151.729797 25.773262,145.903107 
	C22.911407,143.206253 23.498133,141.472656 26.029179,139.027985 
	C33.459904,131.850815 40.584415,124.355484 48.052132,117.218376 
	C50.684937,114.702118 51.747528,112.122971 51.731686,108.480339 
	C51.604122,79.148987 51.777916,49.816109 51.596458,20.485327 
	C51.542721,11.798687 54.425159,5.253711 62.731258,1.202775 
	C100.687561,1.000000 138.375122,1.000000 176.531342,1.000000 
M90.924217,51.673119 
	C108.385048,51.682064 125.846161,51.756020 143.306595,51.677494 
	C155.287476,51.623619 153.594772,53.396774 154.000137,41.098022 
	C154.157730,36.316563 152.265045,35.252373 147.862183,35.309593 
	C131.235565,35.525673 114.604507,35.403488 97.975113,35.402367 
	C86.448441,35.401588 85.393112,36.688694 87.084557,48.367809 
	C87.356705,50.246948 87.921143,51.562206 90.924217,51.673119 
z"/>
<path fill="#000000" opacity="1.000000" stroke="none" 
	d="
M1.000000,307.468658 
	C11.264270,308.468964 21.581568,307.405884 31.872158,307.614990 
	C34.822884,307.674957 34.644058,305.333221 34.647884,303.312592 
	C34.663326,295.156952 34.815838,286.997375 34.604889,278.847351 
	C34.504990,274.987915 35.746059,273.519958 39.732193,273.611359 
	C49.358574,273.832062 58.993431,273.682953 68.957405,273.682953 
	C70.139099,282.117920 69.870705,290.217072 69.903572,298.295898 
	C69.949028,309.469849 69.882195,307.543335 79.379875,307.673401 
	C86.036331,307.764587 92.697723,307.809662 99.351562,307.651031 
	C102.841270,307.567871 104.118042,309.100311 104.093880,312.402893 
	C104.031799,320.890869 103.962708,329.381805 104.126961,337.867096 
	C104.205002,341.898956 102.271866,343.070862 98.630676,343.024109 
	C90.809219,342.923676 82.982658,343.122345 75.164024,342.943298 
	C71.286087,342.854492 69.836227,344.334412 69.885193,348.208038 
	C69.986092,356.189484 69.646988,364.175995 69.709557,372.158661 
	C69.737175,375.681366 68.671898,377.284271 64.847343,377.186798 
	C56.530777,376.974792 48.202457,377.013824 39.883831,377.186188 
	C36.063206,377.265320 34.496674,375.944550 34.613140,371.979919 
	C34.832981,364.496552 34.682129,357.001984 34.668098,349.512115 
	C34.655903,343.000122 34.645397,342.988495 27.902050,342.983002 
	C19.247149,342.975922 10.592229,342.989929 1.468658,342.997437 
	C1.000000,331.312439 1.000000,319.624878 1.000000,307.468658 
M61.350891,341.723633 
	C68.677704,341.682007 68.683029,341.682007 68.691170,334.389984 
	C68.698776,327.578674 68.492905,320.759308 68.767326,313.959045 
	C68.938171,309.725555 67.122551,308.343170 63.209316,308.391266 
	C55.402527,308.487183 47.592628,308.483032 39.786102,308.372467 
	C36.645054,308.327972 35.278130,309.459015 35.330273,312.737274 
	C35.462357,321.041534 35.439617,329.350372 35.326221,337.655273 
	C35.285076,340.668579 36.482029,341.790436 39.459595,341.741882 
	C46.435051,341.628174 53.413792,341.716309 61.350891,341.723633 
z"/>
<path fill="#000000" opacity="1.000000" stroke="none" 
	d="
M1025.000000,479.531342 
	C1014.730469,478.536255 1004.408936,479.633911 994.114197,479.402832 
	C991.154358,479.336365 991.347473,481.683655 991.345032,483.702972 
	C991.335205,491.860992 991.202759,500.022278 991.397278,508.175629 
	C991.488098,511.984528 990.335022,513.534485 986.284485,513.408447 
	C977.801636,513.144409 969.303101,513.222961 960.814819,513.374390 
	C957.309448,513.436951 956.273560,512.209595 956.401123,508.669037 
	C956.688599,500.689911 956.473267,492.692688 956.463135,484.702850 
	C956.458252,480.873260 954.962891,479.060242 950.720642,479.240662 
	C943.242065,479.558716 935.730957,479.102905 928.251526,479.410065 
	C923.591675,479.601440 921.606445,478.232697 921.823792,473.277649 
	C922.151917,465.800049 921.873352,458.297119 921.911926,450.805237 
	C921.944031,444.563385 922.348694,444.146240 928.848633,444.082977 
	C935.840515,444.014923 942.848511,443.800507 949.821228,444.175873 
	C954.683960,444.437653 956.433472,442.396393 956.428528,437.898041 
	C956.420105,430.241394 956.691101,422.579773 956.484802,414.929932 
	C956.384155,411.196838 957.722412,409.860901 961.353333,409.915558 
	C969.675903,410.040833 978.004028,410.060364 986.325317,409.892944 
	C990.312988,409.812714 991.491394,411.536346 991.396179,415.314819 
	C991.195129,423.301300 991.449097,431.298737 991.283020,439.286865 
	C991.212280,442.689362 992.398376,444.117889 995.868530,444.094391 
	C1005.346008,444.030182 1014.824768,444.159332 1024.651489,444.105957 
	C1025.000000,455.687561 1025.000000,467.375122 1025.000000,479.531342 
M990.088867,477.507782 
	C991.357056,467.925171 990.415161,458.302551 990.602539,448.700348 
	C990.661377,445.685333 988.630737,445.287109 986.238831,445.294250 
	C977.933655,445.319061 969.627991,445.344879 961.323242,445.278229 
	C958.726196,445.257385 957.253967,446.026764 957.278442,448.935883 
	C957.351013,457.572723 957.306091,466.210571 957.292908,474.848022 
	C957.289795,476.861603 957.674377,478.640839 960.175171,478.591400 
	C969.944702,478.398376 979.732910,479.313965 990.088867,477.507782 
z"/>
<path fill="#000000" opacity="1.000000" stroke="none" 
	d="
M584.400024,691.607788 
	C586.417419,689.868164 587.695740,690.935303 588.941406,692.182068 
	C595.414307,698.660522 601.813538,705.214966 608.392029,711.584351 
	C611.577148,714.668335 609.359131,716.494202 607.259949,718.510742 
	C589.762268,735.319031 569.113464,746.318481 545.372314,751.092468 
	C504.398834,759.331604 466.318054,752.683472 432.101501,727.822815 
	C427.671387,724.604004 423.669495,720.795410 419.473785,717.254700 
	C417.341217,715.455017 416.808624,713.903870 419.252991,711.595947 
	C425.788086,705.425903 432.103058,699.019287 438.405243,692.608093 
	C440.359039,690.620544 441.835602,690.012756 444.179657,692.249817 
	C481.582550,727.945862 545.709717,728.352966 584.400024,691.607788 
z"/>
<path fill="#000000" opacity="1.000000" stroke="none" 
	d="
M623.023315,597.715820 
	C646.329285,597.908569 667.974365,592.286926 689.213501,584.559265 
	C695.761780,582.176880 695.856506,582.285889 698.345215,588.823853 
	C701.186951,596.289368 703.847534,603.824768 706.758240,611.262634 
	C707.953857,614.317871 707.590576,616.020325 704.224304,617.357361 
	C679.468811,627.189880 654.106445,634.468994 627.274292,634.897888 
	C597.834290,635.368591 569.798462,629.155090 543.361145,615.994568 
	C540.250610,614.446106 539.787598,612.809448 541.428284,609.738892 
	C545.585815,601.957886 549.561768,594.072266 553.344910,586.102478 
	C554.878784,582.871277 556.553711,582.656067 559.593689,584.061584 
	C579.543579,593.285583 600.662231,597.275940 623.023315,597.715820 
z"/>
<path fill="#000000" opacity="1.000000" stroke="none" 
	d="
M327.703186,597.836914 
	C329.297638,593.578857 330.916656,589.737854 332.237610,585.796936 
	C333.149353,583.076904 334.570129,582.612549 337.127075,583.621704 
	C343.625854,586.186523 350.119354,588.798706 356.743683,591.005554 
	C393.687012,603.312500 429.849487,599.883179 465.384583,585.276306 
	C473.429810,581.969299 471.756683,581.626099 475.853729,588.689087 
	C479.946594,595.744812 483.720398,602.986450 487.852295,610.018311 
	C489.687195,613.141052 488.906342,614.724243 485.814117,616.172241 
	C463.432495,626.652161 440.134735,633.115845 415.289032,634.534302 
	C383.770905,636.333618 354.253784,628.847168 325.380493,617.362549 
	C322.306061,616.139648 321.241119,614.561951 322.658844,611.288208 
	C324.508606,607.016968 325.971313,602.578064 327.703186,597.836914 
z"/>
<path fill="#000000" opacity="1.000000" stroke="none" 
	d="
M391.992188,496.256104 
	C394.304779,493.598572 396.292877,491.119171 398.589661,488.969543 
	C404.821625,483.136841 411.140991,482.344849 418.686035,486.362549 
	C423.039825,488.680908 426.447632,492.170380 429.039001,496.258148 
	C433.037476,502.565491 430.967377,509.094604 423.563538,511.438171 
	C413.575928,514.599548 403.334747,514.888855 393.367493,510.675690 
	C392.003632,510.099182 391.412628,509.002930 390.951813,507.698303 
	C389.594360,503.855255 389.996277,500.171417 391.992188,496.256104 
z"/>
</svg>