<svg version="1.1" id="Layer_1" xmlns="http://www.w3.org/2000/svg" xmlns:xlink="http://www.w3.org/1999/xlink" x="0px" y="0px"
	 width="100%" viewBox="0 0 1080 1080" enable-background="new 0 0 1080 1080" xml:space="preserve">
<path fill="#FFCFB0" opacity="1.000000" stroke="none" 
	d="
M276.000000,1081.000000 
	C242.977356,1081.000000 209.954712,1081.000000 176.666458,1080.710815 
	C185.873734,1077.008179 189.979874,1071.322510 189.989426,1061.299561 
	C190.020248,1028.979736 190.003036,996.659851 189.997879,964.339966 
	C189.997330,960.842102 190.140610,957.331421 189.898941,953.848694 
	C188.930527,939.892883 173.286453,932.268311 161.811325,940.212585 
	C156.001358,944.234863 153.935501,950.101746 153.955566,957.080322 
	C154.052246,990.732666 154.247681,1024.388428 153.858444,1058.036499 
	C153.729660,1069.168823 157.349030,1076.994751 168.000000,1081.000000 
	C146.977356,1081.000000 125.954720,1081.000000 104.666306,1080.710693 
	C114.033508,1076.950684 119.188339,1069.228394 117.816002,1060.324097 
	C116.399078,1051.130371 108.868744,1045.095093 98.618172,1045.008911 
	C92.625084,1044.958496 86.631226,1044.999634 80.637718,1044.999634 
	C69.205032,1044.999634 57.772343,1044.999512 46.000656,1044.999512 
	C46.000656,1036.892822 46.000721,1029.269897 46.000645,1021.647095 
	C46.000427,999.670898 46.104107,977.694031 45.962032,955.718750 
	C45.872665,941.895935 32.869251,933.122314 20.794815,938.615601 
	C13.127595,942.103760 9.967012,948.408081 9.978971,956.667358 
	C10.027909,990.464050 10.247621,1024.263672 9.858430,1058.056030 
	C9.730244,1069.185913 13.365166,1076.994507 24.000000,1081.000000 
	C16.335175,1081.000000 8.670351,1081.000000 1.004145,1081.000000 
	C1.002763,721.088318 1.002763,361.176666 1.002763,1.000000 
	C232.022552,1.000000 463.045227,1.000000 694.295288,1.354145 
	C574.033264,7.845884 456.192871,97.781242 429.383362,235.051239 
	C413.894104,234.149231 399.817871,238.248627 388.083893,248.816437 
	C376.205200,259.514526 370.140564,273.026276 370.048798,289.000061 
	C369.971161,302.512390 374.566010,314.487701 383.510406,324.593201 
	C395.689606,338.353485 411.400757,343.833221 429.591583,343.019989 
	C438.763916,389.615448 458.031586,431.239624 487.812805,468.999451 
	C485.252686,468.999451 483.653656,468.999481 482.054657,468.999481 
	C456.889526,468.999512 431.724152,468.926056 406.559387,469.019989 
	C380.808716,469.116089 359.060394,485.582916 353.762054,510.699310 
	C351.499115,521.426697 351.880371,532.908813 352.452118,543.976013 
	C352.924042,553.110779 362.041962,559.520813 371.209991,558.924988 
	C380.161041,558.343262 387.416138,551.144165 387.896454,542.033508 
	C388.168091,536.880920 387.993225,531.704285 387.998230,526.538452 
	C388.012543,511.691681 394.747070,505.001526 409.709106,505.001251 
	C493.037354,504.999756 576.365601,505.000519 659.693848,505.000519 
	C778.186584,505.000519 896.679382,504.997986 1015.172119,505.004028 
	C1029.006714,505.004730 1035.985352,512.031006 1035.997070,525.929504 
	C1036.008301,539.262024 1035.999756,552.594543 1035.999756,565.927063 
	C1035.999756,599.091675 1036.030273,632.256409 1035.975098,665.420898 
	C1035.963379,672.415222 1038.280640,678.173462 1044.256592,682.024048 
	C1050.210693,685.860657 1056.514893,686.115356 1062.698975,682.639160 
	C1069.261230,678.950378 1072.020874,673.048340 1072.015991,665.613647 
	C1071.984863,618.116577 1072.041504,570.619324 1071.930542,523.122559 
	C1071.920654,518.843140 1071.385620,514.448669 1070.319946,510.306976 
	C1063.751709,484.780060 1042.924927,469.004761 1016.061218,469.003387 
	C858.070862,468.995361 700.080566,468.984711 542.090271,469.084351 
	C538.141418,469.086853 535.330688,468.132355 532.527832,465.247009 
	C511.320923,443.415833 494.384369,418.720337 481.980103,390.926758 
	C475.138885,375.598083 469.804810,359.778198 466.296356,343.166992 
	C630.255310,343.166992 793.879272,343.166992 957.591370,343.166992 
	C957.502258,343.827667 957.472046,344.320435 957.366333,344.796478 
	C952.618408,366.173737 944.887085,386.434021 934.991577,405.953400 
	C929.793030,416.207886 933.407349,426.743591 943.022827,431.317261 
	C952.135010,435.651550 962.355835,431.989532 967.069641,421.802765 
	C973.128174,408.710144 979.078918,395.501617 983.918701,381.930298 
	C988.408447,369.340485 991.376038,356.207825 995.029602,343.258362 
	C1033.737793,344.311584 1052.812866,315.260162 1053.884399,292.166199 
	C1054.520020,278.469238 1050.726074,266.170471 1042.165039,255.469788 
	C1029.896118,240.134735 1013.412598,234.188629 994.350098,234.920959 
	C982.332214,175.304779 955.090454,124.414520 911.755066,82.466728 
	C867.145447,39.285442 813.974609,13.056274 752.470581,3.975958 
	C744.670593,2.824385 736.824646,1.984362 729.000000,0.999999 
	C846.302673,1.000000 963.605408,1.000000 1080.937012,1.000000 
	C1080.937012,361.000000 1080.937012,721.000000 1080.937012,1081.000000 
	C1007.560120,1081.000000 934.246155,1081.000000 860.589294,1080.658936 
	C868.892822,1077.755371 873.398499,1072.013550 874.015259,1062.929565 
	C875.052734,1047.651001 876.119202,1032.374268 877.212524,1017.099548 
	C880.848938,966.296997 884.497620,915.495300 888.153931,864.694214 
	C889.000977,852.925720 889.897095,841.160828 890.799805,829.000854 
	C892.710205,829.000854 894.348083,829.000854 895.985962,829.000854 
	C911.817261,829.000854 927.648621,829.000854 943.479919,829.000854 
	C968.143494,829.000854 992.807312,829.078796 1017.470520,828.979980 
	C1044.935303,828.869995 1067.557739,810.066223 1071.021606,782.871948 
	C1072.798340,768.922180 1071.881836,754.614990 1071.963379,740.468079 
	C1072.028076,729.199829 1064.530640,721.143250 1054.244507,721.007568 
	C1043.748291,720.869141 1036.077881,729.006042 1036.012207,740.472839 
	C1035.952026,750.971191 1036.006836,761.470154 1035.997437,771.968811 
	C1035.984619,786.118225 1029.047974,792.997131 1014.772583,792.997314 
	C812.964844,792.999939 611.157104,792.999817 409.349365,792.997803 
	C394.816895,792.997681 388.003204,786.168030 388.002228,771.605652 
	C387.998779,719.945557 388.002167,668.285400 387.995544,616.625305 
	C387.995300,614.793640 388.043793,612.948608 387.852875,611.132507 
	C386.552338,598.760925 373.384857,591.412720 362.235107,596.893188 
	C354.622894,600.634888 351.949097,607.119202 351.960815,615.315491 
	C352.035889,667.808716 351.992218,720.302124 352.001648,772.795471 
	C352.007538,805.661438 375.399567,828.992554 408.341980,828.998962 
	C448.003632,829.006775 487.665253,829.000854 527.326904,829.000854 
	C529.137817,829.000854 530.948730,829.000854 533.073242,829.000854 
	C533.352783,831.908081 533.662842,834.511230 533.844788,837.123352 
	C535.301880,858.042114 536.682861,878.966248 538.185303,899.881714 
	C542.096252,954.325989 546.066406,1008.766052 549.987305,1063.209595 
	C550.523499,1070.654907 553.860413,1076.138794 560.716248,1079.360840 
	C561.550110,1079.752686 562.242188,1080.446289 563.000000,1081.000000 
	C530.310669,1081.000000 497.621368,1081.000000 464.666321,1080.710693 
	C474.038940,1076.948120 479.196014,1069.216064 477.815002,1060.309082 
	C476.389008,1051.112305 468.858215,1045.063477 458.587402,1045.013184 
	C446.593628,1044.954590 434.599396,1044.999634 422.605347,1044.999634 
	C417.165588,1044.999634 411.725861,1044.999512 406.282288,1044.999512 
	C406.282288,1038.730957 406.282288,1032.998901 406.282288,1026.996460 
	C418.363312,1026.996460 430.166107,1027.117554 441.964813,1026.951782 
	C449.200806,1026.850098 454.725464,1023.496582 458.022156,1016.950745 
	C461.232330,1010.576599 460.605743,1004.334412 456.554077,998.570374 
	C452.838745,993.284729 447.500275,990.980713 441.083984,990.993347 
	C429.484528,991.016174 417.884979,990.999756 406.286621,990.999756 
	C406.286621,984.722290 406.286621,978.990051 406.286621,973.000610 
	C408.211243,973.000610 409.852081,973.000671 411.492920,973.000671 
	C427.318390,973.000549 443.143860,972.988708 458.969330,973.005615 
	C465.783417,973.012878 471.328918,970.489136 475.042969,964.681458 
	C478.737976,958.903381 479.100983,952.788574 475.850647,946.690857 
	C472.410919,940.237854 466.826691,937.045410 459.580292,937.025024 
	C436.758484,936.960815 413.936340,936.994019 391.114349,937.001648 
	C376.892578,937.006409 370.005005,943.883972 370.001801,958.090027 
	C369.994232,991.406799 370.249939,1024.726562 369.858704,1058.038696 
	C369.727997,1069.170898 373.351471,1076.994385 384.000000,1081.000000 
	C350.977356,1081.000000 317.954712,1081.000000 284.665741,1080.709717 
	C290.607544,1078.672852 294.940796,1074.831787 296.995270,1068.700439 
	C309.009308,1032.845703 321.077820,997.008545 332.884979,961.085632 
	C336.280670,950.754211 331.126007,941.021606 321.402100,937.913269 
	C311.610016,934.783081 302.297363,939.770935 298.711151,950.249573 
	C294.683319,962.018677 290.822754,973.844910 286.868103,985.639221 
	C284.741638,991.981262 282.570618,998.308411 280.073273,1005.662292 
	C279.133698,1003.222717 278.565552,1001.907288 278.114746,1000.552917 
	C272.719177,984.342590 267.513824,968.065491 261.834290,951.955566 
	C260.451508,948.033386 258.156464,943.987549 255.174530,941.169067 
	C249.333984,935.648560 240.649994,935.653198 233.931702,940.167480 
	C226.834198,944.936401 224.397476,953.035583 227.460480,962.254578 
	C238.755615,996.250916 250.250458,1030.182007 261.311035,1064.254150 
	C263.901123,1072.232788 268.037262,1078.101807 276.000000,1081.000000 
M762.902893,702.374023 
	C769.761902,685.184937 776.620911,667.995850 783.900330,649.753052 
	C784.921692,652.090820 785.517700,653.361694 786.039246,654.662476 
	C795.675232,678.693970 805.273621,702.740540 814.946838,726.756958 
	C818.291687,735.061523 825.602051,739.760803 833.560364,738.962036 
	C842.180542,738.096802 848.439087,731.914307 849.975403,722.717529 
	C857.866821,675.476074 865.760254,628.234924 873.636230,580.990906 
	C875.421326,570.282898 869.062805,561.017761 858.747009,559.195862 
	C849.029297,557.479614 839.860046,564.390503 838.079773,574.938477 
	C835.284302,591.501831 832.619263,608.087097 829.854614,624.655701 
	C828.273621,634.130798 826.604980,643.591187 824.757690,654.325623 
	C816.504700,633.742554 808.818848,614.487793 801.059021,595.262878 
	C797.877502,587.380798 791.622192,582.982605 783.959106,583.001221 
	C776.314148,583.019775 770.142273,587.446411 766.914551,595.339844 
	C763.898987,602.714417 760.960571,610.120483 757.993530,617.514832 
	C753.218140,629.415588 748.447144,641.318176 743.360779,654.001831 
	C742.825562,651.766174 742.437134,650.489807 742.219788,649.185059 
	C738.148132,624.741272 734.083557,600.296326 730.046936,575.846680 
	C728.192139,564.611938 719.143616,557.377258 709.154236,559.211548 
	C698.646912,561.140930 692.636169,570.411499 694.502319,581.564270 
	C702.351868,628.476196 710.163330,675.394470 717.971741,722.313293 
	C719.538574,731.727844 725.370850,737.807312 734.016541,738.918213 
	C741.966003,739.939636 749.410889,735.247437 753.066284,726.619873 
	C756.367798,718.827637 759.428772,710.933472 762.902893,702.374023 
M444.918457,738.799072 
	C455.870178,735.431396 459.986450,729.865540 459.997070,718.335327 
	C460.011169,703.007812 460.000519,687.680359 460.000519,672.352844 
	C460.000519,666.610352 460.000519,660.867920 460.000519,655.125427 
	C461.498016,656.363953 462.245941,657.753845 462.951141,659.165100 
	C474.382446,682.042053 485.768036,704.941895 497.256104,727.790222 
	C501.577423,736.384827 509.559448,740.517639 517.599548,738.627075 
	C526.659119,736.496765 531.980713,729.585327 531.987061,719.644531 
	C532.016968,672.662415 532.019287,625.680359 531.987122,578.698242 
	C531.979187,567.135010 524.454712,558.996399 513.981384,559.007935 
	C503.513062,559.019470 496.038544,567.155823 496.011932,578.729004 
	C495.966797,598.388123 495.999512,618.047363 495.999481,637.706543 
	C495.999451,639.442200 495.999481,641.177917 495.999481,642.913574 
	C494.488495,641.612427 493.738037,640.204651 493.024597,638.778442 
	C481.507904,615.755310 470.053528,592.700745 458.452179,569.720337 
	C454.283112,561.462158 446.232697,557.509338 438.318665,559.396179 
	C429.447845,561.511108 424.028748,568.373962 424.019836,577.937256 
	C423.975708,625.252563 423.964508,672.567871 424.024261,719.883057 
	C424.039429,731.898193 431.912354,739.205933 444.918457,738.799072 
M979.068909,570.416016 
	C954.966614,552.528137 922.471680,556.158691 904.273743,578.772644 
	C885.867188,601.645813 888.471130,634.304077 910.313538,653.437744 
	C920.611389,662.458435 932.707336,666.749023 946.393066,667.076721 
	C955.536743,667.295593 962.669983,673.944580 963.833801,682.662476 
	C964.939819,690.947510 959.935181,699.048157 951.935486,701.921387 
	C940.168213,706.147827 929.058289,697.991638 927.973206,684.329834 
	C927.148071,673.942017 919.095337,666.565247 909.107300,667.047546 
	C899.377014,667.517395 892.039612,675.479187 891.999207,685.611511 
	C891.863708,719.586670 925.733826,745.997742 958.512878,737.477295 
	C985.114197,730.562622 1002.754761,705.909729 999.802673,679.774414 
	C996.675842,652.092041 975.018188,632.195679 946.708801,630.998474 
	C935.718506,630.533752 927.986023,623.073425 928.010803,612.958679 
	C928.034180,603.435913 935.783142,595.400696 945.294983,595.036072 
	C955.445190,594.646973 963.193420,602.111572 963.998474,613.054932 
	C964.798401,623.928955 972.604797,631.378357 982.766479,630.964539 
	C993.063538,630.545166 1000.502869,622.079956 999.924744,610.988831 
	C999.074402,594.676575 992.354492,581.224670 979.068909,570.416016 
M667.489319,736.185730 
	C674.880371,730.705261 677.552124,723.575867 675.118347,715.827881 
	C672.578552,707.742249 666.092957,703.062134 656.991577,703.019958 
	C641.332336,702.947449 625.672546,702.999634 610.012939,702.999512 
	C608.082886,702.999451 606.152893,702.999512 604.314087,702.999512 
	C604.314087,690.663940 604.314087,678.932251 604.314087,666.970581 
	C616.603088,666.970581 628.583496,667.155090 640.555115,666.910706 
	C649.752197,666.722961 657.064209,659.613647 657.888367,650.699097 
	C658.718628,641.718750 652.894165,633.524536 643.929077,631.520081 
	C641.213196,630.912842 638.309265,631.034058 635.490479,631.020081 
	C625.065247,630.968262 614.639526,630.999512 604.317932,630.999512 
	C604.317932,618.656189 604.317932,606.924316 604.317932,595.000305 
	C621.943298,595.000305 639.252136,595.044189 656.560669,594.984680 
	C667.826355,594.945923 675.883911,587.497681 675.992249,577.201294 
	C676.102722,566.704163 667.973938,559.042664 656.486450,559.015625 
	C633.496948,558.961670 610.507202,558.958313 587.517761,559.016418 
	C575.346619,559.047119 568.023254,566.431396 568.013916,578.689758 
	C567.978333,625.501953 567.982056,672.314087 568.011169,719.126282 
	C568.018982,731.685242 575.294189,738.965759 587.829529,738.988647 
	C610.652466,739.030273 633.476501,739.102295 656.297607,738.893433 
	C659.825195,738.861145 663.339783,737.404053 667.489319,736.185730 
M286.785645,757.721375 
	C229.041382,718.535522 167.200211,710.666809 101.575424,734.107605 
	C75.208038,743.525818 52.348347,758.828979 32.502068,778.591614 
	C27.023914,784.046692 25.333179,790.547241 27.913279,797.803833 
	C30.511484,805.111328 36.116650,808.955872 43.730396,809.644836 
	C51.571148,810.354309 56.501846,805.182678 61.746708,800.471069 
	C103.055733,763.362427 151.116394,750.106506 205.527893,760.711060 
	C236.908508,766.826904 263.590576,782.103394 286.521515,804.265686 
	C294.342926,811.824829 305.473206,811.444092 312.400299,803.998535 
	C319.298340,796.584229 318.919189,785.445251 310.953857,778.143494 
	C303.357849,771.180298 295.272461,764.750916 286.785645,757.721375 
M217.199524,841.221619 
	C223.652878,846.178162 230.192978,851.026733 236.536316,856.120300 
	C243.514832,861.723938 252.631790,862.042664 259.519470,856.641907 
	C268.705719,849.438782 268.374481,836.799866 258.758545,827.605530 
	C218.392242,789.009338 156.068024,781.693359 108.219910,810.494446 
	C99.043915,816.017700 90.621704,823.080505 82.750237,830.399353 
	C75.537041,837.106262 76.135742,848.352905 82.754669,855.153076 
	C89.446724,862.028137 99.904434,862.378052 107.596115,855.940735 
	C109.638062,854.231812 111.565849,852.387268 113.569008,850.631104 
	C141.555832,826.095886 184.545334,822.032532 217.199524,841.221619 
M192.040817,910.700256 
	C202.152679,912.432373 209.351059,909.449158 213.279449,901.898376 
	C217.041000,894.668274 215.659439,886.269287 209.736038,880.357239 
	C189.338928,859.999268 154.107468,860.085266 134.078598,880.541870 
	C125.116394,889.695312 127.550552,904.691040 139.055283,909.815247 
	C146.240219,913.015442 152.916992,911.622620 159.004669,906.550415 
	C168.029175,899.031189 175.749802,899.152771 185.025085,906.470398 
	C186.952911,907.991333 189.231827,909.067261 192.040817,910.700256 
z"/>
<path fill="#010100" opacity="1.000000" stroke="none" 
	d="
M728.531372,0.999999 
	C736.824646,1.984362 744.670593,2.824385 752.470581,3.975958 
	C813.974609,13.056274 867.145447,39.285442 911.755066,82.466728 
	C955.090454,124.414520 982.332214,175.304779 994.350098,234.920959 
	C1013.412598,234.188629 1029.896118,240.134735 1042.165039,255.469788 
	C1050.726074,266.170471 1054.520020,278.469238 1053.884399,292.166199 
	C1052.812866,315.260162 1033.737793,344.311584 995.029602,343.258362 
	C991.376038,356.207825 988.408447,369.340485 983.918701,381.930298 
	C979.078918,395.501617 973.128174,408.710144 967.069641,421.802765 
	C962.355835,431.989532 952.135010,435.651550 943.022827,431.317261 
	C933.407349,426.743591 929.793030,416.207886 934.991577,405.953400 
	C944.887085,386.434021 952.618408,366.173737 957.366333,344.796478 
	C957.472046,344.320435 957.502258,343.827667 957.591370,343.166992 
	C793.879272,343.166992 630.255310,343.166992 466.296356,343.166992 
	C469.804810,359.778198 475.138885,375.598083 481.980103,390.926758 
	C494.384369,418.720337 511.320923,443.415833 532.527832,465.247009 
	C535.330688,468.132355 538.141418,469.086853 542.090271,469.084351 
	C700.080566,468.984711 858.070862,468.995361 1016.061218,469.003387 
	C1042.924927,469.004761 1063.751709,484.780060 1070.319946,510.306976 
	C1071.385620,514.448669 1071.920654,518.843140 1071.930542,523.122559 
	C1072.041504,570.619324 1071.984863,618.116577 1072.015991,665.613647 
	C1072.020874,673.048340 1069.261230,678.950378 1062.698975,682.639160 
	C1056.514893,686.115356 1050.210693,685.860657 1044.256592,682.024048 
	C1038.280640,678.173462 1035.963379,672.415222 1035.975098,665.420898 
	C1036.030273,632.256409 1035.999756,599.091675 1035.999756,565.927063 
	C1035.999756,552.594543 1036.008301,539.262024 1035.997070,525.929504 
	C1035.985352,512.031006 1029.006714,505.004730 1015.172119,505.004028 
	C896.679382,504.997986 778.186584,505.000519 659.693848,505.000519 
	C576.365601,505.000519 493.037354,504.999756 409.709106,505.001251 
	C394.747070,505.001526 388.012543,511.691681 387.998230,526.538452 
	C387.993225,531.704285 388.168091,536.880920 387.896454,542.033508 
	C387.416138,551.144165 380.161041,558.343262 371.209991,558.924988 
	C362.041962,559.520813 352.924042,553.110779 352.452118,543.976013 
	C351.880371,532.908813 351.499115,521.426697 353.762054,510.699310 
	C359.060394,485.582916 380.808716,469.116089 406.559387,469.019989 
	C431.724152,468.926056 456.889526,468.999512 482.054657,468.999481 
	C483.653656,468.999481 485.252686,468.999451 487.812805,468.999451 
	C458.031586,431.239624 438.763916,389.615448 429.591583,343.019989 
	C411.400757,343.833221 395.689606,338.353485 383.510406,324.593201 
	C374.566010,314.487701 369.971161,302.512390 370.048798,289.000061 
	C370.140564,273.026276 376.205200,259.514526 388.083893,248.816437 
	C399.817871,238.248627 413.894104,234.149231 429.383362,235.051239 
	C456.192871,97.781242 574.033264,7.845884 694.761353,1.354145 
	C706.020874,1.000000 717.041809,1.000000 728.531372,0.999999 
M956.309387,234.973129 
	C955.976013,231.634995 956.097168,228.175568 955.243469,224.976318 
	C928.356689,124.225517 844.333557,51.301262 740.715515,38.840866 
	C690.561951,32.809738 642.746033,41.331043 598.091003,64.638512 
	C532.835876,98.698082 489.906372,151.528214 469.361359,222.342682 
	C468.186371,226.392609 467.382477,230.550186 466.325226,234.996826 
	C629.790283,234.996826 792.568604,234.996826 956.309387,234.973129 
M648.500000,306.999176 
	C764.331421,306.999176 880.162781,306.999847 995.994202,306.993439 
	C997.992554,306.993347 1000.007568,307.057465 1001.986572,306.837524 
	C1013.700989,305.535675 1021.039307,293.310608 1016.693359,282.426514 
	C1013.620300,274.730286 1007.212036,271.002838 996.983704,271.002686 
	C806.987000,271.000153 616.990356,271.000488 426.993652,271.006622 
	C425.328674,271.006683 423.649811,270.972046 422.000916,271.159912 
	C409.222565,272.615814 402.008881,286.668549 408.405457,297.802917 
	C412.387756,304.734711 418.734985,307.053131 426.503906,307.045013 
	C500.169189,306.968048 573.834595,306.999176 648.500000,306.999176 
z"/>
<path fill="#FFCFB0" opacity="1.000000" stroke="none" 
	d="
M852.000000,1081.000000 
	C758.979126,1081.000000 665.958191,1081.000000 572.663696,1080.707031 
	C583.027100,1076.647705 586.711609,1069.977173 585.747192,1057.333130 
	C583.722107,1030.783813 581.904724,1004.218506 579.990234,977.660645 
	C577.453552,942.471069 574.893127,907.283203 572.368713,872.092773 
	C571.347961,857.862854 570.395386,843.628113 569.400635,829.234680 
	C664.663696,829.234680 759.572510,829.234680 854.584045,829.234680 
	C854.242676,834.453186 853.942261,839.435303 853.587036,844.413452 
	C851.063782,879.770813 848.525696,915.127136 845.999390,950.484253 
	C843.485107,985.672546 841.086304,1020.869446 838.416382,1056.045898 
	C837.353394,1070.050537 839.762573,1074.969360 852.000000,1081.000000 
z"/>
<path fill="#010101" opacity="1.000000" stroke="none" 
	d="
M852.444153,1081.000000 
	C839.762573,1074.969360 837.353394,1070.050537 838.416382,1056.045898 
	C841.086304,1020.869446 843.485107,985.672546 845.999390,950.484253 
	C848.525696,915.127136 851.063782,879.770813 853.587036,844.413452 
	C853.942261,839.435303 854.242676,834.453186 854.584045,829.234680 
	C759.572510,829.234680 664.663696,829.234680 569.400635,829.234680 
	C570.395386,843.628113 571.347961,857.862854 572.368713,872.092773 
	C574.893127,907.283203 577.453552,942.471069 579.990234,977.660645 
	C581.904724,1004.218506 583.722107,1030.783813 585.747192,1057.333130 
	C586.711609,1069.977173 583.027100,1076.647705 572.195068,1080.707031 
	C569.299988,1081.000000 566.599976,1081.000000 563.449951,1081.000000 
	C562.242188,1080.446289 561.550110,1079.752686 560.716248,1079.360840 
	C553.860413,1076.138794 550.523499,1070.654907 549.987305,1063.209595 
	C546.066406,1008.766052 542.096252,954.325989 538.185303,899.881714 
	C536.682861,878.966248 535.301880,858.042114 533.844788,837.123352 
	C533.662842,834.511230 533.352783,831.908081 533.073242,829.000854 
	C530.948730,829.000854 529.137817,829.000854 527.326904,829.000854 
	C487.665253,829.000854 448.003632,829.006775 408.341980,828.998962 
	C375.399567,828.992554 352.007538,805.661438 352.001648,772.795471 
	C351.992218,720.302124 352.035889,667.808716 351.960815,615.315491 
	C351.949097,607.119202 354.622894,600.634888 362.235107,596.893188 
	C373.384857,591.412720 386.552338,598.760925 387.852875,611.132507 
	C388.043793,612.948608 387.995300,614.793640 387.995544,616.625305 
	C388.002167,668.285400 387.998779,719.945557 388.002228,771.605652 
	C388.003204,786.168030 394.816895,792.997681 409.349365,792.997803 
	C611.157104,792.999817 812.964844,792.999939 1014.772583,792.997314 
	C1029.047974,792.997131 1035.984619,786.118225 1035.997437,771.968811 
	C1036.006836,761.470154 1035.952026,750.971191 1036.012207,740.472839 
	C1036.077881,729.006042 1043.748291,720.869141 1054.244507,721.007568 
	C1064.530640,721.143250 1072.028076,729.199829 1071.963379,740.468079 
	C1071.881836,754.614990 1072.798340,768.922180 1071.021606,782.871948 
	C1067.557739,810.066223 1044.935303,828.869995 1017.470520,828.979980 
	C992.807312,829.078796 968.143494,829.000854 943.479919,829.000854 
	C927.648621,829.000854 911.817261,829.000854 895.985962,829.000854 
	C894.348083,829.000854 892.710205,829.000854 890.799805,829.000854 
	C889.897095,841.160828 889.000977,852.925720 888.153931,864.694214 
	C884.497620,915.495300 880.848938,966.296997 877.212524,1017.099548 
	C876.119202,1032.374268 875.052734,1047.651001 874.015259,1062.929565 
	C873.398499,1072.013550 868.892822,1077.755371 860.123230,1080.658936 
	C857.629456,1081.000000 855.258850,1081.000000 852.444153,1081.000000 
z"/>
<path fill="#010100" opacity="1.000000" stroke="none" 
	d="
M384.468658,1081.000000 
	C373.351471,1076.994385 369.727997,1069.170898 369.858704,1058.038696 
	C370.249939,1024.726562 369.994232,991.406799 370.001801,958.090027 
	C370.005005,943.883972 376.892578,937.006409 391.114349,937.001648 
	C413.936340,936.994019 436.758484,936.960815 459.580292,937.025024 
	C466.826691,937.045410 472.410919,940.237854 475.850647,946.690857 
	C479.100983,952.788574 478.737976,958.903381 475.042969,964.681458 
	C471.328918,970.489136 465.783417,973.012878 458.969330,973.005615 
	C443.143860,972.988708 427.318390,973.000549 411.492920,973.000671 
	C409.852081,973.000671 408.211243,973.000610 406.286621,973.000610 
	C406.286621,978.990051 406.286621,984.722290 406.286621,990.999756 
	C417.884979,990.999756 429.484528,991.016174 441.083984,990.993347 
	C447.500275,990.980713 452.838745,993.284729 456.554077,998.570374 
	C460.605743,1004.334412 461.232330,1010.576599 458.022156,1016.950745 
	C454.725464,1023.496582 449.200806,1026.850098 441.964813,1026.951782 
	C430.166107,1027.117554 418.363312,1026.996460 406.282288,1026.996460 
	C406.282288,1032.998901 406.282288,1038.730957 406.282288,1044.999512 
	C411.725861,1044.999512 417.165588,1044.999634 422.605347,1044.999634 
	C434.599396,1044.999634 446.593628,1044.954590 458.587402,1045.013184 
	C468.858215,1045.063477 476.389008,1051.112305 477.815002,1060.309082 
	C479.196014,1069.216064 474.038940,1076.948120 464.200256,1080.710693 
	C437.645782,1081.000000 411.291534,1081.000000 384.468658,1081.000000 
z"/>
<path fill="#010101" opacity="1.000000" stroke="none" 
	d="
M276.444153,1081.000000 
	C268.037262,1078.101807 263.901123,1072.232788 261.311035,1064.254150 
	C250.250458,1030.182007 238.755615,996.250916 227.460480,962.254578 
	C224.397476,953.035583 226.834198,944.936401 233.931702,940.167480 
	C240.649994,935.653198 249.333984,935.648560 255.174530,941.169067 
	C258.156464,943.987549 260.451508,948.033386 261.834290,951.955566 
	C267.513824,968.065491 272.719177,984.342590 278.114746,1000.552917 
	C278.565552,1001.907288 279.133698,1003.222717 280.073273,1005.662292 
	C282.570618,998.308411 284.741638,991.981262 286.868103,985.639221 
	C290.822754,973.844910 294.683319,962.018677 298.711151,950.249573 
	C302.297363,939.770935 311.610016,934.783081 321.402100,937.913269 
	C331.126007,941.021606 336.280670,950.754211 332.884979,961.085632 
	C321.077820,997.008545 309.009308,1032.845703 296.995270,1068.700439 
	C294.940796,1074.831787 290.607544,1078.672852 284.199707,1080.709717 
	C281.629425,1081.000000 279.258881,1081.000000 276.444153,1081.000000 
z"/>
<path fill="#010100" opacity="1.000000" stroke="none" 
	d="
M24.468658,1081.000000 
	C13.365166,1076.994507 9.730244,1069.185913 9.858430,1058.056030 
	C10.247621,1024.263672 10.027909,990.464050 9.978971,956.667358 
	C9.967012,948.408081 13.127595,942.103760 20.794815,938.615601 
	C32.869251,933.122314 45.872665,941.895935 45.962032,955.718750 
	C46.104107,977.694031 46.000427,999.670898 46.000645,1021.647095 
	C46.000721,1029.269897 46.000656,1036.892822 46.000656,1044.999512 
	C57.772343,1044.999512 69.205032,1044.999634 80.637718,1044.999634 
	C86.631226,1044.999634 92.625084,1044.958496 98.618172,1045.008911 
	C108.868744,1045.095093 116.399078,1051.130371 117.816002,1060.324097 
	C119.188339,1069.228394 114.033508,1076.950684 104.200264,1080.710693 
	C77.645775,1081.000000 51.291542,1081.000000 24.468658,1081.000000 
z"/>
<path fill="#010101" opacity="1.000000" stroke="none" 
	d="
M168.444168,1081.000000 
	C157.349030,1076.994751 153.729660,1069.168823 153.858444,1058.036499 
	C154.247681,1024.388428 154.052246,990.732666 153.955566,957.080322 
	C153.935501,950.101746 156.001358,944.234863 161.811325,940.212585 
	C173.286453,932.268311 188.930527,939.892883 189.898941,953.848694 
	C190.140610,957.331421 189.997330,960.842102 189.997879,964.339966 
	C190.003036,996.659851 190.020248,1028.979736 189.989426,1061.299561 
	C189.979874,1071.322510 185.873734,1077.008179 176.200424,1080.710815 
	C173.629440,1081.000000 171.258896,1081.000000 168.444168,1081.000000 
z"/>
<path fill="#010101" opacity="1.000000" stroke="none" 
	d="
M762.749390,702.729126 
	C759.428772,710.933472 756.367798,718.827637 753.066284,726.619873 
	C749.410889,735.247437 741.966003,739.939636 734.016541,738.918213 
	C725.370850,737.807312 719.538574,731.727844 717.971741,722.313293 
	C710.163330,675.394470 702.351868,628.476196 694.502319,581.564270 
	C692.636169,570.411499 698.646912,561.140930 709.154236,559.211548 
	C719.143616,557.377258 728.192139,564.611938 730.046936,575.846680 
	C734.083557,600.296326 738.148132,624.741272 742.219788,649.185059 
	C742.437134,650.489807 742.825562,651.766174 743.360779,654.001831 
	C748.447144,641.318176 753.218140,629.415588 757.993530,617.514832 
	C760.960571,610.120483 763.898987,602.714417 766.914551,595.339844 
	C770.142273,587.446411 776.314148,583.019775 783.959106,583.001221 
	C791.622192,582.982605 797.877502,587.380798 801.059021,595.262878 
	C808.818848,614.487793 816.504700,633.742554 824.757690,654.325623 
	C826.604980,643.591187 828.273621,634.130798 829.854614,624.655701 
	C832.619263,608.087097 835.284302,591.501831 838.079773,574.938477 
	C839.860046,564.390503 849.029297,557.479614 858.747009,559.195862 
	C869.062805,561.017761 875.421326,570.282898 873.636230,580.990906 
	C865.760254,628.234924 857.866821,675.476074 849.975403,722.717529 
	C848.439087,731.914307 842.180542,738.096802 833.560364,738.962036 
	C825.602051,739.760803 818.291687,735.061523 814.946838,726.756958 
	C805.273621,702.740540 795.675232,678.693970 786.039246,654.662476 
	C785.517700,653.361694 784.921692,652.090820 783.900330,649.753052 
	C776.620911,667.995850 769.761902,685.184937 762.749390,702.729126 
z"/>
<path fill="#010100" opacity="1.000000" stroke="none" 
	d="
M444.501038,738.829529 
	C431.912354,739.205933 424.039429,731.898193 424.024261,719.883057 
	C423.964508,672.567871 423.975708,625.252563 424.019836,577.937256 
	C424.028748,568.373962 429.447845,561.511108 438.318665,559.396179 
	C446.232697,557.509338 454.283112,561.462158 458.452179,569.720337 
	C470.053528,592.700745 481.507904,615.755310 493.024597,638.778442 
	C493.738037,640.204651 494.488495,641.612427 495.999481,642.913574 
	C495.999481,641.177917 495.999451,639.442200 495.999481,637.706543 
	C495.999512,618.047363 495.966797,598.388123 496.011932,578.729004 
	C496.038544,567.155823 503.513062,559.019470 513.981384,559.007935 
	C524.454712,558.996399 531.979187,567.135010 531.987122,578.698242 
	C532.019287,625.680359 532.016968,672.662415 531.987061,719.644531 
	C531.980713,729.585327 526.659119,736.496765 517.599548,738.627075 
	C509.559448,740.517639 501.577423,736.384827 497.256104,727.790222 
	C485.768036,704.941895 474.382446,682.042053 462.951141,659.165100 
	C462.245941,657.753845 461.498016,656.363953 460.000519,655.125427 
	C460.000519,660.867920 460.000519,666.610352 460.000519,672.352844 
	C460.000519,687.680359 460.011169,703.007812 459.997070,718.335327 
	C459.986450,729.865540 455.870178,735.431396 444.501038,738.829529 
z"/>
<path fill="#020101" opacity="1.000000" stroke="none" 
	d="
M979.344482,570.644165 
	C992.354492,581.224670 999.074402,594.676575 999.924744,610.988831 
	C1000.502869,622.079956 993.063538,630.545166 982.766479,630.964539 
	C972.604797,631.378357 964.798401,623.928955 963.998474,613.054932 
	C963.193420,602.111572 955.445190,594.646973 945.294983,595.036072 
	C935.783142,595.400696 928.034180,603.435913 928.010803,612.958679 
	C927.986023,623.073425 935.718506,630.533752 946.708801,630.998474 
	C975.018188,632.195679 996.675842,652.092041 999.802673,679.774414 
	C1002.754761,705.909729 985.114197,730.562622 958.512878,737.477295 
	C925.733826,745.997742 891.863708,719.586670 891.999207,685.611511 
	C892.039612,675.479187 899.377014,667.517395 909.107300,667.047546 
	C919.095337,666.565247 927.148071,673.942017 927.973206,684.329834 
	C929.058289,697.991638 940.168213,706.147827 951.935486,701.921387 
	C959.935181,699.048157 964.939819,690.947510 963.833801,682.662476 
	C962.669983,673.944580 955.536743,667.295593 946.393066,667.076721 
	C932.707336,666.749023 920.611389,662.458435 910.313538,653.437744 
	C888.471130,634.304077 885.867188,601.645813 904.273743,578.772644 
	C922.471680,556.158691 954.966614,552.528137 979.344482,570.644165 
z"/>
<path fill="#010100" opacity="1.000000" stroke="none" 
	d="
M667.174805,736.395752 
	C663.339783,737.404053 659.825195,738.861145 656.297607,738.893433 
	C633.476501,739.102295 610.652466,739.030273 587.829529,738.988647 
	C575.294189,738.965759 568.018982,731.685242 568.011169,719.126282 
	C567.982056,672.314087 567.978333,625.501953 568.013916,578.689758 
	C568.023254,566.431396 575.346619,559.047119 587.517761,559.016418 
	C610.507202,558.958313 633.496948,558.961670 656.486450,559.015625 
	C667.973938,559.042664 676.102722,566.704163 675.992249,577.201294 
	C675.883911,587.497681 667.826355,594.945923 656.560669,594.984680 
	C639.252136,595.044189 621.943298,595.000305 604.317932,595.000305 
	C604.317932,606.924316 604.317932,618.656189 604.317932,630.999512 
	C614.639526,630.999512 625.065247,630.968262 635.490479,631.020081 
	C638.309265,631.034058 641.213196,630.912842 643.929077,631.520081 
	C652.894165,633.524536 658.718628,641.718750 657.888367,650.699097 
	C657.064209,659.613647 649.752197,666.722961 640.555115,666.910706 
	C628.583496,667.155090 616.603088,666.970581 604.314087,666.970581 
	C604.314087,678.932251 604.314087,690.663940 604.314087,702.999512 
	C606.152893,702.999512 608.082886,702.999451 610.012939,702.999512 
	C625.672546,702.999634 641.332336,702.947449 656.991577,703.019958 
	C666.092957,703.062134 672.578552,707.742249 675.118347,715.827881 
	C677.552124,723.575867 674.880371,730.705261 667.174805,736.395752 
z"/>
<path fill="#020101" opacity="1.000000" stroke="none" 
	d="
M287.093933,757.904114 
	C295.272461,764.750916 303.357849,771.180298 310.953857,778.143494 
	C318.919189,785.445251 319.298340,796.584229 312.400299,803.998535 
	C305.473206,811.444092 294.342926,811.824829 286.521515,804.265686 
	C263.590576,782.103394 236.908508,766.826904 205.527893,760.711060 
	C151.116394,750.106506 103.055733,763.362427 61.746708,800.471069 
	C56.501846,805.182678 51.571148,810.354309 43.730396,809.644836 
	C36.116650,808.955872 30.511484,805.111328 27.913279,797.803833 
	C25.333179,790.547241 27.023914,784.046692 32.502068,778.591614 
	C52.348347,758.828979 75.208038,743.525818 101.575424,734.107605 
	C167.200211,710.666809 229.041382,718.535522 287.093933,757.904114 
z"/>
<path fill="#020101" opacity="1.000000" stroke="none" 
	d="
M216.870697,841.057190 
	C184.545334,822.032532 141.555832,826.095886 113.569008,850.631104 
	C111.565849,852.387268 109.638062,854.231812 107.596115,855.940735 
	C99.904434,862.378052 89.446724,862.028137 82.754669,855.153076 
	C76.135742,848.352905 75.537041,837.106262 82.750237,830.399353 
	C90.621704,823.080505 99.043915,816.017700 108.219910,810.494446 
	C156.068024,781.693359 218.392242,789.009338 258.758545,827.605530 
	C268.374481,836.799866 268.705719,849.438782 259.519470,856.641907 
	C252.631790,862.042664 243.514832,861.723938 236.536316,856.120300 
	C230.192978,851.026733 223.652878,846.178162 216.870697,841.057190 
z"/>
<path fill="#020101" opacity="1.000000" stroke="none" 
	d="
M191.694885,910.524231 
	C189.231827,909.067261 186.952911,907.991333 185.025085,906.470398 
	C175.749802,899.152771 168.029175,899.031189 159.004669,906.550415 
	C152.916992,911.622620 146.240219,913.015442 139.055283,909.815247 
	C127.550552,904.691040 125.116394,889.695312 134.078598,880.541870 
	C154.107468,860.085266 189.338928,859.999268 209.736038,880.357239 
	C215.659439,886.269287 217.041000,894.668274 213.279449,901.898376 
	C209.351059,909.449158 202.152679,912.432373 191.694885,910.524231 
z"/>
<path fill="#FFCFB0" opacity="1.000000" stroke="none" 
	d="
M955.828186,234.984985 
	C792.568604,234.996826 629.790283,234.996826 466.325226,234.996826 
	C467.382477,230.550186 468.186371,226.392609 469.361359,222.342682 
	C489.906372,151.528214 532.835876,98.698082 598.091003,64.638512 
	C642.746033,41.331043 690.561951,32.809738 740.715515,38.840866 
	C844.333557,51.301262 928.356689,124.225517 955.243469,224.976318 
	C956.097168,228.175568 955.976013,231.634995 955.828186,234.984985 
z"/>
<path fill="#FFCFB0" opacity="1.000000" stroke="none" 
	d="
M648.000000,306.999176 
	C573.834595,306.999176 500.169189,306.968048 426.503906,307.045013 
	C418.734985,307.053131 412.387756,304.734711 408.405457,297.802917 
	C402.008881,286.668549 409.222565,272.615814 422.000916,271.159912 
	C423.649811,270.972046 425.328674,271.006683 426.993652,271.006622 
	C616.990356,271.000488 806.987000,271.000153 996.983704,271.002686 
	C1007.212036,271.002838 1013.620300,274.730286 1016.693359,282.426514 
	C1021.039307,293.310608 1013.700989,305.535675 1001.986572,306.837524 
	C1000.007568,307.057465 997.992554,306.993347 995.994202,306.993439 
	C880.162781,306.999847 764.331421,306.999176 648.000000,306.999176 
z"/>
</svg>