<svg version="1.1" id="Layer_1" xmlns="http://www.w3.org/2000/svg" xmlns:xlink="http://www.w3.org/1999/xlink" x="0px" y="0px"
	 width="100%" viewBox="0 0 1024 1024" enable-background="new 0 0 1024 1024" xml:space="preserve">
<path fill="#000000" opacity="1.000000" stroke="none" 
	d="
M347.541931,1.000000 
	C357.806732,6.716049 358.611572,17.385967 354.416443,26.301340 
	C349.523956,36.698654 345.140625,47.345207 339.970215,57.598122 
	C337.252258,62.987843 340.154694,69.101234 344.628967,71.003914 
	C349.884552,73.238853 354.511353,71.571495 357.317322,65.787369 
	C364.587280,50.801193 371.741608,35.758751 378.898346,20.717955 
	C380.705017,16.921024 382.887482,13.408824 385.900452,10.455900 
	C392.362793,4.122420 400.498077,2.519057 407.874756,6.101748 
	C414.693451,9.413448 418.745087,17.779242 417.700439,26.339600 
	C417.088806,31.351559 415.514099,36.043198 413.289368,40.566769 
	C406.085114,55.215244 398.933258,69.889534 391.794983,84.570282 
	C391.071167,86.058876 390.505890,87.635544 389.988678,89.211281 
	C388.985687,92.267097 390.035858,94.851524 392.326263,96.815216 
	C394.803802,98.939407 397.679596,99.330673 400.716461,97.852386 
	C404.073212,96.218391 405.848145,93.266502 407.468567,90.101257 
	C416.727875,72.014389 425.942200,53.903481 435.360901,35.899662 
	C439.789093,27.435236 446.736420,22.557014 456.628052,22.677355 
	C471.053467,22.852848 479.366211,36.420017 473.095978,49.463531 
	C462.561096,71.378448 452.053131,93.306343 441.556152,115.239456 
	C440.030457,118.427437 438.625793,121.677376 440.732697,125.185570 
	C444.239685,131.024948 451.573334,130.880386 454.780823,124.602608 
	C464.103882,106.355118 473.664612,88.202705 482.146881,69.564613 
	C485.661194,61.842556 494.348755,55.039597 506.201752,56.857239 
	C516.105957,58.376034 523.587585,67.220901 524.340332,77.367416 
	C524.821045,83.846786 522.421387,89.574829 519.846375,95.095505 
	C493.636017,151.288269 471.503693,209.158920 448.872498,266.826508 
	C445.255707,276.042603 449.589722,283.052704 459.511810,283.003326 
	C469.996857,282.951202 480.478241,282.246338 490.962311,281.855469 
	C492.925232,281.782288 494.893250,281.845032 496.506653,281.845032 
	C497.881897,283.577423 497.252319,284.833191 496.750610,286.033905 
	C493.089691,294.795624 489.252899,303.468811 484.742676,311.844910 
	C481.966980,316.999847 477.349213,319.744659 472.529755,322.497986 
	C444.773285,338.355164 415.123749,349.796326 385.041321,360.253174 
	C375.131195,363.697968 365.363983,367.468811 355.867249,371.995148 
	C346.667847,376.379730 339.782043,382.979553 334.299103,391.450012 
	C324.318573,406.868652 316.096283,423.237488 307.711182,439.526794 
	C306.970764,440.965118 306.713501,442.743439 304.994141,443.647919 
	C303.021881,443.487915 302.458832,441.754150 301.593384,440.424347 
	C272.146942,395.179840 243.362183,349.527985 216.291504,302.806396 
	C213.878769,298.642212 214.404602,295.198822 215.521866,291.064575 
	C224.510040,257.805511 231.862244,224.188385 238.106781,190.296799 
	C244.105743,157.738113 255.921631,127.423294 273.640076,99.215851 
	C290.736023,71.999397 306.633484,44.026821 322.876373,16.280405 
	C326.401215,10.259150 330.356445,4.897550 336.802429,1.268060 
	C340.361298,1.000000 343.722565,1.000000 347.541931,1.000000 
z"/>
<path fill="#000000" opacity="1.000000" stroke="none" 
	d="
M599.464661,1025.000000 
	C589.334473,1015.203247 589.059204,1007.288025 597.851624,996.212158 
	C604.689148,987.598999 611.419617,978.900696 618.189453,970.233826 
	C621.756348,965.667358 621.553711,960.891907 617.665283,957.347656 
	C613.927673,953.940857 608.086243,954.267212 604.305115,958.579224 
	C598.047119,965.715881 592.062622,973.092957 585.987976,980.389587 
	C580.872192,986.534546 576.015381,992.912598 570.637085,998.816956 
	C564.439331,1005.621033 557.075989,1010.412598 547.253235,1007.692078 
	C535.731262,1004.500854 531.149902,994.092773 535.577759,981.804016 
	C537.414856,976.705566 540.532532,972.392517 543.973633,968.287598 
	C554.034973,956.285400 564.118591,944.301758 574.160889,932.283630 
	C579.509521,925.882629 579.957703,921.939514 575.866882,918.374817 
	C571.915100,914.931274 567.324890,915.878052 562.138184,921.730835 
	C548.548828,937.064941 535.082336,952.508118 521.600220,967.936951 
	C513.493652,977.213989 501.996246,979.904541 491.911621,974.797424 
	C481.508850,969.529114 479.196045,954.969727 487.076782,945.590088 
	C502.618317,927.092285 518.052673,908.504272 533.490723,889.919800 
	C537.546814,885.036987 537.751404,880.412231 534.277832,876.962219 
	C530.731384,873.439880 526.917480,873.532715 523.071655,877.814514 
	C515.726074,885.992859 508.595978,894.365479 501.420532,902.695435 
	C494.680298,910.520203 488.033966,918.425964 481.277222,926.236389 
	C475.671021,932.716919 464.069061,934.609497 455.901459,930.488098 
	C447.418549,926.207581 442.311218,916.225952 444.041168,907.137695 
	C444.926178,902.488159 446.789856,898.297974 449.844421,894.583557 
	C488.181458,847.963196 523.537354,799.098999 558.577026,749.997498 
	C560.706055,747.014038 562.965393,744.122986 565.074585,741.126038 
	C570.249451,733.773254 567.772339,726.306641 559.067017,723.520020 
	C550.726807,720.850281 541.962708,721.120667 533.362732,720.292847 
	C527.779785,719.755493 522.184875,719.342346 516.954956,718.903687 
	C515.776245,716.846313 516.903992,715.879761 517.650635,714.826599 
	C523.938782,705.957703 531.176575,697.922729 539.083191,690.478516 
	C543.169434,686.631226 547.939148,684.292175 553.410522,682.774719 
	C588.874390,672.938721 625.226013,668.931213 661.720947,665.670837 
	C668.664062,665.050537 675.565308,663.703979 682.412842,662.329102 
	C693.138550,660.175537 701.483582,653.833435 708.934204,646.242004 
	C716.259644,638.778198 723.377319,631.110535 730.504395,623.618347 
	C732.841553,623.968689 733.101440,625.856995 733.758972,627.280823 
	C754.991455,673.258545 776.159668,719.266113 797.465637,765.209778 
	C798.986511,768.489380 798.617004,770.894348 796.898193,773.953735 
	C780.488037,803.163269 765.466553,833.092957 751.791443,863.668762 
	C737.241272,896.201050 717.113831,924.485840 691.163879,949.027954 
	C667.451294,971.454163 644.822998,995.027283 621.739502,1018.117615 
	C619.249084,1020.608765 616.582336,1022.835571 613.259766,1024.789551 
	C608.643127,1025.000000 604.286194,1025.000000 599.464661,1025.000000 
z"/>
<path fill="#000000" opacity="1.000000" stroke="none" 
	d="
M997.365601,638.738037 
	C1002.157715,655.267334 1006.869507,671.400085 1011.547241,687.542664 
	C1012.833557,691.981812 1012.839294,696.436768 1011.111511,700.765930 
	C1007.087158,710.849548 996.159607,713.555847 987.794312,706.588623 
	C984.638672,703.960388 982.614441,700.547974 981.016724,696.833923 
	C976.476013,686.278442 972.015747,675.687073 967.345642,665.189026 
	C964.643677,659.115356 959.649170,656.997986 954.504150,659.357422 
	C949.330933,661.729797 947.674622,666.687195 950.062256,672.757019 
	C956.523438,689.182983 963.098267,705.565247 969.424316,722.042969 
	C972.605591,730.329346 972.598389,738.330200 965.839111,745.220520 
	C957.853943,753.360657 947.603699,753.498108 939.341248,745.481812 
	C935.057861,741.325989 932.447632,736.145630 930.310242,730.668823 
	C924.377197,715.465637 918.434204,700.266235 912.445068,685.085083 
	C911.778381,683.395264 910.957703,681.713928 909.914368,680.236328 
	C907.988342,677.508606 905.193726,676.535828 901.990479,677.399170 
	C898.569397,678.321350 896.774841,680.778137 896.370850,684.268677 
	C896.071533,686.854919 897.029785,689.174377 897.885315,691.526855 
	C904.884827,710.773560 911.952576,729.996033 918.825623,749.287903 
	C922.754883,760.316895 920.434875,769.502014 912.381592,776.484375 
	C902.654297,784.918091 888.354736,781.274292 883.626160,769.241394 
	C875.221985,747.855286 866.747070,726.496948 858.276611,705.136963 
	C857.418030,702.971863 856.542847,700.787476 855.404419,698.764465 
	C852.909912,694.331543 848.084900,692.689575 843.911865,694.669189 
	C840.089966,696.482361 838.669617,700.449463 840.479614,705.299500 
	C847.698059,724.641846 854.783447,744.039124 862.381287,763.232788 
	C867.461548,776.066406 858.535034,789.557556 848.794983,791.763672 
	C838.032227,794.201538 826.998291,788.575378 822.046814,778.580322 
	C818.576843,771.575867 815.523315,764.347900 812.603577,757.091064 
	C797.238708,718.903625 779.863525,681.633301 761.707581,644.710388 
	C754.873169,630.811523 748.298157,616.785095 741.605103,602.816772 
	C738.893738,597.158264 733.223450,595.029968 727.405945,597.556519 
	C723.322083,599.330200 720.275574,602.355835 717.539734,605.795776 
	C710.715820,614.375793 703.819092,622.897827 697.203430,631.129700 
	C694.821228,631.206482 694.464661,629.727783 693.927368,628.588196 
	C689.872559,619.988098 686.832825,611.009216 683.661072,602.054199 
	C680.166931,592.188904 682.904907,582.970520 685.232300,573.669250 
	C692.372009,545.135986 703.503296,518.045776 715.240234,491.163757 
	C720.561218,478.976837 725.819885,466.748779 728.116821,453.453033 
	C729.391602,446.073975 727.661438,439.209961 725.936340,432.313721 
	C717.989807,400.546478 705.310547,370.433594 693.426025,340.045410 
	C692.709534,338.213318 691.536926,336.501343 691.752930,334.074951 
	C695.352783,331.820068 699.701660,332.295441 703.666870,331.918762 
	C721.214417,330.251740 738.766968,328.644989 756.369141,327.500122 
	C784.290894,325.684143 812.216492,324.668182 840.191284,324.519653 
	C844.704651,324.495697 847.007507,325.715881 848.572632,330.160583 
	C856.369202,352.301605 864.669189,374.265198 872.485352,396.399536 
	C877.450256,410.459290 886.517029,422.072083 894.429871,434.344452 
	C910.321167,458.991180 927.692810,482.619873 944.746582,506.471649 
	C964.452759,534.033142 977.347961,564.728577 985.304199,597.656128 
	C988.620728,611.381775 993.243469,624.791748 997.365601,638.738037 
z"/>
<path fill="#000000" opacity="1.000000" stroke="none" 
	d="
M827.997925,129.955063 
	C824.504395,130.041245 821.507446,130.155716 818.509521,130.190216 
	C811.812378,130.267288 808.306030,133.499847 808.330872,139.629105 
	C808.353455,145.209274 812.076538,148.551346 818.596619,148.643112 
	C829.759705,148.800171 840.955078,148.391022 852.078064,149.118683 
	C860.849731,149.692520 869.790344,148.471649 878.396973,150.912292 
	C892.987366,155.049835 898.505127,171.779739 888.580994,181.969101 
	C883.440796,187.246552 876.687317,189.199066 869.471924,189.289673 
	C851.484253,189.515579 833.500671,189.254639 815.529480,188.384888 
	C813.347534,188.279282 811.217529,188.455338 809.122681,189.159348 
	C806.567993,190.017868 804.680420,191.468445 804.313293,194.298782 
	C803.907654,197.426315 804.272522,200.312134 807.215088,202.246033 
	C809.497498,203.746048 811.977112,204.515732 814.722473,204.620468 
	C835.024170,205.394974 855.324768,206.200790 875.625122,207.010422 
	C888.298340,207.515884 896.629944,213.891205 899.452454,225.208908 
	C901.333679,232.752518 898.717224,239.492340 892.335144,243.863266 
	C886.661865,247.748749 880.322815,248.255051 873.694885,248.124237 
	C852.209778,247.700211 830.721130,247.459229 809.233643,247.157349 
	C808.068604,247.140976 806.892090,247.123871 805.738464,247.257675 
	C800.773132,247.833725 797.901367,251.188370 798.210388,256.078156 
	C798.519775,260.973236 801.798035,262.512451 806.048462,262.656616 
	C819.531860,263.113861 833.018555,263.471130 846.502686,263.910156 
	C854.158691,264.159424 861.820190,264.359192 869.464539,264.822296 
	C879.030457,265.401764 887.469604,274.095123 889.000549,284.648193 
	C890.304138,293.634155 884.455261,303.566132 875.671753,307.083435 
	C871.936340,308.579285 868.032288,309.288666 863.965759,309.287140 
	C847.301147,309.280884 830.636169,309.462250 813.972046,309.391083 
	C778.143921,309.238068 742.414612,311.217773 706.720032,314.076019 
	C697.101501,314.846252 687.466125,315.415710 677.853577,316.251007 
	C670.050293,316.929077 665.380615,323.509430 668.325012,330.724060 
	C672.279358,340.413544 677.187683,349.712219 681.631714,359.204224 
	C683.023193,362.176392 684.237915,365.231262 685.631470,368.476379 
	C684.562622,368.892517 683.985107,369.314117 683.408569,369.312805 
	C671.436218,369.285339 659.436890,370.075317 647.570251,367.479492 
	C643.582825,366.607208 639.960449,365.282562 636.613525,362.946991 
	C613.284241,346.667389 592.418884,327.573395 572.599915,307.255554 
	C562.246338,296.641327 551.771912,286.150879 541.066711,275.878387 
	C528.221375,263.552307 512.778687,260.655945 495.884186,261.883789 
	C488.250336,262.438599 480.585693,262.244507 472.951355,263.151062 
	C467.912323,263.749420 467.219696,262.529785 469.094360,257.817261 
	C478.882111,233.212738 488.860992,208.682922 498.466675,184.007706 
	C507.053558,161.949661 517.309082,140.626801 526.560242,118.864281 
	C527.591736,116.437798 528.676941,114.615829 531.860107,114.559738 
	C552.618530,114.193947 572.640259,108.929832 592.900269,105.214554 
	C619.915039,100.260574 646.376221,92.830009 673.275635,87.389595 
	C700.138062,81.956673 727.070068,81.988373 754.192749,86.065323 
	C773.415955,88.954842 792.833679,90.558548 812.171143,92.676628 
	C826.055969,94.197479 839.971008,95.461601 853.834167,97.154129 
	C860.601379,97.980324 866.811523,100.312103 870.565735,106.711594 
	C874.506775,113.429573 873.101685,120.221565 866.530151,125.160721 
	C863.135803,127.711899 859.258606,129.201569 854.959351,129.316025 
	C846.138245,129.550858 837.315918,129.739441 827.997925,129.955063 
z"/>
<path fill="#000000" opacity="1.000000" stroke="none" 
	d="
M214.819183,334.211853 
	C236.552856,372.733917 261.337524,408.904510 284.943817,445.815826 
	C288.355225,451.149933 291.624390,456.578949 295.162109,461.827393 
	C299.420746,468.145325 306.210785,468.811584 311.798645,463.644379 
	C315.670441,460.064026 318.090149,455.508850 320.385406,450.858032 
	C324.860931,441.789551 329.387543,432.746246 334.096405,423.283691 
	C338.005493,426.982941 339.711487,431.193115 342.026855,434.971283 
	C343.329865,437.097504 344.227203,439.475189 345.558777,441.580536 
	C353.870056,454.721558 354.368103,468.653931 351.979523,483.749268 
	C346.917908,515.737976 338.611847,546.865845 329.602386,577.870789 
	C327.650818,584.586853 326.344940,591.447815 325.329620,598.377258 
	C323.505524,610.826355 327.417877,622.084778 332.301758,633.142944 
	C335.666351,640.761169 339.236603,648.288452 342.673828,655.874939 
	C343.343414,657.352844 344.514160,658.704773 344.047211,660.959595 
	C338.699249,662.536133 333.008972,661.966980 327.433258,662.105408 
	C305.453583,662.651367 283.447113,662.532410 261.492584,663.558655 
	C240.191132,664.554260 218.911377,665.547729 197.586380,665.066528 
	C191.932404,664.938965 186.284286,664.563965 180.630569,664.407776 
	C178.618210,664.352173 177.180923,663.532471 175.932571,662.026733 
	C152.526215,633.794006 127.795731,606.752380 102.865677,579.862427 
	C81.475227,556.790405 65.844376,530.057922 54.121399,500.754608 
	C42.246826,471.072357 28.996471,441.939423 16.263866,412.602692 
	C14.363493,408.224152 13.255728,403.818146 13.681820,399.036743 
	C14.609431,388.627533 24.023350,382.951569 33.561298,387.144226 
	C37.967197,389.080902 41.322933,392.212952 43.723015,396.412933 
	C49.261169,406.104370 54.855049,415.763977 60.421940,425.439026 
	C61.752377,427.751282 62.937542,430.179657 65.744781,431.121246 
	C70.085274,432.577087 74.054237,431.985291 77.225288,428.599304 
	C80.234787,425.385834 80.096954,421.804962 78.028793,418.007507 
	C69.741585,402.791046 61.492645,387.553192 53.342655,372.262970 
	C50.178104,366.325958 47.720459,360.194855 49.554733,353.168823 
	C52.720066,341.044281 65.305008,335.500122 76.336281,341.417389 
	C82.013367,344.462646 85.707207,349.268463 88.716904,354.774689 
	C97.267288,370.417572 105.824104,386.057190 114.455589,401.655365 
	C117.160210,406.542969 121.208160,408.070526 125.179512,406.006653 
	C129.296906,403.866852 130.844208,399.122864 128.938614,394.373352 
	C128.567490,393.448425 128.069229,392.573608 127.614693,391.683289 
	C118.524605,373.877197 109.399734,356.088837 100.352234,338.261139 
	C94.576843,326.881073 95.518478,316.768158 102.914688,309.111420 
	C109.819412,301.963470 116.964127,301.143005 125.345871,306.522827 
	C129.831177,309.401672 132.824142,313.514282 135.311005,318.140747 
	C145.880859,337.804443 156.523056,357.429199 167.139282,377.067963 
	C167.456116,377.654053 167.746155,378.257629 168.102509,378.818817 
	C171.162491,383.637726 175.609680,385.117157 180.022751,382.798737 
	C184.203476,380.602356 185.155304,376.522705 182.378479,371.112274 
	C176.521027,359.699493 170.520584,348.359955 164.553467,337.003693 
	C161.221283,330.662109 157.778290,324.378235 154.491135,318.013641 
	C148.440765,306.298889 152.111008,293.311127 163.066391,287.396667 
	C173.945724,281.523285 186.462173,285.421021 193.038208,296.732880 
	C200.238708,309.118896 207.436813,321.506348 214.819183,334.211853 
z"/>
<path fill="#000000" opacity="1.000000" stroke="none" 
	d="
M354.576965,677.816040 
	C363.362366,677.260498 368.284332,670.008789 364.836792,662.251892 
	C359.969635,651.301086 354.673859,640.540955 349.587860,629.686890 
	C348.833344,628.076538 347.517914,626.611755 348.133606,623.966309 
	C354.586212,623.966309 361.167084,623.743286 367.724396,624.040527 
	C372.527618,624.258179 377.316589,625.050598 382.081909,625.782227 
	C388.406708,626.753418 394.086884,628.971436 399.354492,632.966309 
	C424.701202,652.189392 446.943817,674.649475 468.372375,698.008606 
	C474.113373,704.266785 480.162415,710.241638 486.030823,716.383972 
	C496.787140,727.642456 510.174042,733.169250 525.459595,734.671997 
	C532.079834,735.322815 538.686157,736.116577 545.297424,736.857483 
	C546.607239,737.004272 547.993835,737.012207 549.167114,738.942261 
	C544.237488,745.855164 539.104309,752.965759 534.061523,760.139893 
	C504.453827,802.261353 473.544678,843.407166 441.624695,883.801514 
	C439.084503,887.016052 436.304657,888.811340 432.179077,889.442139 
	C411.115692,892.662598 390.390320,897.674194 369.471100,901.636597 
	C346.536682,905.980774 323.284058,908.411438 299.916260,906.988586 
	C286.494476,906.171326 273.154633,903.894836 259.800232,902.108276 
	C230.621689,898.204773 201.457779,894.191833 172.287003,890.230286 
	C165.294052,889.280579 158.943542,887.155273 154.958725,880.743286 
	C150.724670,873.930359 152.478943,865.971069 159.190445,861.497437 
	C163.369598,858.711792 168.104355,857.814331 172.994522,857.888062 
	C184.149902,858.056213 195.301727,858.458862 206.457108,858.626953 
	C212.989929,858.725403 216.668701,855.477722 216.827133,849.833984 
	C216.983139,844.276672 213.280914,840.557800 207.023575,840.224182 
	C188.736023,839.249084 170.428070,838.584351 152.161331,837.318665 
	C141.589493,836.586243 134.609665,830.719055 132.657104,822.245422 
	C130.592896,813.287292 134.602310,805.132141 143.133713,800.723572 
	C150.816513,796.753540 158.982376,797.636292 167.136795,798.120911 
	C181.919342,798.999451 196.700226,799.928955 211.491989,800.618652 
	C217.842575,800.914795 221.453232,798.147766 221.668259,793.544861 
	C221.896088,788.667725 217.946533,784.774475 211.896896,784.288025 
	C197.956696,783.166992 184.003677,782.206055 170.059021,781.139038 
	C162.257812,780.542053 154.441635,780.052063 146.669785,779.179199 
	C132.710983,777.611694 122.704933,763.250977 126.967369,751.190796 
	C129.602463,743.735107 138.269669,738.130676 146.082443,738.493469 
	C165.210907,739.381470 184.346741,740.110291 203.478409,740.930969 
	C208.800400,741.159241 214.117050,741.682251 219.438278,741.713928 
	C225.704330,741.751282 229.358810,738.379883 229.486328,732.954712 
	C229.592194,728.450195 225.912415,725.551880 219.665939,725.373291 
	C201.352356,724.849548 183.038467,724.329773 164.722733,723.889954 
	C151.833984,723.580444 141.566681,713.736389 141.710648,701.675415 
	C141.858490,689.287720 151.849503,679.607178 164.836853,679.666809 
	C187.153625,679.769287 209.470169,680.099976 231.784073,680.405029 
	C257.571655,680.757629 283.381897,679.473694 309.182007,678.886292 
	C324.164856,678.545166 339.147064,678.176575 354.576965,677.816040 
z"/>
</svg>