<svg version="1.1" id="Layer_1" xmlns="http://www.w3.org/2000/svg" xmlns:xlink="http://www.w3.org/1999/xlink" x="0px" y="0px"
	 width="100%" viewBox="0 0 1080 1080" enable-background="new 0 0 1080 1080" xml:space="preserve">
<path fill="#FFCFB0" opacity="1.000000" stroke="none" 
	d="
M0.999995,773.000000 
	C1.000000,618.642578 1.000000,464.285187 1.333026,309.666931 
	C6.080689,337.188293 28.887249,358.263367 56.249226,359.845276 
	C91.145882,361.862793 119.488205,335.103729 119.496170,300.094299 
	C119.509399,241.955353 119.499779,183.816406 119.499786,125.677460 
	C119.499786,123.744514 119.499786,121.811577 119.499786,119.499786 
	C122.129250,119.499786 124.101334,119.499794 126.073418,119.499786 
	C184.378952,119.499756 242.684525,119.545395 300.989990,119.480812 
	C331.035858,119.447540 355.824493,97.144905 359.747559,66.845184 
	C363.412079,38.542206 344.172058,10.573057 315.851898,3.040927 
	C313.238525,2.345863 310.617493,1.679620 308.000000,0.999998 
	C463.024078,1.000000 618.048157,1.000000 773.325317,1.336852 
	C746.363220,4.700943 723.915283,28.312557 722.164062,55.753334 
	C719.921570,90.893135 746.688354,119.487305 781.872437,119.495926 
	C839.998840,119.510170 898.125305,119.499794 956.251709,119.499794 
	C958.191162,119.499794 960.130615,119.499802 962.500183,119.499802 
	C962.500183,122.075073 962.500183,124.037537 962.500183,126.000000 
	C962.500183,184.126419 962.467102,242.252853 962.514160,300.379242 
	C962.537720,329.405945 983.025574,353.350159 1012.183411,358.632660 
	C1039.518066,363.584839 1067.421997,347.239594 1077.266235,320.494110 
	C1078.548706,317.010010 1079.757202,313.498688 1081.000000,310.000000 
	C1081.000000,464.024078 1081.000000,618.048157 1080.631836,772.406006 
	C1076.698975,752.946045 1066.256714,737.949158 1048.205444,729.031494 
	C1008.116516,709.227051 962.530029,737.785583 962.507324,782.491577 
	C962.477844,840.459595 962.500122,898.427673 962.500122,956.395691 
	C962.500122,958.321838 962.500061,960.247986 962.500061,962.506714 
	C959.814453,962.506714 957.836853,962.506775 955.859253,962.506775 
	C897.558044,962.506775 839.256897,962.485901 780.955688,962.515320 
	C751.044617,962.530457 727.142273,983.885254 722.414124,1014.709534 
	C718.276489,1041.683716 736.233887,1069.546265 763.253784,1078.098145 
	C766.182068,1079.024902 769.085205,1080.030884 772.000000,1081.000000 
	C617.975952,1081.000000 463.951843,1081.000000 309.613953,1080.636475 
	C337.614227,1076.357422 359.765350,1051.272217 359.999390,1022.858154 
	C360.277405,989.102722 333.955719,962.519897 300.197937,962.511047 
	C242.058914,962.495728 183.919907,962.506775 125.780884,962.506775 
	C123.837967,962.506775 121.895058,962.506714 119.499847,962.506714 
	C119.499847,960.121094 119.499847,958.327942 119.499847,956.534729 
	C119.499847,898.229126 119.511154,839.923523 119.494965,781.617920 
	C119.487114,753.333252 100.315361,729.390381 72.845337,723.282104 
	C45.964851,717.304932 18.166292,731.178711 6.478940,756.711670 
	C4.107851,761.891724 2.798706,767.557922 0.999995,773.000000 
M671.500427,481.506470 
	C647.919495,481.506470 624.338562,481.506470 600.500061,481.506470 
	C600.500061,478.894989 600.505493,477.075500 600.499329,475.256073 
	C600.389404,442.766632 600.868774,410.260803 599.970215,377.793182 
	C599.314209,354.090973 587.013977,336.724030 565.573425,326.894135 
	C544.319885,317.149994 523.602051,319.680176 504.895935,333.757629 
	C488.080627,346.412140 481.357635,364.041809 481.461060,384.765167 
	C481.612335,415.094757 481.499939,445.425598 481.499939,475.755920 
	C481.499939,477.529236 481.499969,479.302582 481.499969,481.506500 
	C478.921234,481.506500 476.957245,481.500763 474.993317,481.507355 
	C442.670410,481.615845 410.333954,481.191528 378.029053,482.010986 
	C353.824677,482.625000 336.238434,495.263947 326.538635,517.090576 
	C316.913666,538.748779 319.939880,559.803101 334.823151,578.464233 
	C347.441101,594.285034 364.574036,600.614258 384.509369,600.532715 
	C415.005829,600.407959 445.503174,600.500061 476.000122,600.500061 
	C477.749207,600.500061 479.498322,600.500061 481.499969,600.500061 
	C481.499969,603.115356 481.494690,604.935669 481.500854,606.756042 
	C481.610657,639.245483 481.153931,671.750183 482.022827,704.219360 
	C482.652039,727.731018 494.822906,745.028503 515.980652,754.912598 
	C537.346069,764.893738 558.252991,762.441345 577.131287,748.219055 
	C593.765625,735.687439 600.588257,718.226257 600.524475,697.688904 
	C600.429749,667.192261 600.500000,636.695007 600.500061,606.198059 
	C600.500061,604.429565 600.500061,602.661133 600.500061,600.500061 
	C603.120667,600.500061 605.089294,600.505859 607.057861,600.499146 
	C639.547302,600.388367 672.047363,600.748474 704.523071,600.022217 
	C733.097839,599.383179 757.829651,575.352234 760.053833,547.441101 
	C762.557556,516.022766 742.997681,488.197510 713.331665,483.249725 
	C699.995361,481.025452 686.127258,481.989258 671.500427,481.506470 
z"/>
<path fill="#000000" opacity="1.000000" stroke="none" 
	d="
M0.999995,773.468628 
	C2.798706,767.557922 4.107851,761.891724 6.478940,756.711670 
	C18.166292,731.178711 45.964851,717.304932 72.845337,723.282104 
	C100.315361,729.390381 119.487114,753.333252 119.494965,781.617920 
	C119.511154,839.923523 119.499847,898.229126 119.499847,956.534729 
	C119.499847,958.327942 119.499847,960.121094 119.499847,962.506714 
	C121.895058,962.506714 123.837967,962.506775 125.780884,962.506775 
	C183.919907,962.506775 242.058914,962.495728 300.197937,962.511047 
	C333.955719,962.519897 360.277405,989.102722 359.999390,1022.858154 
	C359.765350,1051.272217 337.614227,1076.357422 309.150085,1080.636475 
	C223.312439,1081.000000 137.624878,1081.000000 51.332455,1080.644775 
	C24.681673,1074.630615 8.363381,1058.972046 2.058365,1032.990479 
	C1.886674,1032.283081 1.360746,1031.661621 1.000003,1031.000000 
	C1.000000,945.312439 1.000000,859.624878 0.999995,773.468628 
z"/>
<path fill="#000000" opacity="1.000000" stroke="none" 
	d="
M307.531342,0.999998 
	C310.617493,1.679620 313.238525,2.345863 315.851898,3.040927 
	C344.172058,10.573057 363.412079,38.542206 359.747559,66.845184 
	C355.824493,97.144905 331.035858,119.447540 300.989990,119.480812 
	C242.684525,119.545395 184.378952,119.499756 126.073418,119.499786 
	C124.101334,119.499794 122.129250,119.499786 119.499786,119.499786 
	C119.499786,121.811577 119.499786,123.744514 119.499786,125.677460 
	C119.499779,183.816406 119.509399,241.955353 119.496170,300.094299 
	C119.488205,335.103729 91.145882,361.862793 56.249226,359.845276 
	C28.887249,358.263367 6.080689,337.188293 1.333026,309.203064 
	C1.000000,223.312439 1.000000,137.624878 1.347300,51.317551 
	C6.734088,27.011902 20.475760,11.038050 43.646309,3.482496 
	C46.708439,2.483983 49.879429,1.819294 53.000000,1.000000 
	C137.687561,1.000000 222.375122,1.000000 307.531342,0.999998 
z"/>
<path fill="#000000" opacity="1.000000" stroke="none" 
	d="
M772.468628,1081.000000 
	C769.085205,1080.030884 766.182068,1079.024902 763.253784,1078.098145 
	C736.233887,1069.546265 718.276489,1041.683716 722.414124,1014.709534 
	C727.142273,983.885254 751.044617,962.530457 780.955688,962.515320 
	C839.256897,962.485901 897.558044,962.506775 955.859253,962.506775 
	C957.836853,962.506775 959.814453,962.506714 962.500061,962.506714 
	C962.500061,960.247986 962.500122,958.321838 962.500122,956.395691 
	C962.500122,898.427673 962.477844,840.459595 962.507324,782.491577 
	C962.530029,737.785583 1008.116516,709.227051 1048.205444,729.031494 
	C1066.256714,737.949158 1076.698975,752.946045 1080.631836,772.869873 
	C1081.000000,858.687561 1081.000000,944.375183 1080.644775,1030.667603 
	C1075.575195,1054.032593 1062.518677,1069.713501 1040.634033,1077.815063 
	C1037.170898,1079.096924 1033.548706,1079.949097 1030.000000,1081.000000 
	C944.312439,1081.000000 858.624878,1081.000000 772.468628,1081.000000 
z"/>
<path fill="#000000" opacity="1.000000" stroke="none" 
	d="
M1081.000000,309.531311 
	C1079.757202,313.498688 1078.548706,317.010010 1077.266235,320.494110 
	C1067.421997,347.239594 1039.518066,363.584839 1012.183411,358.632660 
	C983.025574,353.350159 962.537720,329.405945 962.514160,300.379242 
	C962.467102,242.252853 962.500183,184.126419 962.500183,126.000000 
	C962.500183,124.037537 962.500183,122.075073 962.500183,119.499802 
	C960.130615,119.499802 958.191162,119.499794 956.251709,119.499794 
	C898.125305,119.499794 839.998840,119.510170 781.872437,119.495926 
	C746.688354,119.487305 719.921570,90.893135 722.164062,55.753334 
	C723.915283,28.312557 746.363220,4.700943 773.789185,1.336852 
	C858.687561,1.000000 943.375061,1.000000 1028.734863,1.334388 
	C1052.482056,5.253605 1068.340820,17.967428 1077.045776,39.561550 
	C1078.667725,43.585186 1079.697021,47.847736 1081.000000,52.000008 
	C1081.000000,137.687561 1081.000000,223.375122 1081.000000,309.531311 
z"/>
<path fill="#FCCDAE" opacity="1.000000" stroke="none" 
	d="
M52.531342,1.000000 
	C49.879429,1.819294 46.708439,2.483983 43.646309,3.482496 
	C20.475760,11.038050 6.734088,27.011902 1.347300,50.848892 
	C1.000000,34.405140 1.000000,17.810280 1.000000,1.000000 
	C18.020288,1.000000 35.041485,1.000000 52.531342,1.000000 
z"/>
<path fill="#FCCDAE" opacity="1.000000" stroke="none" 
	d="
M1081.000000,51.531349 
	C1079.697021,47.847736 1078.667725,43.585186 1077.045776,39.561550 
	C1068.340820,17.967428 1052.482056,5.253605 1029.203613,1.334388 
	C1046.259399,1.000000 1063.518677,1.000000 1081.000000,1.000000 
	C1081.000000,17.686905 1081.000000,34.374794 1081.000000,51.531349 
z"/>
<path fill="#FDCDAF" opacity="1.000000" stroke="none" 
	d="
M1030.468628,1081.000000 
	C1033.548706,1079.949097 1037.170898,1079.096924 1040.634033,1077.815063 
	C1062.518677,1069.713501 1075.575195,1054.032593 1080.644775,1031.136230 
	C1081.000000,1047.594116 1081.000000,1064.188354 1081.000000,1081.000000 
	C1064.312988,1081.000000 1047.625122,1081.000000 1030.468628,1081.000000 
z"/>
<path fill="#FDCDAF" opacity="1.000000" stroke="none" 
	d="
M1.000003,1031.468628 
	C1.360746,1031.661621 1.886674,1032.283081 2.058365,1032.990479 
	C8.363381,1058.972046 24.681673,1074.630615 50.863796,1080.644775 
	C34.406574,1081.000000 17.813150,1081.000000 1.000000,1081.000000 
	C1.000000,1064.646362 1.000000,1048.291870 1.000003,1031.468628 
z"/>
<path fill="#000000" opacity="1.000000" stroke="none" 
	d="
M672.000488,481.506470 
	C686.127258,481.989258 699.995361,481.025452 713.331665,483.249725 
	C742.997681,488.197510 762.557556,516.022766 760.053833,547.441101 
	C757.829651,575.352234 733.097839,599.383179 704.523071,600.022217 
	C672.047363,600.748474 639.547302,600.388367 607.057861,600.499146 
	C605.089294,600.505859 603.120667,600.500061 600.500061,600.500061 
	C600.500061,602.661133 600.500061,604.429565 600.500061,606.198059 
	C600.500000,636.695007 600.429749,667.192261 600.524475,697.688904 
	C600.588257,718.226257 593.765625,735.687439 577.131287,748.219055 
	C558.252991,762.441345 537.346069,764.893738 515.980652,754.912598 
	C494.822906,745.028503 482.652039,727.731018 482.022827,704.219360 
	C481.153931,671.750183 481.610657,639.245483 481.500854,606.756042 
	C481.494690,604.935669 481.499969,603.115356 481.499969,600.500061 
	C479.498322,600.500061 477.749207,600.500061 476.000122,600.500061 
	C445.503174,600.500061 415.005829,600.407959 384.509369,600.532715 
	C364.574036,600.614258 347.441101,594.285034 334.823151,578.464233 
	C319.939880,559.803101 316.913666,538.748779 326.538635,517.090576 
	C336.238434,495.263947 353.824677,482.625000 378.029053,482.010986 
	C410.333954,481.191528 442.670410,481.615845 474.993317,481.507355 
	C476.957245,481.500763 478.921234,481.506500 481.499969,481.506500 
	C481.499969,479.302582 481.499939,477.529236 481.499939,475.755920 
	C481.499939,445.425598 481.612335,415.094757 481.461060,384.765167 
	C481.357635,364.041809 488.080627,346.412140 504.895935,333.757629 
	C523.602051,319.680176 544.319885,317.149994 565.573425,326.894135 
	C587.013977,336.724030 599.314209,354.090973 599.970215,377.793182 
	C600.868774,410.260803 600.389404,442.766632 600.499329,475.256073 
	C600.505493,477.075500 600.500061,478.894989 600.500061,481.506470 
	C624.338562,481.506470 647.919495,481.506470 672.000488,481.506470 
z"/>
</svg>