<svg version="1.1" id="Layer_1" xmlns="http://www.w3.org/2000/svg" xmlns:xlink="http://www.w3.org/1999/xlink" x="0px" y="0px"
	 width="100%" viewBox="0 0 1024 1024" enable-background="new 0 0 1024 1024" xml:space="preserve">
<path fill="#000000" opacity="1.000000" stroke="none" 
	d="
M524.531372,1.000000 
	C531.997559,3.101589 539.328857,4.069366 546.050232,7.102825 
	C576.490479,20.841106 594.841614,43.832317 599.398132,77.224617 
	C601.856384,95.239525 598.199402,113.107788 597.714172,131.055618 
	C597.552429,137.039520 596.954956,143.018433 596.367310,148.980972 
	C596.097412,151.720123 597.228760,153.203445 599.471924,154.592300 
	C626.670288,171.432220 653.821106,188.349060 680.971985,205.265564 
	C721.299072,230.391571 748.357300,265.794800 761.935242,311.231079 
	C769.504089,336.558990 771.116638,362.444458 767.633789,388.791443 
	C764.297546,414.029205 762.008118,439.405273 759.252625,464.719879 
	C758.892456,468.028442 758.633728,471.355988 758.086853,474.634521 
	C757.054871,480.821167 750.850342,485.655914 745.202698,484.847534 
	C739.061340,483.968475 734.533386,477.818787 735.265015,471.341156 
	C738.700256,440.925537 743.072144,410.580872 745.379089,380.079956 
	C750.165344,316.801025 727.543030,265.395782 674.924561,228.949524 
	C649.886108,211.606583 623.409363,196.339935 597.577271,180.143707 
	C596.886475,179.710571 596.116394,179.403961 595.059082,178.876678 
	C593.532410,182.467010 593.755676,186.172867 593.500427,189.643768 
	C591.913513,211.217316 590.704529,232.818283 589.227051,254.400345 
	C587.397400,281.127136 585.340332,307.838470 583.550049,334.567780 
	C582.281799,353.502838 580.822876,372.443481 580.294189,391.405243 
	C579.575012,417.197510 591.473145,436.540802 612.165710,451.320557 
	C620.979736,457.615997 628.970276,461.339874 640.716675,458.171509 
	C655.191101,454.267334 669.393066,458.895752 682.129456,466.817139 
	C720.046387,490.399506 757.922974,514.046936 795.805725,537.684265 
	C853.763123,573.847351 911.449219,610.456116 969.810608,645.954895 
	C989.768677,658.094543 997.685974,679.260498 993.250122,700.185303 
	C987.694336,726.392578 972.690491,744.993652 946.702454,753.486084 
	C933.192505,757.900818 920.502441,755.315552 908.526184,747.804626 
	C868.440247,722.664795 828.273621,697.653564 788.133240,672.600586 
	C773.010132,663.161743 757.878052,653.737427 742.736572,644.328247 
	C741.650879,643.653564 740.672607,642.572937 738.845581,643.033447 
	C737.394470,648.363342 737.378540,654.012878 736.751404,659.559814 
	C734.156494,682.511841 734.881470,705.086548 744.533997,726.647095 
	C750.514099,740.004517 759.614624,751.345154 767.816772,763.275146 
	C774.231262,772.605103 781.476318,781.371338 786.918335,791.362976 
	C816.021606,844.797424 783.990906,910.341919 723.905212,919.964478 
	C703.594482,923.217163 684.186646,919.514526 666.813965,908.640442 
	C632.498291,887.161072 598.582825,865.041626 564.529541,843.143921 
	C483.387878,790.966370 402.260559,738.766479 321.130585,686.570679 
	C253.314285,642.940430 185.586319,599.171875 117.620880,555.775269 
	C103.318703,546.643127 88.043839,539.080566 75.340393,527.513245 
	C55.476204,509.425568 39.795433,488.683411 33.367661,462.081055 
	C29.044006,444.186890 32.195721,428.095703 44.352531,413.504700 
	C91.383957,357.055878 138.068283,300.317841 184.879730,243.685730 
	C230.629913,188.337524 276.376068,132.985977 322.127075,77.638435 
	C333.802734,63.513729 345.673218,49.545284 357.124084,35.240768 
	C370.516968,18.510193 388.359894,14.216426 408.500214,16.158377 
	C420.879669,17.352018 432.539185,21.340734 443.865509,26.341949 
	C446.015472,27.291279 448.014801,28.355259 450.204132,26.109959 
	C463.476837,12.498170 480.047974,5.226649 498.668457,1.160169 
	C507.354248,1.000000 515.708496,1.000000 524.531372,1.000000 
M196.068604,265.545441 
	C159.171539,310.167816 122.274475,354.790161 85.567421,399.182739 
	C144.923080,410.509155 185.263016,443.785065 207.146194,499.807190 
	C207.930496,498.935669 208.725998,498.115173 209.451187,497.236664 
	C232.785583,468.968018 256.116211,440.696228 279.441010,412.419678 
	C300.963348,386.328400 322.434021,360.194305 344.030945,334.164948 
	C348.827301,328.384216 355.702911,327.692444 360.811646,331.976654 
	C365.414886,335.837006 365.833649,342.527618 361.811981,348.181976 
	C361.232910,348.996063 360.612488,349.782990 359.977234,350.554535 
	C339.435089,375.504211 318.895569,400.455994 298.341583,425.395874 
	C267.511780,462.804291 236.600983,500.146271 205.879395,537.643311 
	C196.896255,548.607605 187.789322,559.130920 173.000046,562.215698 
	C172.644180,562.289978 172.385788,562.831665 171.935013,563.311890 
	C173.172150,564.185059 174.227631,564.989563 175.339752,565.706116 
	C205.733887,585.289429 236.131775,604.866882 266.533142,624.438965 
	C363.062653,686.583679 459.595642,748.723083 556.123413,810.870422 
	C595.771240,836.396790 635.360779,862.013916 675.068481,887.446777 
	C701.594604,904.437012 736.299683,900.476013 756.565186,878.416260 
	C778.978333,854.018799 780.996948,822.299194 761.884583,795.094055 
	C752.401978,781.596252 742.852966,768.143921 733.497620,754.558411 
	C718.348083,732.558838 712.022095,707.756653 711.990173,681.437012 
	C711.970825,665.507141 713.780212,649.570312 716.084961,633.784485 
	C716.712341,629.487549 715.595398,627.464600 712.203613,625.363098 
	C681.044006,606.056458 649.892090,586.735352 618.886658,567.182617 
	C602.075073,556.580811 592.426880,541.216309 590.582092,521.316406 
	C590.250122,517.734924 588.898865,515.552124 585.948059,513.757324 
	C581.823975,511.248749 577.845337,508.487946 573.902283,505.696899 
	C535.250183,478.337494 514.732544,441.114441 513.656616,393.643860 
	C513.192200,373.152466 515.937134,352.773468 517.053040,332.333435 
	C518.368958,308.229919 520.192871,284.154327 521.768799,260.064789 
	C522.877197,243.122345 523.897095,226.174026 525.031921,209.233383 
	C526.555054,186.494598 528.127747,163.759033 529.724976,141.025314 
	C530.599182,128.582825 531.863342,116.159157 532.377075,103.703308 
	C532.662720,96.778023 534.408691,89.850502 532.714600,82.860535 
	C529.259705,68.605492 510.878418,61.532211 500.874176,70.771591 
	C501.161957,72.475311 502.506134,73.581657 503.481140,74.892982 
	C511.383453,85.520966 518.090576,96.816330 522.117798,109.500519 
	C528.748596,130.384872 527.153687,149.524979 511.941559,166.961426 
	C494.427551,187.036316 477.925262,207.993484 460.967834,228.554474 
	C451.957581,239.479477 442.930023,250.390366 433.876465,261.279480 
	C430.793091,264.988037 426.928040,267.111969 421.998047,265.913147 
	C417.185608,264.742920 414.250183,261.519623 413.239258,256.658295 
	C412.373169,252.493240 414.296143,249.273956 416.825195,246.209259 
	C442.913208,214.595535 468.863098,182.866806 495.126282,151.399460 
	C501.232056,144.083755 503.864044,136.188599 502.538300,126.944511 
	C501.589081,120.325851 499.983643,113.784546 496.797180,107.877792 
	C476.496826,70.246582 446.679077,45.239651 403.382965,38.884850 
	C391.755249,37.178185 381.495270,40.436008 373.664520,50.281567 
	C360.601685,66.705261 347.093903,82.775909 333.725342,98.955437 
	C287.991943,154.305145 242.237564,209.637573 196.068604,265.545441 
M673.340088,574.106384 
	C745.528870,619.128113 817.717651,664.149780 890.677429,709.652344 
	C893.167297,682.225769 905.460693,661.848999 929.307434,648.305237 
	C913.454895,638.360718 898.253052,628.792297 883.019897,619.274170 
	C830.597961,586.519714 778.165649,553.781799 725.735962,521.039734 
	C707.364624,509.566956 688.965454,498.138397 670.625916,486.614990 
	C661.464722,480.858673 651.592834,478.582397 641.000854,480.799072 
	C627.342224,483.657562 616.586487,495.091827 614.200806,508.694855 
	C611.339111,525.011536 617.248291,538.896423 631.175842,547.773804 
	C644.944275,556.549805 658.865173,565.086853 673.340088,574.106384 
M537.253967,375.511047 
	C536.957397,378.991730 536.507935,382.467163 536.387939,385.953918 
	C535.255737,418.855591 545.608398,447.484070 568.405334,471.421844 
	C576.112244,479.514435 585.121826,485.902618 594.972473,491.994598 
	C597.985901,485.654602 601.884033,480.539185 605.880554,475.103485 
	C602.571777,472.726440 599.731812,470.731506 596.938904,468.672668 
	C570.795654,449.400482 556.667297,423.688873 556.966431,391.049194 
	C557.130981,373.100098 558.905396,355.160919 560.103821,337.227325 
	C561.545593,315.651215 563.201233,294.089417 564.661194,272.514465 
	C565.806580,255.587402 566.737488,238.645844 567.867798,221.717667 
	C569.463562,197.817566 571.159302,173.924133 572.804749,150.027328 
	C574.051147,131.926163 575.263489,113.822632 576.530579,95.722931 
	C578.443115,68.403793 568.947266,46.314556 544.983521,32.374119 
	C520.381897,18.062616 495.917358,20.449110 472.717896,36.666988 
	C471.145782,37.765999 469.267853,38.749760 468.762726,41.328220 
	C472.699127,44.452095 476.805450,47.542336 480.708038,50.871403 
	C483.031128,52.853088 484.736176,53.197922 487.609711,51.336113 
	C499.785553,43.447109 512.926270,41.510262 526.755188,46.448532 
	C547.525818,53.865696 558.724243,74.099831 556.031250,98.181519 
	C554.701599,110.071831 554.134216,122.049850 553.322144,133.995010 
	C552.159790,151.092316 551.144897,168.199707 549.966248,185.295853 
	C548.147034,211.683823 546.182068,238.061844 544.398193,264.452118 
	C543.432434,278.739075 542.797546,293.048187 541.864685,307.337585 
	C540.401550,329.751038 538.812561,352.156311 537.253967,375.511047 
M66.311531,482.196350 
	C76.321663,497.855469 88.711548,511.078857 105.022392,520.373840 
	C109.500725,522.925842 113.786667,525.819214 118.128113,528.606995 
	C132.547852,537.866272 148.380859,541.292419 165.303284,539.742310 
	C176.207275,538.743469 182.876205,532.346069 184.987411,521.736206 
	C186.799942,512.627197 184.355560,504.120697 180.768417,496.071838 
	C166.017273,462.972809 140.608398,441.184845 107.252548,428.178986 
	C98.036148,424.585419 88.425995,422.849457 78.445816,423.300964 
	C61.311920,424.076019 51.916897,435.992706 54.812294,452.942108 
	C56.582558,463.305084 60.566120,472.676910 66.311531,482.196350 
M938.415527,731.957397 
	C956.065979,727.564270 971.249268,708.510193 971.644897,690.256836 
	C972.084778,669.962341 956.395813,659.913635 938.424072,669.472595 
	C922.806824,677.779175 914.166077,691.611572 913.711365,708.991882 
	C913.305420,724.509216 922.801758,734.973999 938.415527,731.957397 
z"/>
<path fill="#000000" opacity="1.000000" stroke="none" 
	d="
M863.468384,1025.000000 
	C846.960266,1021.778503 834.302795,1012.248779 821.574707,1002.829956 
	C792.167175,981.067993 788.251404,940.747253 812.940063,913.671204 
	C836.860779,887.437134 873.119690,885.647034 899.419861,909.451477 
	C904.853027,914.369080 910.304199,919.287109 915.449158,924.499023 
	C931.841370,941.104614 936.155762,961.121094 929.830261,983.014038 
	C923.602722,1004.568298 908.669067,1017.889160 886.903992,1023.473877 
	C885.780640,1023.762085 884.701965,1024.224365 883.301208,1024.802734 
	C876.645569,1025.000000 870.291199,1025.000000 863.468384,1025.000000 
M908.496826,974.860718 
	C911.409424,962.125549 909.016541,950.549194 899.961060,941.017517 
	C894.009155,934.752747 887.528137,928.916321 880.810303,923.472595 
	C872.543152,916.773376 862.920349,914.316589 852.242737,916.129028 
	C842.544556,917.775146 835.135254,922.988403 828.635559,930.043335 
	C817.377747,942.263123 816.073242,961.835449 825.920349,975.266296 
	C833.313354,985.349792 843.917603,991.608765 854.352356,997.731567 
	C875.485901,1010.131775 901.511658,999.219666 908.496826,974.860718 
z"/>
<path fill="#000000" opacity="1.000000" stroke="none" 
	d="
M386.950684,311.322876 
	C376.835327,310.130035 372.557953,300.924255 378.159241,293.107819 
	C379.892914,290.688507 381.843536,288.365356 384.001221,286.321716 
	C388.376251,282.177948 393.900116,282.023804 398.490356,285.627960 
	C402.999329,289.168304 404.467682,295.516022 401.170593,300.281189 
	C397.742828,305.235199 394.595306,310.941040 386.950684,311.322876 
z"/>
<path fill="#000000" opacity="1.000000" stroke="none" 
	d="
M109.065872,458.628601 
	C120.625214,467.924683 131.972168,476.904663 143.009018,486.250793 
	C148.526260,490.922913 148.799026,498.101349 144.366272,503.128845 
	C140.159409,507.900024 133.541931,508.086578 127.853188,503.395264 
	C117.844597,495.141418 107.886513,486.825378 97.972176,478.458527 
	C92.638084,473.956940 91.207291,468.083221 93.964127,462.936035 
	C96.575768,458.059998 101.924217,456.439545 109.065872,458.628601 
z"/>
</svg>