<svg version="1.1" id="Layer_1" xmlns="http://www.w3.org/2000/svg" xmlns:xlink="http://www.w3.org/1999/xlink" x="0px" y="0px"
	 width="100%" viewBox="0 0 1080 1080" enable-background="new 0 0 1080 1080" xml:space="preserve">
<path fill="#FFCFB0" opacity="1.000000" stroke="none" 
	d="
M877.000000,1081.000000 
	C653.307495,1081.000000 429.614990,1081.000000 205.254990,1080.571533 
	C204.587479,1068.716064 204.587479,1057.289185 204.587479,1045.388428 
	C151.092880,1045.388428 98.362778,1045.388428 44.989479,1045.388428 
	C44.989479,992.064026 44.989479,939.221008 44.989479,886.494141 
	C32.925156,886.494141 21.510107,886.494141 9.832144,886.494141 
	C9.832144,888.475281 9.832144,890.129639 9.832145,891.783997 
	C9.832149,947.595398 9.959965,1003.407410 9.721844,1059.217773 
	C9.675488,1070.082397 13.656054,1077.395752 24.000000,1081.000000 
	C16.335190,1081.000000 8.670379,1081.000000 1.004176,1081.000000 
	C1.002784,721.088989 1.002784,361.178040 1.002784,1.000000 
	C214.692429,1.000000 428.384979,1.000000 642.373657,1.312196 
	C632.076538,4.902742 629.673096,13.163281 629.102539,22.999199 
	C627.701843,47.145325 616.206238,65.520233 596.162476,78.692429 
	C584.256592,86.516685 570.814331,88.838440 556.864197,89.916985 
	C543.187988,90.974365 536.438599,106.425102 544.403564,117.529404 
	C548.324646,122.995888 553.929138,124.724792 560.447632,125.061974 
	C588.545227,126.515411 609.143250,139.796005 622.223755,164.746826 
	C627.608887,175.018845 628.928162,186.163910 629.856995,197.486435 
	C630.599243,206.535080 637.373779,212.776337 646.233948,213.272995 
	C656.833374,213.867172 664.534180,206.134689 665.010010,194.542526 
	C666.080261,168.471802 677.717163,148.501938 699.924744,134.831329 
	C710.941467,128.049622 723.103821,125.247421 735.999756,124.874985 
	C745.862549,124.590134 753.048584,117.189537 753.359863,107.753815 
	C753.671814,98.301170 746.894958,90.813942 737.031433,89.733055 
	C735.047607,89.515656 733.061157,89.290337 731.069763,89.178726 
	C695.674622,87.195015 666.450073,57.911617 665.218567,22.471380 
	C664.851196,11.899879 661.029663,4.660425 651.000000,1.000000 
	C794.293823,1.000000 937.587646,1.000000 1080.940674,1.000000 
	C1080.940674,361.000000 1080.940674,721.000000 1080.940674,1081.000000 
	C1073.585083,1081.000000 1066.253784,1081.000000 1058.697876,1080.736816 
	C1068.188599,1077.373535 1072.154907,1071.515015 1072.158813,1059.979248 
	C1072.178223,1003.646667 1072.169312,947.314087 1072.158203,890.981506 
	C1072.157959,889.526245 1072.017212,888.070923 1071.938477,886.544556 
	C1060.121826,886.544556 1048.590088,886.544556 1036.581543,886.544556 
	C1036.581543,939.663452 1036.581543,992.406067 1036.581543,1045.663574 
	C983.355469,1045.663574 930.610229,1045.663574 877.493530,1045.663574 
	C877.493530,1048.651855 877.527649,1051.125122 877.487305,1053.596924 
	C877.338196,1062.731445 877.164490,1071.865723 877.000000,1081.000000 
M689.499939,974.844788 
	C757.988037,974.844788 826.476196,974.853516 894.964294,974.841736 
	C943.895935,974.833313 983.516052,935.158569 983.516968,886.187134 
	C983.519470,756.372314 983.519653,626.557495 983.516785,496.742676 
	C983.515686,447.791229 943.890381,408.168488 894.924927,408.161072 
	C842.099121,408.153076 789.273254,408.129272 736.447632,408.229828 
	C733.096680,408.236206 731.627258,407.550964 730.746460,403.949738 
	C723.044250,372.462372 715.048462,341.046875 707.172729,309.601807 
	C700.335876,282.304382 681.011475,266.613892 652.940613,266.548340 
	C578.284973,266.374023 503.628418,266.372070 428.972839,266.550964 
	C401.838013,266.615967 381.684265,282.329651 375.198761,307.717346 
	C371.043091,323.984772 367.076752,340.300537 363.013458,356.591614 
	C358.752472,373.675171 354.477020,390.755127 350.127258,408.159271 
	C348.090118,408.159271 346.282898,408.159241 344.475708,408.159241 
	C291.983215,408.159241 239.490692,408.151794 186.998184,408.161469 
	C138.295441,408.170471 98.453323,447.741028 98.442322,496.297821 
	C98.412910,626.111816 98.464722,755.925842 98.481522,885.739807 
	C98.487946,935.391113 137.924515,974.843201 187.571335,974.843933 
	C354.547516,974.846375 521.523682,974.844788 689.499939,974.844788 
M1066.951294,137.436584 
	C1068.640991,133.568573 1071.432251,129.804749 1071.809814,125.812660 
	C1072.861694,114.688850 1064.702515,107.489685 1051.617554,107.011772 
	C1023.071045,105.969139 997.511963,87.801315 988.271667,60.798492 
	C985.306335,52.132908 984.816528,42.620514 983.190186,33.496258 
	C981.575012,24.434626 974.371155,18.564905 965.227844,18.854408 
	C954.871399,19.182323 948.398743,26.871964 948.000305,39.321194 
	C947.015808,70.078522 925.034302,97.545403 895.086731,104.825592 
	C888.192078,106.501648 880.914429,106.534508 873.886536,107.748772 
	C866.116516,109.091240 860.463867,115.628487 859.899231,123.222290 
	C859.269958,131.686462 863.776428,139.041641 871.559265,141.496658 
	C874.519592,142.430466 877.764526,142.628311 880.900269,142.812454 
	C899.686951,143.915619 915.642883,151.164398 928.605896,164.789520 
	C941.050476,177.869781 947.549011,193.502274 948.039978,211.575012 
	C948.272705,220.143417 951.473389,226.859238 959.906982,229.989838 
	C972.145630,234.532944 983.157898,225.901810 983.838196,211.416550 
	C985.651184,172.816269 1013.757202,144.938385 1052.600098,142.651917 
	C1057.285034,142.376129 1061.821289,139.574631 1066.951294,137.436584 
M836.899414,279.459686 
	C847.552673,264.437592 861.787842,254.613495 879.789429,250.692596 
	C886.247742,249.285919 893.026245,249.378433 899.514038,248.069962 
	C907.118530,246.536270 912.416504,239.634628 912.827332,231.917618 
	C913.225037,224.447113 908.249939,216.875153 900.963623,214.619873 
	C897.835571,213.651703 894.430786,213.404160 891.128784,213.199768 
	C869.985413,211.890991 852.891785,202.809509 839.626221,186.438553 
	C829.041687,173.376282 824.732056,158.146164 824.041992,141.552094 
	C823.616089,131.311844 814.790771,124.093658 804.745850,125.078178 
	C795.374939,125.996635 789.278992,133.315262 788.833313,144.182312 
	C787.272766,182.229156 759.064636,211.040024 721.343506,213.209106 
	C718.209351,213.389328 714.968567,213.700470 712.016541,214.675095 
	C704.322266,217.215302 699.498962,225.228210 700.510559,233.077972 
	C701.671082,242.083405 708.206482,248.048843 717.701965,248.899826 
	C722.829346,249.359329 728.055420,249.481552 733.043457,250.610687 
	C765.802063,258.026215 787.255615,284.425293 788.858093,318.935669 
	C789.360718,329.759552 796.161743,336.989655 806.036560,337.197845 
	C816.330933,337.414886 823.607117,330.518311 824.123230,319.492249 
	C824.791321,305.217041 828.437073,291.965424 836.899414,279.459686 
M99.499702,213.512756 
	C134.408112,213.512756 169.316513,213.512756 204.279770,213.512756 
	C204.279770,201.292679 204.279770,189.847855 204.279770,177.996490 
	C202.255630,177.996490 200.460831,177.996506 198.666031,177.996506 
	C143.015213,177.996506 87.364395,177.995422 31.713575,177.997177 
	C16.279140,177.997665 9.834900,184.397690 9.832029,199.796310 
	C9.821625,255.613754 9.827926,311.431183 9.827922,367.248627 
	C9.827922,369.006989 9.827922,370.765381 9.827922,372.571228 
	C21.928310,372.571228 33.343212,372.571228 45.208786,372.571228 
	C45.208786,319.559540 45.208786,266.815643 45.208786,213.512680 
	C63.271168,213.512680 80.885429,213.512680 99.499702,213.512756 
z"/>
<path fill="#020101" opacity="1.000000" stroke="none" 
	d="
M650.555847,1.000000 
	C661.029663,4.660425 664.851196,11.899879 665.218567,22.471380 
	C666.450073,57.911617 695.674622,87.195015 731.069763,89.178726 
	C733.061157,89.290337 735.047607,89.515656 737.031433,89.733055 
	C746.894958,90.813942 753.671814,98.301170 753.359863,107.753815 
	C753.048584,117.189537 745.862549,124.590134 735.999756,124.874985 
	C723.103821,125.247421 710.941467,128.049622 699.924744,134.831329 
	C677.717163,148.501938 666.080261,168.471802 665.010010,194.542526 
	C664.534180,206.134689 656.833374,213.867172 646.233948,213.272995 
	C637.373779,212.776337 630.599243,206.535080 629.856995,197.486435 
	C628.928162,186.163910 627.608887,175.018845 622.223755,164.746826 
	C609.143250,139.796005 588.545227,126.515411 560.447632,125.061974 
	C553.929138,124.724792 548.324646,122.995888 544.403564,117.529404 
	C536.438599,106.425102 543.187988,90.974365 556.864197,89.916985 
	C570.814331,88.838440 584.256592,86.516685 596.162476,78.692429 
	C616.206238,65.520233 627.701843,47.145325 629.102539,22.999199 
	C629.673096,13.163281 632.076538,4.902742 642.834900,1.312196 
	C645.370544,1.000000 647.741150,1.000000 650.555847,1.000000 
M632.500122,94.999229 
	C627.652222,99.131905 622.804321,103.264572 618.816956,106.663689 
	C628.675415,116.541748 638.369995,126.255501 647.215698,135.118759 
	C656.338440,126.011284 666.085144,116.280991 675.127441,107.253838 
	C666.030579,98.155067 656.341553,88.464005 646.724121,78.844582 
	C642.607422,83.569321 637.825012,89.058044 632.500122,94.999229 
z"/>
<path fill="#010000" opacity="1.000000" stroke="none" 
	d="
M24.468658,1081.000000 
	C13.656054,1077.395752 9.675488,1070.082397 9.721844,1059.217773 
	C9.959965,1003.407410 9.832149,947.595398 9.832145,891.783997 
	C9.832144,890.129639 9.832144,888.475281 9.832144,886.494141 
	C21.510107,886.494141 32.925156,886.494141 44.989479,886.494141 
	C44.989479,939.221008 44.989479,992.064026 44.989479,1045.388428 
	C98.362778,1045.388428 151.092880,1045.388428 204.587479,1045.388428 
	C204.587479,1057.289185 204.587479,1068.716064 204.793732,1080.571533 
	C144.979111,1081.000000 84.958206,1081.000000 24.468658,1081.000000 
z"/>
<path fill="#010000" opacity="1.000000" stroke="none" 
	d="
M877.468628,1081.000000 
	C877.164490,1071.865723 877.338196,1062.731445 877.487305,1053.596924 
	C877.527649,1051.125122 877.493530,1048.651855 877.493530,1045.663574 
	C930.610229,1045.663574 983.355469,1045.663574 1036.581543,1045.663574 
	C1036.581543,992.406067 1036.581543,939.663452 1036.581543,886.544556 
	C1048.590088,886.544556 1060.121826,886.544556 1071.938477,886.544556 
	C1072.017212,888.070923 1072.157959,889.526245 1072.158203,890.981506 
	C1072.169312,947.314087 1072.178223,1003.646667 1072.158813,1059.979248 
	C1072.154907,1071.515015 1068.188599,1077.373535 1058.236572,1080.736816 
	C997.979126,1081.000000 937.958191,1081.000000 877.468628,1081.000000 
z"/>
<path fill="#030302" opacity="1.000000" stroke="none" 
	d="
M688.999878,974.844788 
	C521.523682,974.844788 354.547516,974.846375 187.571335,974.843933 
	C137.924515,974.843201 98.487946,935.391113 98.481522,885.739807 
	C98.464722,755.925842 98.412910,626.111816 98.442322,496.297821 
	C98.453323,447.741028 138.295441,408.170471 186.998184,408.161469 
	C239.490692,408.151794 291.983215,408.159241 344.475708,408.159241 
	C346.282898,408.159241 348.090118,408.159271 350.127258,408.159271 
	C354.477020,390.755127 358.752472,373.675171 363.013458,356.591614 
	C367.076752,340.300537 371.043091,323.984772 375.198761,307.717346 
	C381.684265,282.329651 401.838013,266.615967 428.972839,266.550964 
	C503.628418,266.372070 578.284973,266.374023 652.940613,266.548340 
	C681.011475,266.613892 700.335876,282.304382 707.172729,309.601807 
	C715.048462,341.046875 723.044250,372.462372 730.746460,403.949738 
	C731.627258,407.550964 733.096680,408.236206 736.447632,408.229828 
	C789.273254,408.129272 842.099121,408.153076 894.924927,408.161072 
	C943.890381,408.168488 983.515686,447.791229 983.516785,496.742676 
	C983.519653,626.557495 983.519470,756.372314 983.516968,886.187134 
	C983.516052,935.158569 943.895935,974.833313 894.964294,974.841736 
	C826.476196,974.853516 757.988037,974.844788 688.999878,974.844788 
M712.190125,442.611969 
	C704.878601,439.849121 701.725037,434.058594 699.945618,426.821167 
	C690.976990,390.342072 681.839539,353.904388 672.708618,317.465393 
	C669.991272,306.621124 663.905884,302.010010 652.598389,302.009186 
	C578.276672,302.003723 503.954987,302.004425 429.633270,302.008362 
	C418.004974,302.008972 411.990509,306.600769 409.212097,317.722015 
	C400.107025,354.167145 391.026367,390.618408 381.962250,427.073761 
	C378.993958,439.012146 373.348846,443.517242 361.149414,443.517670 
	C304.824890,443.519684 248.500351,443.495819 192.175903,443.559082 
	C187.365250,443.564484 182.464325,443.655304 177.759995,444.534210 
	C151.079865,449.518921 133.858627,470.934692 133.854187,498.941803 
	C133.833832,627.255066 133.844788,755.568298 133.850616,883.881531 
	C133.850693,885.379028 133.914719,886.877197 133.977722,888.373840 
	C135.178558,916.901306 158.156326,939.149841 186.532440,939.151367 
	C422.828766,939.164307 659.125122,939.161133 895.421448,939.131287 
	C898.406311,939.130920 901.444458,939.002380 904.367615,938.453674 
	C930.685608,933.513489 948.133240,912.025024 948.140198,884.416260 
	C948.172729,755.769714 948.155029,627.123169 948.148987,498.476654 
	C948.148926,497.145844 948.080750,495.814301 948.017944,494.484344 
	C947.250793,478.227905 940.330933,465.119415 927.713806,454.960327 
	C916.800232,446.172852 904.057495,443.468689 890.369812,443.486969 
	C833.878784,443.562408 777.387512,443.527313 720.896362,443.491028 
	C718.248779,443.489319 715.601440,443.086639 712.190125,442.611969 
z"/>
<path fill="#020101" opacity="1.000000" stroke="none" 
	d="
M1066.688965,137.690170 
	C1061.821289,139.574631 1057.285034,142.376129 1052.600098,142.651917 
	C1013.757202,144.938385 985.651184,172.816269 983.838196,211.416550 
	C983.157898,225.901810 972.145630,234.532944 959.906982,229.989838 
	C951.473389,226.859238 948.272705,220.143417 948.039978,211.575012 
	C947.549011,193.502274 941.050476,177.869781 928.605896,164.789520 
	C915.642883,151.164398 899.686951,143.915619 880.900269,142.812454 
	C877.764526,142.628311 874.519592,142.430466 871.559265,141.496658 
	C863.776428,139.041641 859.269958,131.686462 859.899231,123.222290 
	C860.463867,115.628487 866.116516,109.091240 873.886536,107.748772 
	C880.914429,106.534508 888.192078,106.501648 895.086731,104.825592 
	C925.034302,97.545403 947.015808,70.078522 948.000305,39.321194 
	C948.398743,26.871964 954.871399,19.182323 965.227844,18.854408 
	C974.371155,18.564905 981.575012,24.434626 983.190186,33.496258 
	C984.816528,42.620514 985.306335,52.132908 988.271667,60.798492 
	C997.511963,87.801315 1023.071045,105.969139 1051.617554,107.011772 
	C1064.702515,107.489685 1072.861694,114.688850 1071.809814,125.812660 
	C1071.432251,129.804749 1068.640991,133.568573 1066.688965,137.690170 
M967.286072,97.040062 
	C964.796753,93.979965 964.550415,97.481850 963.621155,98.395638 
	C955.368591,106.510818 947.186401,114.697510 938.978638,122.858200 
	C938.229187,123.603363 937.446106,124.314774 937.465637,124.296295 
	C947.354248,134.221863 956.973328,143.876846 965.883667,152.820419 
	C975.101624,143.617523 984.769714,133.965271 994.581787,124.169281 
	C984.525696,117.156372 975.188293,108.330566 967.286072,97.040062 
z"/>
<path fill="#020101" opacity="1.000000" stroke="none" 
	d="
M836.684692,279.749817 
	C828.437073,291.965424 824.791321,305.217041 824.123230,319.492249 
	C823.607117,330.518311 816.330933,337.414886 806.036560,337.197845 
	C796.161743,336.989655 789.360718,329.759552 788.858093,318.935669 
	C787.255615,284.425293 765.802063,258.026215 733.043457,250.610687 
	C728.055420,249.481552 722.829346,249.359329 717.701965,248.899826 
	C708.206482,248.048843 701.671082,242.083405 700.510559,233.077972 
	C699.498962,225.228210 704.322266,217.215302 712.016541,214.675095 
	C714.968567,213.700470 718.209351,213.389328 721.343506,213.209106 
	C759.064636,211.040024 787.272766,182.229156 788.833313,144.182312 
	C789.278992,133.315262 795.374939,125.996635 804.745850,125.078178 
	C814.790771,124.093658 823.616089,131.311844 824.041992,141.552094 
	C824.732056,158.146164 829.041687,173.376282 839.626221,186.438553 
	C852.891785,202.809509 869.985413,211.890991 891.128784,213.199768 
	C894.430786,213.404160 897.835571,213.651703 900.963623,214.619873 
	C908.249939,216.875153 913.225037,224.447113 912.827332,231.917618 
	C912.416504,239.634628 907.118530,246.536270 899.514038,248.069962 
	C893.026245,249.378433 886.247742,249.285919 879.789429,250.692596 
	C861.787842,254.613495 847.552673,264.437592 836.684692,279.749817 
M822.452332,220.056091 
	C817.060791,214.058350 811.669189,208.060608 807.016968,202.885345 
	C797.357422,212.510437 787.583923,222.249069 778.686829,231.114471 
	C788.004211,240.466583 797.658142,250.156494 806.548157,259.079651 
	C815.594055,250.020721 825.289917,240.310913 835.059814,230.526917 
	C831.622314,227.696671 827.288025,224.128036 822.452332,220.056091 
z"/>
<path fill="#020202" opacity="1.000000" stroke="none" 
	d="
M98.999695,213.512726 
	C80.885429,213.512680 63.271168,213.512680 45.208786,213.512680 
	C45.208786,266.815643 45.208786,319.559540 45.208786,372.571228 
	C33.343212,372.571228 21.928310,372.571228 9.827922,372.571228 
	C9.827922,370.765381 9.827922,369.006989 9.827922,367.248627 
	C9.827926,311.431183 9.821625,255.613754 9.832029,199.796310 
	C9.834900,184.397690 16.279140,177.997665 31.713575,177.997177 
	C87.364395,177.995422 143.015213,177.996506 198.666031,177.996506 
	C200.460831,177.996506 202.255630,177.996490 204.279770,177.996490 
	C204.279770,189.847855 204.279770,201.292679 204.279770,213.512756 
	C169.316513,213.512756 134.408112,213.512756 98.999695,213.512726 
z"/>
<path fill="#FCCDAE" opacity="1.000000" stroke="none" 
	d="
M632.771362,94.772995 
	C637.825012,89.058044 642.607422,83.569321 646.724121,78.844582 
	C656.341553,88.464005 666.030579,98.155067 675.127441,107.253838 
	C666.085144,116.280991 656.338440,126.011284 647.215698,135.118759 
	C638.369995,126.255501 628.675415,116.541748 618.816956,106.663689 
	C622.804321,103.264572 627.652222,99.131905 632.771362,94.772995 
z"/>
<path fill="#FFCFB0" opacity="1.000000" stroke="none" 
	d="
M712.572021,442.741333 
	C715.601440,443.086639 718.248779,443.489319 720.896362,443.491028 
	C777.387512,443.527313 833.878784,443.562408 890.369812,443.486969 
	C904.057495,443.468689 916.800232,446.172852 927.713806,454.960327 
	C940.330933,465.119415 947.250793,478.227905 948.017944,494.484344 
	C948.080750,495.814301 948.148926,497.145844 948.148987,498.476654 
	C948.155029,627.123169 948.172729,755.769714 948.140198,884.416260 
	C948.133240,912.025024 930.685608,933.513489 904.367615,938.453674 
	C901.444458,939.002380 898.406311,939.130920 895.421448,939.131287 
	C659.125122,939.161133 422.828766,939.164307 186.532440,939.151367 
	C158.156326,939.149841 135.178558,916.901306 133.977722,888.373840 
	C133.914719,886.877197 133.850693,885.379028 133.850616,883.881531 
	C133.844788,755.568298 133.833832,627.255066 133.854187,498.941803 
	C133.858627,470.934692 151.079865,449.518921 177.759995,444.534210 
	C182.464325,443.655304 187.365250,443.564484 192.175903,443.559082 
	C248.500351,443.495819 304.824890,443.519684 361.149414,443.517670 
	C373.348846,443.517242 378.993958,439.012146 381.962250,427.073761 
	C391.026367,390.618408 400.107025,354.167145 409.212097,317.722015 
	C411.990509,306.600769 418.004974,302.008972 429.633270,302.008362 
	C503.954987,302.004425 578.276672,302.003723 652.598389,302.009186 
	C663.905884,302.010010 669.991272,306.621124 672.708618,317.465393 
	C681.839539,353.904388 690.976990,390.342072 699.945618,426.821167 
	C701.725037,434.058594 704.878601,439.849121 712.572021,442.741333 
M752.782471,673.779053 
	C751.894775,667.355103 751.223511,660.892456 750.085022,654.513306 
	C741.507263,606.448853 719.138062,565.746582 682.656738,533.510376 
	C632.004456,488.752228 572.616272,471.394745 505.853607,482.149078 
	C452.935455,490.673279 409.291962,516.521667 375.810638,558.335388 
	C335.739319,608.379211 320.671600,665.700989 332.159058,728.725647 
	C345.114136,799.802368 385.385345,851.401489 450.047150,883.240784 
	C491.476624,903.640625 535.563049,909.192261 580.850403,899.969421 
	C650.830811,885.717773 701.582642,845.855103 733.069946,781.880371 
	C749.671204,748.150696 755.384949,712.128174 752.782471,673.779053 
M293.075256,585.193054 
	C293.105530,556.205017 293.243561,527.216431 293.114197,498.229126 
	C293.060822,486.267090 285.862335,479.067719 274.213776,479.028809 
	C245.391281,478.932526 216.567947,478.920959 187.745605,479.036163 
	C176.630081,479.080566 169.235504,486.494873 169.194992,497.596130 
	C169.089157,526.585144 169.080551,555.575134 169.200287,584.564026 
	C169.245102,595.407837 176.625214,602.900818 187.403976,602.952332 
	C216.559311,603.091614 245.716141,603.084412 274.871552,602.953613 
	C285.145630,602.907471 291.745850,596.522278 293.075256,585.193054 
z"/>
<path fill="#FCCCAE" opacity="1.000000" stroke="none" 
	d="
M967.515991,97.325447 
	C975.188293,108.330566 984.525696,117.156372 994.581787,124.169281 
	C984.769714,133.965271 975.101624,143.617523 965.883667,152.820419 
	C956.973328,143.876846 947.354248,134.221863 937.465637,124.296295 
	C937.446106,124.314774 938.229187,123.603363 938.978638,122.858200 
	C947.186401,114.697510 955.368591,106.510818 963.621155,98.395638 
	C964.550415,97.481850 964.796753,93.979965 967.515991,97.325447 
z"/>
<path fill="#FCCDAE" opacity="1.000000" stroke="none" 
	d="
M822.703003,220.307755 
	C827.288025,224.128036 831.622314,227.696671 835.059814,230.526917 
	C825.289917,240.310913 815.594055,250.020721 806.548157,259.079651 
	C797.658142,250.156494 788.004211,240.466583 778.686829,231.114471 
	C787.583923,222.249069 797.357422,212.510437 807.016968,202.885345 
	C811.669189,208.060608 817.060791,214.058350 822.703003,220.307755 
z"/>
<path fill="#020101" opacity="1.000000" stroke="none" 
	d="
M752.809204,674.250732 
	C755.384949,712.128174 749.671204,748.150696 733.069946,781.880371 
	C701.582642,845.855103 650.830811,885.717773 580.850403,899.969421 
	C535.563049,909.192261 491.476624,903.640625 450.047150,883.240784 
	C385.385345,851.401489 345.114136,799.802368 332.159058,728.725647 
	C320.671600,665.700989 335.739319,608.379211 375.810638,558.335388 
	C409.291962,516.521667 452.935455,490.673279 505.853607,482.149078 
	C572.616272,471.394745 632.004456,488.752228 682.656738,533.510376 
	C719.138062,565.746582 741.507263,606.448853 750.085022,654.513306 
	C751.223511,660.892456 751.894775,667.355103 752.809204,674.250732 
M706.594788,754.068604 
	C719.576782,719.037476 721.850586,683.326904 712.311707,647.198364 
	C687.689575,553.941650 595.881592,498.144012 501.739960,518.921326 
	C404.857208,540.303589 344.032501,640.543091 369.788055,736.378967 
	C394.830780,829.562500 487.485901,885.987122 581.287720,863.647095 
	C641.375305,849.336365 682.876221,812.045227 706.594788,754.068604 
z"/>
<path fill="#020201" opacity="1.000000" stroke="none" 
	d="
M293.047058,585.650391 
	C291.745850,596.522278 285.145630,602.907471 274.871552,602.953613 
	C245.716141,603.084412 216.559311,603.091614 187.403976,602.952332 
	C176.625214,602.900818 169.245102,595.407837 169.200287,584.564026 
	C169.080551,555.575134 169.089157,526.585144 169.194992,497.596130 
	C169.235504,486.494873 176.630081,479.080566 187.745605,479.036163 
	C216.567947,478.920959 245.391281,478.932526 274.213776,479.028809 
	C285.862335,479.067719 293.060822,486.267090 293.114197,498.229126 
	C293.243561,527.216431 293.105530,556.205017 293.047058,585.650391 
M248.403931,514.493896 
	C233.841125,514.493896 219.278336,514.493896 204.794785,514.493896 
	C204.794785,532.566101 204.794785,549.809631 204.794785,567.092651 
	C222.609848,567.092651 240.120712,567.092651 257.548279,567.092651 
	C257.548279,549.433960 257.548279,532.196716 257.548279,514.493958 
	C254.633087,514.493958 252.000885,514.493958 248.403931,514.493896 
z"/>
<path fill="#FDCEAF" opacity="1.000000" stroke="none" 
	d="
M706.411072,754.411072 
	C682.876221,812.045227 641.375305,849.336365 581.287720,863.647095 
	C487.485901,885.987122 394.830780,829.562500 369.788055,736.378967 
	C344.032501,640.543091 404.857208,540.303589 501.739960,518.921326 
	C595.881592,498.144012 687.689575,553.941650 712.311707,647.198364 
	C721.850586,683.326904 719.576782,719.037476 706.411072,754.411072 
M486.390350,560.852661 
	C485.026855,561.464600 483.661926,562.073303 482.300079,562.688843 
	C422.238892,589.833740 388.608154,656.197632 402.322449,720.508301 
	C420.205200,804.366028 506.348114,852.922302 587.818787,825.067078 
	C688.651917,790.591919 715.844788,657.542847 635.928040,586.795105 
	C592.157166,548.046143 541.856079,540.105225 486.390350,560.852661 
z"/>
<path fill="#FBCCAD" opacity="1.000000" stroke="none" 
	d="
M248.886307,514.493896 
	C252.000885,514.493958 254.633087,514.493958 257.548279,514.493958 
	C257.548279,532.196716 257.548279,549.433960 257.548279,567.092651 
	C240.120712,567.092651 222.609848,567.092651 204.794785,567.092651 
	C204.794785,549.809631 204.794785,532.566101 204.794785,514.493896 
	C219.278336,514.493896 233.841125,514.493896 248.886307,514.493896 
z"/>
<path fill="#020101" opacity="1.000000" stroke="none" 
	d="
M486.742798,560.698730 
	C541.856079,540.105225 592.157166,548.046143 635.928040,586.795105 
	C715.844788,657.542847 688.651917,790.591919 587.818787,825.067078 
	C506.348114,852.922302 420.205200,804.366028 402.322449,720.508301 
	C388.608154,656.197632 422.238892,589.833740 482.300079,562.688843 
	C483.661926,562.073303 485.026855,561.464600 486.742798,560.698730 
M643.876953,664.806091 
	C643.587036,663.852295 643.277466,662.903992 643.010132,661.943909 
	C629.022034,611.704956 576.997253,578.147217 525.765503,586.320435 
	C467.219788,595.660400 428.566345,647.117249 435.858704,706.007507 
	C442.935760,763.158691 498.203491,805.167480 555.312378,796.803711 
	C618.439819,787.558594 659.057190,727.489685 643.876953,664.806091 
z"/>
<path fill="#FECFB0" opacity="1.000000" stroke="none" 
	d="
M643.945312,665.214905 
	C659.057190,727.489685 618.439819,787.558594 555.312378,796.803711 
	C498.203491,805.167480 442.935760,763.158691 435.858704,706.007507 
	C428.566345,647.117249 467.219788,595.660400 525.765503,586.320435 
	C576.997253,578.147217 629.022034,611.704956 643.010132,661.943909 
	C643.277466,662.903992 643.587036,663.852295 643.945312,665.214905 
z"/>
</svg>