<svg version="1.1" id="Layer_1" xmlns="http://www.w3.org/2000/svg" xmlns:xlink="http://www.w3.org/1999/xlink" x="0px" y="0px"
	 width="100%" viewBox="0 0 1024 1024" enable-background="new 0 0 1024 1024" xml:space="preserve">
<path fill="#000000" opacity="1.000000" stroke="none" 
	d="
M536.531372,1.000000 
	C547.728638,2.167348 558.477722,3.061837 569.188232,4.497359 
	C605.668579,9.386787 640.278625,20.309021 673.496155,35.940643 
	C718.064880,56.913933 757.023376,85.658829 790.776245,121.398293 
	C831.003296,163.992874 860.975891,213.026825 881.271301,267.967102 
	C893.374084,300.729675 901.351074,334.469879 905.429382,369.179871 
	C908.491028,395.237183 909.132141,421.314026 907.291016,447.455200 
	C906.979980,451.871185 908.040161,454.110260 912.571777,455.825470 
	C951.130371,470.419922 973.818115,498.553955 978.819946,539.186890 
	C984.259277,583.373596 959.451233,622.413940 922.963135,639.996643 
	C906.851929,647.760193 889.831848,650.822815 872.057373,650.245300 
	C870.226074,650.185791 868.338318,650.523621 866.567200,650.192871 
	C859.569824,648.886475 856.393616,651.995911 853.249084,658.337769 
	C843.596802,677.804565 827.363770,688.378052 805.473633,689.187134 
	C792.993164,689.648438 780.472351,689.516724 767.983826,689.159058 
	C741.586609,688.403076 717.892395,665.164795 716.677246,638.877441 
	C715.006775,602.741089 716.282898,566.577209 715.982117,530.426880 
	C715.810181,509.762421 715.848938,489.094635 715.986206,468.429657 
	C716.115479,448.968903 722.964722,432.613678 739.156738,421.004791 
	C748.149353,414.557526 758.147888,410.681152 769.394287,410.657349 
	C780.560364,410.633667 791.726868,410.569397 802.892456,410.643066 
	C827.925598,410.808197 845.036987,422.983368 855.268860,445.443054 
	C856.970703,449.178619 864.845398,451.552582 868.252075,449.243988 
	C869.712219,448.254456 869.608887,446.680908 869.683899,445.197479 
	C875.383057,332.427124 841.935364,233.198044 765.452454,149.681671 
	C717.894043,97.749695 659.518738,63.103600 590.617126,46.828548 
	C558.606445,39.267380 526.100281,36.504761 493.430420,38.534847 
	C403.278564,44.136837 327.074463,80.470818 264.483856,145.296890 
	C211.202087,200.481674 178.272583,266.465332 162.786667,341.283081 
	C159.011246,359.523407 157.192062,378.108826 156.049469,396.758240 
	C155.069061,412.760223 155.148331,428.701263 156.221115,444.666077 
	C156.358109,446.704834 155.669174,449.724731 158.886566,449.562103 
	C162.556061,449.376617 167.632217,452.073120 169.614594,447.260712 
	C172.916595,439.244812 177.362640,432.181793 183.375137,426.028137 
	C185.367828,423.988739 184.931183,421.405914 184.993759,418.937958 
	C185.567886,396.295380 187.125534,373.728180 190.741577,351.353455 
	C199.635178,296.323120 218.365372,245.035660 250.554489,199.259094 
	C291.338379,141.259796 345.477600,100.911842 412.907928,78.543434 
	C446.707611,67.331192 481.384033,61.423687 516.963074,62.092617 
	C594.627014,63.552795 663.441711,88.791016 722.132141,140.188950 
	C762.010254,175.112061 790.655823,217.988617 810.652405,266.849335 
	C823.061096,297.169373 831.524536,328.602234 837.156738,360.844788 
	C838.260071,367.160858 838.337830,373.151306 834.356201,378.523895 
	C829.645386,384.880310 823.174316,387.552612 815.494751,386.059265 
	C807.598877,384.523804 802.359497,379.494385 800.731140,371.554810 
	C798.325317,359.824585 796.827087,347.926422 794.201233,336.221191 
	C785.305420,296.565155 769.265991,259.994354 746.428528,226.479004 
	C716.543518,182.620941 678.013916,148.473190 630.148621,125.237061 
	C599.414246,110.317108 566.998108,101.420937 532.820007,99.185104 
	C451.202881,93.845940 381.185760,120.526978 322.131012,176.360199 
	C272.223877,223.544861 242.075714,281.656616 229.125854,348.916840 
	C225.626801,367.090607 223.537933,385.385620 223.083481,403.901764 
	C222.956711,409.066254 224.970490,410.689240 229.719406,410.629974 
	C238.717087,410.517639 247.722412,410.456451 256.716156,410.693024 
	C285.443359,411.448669 309.300934,435.617462 309.358856,464.308014 
	C309.474304,521.472229 309.438995,578.637024 309.325500,635.801331 
	C309.269958,663.783936 285.408051,688.284790 257.356262,689.138428 
	C244.869553,689.518433 232.334763,689.750610 219.869995,689.110840 
	C196.772064,687.925476 180.324051,676.351318 171.064163,655.179626 
	C169.181351,650.874756 167.031418,650.097046 162.778625,650.533386 
	C106.484070,656.308411 56.886124,620.549744 47.864281,563.671326 
	C40.240959,515.609863 65.605179,474.435638 113.105141,456.065491 
	C117.557076,454.343750 118.451462,452.481354 118.179779,447.802917 
	C115.578926,403.015228 119.027046,358.742706 129.922485,315.097534 
	C144.478455,256.789001 169.236313,203.323090 205.872635,155.641220 
	C263.096100,81.165390 336.620850,31.186941 428.508667,9.398876 
	C447.150024,4.978709 466.178619,2.856760 485.630249,1.156251 
	C502.687561,1.000000 519.375122,1.000000 536.531372,1.000000 
M753.918091,578.500000 
	C753.751953,595.815002 753.435059,613.130371 753.466675,630.445007 
	C753.492676,644.685059 760.634094,651.646545 774.699341,651.680054 
	C783.692749,651.701477 792.686462,651.701172 801.679688,651.647705 
	C814.758850,651.570068 821.678528,644.606018 821.686157,631.553650 
	C821.718567,576.593750 821.744934,521.633850 821.768433,466.673920 
	C821.773010,456.051117 814.435669,448.493195 803.586243,448.309967 
	C792.930359,448.130035 782.267700,448.170868 771.610657,448.313019 
	C764.556335,448.407074 759.213318,451.641235 755.797302,457.908325 
	C753.612549,461.916351 753.934326,466.306854 753.929871,470.608368 
	C753.892944,506.238861 753.913574,541.869446 753.918091,578.500000 
M271.888519,569.500000 
	C271.870575,535.355103 271.928528,501.209900 271.792725,467.065460 
	C271.746277,455.391998 264.665649,448.437256 253.056549,448.294556 
	C242.731339,448.167633 232.401688,448.149902 222.077103,448.298950 
	C211.371399,448.453461 203.959961,456.122467 203.971710,466.778931 
	C204.026428,516.412292 204.095963,566.045593 204.154739,615.678955 
	C204.160461,620.508911 204.682693,625.418030 204.006470,630.153503 
	C202.243011,642.502502 211.499054,652.190186 224.023560,651.759277 
	C233.007309,651.450195 242.010086,651.703857 251.004349,651.687805 
	C265.232452,651.662292 271.836029,645.127686 271.861725,630.961548 
	C271.898254,610.807739 271.881256,590.653870 271.888519,569.500000 
M166.665024,519.500061 
	C166.662979,510.668396 166.490402,501.832031 166.733780,493.007141 
	C166.848480,488.848267 165.129715,487.317017 161.227203,487.195526 
	C151.869537,486.904236 142.534042,487.052032 133.421219,489.397797 
	C109.865822,495.461121 92.951225,509.338715 86.614464,533.205872 
	C80.056503,557.906128 85.996857,579.845032 105.768372,596.933838 
	C121.206490,610.277222 139.930222,613.319031 159.579300,612.758606 
	C166.147797,612.571228 166.653015,612.025269 166.655884,605.484131 
	C166.668289,577.156128 166.663223,548.828125 166.665024,519.500061 
M930.682678,585.174316 
	C946.778625,560.522766 945.074036,529.073120 926.166504,508.910339 
	C909.057739,490.665863 886.985901,486.286896 863.158142,487.329742 
	C859.736511,487.479492 859.290405,489.685120 859.304016,492.489441 
	C859.360596,504.142242 859.317810,515.795532 859.318665,527.448669 
	C859.320618,553.584961 859.418762,579.721863 859.242065,605.856934 
	C859.212097,610.289978 860.297974,612.342407 865.036194,611.995422 
	C869.175781,611.692261 873.356812,611.856323 877.516785,611.943665 
	C899.671875,612.408691 917.110596,603.414246 930.682678,585.174316 
z"/>
<path fill="#000000" opacity="1.000000" stroke="none" 
	d="
M327.468658,1025.000000 
	C325.116333,1023.166382 322.472626,1023.001465 320.226654,1021.955322 
	C307.657074,1016.100708 299.887146,1006.137756 299.162994,992.587830 
	C298.160492,973.828918 297.490082,954.924500 299.729065,936.182251 
	C303.394867,905.495728 330.766602,878.635132 361.568695,874.627319 
	C370.220673,873.501648 378.858398,873.817627 387.506500,873.786194 
	C410.003357,873.704468 432.500641,873.759033 454.997772,873.740723 
	C461.131897,873.735718 461.569580,873.340820 461.576019,867.239929 
	C461.610260,834.910767 461.621002,802.581543 461.606384,770.252380 
	C461.603363,763.542603 461.120117,763.100952 454.565277,763.081665 
	C448.232819,763.062988 441.900238,763.088562 435.567719,763.084900 
	C410.764191,763.070557 396.137177,748.534851 396.011871,723.646729 
	C395.934692,708.315796 395.876373,692.982056 396.107819,677.654053 
	C396.178864,672.950195 394.677185,669.736389 391.233398,666.406067 
	C366.538452,642.524963 351.254456,613.473022 344.736847,579.782776 
	C342.003693,565.654602 341.832214,551.327087 341.820251,537.022705 
	C341.770996,478.198151 341.126068,419.361633 342.084351,360.552094 
	C343.171783,293.819092 373.857422,244.143936 432.816467,212.796112 
	C454.171051,201.442139 477.462738,195.778305 501.939758,195.526398 
	C528.571594,195.252319 554.910950,196.977188 579.827332,207.255112 
	C635.511414,230.224609 669.201233,271.509857 681.288696,330.489075 
	C683.438721,340.979736 683.951416,351.632416 683.978271,362.261292 
	C684.132812,423.419800 684.118774,484.578827 684.092407,545.737671 
	C684.074463,587.234253 671.703857,624.339844 644.393860,656.014221 
	C640.918518,660.044861 637.221802,663.925903 633.296143,667.513550 
	C630.320068,670.233276 629.252380,673.223511 629.286316,677.191650 
	C629.433228,694.354614 629.483398,711.521484 629.279968,728.683533 
	C629.059570,747.270386 613.743408,762.605103 595.134277,763.031616 
	C586.473022,763.230103 577.801453,763.209534 569.139526,763.038757 
	C565.415344,762.965271 564.221191,764.403381 564.230713,768.032715 
	C564.319092,801.694763 564.350281,835.357483 564.200745,869.019104 
	C564.181152,873.427185 566.318604,873.797058 569.760620,873.788696 
	C597.423584,873.721436 625.094177,873.354004 652.747803,873.868347 
	C681.031677,874.394226 702.944519,886.870361 717.435242,911.424072 
	C724.361206,923.159912 727.299988,936.068420 727.202881,949.695129 
	C727.128052,960.193237 726.781067,970.711548 727.275330,981.186951 
	C728.274658,1002.364380 719.980164,1017.266907 699.250061,1024.760498 
	C575.312439,1025.000000 451.624878,1025.000000 327.468658,1025.000000 
M617.720093,628.574463 
	C626.163086,620.417114 631.063721,610.040039 635.767883,599.567993 
	C638.189148,594.177979 640.698364,588.770508 641.260681,582.649902 
	C638.469482,581.550598 635.994812,581.304688 633.507507,581.494080 
	C623.186218,582.279724 612.852112,581.820923 602.525330,581.828674 
	C599.218994,581.831177 595.804321,581.619629 592.626221,580.789978 
	C583.998291,578.537292 577.904968,569.511658 578.937378,561.093628 
	C580.148926,551.214844 588.149780,543.942078 598.448730,543.817322 
	C612.278748,543.649780 626.114441,543.638611 639.943054,543.856201 
	C644.359375,543.925720 646.154968,542.750122 646.101929,537.998047 
	C645.882507,518.335693 645.918579,498.668884 646.068542,479.005280 
	C646.101135,474.728363 644.756104,473.125275 640.325562,473.197266 
	C626.497192,473.421875 612.661621,473.394196 598.831238,473.242401 
	C587.080994,473.113434 578.827637,465.391266 578.698669,454.776642 
	C578.566162,443.871643 586.222839,435.758636 597.968079,435.606842 
	C612.114075,435.423950 626.276917,434.307953 640.418030,435.512085 
	C644.564392,435.865112 646.086853,434.463226 646.060730,430.267151 
	C645.935181,410.103271 645.938782,389.937622 646.080750,369.773865 
	C646.109619,365.675690 644.705688,364.255157 640.568176,364.309387 
	C626.072021,364.499420 611.571716,364.336639 597.073364,364.396576 
	C592.133789,364.416992 587.890076,362.797882 584.433411,359.366760 
	C578.658142,353.634155 577.090576,346.715515 579.921631,339.165558 
	C583.039246,330.851654 589.835449,327.159821 598.273560,326.933197 
	C610.596863,326.602264 622.935791,326.877167 635.267639,326.815308 
	C637.187012,326.805664 639.264954,327.377411 641.014648,325.987793 
	C641.534302,324.387939 640.867676,322.948273 640.439636,321.576111 
	C631.729980,293.656555 615.513062,271.210571 590.816772,255.409103 
	C556.774048,233.627563 519.402405,228.041672 480.484314,236.636520 
	C433.840454,246.937592 401.060669,274.196320 385.701447,320.469452 
	C385.058502,322.406403 383.757355,324.404327 384.973450,327.098114 
	C386.466309,327.098114 388.099213,327.070374 389.730927,327.102478 
	C403.384888,327.370972 417.080017,326.222290 430.688446,327.701660 
	C442.658783,329.002960 449.834900,341.283936 445.653442,352.558655 
	C442.600250,360.790985 435.959747,364.922760 424.905670,365.041534 
	C411.575073,365.184784 398.241272,365.160126 384.910217,365.047394 
	C381.293518,365.016815 379.854797,366.319031 379.872803,370.007202 
	C379.971130,390.171326 379.961395,410.336395 379.872894,430.500610 
	C379.856384,434.267029 381.109192,435.810944 385.110107,435.754456 
	C398.772705,435.561523 412.439850,435.667786 426.105194,435.692352 
	C437.982788,435.713715 447.033722,443.961395 446.945251,454.632996 
	C446.857971,465.163116 438.004242,473.225800 426.332764,473.276459 
	C413.000916,473.334351 399.663879,473.500092 386.339020,473.190887 
	C381.246765,473.072693 379.767792,474.760254 379.793091,479.762878 
	C379.891510,499.251923 379.701691,518.745056 379.352051,538.231812 
	C379.271729,542.708374 380.828705,543.927551 385.129181,543.859070 
	C399.290955,543.633728 413.459991,543.648132 427.623260,543.819397 
	C435.375275,543.913025 441.415436,547.462769 445.121002,554.366455 
	C448.592010,560.833069 447.968231,567.258850 443.948914,573.289246 
	C439.904999,579.356628 433.924438,581.875916 426.822784,581.842102 
	C414.829803,581.785095 402.835754,582.237793 390.842133,581.503174 
	C384.620728,581.122070 383.654266,582.522034 385.666443,588.376282 
	C390.186676,601.527649 396.221161,613.916931 404.561646,625.108032 
	C405.936249,626.952454 407.068329,628.682922 410.138062,628.305298 
	C416.234619,627.555420 422.410004,627.160217 428.554871,627.135193 
	C471.548615,626.960083 514.543091,626.808594 557.536987,626.879822 
	C577.351746,626.912659 597.180359,627.001465 617.720093,628.574463 
M674.161865,918.310120 
	C667.884216,913.775574 660.799438,911.447388 653.129639,911.442322 
	C559.499023,911.380554 465.868347,911.347046 372.237854,911.441528 
	C354.754913,911.459167 340.177124,923.984375 337.274292,941.266846 
	C335.054504,954.482788 336.692932,967.860901 336.347992,981.161316 
	C336.176514,987.771912 336.324829,987.792786 342.879547,987.794128 
	C379.365509,987.801758 415.851440,987.802490 452.337402,987.801636 
	C529.307739,987.799744 606.278198,987.748657 683.248291,987.899353 
	C688.277039,987.909180 689.939270,986.607788 689.748108,981.481079 
	C689.369568,971.332581 689.742004,961.158508 689.614380,950.997375 
	C689.451965,938.072388 685.705322,926.718689 674.161865,918.310120 
M591.604919,721.973389 
	C591.628357,704.813477 591.604797,687.653198 591.716614,670.493835 
	C591.738037,667.207336 591.308105,665.227173 587.196594,665.236145 
	C537.715576,665.344299 488.234253,665.334351 438.753143,665.256104 
	C435.206451,665.250488 434.138550,666.616211 434.158661,669.981628 
	C434.258087,686.641357 434.268921,703.302490 434.145813,719.961975 
	C434.119171,723.567749 435.289215,724.986755 439.028564,724.981323 
	C488.343018,724.909668 537.657654,724.949524 586.972229,724.940857 
	C588.758057,724.940552 590.774902,725.224731 591.604919,721.973389 
M518.360352,871.714478 
	C521.527039,870.954102 526.684753,874.062256 526.676514,867.216248 
	C526.636353,833.897095 526.634216,800.577881 526.696533,767.258850 
	C526.702209,764.223572 525.469177,763.054382 522.552673,763.089233 
	C517.056030,763.155029 511.557861,763.078430 506.060547,763.106445 
	C499.328461,763.140747 499.307739,763.160889 499.303741,769.680847 
	C499.290039,792.004700 499.290314,814.328552 499.289246,836.652405 
	C499.288788,846.814758 499.404236,856.978760 499.243744,867.138489 
	C499.188416,870.639038 500.456879,871.902954 503.906128,871.750793 
	C508.395264,871.552673 512.900085,871.709351 518.360352,871.714478 
z"/>
</svg>