<svg version="1.1" id="Layer_1" xmlns="http://www.w3.org/2000/svg" xmlns:xlink="http://www.w3.org/1999/xlink" x="0px" y="0px"
	 width="100%" viewBox="0 0 1024 1024" enable-background="new 0 0 1024 1024" xml:space="preserve">
<path fill="#000000" opacity="1.000000" stroke="none" 
	d="
M1.000000,271.467957 
	C2.797186,269.050964 2.751261,266.375763 3.693175,264.083588 
	C13.060715,241.287399 38.617165,230.882553 61.275280,240.719818 
	C83.447937,250.346344 93.484177,276.446442 83.157341,298.561920 
	C81.293625,302.553162 81.978821,304.727417 84.877518,307.542603 
	C94.678383,317.061096 104.327820,326.739471 113.886665,336.502106 
	C124.029144,346.860870 136.424896,351.579651 150.719925,351.640198 
	C166.716339,351.707947 182.713394,351.632843 198.710159,351.614594 
	C205.509857,351.606873 205.611389,351.522003 205.612564,344.549835 
	C205.624237,275.063843 205.542572,205.577667 205.667450,136.091873 
	C205.732117,100.110092 230.981842,69.012062 266.073273,61.166553 
	C270.802429,60.109241 275.569885,59.575691 280.435913,59.576683 
	C435.404755,59.608376 590.373596,59.573116 745.342407,59.628429 
	C781.754089,59.641426 814.763245,88.987442 819.468079,124.987640 
	C820.141724,130.142044 820.344727,135.261551 820.346375,140.418686 
	C820.368713,208.404999 820.376221,276.391327 820.392395,344.377625 
	C820.394165,351.646271 820.408325,351.657288 827.890259,351.661591 
	C843.720398,351.670776 859.550598,351.690216 875.380676,351.662048 
	C889.520630,351.636902 901.740112,346.963135 911.773987,336.771942 
	C921.709900,326.680389 931.734741,316.674286 941.854858,306.767944 
	C944.216614,304.456146 944.693909,302.590332 943.276794,299.401764 
	C930.388977,270.403290 947.816101,239.866531 979.265991,237.066315 
	C996.220764,235.556717 1015.763733,245.067932 1023.219910,266.583008 
	C1023.763611,268.151886 1024.250000,269.740601 1024.881592,271.660065 
	C1025.000000,277.022095 1025.000000,282.044189 1024.870361,287.869690 
	C1024.616699,288.980957 1024.443481,289.278351 1024.375488,289.598083 
	C1018.257385,318.368774 985.268005,332.733978 960.022522,317.465240 
	C957.410522,315.885468 955.817444,316.699066 953.971863,318.558044 
	C944.935852,327.659576 935.696777,336.562927 926.784485,345.782837 
	C912.102051,360.972046 894.434875,368.637421 873.213501,368.307159 
	C857.558289,368.063507 841.893982,368.400024 826.238892,368.153259 
	C821.672913,368.081268 820.247681,369.425354 820.265991,374.074799 
	C820.432922,416.386627 820.365784,458.699341 820.380615,501.011810 
	C820.382874,507.604950 820.414429,507.621826 827.056763,507.623840 
	C862.206116,507.634613 897.356079,507.530884 932.503967,507.760529 
	C937.476807,507.793030 939.714539,506.365601 941.385559,501.571625 
	C952.011963,471.085449 990.180176,462.622498 1013.077393,485.348145 
	C1019.245117,491.469727 1022.106689,499.190613 1025.000000,507.000000 
	C1025.000000,512.354919 1025.000000,517.709900 1024.843872,523.854980 
	C1024.519775,525.113953 1024.330322,525.576355 1024.186768,526.052551 
	C1018.242432,545.765930 1002.557251,558.631592 983.822144,559.156677 
	C964.177673,559.707092 947.827881,548.099731 940.814819,528.264221 
	C939.614624,524.869751 937.745361,524.131226 934.544617,524.137573 
	C898.234314,524.209595 861.923706,524.240417 825.613708,524.114563 
	C821.368164,524.099854 820.286621,525.663330 820.298584,529.677124 
	C820.416748,569.151855 820.456421,608.627502 820.265564,648.101562 
	C820.242249,652.934021 821.959106,653.976868 826.338440,653.924866 
	C842.325989,653.734802 858.317322,653.883423 874.307129,653.857666 
	C894.137024,653.825745 910.979980,660.774048 924.875305,675.016602 
	C934.644592,685.029968 944.764893,694.702393 954.468323,704.777588 
	C957.453491,707.877136 959.753357,708.511963 963.836609,706.570190 
	C982.706970,697.596497 1004.386597,703.308899 1016.950134,719.923157 
	C1020.867615,725.103699 1022.591370,731.181396 1025.000000,737.000000 
	C1025.000000,742.354919 1025.000000,747.709900 1025.000000,753.532410 
	C1022.482483,761.804749 1019.506714,769.319092 1013.606384,775.369568 
	C997.621765,791.761230 974.036987,793.607300 955.549744,779.794312 
	C938.737854,767.233276 933.887390,743.001770 944.639832,724.083862 
	C946.302368,721.158813 945.967773,719.464478 943.724365,717.253052 
	C932.687805,706.373840 921.919556,695.218933 910.763489,684.465454 
	C901.387024,675.427490 890.142761,670.790039 876.866760,671.003967 
	C860.539062,671.267151 844.203918,671.059326 827.871948,671.063538 
	C820.375183,671.065491 820.370728,671.074585 820.369629,678.363403 
	C820.359192,749.190735 820.494934,820.018555 820.285950,890.845276 
	C820.163757,932.255737 785.583923,966.389160 744.100159,966.406189 
	C612.444458,966.460327 480.788757,966.413452 349.133057,966.457275 
	C327.306427,966.464539 305.478851,966.939819 283.653534,966.830627 
	C246.608749,966.645447 215.240967,941.500732 207.356766,905.996826 
	C206.052338,900.122681 205.577118,894.176270 205.581421,888.147827 
	C205.630600,819.320251 205.617966,750.492615 205.621033,681.665039 
	C205.621124,679.831848 205.481064,677.987671 205.634354,676.167786 
	C205.967499,672.212952 204.183167,670.988037 200.342148,671.021118 
	C182.178268,671.177429 164.011322,670.994385 145.847885,671.175598 
	C134.321457,671.290649 124.366035,675.846375 116.172951,683.724304 
	C104.642891,694.810730 93.589386,706.391968 82.098289,717.520203 
	C79.189041,720.337463 80.591667,722.263306 81.960152,724.827759 
	C97.735420,754.390320 76.193237,789.703247 42.756084,789.158386 
	C24.561096,788.862000 7.729154,775.946472 2.637526,758.398743 
	C2.268313,757.126282 1.746698,755.898071 1.147975,754.324646 
	C1.000000,748.645081 1.000000,743.290100 1.151666,737.144653 
	C1.570619,735.745178 1.894515,735.154358 2.097043,734.524597 
	C11.030723,706.745544 37.498936,694.906616 63.637379,707.181152 
	C66.467087,708.509949 68.086014,708.066589 70.108894,706.018616 
	C80.175034,695.827698 90.535240,685.921631 100.437485,675.575928 
	C114.620804,660.757385 131.878433,653.734375 152.255936,653.830444 
	C167.913666,653.904236 183.575333,653.654053 199.228256,653.936401 
	C204.348114,654.028809 205.733078,652.300720 205.710815,647.325684 
	C205.537109,608.514404 205.621292,569.701904 205.613083,530.889832 
	C205.611679,524.250061 205.583679,524.227356 198.975784,524.224670 
	C163.994934,524.210388 129.012833,524.355408 94.034523,524.054199 
	C88.364296,524.005371 86.083229,525.821655 84.203163,531.064819 
	C73.766525,560.170166 36.375130,568.501099 14.011403,547.133118 
	C7.487982,540.900146 4.360032,532.947876 1.000000,525.000000 
	C1.000000,519.311951 1.000000,513.623901 1.146063,507.142334 
	C1.617624,505.583649 2.014423,504.840546 2.258165,504.050171 
	C8.161739,484.908905 23.618162,472.851166 42.589069,472.607330 
	C62.867363,472.346710 78.970413,483.687134 85.220222,503.048798 
	C86.460342,506.890656 88.501236,507.669098 92.117409,507.660095 
	C128.104599,507.570282 164.092484,507.554138 200.079178,507.724762 
	C204.626602,507.746338 205.697693,506.058044 205.686630,501.860992 
	C205.574127,459.209473 205.566498,416.557343 205.692719,373.905884 
	C205.705612,369.548065 204.344223,368.108673 199.955902,368.166229 
	C183.797638,368.378235 167.634521,368.179779 151.473984,368.269745 
	C131.432770,368.381287 114.459595,361.343140 100.419052,347.014648 
	C91.440987,337.852448 82.180206,328.966827 73.225388,319.782532 
	C70.423416,316.908752 68.361343,316.117706 64.352684,318.307587 
	C44.719559,329.032959 21.504292,323.398529 8.450803,305.293274 
	C4.874703,300.333191 3.343359,294.493835 1.000000,289.000000 
	C1.000000,283.311951 1.000000,277.623932 1.000000,271.467957 
M222.159851,568.500000 
	C222.197037,599.996338 222.268951,631.492615 222.264465,662.988953 
	C222.253891,737.149414 222.204727,811.309875 222.178589,885.470337 
	C222.176468,891.466309 222.416031,897.420410 223.884262,903.304077 
	C231.391312,933.387390 258.347656,950.052307 284.812195,950.000366 
	C429.634033,949.716003 574.456726,949.875122 719.279175,949.877197 
	C727.944824,949.877380 736.612488,949.949097 745.275635,949.790955 
	C758.586426,949.547974 770.441223,944.918762 780.696167,936.659302 
	C797.470825,923.148987 804.016907,905.213013 803.980957,883.885132 
	C803.769287,758.398438 803.889099,632.911255 803.873108,507.424194 
	C803.866821,457.762360 803.780823,408.100525 803.763062,358.438690 
	C803.736389,283.779572 803.753784,209.120422 803.708740,134.461334 
	C803.702576,124.212654 800.740234,114.624367 795.400513,106.030785 
	C782.868652,85.862259 764.494446,76.094894 740.707703,76.102478 
	C588.719177,76.150970 436.730621,76.122871 284.742065,76.125328 
	C282.909637,76.125359 281.071930,76.119736 279.245575,76.245361 
	C260.917450,77.506065 246.033951,85.437447 234.819229,99.892586 
	C225.355972,112.090187 222.038544,126.172981 222.054749,141.537872 
	C222.204468,283.525116 222.153259,425.512604 222.159851,568.500000 
M970.796692,769.787781 
	C981.080078,774.672852 990.662842,773.117859 999.182007,765.993835 
	C1007.577637,758.972961 1010.729797,749.720703 1007.934204,739.086975 
	C1004.619995,726.480835 994.235046,719.017700 981.327148,719.229919 
	C969.564819,719.423218 959.355652,727.429199 956.458008,738.731995 
	C953.244385,751.267395 958.420288,762.918274 970.796692,769.787781 
M958.984680,293.431061 
	C968.640686,308.085083 985.960815,311.249084 999.062988,300.752533 
	C1008.373657,293.293427 1011.443420,280.068512 1006.395813,269.162170 
	C1001.296875,258.144958 988.787842,252.033981 977.164856,254.038834 
	C961.579529,256.727173 949.526917,275.544891 958.984680,293.431061 
M36.287819,771.330383 
	C40.843544,772.674011 45.368469,772.747375 50.038425,771.640625 
	C64.698952,768.166077 73.567749,752.841614 69.331398,738.034851 
	C65.258957,723.800964 49.131130,715.600891 35.120731,720.640747 
	C24.430902,724.486145 17.480946,733.839539 17.253036,744.687378 
	C16.999775,756.742126 23.557013,766.187683 36.287819,771.330383 
M974.000854,490.339172 
	C958.273254,496.150574 951.353699,512.151550 958.110413,527.084778 
	C964.502197,541.211548 981.738159,546.448792 995.807434,538.539368 
	C1006.683472,532.425110 1011.721924,518.181091 1007.121948,506.552795 
	C1001.813904,493.134857 989.082458,486.664398 974.000854,490.339172 
M44.382195,253.427322 
	C32.585163,253.880234 24.015318,259.469666 19.329754,270.212830 
	C15.097347,279.916931 16.871918,289.121826 23.482609,297.337982 
	C30.955399,306.625580 44.682941,309.448944 55.696091,304.053558 
	C66.211258,298.902100 72.347534,286.541016 69.879593,275.346161 
	C66.959419,262.099884 58.227554,255.349945 44.382195,253.427322 
M61.856876,535.378845 
	C69.111771,527.933350 72.171112,519.300476 69.578125,508.940277 
	C66.097755,495.034607 51.403858,486.348572 37.378155,490.009125 
	C22.947639,493.775360 14.191045,508.455872 18.066626,522.385010 
	C23.370996,541.449219 44.748051,548.102539 61.856876,535.378845 
z"/>
<path fill="#000000" opacity="1.000000" stroke="none" 
	d="
M346.999878,855.422363 
	C330.835510,855.418884 315.171021,855.455017 299.506836,855.402466 
	C268.588440,855.298645 246.995667,833.705322 246.981781,802.836853 
	C246.948608,729.181091 246.939270,655.525269 246.946793,581.869507 
	C246.959015,462.220551 246.979584,342.571564 247.026901,222.922607 
	C247.037292,196.653412 263.611298,176.046921 288.398163,171.443375 
	C291.323975,170.899979 294.359161,170.747543 297.343689,170.746948 
	C440.989105,170.718124 584.634521,170.716644 728.279968,170.737946 
	C755.880859,170.742035 777.905457,191.826828 779.025024,219.526428 
	C779.435242,229.675751 779.176208,239.853210 779.176758,250.017838 
	C779.186829,433.657349 779.158752,617.296875 779.241333,800.936401 
	C779.249756,819.685486 772.854675,835.109985 757.513123,846.305969 
	C748.443359,852.925049 738.115540,855.479248 726.942078,855.450073 
	C690.781067,855.355713 654.619568,855.419556 618.458252,855.420105 
	C528.138794,855.421387 437.819336,855.421448 346.999878,855.422363 
M264.185425,428.500000 
	C264.186432,553.324829 264.208893,678.149658 264.136536,802.974487 
	C264.132050,810.681580 265.243439,817.913391 269.804993,824.295776 
	C277.328918,834.822815 287.786835,838.785339 300.487701,838.775574 
	C420.313202,838.682983 540.138794,838.733459 659.964417,838.738525 
	C682.962830,838.739502 705.962402,838.859924 728.959290,838.669983 
	C747.658813,838.515564 761.809998,824.187744 761.813110,805.544861 
	C761.845886,610.890747 761.851135,416.236694 761.818787,221.582611 
	C761.815369,201.092789 747.758667,187.330582 727.037781,187.328400 
	C584.213623,187.313324 441.389526,187.314499 298.565399,187.335144 
	C278.293701,187.338074 264.191986,201.336075 264.182556,221.513458 
	C264.150452,290.175629 264.180206,358.837830 264.185425,428.500000 
z"/>
<path fill="#000000" opacity="1.000000" stroke="none" 
	d="
M547.999878,910.344238 
	C515.859070,910.349487 484.218323,910.354492 452.577545,910.358643 
	C450.745728,910.358887 448.912933,910.388733 447.082275,910.340942 
	C440.596161,910.171692 436.738708,906.991699 436.791077,901.892700 
	C436.842804,896.857666 440.777222,893.706177 447.284302,893.702515 
	C491.081787,893.677734 534.879272,893.693909 578.676758,893.675842 
	C582.520935,893.674316 585.965454,894.322693 588.057739,898.060608 
	C589.694580,900.985046 589.532043,903.808777 587.721130,906.539734 
	C585.644104,909.671936 582.432556,910.331421 578.974976,910.334595 
	C568.816650,910.343933 558.658264,910.341675 547.999878,910.344238 
z"/>
<path fill="#000000" opacity="1.000000" stroke="none" 
	d="
M579.999878,132.321777 
	C550.334961,132.321060 521.170044,132.320496 492.005127,132.318832 
	C489.675079,132.318710 487.362854,132.386459 485.164978,131.287399 
	C482.137085,129.773285 480.807251,127.234245 480.717926,124.039627 
	C480.625946,120.750023 482.164185,118.316612 485.148834,116.817688 
	C487.483582,115.645142 489.981171,115.712639 492.484680,115.713196 
	C527.982544,115.721031 563.480408,115.722862 598.978271,115.727791 
	C599.978088,115.727928 600.982422,115.688538 601.977051,115.765633 
	C607.672607,116.207153 611.374329,119.640739 611.216003,124.298172 
	C611.055603,129.016693 607.346313,132.188538 601.498169,132.289413 
	C594.500671,132.410110 587.499512,132.320282 579.999878,132.321777 
z"/>
<path fill="#000000" opacity="1.000000" stroke="none" 
	d="
M462.499084,118.408195 
	C466.845917,126.026283 463.591156,132.130356 455.280914,132.276657 
	C444.951569,132.458511 434.615417,132.395493 424.284149,132.273651 
	C418.523499,132.205704 414.883423,128.869705 414.843201,124.048988 
	C414.805664,119.551414 418.324615,115.944893 423.784332,115.824127 
	C434.610992,115.584648 445.446899,115.713005 456.278351,115.785934 
	C458.479858,115.800751 460.489563,116.715973 462.499084,118.408195 
z"/>
<path fill="#000000" opacity="1.000000" stroke="none" 
	d="
M391.575012,371.271149 
	C398.203857,372.605377 404.453400,373.659271 410.595551,375.154480 
	C413.622498,375.891327 415.470520,375.335846 417.377655,372.786377 
	C422.817993,365.513733 430.314178,361.205383 439.219238,360.022034 
	C443.004425,359.519043 444.213226,357.773712 445.119446,354.604462 
	C450.403046,336.126923 457.167542,318.236359 467.138336,301.719452 
	C472.322754,293.131317 478.331970,285.172546 486.216644,278.783203 
	C504.320374,264.112885 524.575623,264.849701 541.714233,280.713715 
	C552.420776,290.624023 559.843445,302.766907 566.266846,315.677307 
	C576.054749,335.350006 581.967041,356.325348 587.033936,377.554932 
	C588.074219,381.913879 589.580688,382.335205 593.479309,381.130035 
	C620.312683,372.835266 647.570679,366.897949 675.885925,367.749329 
	C686.096558,368.056366 696.106628,369.792542 705.504272,373.979492 
	C724.423584,382.408630 732.837280,399.265137 728.899292,419.647095 
	C725.081421,439.407043 714.471375,455.623993 702.662231,471.249573 
	C696.229309,479.761566 689.202332,487.786835 681.603394,495.283234 
	C679.585938,497.273438 679.067017,499.127716 679.968323,501.941223 
	C682.213257,508.948395 682.178772,516.112549 679.466309,522.981689 
	C678.197144,526.195679 679.062683,528.136169 681.278137,530.399353 
	C695.191833,544.612671 707.774475,559.895935 717.677185,577.222046 
	C723.752563,587.851990 728.156799,599.035339 729.455017,611.412964 
	C731.843567,634.184998 718.080627,647.443787 703.717651,652.972107 
	C687.914978,659.054626 671.459229,659.241821 654.951843,657.806519 
	C632.495789,655.854004 610.677368,650.598938 589.158142,643.802307 
	C586.908569,646.234497 586.996887,649.218933 586.350769,651.864380 
	C580.044250,677.686584 572.042603,702.854980 557.926880,725.650574 
	C552.190735,734.913818 545.345215,743.237305 536.433594,749.716675 
	C521.640991,760.471680 504.991394,760.718628 490.017365,750.164185 
	C477.693451,741.477661 469.536133,729.385315 462.727234,716.235168 
	C455.349945,701.987366 449.508240,687.128357 445.197327,671.680847 
	C444.256500,668.309631 442.881653,666.469727 438.899750,665.964539 
	C430.334717,664.877869 423.106781,660.704041 417.860352,653.741516 
	C415.583984,650.720581 413.286133,650.273376 409.733124,651.116394 
	C389.759216,655.855835 369.595032,659.252747 348.938934,658.310913 
	C340.249512,657.914734 331.722504,656.532593 323.545593,653.490723 
	C302.351440,645.606079 292.576691,627.586304 297.026581,605.461487 
	C301.102112,585.198303 312.230591,568.690125 324.618469,552.893860 
	C334.498077,540.296021 345.501007,528.673584 357.344910,517.878845 
	C358.817505,516.536682 360.532349,515.460327 361.626099,514.641663 
	C360.909515,510.670258 358.508728,509.437653 356.786499,507.770294 
	C339.505219,491.039459 323.137146,473.551453 310.661438,452.796509 
	C303.485565,440.858551 297.800781,428.421844 296.521454,414.252197 
	C294.914734,396.456055 302.666443,382.061493 318.941589,374.566742 
	C334.864075,367.234467 351.848114,366.843079 368.912842,368.189209 
	C376.357819,368.776489 383.740479,370.154022 391.575012,371.271149 
M713.584229,615.456726 
	C712.703857,606.213806 709.785583,597.607910 705.506897,589.414124 
	C696.156250,571.507263 683.154968,556.389038 669.357544,541.860107 
	C667.524292,539.929688 666.009949,539.976685 663.705261,541.121216 
	C653.912842,545.984253 643.902649,546.511353 633.895935,541.716064 
	C631.856323,540.738647 630.401733,540.767090 628.484619,542.198181 
	C619.947632,548.570801 611.306274,554.807556 602.590942,560.934631 
	C600.309326,562.538635 599.415405,564.373413 599.215820,567.122986 
	C597.890747,585.383118 596.038391,603.590088 592.517029,621.579041 
	C591.747864,625.508362 592.677795,627.576172 596.894714,628.754089 
	C613.727051,633.456299 630.585327,638.052307 647.938782,640.326843 
	C662.820435,642.277588 677.761292,643.250671 692.520691,639.166199 
	C704.276245,635.913025 712.436340,629.328552 713.584229,615.456726 
M328.896667,575.373779 
	C322.477570,585.153687 316.608917,595.206482 313.821136,606.723694 
	C309.971375,622.628784 315.737305,633.318542 330.883636,638.313049 
	C337.078979,640.355957 343.501343,641.392029 349.994751,641.657227 
	C369.116699,642.438293 387.766602,639.228943 406.262634,634.763489 
	C409.053070,634.089783 410.449982,632.855713 410.744873,629.773865 
	C411.815338,618.586365 417.172760,609.929443 427.030945,604.373901 
	C429.657410,602.893799 430.303223,601.157593 429.983856,598.314453 
	C428.777222,587.571777 427.718292,576.811157 426.754669,566.043762 
	C426.550690,563.764221 425.442688,562.389709 423.724487,561.211060 
	C407.916351,550.367249 392.582794,538.890076 377.953949,526.498657 
	C375.646881,524.544434 374.192810,524.731567 372.100037,526.735107 
	C356.554535,541.617126 341.541229,556.959839 328.896667,575.373779 
M477.255951,631.144409 
	C477.085754,643.001465 472.865784,652.922791 463.100769,660.024841 
	C460.488983,661.924316 459.971130,663.884521 461.050873,666.856567 
	C463.892212,674.677856 466.262177,682.676453 469.269257,690.430115 
	C474.962067,705.108765 482.159027,718.973328 492.923157,730.691895 
	C505.135620,743.987183 519.810913,744.265564 532.587280,731.488770 
	C536.848633,727.227173 540.444641,722.433411 543.628540,717.331848 
	C557.952026,694.381165 564.955078,668.684082 571.522339,642.828308 
	C572.341675,639.602539 571.333008,637.502747 567.938782,636.340637 
	C550.420166,630.342346 533.625732,622.604553 516.908630,614.707031 
	C514.098816,613.379761 511.709717,613.453064 508.884094,614.793762 
	C499.860809,619.075256 490.708588,623.085327 481.602295,627.191589 
	C479.956909,627.933533 478.044647,628.302063 477.255951,631.144409 
M544.445374,398.824829 
	C552.052124,395.870392 559.575439,392.668701 567.299255,390.061371 
	C571.427490,388.667755 572.237976,386.493286 571.310730,382.590118 
	C566.451782,362.138000 560.547180,342.012756 551.487976,322.998444 
	C545.523804,310.480286 538.703064,298.377014 527.066162,290.004333 
	C518.032349,283.504547 508.740997,283.463470 499.657104,289.725189 
	C494.949982,292.969910 491.079376,297.101074 487.647797,301.649353 
	C474.364258,319.255463 467.218811,339.664154 460.747162,360.395935 
	C459.836273,363.314026 461.365082,364.655823 463.343414,366.138794 
	C472.188141,372.768707 476.587372,381.839233 477.097351,392.702972 
	C477.257233,396.109406 478.557587,397.717224 481.516144,398.973694 
	C491.172028,403.074493 500.758392,407.342987 510.308990,411.684509 
	C512.510620,412.685333 514.325317,412.531555 516.455627,411.539154 
	C525.514587,407.318817 534.640259,403.241882 544.445374,398.824829 
M314.955231,423.568115 
	C315.966827,426.207428 316.814575,428.923859 318.015137,431.474213 
	C330.773071,458.576996 351.300323,479.461914 372.668091,499.677765 
	C374.516327,501.426422 375.893158,501.255035 377.774170,499.648102 
	C392.228210,487.299835 407.499115,476.021515 423.170105,465.274292 
	C424.955933,464.049561 426.501038,462.803131 426.726318,460.225586 
	C427.609314,450.122467 428.599426,440.024323 429.820160,429.957123 
	C430.346283,425.618042 429.003479,422.874420 425.241760,420.510986 
	C416.700195,415.144409 411.953766,407.108246 410.757660,397.129822 
	C410.332764,393.585114 408.710205,391.992767 405.281677,391.164917 
	C391.346313,387.799927 377.271301,385.255951 362.967712,384.459869 
	C350.783661,383.781769 338.632385,384.413208 327.173706,389.342743 
	C319.325439,392.719055 314.132599,398.272583 312.822876,407.098114 
	C312.011505,412.565399 313.495422,417.641754 314.955231,423.568115 
M600.076050,462.993347 
	C608.950562,469.459106 617.854248,475.885498 626.676880,482.421265 
	C628.623535,483.863312 630.220398,483.511932 632.170410,482.510803 
	C643.230774,476.832428 654.315918,477.142487 665.108093,483.093872 
	C667.959229,484.666107 669.497864,483.999298 671.503113,481.964661 
	C677.007080,476.380280 682.094360,470.435089 686.952393,464.306732 
	C697.751282,450.684143 707.730713,436.562897 712.098328,419.336731 
	C716.075928,403.648590 710.397034,393.072845 695.097046,387.756073 
	C689.090576,385.668793 682.825500,384.623291 676.505554,384.382599 
	C648.654663,383.321838 622.103027,390.227600 595.665649,397.795471 
	C592.604431,398.671753 591.792847,400.584442 592.347717,403.442932 
	C596.124695,422.901794 597.882996,442.611755 600.076050,462.993347 
M443.821594,554.394226 
	C464.714569,568.436462 486.608429,580.749512 508.982544,592.247009 
	C511.754547,593.671448 514.163208,593.878845 516.965271,592.403992 
	C538.628357,581.002075 559.995911,569.097351 580.483154,555.663208 
	C582.404053,554.403625 583.648071,553.015320 583.707397,550.482178 
	C583.851318,544.337524 584.450073,538.202332 584.556274,532.058044 
	C584.878357,513.422607 584.778870,494.791351 583.732666,476.170685 
	C583.584961,473.542542 582.669067,471.862183 580.535950,470.446259 
	C559.979980,456.801575 538.429199,444.885620 516.599121,433.444641 
	C514.157166,432.164886 511.988831,432.188416 509.527374,433.458466 
	C487.769073,444.685364 466.448029,456.656586 446.010681,470.171539 
	C443.548370,471.799866 442.491028,473.708496 442.314209,476.696411 
	C441.182800,495.814880 440.863708,514.956055 441.604462,534.072815 
	C441.858276,540.622986 441.431946,547.353577 443.821594,554.394226 
M424.832153,508.524811 
	C424.832153,500.783936 424.832153,493.043091 424.832153,484.583160 
	C411.883392,493.522308 399.926300,502.773346 387.875488,513.017700 
	C400.012115,523.174316 411.623962,532.606201 424.712891,541.184021 
	C425.691681,530.048706 424.409424,519.775146 424.832153,508.524811 
M574.597717,579.166443 
	C560.794739,587.185608 546.991760,595.204834 532.484985,603.632935 
	C545.375854,609.798645 557.953979,614.497742 570.344666,619.644409 
	C574.621094,621.420654 576.023865,619.904114 576.572571,615.969788 
	C577.534851,609.070435 578.706726,602.199036 579.583435,595.289551 
	C580.384644,588.974854 580.911316,582.625366 581.570068,576.182312 
	C578.632996,576.121033 577.124756,577.919312 574.597717,579.166443 
M535.732544,420.893524 
	C534.860291,421.518707 533.379822,421.481079 533.330444,423.401184 
	C549.501282,431.639313 565.091736,441.183044 581.846619,451.035004 
	C579.982117,434.906494 578.618469,420.143219 575.196411,404.990692 
	C561.562012,409.684570 548.939880,415.110321 535.732544,420.893524 
M454.273865,645.863098 
	C455.297180,644.773254 456.456421,643.781189 457.321716,642.577759 
	C462.987793,634.697937 460.605225,623.750122 452.195099,618.760437 
	C443.926819,613.854919 433.460846,616.866638 429.099304,625.406494 
	C425.800140,631.866272 427.224670,640.407898 432.402496,645.212646 
	C437.978241,650.386658 445.748840,650.787659 454.273865,645.863098 
M449.704407,377.648071 
	C443.120667,375.304321 437.093750,376.443390 432.154358,381.269836 
	C427.669464,385.652222 426.307434,391.296356 427.866364,397.372162 
	C429.805695,404.930634 436.288605,409.682739 444.117249,409.642456 
	C451.841064,409.602722 458.163025,404.123383 460.167053,395.731812 
	C461.801270,388.888733 457.987549,381.941040 449.704407,377.648071 
M664.664062,509.045593 
	C664.282410,507.779388 664.024658,506.459045 663.498901,505.255768 
	C660.172913,497.644257 651.573608,493.475189 643.765015,495.628448 
	C636.255981,497.699066 631.403503,505.200439 632.095947,513.667664 
	C632.752930,521.700562 638.744019,527.445862 647.180237,528.132935 
	C657.184265,528.947693 664.823486,520.998230 664.664062,509.045593 
M492.200958,423.587921 
	C493.096497,422.705780 492.543335,421.996704 491.758057,421.654358 
	C485.523743,418.936401 479.268768,416.265228 473.001038,413.625000 
	C471.150787,412.845612 469.832764,413.856934 468.649414,415.156952 
	C463.689941,420.605011 457.558258,424.078766 450.426056,425.764465 
	C448.182922,426.294556 446.942291,427.518188 446.709625,429.780701 
	C446.020691,436.480743 444.663940,443.136597 445.213837,450.514069 
	C460.823730,441.277863 475.951965,432.041229 492.200958,423.587921 
M461.445923,585.100281 
	C456.074799,581.926697 450.703644,578.753174 444.557373,575.121643 
	C445.269806,582.480835 445.895721,588.737000 446.472687,594.997681 
	C446.745331,597.956055 447.973572,599.851196 451.131866,600.549622 
	C457.810760,602.026489 463.490021,605.380066 468.146698,610.418884 
	C469.415131,611.791443 470.703094,613.186218 472.843170,612.478027 
	C479.753510,610.191406 486.265045,607.033081 493.594330,603.564148 
	C482.505768,597.197510 472.290741,591.332397 461.445923,585.100281 
M601.094238,489.340210 
	C601.094238,506.529816 601.094238,523.719421 601.094238,541.711792 
	C606.743958,537.508362 611.745422,533.704163 616.842773,530.033264 
	C619.074341,528.426208 618.370300,526.667542 617.536072,524.776184 
	C613.932617,516.606934 613.878418,508.337677 616.916687,500.012054 
	C617.456604,498.532593 617.994507,497.121826 616.512085,495.941864 
	C611.763184,492.161926 607.088989,488.264832 601.910645,485.346954 
	C600.571228,486.585327 601.130981,487.620483 601.094238,489.340210 
z"/>
<path fill="#000000" opacity="1.000000" stroke="none" 
	d="
M556.062500,552.045959 
	C539.189331,569.027100 519.443726,575.598877 496.601501,568.633362 
	C473.280212,561.521790 459.306885,545.137512 455.714966,521.101318 
	C450.681061,487.415741 475.513611,457.313599 509.454712,454.847870 
	C538.601013,452.730438 566.232422,475.231598 570.417603,504.126343 
	C573.049622,522.297241 567.922607,537.944763 556.062500,552.045959 
M546.183594,537.660706 
	C553.296753,527.900024 556.061951,517.206543 553.779785,505.165253 
	C549.448364,482.311584 526.319031,467.301819 503.334778,472.640808 
	C481.048767,477.817596 466.834991,501.375793 472.969788,523.473633 
	C477.344910,539.232971 487.749725,549.565247 503.573090,553.326111 
	C520.565308,557.364807 534.697449,551.652771 546.183594,537.660706 
z"/>
</svg>