<svg version="1.1" id="Layer_1" xmlns="http://www.w3.org/2000/svg" xmlns:xlink="http://www.w3.org/1999/xlink" x="0px" y="0px"
	 width="100%" viewBox="0 0 1024 1024" enable-background="new 0 0 1024 1024" xml:space="preserve">
<path fill="#000000" opacity="1.000000" stroke="none" 
	d="
M730.000000,1025.000000 
	C584.645752,1025.000000 439.291534,1025.000000 293.139465,1024.824707 
	C289.255432,1023.997864 286.151611,1023.419556 283.085632,1022.683594 
	C232.551941,1010.553894 198.673126,967.627014 198.651978,915.698059 
	C198.637573,880.366516 198.693939,845.034851 198.631927,809.703430 
	C198.606308,795.107117 200.344055,798.049622 186.588776,795.091187 
	C186.100464,794.986145 185.617996,794.852356 185.135391,794.722412 
	C94.662498,770.373596 37.214294,711.957336 8.924026,623.622131 
	C4.497050,609.799072 3.097860,595.310303 1.000000,581.000000 
	C1.000000,568.645752 1.000000,556.291565 1.030101,543.076660 
	C2.213197,538.192200 2.229553,534.005249 2.845720,529.909973 
	C8.092501,495.038605 19.806538,462.498596 39.012650,432.869751 
	C75.478188,376.615143 125.436760,339.512604 191.959564,326.450623 
	C197.401169,325.382141 198.770370,323.128021 198.757050,317.837158 
	C198.586945,250.211899 198.642395,182.586044 198.658234,114.960358 
	C198.659744,108.474060 198.666763,102.012344 199.543274,95.530594 
	C203.195602,68.522163 215.055496,45.878628 235.272842,27.670551 
	C252.004364,12.601844 271.992828,4.537176 294.000000,1.000000 
	C438.354218,1.000000 582.708435,1.000000 727.889771,1.131944 
	C731.333069,1.740842 733.953308,2.196663 736.564941,2.697902 
	C781.247620,11.273696 816.258301,48.355511 822.439270,93.559418 
	C824.205811,106.479134 824.022949,119.462448 823.877625,132.439072 
	C823.828064,136.864960 824.980530,138.570251 829.913513,138.170059 
	C845.756836,136.884766 861.555237,137.935196 877.106018,141.232803 
	C928.275024,152.083405 967.637756,180.090317 994.540649,224.698578 
	C1022.179321,270.526886 1029.394409,319.870972 1013.518555,371.214844 
	C989.317749,449.482300 916.032898,499.923187 837.248413,497.421326 
	C832.971863,497.285522 828.687256,497.403809 824.302185,497.403809 
	C824.302185,548.684692 824.302185,599.707031 824.302185,651.042603 
	C826.392822,650.822388 828.045898,650.755798 829.657532,650.461853 
	C844.346802,647.783325 859.186401,647.095032 873.933167,649.000916 
	C928.689270,656.077820 970.789612,683.034851 998.379822,731.044067 
	C1034.500610,793.897339 1023.911621,874.378174 972.414001,923.964905 
	C929.417053,965.366272 878.019592,978.604614 819.896851,964.672485 
	C814.862427,963.465637 812.605103,964.514587 810.206848,969.051453 
	C798.569397,991.066467 780.796936,1006.544128 758.187317,1016.748169 
	C749.145020,1020.829102 739.394409,1022.252197 730.000000,1025.000000 
M702.414917,726.846741 
	C704.576294,726.767944 706.838684,727.072388 708.879211,726.534729 
	C713.956665,725.197083 719.856201,726.505798 723.549744,720.788269 
	C741.026855,693.733826 764.533569,673.681641 794.264404,661.120239 
	C797.548889,659.732544 798.834900,657.730042 798.664612,654.257080 
	C798.468933,650.267639 798.639038,646.260498 798.639709,642.261047 
	C798.647644,594.267212 798.631836,546.273315 798.703552,498.279602 
	C798.709106,494.600525 798.245789,492.051086 793.922424,490.941284 
	C772.186951,485.361603 752.499084,475.422058 734.512817,462.084625 
	C731.490967,459.843903 728.507507,459.263062 724.733887,459.768799 
	C718.318542,460.628540 711.789612,461.203644 705.328003,461.053619 
	C683.258484,460.541412 661.626953,456.812622 640.400574,450.890961 
	C624.500061,446.455048 614.960083,430.913513 617.444458,414.692810 
	C618.998108,404.549164 624.664673,397.434265 632.883728,391.855408 
	C644.590759,383.908997 654.211365,373.829926 662.669861,362.541595 
	C665.267029,359.075531 666.044312,355.593231 665.211975,351.343231 
	C661.043945,330.060760 660.770630,308.697327 664.611450,287.340485 
	C674.594849,231.828842 704.386353,190.113556 752.672791,161.378311 
	C765.351562,153.833191 779.042480,148.645142 793.179443,144.580261 
	C796.186829,143.715530 798.790344,142.845825 798.644653,138.751663 
	C798.176941,125.611824 799.245544,112.458580 797.864807,99.309799 
	C794.113892,63.588947 766.215698,33.473331 730.851929,27.235703 
	C714.975525,24.435341 698.947632,25.829197 682.985718,25.345827 
	C678.787415,25.218689 676.325684,26.597963 674.350952,30.420336 
	C666.858643,44.922920 659.422729,59.479229 651.243286,73.596893 
	C636.642639,98.797707 615.072510,113.266487 585.338074,113.384346 
	C535.512207,113.581863 485.684906,113.421074 435.858246,113.367470 
	C432.538666,113.363899 429.164459,113.309059 425.908875,112.742477 
	C401.516754,108.497444 383.394928,95.288826 371.385712,73.774017 
	C363.510315,59.664974 355.851898,45.428848 348.417603,31.083118 
	C346.187225,26.779226 343.425751,25.149309 338.617798,25.321442 
	C329.130981,25.661087 319.620972,25.287113 310.125702,25.472181 
	C297.727295,25.713833 285.454376,27.162157 274.095978,32.490505 
	C240.052628,48.460651 223.756805,76.044640 223.546463,112.989609 
	C223.162201,180.478699 223.437012,247.971542 223.447601,315.462830 
	C223.448532,321.381958 224.202393,322.106598 230.155579,321.630646 
	C253.316986,319.779022 276.093964,322.394836 298.326233,328.676361 
	C374.462769,350.188080 430.152130,395.657318 461.474365,469.260651 
	C463.526398,474.082703 466.950470,476.923340 471.820953,478.612640 
	C491.940002,485.590729 512.449158,490.016235 533.898682,490.010559 
	C550.382507,490.006226 562.711365,497.763367 569.833679,512.655518 
	C576.687195,526.985352 575.501343,541.084045 565.221558,553.392700 
	C539.716980,583.930908 510.995422,610.772827 475.166107,629.073975 
	C471.077942,631.162170 468.508148,634.200500 466.976318,638.595032 
	C450.847473,684.866821 423.488586,723.145325 384.233917,752.515381 
	C338.588745,786.666748 287.174316,803.020081 230.032150,800.649597 
	C223.951248,800.397339 223.465424,800.697754 223.461075,806.888855 
	C223.436005,842.550903 223.285660,878.213928 223.507248,913.874573 
	C223.585144,926.410522 225.388611,938.823425 230.802155,950.333191 
	C246.737152,984.212585 274.145782,1000.454041 310.957794,1000.521729 
	C440.107391,1000.759216 569.257751,1000.614136 698.407776,1000.606018 
	C706.231873,1000.605530 714.041321,1000.618896 721.864075,999.904724 
	C750.720642,997.270203 772.150635,983.071960 787.302429,958.696777 
	C789.664734,954.896545 788.906677,953.058350 784.963074,951.117737 
	C768.303772,942.920288 754.128052,931.368103 741.735046,917.660339 
	C720.837463,894.545654 706.655029,867.981995 701.152954,837.081726 
	C700.560059,833.751953 699.648071,830.745789 696.700378,828.486633 
	C676.131653,812.722778 660.784424,792.502380 647.584106,770.483337 
	C643.763428,764.110046 642.421631,757.327209 643.608948,749.883728 
	C645.960449,735.141174 661.092468,722.824341 675.073364,725.084778 
	C683.842957,726.502625 692.599426,727.010498 702.414917,726.846741 
M386.977020,405.522125 
	C374.517365,394.116547 361.033722,384.113525 346.310944,375.803406 
	C306.343384,353.244263 263.629395,342.413574 217.753845,347.583984 
	C170.429001,352.917755 128.711105,371.857544 94.491997,404.953308 
	C41.298973,456.400085 17.295929,518.948120 28.314970,593.103394 
	C36.814453,650.302673 64.589661,696.795898 110.482735,731.778931 
	C157.779587,767.832031 211.527115,781.685669 270.440338,773.465210 
	C316.369751,767.056396 356.056580,747.147522 389.471710,714.941040 
	C414.413300,690.901672 432.128479,662.217957 443.476135,629.587341 
	C446.821838,619.966736 452.650696,612.753906 461.555634,607.891907 
	C467.109375,604.859619 472.675110,601.827881 478.059357,598.510071 
	C504.180237,582.414062 525.649841,561.114868 545.395447,537.924194 
	C549.088928,533.586304 549.799072,528.608521 547.345642,523.463562 
	C544.845581,518.221069 540.642700,515.282837 534.660889,515.346802 
	C510.029327,515.610107 486.459045,510.251740 463.331879,502.226532 
	C451.200043,498.016724 442.869537,490.127686 438.103119,478.298431 
	C426.818878,450.293518 409.432190,426.555969 386.977020,405.522125 
M729.163086,211.658783 
	C712.839661,228.886032 701.256958,248.940277 694.134399,271.501465 
	C686.260071,296.444244 685.051208,321.867615 690.082275,347.510986 
	C692.239868,358.508118 690.162537,368.124237 683.305786,377.100128 
	C672.804016,390.847595 660.829773,402.996887 646.708801,412.991028 
	C643.813171,415.040405 641.596863,417.266693 642.185608,421.170502 
	C642.796204,425.219360 645.941589,426.349396 649.214783,427.313141 
	C651.611328,428.018768 654.022339,428.678986 656.441040,429.304749 
	C677.714539,434.808746 699.239014,437.626190 721.190308,434.721710 
	C732.183044,433.267212 741.579956,436.051544 750.636230,442.576263 
	C784.571350,467.025238 822.512939,477.327637 863.928650,470.634399 
	C924.577759,460.832825 966.524048,426.265381 987.381042,368.911560 
	C1006.179077,317.219482 996.741760,268.037933 963.927124,224.373184 
	C930.242981,179.551575 884.020813,159.468445 828.329468,163.759598 
	C789.773926,166.730377 756.707520,183.194336 729.163086,211.658783 
M980.440857,869.964966 
	C992.749451,845.738098 996.656921,819.907654 993.163269,793.268066 
	C988.240601,755.731018 970.646790,724.811707 940.447632,701.858826 
	C909.283020,678.172058 873.929504,668.618835 835.099976,675.186523 
	C795.724121,681.846619 765.182190,702.455872 743.681030,736.220154 
	C739.444336,742.873291 733.611633,747.420288 725.977478,749.114929 
	C709.740540,752.719116 693.345581,753.243286 676.874146,750.713501 
	C674.110291,750.289001 671.071045,749.422180 669.091492,752.321533 
	C667.247009,755.023132 669.015259,757.400085 670.295837,759.721985 
	C681.143005,779.388855 695.223694,796.285889 713.356384,809.653931 
	C719.399231,814.108826 723.319641,819.862976 724.917664,827.164978 
	C725.664490,830.577576 726.024475,834.077820 726.831665,837.473755 
	C736.270081,877.180237 759.465576,906.550049 794.612793,926.621887 
	C823.629578,943.192749 854.848206,949.013428 887.588013,941.975464 
	C929.513184,932.963013 960.233826,908.642822 980.440857,869.964966 
M412.669159,81.819984 
	C420.947479,86.600189 429.870026,88.648521 439.420441,88.634239 
	C487.064972,88.562988 534.709839,88.524841 582.354248,88.632881 
	C603.539856,88.680916 618.977539,79.125458 629.392151,61.097218 
	C634.805054,51.727303 639.766418,42.095589 644.877319,32.552994 
	C645.796997,30.835838 647.086487,29.165585 646.604187,27.006437 
	C642.822205,25.143637 380.817810,24.558380 375.317596,26.414595 
	C374.833130,28.006525 375.821136,29.264071 376.500885,30.534342 
	C382.158112,41.106396 387.771606,51.703415 393.573761,62.195896 
	C398.008728,70.216042 404.181549,76.671631 412.669159,81.819984 
z"/>
<path fill="#000000" opacity="1.000000" stroke="none" 
	d="
M539.000244,896.624146 
	C557.983582,896.629517 576.467163,896.581604 594.950073,896.670105 
	C601.263550,896.700317 606.379028,900.850403 607.274414,906.260864 
	C608.343750,912.722473 605.463867,918.237854 599.892639,920.571350 
	C597.816650,921.440857 595.664062,921.407837 593.507141,921.408081 
	C538.556763,921.413391 483.606415,921.420776 428.656067,921.388123 
	C420.332916,921.383179 414.737762,916.335144 414.706451,909.043213 
	C414.674927,901.697083 420.237366,896.650635 428.599457,896.643250 
	C465.233032,896.610657 501.866638,896.626160 539.000244,896.624146 
z"/>
<path fill="#000000" opacity="1.000000" stroke="none" 
	d="
M376.102051,592.879028 
	C375.373688,617.402893 367.161102,638.302124 349.614929,655.041565 
	C333.487854,670.427185 314.152985,678.269714 291.791382,678.354736 
	C277.794189,678.407959 263.789734,678.096191 249.801453,678.453613 
	C238.168182,678.750854 227.364456,676.188477 217.070557,670.996155 
	C215.434601,670.170959 213.695526,669.507996 212.168060,668.517273 
	C205.678940,664.308289 200.353638,662.798218 193.995239,670.101135 
	C188.472244,676.444519 179.835709,678.451599 171.139587,678.384216 
	C160.308929,678.300293 149.476974,678.403931 138.645905,678.353516 
	C118.843758,678.261414 102.732834,662.264282 102.692848,642.400024 
	C102.612022,602.241089 102.628647,562.081726 102.719238,521.922791 
	C102.762184,502.888306 117.008347,487.319183 135.871628,485.702789 
	C149.001633,484.577667 162.171417,484.688690 175.302704,485.780914 
	C182.654877,486.392487 189.056931,489.525330 194.693283,494.248871 
	C199.552689,498.321259 199.946808,498.293701 204.075607,493.325653 
	C212.438934,483.262390 219.051956,472.077728 224.550949,460.269928 
	C230.878662,446.682709 236.832275,432.921112 242.933395,419.228607 
	C244.700363,415.263092 246.659302,411.412903 249.228622,407.892242 
	C259.204498,394.222595 275.500702,391.485260 289.249786,401.322754 
	C302.724487,410.963898 309.608826,424.726135 313.242981,440.435059 
	C315.283142,449.253815 314.577423,457.918365 311.919312,466.535004 
	C310.351624,471.616913 309.262238,476.844757 307.770660,481.952362 
	C306.788452,485.315521 307.427643,486.847473 311.212280,487.927216 
	C346.187408,497.905396 367.558319,520.769897 374.564392,556.511658 
	C376.876312,568.306091 376.171692,580.405945 376.102051,592.879028 
M283.837128,432.662781 
	C282.248901,430.325531 280.839569,427.839081 279.038635,425.679199 
	C273.791229,419.385803 270.473083,419.759369 267.127686,427.117950 
	C261.478241,439.544647 256.171722,452.128815 250.425293,464.509521 
	C240.420242,486.065491 229.270065,506.876770 210.184052,522.105713 
	C208.413589,523.518433 208.072281,525.380432 208.073746,527.445679 
	C208.098846,563.090881 208.117966,598.736023 208.144135,634.381226 
	C208.145493,636.242371 208.147736,638.296753 210.059082,639.221191 
	C220.204712,644.128296 229.543350,651.363464 241.038605,652.613037 
	C259.762115,654.648254 278.602753,654.253845 297.365021,652.778870 
	C323.360535,650.735291 345.603149,629.769775 349.719391,604.019043 
	C351.573914,592.417419 350.330841,580.757935 350.621246,569.128845 
	C350.836975,560.490051 348.713379,552.241699 344.847260,544.583618 
	C333.981506,523.060730 316.134796,512.010559 292.286316,510.451538 
	C282.485840,509.810822 277.485138,503.755981 279.490784,494.097565 
	C281.248596,485.632660 282.846863,477.092682 285.327911,468.829803 
	C288.955231,456.749542 291.443665,444.941345 283.837128,432.662781 
M127.376411,547.499817 
	C127.376816,577.808044 127.351761,608.116272 127.392456,638.424438 
	C127.405380,648.051758 131.423798,653.066467 140.312851,653.451416 
	C150.284058,653.883179 160.305344,653.861755 170.275330,653.400208 
	C178.564148,653.016541 182.634537,648.291809 182.643921,640.126282 
	C182.688339,601.491699 182.698792,562.857056 182.667191,524.222473 
	C182.659744,515.108521 177.960434,510.497559 168.729462,510.422516 
	C159.904037,510.350769 151.077393,510.368744 142.251633,510.415985 
	C132.173553,510.469910 127.613541,514.904846 127.412056,525.018127 
	C127.269447,532.176025 127.379395,539.339050 127.376411,547.499817 
z"/>
<path fill="#000000" opacity="1.000000" stroke="none" 
	d="
M873.752258,400.826996 
	C868.902466,403.806458 864.480164,406.823212 859.778015,409.311005 
	C849.577393,414.707916 838.754272,415.618591 828.557495,410.206116 
	C802.941895,396.609375 780.245911,379.299530 764.075378,354.720276 
	C753.428894,338.537415 747.934753,320.720245 747.343323,301.123260 
	C746.743042,281.231689 752.627991,264.399048 767.588379,251.193604 
	C787.458496,233.654327 816.647583,231.654724 839.028381,246.173325 
	C841.996277,248.098648 844.057251,248.196793 847.069519,246.325165 
	C867.343506,233.728409 888.395081,232.757843 909.115479,244.475067 
	C929.540710,256.025330 939.154480,274.545105 939.305786,297.852814 
	C939.521179,331.028412 924.921021,357.430542 901.295410,379.571838 
	C892.885071,387.453735 883.850830,394.534912 873.752258,400.826996 
M848.805115,277.689026 
	C845.486694,279.173004 842.166016,279.618134 838.657166,278.177063 
	C835.438293,276.855103 833.292969,274.328369 830.945618,271.969391 
	C820.957886,261.932526 806.702820,259.039612 793.669128,264.349518 
	C780.987366,269.516052 772.558655,282.163177 772.352234,296.027191 
	C772.057861,315.811005 778.252991,333.308472 790.604736,348.682922 
	C803.664734,364.938934 820.403870,376.624908 838.209778,386.993591 
	C842.182739,389.307129 845.798950,388.483826 849.477295,386.271881 
	C859.195740,380.427826 868.752930,374.335175 877.452026,367.038330 
	C899.853088,348.248230 915.117493,325.880737 913.808350,295.008087 
	C913.217529,281.074615 904.908386,268.947662 891.712585,264.021027 
	C878.684326,259.156952 863.714905,262.609589 854.633179,272.650970 
	C853.060608,274.389771 851.544861,276.143005 848.805115,277.689026 
z"/>
<path fill="#000000" opacity="1.000000" stroke="none" 
	d="
M935.471436,837.777954 
	C934.362915,844.868042 931.171936,848.290894 924.679138,849.431519 
	C916.575867,850.855103 908.381958,850.168884 900.249023,849.967163 
	C895.081177,849.838928 892.782227,851.705566 891.742615,856.687073 
	C890.316772,863.518982 888.315063,870.240845 886.342651,876.945862 
	C884.098877,884.573425 877.508606,888.680481 870.887878,886.833862 
	C863.922974,884.891296 860.252014,878.477783 861.954285,870.722290 
	C863.095154,865.524841 864.487244,860.371948 866.013428,855.272949 
	C867.191833,851.335510 865.576904,850.055847 861.915649,850.064758 
	C855.252747,850.080933 848.587524,850.111938 841.927551,849.956238 
	C838.321655,849.871948 836.465149,851.403320 835.633728,854.901123 
	C834.017700,861.699646 832.163391,868.442444 830.342163,875.190552 
	C829.867737,876.948303 829.321594,878.725464 828.515137,880.347839 
	C825.628784,886.153931 819.303406,888.811707 813.390015,886.836670 
	C807.404419,884.837585 803.612366,878.383118 805.066711,872.133118 
	C806.385010,866.467834 808.023743,860.875732 809.583374,855.268616 
	C810.563049,851.746399 809.746460,849.875488 805.649963,850.003174 
	C801.499207,850.132629 797.324097,850.157471 793.199829,849.360474 
	C786.842285,848.131897 782.329407,842.487183 782.689453,836.136902 
	C783.048767,829.799316 788.190552,824.875732 794.953369,824.684998 
	C800.779175,824.520752 806.620605,824.448425 812.440430,824.689331 
	C816.341980,824.850891 818.128052,823.272034 819.021423,819.554810 
	C820.730164,812.444763 822.719116,805.396118 824.801208,798.384216 
	C825.864075,794.804932 824.741272,793.386475 821.120056,793.420837 
	C815.290527,793.476196 809.458740,793.479797 803.629822,793.387085 
	C796.182373,793.268677 790.809937,788.049377 790.748352,781.012329 
	C790.686646,773.959839 796.028748,768.754089 803.630432,768.661682 
	C811.625122,768.564514 819.624695,768.500000 827.616150,768.682312 
	C831.266602,768.765625 833.040771,767.359985 833.904114,763.829163 
	C835.760193,756.238770 837.843750,748.699829 840.010132,741.190674 
	C841.833679,734.869995 847.092407,730.714478 852.621887,730.902039 
	C858.617981,731.105408 863.491699,735.374878 864.876282,741.519531 
	C865.335754,743.558655 865.011169,745.464294 864.474915,747.416504 
	C862.933105,753.029663 861.511047,758.676392 859.916870,764.274292 
	C859.132080,767.029724 859.911072,768.558594 862.836487,768.578369 
	C870.498535,768.630188 878.161377,768.569092 885.823486,768.617493 
	C888.567871,768.634827 889.517334,766.963318 890.138733,764.667603 
	C892.180969,757.123047 894.244385,749.583130 896.410522,742.073425 
	C898.961548,733.229858 905.223511,729.010742 912.442566,731.131958 
	C919.900085,733.323242 923.029907,740.009460 920.680786,748.740845 
	C919.384338,753.559326 918.253174,758.431213 916.730347,763.177185 
	C915.334595,767.527100 916.773071,768.972595 921.126648,768.680176 
	C924.608337,768.446289 928.124573,768.534363 931.616516,768.685913 
	C938.658386,768.991516 943.980225,774.579285 943.799377,781.313171 
	C943.623657,787.855957 938.352295,793.176880 931.548035,793.373901 
	C925.556030,793.547363 919.552551,793.546631 913.559998,793.394958 
	C910.136597,793.308289 908.372131,794.754517 907.542725,798.004883 
	C905.650146,805.421265 903.635071,812.807678 901.569702,820.178223 
	C900.639343,823.498169 901.691406,824.765503 905.154175,824.667053 
	C910.813171,824.506104 916.480652,824.588989 922.143799,824.647827 
	C930.605408,824.735718 934.893860,828.863098 935.471436,837.777954 
M850.719910,799.166443 
	C848.904175,805.895691 847.218628,812.663940 845.220886,819.338745 
	C844.131958,822.976990 844.851746,824.713562 848.918213,824.652893 
	C855.895264,824.548767 862.876526,824.531799 869.852844,824.654968 
	C872.840332,824.707703 874.504089,823.471741 875.265991,820.659241 
	C877.304749,813.133301 879.381226,805.617310 881.477478,798.107117 
	C882.477844,794.523254 881.049011,793.308777 877.494751,793.388245 
	C870.685730,793.540527 863.867310,793.557556 857.059753,793.374512 
	C853.343506,793.274536 851.478333,794.889648 850.719910,799.166443 
z"/>
</svg>