<svg version="1.1" id="Layer_1" xmlns="http://www.w3.org/2000/svg" xmlns:xlink="http://www.w3.org/1999/xlink" x="0px" y="0px"
	 width="100%" viewBox="0 0 1080 1080" enable-background="new 0 0 1080 1080" xml:space="preserve">
<path fill="#FFCFB0" opacity="1.000000" stroke="none" 
	d="
M1081.000000,263.000000 
	C1081.000000,535.575500 1081.000000,808.150940 1081.000000,1081.000000 
	C939.305420,1081.000000 797.610657,1081.000000 655.679810,1080.661011 
	C691.227356,1076.658203 722.166199,1049.329346 730.105713,1014.224426 
	C734.424438,995.128906 732.359131,975.748413 732.098389,956.486145 
	C732.004150,949.523010 726.067017,943.651367 719.339478,942.233704 
	C716.930298,941.725952 714.368347,941.855408 711.875610,941.846619 
	C701.439453,941.809937 691.003113,941.831177 680.172913,941.831177 
	C680.172913,939.234253 680.172852,937.268433 680.172852,935.302673 
	C680.172852,792.314209 680.177673,649.325806 680.168945,506.337341 
	C680.167175,477.090271 657.129517,454.000641 627.952209,453.999420 
	C453.966248,453.992096 279.980286,453.994019 105.994347,454.013702 
	C103.504837,454.013977 100.979385,454.062469 98.531387,454.461121 
	C70.950722,458.952087 53.164131,480.139648 53.162174,508.491608 
	C53.152359,650.813416 53.157673,793.135254 53.157673,935.457092 
	C53.157673,937.415894 53.157673,939.374695 53.157673,941.831177 
	C42.752663,941.831177 32.771053,942.304260 22.854582,941.703003 
	C12.159433,941.054565 4.968707,945.113281 1.000000,955.000000 
	C1.000000,637.073059 1.000000,319.146179 1.000000,1.000000 
	C286.027985,1.000000 571.056030,1.000000 856.308167,1.349571 
	C843.092102,3.889056 829.587097,5.749715 816.233704,8.379828 
	C806.671997,10.263119 801.897827,16.893936 801.837036,26.604244 
	C801.794250,33.434994 801.811035,40.266273 801.833069,47.097214 
	C801.846741,51.328503 800.088074,54.191036 796.189209,56.215271 
	C788.383118,60.268105 780.717041,64.604576 773.123108,69.046150 
	C769.161133,71.363403 765.507263,71.735519 761.441040,69.354683 
	C755.277222,65.745689 748.983154,62.357475 742.717346,58.924866 
	C734.564514,54.458492 727.437683,55.105732 720.762207,61.434437 
	C693.068848,87.689186 674.287354,119.350044 663.995117,156.048798 
	C661.241577,165.867142 664.258850,172.866684 673.076782,177.914154 
	C680.143066,181.958969 687.348816,185.766663 694.316101,189.972015 
	C695.622009,190.760254 696.803162,192.915039 696.835999,194.464737 
	C697.053833,204.753937 697.067810,215.053131 696.814758,225.340912 
	C696.773499,227.017609 695.492981,229.328873 694.079590,230.193771 
	C687.280457,234.354523 680.212280,238.072556 673.290894,242.037338 
	C664.204895,247.242126 661.205627,254.365067 664.014465,264.281525 
	C674.302612,300.603180 692.882385,331.996918 720.080811,358.229340 
	C726.886841,364.793579 733.987244,365.778900 742.382935,361.279907 
	C748.681519,357.904663 754.935425,354.438782 761.113953,350.849274 
	C765.299072,348.417908 769.112000,348.593140 773.275391,351.081177 
	C780.683716,355.508270 788.171692,359.839294 795.868774,363.731171 
	C800.221375,365.931946 801.908997,369.045288 801.850159,373.651581 
	C801.765076,380.314880 801.795715,386.980347 801.836731,393.644470 
	C801.894958,403.113617 806.772888,409.448547 815.830566,411.774323 
	C853.180603,421.364655 890.532593,421.417175 927.874634,411.720184 
	C937.091614,409.326752 941.975708,403.263580 942.143188,393.774414 
	C942.266663,386.778961 942.230286,379.778900 942.148743,372.782257 
	C942.101074,368.694336 943.773804,365.936493 947.437073,363.991638 
	C955.354736,359.788086 963.214172,355.462250 970.950806,350.936005 
	C974.959595,348.590729 978.584167,348.438782 982.615479,350.799591 
	C988.780518,354.409851 995.087341,357.780365 1001.367004,361.191833 
	C1009.743835,365.742676 1016.769714,364.773621 1023.640381,358.212982 
	C1045.011841,337.806030 1061.246216,313.903076 1072.243652,286.483337 
	C1075.352417,278.731781 1078.091431,270.831879 1081.000000,263.000000 
M576.499023,297.172363 
	C581.942505,297.172363 587.386047,297.172363 592.823730,297.172363 
	C592.823730,285.242920 592.823730,273.859283 592.823730,262.162354 
	C591.004944,262.162354 589.531860,262.162354 588.058716,262.162354 
	C555.894836,262.162354 523.730652,262.233673 491.567200,262.113037 
	C483.353271,262.082245 477.268677,265.116638 472.762726,272.109222 
	C464.560791,284.837494 455.897034,297.268158 447.695221,309.996460 
	C445.561066,313.308441 443.318512,314.618042 439.306030,314.592621 
	C410.143066,314.407806 380.977997,314.422974 351.814636,314.576233 
	C347.872894,314.596954 345.792297,313.623169 343.976532,309.785065 
	C330.883606,282.109741 297.078339,271.550964 271.201996,286.775360 
	C251.196671,298.545532 241.485077,320.264893 246.055191,343.014740 
	C250.316238,364.226227 268.732849,381.132660 290.535034,383.847290 
	C313.045013,386.650024 334.377686,374.843628 344.211792,353.792358 
	C345.809753,350.371643 347.636414,349.401337 351.302368,349.419403 
	C383.965424,349.580536 416.630798,349.360931 449.292786,349.607880 
	C458.843811,349.680084 465.741913,346.464752 470.893951,338.175262 
	C478.708862,325.601379 487.321899,313.526062 495.347198,301.078613 
	C497.314911,298.026672 499.447021,297.060852 503.005981,297.085358 
	C527.169434,297.251740 551.334534,297.172363 576.499023,297.172363 
M353.305634,140.156998 
	C373.683685,137.932770 388.338409,127.583183 396.945770,108.990356 
	C398.224731,106.227684 399.650085,105.423363 402.507660,105.453690 
	C415.170929,105.588089 427.837585,105.603561 440.500305,105.445000 
	C443.525391,105.407112 445.294556,106.401421 446.946716,108.935631 
	C455.579620,122.177467 464.473846,135.248688 473.146179,148.465195 
	C477.343658,154.862076 483.024017,157.904907 490.708618,157.881897 
	C523.203247,157.784576 555.698425,157.840683 588.193359,157.840683 
	C589.776306,157.840683 591.359314,157.840668 592.902649,157.840668 
	C592.902649,145.845139 592.902649,134.588135 592.902649,122.997009 
	C591.010864,122.997009 589.371643,122.997002 587.732361,122.997002 
	C559.236816,122.996994 530.741089,122.952644 502.245941,123.062881 
	C499.267822,123.074402 497.482666,122.270454 495.802307,119.690155 
	C487.085175,106.304192 478.064880,93.116051 469.293518,79.764816 
	C465.295746,73.679688 459.994904,70.695091 452.615723,70.776604 
	C436.286926,70.956993 419.953674,70.734062 403.624786,70.910004 
	C400.051331,70.948502 398.209167,70.160332 396.620819,66.538971 
	C386.435974,43.318073 360.273590,31.062174 335.733459,37.632919 
	C311.086426,44.232288 294.572174,67.689117 297.117798,92.992020 
	C300.030182,121.940437 325.002930,142.109528 353.305634,140.156998 
M428.627350,261.291565 
	C446.133606,257.690033 458.744354,247.733658 466.267822,231.616196 
	C467.812988,228.306030 469.542084,227.399399 472.962646,227.439072 
	C487.953522,227.612976 502.947540,227.513977 517.940430,227.513962 
	C519.695496,227.513962 521.450562,227.513977 523.235596,227.513977 
	C523.235596,215.506165 523.235596,204.251556 523.235596,192.492493 
	C521.342590,192.492493 519.721863,192.492493 518.101196,192.492493 
	C502.941742,192.492462 487.781097,192.392929 472.623718,192.570862 
	C469.333801,192.609482 467.725311,191.694046 466.338531,188.559097 
	C455.951874,165.078888 429.476562,152.713547 405.050446,159.684692 
	C377.941589,167.421494 362.045685,193.688644 367.862946,221.135040 
	C373.642487,248.403412 399.135651,265.589600 428.627350,261.291565 
M605.508667,227.418732 
	C624.575012,227.418732 643.641357,227.418732 662.678894,227.418732 
	C662.678894,215.444855 662.678894,204.187027 662.678894,192.939636 
	C639.465698,192.939636 616.540405,192.939636 593.405273,192.939636 
	C593.405273,204.453217 593.405273,215.710876 593.405273,227.418747 
	C597.253479,227.418747 600.883606,227.418747 605.508667,227.418732 
M627.501282,262.193878 
	C622.053162,262.193878 616.605103,262.193878 611.020020,262.193878 
	C611.020020,274.025177 611.020020,285.424133 611.020020,296.863861 
	C622.561462,296.863861 633.824707,296.863861 645.239075,296.863861 
	C645.239075,285.242096 645.239075,273.847382 645.239075,262.193878 
	C639.455017,262.193878 633.977051,262.193878 627.501282,262.193878 
M613.010559,157.866028 
	C623.759399,157.866028 634.508179,157.866028 645.302124,157.866028 
	C645.302124,145.904312 645.302124,134.630585 645.302124,123.157959 
	C633.777100,123.157959 622.493896,123.157959 610.836914,123.157959 
	C610.836914,134.356064 610.823181,145.481659 610.890686,156.606796 
	C610.893188,157.020813 611.686768,157.430023 613.010559,157.866028 
M573.352295,192.688171 
	C562.733398,192.688171 552.114502,192.688171 541.271484,192.688171 
	C541.271484,204.404465 541.271484,215.794144 541.271484,227.248642 
	C552.825256,227.248642 564.105225,227.248642 575.867676,227.248642 
	C575.867676,216.142120 575.888733,205.198730 575.802124,194.256195 
	C575.798035,193.738525 574.838684,193.228409 573.352295,192.688171 
z"/>
<path fill="#020202" opacity="1.000000" stroke="none" 
	d="
M1.000000,955.468628 
	C4.968707,945.113281 12.159433,941.054565 22.854582,941.703003 
	C32.771053,942.304260 42.752663,941.831177 53.157673,941.831177 
	C53.157673,939.374695 53.157673,937.415894 53.157673,935.457092 
	C53.157673,793.135254 53.152359,650.813416 53.162174,508.491608 
	C53.164131,480.139648 70.950722,458.952087 98.531387,454.461121 
	C100.979385,454.062469 103.504837,454.013977 105.994347,454.013702 
	C279.980286,453.994019 453.966248,453.992096 627.952209,453.999420 
	C657.129517,454.000641 680.167175,477.090271 680.168945,506.337341 
	C680.177673,649.325806 680.172852,792.314209 680.172852,935.302673 
	C680.172852,937.268433 680.172913,939.234253 680.172913,941.831177 
	C691.003113,941.831177 701.439453,941.809937 711.875610,941.846619 
	C714.368347,941.855408 716.930298,941.725952 719.339478,942.233704 
	C726.067017,943.651367 732.004150,949.523010 732.098389,956.486145 
	C732.359131,975.748413 734.424438,995.128906 730.105713,1014.224426 
	C722.166199,1049.329346 691.227356,1076.658203 655.221802,1080.661011 
	C462.979095,1081.000000 270.958221,1081.000000 78.253769,1080.663086 
	C40.564133,1074.439697 16.235107,1053.637939 4.471879,1018.112488 
	C3.152741,1014.128540 2.149672,1010.040039 1.000006,1006.000000 
	C1.000000,989.312439 1.000000,972.624878 1.000000,955.468628 
M501.499939,941.831421 
	C549.389465,941.831421 597.278992,941.831421 645.486145,941.831421 
	C645.486145,939.037109 645.486145,937.052795 645.486145,935.068481 
	C645.486145,838.254944 645.486206,741.441406 645.486145,644.627869 
	C645.486145,599.303833 645.505615,553.979736 645.473755,508.655670 
	C645.464600,495.601105 638.775818,488.851501 625.888733,488.850555 
	C453.257385,488.837982 280.626007,488.839142 107.994652,488.872406 
	C105.526131,488.872894 102.954826,488.966553 100.607681,489.635193 
	C92.125099,492.051697 88.010017,498.611511 88.009415,509.359772 
	C88.001411,651.997253 88.003235,794.634766 88.015846,937.272278 
	C88.015976,938.705750 88.193748,940.139160 88.305710,941.831421 
	C225.940613,941.831421 363.220245,941.831421 501.499939,941.831421 
M522.500427,976.514038 
	C360.433716,976.514038 198.367020,976.514038 35.991928,976.514038 
	C35.991928,983.271606 35.887501,989.565796 36.015457,995.855164 
	C36.227936,1006.298889 39.501167,1015.798889 45.651581,1024.194458 
	C57.195305,1039.952148 73.054199,1046.254639 92.336624,1046.238647 
	C255.122421,1046.103516 417.908386,1046.161621 580.694275,1046.161621 
	C601.354919,1046.161621 622.016235,1046.062378 642.675964,1046.198486 
	C655.219360,1046.281250 666.713379,1043.276245 676.797424,1035.642578 
	C696.587769,1020.661194 699.518555,999.745300 697.379089,976.513977 
	C639.379822,976.513977 581.440186,976.513977 522.500427,976.514038 
z"/>
<path fill="#020101" opacity="1.000000" stroke="none" 
	d="
M1081.000000,262.549988 
	C1078.091431,270.831879 1075.352417,278.731781 1072.243652,286.483337 
	C1061.246216,313.903076 1045.011841,337.806030 1023.640381,358.212982 
	C1016.769714,364.773621 1009.743835,365.742676 1001.367004,361.191833 
	C995.087341,357.780365 988.780518,354.409851 982.615479,350.799591 
	C978.584167,348.438782 974.959595,348.590729 970.950806,350.936005 
	C963.214172,355.462250 955.354736,359.788086 947.437073,363.991638 
	C943.773804,365.936493 942.101074,368.694336 942.148743,372.782257 
	C942.230286,379.778900 942.266663,386.778961 942.143188,393.774414 
	C941.975708,403.263580 937.091614,409.326752 927.874634,411.720184 
	C890.532593,421.417175 853.180603,421.364655 815.830566,411.774323 
	C806.772888,409.448547 801.894958,403.113617 801.836731,393.644470 
	C801.795715,386.980347 801.765076,380.314880 801.850159,373.651581 
	C801.908997,369.045288 800.221375,365.931946 795.868774,363.731171 
	C788.171692,359.839294 780.683716,355.508270 773.275391,351.081177 
	C769.112000,348.593140 765.299072,348.417908 761.113953,350.849274 
	C754.935425,354.438782 748.681519,357.904663 742.382935,361.279907 
	C733.987244,365.778900 726.886841,364.793579 720.080811,358.229340 
	C692.882385,331.996918 674.302612,300.603180 664.014465,264.281525 
	C661.205627,254.365067 664.204895,247.242126 673.290894,242.037338 
	C680.212280,238.072556 687.280457,234.354523 694.079590,230.193771 
	C695.492981,229.328873 696.773499,227.017609 696.814758,225.340912 
	C697.067810,215.053131 697.053833,204.753937 696.835999,194.464737 
	C696.803162,192.915039 695.622009,190.760254 694.316101,189.972015 
	C687.348816,185.766663 680.143066,181.958969 673.076782,177.914154 
	C664.258850,172.866684 661.241577,165.867142 663.995117,156.048798 
	C674.287354,119.350044 693.068848,87.689186 720.762207,61.434437 
	C727.437683,55.105732 734.564514,54.458492 742.717346,58.924866 
	C748.983154,62.357475 755.277222,65.745689 761.441040,69.354683 
	C765.507263,71.735519 769.161133,71.363403 773.123108,69.046150 
	C780.717041,64.604576 788.383118,60.268105 796.189209,56.215271 
	C800.088074,54.191036 801.846741,51.328503 801.833069,47.097214 
	C801.811035,40.266273 801.794250,33.434994 801.837036,26.604244 
	C801.897827,16.893936 806.671997,10.263119 816.233704,8.379828 
	C829.587097,5.749715 843.092102,3.889056 856.766113,1.349571 
	C867.354248,1.000000 877.708435,1.000000 888.727661,1.373278 
	C902.328125,3.933798 915.334351,5.777966 928.175049,8.425298 
	C937.183899,10.282638 941.954651,16.852304 942.137878,26.036484 
	C942.274048,32.863472 942.283203,39.697872 942.130188,46.524071 
	C942.025269,51.207321 943.811218,54.204876 948.126709,56.388824 
	C955.823181,60.283779 963.330994,64.579674 970.735779,69.011963 
	C974.918091,71.515419 978.692993,71.644707 982.868530,69.171883 
	C988.587280,65.785156 994.435181,62.613930 1000.263672,59.415989 
	C1010.125366,54.005154 1016.992737,54.943527 1025.017578,62.876652 
	C1041.719604,79.387955 1055.821289,97.896904 1065.710205,119.220627 
	C1071.546021,131.804321 1075.951294,145.051315 1081.000000,158.000000 
	C1081.000000,160.370560 1081.000000,162.741104 1080.705933,165.747589 
	C1078.966919,171.674957 1075.582397,175.334930 1070.856934,177.941498 
	C1063.738403,181.867935 1056.588013,185.747314 1049.630005,189.943253 
	C1048.326782,190.729065 1047.158081,192.891113 1047.125122,194.443451 
	C1046.907227,204.722076 1047.166748,215.011261 1046.919800,225.288574 
	C1046.852539,228.095215 1047.775391,229.403870 1050.098145,230.619492 
	C1055.975098,233.695343 1061.632324,237.195374 1067.539551,240.208130 
	C1073.640259,243.319611 1078.553833,247.408569 1081.000000,254.000000 
	C1081.000000,256.700012 1081.000000,259.400024 1081.000000,262.549988 
M704.657410,264.389343 
	C701.840332,265.462952 701.093445,267.116730 702.525391,270.006683 
	C706.943481,278.923187 710.534729,288.318054 715.648254,296.803253 
	C721.611328,306.698120 728.841919,315.829132 735.488281,325.243073 
	C739.338135,323.111511 742.072815,321.546570 744.852783,320.066742 
	C760.945923,311.499969 776.631165,312.106689 792.128479,321.821014 
	C798.449829,325.783600 805.041504,329.359070 811.707458,332.719330 
	C827.985168,340.924866 836.237305,354.028198 836.502441,372.210388 
	C836.542969,374.992096 836.507996,377.774963 836.507996,380.710022 
	C860.491699,385.413605 883.851013,385.302063 907.491943,380.572205 
	C907.491943,377.516724 907.484131,374.863281 907.493164,372.209900 
	C907.554810,354.154449 915.818359,341.232056 931.772583,332.937317 
	C938.988708,329.185547 946.078064,325.171143 953.080811,321.032135 
	C962.902222,315.227142 973.390625,312.139191 984.569031,315.057556 
	C992.500610,317.128265 1000.027100,320.750671 1008.372070,323.922913 
	C1023.190125,307.684723 1034.794312,288.365479 1042.529175,266.815521 
	C1042.068848,266.328217 1041.885010,266.015991 1041.611816,265.861633 
	C1034.381714,261.774323 1027.107056,257.764404 1019.914124,253.612793 
	C1012.371460,249.259293 1009.230896,242.865601 1010.746460,234.371078 
	C1013.552856,218.641388 1014.095093,202.887894 1010.861816,187.216949 
	C1008.667358,176.580688 1014.024719,169.311218 1021.605774,165.426956 
	C1028.685181,161.799728 1035.532959,157.720688 1042.695312,153.721786 
	C1034.815674,131.646851 1023.234619,112.245766 1007.660889,95.246048 
	C1004.800537,96.834290 1002.474976,98.125755 1000.149353,99.416969 
	C983.692993,108.553749 967.572021,108.207085 951.553528,98.108345 
	C945.385132,94.219528 938.897156,90.804642 932.398499,87.479195 
	C916.272522,79.227348 907.588074,66.383804 907.494080,48.059982 
	C907.479126,45.141285 907.491943,42.222446 907.491943,39.380367 
	C883.388916,34.728111 860.150818,34.688099 836.508057,39.492966 
	C836.508057,42.058315 836.492004,44.362049 836.510620,46.665508 
	C836.664307,65.738228 828.047241,79.271645 810.995483,87.741974 
	C804.311951,91.061943 797.814087,94.798035 791.433350,98.676521 
	C776.176697,107.950111 760.756165,108.460648 745.018311,100.090683 
	C742.132385,98.555855 739.274658,96.967941 736.251831,95.321709 
	C720.641846,112.659424 708.927490,131.847702 701.270081,153.758575 
	C708.936584,158.034409 716.218079,162.009079 723.414612,166.132050 
	C731.648193,170.849197 734.655762,176.726944 733.070007,186.058701 
	C730.335938,202.148071 730.352356,218.157272 733.106262,234.243286 
	C734.650940,243.265823 731.539307,249.294388 723.633850,253.813583 
	C717.573547,257.277985 711.445496,260.623993 704.657410,264.389343 
z"/>
<path fill="#FECEAF" opacity="1.000000" stroke="none" 
	d="
M1081.000000,157.531342 
	C1075.951294,145.051315 1071.546021,131.804321 1065.710205,119.220627 
	C1055.821289,97.896904 1041.719604,79.387955 1025.017578,62.876652 
	C1016.992737,54.943527 1010.125366,54.005154 1000.263672,59.415989 
	C994.435181,62.613930 988.587280,65.785156 982.868530,69.171883 
	C978.692993,71.644707 974.918091,71.515419 970.735779,69.011963 
	C963.330994,64.579674 955.823181,60.283779 948.126709,56.388824 
	C943.811218,54.204876 942.025269,51.207321 942.130188,46.524071 
	C942.283203,39.697872 942.274048,32.863472 942.137878,26.036484 
	C941.954651,16.852304 937.183899,10.282638 928.175049,8.425298 
	C915.334351,5.777966 902.328125,3.933798 889.196289,1.373278 
	C952.919678,1.000000 1016.839355,1.000000 1081.000000,1.000000 
	C1081.000000,53.020645 1081.000000,105.041664 1081.000000,157.531342 
z"/>
<path fill="#FDCEAF" opacity="1.000000" stroke="none" 
	d="
M1081.000000,253.531342 
	C1078.553833,247.408569 1073.640259,243.319611 1067.539551,240.208130 
	C1061.632324,237.195374 1055.975098,233.695343 1050.098145,230.619492 
	C1047.775391,229.403870 1046.852539,228.095215 1046.919800,225.288574 
	C1047.166748,215.011261 1046.907227,204.722076 1047.125122,194.443451 
	C1047.158081,192.891113 1048.326782,190.729065 1049.630005,189.943253 
	C1056.588013,185.747314 1063.738403,181.867935 1070.856934,177.941498 
	C1075.582397,175.334930 1078.966919,171.674957 1080.705933,166.191757 
	C1081.000000,195.020889 1081.000000,224.041794 1081.000000,253.531342 
z"/>
<path fill="#FDCDAE" opacity="1.000000" stroke="none" 
	d="
M1.000006,1006.468628 
	C2.149672,1010.040039 3.152741,1014.128540 4.471879,1018.112488 
	C16.235107,1053.637939 40.564133,1074.439697 77.785110,1080.663086 
	C52.407421,1081.000000 26.814838,1081.000000 1.000000,1081.000000 
	C1.000000,1056.312866 1.000000,1031.625122 1.000006,1006.468628 
z"/>
<path fill="#020202" opacity="1.000000" stroke="none" 
	d="
M575.999084,297.172363 
	C551.334534,297.172363 527.169434,297.251740 503.005981,297.085358 
	C499.447021,297.060852 497.314911,298.026672 495.347198,301.078613 
	C487.321899,313.526062 478.708862,325.601379 470.893951,338.175262 
	C465.741913,346.464752 458.843811,349.680084 449.292786,349.607880 
	C416.630798,349.360931 383.965424,349.580536 351.302368,349.419403 
	C347.636414,349.401337 345.809753,350.371643 344.211792,353.792358 
	C334.377686,374.843628 313.045013,386.650024 290.535034,383.847290 
	C268.732849,381.132660 250.316238,364.226227 246.055191,343.014740 
	C241.485077,320.264893 251.196671,298.545532 271.201996,286.775360 
	C297.078339,271.550964 330.883606,282.109741 343.976532,309.785065 
	C345.792297,313.623169 347.872894,314.596954 351.814636,314.576233 
	C380.977997,314.422974 410.143066,314.407806 439.306030,314.592621 
	C443.318512,314.618042 445.561066,313.308441 447.695221,309.996460 
	C455.897034,297.268158 464.560791,284.837494 472.762726,272.109222 
	C477.268677,265.116638 483.353271,262.082245 491.567200,262.113037 
	C523.730652,262.233673 555.894836,262.162354 588.058716,262.162354 
	C589.531860,262.162354 591.004944,262.162354 592.823730,262.162354 
	C592.823730,273.859283 592.823730,285.242920 592.823730,297.172363 
	C587.386047,297.172363 581.942505,297.172363 575.999084,297.172363 
M305.361755,347.154266 
	C312.330963,343.132751 315.243652,337.087006 314.139587,329.169495 
	C313.202881,322.452209 308.042633,316.609192 301.565796,315.186615 
	C294.300293,313.590790 288.033203,315.490234 283.333740,321.470673 
	C278.649017,327.432343 278.663147,336.243561 283.239380,342.360168 
	C288.207703,349.000885 295.842438,350.860291 305.361755,347.154266 
z"/>
<path fill="#020101" opacity="1.000000" stroke="none" 
	d="
M352.830536,140.163361 
	C325.002930,142.109528 300.030182,121.940437 297.117798,92.992020 
	C294.572174,67.689117 311.086426,44.232288 335.733459,37.632919 
	C360.273590,31.062174 386.435974,43.318073 396.620819,66.538971 
	C398.209167,70.160332 400.051331,70.948502 403.624786,70.910004 
	C419.953674,70.734062 436.286926,70.956993 452.615723,70.776604 
	C459.994904,70.695091 465.295746,73.679688 469.293518,79.764816 
	C478.064880,93.116051 487.085175,106.304192 495.802307,119.690155 
	C497.482666,122.270454 499.267822,123.074402 502.245941,123.062881 
	C530.741089,122.952644 559.236816,122.996994 587.732361,122.997002 
	C589.371643,122.997002 591.010864,122.997009 592.902649,122.997009 
	C592.902649,134.588135 592.902649,145.845139 592.902649,157.840668 
	C591.359314,157.840668 589.776306,157.840683 588.193359,157.840683 
	C555.698425,157.840683 523.203247,157.784576 490.708618,157.881897 
	C483.024017,157.904907 477.343658,154.862076 473.146179,148.465195 
	C464.473846,135.248688 455.579620,122.177467 446.946716,108.935631 
	C445.294556,106.401421 443.525391,105.407112 440.500305,105.445000 
	C427.837585,105.603561 415.170929,105.588089 402.507660,105.453690 
	C399.650085,105.423363 398.224731,106.227684 396.945770,108.990356 
	C388.338409,127.583183 373.683685,137.932770 352.830536,140.163361 
M365.721832,82.107635 
	C361.133881,72.602173 352.685883,68.635811 343.729645,71.782227 
	C335.218384,74.772308 330.368774,83.490211 332.471313,92.020844 
	C334.817261,101.538925 343.896515,107.130234 353.481964,104.959831 
	C363.045288,102.794441 368.296844,93.485016 365.721832,82.107635 
z"/>
<path fill="#020202" opacity="1.000000" stroke="none" 
	d="
M428.202087,261.408752 
	C399.135651,265.589600 373.642487,248.403412 367.862946,221.135040 
	C362.045685,193.688644 377.941589,167.421494 405.050446,159.684692 
	C429.476562,152.713547 455.951874,165.078888 466.338531,188.559097 
	C467.725311,191.694046 469.333801,192.609482 472.623718,192.570862 
	C487.781097,192.392929 502.941742,192.492462 518.101196,192.492493 
	C519.721863,192.492493 521.342590,192.492493 523.235596,192.492493 
	C523.235596,204.251556 523.235596,215.506165 523.235596,227.513977 
	C521.450562,227.513977 519.695496,227.513962 517.940430,227.513962 
	C502.947540,227.513977 487.953522,227.612976 472.962646,227.439072 
	C469.542084,227.399399 467.812988,228.306030 466.267822,231.616196 
	C458.744354,247.733658 446.133606,257.690033 428.202087,261.408752 
M424.472534,226.511429 
	C433.401215,222.732101 437.528351,215.764069 436.092743,206.892502 
	C434.877106,199.380035 428.269623,193.346222 420.714905,192.849792 
	C412.114227,192.284637 405.092499,196.760300 402.640442,204.664917 
	C398.431702,218.232529 410.188202,230.213409 424.472534,226.511429 
z"/>
<path fill="#010101" opacity="1.000000" stroke="none" 
	d="
M605.011230,227.418732 
	C600.883606,227.418747 597.253479,227.418747 593.405273,227.418747 
	C593.405273,215.710876 593.405273,204.453217 593.405273,192.939636 
	C616.540405,192.939636 639.465698,192.939636 662.678894,192.939636 
	C662.678894,204.187027 662.678894,215.444855 662.678894,227.418732 
	C643.641357,227.418732 624.575012,227.418732 605.011230,227.418732 
z"/>
<path fill="#060504" opacity="1.000000" stroke="none" 
	d="
M628.000244,262.193878 
	C633.977051,262.193878 639.455017,262.193878 645.239075,262.193878 
	C645.239075,273.847382 645.239075,285.242096 645.239075,296.863861 
	C633.824707,296.863861 622.561462,296.863861 611.020020,296.863861 
	C611.020020,285.424133 611.020020,274.025177 611.020020,262.193878 
	C616.605103,262.193878 622.053162,262.193878 628.000244,262.193878 
z"/>
<path fill="#050404" opacity="1.000000" stroke="none" 
	d="
M612.561157,157.853760 
	C611.686768,157.430023 610.893188,157.020813 610.890686,156.606796 
	C610.823181,145.481659 610.836914,134.356064 610.836914,123.157959 
	C622.493896,123.157959 633.777100,123.157959 645.302124,123.157959 
	C645.302124,134.630585 645.302124,145.904312 645.302124,157.866028 
	C634.508179,157.866028 623.759399,157.866028 612.561157,157.853760 
z"/>
<path fill="#010101" opacity="1.000000" stroke="none" 
	d="
M573.838257,192.701477 
	C574.838684,193.228409 575.798035,193.738525 575.802124,194.256195 
	C575.888733,205.198730 575.867676,216.142120 575.867676,227.248642 
	C564.105225,227.248642 552.825256,227.248642 541.271484,227.248642 
	C541.271484,215.794144 541.271484,204.404465 541.271484,192.688171 
	C552.114502,192.688171 562.733398,192.688171 573.838257,192.701477 
z"/>
<path fill="#FFCFB0" opacity="1.000000" stroke="none" 
	d="
M500.999908,941.831421 
	C363.220245,941.831421 225.940613,941.831421 88.305710,941.831421 
	C88.193748,940.139160 88.015976,938.705750 88.015846,937.272278 
	C88.003235,794.634766 88.001411,651.997253 88.009415,509.359772 
	C88.010017,498.611511 92.125099,492.051697 100.607681,489.635193 
	C102.954826,488.966553 105.526131,488.872894 107.994652,488.872406 
	C280.626007,488.839142 453.257385,488.837982 625.888733,488.850555 
	C638.775818,488.851501 645.464600,495.601105 645.473755,508.655670 
	C645.505615,553.979736 645.486145,599.303833 645.486145,644.627869 
	C645.486206,741.441406 645.486145,838.254944 645.486145,935.068481 
	C645.486145,937.052795 645.486145,939.037109 645.486145,941.831421 
	C597.278992,941.831421 549.389465,941.831421 500.999908,941.831421 
M333.226990,785.703003 
	C327.182037,813.102417 321.137085,840.501892 315.023712,868.211426 
	C326.508667,870.745483 337.621155,873.197449 349.020050,875.712524 
	C372.265137,771.000305 395.392090,666.820374 418.613678,562.213928 
	C407.151245,559.664856 396.019745,557.189392 384.599121,554.649597 
	C367.485626,631.698181 350.472076,708.296875 333.226990,785.703003 
M226.441879,791.057922 
	C240.047989,804.691956 253.654099,818.326050 266.696960,831.395691 
	C275.113251,822.989258 283.168701,814.943237 291.269073,806.852295 
	C261.038574,776.658020 230.529190,746.185242 199.525620,715.218811 
	C230.442993,684.308289 261.128662,653.629456 291.069519,623.695251 
	C282.859375,615.429993 274.837341,607.354187 266.369232,598.829285 
	C265.757355,599.599487 264.928436,600.880310 263.874023,601.935913 
	C230.920013,634.927002 197.942047,667.894165 164.972672,700.869873 
	C155.302063,710.542358 155.241501,719.837708 164.822586,729.430237 
	C185.184891,749.816895 205.567566,770.183228 226.441879,791.057922 
M558.677979,690.822266 
	C527.955261,660.096436 497.232605,629.370544 466.997986,599.132812 
	C458.647827,607.500488 450.591492,615.573669 442.052368,624.130676 
	C472.152802,654.212769 502.644928,684.686279 533.468506,715.491028 
	C502.878540,746.077026 472.290436,776.661072 442.312256,806.635315 
	C450.643890,814.994751 458.726807,823.104675 466.883453,831.288513 
	C501.181854,796.986328 535.858032,762.380249 570.430237,727.670471 
	C577.687378,720.384460 577.725464,710.661255 570.782959,703.043579 
	C567.082642,698.983398 563.056885,695.219727 558.677979,690.822266 
z"/>
<path fill="#FFCFB0" opacity="1.000000" stroke="none" 
	d="
M523.000488,976.514038 
	C581.440186,976.513977 639.379822,976.513977 697.379089,976.513977 
	C699.518555,999.745300 696.587769,1020.661194 676.797424,1035.642578 
	C666.713379,1043.276245 655.219360,1046.281250 642.675964,1046.198486 
	C622.016235,1046.062378 601.354919,1046.161621 580.694275,1046.161621 
	C417.908386,1046.161621 255.122421,1046.103516 92.336624,1046.238647 
	C73.054199,1046.254639 57.195305,1039.952148 45.651581,1024.194458 
	C39.501167,1015.798889 36.227936,1006.298889 36.015457,995.855164 
	C35.887501,989.565796 35.991928,983.271606 35.991928,976.514038 
	C198.367020,976.514038 360.433716,976.514038 523.000488,976.514038 
M361.500000,993.942322 
	C340.104919,993.942322 318.709808,993.942322 297.471680,993.942322 
	C297.471680,1005.981262 297.471680,1017.350037 297.471680,1028.812012 
	C343.476379,1028.812012 389.080139,1028.812988 434.683868,1028.797485 
	C435.141083,1028.797363 435.598267,1028.579224 436.179230,1028.431396 
	C436.179230,1016.976440 436.179230,1005.586792 436.179230,993.942322 
	C411.416443,993.942322 386.958221,993.942322 361.500000,993.942322 
z"/>
<path fill="#FECEAF" opacity="1.000000" stroke="none" 
	d="
M705.002502,264.205994 
	C711.445496,260.623993 717.573547,257.277985 723.633850,253.813583 
	C731.539307,249.294388 734.650940,243.265823 733.106262,234.243286 
	C730.352356,218.157272 730.335938,202.148071 733.070007,186.058701 
	C734.655762,176.726944 731.648193,170.849197 723.414612,166.132050 
	C716.218079,162.009079 708.936584,158.034409 701.270081,153.758575 
	C708.927490,131.847702 720.641846,112.659424 736.251831,95.321709 
	C739.274658,96.967941 742.132385,98.555855 745.018311,100.090683 
	C760.756165,108.460648 776.176697,107.950111 791.433350,98.676521 
	C797.814087,94.798035 804.311951,91.061943 810.995483,87.741974 
	C828.047241,79.271645 836.664307,65.738228 836.510620,46.665508 
	C836.492004,44.362049 836.508057,42.058315 836.508057,39.492966 
	C860.150818,34.688099 883.388916,34.728111 907.491943,39.380367 
	C907.491943,42.222446 907.479126,45.141285 907.494080,48.059982 
	C907.588074,66.383804 916.272522,79.227348 932.398499,87.479195 
	C938.897156,90.804642 945.385132,94.219528 951.553528,98.108345 
	C967.572021,108.207085 983.692993,108.553749 1000.149353,99.416969 
	C1002.474976,98.125755 1004.800537,96.834290 1007.660889,95.246048 
	C1023.234619,112.245766 1034.815674,131.646851 1042.695312,153.721786 
	C1035.532959,157.720688 1028.685181,161.799728 1021.605774,165.426956 
	C1014.024719,169.311218 1008.667358,176.580688 1010.861816,187.216949 
	C1014.095093,202.887894 1013.552856,218.641388 1010.746460,234.371078 
	C1009.230896,242.865601 1012.371460,249.259293 1019.914124,253.612793 
	C1027.107056,257.764404 1034.381714,261.774323 1041.611816,265.861633 
	C1041.885010,266.015991 1042.068848,266.328217 1042.529175,266.815521 
	C1034.794312,288.365479 1023.190125,307.684723 1008.372070,323.922913 
	C1000.027100,320.750671 992.500610,317.128265 984.569031,315.057556 
	C973.390625,312.139191 962.902222,315.227142 953.080811,321.032135 
	C946.078064,325.171143 938.988708,329.185547 931.772583,332.937317 
	C915.818359,341.232056 907.554810,354.154449 907.493164,372.209900 
	C907.484131,374.863281 907.491943,377.516724 907.491943,380.572205 
	C883.851013,385.302063 860.491699,385.413605 836.507996,380.710022 
	C836.507996,377.774963 836.542969,374.992096 836.502441,372.210388 
	C836.237305,354.028198 827.985168,340.924866 811.707458,332.719330 
	C805.041504,329.359070 798.449829,325.783600 792.128479,321.821014 
	C776.631165,312.106689 760.945923,311.499969 744.852783,320.066742 
	C742.072815,321.546570 739.338135,323.111511 735.488281,325.243073 
	C728.841919,315.829132 721.611328,306.698120 715.648254,296.803253 
	C710.534729,288.318054 706.943481,278.923187 702.525391,270.006683 
	C701.093445,267.116730 701.840332,265.462952 705.002502,264.205994 
M768.350403,224.017776 
	C768.474670,224.672470 768.617737,225.324234 768.720398,225.982300 
	C777.425964,281.770081 828.265747,320.358917 884.493164,313.854126 
	C951.173401,306.140167 993.242126,237.217758 969.977539,173.802567 
	C943.800537,102.448593 851.023376,82.212173 797.809937,136.441376 
	C774.215454,160.486237 764.760620,189.693375 768.350403,224.017776 
z"/>
<path fill="#FCCDAE" opacity="1.000000" stroke="none" 
	d="
M305.036407,347.371918 
	C295.842438,350.860291 288.207703,349.000885 283.239380,342.360168 
	C278.663147,336.243561 278.649017,327.432343 283.333740,321.470673 
	C288.033203,315.490234 294.300293,313.590790 301.565796,315.186615 
	C308.042633,316.609192 313.202881,322.452209 314.139587,329.169495 
	C315.243652,337.087006 312.330963,343.132751 305.036407,347.371918 
z"/>
<path fill="#FCCDAE" opacity="1.000000" stroke="none" 
	d="
M365.834656,82.484924 
	C368.296844,93.485016 363.045288,102.794441 353.481964,104.959831 
	C343.896515,107.130234 334.817261,101.538925 332.471313,92.020844 
	C330.368774,83.490211 335.218384,74.772308 343.729645,71.782227 
	C352.685883,68.635811 361.133881,72.602173 365.834656,82.484924 
z"/>
<path fill="#FCCDAE" opacity="1.000000" stroke="none" 
	d="
M424.083679,226.661743 
	C410.188202,230.213409 398.431702,218.232529 402.640442,204.664917 
	C405.092499,196.760300 412.114227,192.284637 420.714905,192.849792 
	C428.269623,193.346222 434.877106,199.380035 436.092743,206.892502 
	C437.528351,215.764069 433.401215,222.732101 424.083679,226.661743 
z"/>
<path fill="#020201" opacity="1.000000" stroke="none" 
	d="
M333.342743,785.299316 
	C350.472076,708.296875 367.485626,631.698181 384.599121,554.649597 
	C396.019745,557.189392 407.151245,559.664856 418.613678,562.213928 
	C395.392090,666.820374 372.265137,771.000305 349.020050,875.712524 
	C337.621155,873.197449 326.508667,870.745483 315.023712,868.211426 
	C321.137085,840.501892 327.182037,813.102417 333.342743,785.299316 
z"/>
<path fill="#020202" opacity="1.000000" stroke="none" 
	d="
M226.191895,790.807861 
	C205.567566,770.183228 185.184891,749.816895 164.822586,729.430237 
	C155.241501,719.837708 155.302063,710.542358 164.972672,700.869873 
	C197.942047,667.894165 230.920013,634.927002 263.874023,601.935913 
	C264.928436,600.880310 265.757355,599.599487 266.369232,598.829285 
	C274.837341,607.354187 282.859375,615.429993 291.069519,623.695251 
	C261.128662,653.629456 230.442993,684.308289 199.525620,715.218811 
	C230.529190,746.185242 261.038574,776.658020 291.269073,806.852295 
	C283.168701,814.943237 275.113251,822.989258 266.696960,831.395691 
	C253.654099,818.326050 240.047989,804.691956 226.191895,790.807861 
z"/>
<path fill="#020202" opacity="1.000000" stroke="none" 
	d="
M558.927979,691.072266 
	C563.056885,695.219727 567.082642,698.983398 570.782959,703.043579 
	C577.725464,710.661255 577.687378,720.384460 570.430237,727.670471 
	C535.858032,762.380249 501.181854,796.986328 466.883453,831.288513 
	C458.726807,823.104675 450.643890,814.994751 442.312256,806.635315 
	C472.290436,776.661072 502.878540,746.077026 533.468506,715.491028 
	C502.644928,684.686279 472.152802,654.212769 442.052368,624.130676 
	C450.591492,615.573669 458.647827,607.500488 466.997986,599.132812 
	C497.232605,629.370544 527.955261,660.096436 558.927979,691.072266 
z"/>
<path fill="#020201" opacity="1.000000" stroke="none" 
	d="
M362.000000,993.942322 
	C386.958221,993.942322 411.416443,993.942322 436.179230,993.942322 
	C436.179230,1005.586792 436.179230,1016.976440 436.179230,1028.431396 
	C435.598267,1028.579224 435.141083,1028.797363 434.683868,1028.797485 
	C389.080139,1028.812988 343.476379,1028.812012 297.471680,1028.812012 
	C297.471680,1017.350037 297.471680,1005.981262 297.471680,993.942322 
	C318.709808,993.942322 340.104919,993.942322 362.000000,993.942322 
z"/>
<path fill="#020201" opacity="1.000000" stroke="none" 
	d="
M768.279419,223.578522 
	C764.760620,189.693375 774.215454,160.486237 797.809937,136.441376 
	C851.023376,82.212173 943.800537,102.448593 969.977539,173.802567 
	C993.242126,237.217758 951.173401,306.140167 884.493164,313.854126 
	C828.265747,320.358917 777.425964,281.770081 768.720398,225.982300 
	C768.617737,225.324234 768.474670,224.672470 768.279419,223.578522 
M924.826050,164.692291 
	C903.777649,141.415466 872.554077,134.059784 844.944763,145.873840 
	C817.211121,157.741089 800.020874,185.216995 802.640015,215.135452 
	C805.140137,243.694931 820.008728,264.314697 846.653320,274.682831 
	C874.101501,285.363708 899.488281,279.861298 920.808899,259.431305 
	C946.365234,234.942413 949.016418,193.693161 924.826050,164.692291 
z"/>
<path fill="#FECEAF" opacity="1.000000" stroke="none" 
	d="
M925.063232,164.957123 
	C949.016418,193.693161 946.365234,234.942413 920.808899,259.431305 
	C899.488281,279.861298 874.101501,285.363708 846.653320,274.682831 
	C820.008728,264.314697 805.140137,243.694931 802.640015,215.135452 
	C800.020874,185.216995 817.211121,157.741089 844.944763,145.873840 
	C872.554077,134.059784 903.777649,141.415466 925.063232,164.957123 
z"/>
</svg>