<svg version="1.1" id="Layer_1" xmlns="http://www.w3.org/2000/svg" xmlns:xlink="http://www.w3.org/1999/xlink" x="0px" y="0px"
	 width="100%" viewBox="0 0 1080 1080" enable-background="new 0 0 1080 1080" xml:space="preserve">
<path fill="#000000" opacity="1.000000" stroke="none" 
	d="
M868.000000,1081.000000 
	C656.644653,1081.000000 445.289307,1081.000000 233.315674,1080.615723 
	C228.238358,1079.734619 223.761673,1079.360962 219.322998,1078.722778 
	C160.648575,1070.286987 110.497749,1044.984863 69.816269,1001.827881 
	C33.713455,963.528198 11.586266,918.167297 3.900748,865.946777 
	C2.874429,858.973267 1.964057,851.982666 0.999997,845.000000 
	C1.000000,832.977966 1.000000,820.955994 1.379552,808.296265 
	C7.538427,746.132019 31.971540,692.994019 76.041672,649.893860 
	C134.396942,592.822998 205.187439,569.500732 286.014099,579.398499 
	C345.046814,586.627441 395.220947,612.841858 436.110138,656.300171 
	C441.035278,661.534729 445.681122,667.032166 450.811462,672.807556 
	C450.811462,647.889465 450.811462,623.616943 450.811462,599.349792 
	C396.948090,582.308838 351.035980,553.187744 313.310547,511.268677 
	C312.162598,509.993134 310.397095,509.049438 308.737793,508.491821 
	C285.418793,500.655090 262.064789,492.922607 238.725937,485.144867 
	C183.790756,466.837433 128.810043,448.664734 73.949318,430.136780 
	C50.745197,422.300110 37.010017,402.449615 37.005383,378.092041 
	C36.990700,300.944397 36.984337,223.796768 37.007423,146.649124 
	C37.017052,114.487473 60.606445,91.023346 92.892761,91.004150 
	C125.051491,90.985031 157.210236,90.999962 189.368973,90.999962 
	C190.942413,90.999962 192.515854,90.999962 194.955978,90.999962 
	C193.634415,89.364235 192.911118,88.519760 192.242462,87.634048 
	C169.600571,57.641739 182.950989,15.066842 218.624847,3.568750 
	C221.705811,2.575722 224.872910,1.849930 228.000000,1.000001 
	C436.355347,1.000000 644.710693,1.000000 853.741821,1.334878 
	C875.259827,4.977616 889.839111,16.459517 897.362732,36.050323 
	C904.987000,55.902924 900.754883,74.144135 887.143494,90.999695 
	C889.492676,90.999695 891.118225,90.999687 892.743713,90.999687 
	C924.574951,90.999687 956.406128,90.997337 988.237366,91.000328 
	C1021.818726,91.003479 1044.998413,114.196510 1044.999390,147.798218 
	C1045.001709,223.959808 1045.000244,300.121399 1045.000000,376.282990 
	C1045.000000,403.375549 1031.274170,422.481812 1005.520081,431.070068 
	C928.578613,456.727661 851.619202,482.331665 774.707336,508.077667 
	C772.033203,508.972809 769.325928,510.728485 767.416138,512.803040 
	C738.631958,544.070435 705.103699,568.779297 666.206604,585.981689 
	C654.733337,591.055786 642.887512,595.287598 631.208557,599.906921 
	C631.208557,614.792053 631.208557,629.749329 631.208557,644.844788 
	C632.378296,644.844788 633.349426,644.931335 634.301147,644.832031 
	C654.267761,642.747559 674.188293,643.290710 694.080627,645.802979 
	C755.448425,653.553345 810.551758,676.215027 858.768738,715.150452 
	C861.595398,717.432983 863.679688,717.681152 867.070251,716.205627 
	C894.933594,704.080261 923.989563,700.262268 953.967346,705.285828 
	C1016.453735,715.757080 1066.074707,764.625610 1078.109131,827.140930 
	C1079.062988,832.095825 1080.036011,837.047058 1081.000000,842.000000 
	C1081.000000,851.022034 1081.000000,860.044006 1080.655029,869.758850 
	C1079.804199,874.409851 1079.560303,878.422241 1078.753418,882.318054 
	C1066.725098,940.393860 1033.046143,980.111267 977.319458,1000.527222 
	C970.615540,1002.983215 967.440918,1005.807678 965.748962,1012.812256 
	C961.806152,1029.135376 955.199524,1044.445801 942.012451,1055.732422 
	C926.314331,1069.168457 907.201721,1074.600586 887.359314,1078.033325 
	C880.927612,1079.146118 874.454285,1080.017944 868.000000,1081.000000 
M800.564758,943.045227 
	C798.206909,945.401123 795.855591,947.763672 793.489929,950.111694 
	C785.350525,958.190613 774.118469,958.648438 766.842712,951.203857 
	C759.694702,943.890015 760.143799,932.839722 767.989075,924.883606 
	C771.804993,921.013672 775.739868,917.260986 779.204224,913.863831 
	C770.411194,905.056580 762.114258,896.746155 753.493835,888.111816 
	C749.818909,891.861267 745.915833,895.947083 741.896729,899.915283 
	C737.789001,903.971069 732.845398,906.113098 727.005798,905.477966 
	C719.960693,904.711609 714.819702,901.017517 712.176392,894.457336 
	C709.552246,887.944885 710.188477,881.434387 715.081970,876.282166 
	C719.505737,871.624512 724.725159,867.722473 729.266479,863.771912 
	C719.515991,854.014099 711.211182,845.703064 702.572144,837.057434 
	C698.867798,840.830627 694.979797,844.929016 690.942017,848.874084 
	C683.151306,856.485901 672.291992,856.669739 665.034851,849.414978 
	C657.905518,842.287903 658.115662,831.252014 665.694824,823.508301 
	C669.629700,819.487915 673.815918,815.713379 677.458191,812.238403 
	C664.287170,799.085266 651.629944,786.445312 638.892944,773.725647 
	C620.148926,792.471375 601.031738,811.525513 582.066956,830.730103 
	C581.012695,831.797668 580.546814,834.281921 580.937805,835.819153 
	C591.720764,878.213745 610.491577,916.627502 639.250061,949.758118 
	C676.586426,992.770325 723.538452,1020.351135 778.292664,1035.185547 
	C782.138794,1036.227661 784.569946,1035.788818 787.446838,1032.857178 
	C804.020569,1015.968140 820.816895,999.296997 837.596375,982.610962 
	C839.468994,980.748779 841.712891,979.259766 843.510315,977.817810 
	C830.085815,964.393127 817.523376,951.830566 804.745605,939.052612 
	C803.677612,940.064087 802.371643,941.300903 800.564758,943.045227 
M694.447937,777.054871 
	C697.096863,780.218567 699.745789,783.382263 702.668274,786.872742 
	C707.673950,781.715027 711.423523,777.692871 715.344238,773.845093 
	C723.133301,766.201111 733.990173,765.846924 741.246948,772.884644 
	C748.732483,780.144104 748.572815,791.124512 740.657837,799.129578 
	C736.697754,803.134705 732.418945,806.824646 728.917664,810.070068 
	C738.000122,819.158569 746.325745,827.489746 755.211853,836.381714 
	C756.860168,834.514221 758.749512,832.195007 760.830383,830.062622 
	C763.270020,827.562683 765.739136,825.057800 768.436890,822.850159 
	C775.468811,817.095581 785.638733,817.563843 792.113098,823.764160 
	C798.734192,830.104919 799.767883,840.753906 793.582947,847.715271 
	C789.202026,852.646301 783.710815,856.590820 779.243042,860.512390 
	C788.890076,870.188721 797.198730,878.522644 805.938904,887.289368 
	C809.800049,883.309143 813.782654,878.842834 818.146362,874.786560 
	C825.527039,867.925903 836.672485,868.140198 843.370789,874.986084 
	C850.347534,882.116577 850.236084,893.156006 843.012329,900.559265 
	C838.964172,904.707947 834.771729,908.715881 830.874023,912.560730 
	C843.832947,925.509888 856.400146,938.067505 869.082642,950.740417 
	C869.146606,950.699341 869.621277,950.499634 869.958740,950.162598 
	C888.707153,931.441406 907.478027,912.742188 926.095276,893.891357 
	C927.172302,892.800842 927.680542,890.300232 927.295471,888.742065 
	C922.137512,867.870544 914.904785,847.755432 905.059082,828.595093 
	C867.326599,755.165527 807.082275,710.286255 728.256775,688.817993 
	C725.316101,688.017151 723.749878,688.773621 721.833130,690.703979 
	C705.513245,707.140198 689.128967,723.512695 672.714294,739.854370 
	C670.178833,742.378540 667.390198,744.648560 664.502197,747.229553 
	C674.834167,757.519409 684.390747,767.037048 694.447937,777.054871 
M606.500000,72.999390 
	C685.328430,72.999390 764.156860,73.000038 842.985291,72.995369 
	C844.817444,72.995262 846.658508,73.039650 848.480286,72.885162 
	C856.746155,72.184204 863.752258,65.437996 864.838806,57.210926 
	C865.902222,49.159298 861.094666,40.958111 853.258118,38.294559 
	C850.346680,37.304989 847.066711,37.051281 843.954590,37.050430 
	C641.966858,36.995243 439.979095,37.000404 237.991364,37.004711 
	C236.492554,37.004745 234.986328,36.982380 233.496185,37.113766 
	C225.202057,37.845024 218.178116,44.602943 217.154922,52.782707 
	C216.132599,60.955456 220.837769,69.032753 228.722534,71.692619 
	C231.787292,72.726494 235.243896,72.947372 238.522293,72.948975 
	C360.848175,73.008743 483.174072,72.999390 606.500000,72.999390 
M909.500000,126.999802 
	C888.740173,126.999802 867.980347,126.999802 847.320374,126.999802 
	C847.320374,139.344910 847.320374,151.079681 847.320374,163.000198 
	C882.453918,163.000198 917.267334,162.993866 952.080688,163.003311 
	C965.973755,163.007095 972.994202,169.994217 972.996338,183.833206 
	C973.005005,239.327072 973.002014,294.820953 972.998169,350.314819 
	C972.997375,361.832001 969.002991,367.377319 958.080444,371.007507 
	C916.013916,384.988800 873.964050,399.020966 831.841309,412.830933 
	C828.219604,414.018311 826.581177,416.012268 825.202026,419.288574 
	C821.016785,429.230316 816.532593,439.048004 812.052551,448.862793 
	C810.534546,452.188477 808.681885,455.361450 806.726318,459.092255 
	C808.018127,458.852142 808.507507,458.819397 808.957825,458.669403 
	C870.839783,438.055084 932.720886,417.438568 994.595886,396.803497 
	C1004.867126,393.378082 1008.994080,387.607971 1008.995361,376.725372 
	C1009.004333,300.567108 1009.002075,224.408859 1008.998291,148.250610 
	C1008.997559,133.751251 1002.161804,127.003029 987.491516,127.000862 
	C961.827698,126.997055 936.163818,126.999802 909.500000,126.999802 
M216.690216,439.908600 
	C235.998032,446.312256 255.305832,452.715912 274.461395,459.069092 
	C268.447418,445.559204 262.426758,432.320648 256.699158,418.956482 
	C255.350891,415.810577 253.677872,413.999268 250.307037,412.890930 
	C208.204346,399.047089 166.159607,385.027039 124.101540,371.047516 
	C112.867302,367.313385 109.001633,361.924347 109.001160,350.007050 
	C108.998978,294.690948 108.996460,239.374832 109.002785,184.058716 
	C109.004402,169.882645 115.918846,163.005264 130.160721,163.002350 
	C163.317062,162.995544 196.473419,163.000183 229.629761,163.000183 
	C231.379379,163.000183 233.128998,163.000183 234.634735,163.000183 
	C234.634735,150.560577 234.634735,138.825729 234.634735,126.999802 
	C187.454391,126.999802 140.639420,126.993958 93.824455,127.003410 
	C80.002678,127.006203 73.004066,134.035767 73.002884,147.912994 
	C72.996429,224.055954 72.998062,300.198914 73.001648,376.341888 
	C73.002182,387.831787 77.000870,393.313354 87.968048,396.970123 
	C130.626373,411.193817 173.282700,425.423553 216.690216,439.908600 
M447.061981,293.201324 
	C459.823914,305.635284 472.592499,318.062408 485.344391,330.506683 
	C490.305176,335.347778 492.662964,341.026367 491.250793,348.085785 
	C490.142242,353.627014 489.350281,359.231445 488.406097,364.805817 
	C486.244232,377.569489 484.075287,390.331940 481.808258,403.689636 
	C483.574585,402.910248 484.794861,402.455780 485.938019,401.854675 
	C500.789337,394.045258 515.691711,386.329498 530.445984,378.340363 
	C537.501099,374.520172 544.218872,374.300629 551.286682,378.186005 
	C560.166138,383.067230 569.195129,387.676544 578.165894,392.391174 
	C585.269592,396.124542 592.382751,399.839844 600.084717,403.873779 
	C599.865967,401.977631 599.798462,400.993378 599.634033,400.025574 
	C596.681824,382.647461 593.796265,365.257416 590.716675,347.901825 
	C589.535950,341.247864 591.396606,335.727325 596.080017,331.105408 
	C605.087341,322.216400 614.241394,313.475586 623.214905,304.552948 
	C627.515930,300.276276 631.544067,295.725098 635.798096,291.189178 
	C617.721863,288.523163 599.675842,285.747498 581.591675,283.248474 
	C573.968750,282.195099 568.850830,278.374481 565.568665,271.466980 
	C560.150024,260.063110 554.476562,248.779999 548.874756,237.463654 
	C546.416138,232.496780 543.869812,227.573318 541.020569,221.954285 
	C540.001221,223.916183 539.389282,225.049652 538.816650,226.202637 
	C531.280518,241.376587 523.645203,256.502594 516.265930,271.752502 
	C513.006409,278.488525 507.989563,282.180511 500.584381,283.212830 
	C483.285583,285.624298 466.016479,288.250854 448.749908,290.885529 
	C447.936096,291.009644 447.262665,292.053497 447.061981,293.201324 
M936.999817,296.500000 
	C936.999817,264.079895 936.999817,231.659821 936.999817,199.304657 
	C906.679382,199.304657 876.951233,199.304657 847.000183,199.304657 
	C847.000183,201.417358 847.000183,203.231415 847.000183,205.045456 
	C847.000183,240.201447 847.211914,275.359406 846.880249,310.512299 
	C846.770630,322.128571 845.540283,333.761780 844.298462,345.330994 
	C843.347168,354.193604 841.572266,362.967804 840.159424,371.808289 
	C840.695679,371.845184 841.038025,371.964508 841.310547,371.873871 
	C872.172241,361.608795 903.013855,351.282532 933.912109,341.128876 
	C936.582031,340.251495 937.062805,338.945892 937.044678,336.487823 
	C936.948914,323.492462 936.999817,310.496063 936.999817,296.500000 
M145.000259,236.500000 
	C145.000275,269.323334 145.102921,302.147400 144.872467,334.969116 
	C144.843124,339.148376 146.230896,340.711426 149.934326,341.831543 
	C158.825745,344.520752 167.597855,347.604401 176.418274,350.528412 
	C198.116058,357.721375 219.813950,364.914093 242.077606,372.294495 
	C229.726883,314.704590 237.400543,256.765472 234.511765,199.291931 
	C204.704819,199.291931 174.976959,199.291931 145.000259,199.291931 
	C145.000259,211.554657 145.000259,223.527328 145.000259,236.500000 
M400.499634,931.509766 
	C414.604980,931.509766 428.710327,931.509766 442.840240,931.509766 
	C455.408478,908.247375 463.299957,883.729370 466.800201,857.719482 
	C442.553375,840.055603 418.384277,822.391235 394.092377,804.897339 
	C392.676605,803.877747 390.053131,803.544067 388.354065,804.067566 
	C376.133698,807.832336 363.961731,811.772217 351.896667,816.005066 
	C349.962463,816.683655 347.809845,818.825073 347.159851,820.760864 
	C339.333618,844.068298 331.811493,867.477722 324.088379,890.820251 
	C323.150848,893.653748 323.592377,895.663086 325.379456,898.049622 
	C332.763580,907.910278 339.998810,917.886719 347.073212,927.971924 
	C348.896515,930.571228 350.770752,931.630432 354.001038,931.591309 
	C369.165344,931.407898 384.333099,931.509705 400.499634,931.509766 
M126.675034,806.904663 
	C123.680870,805.922791 120.742233,804.641907 117.671631,804.071594 
	C115.841240,803.731750 113.338890,803.862610 111.928230,804.878418 
	C87.652206,822.359497 63.499306,840.011475 39.230274,857.690979 
	C42.834644,883.819580 50.587612,908.519531 63.184647,931.509827 
	C92.905083,931.509827 122.367340,931.464722 151.829010,931.575562 
	C154.964554,931.587341 156.974472,930.786377 158.843307,928.111572 
	C165.987350,917.886292 173.528122,907.937378 180.627991,897.682617 
	C181.801331,895.987915 182.374603,893.006592 181.765579,891.081604 
	C174.306137,867.504639 166.646103,843.989807 158.778473,820.546021 
	C158.139709,818.642578 155.859833,816.661743 153.893631,815.940430 
	C145.169846,812.739624 136.282303,809.985229 126.675034,806.904663 
M137.302902,646.832458 
	C124.528946,657.177795 111.772278,667.544678 98.963287,677.846436 
	C96.926636,679.484558 97.016403,681.032715 97.800705,683.412903 
	C106.740356,710.543335 115.561035,737.713379 124.259888,764.921997 
	C125.186974,767.821838 126.725471,769.161438 129.534012,770.041077 
	C141.416931,773.763245 153.187195,777.849670 165.104187,781.453979 
	C167.095612,782.056274 170.141525,781.676819 171.800720,780.491699 
	C191.979813,766.078369 212.027039,751.478699 231.972443,736.743225 
	C233.506958,735.609619 234.831619,733.103210 234.868927,731.207642 
	C235.121353,718.384460 235.123047,705.551514 234.866531,692.728516 
	C234.828796,690.842102 233.439316,688.424866 231.912003,687.223816 
	C225.635895,682.288330 219.065979,677.726440 212.602066,673.029968 
	C194.868805,660.145325 177.134460,647.262207 159.216568,634.244812 
	C152.029465,638.342773 144.959961,642.373718 137.302902,646.832458 
M343.464325,636.695862 
	C320.305023,653.510925 297.114166,670.283142 274.057281,687.237549 
	C272.518188,688.369263 271.170013,690.866150 271.132446,692.755920 
	C270.877716,705.576538 270.878204,718.407104 271.131775,731.227783 
	C271.169220,733.120483 272.506042,735.620667 274.042603,736.754578 
	C293.856506,751.376648 313.844635,765.762390 333.700317,780.328308 
	C336.075897,782.071045 338.059326,782.562012 340.934113,781.579163 
	C352.714081,777.551758 364.557434,773.701294 376.445251,770.003845 
	C379.269806,769.125366 380.750397,767.786011 381.677216,764.891052 
	C390.435638,737.534790 399.408936,710.247192 408.142395,682.883118 
	C408.592529,681.472778 407.972473,679.014099 406.928436,677.939331 
	C389.974518,660.485535 370.633545,646.249451 348.681854,635.684387 
	C347.495331,635.113281 345.610596,635.992920 343.464325,636.695862 
M226.302155,1043.139526 
	C247.419281,1046.198853 268.460266,1045.283203 289.418274,1041.725220 
	C290.659180,1041.514648 292.247437,1039.980347 292.655548,1038.729614 
	C301.674225,1011.091492 310.593658,983.420593 319.343018,955.696228 
	C319.878357,953.999878 319.470459,951.378174 318.452179,949.919617 
	C311.211273,939.547974 303.607880,929.429932 296.334229,919.080444 
	C294.589600,916.598022 292.740631,915.757874 289.771881,915.771606 
	C265.275421,915.885071 240.777740,915.909790 216.281830,915.747620 
	C213.012558,915.726013 211.191559,916.847900 209.392685,919.408630 
	C202.408539,929.350891 195.332870,939.236206 187.992844,948.916443 
	C185.872757,951.712463 185.845551,954.004211 186.867966,957.121765 
	C194.996155,981.906250 203.415619,1006.611389 210.728271,1031.638184 
	C213.170700,1039.997070 217.252625,1043.437134 226.302155,1043.139526 
M593.498291,973.000366 
	C599.256348,973.000366 605.014404,973.000366 611.703003,973.000366 
	C567.926941,920.242065 543.585083,860.280029 536.801880,793.384705 
	C525.019653,793.384705 513.654907,793.384705 502.347198,793.384705 
	C511.003082,858.732788 496.804352,918.366394 459.852448,973.000366 
	C504.577789,973.000366 548.538452,973.000366 593.498291,973.000366 
M486.999908,641.500000 
	C486.999908,668.651733 487.546295,695.819458 486.754242,722.948059 
	C486.393890,735.291992 491.078674,745.783875 494.361938,756.676270 
	C508.390991,756.676270 521.969604,756.676270 534.335876,756.676270 
	C536.947021,741.461670 538.676453,726.576172 542.168396,712.116211 
	C548.030640,687.840881 560.247131,667.861816 584.250366,657.229126 
	C587.740540,655.683105 591.285339,654.260315 594.762329,652.798462 
	C594.762329,637.930542 594.762329,623.159668 594.762329,608.184937 
	C558.806763,614.583801 523.078369,614.497253 486.999908,608.178772 
	C486.999908,619.213501 486.999908,629.856750 486.999908,641.500000 
M394.622223,1037.119629 
	C390.998169,1039.518799 387.374146,1041.917969 383.158936,1044.708496 
	C490.054596,1044.708496 596.018433,1044.708496 700.212646,1044.708496 
	C684.266418,1033.642090 667.288269,1021.813904 650.223389,1010.112244 
	C648.993774,1009.269104 647.131226,1009.045044 645.562561,1009.043945 
	C574.434692,1008.993469 503.306702,1008.980408 432.178955,1009.099365 
	C430.124084,1009.102783 427.712250,1010.127014 426.076630,1011.436707 
	C415.696594,1019.748474 405.488312,1028.274658 394.622223,1037.119629 
M973.375427,921.188782 
	C972.563538,922.690308 970.988586,924.229004 971.059631,925.687500 
	C971.664612,938.103455 972.568726,950.504700 973.421692,963.496582 
	C1002.996094,950.462769 1024.243042,929.386780 1036.411011,899.536926 
	C1045.768677,876.581177 1047.758301,852.987854 1040.918457,827.552856 
	C1024.645508,864.118164 1002.627930,894.819031 973.375427,921.188782 
M943.418030,780.908875 
	C948.312622,768.394043 952.033691,755.594177 953.377930,742.250732 
	C935.507324,736.785278 904.882446,738.992615 892.629578,745.302795 
	C906.117798,764.121460 919.699280,783.070190 933.150757,801.837585 
	C933.868713,800.536194 935.080872,798.549316 936.091675,796.464783 
	C938.479797,791.539490 940.772156,786.567810 943.418030,780.908875 
z"/>
<path fill="#FFCFB0" opacity="1.000000" stroke="none" 
	d="
M1081.000000,841.531372 
	C1080.036011,837.047058 1079.062988,832.095825 1078.109131,827.140930 
	C1066.074707,764.625610 1016.453735,715.757080 953.967346,705.285828 
	C923.989563,700.262268 894.933594,704.080261 867.070251,716.205627 
	C863.679688,717.681152 861.595398,717.432983 858.768738,715.150452 
	C810.551758,676.215027 755.448425,653.553345 694.080627,645.802979 
	C674.188293,643.290710 654.267761,642.747559 634.301147,644.832031 
	C633.349426,644.931335 632.378296,644.844788 631.208557,644.844788 
	C631.208557,629.749329 631.208557,614.792053 631.208557,599.906921 
	C642.887512,595.287598 654.733337,591.055786 666.206604,585.981689 
	C705.103699,568.779297 738.631958,544.070435 767.416138,512.803040 
	C769.325928,510.728485 772.033203,508.972809 774.707336,508.077667 
	C851.619202,482.331665 928.578613,456.727661 1005.520081,431.070068 
	C1031.274170,422.481812 1045.000000,403.375549 1045.000000,376.282990 
	C1045.000244,300.121399 1045.001709,223.959808 1044.999390,147.798218 
	C1044.998413,114.196510 1021.818726,91.003479 988.237366,91.000328 
	C956.406128,90.997337 924.574951,90.999687 892.743713,90.999687 
	C891.118225,90.999687 889.492676,90.999695 887.143494,90.999695 
	C900.754883,74.144135 904.987000,55.902924 897.362732,36.050323 
	C889.839111,16.459517 875.259827,4.977616 854.208740,1.334878 
	C929.635681,1.000000 1005.271301,1.000000 1081.000000,1.000000 
	C1081.000000,281.020874 1081.000000,561.041809 1081.000000,841.531372 
z"/>
<path fill="#FFCFB0" opacity="1.000000" stroke="none" 
	d="
M227.531342,1.000001 
	C224.872910,1.849930 221.705811,2.575722 218.624847,3.568750 
	C182.950989,15.066842 169.600571,57.641739 192.242462,87.634048 
	C192.911118,88.519760 193.634415,89.364235 194.955978,90.999962 
	C192.515854,90.999962 190.942413,90.999962 189.368973,90.999962 
	C157.210236,90.999962 125.051491,90.985031 92.892761,91.004150 
	C60.606445,91.023346 37.017052,114.487473 37.007423,146.649124 
	C36.984337,223.796768 36.990700,300.944397 37.005383,378.092041 
	C37.010017,402.449615 50.745197,422.300110 73.949318,430.136780 
	C128.810043,448.664734 183.790756,466.837433 238.725937,485.144867 
	C262.064789,492.922607 285.418793,500.655090 308.737793,508.491821 
	C310.397095,509.049438 312.162598,509.993134 313.310547,511.268677 
	C351.035980,553.187744 396.948090,582.308838 450.811462,599.349792 
	C450.811462,623.616943 450.811462,647.889465 450.811462,672.807556 
	C445.681122,667.032166 441.035278,661.534729 436.110138,656.300171 
	C395.220947,612.841858 345.046814,586.627441 286.014099,579.398499 
	C205.187439,569.500732 134.396942,592.822998 76.041672,649.893860 
	C31.971540,692.994019 7.538427,746.132019 1.379552,807.829346 
	C1.000000,539.113892 1.000000,270.227753 1.000000,1.000000 
	C76.353882,1.000000 151.708282,1.000000 227.531342,1.000001 
z"/>
<path fill="#FECFB0" opacity="1.000000" stroke="none" 
	d="
M868.468628,1081.000000 
	C874.454285,1080.017944 880.927612,1079.146118 887.359314,1078.033325 
	C907.201721,1074.600586 926.314331,1069.168457 942.012451,1055.732422 
	C955.199524,1044.445801 961.806152,1029.135376 965.748962,1012.812256 
	C967.440918,1005.807678 970.615540,1002.983215 977.319458,1000.527222 
	C1033.046143,980.111267 1066.725098,940.393860 1078.753418,882.318054 
	C1079.560303,878.422241 1079.804199,874.409851 1080.655029,870.225830 
	C1081.000000,940.260681 1081.000000,1010.521423 1081.000000,1081.000000 
	C1010.312561,1081.000000 939.624939,1081.000000 868.468628,1081.000000 
z"/>
<path fill="#FECEB0" opacity="1.000000" stroke="none" 
	d="
M0.999997,845.468628 
	C1.964057,851.982666 2.874429,858.973267 3.900748,865.946777 
	C11.586266,918.167297 33.713455,963.528198 69.816269,1001.827881 
	C110.497749,1044.984863 160.648575,1070.286987 219.322998,1078.722778 
	C223.761673,1079.360962 228.238358,1079.734619 232.848694,1080.615723 
	C155.739014,1081.000000 78.478012,1081.000000 1.000000,1081.000000 
	C1.000000,1002.645935 1.000000,924.291626 0.999997,845.468628 
z"/>
<path fill="#FECEAF" opacity="1.000000" stroke="none" 
	d="
M800.815186,942.791504 
	C802.371643,941.300903 803.677612,940.064087 804.745605,939.052612 
	C817.523376,951.830566 830.085815,964.393127 843.510315,977.817810 
	C841.712891,979.259766 839.468994,980.748779 837.596375,982.610962 
	C820.816895,999.296997 804.020569,1015.968140 787.446838,1032.857178 
	C784.569946,1035.788818 782.138794,1036.227661 778.292664,1035.185547 
	C723.538452,1020.351135 676.586426,992.770325 639.250061,949.758118 
	C610.491577,916.627502 591.720764,878.213745 580.937805,835.819153 
	C580.546814,834.281921 581.012695,831.797668 582.066956,830.730103 
	C601.031738,811.525513 620.148926,792.471375 638.892944,773.725647 
	C651.629944,786.445312 664.287170,799.085266 677.458191,812.238403 
	C673.815918,815.713379 669.629700,819.487915 665.694824,823.508301 
	C658.115662,831.252014 657.905518,842.287903 665.034851,849.414978 
	C672.291992,856.669739 683.151306,856.485901 690.942017,848.874084 
	C694.979797,844.929016 698.867798,840.830627 702.572144,837.057434 
	C711.211182,845.703064 719.515991,854.014099 729.266479,863.771912 
	C724.725159,867.722473 719.505737,871.624512 715.081970,876.282166 
	C710.188477,881.434387 709.552246,887.944885 712.176392,894.457336 
	C714.819702,901.017517 719.960693,904.711609 727.005798,905.477966 
	C732.845398,906.113098 737.789001,903.971069 741.896729,899.915283 
	C745.915833,895.947083 749.818909,891.861267 753.493835,888.111816 
	C762.114258,896.746155 770.411194,905.056580 779.204224,913.863831 
	C775.739868,917.260986 771.804993,921.013672 767.989075,924.883606 
	C760.143799,932.839722 759.694702,943.890015 766.842712,951.203857 
	C774.118469,958.648438 785.350525,958.190613 793.489929,950.111694 
	C795.855591,947.763672 798.206909,945.401123 800.815186,942.791504 
z"/>
<path fill="#FECEAF" opacity="1.000000" stroke="none" 
	d="
M694.197632,776.804810 
	C684.390747,767.037048 674.834167,757.519409 664.502197,747.229553 
	C667.390198,744.648560 670.178833,742.378540 672.714294,739.854370 
	C689.128967,723.512695 705.513245,707.140198 721.833130,690.703979 
	C723.749878,688.773621 725.316101,688.017151 728.256775,688.817993 
	C807.082275,710.286255 867.326599,755.165527 905.059082,828.595093 
	C914.904785,847.755432 922.137512,867.870544 927.295471,888.742065 
	C927.680542,890.300232 927.172302,892.800842 926.095276,893.891357 
	C907.478027,912.742188 888.707153,931.441406 869.958740,950.162598 
	C869.621277,950.499634 869.146606,950.699341 869.082642,950.740417 
	C856.400146,938.067505 843.832947,925.509888 830.874023,912.560730 
	C834.771729,908.715881 838.964172,904.707947 843.012329,900.559265 
	C850.236084,893.156006 850.347534,882.116577 843.370789,874.986084 
	C836.672485,868.140198 825.527039,867.925903 818.146362,874.786560 
	C813.782654,878.842834 809.800049,883.309143 805.938904,887.289368 
	C797.198730,878.522644 788.890076,870.188721 779.243042,860.512390 
	C783.710815,856.590820 789.202026,852.646301 793.582947,847.715271 
	C799.767883,840.753906 798.734192,830.104919 792.113098,823.764160 
	C785.638733,817.563843 775.468811,817.095581 768.436890,822.850159 
	C765.739136,825.057800 763.270020,827.562683 760.830383,830.062622 
	C758.749512,832.195007 756.860168,834.514221 755.211853,836.381714 
	C746.325745,827.489746 738.000122,819.158569 728.917664,810.070068 
	C732.418945,806.824646 736.697754,803.134705 740.657837,799.129578 
	C748.572815,791.124512 748.732483,780.144104 741.246948,772.884644 
	C733.990173,765.846924 723.133301,766.201111 715.344238,773.845093 
	C711.423523,777.692871 707.673950,781.715027 702.668274,786.872742 
	C699.745789,783.382263 697.096863,780.218567 694.197632,776.804810 
z"/>
<path fill="#FFCFB0" opacity="1.000000" stroke="none" 
	d="
M606.000000,72.999390 
	C483.174072,72.999390 360.848175,73.008743 238.522293,72.948975 
	C235.243896,72.947372 231.787292,72.726494 228.722534,71.692619 
	C220.837769,69.032753 216.132599,60.955456 217.154922,52.782707 
	C218.178116,44.602943 225.202057,37.845024 233.496185,37.113766 
	C234.986328,36.982380 236.492554,37.004745 237.991364,37.004711 
	C439.979095,37.000404 641.966858,36.995243 843.954590,37.050430 
	C847.066711,37.051281 850.346680,37.304989 853.258118,38.294559 
	C861.094666,40.958111 865.902222,49.159298 864.838806,57.210926 
	C863.752258,65.437996 856.746155,72.184204 848.480286,72.885162 
	C846.658508,73.039650 844.817444,72.995262 842.985291,72.995369 
	C764.156860,73.000038 685.328430,72.999390 606.000000,72.999390 
z"/>
<path fill="#FECFB0" opacity="1.000000" stroke="none" 
	d="
M910.000000,126.999802 
	C936.163818,126.999802 961.827698,126.997055 987.491516,127.000862 
	C1002.161804,127.003029 1008.997559,133.751251 1008.998291,148.250610 
	C1009.002075,224.408859 1009.004333,300.567108 1008.995361,376.725372 
	C1008.994080,387.607971 1004.867126,393.378082 994.595886,396.803497 
	C932.720886,417.438568 870.839783,438.055084 808.957825,458.669403 
	C808.507507,458.819397 808.018127,458.852142 806.726318,459.092255 
	C808.681885,455.361450 810.534546,452.188477 812.052551,448.862793 
	C816.532593,439.048004 821.016785,429.230316 825.202026,419.288574 
	C826.581177,416.012268 828.219604,414.018311 831.841309,412.830933 
	C873.964050,399.020966 916.013916,384.988800 958.080444,371.007507 
	C969.002991,367.377319 972.997375,361.832001 972.998169,350.314819 
	C973.002014,294.820953 973.005005,239.327072 972.996338,183.833206 
	C972.994202,169.994217 965.973755,163.007095 952.080688,163.003311 
	C917.267334,162.993866 882.453918,163.000198 847.320374,163.000198 
	C847.320374,151.079681 847.320374,139.344910 847.320374,126.999802 
	C867.980347,126.999802 888.740173,126.999802 910.000000,126.999802 
z"/>
<path fill="#FECFB0" opacity="1.000000" stroke="none" 
	d="
M216.315002,439.779816 
	C173.282700,425.423553 130.626373,411.193817 87.968048,396.970123 
	C77.000870,393.313354 73.002182,387.831787 73.001648,376.341888 
	C72.998062,300.198914 72.996429,224.055954 73.002884,147.912994 
	C73.004066,134.035767 80.002678,127.006203 93.824455,127.003410 
	C140.639420,126.993958 187.454391,126.999802 234.634735,126.999802 
	C234.634735,138.825729 234.634735,150.560577 234.634735,163.000183 
	C233.128998,163.000183 231.379379,163.000183 229.629761,163.000183 
	C196.473419,163.000183 163.317062,162.995544 130.160721,163.002350 
	C115.918846,163.005264 109.004402,169.882645 109.002785,184.058716 
	C108.996460,239.374832 108.998978,294.690948 109.001160,350.007050 
	C109.001633,361.924347 112.867302,367.313385 124.101540,371.047516 
	C166.159607,385.027039 208.204346,399.047089 250.307037,412.890930 
	C253.677872,413.999268 255.350891,415.810577 256.699158,418.956482 
	C262.426758,432.320648 268.447418,445.559204 274.461395,459.069092 
	C255.305832,452.715912 235.998032,446.312256 216.315002,439.779816 
z"/>
<path fill="#FECEAF" opacity="1.000000" stroke="none" 
	d="
M446.792908,292.935181 
	C447.262665,292.053497 447.936096,291.009644 448.749908,290.885529 
	C466.016479,288.250854 483.285583,285.624298 500.584381,283.212830 
	C507.989563,282.180511 513.006409,278.488525 516.265930,271.752502 
	C523.645203,256.502594 531.280518,241.376587 538.816650,226.202637 
	C539.389282,225.049652 540.001221,223.916183 541.020569,221.954285 
	C543.869812,227.573318 546.416138,232.496780 548.874756,237.463654 
	C554.476562,248.779999 560.150024,260.063110 565.568665,271.466980 
	C568.850830,278.374481 573.968750,282.195099 581.591675,283.248474 
	C599.675842,285.747498 617.721863,288.523163 635.798096,291.189178 
	C631.544067,295.725098 627.515930,300.276276 623.214905,304.552948 
	C614.241394,313.475586 605.087341,322.216400 596.080017,331.105408 
	C591.396606,335.727325 589.535950,341.247864 590.716675,347.901825 
	C593.796265,365.257416 596.681824,382.647461 599.634033,400.025574 
	C599.798462,400.993378 599.865967,401.977631 600.084717,403.873779 
	C592.382751,399.839844 585.269592,396.124542 578.165894,392.391174 
	C569.195129,387.676544 560.166138,383.067230 551.286682,378.186005 
	C544.218872,374.300629 537.501099,374.520172 530.445984,378.340363 
	C515.691711,386.329498 500.789337,394.045258 485.938019,401.854675 
	C484.794861,402.455780 483.574585,402.910248 481.808258,403.689636 
	C484.075287,390.331940 486.244232,377.569489 488.406097,364.805817 
	C489.350281,359.231445 490.142242,353.627014 491.250793,348.085785 
	C492.662964,341.026367 490.305176,335.347778 485.344391,330.506683 
	C472.592499,318.062408 459.823914,305.635284 446.792908,292.935181 
z"/>
<path fill="#FFCFB0" opacity="1.000000" stroke="none" 
	d="
M936.999817,297.000000 
	C936.999817,310.496063 936.948914,323.492462 937.044678,336.487823 
	C937.062805,338.945892 936.582031,340.251495 933.912109,341.128876 
	C903.013855,351.282532 872.172241,361.608795 841.310547,371.873871 
	C841.038025,371.964508 840.695679,371.845184 840.159424,371.808289 
	C841.572266,362.967804 843.347168,354.193604 844.298462,345.330994 
	C845.540283,333.761780 846.770630,322.128571 846.880249,310.512299 
	C847.211914,275.359406 847.000183,240.201447 847.000183,205.045456 
	C847.000183,203.231415 847.000183,201.417358 847.000183,199.304657 
	C876.951233,199.304657 906.679382,199.304657 936.999817,199.304657 
	C936.999817,231.659821 936.999817,264.079895 936.999817,297.000000 
z"/>
<path fill="#FFCFB0" opacity="1.000000" stroke="none" 
	d="
M145.000259,236.000000 
	C145.000259,223.527328 145.000259,211.554657 145.000259,199.291931 
	C174.976959,199.291931 204.704819,199.291931 234.511765,199.291931 
	C237.400543,256.765472 229.726883,314.704590 242.077606,372.294495 
	C219.813950,364.914093 198.116058,357.721375 176.418274,350.528412 
	C167.597855,347.604401 158.825745,344.520752 149.934326,341.831543 
	C146.230896,340.711426 144.843124,339.148376 144.872467,334.969116 
	C145.102921,302.147400 145.000275,269.323334 145.000259,236.000000 
z"/>
<path fill="#FDCEAF" opacity="1.000000" stroke="none" 
	d="
M399.999634,931.509766 
	C384.333099,931.509705 369.165344,931.407898 354.001038,931.591309 
	C350.770752,931.630432 348.896515,930.571228 347.073212,927.971924 
	C339.998810,917.886719 332.763580,907.910278 325.379456,898.049622 
	C323.592377,895.663086 323.150848,893.653748 324.088379,890.820251 
	C331.811493,867.477722 339.333618,844.068298 347.159851,820.760864 
	C347.809845,818.825073 349.962463,816.683655 351.896667,816.005066 
	C363.961731,811.772217 376.133698,807.832336 388.354065,804.067566 
	C390.053131,803.544067 392.676605,803.877747 394.092377,804.897339 
	C418.384277,822.391235 442.553375,840.055603 466.800201,857.719482 
	C463.299957,883.729370 455.408478,908.247375 442.840240,931.509766 
	C428.710327,931.509766 414.604980,931.509766 399.999634,931.509766 
z"/>
<path fill="#FDCEAF" opacity="1.000000" stroke="none" 
	d="
M127.064499,806.987061 
	C136.282303,809.985229 145.169846,812.739624 153.893631,815.940430 
	C155.859833,816.661743 158.139709,818.642578 158.778473,820.546021 
	C166.646103,843.989807 174.306137,867.504639 181.765579,891.081604 
	C182.374603,893.006592 181.801331,895.987915 180.627991,897.682617 
	C173.528122,907.937378 165.987350,917.886292 158.843307,928.111572 
	C156.974472,930.786377 154.964554,931.587341 151.829010,931.575562 
	C122.367340,931.464722 92.905083,931.509827 63.184647,931.509827 
	C50.587612,908.519531 42.834644,883.819580 39.230274,857.690979 
	C63.499306,840.011475 87.652206,822.359497 111.928230,804.878418 
	C113.338890,803.862610 115.841240,803.731750 117.671631,804.071594 
	C120.742233,804.641907 123.680870,805.922791 127.064499,806.987061 
z"/>
<path fill="#FECEAF" opacity="1.000000" stroke="none" 
	d="
M137.596680,646.618530 
	C144.959961,642.373718 152.029465,638.342773 159.216568,634.244812 
	C177.134460,647.262207 194.868805,660.145325 212.602066,673.029968 
	C219.065979,677.726440 225.635895,682.288330 231.912003,687.223816 
	C233.439316,688.424866 234.828796,690.842102 234.866531,692.728516 
	C235.123047,705.551514 235.121353,718.384460 234.868927,731.207642 
	C234.831619,733.103210 233.506958,735.609619 231.972443,736.743225 
	C212.027039,751.478699 191.979813,766.078369 171.800720,780.491699 
	C170.141525,781.676819 167.095612,782.056274 165.104187,781.453979 
	C153.187195,777.849670 141.416931,773.763245 129.534012,770.041077 
	C126.725471,769.161438 125.186974,767.821838 124.259888,764.921997 
	C115.561035,737.713379 106.740356,710.543335 97.800705,683.412903 
	C97.016403,681.032715 96.926636,679.484558 98.963287,677.846436 
	C111.772278,667.544678 124.528946,657.177795 137.596680,646.618530 
z"/>
<path fill="#FECEAF" opacity="1.000000" stroke="none" 
	d="
M343.757599,636.446533 
	C345.610596,635.992920 347.495331,635.113281 348.681854,635.684387 
	C370.633545,646.249451 389.974518,660.485535 406.928436,677.939331 
	C407.972473,679.014099 408.592529,681.472778 408.142395,682.883118 
	C399.408936,710.247192 390.435638,737.534790 381.677216,764.891052 
	C380.750397,767.786011 379.269806,769.125366 376.445251,770.003845 
	C364.557434,773.701294 352.714081,777.551758 340.934113,781.579163 
	C338.059326,782.562012 336.075897,782.071045 333.700317,780.328308 
	C313.844635,765.762390 293.856506,751.376648 274.042603,736.754578 
	C272.506042,735.620667 271.169220,733.120483 271.131775,731.227783 
	C270.878204,718.407104 270.877716,705.576538 271.132446,692.755920 
	C271.170013,690.866150 272.518188,688.369263 274.057281,687.237549 
	C297.114166,670.283142 320.305023,653.510925 343.757599,636.446533 
z"/>
<path fill="#FECEAF" opacity="1.000000" stroke="none" 
	d="
M225.862061,1043.089233 
	C217.252625,1043.437134 213.170700,1039.997070 210.728271,1031.638184 
	C203.415619,1006.611389 194.996155,981.906250 186.867966,957.121765 
	C185.845551,954.004211 185.872757,951.712463 187.992844,948.916443 
	C195.332870,939.236206 202.408539,929.350891 209.392685,919.408630 
	C211.191559,916.847900 213.012558,915.726013 216.281830,915.747620 
	C240.777740,915.909790 265.275421,915.885071 289.771881,915.771606 
	C292.740631,915.757874 294.589600,916.598022 296.334229,919.080444 
	C303.607880,929.429932 311.211273,939.547974 318.452179,949.919617 
	C319.470459,951.378174 319.878357,953.999878 319.343018,955.696228 
	C310.593658,983.420593 301.674225,1011.091492 292.655548,1038.729614 
	C292.247437,1039.980347 290.659180,1041.514648 289.418274,1041.725220 
	C268.460266,1045.283203 247.419281,1046.198853 225.862061,1043.089233 
z"/>
<path fill="#FECEAF" opacity="1.000000" stroke="none" 
	d="
M592.998718,973.000366 
	C548.538452,973.000366 504.577789,973.000366 459.852448,973.000366 
	C496.804352,918.366394 511.003082,858.732788 502.347198,793.384705 
	C513.654907,793.384705 525.019653,793.384705 536.801880,793.384705 
	C543.585083,860.280029 567.926941,920.242065 611.703003,973.000366 
	C605.014404,973.000366 599.256348,973.000366 592.998718,973.000366 
z"/>
<path fill="#FECFB0" opacity="1.000000" stroke="none" 
	d="
M486.999908,641.000000 
	C486.999908,629.856750 486.999908,619.213501 486.999908,608.178772 
	C523.078369,614.497253 558.806763,614.583801 594.762329,608.184937 
	C594.762329,623.159668 594.762329,637.930542 594.762329,652.798462 
	C591.285339,654.260315 587.740540,655.683105 584.250366,657.229126 
	C560.247131,667.861816 548.030640,687.840881 542.168396,712.116211 
	C538.676453,726.576172 536.947021,741.461670 534.335876,756.676270 
	C521.969604,756.676270 508.390991,756.676270 494.361938,756.676270 
	C491.078674,745.783875 486.393890,735.291992 486.754242,722.948059 
	C487.546295,695.819458 486.999908,668.651733 486.999908,641.000000 
z"/>
<path fill="#FFCFB0" opacity="1.000000" stroke="none" 
	d="
M394.922821,1036.924927 
	C405.488312,1028.274658 415.696594,1019.748474 426.076630,1011.436707 
	C427.712250,1010.127014 430.124084,1009.102783 432.178955,1009.099365 
	C503.306702,1008.980408 574.434692,1008.993469 645.562561,1009.043945 
	C647.131226,1009.045044 648.993774,1009.269104 650.223389,1010.112244 
	C667.288269,1021.813904 684.266418,1033.642090 700.212646,1044.708496 
	C596.018433,1044.708496 490.054596,1044.708496 383.158936,1044.708496 
	C387.374146,1041.917969 390.998169,1039.518799 394.922821,1036.924927 
z"/>
<path fill="#FDCDAE" opacity="1.000000" stroke="none" 
	d="
M973.660889,920.935669 
	C1002.627930,894.819031 1024.645508,864.118164 1040.918457,827.552856 
	C1047.758301,852.987854 1045.768677,876.581177 1036.411011,899.536926 
	C1024.243042,929.386780 1002.996094,950.462769 973.421692,963.496582 
	C972.568726,950.504700 971.664612,938.103455 971.059631,925.687500 
	C970.988586,924.229004 972.563538,922.690308 973.660889,920.935669 
z"/>
<path fill="#FDCDAE" opacity="1.000000" stroke="none" 
	d="
M943.260620,781.261902 
	C940.772156,786.567810 938.479797,791.539490 936.091675,796.464783 
	C935.080872,798.549316 933.868713,800.536194 933.150757,801.837585 
	C919.699280,783.070190 906.117798,764.121460 892.629578,745.302795 
	C904.882446,738.992615 935.507324,736.785278 953.377930,742.250732 
	C952.033691,755.594177 948.312622,768.394043 943.260620,781.261902 
z"/>
</svg>