<svg version="1.1" id="Layer_1" xmlns="http://www.w3.org/2000/svg" xmlns:xlink="http://www.w3.org/1999/xlink" x="0px" y="0px"
	 width="100%" viewBox="0 0 1080 1080" enable-background="new 0 0 1080 1080" xml:space="preserve">
<path fill="#FFCFB0" opacity="1.000000" stroke="none" 
	d="
M1081.000000,290.000000 
	C1081.000000,553.625427 1081.000000,817.250916 1081.000000,1080.938232 
	C721.097473,1080.938232 361.194946,1080.938232 1.000000,1080.938232 
	C1.000000,817.638733 1.000000,554.277283 1.350117,290.497070 
	C5.074751,296.494690 9.022510,298.997192 15.090201,298.268311 
	C21.320425,297.519867 24.153797,293.499054 26.328297,287.812469 
	C31.951067,273.108246 36.862976,257.880066 44.530453,244.251724 
	C86.182518,170.218430 172.921875,133.712845 255.253967,154.658020 
	C257.779053,155.300400 260.557159,155.833786 263.072174,155.454849 
	C269.221069,154.528397 273.509033,149.327026 273.716614,143.334778 
	C273.930511,137.160400 269.553436,132.060928 262.228455,130.228668 
	C234.123016,123.198326 205.664124,120.847397 177.051346,125.920113 
	C94.181938,140.611908 37.216824,187.155792 6.721558,265.766418 
	C4.647504,271.112885 2.899593,276.585846 0.999999,282.000000 
	C1.000000,188.357071 1.000000,94.714142 1.000000,1.035608 
	C360.885010,1.035608 720.770020,1.035608 1081.000000,1.035608 
	C1081.000000,94.361084 1081.000000,187.722595 1080.662476,281.372375 
	C1068.773193,239.742096 1046.823608,204.259171 1013.839417,175.919250 
	C980.126648,146.953400 941.135315,129.719147 896.804504,124.738419 
	C870.502930,121.783348 844.596924,123.700546 819.128723,130.657089 
	C815.666809,131.602707 812.164124,134.512054 809.968445,137.468750 
	C806.932678,141.556747 807.824280,146.471130 810.880615,150.488647 
	C814.151245,154.787750 818.550964,156.703537 824.066467,155.268845 
	C846.679138,149.386795 869.606873,147.116119 892.869812,149.879440 
	C953.470398,157.077896 1000.378418,186.464874 1033.676514,237.501617 
	C1043.922607,253.206055 1051.023804,270.397919 1055.957764,288.479126 
	C1057.464600,294.000946 1060.872559,297.481384 1066.638184,298.238220 
	C1072.373169,298.991028 1076.647949,296.639221 1079.572021,291.691925 
	C1079.942261,291.065460 1080.518921,290.561005 1081.000000,290.000000 
M876.259888,763.826904 
	C888.157654,754.979980 893.065430,742.988647 893.054871,728.344055 
	C892.965271,603.857178 893.004395,479.370178 892.997192,354.883209 
	C892.997070,352.885132 892.969666,350.882416 892.837585,348.889648 
	C891.457825,328.065521 874.375488,312.001648 853.560303,312.000916 
	C645.248779,311.993347 436.937256,311.987946 228.625748,312.062408 
	C224.856888,312.063751 220.953278,312.596313 217.342514,313.660950 
	C199.299240,318.980927 189.001953,334.024567 189.000534,354.705627 
	C188.991974,479.192596 188.995804,603.679565 189.001404,728.166565 
	C189.001465,729.831726 189.041733,731.498718 189.125061,733.161743 
	C190.208801,754.793640 207.284103,770.999878 229.005203,771.001892 
	C284.666046,771.007080 340.326904,771.003601 395.987732,771.003601 
	C397.778320,771.003601 399.568909,771.003662 401.576019,771.003662 
	C401.576019,784.025085 401.546387,796.518250 401.585236,809.011169 
	C401.617584,819.421753 406.174011,823.978699 416.450958,824.000244 
	C419.192688,824.005981 421.934387,824.001099 424.970398,824.001099 
	C421.961243,836.749329 419.106934,848.841553 416.198639,861.162415 
	C400.880707,861.162415 385.897278,861.080078 370.915161,861.186096 
	C356.602905,861.287415 344.739655,871.788513 343.965454,886.075867 
	C343.200134,900.198730 343.487091,914.384949 343.514465,928.542908 
	C343.551086,947.464905 354.794189,958.512512 373.767670,958.512695 
	C482.256317,958.513611 590.744934,958.513184 699.233582,958.513062 
	C703.399841,958.513062 707.569275,958.618164 711.731689,958.491638 
	C725.638123,958.068909 737.320618,947.825500 738.005432,934.012512 
	C738.779846,918.394165 738.924927,902.680908 738.156372,887.067383 
	C737.376526,871.223572 725.565796,861.177307 709.592590,861.164673 
	C695.109741,861.153198 680.626892,861.162292 665.801453,861.162292 
	C662.881042,848.742493 660.015015,836.554077 657.062317,823.997253 
	C660.917114,823.997253 664.240723,824.062378 667.560974,823.983948 
	C674.861023,823.811707 679.804688,819.326538 680.386658,812.029785 
	C680.716980,807.888428 680.538696,803.704651 680.545776,799.539856 
	C680.561829,790.123657 680.550842,780.707458 680.550842,771.003662 
	C682.985291,771.003662 684.799622,771.003601 686.614014,771.003601 
	C741.941528,771.003601 797.269165,770.965881 852.596558,771.043823 
	C861.036682,771.055725 868.674744,768.894836 876.259888,763.826904 
M972.005554,264.529816 
	C981.268127,276.923737 987.802246,290.634857 991.985046,305.517487 
	C994.179504,313.325623 1000.680603,317.114532 1007.956360,315.067902 
	C1014.846252,313.129852 1018.833130,306.228973 1016.221191,298.908386 
	C1012.272156,287.840363 1008.554565,276.495514 1002.953979,266.243164 
	C971.182434,208.083023 903.536804,177.514755 836.611206,194.285767 
	C828.291565,196.370621 824.208435,202.564392 825.950378,210.082916 
	C827.627991,217.323944 834.298828,220.629837 842.754883,219.003464 
	C851.061646,217.405823 859.447937,215.450668 867.843262,215.214691 
	C910.504639,214.015442 945.079651,230.516861 972.005554,264.529816 
M68.604095,311.855560 
	C76.514809,318.122070 86.111183,316.070007 89.463921,307.352448 
	C90.116600,305.655426 90.499992,303.855652 91.023392,302.107971 
	C108.615311,243.366959 168.611115,206.225220 228.861664,216.798889 
	C232.785507,217.487503 236.679672,218.350250 240.578720,219.174225 
	C247.590912,220.656082 254.157974,217.056396 255.940704,210.721329 
	C257.952576,203.571976 254.374039,196.909821 246.962372,194.841019 
	C226.115723,189.022079 204.854614,187.738663 183.703903,191.978867 
	C123.553360,204.037689 84.134743,239.497864 65.826164,298.214661 
	C64.311058,303.073730 64.855553,307.371490 68.604095,311.855560 
M139.861633,295.393951 
	C136.709473,302.690247 133.145203,309.842682 130.533142,317.327454 
	C128.371384,323.521942 132.099426,329.815704 138.260620,332.166534 
	C144.328796,334.481873 150.915024,331.951691 153.898651,326.039764 
	C154.716385,324.419464 155.234970,322.639252 155.804779,320.904205 
	C160.736893,305.886536 170.440445,294.974304 184.498398,287.973999 
	C197.106659,281.695587 210.311554,281.190552 223.883148,284.289276 
	C230.484604,285.796509 236.742432,281.858490 238.618500,275.488373 
	C240.441910,269.297058 236.921661,262.475677 230.643707,260.166504 
	C229.245026,259.652069 227.768021,259.326324 226.305939,259.012024 
	C192.422424,251.728439 160.584473,264.955200 139.861633,295.393951 
M943.981506,298.551880 
	C938.477844,288.664856 931.234436,280.273499 922.142151,273.544098 
	C901.821350,258.504150 879.271057,253.732773 854.608521,259.267792 
	C852.234985,259.800507 849.776001,260.787415 847.826172,262.207916 
	C843.037903,265.696381 841.675964,272.111176 844.171875,277.453033 
	C846.642212,282.740234 852.272827,285.658142 858.228638,284.273224 
	C875.329041,280.296997 891.247986,282.553925 905.706726,292.881012 
	C916.393738,300.514160 923.248474,310.804382 927.064697,323.341583 
	C929.381409,330.952637 936.114197,334.606964 942.899658,332.505798 
	C950.020691,330.300720 953.598572,323.360565 951.034180,315.783356 
	C949.126465,310.146606 946.575989,304.727386 943.981506,298.551880 
z"/>
<path fill="#030202" opacity="1.000000" stroke="none" 
	d="
M1081.000000,289.555847 
	C1080.518921,290.561005 1079.942261,291.065460 1079.572021,291.691925 
	C1076.647949,296.639221 1072.373169,298.991028 1066.638184,298.238220 
	C1060.872559,297.481384 1057.464600,294.000946 1055.957764,288.479126 
	C1051.023804,270.397919 1043.922607,253.206055 1033.676514,237.501617 
	C1000.378418,186.464874 953.470398,157.077896 892.869812,149.879440 
	C869.606873,147.116119 846.679138,149.386795 824.066467,155.268845 
	C818.550964,156.703537 814.151245,154.787750 810.880615,150.488647 
	C807.824280,146.471130 806.932678,141.556747 809.968445,137.468750 
	C812.164124,134.512054 815.666809,131.602707 819.128723,130.657089 
	C844.596924,123.700546 870.502930,121.783348 896.804504,124.738419 
	C941.135315,129.719147 980.126648,146.953400 1013.839417,175.919250 
	C1046.823608,204.259171 1068.773193,239.742096 1080.662476,281.830322 
	C1081.000000,284.370575 1081.000000,286.741119 1081.000000,289.555847 
z"/>
<path fill="#030202" opacity="1.000000" stroke="none" 
	d="
M0.999999,282.444153 
	C2.899593,276.585846 4.647504,271.112885 6.721558,265.766418 
	C37.216824,187.155792 94.181938,140.611908 177.051346,125.920113 
	C205.664124,120.847397 234.123016,123.198326 262.228455,130.228668 
	C269.553436,132.060928 273.930511,137.160400 273.716614,143.334778 
	C273.509033,149.327026 269.221069,154.528397 263.072174,155.454849 
	C260.557159,155.833786 257.779053,155.300400 255.253967,154.658020 
	C172.921875,133.712845 86.182518,170.218430 44.530453,244.251724 
	C36.862976,257.880066 31.951067,273.108246 26.328297,287.812469 
	C24.153797,293.499054 21.320425,297.519867 15.090201,298.268311 
	C9.022510,298.997192 5.074751,296.494690 1.350117,290.039124 
	C1.000000,287.629425 1.000000,285.258881 0.999999,282.444153 
z"/>
<path fill="#020201" opacity="1.000000" stroke="none" 
	d="
M875.946655,764.007751 
	C868.674744,768.894836 861.036682,771.055725 852.596558,771.043823 
	C797.269165,770.965881 741.941528,771.003601 686.614014,771.003601 
	C684.799622,771.003601 682.985291,771.003662 680.550842,771.003662 
	C680.550842,780.707458 680.561829,790.123657 680.545776,799.539856 
	C680.538696,803.704651 680.716980,807.888428 680.386658,812.029785 
	C679.804688,819.326538 674.861023,823.811707 667.560974,823.983948 
	C664.240723,824.062378 660.917114,823.997253 657.062317,823.997253 
	C660.015015,836.554077 662.881042,848.742493 665.801453,861.162292 
	C680.626892,861.162292 695.109741,861.153198 709.592590,861.164673 
	C725.565796,861.177307 737.376526,871.223572 738.156372,887.067383 
	C738.924927,902.680908 738.779846,918.394165 738.005432,934.012512 
	C737.320618,947.825500 725.638123,958.068909 711.731689,958.491638 
	C707.569275,958.618164 703.399841,958.513062 699.233582,958.513062 
	C590.744934,958.513184 482.256317,958.513611 373.767670,958.512695 
	C354.794189,958.512512 343.551086,947.464905 343.514465,928.542908 
	C343.487091,914.384949 343.200134,900.198730 343.965454,886.075867 
	C344.739655,871.788513 356.602905,861.287415 370.915161,861.186096 
	C385.897278,861.080078 400.880707,861.162415 416.198639,861.162415 
	C419.106934,848.841553 421.961243,836.749329 424.970398,824.001099 
	C421.934387,824.001099 419.192688,824.005981 416.450958,824.000244 
	C406.174011,823.978699 401.617584,819.421753 401.585236,809.011169 
	C401.546387,796.518250 401.576019,784.025085 401.576019,771.003662 
	C399.568909,771.003662 397.778320,771.003601 395.987732,771.003601 
	C340.326904,771.003601 284.666046,771.007080 229.005203,771.001892 
	C207.284103,770.999878 190.208801,754.793640 189.125061,733.161743 
	C189.041733,731.498718 189.001465,729.831726 189.001404,728.166565 
	C188.995804,603.679565 188.991974,479.192596 189.000534,354.705627 
	C189.001953,334.024567 199.299240,318.980927 217.342514,313.660950 
	C220.953278,312.596313 224.856888,312.063751 228.625748,312.062408 
	C436.937256,311.987946 645.248779,311.993347 853.560303,312.000916 
	C874.375488,312.001648 891.457825,328.065521 892.837585,348.889648 
	C892.969666,350.882416 892.997070,352.885132 892.997192,354.883209 
	C893.004395,479.370178 892.965271,603.857178 893.054871,728.344055 
	C893.065430,742.988647 888.157654,754.979980 875.946655,764.007751 
M214.482315,660.499573 
	C214.482315,682.996643 214.481750,705.493652 214.482483,727.990723 
	C214.482910,740.884521 219.400757,745.851990 232.186356,745.847534 
	C360.002563,745.802979 487.818756,745.729309 615.634949,745.718933 
	C693.790771,745.712585 771.946533,745.804321 850.102356,745.846741 
	C862.384277,745.853394 867.516724,740.791626 867.516846,728.698914 
	C867.518250,603.881165 867.518311,479.063385 867.516846,354.245636 
	C867.516724,342.360077 862.364136,337.157501 850.565430,337.157349 
	C644.257812,337.154419 437.950226,337.154663 231.642609,337.156586 
	C219.536163,337.156708 214.482925,342.281250 214.482819,354.537537 
	C214.481888,456.191528 214.482346,557.845520 214.482315,660.499573 
M531.500061,886.838257 
	C479.347565,886.730225 427.194855,886.673401 375.043030,886.426331 
	C370.383392,886.404297 368.586761,887.517212 368.731842,892.508362 
	C369.075439,904.329468 368.948700,916.168945 368.780243,927.997620 
	C368.726837,931.747803 369.662170,933.250305 373.805084,933.246338 
	C485.284271,933.139893 596.763611,933.138733 708.242859,933.250366 
	C712.456055,933.254578 713.262817,931.641541 713.214905,927.961853 
	C713.060852,916.132751 712.921082,904.293335 713.269470,892.472473 
	C713.417175,887.461914 711.604431,886.346313 706.952637,886.422302 
	C687.131042,886.746155 667.303955,886.798096 647.478760,886.823792 
	C609.152588,886.873413 570.826355,886.838257 531.500061,886.838257 
M498.500000,861.016235 
	C545.354614,861.016235 592.209167,861.016235 639.731995,861.016235 
	C637.063965,849.754822 634.367981,839.486145 632.297485,829.092957 
	C631.460571,824.891418 629.720642,823.937866 625.672180,823.947632 
	C569.205933,824.083740 512.739258,824.039917 456.272675,824.039917 
	C454.626526,824.039917 452.980408,824.039917 450.982666,824.039917 
	C448.089294,836.397339 445.268799,848.443420 442.324951,861.016235 
	C461.235016,861.016235 479.367493,861.016235 498.500000,861.016235 
M627.499634,798.562561 
	C636.592590,798.562561 645.685547,798.562561 654.742676,798.562561 
	C654.742676,789.068115 654.742676,780.169434 654.742676,771.358337 
	C578.682373,771.358337 502.976959,771.358337 427.110718,771.358337 
	C427.110718,780.444397 427.110718,789.217285 427.110718,798.562561 
	C493.707458,798.562561 560.103516,798.562561 627.499634,798.562561 
z"/>
<path fill="#030202" opacity="1.000000" stroke="none" 
	d="
M971.798096,264.237732 
	C945.079651,230.516861 910.504639,214.015442 867.843262,215.214691 
	C859.447937,215.450668 851.061646,217.405823 842.754883,219.003464 
	C834.298828,220.629837 827.627991,217.323944 825.950378,210.082916 
	C824.208435,202.564392 828.291565,196.370621 836.611206,194.285767 
	C903.536804,177.514755 971.182434,208.083023 1002.953979,266.243164 
	C1008.554565,276.495514 1012.272156,287.840363 1016.221191,298.908386 
	C1018.833130,306.228973 1014.846252,313.129852 1007.956360,315.067902 
	C1000.680603,317.114532 994.179504,313.325623 991.985046,305.517487 
	C987.802246,290.634857 981.268127,276.923737 971.798096,264.237732 
z"/>
<path fill="#020202" opacity="1.000000" stroke="none" 
	d="
M68.352577,311.578918 
	C64.855553,307.371490 64.311058,303.073730 65.826164,298.214661 
	C84.134743,239.497864 123.553360,204.037689 183.703903,191.978867 
	C204.854614,187.738663 226.115723,189.022079 246.962372,194.841019 
	C254.374039,196.909821 257.952576,203.571976 255.940704,210.721329 
	C254.157974,217.056396 247.590912,220.656082 240.578720,219.174225 
	C236.679672,218.350250 232.785507,217.487503 228.861664,216.798889 
	C168.611115,206.225220 108.615311,243.366959 91.023392,302.107971 
	C90.499992,303.855652 90.116600,305.655426 89.463921,307.352448 
	C86.111183,316.070007 76.514809,318.122070 68.352577,311.578918 
z"/>
<path fill="#020202" opacity="1.000000" stroke="none" 
	d="
M140.040131,295.078064 
	C160.584473,264.955200 192.422424,251.728439 226.305939,259.012024 
	C227.768021,259.326324 229.245026,259.652069 230.643707,260.166504 
	C236.921661,262.475677 240.441910,269.297058 238.618500,275.488373 
	C236.742432,281.858490 230.484604,285.796509 223.883148,284.289276 
	C210.311554,281.190552 197.106659,281.695587 184.498398,287.973999 
	C170.440445,294.974304 160.736893,305.886536 155.804779,320.904205 
	C155.234970,322.639252 154.716385,324.419464 153.898651,326.039764 
	C150.915024,331.951691 144.328796,334.481873 138.260620,332.166534 
	C132.099426,329.815704 128.371384,323.521942 130.533142,317.327454 
	C133.145203,309.842682 136.709473,302.690247 140.040131,295.078064 
z"/>
<path fill="#020202" opacity="1.000000" stroke="none" 
	d="
M944.146606,298.881592 
	C946.575989,304.727386 949.126465,310.146606 951.034180,315.783356 
	C953.598572,323.360565 950.020691,330.300720 942.899658,332.505798 
	C936.114197,334.606964 929.381409,330.952637 927.064697,323.341583 
	C923.248474,310.804382 916.393738,300.514160 905.706726,292.881012 
	C891.247986,282.553925 875.329041,280.296997 858.228638,284.273224 
	C852.272827,285.658142 846.642212,282.740234 844.171875,277.453033 
	C841.675964,272.111176 843.037903,265.696381 847.826172,262.207916 
	C849.776001,260.787415 852.234985,259.800507 854.608521,259.267792 
	C879.271057,253.732773 901.821350,258.504150 922.142151,273.544098 
	C931.234436,280.273499 938.477844,288.664856 944.146606,298.881592 
z"/>
<path fill="#F8C9AB" opacity="1.000000" stroke="none" 
	d="
M214.482346,659.999512 
	C214.482346,557.845520 214.481888,456.191528 214.482819,354.537537 
	C214.482925,342.281250 219.536163,337.156708 231.642609,337.156586 
	C437.950226,337.154663 644.257812,337.154419 850.565430,337.157349 
	C862.364136,337.157501 867.516724,342.360077 867.516846,354.245636 
	C867.518311,479.063385 867.518250,603.881165 867.516846,728.698914 
	C867.516724,740.791626 862.384277,745.853394 850.102356,745.846741 
	C771.946533,745.804321 693.790771,745.712585 615.634949,745.718933 
	C487.818756,745.729309 360.002563,745.802979 232.186356,745.847534 
	C219.400757,745.851990 214.482910,740.884521 214.482483,727.990723 
	C214.481750,705.493652 214.482315,682.996643 214.482346,659.999512 
M761.500427,352.526062 
	C590.341858,352.526062 419.183258,352.571381 248.024811,352.431915 
	C235.590164,352.421783 229.666504,356.197083 229.700333,370.873413 
	C229.963959,485.200806 229.844788,599.529053 229.847992,713.857056 
	C229.848343,726.216858 233.996063,730.469482 246.263931,730.470398 
	C442.754730,730.484253 639.245544,730.484253 835.736328,730.470398 
	C848.004211,730.469482 852.152405,726.212769 852.152588,713.862000 
	C852.154602,599.034058 852.154297,484.206085 852.153076,369.378143 
	C852.152893,356.691406 848.059204,352.536560 835.497070,352.529846 
	C811.164856,352.516907 786.832703,352.526031 761.500427,352.526062 
z"/>
<path fill="#FFCFB0" opacity="1.000000" stroke="none" 
	d="
M532.000122,886.838257 
	C570.826355,886.838257 609.152588,886.873413 647.478760,886.823792 
	C667.303955,886.798096 687.131042,886.746155 706.952637,886.422302 
	C711.604431,886.346313 713.417175,887.461914 713.269470,892.472473 
	C712.921082,904.293335 713.060852,916.132751 713.214905,927.961853 
	C713.262817,931.641541 712.456055,933.254578 708.242859,933.250366 
	C596.763611,933.138733 485.284271,933.139893 373.805084,933.246338 
	C369.662170,933.250305 368.726837,931.747803 368.780243,927.997620 
	C368.948700,916.168945 369.075439,904.329468 368.731842,892.508362 
	C368.586761,887.517212 370.383392,886.404297 375.043030,886.426331 
	C427.194855,886.673401 479.347565,886.730225 532.000122,886.838257 
z"/>
<path fill="#FECEAF" opacity="1.000000" stroke="none" 
	d="
M498.000000,861.016235 
	C479.367493,861.016235 461.235016,861.016235 442.324951,861.016235 
	C445.268799,848.443420 448.089294,836.397339 450.982666,824.039917 
	C452.980408,824.039917 454.626526,824.039917 456.272675,824.039917 
	C512.739258,824.039917 569.205933,824.083740 625.672180,823.947632 
	C629.720642,823.937866 631.460571,824.891418 632.297485,829.092957 
	C634.367981,839.486145 637.063965,849.754822 639.731995,861.016235 
	C592.209167,861.016235 545.354614,861.016235 498.000000,861.016235 
z"/>
<path fill="#FACBAD" opacity="1.000000" stroke="none" 
	d="
M626.999634,798.562561 
	C560.103516,798.562561 493.707458,798.562561 427.110718,798.562561 
	C427.110718,789.217285 427.110718,780.444397 427.110718,771.358337 
	C502.976959,771.358337 578.682373,771.358337 654.742676,771.358337 
	C654.742676,780.169434 654.742676,789.068115 654.742676,798.562561 
	C645.685547,798.562561 636.592590,798.562561 626.999634,798.562561 
z"/>
<path fill="#020101" opacity="1.000000" stroke="none" 
	d="
M762.000488,352.526031 
	C786.832703,352.526031 811.164856,352.516907 835.497070,352.529846 
	C848.059204,352.536560 852.152893,356.691406 852.153076,369.378143 
	C852.154297,484.206085 852.154602,599.034058 852.152588,713.862000 
	C852.152405,726.212769 848.004211,730.469482 835.736328,730.470398 
	C639.245544,730.484253 442.754730,730.484253 246.263931,730.470398 
	C233.996063,730.469482 229.848343,726.216858 229.847992,713.857056 
	C229.844788,599.529053 229.963959,485.200806 229.700333,370.873413 
	C229.666504,356.197083 235.590164,352.421783 248.024811,352.431915 
	C419.183258,352.571381 590.341858,352.526062 762.000488,352.526031 
M255.002487,448.500000 
	C255.002487,533.918457 255.002487,619.336914 255.002487,704.707520 
	C445.976990,704.707520 636.360229,704.707520 826.702026,704.707520 
	C826.702026,595.693237 826.702026,486.969299 826.702026,378.292542 
	C636.023010,378.292542 445.639801,378.292542 255.002487,378.292542 
	C255.002487,401.554474 255.002487,424.527222 255.002487,448.500000 
z"/>
<path fill="#FFCFB0" opacity="1.000000" stroke="none" 
	d="
M255.002487,448.000000 
	C255.002487,424.527222 255.002487,401.554474 255.002487,378.292542 
	C445.639801,378.292542 636.023010,378.292542 826.702026,378.292542 
	C826.702026,486.969299 826.702026,595.693237 826.702026,704.707520 
	C636.360229,704.707520 445.976990,704.707520 255.002487,704.707520 
	C255.002487,619.336914 255.002487,533.918457 255.002487,448.000000 
M701.499878,641.671814 
	C721.990234,641.671509 742.480652,641.628235 762.970825,641.697144 
	C769.170654,641.717957 774.188538,639.751221 776.751221,633.806824 
	C780.562866,624.965393 773.999451,616.211914 763.548584,616.179810 
	C741.725647,616.112854 719.902466,616.159363 698.079346,616.159302 
	C696.330139,616.159302 694.580994,616.159363 692.799805,616.159363 
	C692.799805,595.440369 692.799805,575.481812 692.799805,555.008850 
	C694.735107,555.008850 696.523132,555.008789 698.311157,555.008789 
	C719.467896,555.008789 740.630554,554.712769 761.778992,555.131287 
	C772.673767,555.346863 777.436584,549.269348 777.746094,542.520935 
	C778.106384,534.665100 771.950989,529.828308 762.075439,529.826294 
	C740.918701,529.821960 719.761963,529.824951 698.605225,529.824951 
	C696.810852,529.824951 695.016541,529.824951 692.937378,529.824951 
	C692.937378,508.660400 692.937378,487.952759 692.937378,466.816071 
	C694.952576,466.816071 696.746582,466.816010 698.540588,466.816071 
	C720.030518,466.816803 741.520569,466.779968 763.010315,466.841797 
	C769.214111,466.859650 774.223633,464.856171 776.751892,458.896973 
	C780.521667,450.011444 774.027466,441.400970 763.455505,441.361084 
	C738.467590,441.266815 713.474182,441.625458 688.492676,441.213287 
	C674.278137,440.978760 666.712036,442.207336 666.940125,462.524506 
	C667.551453,516.990662 667.144409,571.468262 667.152161,625.941284 
	C667.153748,636.997070 671.841675,641.633972 683.008057,641.668335 
	C688.838623,641.686340 694.669250,641.671753 701.499878,641.671814 
M581.814270,580.227600 
	C581.065735,582.366699 580.317261,584.505737 579.274109,587.487000 
	C578.348572,584.895447 577.645630,583.073975 577.043579,581.219727 
	C563.295349,538.881592 549.588440,496.529999 535.749268,454.221619 
	C534.848328,451.467224 533.398132,448.606323 531.418701,446.550598 
	C527.346130,442.321167 521.234497,441.992737 516.262512,445.065094 
	C510.957031,448.343597 509.131226,454.295593 511.405548,461.292603 
	C520.237549,488.464294 529.120056,515.619568 537.948486,542.792419 
	C547.597473,572.490540 557.207397,602.201355 566.834351,631.906616 
	C568.817627,638.026245 573.388184,641.758240 579.044678,641.877258 
	C584.767029,641.997620 589.937073,637.960083 591.827515,631.848206 
	C592.415405,629.947449 592.836975,627.994080 593.451782,626.102905 
	C611.167664,571.605652 628.939209,517.126404 646.527161,462.587982 
	C647.598206,459.266754 648.033936,455.320709 647.353638,451.950317 
	C646.258423,446.524323 640.920349,443.078491 635.461243,443.067352 
	C629.606201,443.055389 625.166992,446.691101 622.984680,453.398865 
	C609.314575,495.416992 595.660461,537.440308 581.814270,580.227600 
M315.317657,641.443604 
	C338.305878,641.520935 361.294037,641.610779 384.282288,641.670349 
	C395.612640,641.699707 406.944275,641.773376 418.273132,641.639526 
	C427.098206,641.535217 432.742188,635.596863 432.027435,627.517883 
	C431.422485,620.679993 425.727417,616.176025 417.480896,616.167725 
	C390.154663,616.140076 362.828369,616.156677 335.502106,616.156372 
	C333.723846,616.156311 331.945587,616.156372 329.720856,616.156372 
	C329.720856,613.819885 329.720856,612.027283 329.720856,610.234741 
	C329.720856,577.909790 329.721069,545.584778 329.720764,513.259827 
	C329.720581,494.764618 329.682251,476.269287 329.740448,457.774261 
	C329.759338,451.776306 327.796661,446.911407 322.175171,444.256256 
	C313.347260,440.086609 304.200684,446.756104 304.172791,457.420502 
	C304.103912,483.746826 304.148712,510.073456 304.148499,536.399963 
	C304.148254,566.558838 304.131500,596.717712 304.160126,626.876587 
	C304.167847,635.002747 307.173004,639.091125 315.317657,641.443604 
M458.847321,634.142090 
	C462.810822,640.556458 467.519379,642.743042 473.773376,641.073486 
	C479.315979,639.593689 482.968567,634.768494 482.973206,628.347412 
	C483.014587,570.914429 483.037445,513.481323 482.872742,456.048859 
	C482.864807,453.288330 481.579254,450.161804 479.962769,447.854279 
	C476.825043,443.375183 471.241119,442.098053 466.121216,443.917084 
	C460.814423,445.802551 457.786682,450.020050 457.782471,456.191650 
	C457.743286,513.624573 457.755219,571.057495 457.793854,628.490417 
	C457.794952,630.125000 458.257599,631.759338 458.847321,634.142090 
z"/>
<path fill="#050403" opacity="1.000000" stroke="none" 
	d="
M700.999878,641.671814 
	C694.669250,641.671753 688.838623,641.686340 683.008057,641.668335 
	C671.841675,641.633972 667.153748,636.997070 667.152161,625.941284 
	C667.144409,571.468262 667.551453,516.990662 666.940125,462.524506 
	C666.712036,442.207336 674.278137,440.978760 688.492676,441.213287 
	C713.474182,441.625458 738.467590,441.266815 763.455505,441.361084 
	C774.027466,441.400970 780.521667,450.011444 776.751892,458.896973 
	C774.223633,464.856171 769.214111,466.859650 763.010315,466.841797 
	C741.520569,466.779968 720.030518,466.816803 698.540588,466.816071 
	C696.746582,466.816010 694.952576,466.816071 692.937378,466.816071 
	C692.937378,487.952759 692.937378,508.660400 692.937378,529.824951 
	C695.016541,529.824951 696.810852,529.824951 698.605225,529.824951 
	C719.761963,529.824951 740.918701,529.821960 762.075439,529.826294 
	C771.950989,529.828308 778.106384,534.665100 777.746094,542.520935 
	C777.436584,549.269348 772.673767,555.346863 761.778992,555.131287 
	C740.630554,554.712769 719.467896,555.008789 698.311157,555.008789 
	C696.523132,555.008789 694.735107,555.008850 692.799805,555.008850 
	C692.799805,575.481812 692.799805,595.440369 692.799805,616.159363 
	C694.580994,616.159363 696.330139,616.159302 698.079346,616.159302 
	C719.902466,616.159363 741.725647,616.112854 763.548584,616.179810 
	C773.999451,616.211914 780.562866,624.965393 776.751221,633.806824 
	C774.188538,639.751221 769.170654,641.717957 762.970825,641.697144 
	C742.480652,641.628235 721.990234,641.671509 700.999878,641.671814 
z"/>
<path fill="#030202" opacity="1.000000" stroke="none" 
	d="
M581.907715,579.844727 
	C595.660461,537.440308 609.314575,495.416992 622.984680,453.398865 
	C625.166992,446.691101 629.606201,443.055389 635.461243,443.067352 
	C640.920349,443.078491 646.258423,446.524323 647.353638,451.950317 
	C648.033936,455.320709 647.598206,459.266754 646.527161,462.587982 
	C628.939209,517.126404 611.167664,571.605652 593.451782,626.102905 
	C592.836975,627.994080 592.415405,629.947449 591.827515,631.848206 
	C589.937073,637.960083 584.767029,641.997620 579.044678,641.877258 
	C573.388184,641.758240 568.817627,638.026245 566.834351,631.906616 
	C557.207397,602.201355 547.597473,572.490540 537.948486,542.792419 
	C529.120056,515.619568 520.237549,488.464294 511.405548,461.292603 
	C509.131226,454.295593 510.957031,448.343597 516.262512,445.065094 
	C521.234497,441.992737 527.346130,442.321167 531.418701,446.550598 
	C533.398132,448.606323 534.848328,451.467224 535.749268,454.221619 
	C549.588440,496.529999 563.295349,538.881592 577.043579,581.219727 
	C577.645630,583.073975 578.348572,584.895447 579.274109,587.487000 
	C580.317261,584.505737 581.065735,582.366699 581.907715,579.844727 
z"/>
<path fill="#060504" opacity="1.000000" stroke="none" 
	d="
M314.907471,641.351929 
	C307.173004,639.091125 304.167847,635.002747 304.160126,626.876587 
	C304.131500,596.717712 304.148254,566.558838 304.148499,536.399963 
	C304.148712,510.073456 304.103912,483.746826 304.172791,457.420502 
	C304.200684,446.756104 313.347260,440.086609 322.175171,444.256256 
	C327.796661,446.911407 329.759338,451.776306 329.740448,457.774261 
	C329.682251,476.269287 329.720581,494.764618 329.720764,513.259827 
	C329.721069,545.584778 329.720856,577.909790 329.720856,610.234741 
	C329.720856,612.027283 329.720856,613.819885 329.720856,616.156372 
	C331.945587,616.156372 333.723846,616.156311 335.502106,616.156372 
	C362.828369,616.156677 390.154663,616.140076 417.480896,616.167725 
	C425.727417,616.176025 431.422485,620.679993 432.027435,627.517883 
	C432.742188,635.596863 427.098206,641.535217 418.273132,641.639526 
	C406.944275,641.773376 395.612640,641.699707 384.282288,641.670349 
	C361.294037,641.610779 338.305878,641.520935 314.907471,641.351929 
z"/>
<path fill="#010100" opacity="1.000000" stroke="none" 
	d="
M458.676147,633.767944 
	C458.257599,631.759338 457.794952,630.125000 457.793854,628.490417 
	C457.755219,571.057495 457.743286,513.624573 457.782471,456.191650 
	C457.786682,450.020050 460.814423,445.802551 466.121216,443.917084 
	C471.241119,442.098053 476.825043,443.375183 479.962769,447.854279 
	C481.579254,450.161804 482.864807,453.288330 482.872742,456.048859 
	C483.037445,513.481323 483.014587,570.914429 482.973206,628.347412 
	C482.968567,634.768494 479.315979,639.593689 473.773376,641.073486 
	C467.519379,642.743042 462.810822,640.556458 458.676147,633.767944 
z"/>
</svg>