<svg version="1.1" id="Layer_1" xmlns="http://www.w3.org/2000/svg" xmlns:xlink="http://www.w3.org/1999/xlink" x="0px" y="0px"
	 width="100%" viewBox="0 0 1024 1024" enable-background="new 0 0 1024 1024" xml:space="preserve">
<path fill="#000000" opacity="1.000000" stroke="none" 
	d="
M1.000000,487.468628 
	C2.893608,484.291107 2.738114,480.966095 3.642714,477.959717 
	C8.555915,461.630981 20.053055,449.873383 31.476175,438.252167 
	C61.209255,408.003357 94.176819,381.449554 127.728271,355.635040 
	C186.810577,310.177124 248.276840,268.193268 312.345734,230.059769 
	C323.938080,223.160080 335.737061,216.602585 347.530151,210.048172 
	C351.077515,208.076614 353.289886,205.838593 354.090759,201.467606 
	C360.007874,169.173203 367.800507,137.338058 379.768341,106.696518 
	C386.999847,88.181534 395.759186,70.473602 409.054443,55.296463 
	C423.103149,39.259197 440.956604,31.911621 461.833649,30.736822 
	C491.655884,29.058655 521.354248,30.884607 551.044312,33.530869 
	C612.554749,39.013264 673.561035,47.870659 734.219421,59.478828 
	C793.955444,70.910484 853.075500,84.668755 910.850891,103.768867 
	C936.801025,112.347794 962.234314,122.313553 986.273376,135.523148 
	C997.125977,141.486755 1007.317932,148.355545 1016.337585,156.880310 
	C1019.623840,159.986237 1022.514099,163.417923 1024.782959,167.745178 
	C1025.000000,173.354935 1025.000000,178.709854 1025.000000,184.532394 
	C1023.214844,193.318237 1023.189941,201.831497 1022.438965,210.248199 
	C1020.324097,233.952026 1017.871887,257.618713 1014.929504,281.226532 
	C1010.424500,317.371582 1004.763489,353.353577 998.290100,389.195312 
	C989.592651,437.351654 978.924438,485.057831 965.159546,532.055359 
	C953.436279,572.082458 939.357910,611.181519 920.847046,648.617188 
	C905.055664,680.552856 884.454468,708.965088 859.527283,734.436768 
	C837.604004,756.838989 815.250610,778.723816 790.778076,798.351318 
	C788.273193,800.360291 787.883240,803.057861 787.340820,805.814392 
	C781.036804,837.847473 771.448364,868.756348 755.559448,897.448364 
	C725.613037,951.525635 679.869324,982.965881 618.886414,992.345886 
	C572.193237,999.527954 525.948914,995.559204 480.061218,985.928223 
	C401.764191,969.494995 330.634857,937.006470 266.425629,889.357605 
	C236.247772,866.962891 210.550644,840.139038 187.457123,810.515747 
	C159.598221,774.779724 130.889801,739.702942 103.878922,703.307007 
	C77.454628,667.701599 51.943039,631.467590 30.802124,592.388306 
	C17.202522,567.249329 5.602116,541.310791 1.146080,512.351685 
	C1.000000,503.979095 1.000000,495.958191 1.000000,487.468628 
M738.870972,545.574890 
	C736.904053,540.801147 735.005310,535.997925 732.959778,531.258118 
	C708.575684,474.755890 677.409302,421.991760 643.697571,370.702240 
	C602.569275,308.129150 557.816223,248.213150 510.248596,190.371948 
	C505.000458,183.990311 499.861023,182.378540 492.237671,183.837921 
	C475.296661,187.081070 459.019897,192.410126 443.209778,199.063095 
	C396.898407,218.551086 352.726410,242.215012 309.987823,268.559265 
	C233.587341,315.652954 159.907928,366.591644 91.441673,424.772766 
	C73.671341,439.873596 56.409492,455.572998 41.824310,473.965637 
	C33.751415,484.145996 31.205513,495.469482 32.835499,508.174927 
	C35.226185,526.809998 42.436691,543.802124 50.513313,560.433594 
	C68.264153,596.986328 90.910500,630.559143 114.452209,663.529602 
	C144.771317,705.992004 177.335083,746.731628 210.012817,787.384033 
	C224.530029,805.444031 238.841568,823.629822 256.170715,839.188232 
	C303.826202,881.974121 358.600952,912.751221 418.444916,934.672241 
	C474.490967,955.202026 532.206909,966.253723 592.223877,962.758972 
	C609.089417,961.776917 625.691895,959.404053 641.764893,954.134705 
	C686.809753,939.367249 716.661316,908.160583 735.713562,865.867493 
	C746.966675,840.887329 754.519592,814.777222 758.122498,787.439575 
	C760.774719,767.315247 763.568909,747.202454 764.504333,726.954712 
	C765.440796,706.683167 766.484375,686.382812 765.148254,666.034607 
	C764.276672,652.761169 764.240967,639.455688 762.241394,626.241089 
	C758.052795,598.559448 749.440491,572.195984 738.870972,545.574890 
M558.481384,65.195129 
	C528.127319,62.615562 497.807129,60.044495 467.255859,62.151169 
	C450.562683,63.302250 436.912933,68.945030 427.572601,83.347198 
	C424.218750,88.518600 420.776794,93.615646 418.040924,99.167938 
	C405.961792,123.681870 398.407074,149.704269 392.316040,176.207657 
	C391.495544,179.777786 389.870789,183.293167 390.392517,187.710968 
	C410.161163,177.507080 430.173889,169.318924 450.529327,161.961594 
	C468.627197,155.420258 487.129639,150.823807 506.534973,150.664780 
	C514.827820,150.596832 521.546204,153.085464 526.929077,159.971497 
	C537.697449,173.746841 549.183472,186.958725 560.083679,200.634018 
	C606.431702,258.781891 650.117981,318.838959 689.454224,381.990295 
	C719.792603,430.696075 747.544556,480.751862 768.932922,534.143982 
	C785.881775,576.453552 797.750977,619.845337 798.019287,665.836182 
	C798.155334,689.153381 798.267395,712.463135 796.395264,735.732788 
	C795.974854,740.957581 795.758972,746.198730 795.390076,752.425720 
	C797.758911,750.262268 799.477478,748.770752 801.109314,747.189636 
	C811.633423,736.992859 822.069641,726.711365 832.431702,716.345398 
	C858.003662,690.763977 878.954651,662.058289 894.665894,629.427795 
	C911.774231,593.895813 924.843689,556.884521 935.593811,519.044067 
	C947.054688,478.702148 956.411804,437.860413 964.017700,396.590240 
	C970.347229,362.244995 976.092529,327.823181 980.630249,293.204041 
	C983.243103,273.270020 985.567261,253.295410 987.773499,233.311707 
	C989.615356,216.627747 991.051758,199.899338 992.773376,183.201523 
	C993.139648,179.649445 991.811523,177.311905 989.083862,175.110275 
	C978.227173,166.346924 966.086426,159.806168 953.474121,154.055450 
	C905.500366,132.181320 854.800049,118.765320 803.818054,106.415817 
	C753.347839,94.190292 702.325256,84.629387 651.013367,76.624786 
	C620.592163,71.879112 590.056580,68.081108 558.481384,65.195129 
z"/>
<path fill="#000000" opacity="1.000000" stroke="none" 
	d="
M597.526672,800.529907 
	C576.395264,821.451355 550.735718,831.690247 522.032288,835.412109 
	C503.818756,837.773804 485.530914,838.250671 467.199615,838.132996 
	C452.901520,838.041260 446.813232,830.735107 448.456512,816.476807 
	C451.385529,791.062500 459.609467,767.502319 473.072998,745.888794 
	C499.580658,703.335022 538.063904,678.178345 587.075378,668.811279 
	C604.894836,665.405579 622.840576,665.912781 640.749146,668.021362 
	C649.809326,669.088196 656.177246,677.727356 654.941406,686.633423 
	C650.204956,720.766113 638.312866,751.960999 617.011963,779.328125 
	C611.163208,786.842529 604.632141,793.703247 597.526672,800.529907 
M597.289673,751.814941 
	C607.317505,737.066711 614.258972,720.944153 618.808838,703.737183 
	C620.134705,698.722778 619.946350,698.267151 614.635010,698.371338 
	C601.076538,698.637146 587.776489,700.711792 574.894348,704.943848 
	C527.066895,720.656372 497.365631,753.478149 483.914886,801.604553 
	C482.871338,805.338318 484.469025,806.011353 487.630981,805.820496 
	C494.441406,805.409729 501.273376,805.284241 508.068939,804.713379 
	C523.909119,803.382568 539.383789,800.446045 553.709473,793.131714 
	C572.055908,783.764587 585.056946,768.701660 597.289673,751.814941 
z"/>
<path fill="#000000" opacity="1.000000" stroke="none" 
	d="
M498.125305,519.312866 
	C488.178802,521.665039 478.669647,524.154358 469.053406,526.119873 
	C458.136566,528.351318 449.878418,522.019592 448.751434,511.030243 
	C441.991699,445.114685 487.322662,386.885895 553.102051,377.024872 
	C556.225525,376.556641 559.379517,376.232574 562.531433,376.025757 
	C571.428040,375.441864 579.393127,382.164032 580.014404,391.645538 
	C582.615112,431.339478 571.650940,466.466888 543.448669,495.217896 
	C531.108582,507.798096 515.042114,514.109558 498.125305,519.312866 
M544.049072,432.611847 
	C545.708984,425.814911 548.067627,419.109741 547.489990,411.790894 
	C513.526978,418.023865 482.005310,452.802063 481.211792,490.431122 
	C493.628540,487.421478 505.737518,483.896057 516.094727,476.245148 
	C530.673828,465.475403 538.275513,450.063873 544.049072,432.611847 
z"/>
<path fill="#000000" opacity="1.000000" stroke="none" 
	d="
M354.916809,569.879639 
	C358.792908,571.538452 362.378387,572.912048 365.791046,574.629150 
	C374.719910,579.121887 377.678253,587.322266 373.455292,596.389099 
	C364.013702,616.660645 350.631165,633.862427 332.754059,647.403870 
	C316.734314,659.538391 299.388245,668.772888 278.979462,670.846619 
	C263.334045,672.436340 248.129089,669.649414 233.104889,665.711060 
	C225.706604,663.771790 218.388397,661.492493 211.115463,659.117493 
	C200.355545,655.603821 195.969727,646.635010 200.678543,636.238586 
	C219.056000,595.663940 249.992767,571.011841 294.214966,563.644043 
	C314.863861,560.203857 334.954132,562.601868 354.916809,569.879639 
M243.467529,635.246094 
	C261.054474,639.501953 278.348267,641.462830 295.562958,632.891724 
	C312.021881,624.696960 325.285736,613.322876 335.801971,598.133179 
	C307.155609,584.877075 251.136078,605.733215 239.249634,633.424500 
	C240.049988,634.764282 241.542114,634.599670 243.467529,635.246094 
z"/>
<path fill="#000000" opacity="1.000000" stroke="none" 
	d="
M789.149658,331.867828 
	C828.169495,322.432526 863.084534,330.594849 894.744019,354.068298 
	C896.479919,355.355377 898.156738,356.747620 899.718018,358.240509 
	C906.643799,364.863281 907.497925,373.842102 901.291138,381.060791 
	C876.105103,410.352936 844.483398,427.513794 805.651978,429.724976 
	C789.911560,430.621246 775.102112,425.605652 760.963257,418.778687 
	C749.531189,413.258667 738.767395,406.602051 728.101196,399.777466 
	C718.514526,393.643494 716.713501,383.394318 723.829956,374.479462 
	C740.798706,353.222504 762.516724,339.123657 789.149658,331.867828 
M832.379395,391.867462 
	C844.204956,387.635193 854.725830,381.302826 864.146179,372.811249 
	C838.903381,352.649658 776.361023,358.719849 761.551147,382.658142 
	C769.923218,387.830109 778.577332,392.316315 788.131287,394.906219 
	C795.226440,396.829559 802.364685,398.572815 809.796997,397.342346 
	C817.194946,396.117554 824.524902,394.564178 832.379395,391.867462 
z"/>
</svg>