<svg version="1.1" id="Layer_1" xmlns="http://www.w3.org/2000/svg" xmlns:xlink="http://www.w3.org/1999/xlink" x="0px" y="0px"
	 width="100%" viewBox="0 0 1080 1080" enable-background="new 0 0 1080 1080" xml:space="preserve">
<path fill="#FFCFB0" opacity="1.000000" stroke="none" 
	d="
M0.999999,956.000000 
	C1.000000,637.711792 1.000000,319.423615 1.000000,1.067709 
	C360.903809,1.067709 720.807617,1.067709 1081.000000,1.067709 
	C1081.000000,279.697510 1081.000000,558.395142 1080.659668,837.400635 
	C1079.759155,835.972656 1079.254150,834.216614 1078.630981,832.503601 
	C1038.035400,720.912354 997.416626,609.329529 956.895325,497.711334 
	C955.738464,494.524780 955.080566,490.965515 955.077881,487.579285 
	C954.985718,372.426910 955.002625,257.274506 954.999756,142.122086 
	C954.999390,127.169235 948.333618,120.501808 933.387329,120.499687 
	C896.891846,120.494484 860.396179,120.449524 823.901184,120.577873 
	C820.505920,120.589806 819.027466,119.581375 817.862183,116.347763 
	C807.105835,86.499992 796.149170,56.724392 785.242737,26.930750 
	C780.445679,13.826491 771.650940,9.773462 758.529846,14.549532 
	C663.315857,49.207283 568.106140,83.876732 472.855042,118.432053 
	C469.349640,119.703751 465.432281,120.400536 461.704010,120.411789 
	C417.376587,120.545532 373.048584,120.495415 328.720734,120.499397 
	C313.677612,120.500748 307.005402,127.105469 306.999451,141.983307 
	C306.995300,152.315353 306.737610,162.657059 307.118774,172.975021 
	C307.286438,177.513367 305.960388,179.501770 301.573059,181.068665 
	C264.190704,194.419388 226.911133,208.058136 189.611084,221.638931 
	C175.658218,226.719131 171.623581,235.434952 176.702332,249.383911 
	C219.714813,367.518829 262.738495,485.649689 305.695404,603.804810 
	C306.524048,606.084045 306.940674,608.642944 306.945129,611.072510 
	C307.020020,651.900635 306.948456,692.729126 307.092041,733.556946 
	C307.103790,736.890930 305.998596,738.522888 303.223328,740.109253 
	C276.519684,755.372742 249.896057,770.776306 223.255157,786.149536 
	C164.790878,819.886597 106.348183,853.661011 47.857639,887.352417 
	C27.557507,899.045532 13.179949,915.622009 5.754676,937.927551 
	C3.791269,943.825684 2.564834,949.969177 0.999999,956.000000 
z"/>
<path fill="#010101" opacity="1.000000" stroke="none" 
	d="
M0.999999,956.468506 
	C2.564834,949.969177 3.791269,943.825684 5.754676,937.927551 
	C13.179949,915.622009 27.557507,899.045532 47.857639,887.352417 
	C106.348183,853.661011 164.790878,819.886597 223.255157,786.149536 
	C249.896057,770.776306 276.519684,755.372742 303.223328,740.109253 
	C305.998596,738.522888 307.103790,736.890930 307.092041,733.556946 
	C306.948456,692.729126 307.020020,651.900635 306.945129,611.072510 
	C306.940674,608.642944 306.524048,606.084045 305.695404,603.804810 
	C262.738495,485.649689 219.714813,367.518829 176.702332,249.383911 
	C171.623581,235.434952 175.658218,226.719131 189.611084,221.638931 
	C226.911133,208.058136 264.190704,194.419388 301.573059,181.068665 
	C305.960388,179.501770 307.286438,177.513367 307.118774,172.975021 
	C306.737610,162.657059 306.995300,152.315353 306.999451,141.983307 
	C307.005402,127.105469 313.677612,120.500748 328.720734,120.499397 
	C373.048584,120.495415 417.376587,120.545532 461.704010,120.411789 
	C465.432281,120.400536 469.349640,119.703751 472.855042,118.432053 
	C568.106140,83.876732 663.315857,49.207283 758.529846,14.549532 
	C771.650940,9.773462 780.445679,13.826491 785.242737,26.930750 
	C796.149170,56.724392 807.105835,86.499992 817.862183,116.347763 
	C819.027466,119.581375 820.505920,120.589806 823.901184,120.577873 
	C860.396179,120.449524 896.891846,120.494484 933.387329,120.499687 
	C948.333618,120.501808 954.999390,127.169235 954.999756,142.122086 
	C955.002625,257.274506 954.985718,372.426910 955.077881,487.579285 
	C955.080566,490.965515 955.738464,494.524780 956.895325,497.711334 
	C997.416626,609.329529 1038.035400,720.912354 1078.630981,832.503601 
	C1079.254150,834.216614 1079.759155,835.972656 1080.659668,837.854248 
	C1081.000000,840.700012 1081.000000,843.400024 1080.654785,846.642822 
	C1078.192871,854.226685 1073.036499,857.930908 1066.414185,860.320557 
	C1030.792603,873.174744 995.224487,886.177490 959.578308,898.962891 
	C956.053040,900.227295 954.857178,901.841858 954.899170,905.646912 
	C955.118103,925.475891 954.975830,945.308533 955.013550,965.139832 
	C955.028564,973.029053 951.841248,979.266846 944.669006,982.463440 
	C941.036682,984.082275 936.595642,984.421631 932.518738,984.428406 
	C865.025696,984.540894 797.532471,984.488708 730.039307,984.572266 
	C726.951843,984.576111 723.693115,985.034851 720.803894,986.081665 
	C646.167542,1013.122620 571.566589,1040.261475 496.968140,1067.407227 
	C483.623077,1072.263428 474.743774,1068.180176 469.903625,1054.843750 
	C461.918640,1032.842041 453.831146,1010.876526 446.036926,988.807495 
	C444.795258,985.291748 443.061096,984.422485 439.578033,984.435791 
	C407.415070,984.559021 375.251465,984.518005 343.088043,984.500305 
	C336.925476,984.496887 330.740692,984.697693 324.605347,984.257690 
	C313.608917,983.469177 307.114624,976.278931 307.009644,965.262390 
	C306.949921,958.993286 306.998840,952.723145 306.998840,945.835999 
	C305.040710,946.921692 303.626282,947.678589 302.237488,948.479919 
	C247.805817,979.886841 193.349701,1011.251465 138.963196,1042.736450 
	C122.893654,1052.039307 105.878029,1057.013062 87.157211,1056.218506 
	C47.691387,1054.543335 13.673773,1027.172485 3.897064,988.879517 
	C2.888839,984.930542 1.963689,980.960327 0.999997,977.000000 
	C1.000000,970.312378 1.000000,963.624695 0.999999,956.468506 
M572.589111,646.001160 
	C582.045410,643.746643 590.502625,644.764343 596.502930,653.641907 
	C598.475830,652.533691 600.217712,651.570435 601.945374,650.582153 
	C610.892578,645.463989 619.700562,640.080200 628.828064,635.307129 
	C635.046997,632.055054 641.498535,632.788696 647.206543,636.980713 
	C652.924500,641.179993 655.198669,646.997864 654.251465,654.042969 
	C653.379395,660.528503 649.556091,664.837097 644.069580,667.984985 
	C634.295837,673.592773 624.557556,679.262451 614.580444,685.035889 
	C618.389709,693.267700 617.066711,700.346252 611.524780,707.056946 
	C580.028870,745.195251 548.678345,783.453552 517.166138,821.578369 
	C514.781311,824.463623 511.832275,827.149231 508.623413,829.043091 
	C489.439789,840.364624 470.104828,851.429749 450.817139,862.574890 
	C416.123047,882.622253 381.416077,902.647522 346.766022,922.770691 
	C345.249725,923.651367 343.244995,925.362183 343.171692,926.774597 
	C342.803741,933.868835 343.002991,940.992432 343.002991,948.237549 
	C535.237549,948.237549 726.979309,948.237549 918.690063,948.237549 
	C918.690063,684.256958 918.690063,420.546265 918.690063,156.831421 
	C726.660767,156.831421 534.942261,156.831421 343.225098,156.831421 
	C343.225098,343.561584 343.225098,529.959351 343.225098,716.900330 
	C344.580353,716.151428 345.572662,715.623047 346.546295,715.062195 
	C370.465607,701.285034 394.363678,687.470886 418.327179,673.771118 
	C421.028320,672.226929 423.996002,670.773621 427.012634,670.222107 
	C439.444427,667.949585 451.946930,666.066345 464.415833,663.994080 
	C500.185883,658.049316 535.952209,652.082275 572.589111,646.001160 
M389.072998,800.512085 
	C385.838776,789.759827 376.655975,784.159851 366.532959,787.209167 
	C363.096008,788.244507 359.927246,790.296387 356.770538,792.117188 
	C287.520477,832.059570 218.288757,872.033752 149.059021,912.011414 
	C147.539474,912.888794 146.084045,913.877319 144.386932,914.947571 
	C150.479858,925.545166 156.342728,935.742554 162.284760,946.077698 
	C187.033875,931.797974 211.495483,917.682739 235.958527,903.569946 
	C283.330200,876.241028 330.684174,848.881409 378.092804,821.616821 
	C386.057617,817.036377 390.606567,810.866821 389.072998,800.512085 
M119.938263,944.572510 
	C111.725395,930.376343 103.512520,916.180237 94.979973,901.431519 
	C82.455582,908.984680 69.661240,915.499329 58.216221,923.860840 
	C36.517902,939.713196 30.917749,969.496582 44.065643,993.155029 
	C56.763924,1016.004395 85.414452,1026.936646 109.853279,1016.752502 
	C123.504776,1011.063782 136.064636,1002.755432 149.314041,995.519592 
	C139.343231,978.271667 129.795181,961.755005 119.938263,944.572510 
M544.446411,687.013184 
	C515.702148,691.810059 486.957855,696.606934 457.665802,701.495239 
	C473.154480,728.294067 488.296265,754.492676 503.731812,781.199585 
	C528.376221,751.291077 552.588684,721.906799 576.892578,692.411560 
	C576.115967,690.909607 575.199524,689.511841 574.638733,687.983521 
	C572.874573,683.175537 569.783203,682.367676 564.959229,683.560791 
	C558.526001,685.151917 551.873474,685.856567 544.446411,687.013184 
z"/>
<path fill="#FFCFB0" opacity="1.000000" stroke="none" 
	d="
M0.999997,977.468628 
	C1.963689,980.960327 2.888839,984.930542 3.897064,988.879517 
	C13.673773,1027.172485 47.691387,1054.543335 87.157211,1056.218506 
	C105.878029,1057.013062 122.893654,1052.039307 138.963196,1042.736450 
	C193.349701,1011.251465 247.805817,979.886841 302.237488,948.479919 
	C303.626282,947.678589 305.040710,946.921692 306.998840,945.835999 
	C306.998840,952.723145 306.949921,958.993286 307.009644,965.262390 
	C307.114624,976.278931 313.608917,983.469177 324.605347,984.257690 
	C330.740692,984.697693 336.925476,984.496887 343.088043,984.500305 
	C375.251465,984.518005 407.415070,984.559021 439.578033,984.435791 
	C443.061096,984.422485 444.795258,985.291748 446.036926,988.807495 
	C453.831146,1010.876526 461.918640,1032.842041 469.903625,1054.843750 
	C474.743774,1068.180176 483.623077,1072.263428 496.968140,1067.407227 
	C571.566589,1040.261475 646.167542,1013.122620 720.803894,986.081665 
	C723.693115,985.034851 726.951843,984.576111 730.039307,984.572266 
	C797.532471,984.488708 865.025696,984.540894 932.518738,984.428406 
	C936.595642,984.421631 941.036682,984.082275 944.669006,982.463440 
	C951.841248,979.266846 955.028564,973.029053 955.013550,965.139832 
	C954.975830,945.308533 955.118103,925.475891 954.899170,905.646912 
	C954.857178,901.841858 956.053040,900.227295 959.578308,898.962891 
	C995.224487,886.177490 1030.792603,873.174744 1066.414185,860.320557 
	C1073.036499,857.930908 1078.192871,854.226685 1080.654785,847.092773 
	C1081.000000,924.975952 1081.000000,1002.951904 1081.000000,1080.952759 
	C721.000000,1080.952759 361.000000,1080.952759 1.000000,1080.952759 
	C1.000000,1046.582764 1.000000,1012.260071 0.999997,977.468628 
z"/>
<path fill="#FECEAF" opacity="1.000000" stroke="none" 
	d="
M572.154541,646.062561 
	C535.952209,652.082275 500.185883,658.049316 464.415833,663.994080 
	C451.946930,666.066345 439.444427,667.949585 427.012634,670.222107 
	C423.996002,670.773621 421.028320,672.226929 418.327179,673.771118 
	C394.363678,687.470886 370.465607,701.285034 346.546295,715.062195 
	C345.572662,715.623047 344.580353,716.151428 343.225098,716.900330 
	C343.225098,529.959351 343.225098,343.561584 343.225098,156.831421 
	C534.942261,156.831421 726.660767,156.831421 918.690063,156.831421 
	C918.690063,420.546265 918.690063,684.256958 918.690063,948.237549 
	C726.979309,948.237549 535.237549,948.237549 343.002991,948.237549 
	C343.002991,940.992432 342.803741,933.868835 343.171692,926.774597 
	C343.244995,925.362183 345.249725,923.651367 346.766022,922.770691 
	C381.416077,902.647522 416.123047,882.622253 450.817139,862.574890 
	C470.104828,851.429749 489.439789,840.364624 508.623413,829.043091 
	C511.832275,827.149231 514.781311,824.463623 517.166138,821.578369 
	C548.678345,783.453552 580.028870,745.195251 611.524780,707.056946 
	C617.066711,700.346252 618.389709,693.267700 614.580444,685.035889 
	C624.557556,679.262451 634.295837,673.592773 644.069580,667.984985 
	C649.556091,664.837097 653.379395,660.528503 654.251465,654.042969 
	C655.198669,646.997864 652.924500,641.179993 647.206543,636.980713 
	C641.498535,632.788696 635.046997,632.055054 628.828064,635.307129 
	C619.700562,640.080200 610.892578,645.463989 601.945374,650.582153 
	C600.217712,651.570435 598.475830,652.533691 596.502930,653.641907 
	C590.502625,644.764343 582.045410,643.746643 572.154541,646.062561 
M861.069275,527.459717 
	C862.379700,522.937561 864.810669,518.420288 864.830688,513.892456 
	C865.087524,455.585205 865.008301,397.276428 864.994629,338.968048 
	C864.991516,325.678406 857.944824,318.518616 844.746826,318.512085 
	C786.271851,318.483093 727.796875,318.484222 669.321899,318.511169 
	C656.051270,318.517273 649.005615,325.625031 649.003479,338.873901 
	C648.994141,397.182281 648.994080,455.490692 649.003540,513.799072 
	C649.005737,527.118713 655.822510,534.423340 669.113281,534.451416 
	C727.754578,534.575317 786.396301,534.509460 845.037842,534.497498 
	C851.103088,534.496216 856.541931,532.886719 861.069275,527.459717 
M624.500427,246.492401 
	C591.838013,246.492386 559.175659,246.484238 526.513245,246.509552 
	C524.188721,246.511353 521.831482,246.556213 519.545532,246.926956 
	C509.738525,248.517471 503.022308,259.016846 505.562317,268.619781 
	C508.082062,278.146118 514.946533,282.510773 527.501953,282.511353 
	C632.488220,282.516144 737.474548,282.517029 842.460815,282.496185 
	C844.951965,282.495697 847.469971,282.411530 849.929688,282.052582 
	C860.302673,280.538757 867.132568,269.841217 864.232849,259.801086 
	C861.654968,250.875244 855.223938,246.501312 844.471863,246.499359 
	C771.481384,246.486176 698.490967,246.492447 624.500427,246.492401 
M640.500427,786.492432 
	C625.502075,786.492798 610.502563,786.375549 595.505798,786.528870 
	C582.338684,786.663513 573.792847,798.605103 578.108948,810.526001 
	C581.044128,818.633057 587.729797,822.506775 598.988953,822.508240 
	C680.313232,822.518799 761.637573,822.517456 842.961853,822.495789 
	C845.286499,822.495178 847.636108,822.396545 849.931213,822.055298 
	C860.501221,820.483826 867.269104,809.562134 864.099548,799.322144 
	C861.451477,790.767029 854.992126,786.501404 844.477966,786.499329 
	C776.818787,786.485962 709.159668,786.492554 640.500427,786.492432 
M864.890991,730.810791 
	C862.603210,719.724060 856.408508,714.515198 845.102295,714.509216 
	C780.323975,714.475098 715.545593,714.489136 650.767273,714.510559 
	C648.947083,714.511169 647.097717,714.620789 645.311768,714.949951 
	C635.488525,716.760315 628.979980,727.222412 631.634399,736.822388 
	C634.190002,746.064636 640.931885,750.501160 652.697510,750.504761 
	C716.143616,750.523865 779.589783,750.514648 843.035889,750.508667 
	C844.366089,750.508545 845.701599,750.492798 847.025635,750.379333 
	C858.149902,749.425415 864.424683,742.865479 864.890991,730.810791 
M664.499573,894.513916 
	C677.990723,894.400330 691.494141,894.591858 704.968323,894.053467 
	C712.490295,893.752808 717.515320,889.076416 719.957825,882.022095 
	C722.441711,874.848022 720.453735,868.599426 715.169861,863.349670 
	C711.099426,859.305481 705.966858,858.460083 700.456238,858.464355 
	C642.132446,858.509644 583.808716,858.488831 525.484924,858.507996 
	C523.495239,858.508667 521.474182,858.556213 519.521362,858.893005 
	C509.463379,860.627686 502.887970,871.286621 505.734955,881.106873 
	C508.347473,890.118286 515.035400,894.495667 526.521973,894.502502 
	C572.181152,894.529907 617.840332,894.513855 664.499573,894.513916 
M684.311096,606.285156 
	C685.305359,606.360901 686.299622,606.502563 687.293884,606.502808 
	C739.573425,606.513977 791.853027,606.516968 844.132568,606.497375 
	C845.956665,606.496704 847.802429,606.394775 849.600891,606.107422 
	C856.613831,604.986694 861.488831,601.003174 863.868103,594.394592 
	C868.229370,582.280457 859.494080,570.646667 845.861938,570.533569 
	C826.716248,570.374817 807.568298,570.492615 788.421326,570.492554 
	C754.289795,570.492493 720.158081,570.446167 686.026733,570.520691 
	C675.532043,570.543579 667.764282,577.513733 667.059692,587.142212 
	C666.349121,596.851501 673.142334,604.743530 684.311096,606.285156 
M520.500427,570.492493 
	C486.172119,570.492493 451.842499,570.350098 417.517059,570.663818 
	C412.972137,570.705322 407.858734,572.141541 404.046051,574.564392 
	C397.489929,578.730591 395.561462,586.810608 397.983521,594.048889 
	C400.638550,601.983459 407.048889,606.449768 416.994934,606.467529 
	C469.653687,606.561462 522.312927,606.578552 574.971130,606.377136 
	C578.933716,606.362000 583.301880,605.171143 586.760132,603.236938 
	C593.596985,599.413147 596.378784,591.125916 594.255676,583.790161 
	C591.874084,575.561340 585.484863,570.595398 576.492188,570.532410 
	C558.162415,570.404053 539.831116,570.493103 520.500427,570.492493 
M579.404602,534.159973 
	C587.477661,532.793579 592.619995,528.067688 594.481934,520.193542 
	C596.221802,512.835938 593.832703,506.301422 587.613403,502.330719 
	C583.946228,499.989410 578.971802,498.670441 574.577087,498.649994 
	C522.130859,498.406097 469.682983,498.489563 417.235565,498.506958 
	C415.578247,498.507507 413.907623,498.622406 412.265930,498.848846 
	C404.325470,499.944000 398.039398,506.452972 397.132416,514.444946 
	C396.228027,522.414185 400.862488,530.479614 408.459778,532.973328 
	C412.002258,534.136169 415.957397,534.445679 419.726746,534.452454 
	C470.508972,534.543945 521.291443,534.517822 572.073853,534.499939 
	C574.231812,534.499207 576.389648,534.295410 579.404602,534.159973 
M476.500366,426.492554 
	C460.003387,426.492523 443.506317,426.465454 427.009430,426.508881 
	C422.017975,426.522034 416.977173,426.325806 412.046173,426.933258 
	C401.622620,428.217346 394.818604,439.025024 397.730133,449.093262 
	C400.382507,458.265228 407.047150,462.504578 419.003143,462.507874 
	C470.327087,462.522003 521.651001,462.517700 572.974976,462.499512 
	C574.968018,462.498810 576.975098,462.400879 578.951355,462.153564 
	C586.659851,461.189026 591.741638,456.901520 594.083313,449.562164 
	C596.398499,442.306000 594.233765,436.183014 588.816711,431.048920 
	C584.770569,427.214050 579.785400,426.469055 574.482666,426.474884 
	C542.155273,426.510376 509.827820,426.492615 476.500366,426.492554 
M736.499573,678.513855 
	C771.658875,678.513855 806.818176,678.521179 841.977478,678.498230 
	C844.470093,678.496582 846.983887,678.439392 849.451538,678.124146 
	C860.327881,676.734436 867.335876,665.756226 864.096985,655.310608 
	C861.635559,647.372498 855.403870,642.562866 846.468018,642.544067 
	C798.811584,642.443848 751.154785,642.493530 703.498108,642.506897 
	C702.507446,642.507202 701.512268,642.663025 700.526917,642.801697 
	C692.637695,643.912048 686.477966,649.902954 685.190735,657.700256 
	C683.972168,665.081421 687.862549,673.244446 694.903687,676.268005 
	C698.440308,677.786560 702.603149,678.299194 706.508545,678.417664 
	C716.164246,678.710510 725.834900,678.513733 736.499573,678.513855 
M464.025177,355.147064 
	C452.912262,359.754547 448.179443,369.594879 452.526703,379.447693 
	C456.344299,388.100098 463.653870,390.565948 472.480774,390.545349 
	C506.107025,390.466827 539.733582,390.521301 573.360046,390.495911 
	C575.516052,390.494293 577.692871,390.383026 579.824341,390.075439 
	C591.609863,388.375000 598.425110,375.361603 593.091492,364.694031 
	C589.414856,357.340515 583.188660,354.450867 575.163452,354.465546 
	C540.371887,354.529266 505.580109,354.484741 470.788452,354.514160 
	C468.801514,354.515839 466.814880,354.824463 464.025177,355.147064 
z"/>
<path fill="#FDCEAF" opacity="1.000000" stroke="none" 
	d="
M389.134277,800.905579 
	C390.606567,810.866821 386.057617,817.036377 378.092804,821.616821 
	C330.684174,848.881409 283.330200,876.241028 235.958527,903.569946 
	C211.495483,917.682739 187.033875,931.797974 162.284760,946.077698 
	C156.342728,935.742554 150.479858,925.545166 144.386932,914.947571 
	C146.084045,913.877319 147.539474,912.888794 149.059021,912.011414 
	C218.288757,872.033752 287.520477,832.059570 356.770538,792.117188 
	C359.927246,790.296387 363.096008,788.244507 366.532959,787.209167 
	C376.655975,784.159851 385.838776,789.759827 389.134277,800.905579 
z"/>
<path fill="#FECEAF" opacity="1.000000" stroke="none" 
	d="
M120.092697,944.905396 
	C129.795181,961.755005 139.343231,978.271667 149.314041,995.519592 
	C136.064636,1002.755432 123.504776,1011.063782 109.853279,1016.752502 
	C85.414452,1026.936646 56.763924,1016.004395 44.065643,993.155029 
	C30.917749,969.496582 36.517902,939.713196 58.216221,923.860840 
	C69.661240,915.499329 82.455582,908.984680 94.979973,901.431519 
	C103.512520,916.180237 111.725395,930.376343 120.092697,944.905396 
z"/>
<path fill="#FDCEAF" opacity="1.000000" stroke="none" 
	d="
M544.880798,686.977661 
	C551.873474,685.856567 558.526001,685.151917 564.959229,683.560791 
	C569.783203,682.367676 572.874573,683.175537 574.638733,687.983521 
	C575.199524,689.511841 576.115967,690.909607 576.892578,692.411560 
	C552.588684,721.906799 528.376221,751.291077 503.731812,781.199585 
	C488.296265,754.492676 473.154480,728.294067 457.665802,701.495239 
	C486.957855,696.606934 515.702148,691.810059 544.880798,686.977661 
z"/>
<path fill="#020101" opacity="1.000000" stroke="none" 
	d="
M860.844299,527.750305 
	C856.541931,532.886719 851.103088,534.496216 845.037842,534.497498 
	C786.396301,534.509460 727.754578,534.575317 669.113281,534.451416 
	C655.822510,534.423340 649.005737,527.118713 649.003540,513.799072 
	C648.994080,455.490692 648.994141,397.182281 649.003479,338.873901 
	C649.005615,325.625031 656.051270,318.517273 669.321899,318.511169 
	C727.796875,318.484222 786.271851,318.483093 844.746826,318.512085 
	C857.944824,318.518616 864.991516,325.678406 864.994629,338.968048 
	C865.008301,397.276428 865.087524,455.585205 864.830688,513.892456 
	C864.810669,518.420288 862.379700,522.937561 860.844299,527.750305 
M828.998413,422.500000 
	C828.998413,399.901642 828.998413,377.303253 828.998413,354.820862 
	C780.716553,354.820862 733.011108,354.820862 685.289307,354.820862 
	C685.289307,402.854279 685.289307,450.575378 685.289307,498.185913 
	C733.283142,498.185913 780.988647,498.185913 828.998413,498.185913 
	C828.998413,473.083679 828.998413,448.291840 828.998413,422.500000 
z"/>
<path fill="#030302" opacity="1.000000" stroke="none" 
	d="
M625.000488,246.492432 
	C698.490967,246.492447 771.481384,246.486176 844.471863,246.499359 
	C855.223938,246.501312 861.654968,250.875244 864.232849,259.801086 
	C867.132568,269.841217 860.302673,280.538757 849.929688,282.052582 
	C847.469971,282.411530 844.951965,282.495697 842.460815,282.496185 
	C737.474548,282.517029 632.488220,282.516144 527.501953,282.511353 
	C514.946533,282.510773 508.082062,278.146118 505.562317,268.619781 
	C503.022308,259.016846 509.738525,248.517471 519.545532,246.926956 
	C521.831482,246.556213 524.188721,246.511353 526.513245,246.509552 
	C559.175659,246.484238 591.838013,246.492386 625.000488,246.492432 
z"/>
<path fill="#030302" opacity="1.000000" stroke="none" 
	d="
M641.000488,786.492493 
	C709.159668,786.492554 776.818787,786.485962 844.477966,786.499329 
	C854.992126,786.501404 861.451477,790.767029 864.099548,799.322144 
	C867.269104,809.562134 860.501221,820.483826 849.931213,822.055298 
	C847.636108,822.396545 845.286499,822.495178 842.961853,822.495789 
	C761.637573,822.517456 680.313232,822.518799 598.988953,822.508240 
	C587.729797,822.506775 581.044128,818.633057 578.108948,810.526001 
	C573.792847,798.605103 582.338684,786.663513 595.505798,786.528870 
	C610.502563,786.375549 625.502075,786.492798 641.000488,786.492493 
z"/>
<path fill="#030302" opacity="1.000000" stroke="none" 
	d="
M864.930298,731.232300 
	C864.424683,742.865479 858.149902,749.425415 847.025635,750.379333 
	C845.701599,750.492798 844.366089,750.508545 843.035889,750.508667 
	C779.589783,750.514648 716.143616,750.523865 652.697510,750.504761 
	C640.931885,750.501160 634.190002,746.064636 631.634399,736.822388 
	C628.979980,727.222412 635.488525,716.760315 645.311768,714.949951 
	C647.097717,714.620789 648.947083,714.511169 650.767273,714.510559 
	C715.545593,714.489136 780.323975,714.475098 845.102295,714.509216 
	C856.408508,714.515198 862.603210,719.724060 864.930298,731.232300 
z"/>
<path fill="#030302" opacity="1.000000" stroke="none" 
	d="
M663.999512,894.513916 
	C617.840332,894.513855 572.181152,894.529907 526.521973,894.502502 
	C515.035400,894.495667 508.347473,890.118286 505.734955,881.106873 
	C502.887970,871.286621 509.463379,860.627686 519.521362,858.893005 
	C521.474182,858.556213 523.495239,858.508667 525.484924,858.507996 
	C583.808716,858.488831 642.132446,858.509644 700.456238,858.464355 
	C705.966858,858.460083 711.099426,859.305481 715.169861,863.349670 
	C720.453735,868.599426 722.441711,874.848022 719.957825,882.022095 
	C717.515320,889.076416 712.490295,893.752808 704.968323,894.053467 
	C691.494141,894.591858 677.990723,894.400330 663.999512,894.513916 
z"/>
<path fill="#030302" opacity="1.000000" stroke="none" 
	d="
M683.881531,606.235596 
	C673.142334,604.743530 666.349121,596.851501 667.059692,587.142212 
	C667.764282,577.513733 675.532043,570.543579 686.026733,570.520691 
	C720.158081,570.446167 754.289795,570.492493 788.421326,570.492554 
	C807.568298,570.492615 826.716248,570.374817 845.861938,570.533569 
	C859.494080,570.646667 868.229370,582.280457 863.868103,594.394592 
	C861.488831,601.003174 856.613831,604.986694 849.600891,606.107422 
	C847.802429,606.394775 845.956665,606.496704 844.132568,606.497375 
	C791.853027,606.516968 739.573425,606.513977 687.293884,606.502808 
	C686.299622,606.502563 685.305359,606.360901 683.881531,606.235596 
z"/>
<path fill="#030302" opacity="1.000000" stroke="none" 
	d="
M521.000488,570.492554 
	C539.831116,570.493103 558.162415,570.404053 576.492188,570.532410 
	C585.484863,570.595398 591.874084,575.561340 594.255676,583.790161 
	C596.378784,591.125916 593.596985,599.413147 586.760132,603.236938 
	C583.301880,605.171143 578.933716,606.362000 574.971130,606.377136 
	C522.312927,606.578552 469.653687,606.561462 416.994934,606.467529 
	C407.048889,606.449768 400.638550,601.983459 397.983521,594.048889 
	C395.561462,586.810608 397.489929,578.730591 404.046051,574.564392 
	C407.858734,572.141541 412.972137,570.705322 417.517059,570.663818 
	C451.842499,570.350098 486.172119,570.492493 521.000488,570.492554 
z"/>
<path fill="#030302" opacity="1.000000" stroke="none" 
	d="
M578.976074,534.173096 
	C576.389648,534.295410 574.231812,534.499207 572.073853,534.499939 
	C521.291443,534.517822 470.508972,534.543945 419.726746,534.452454 
	C415.957397,534.445679 412.002258,534.136169 408.459778,532.973328 
	C400.862488,530.479614 396.228027,522.414185 397.132416,514.444946 
	C398.039398,506.452972 404.325470,499.944000 412.265930,498.848846 
	C413.907623,498.622406 415.578247,498.507507 417.235565,498.506958 
	C469.682983,498.489563 522.130859,498.406097 574.577087,498.649994 
	C578.971802,498.670441 583.946228,499.989410 587.613403,502.330719 
	C593.832703,506.301422 596.221802,512.835938 594.481934,520.193542 
	C592.619995,528.067688 587.477661,532.793579 578.976074,534.173096 
z"/>
<path fill="#030302" opacity="1.000000" stroke="none" 
	d="
M477.000366,426.492584 
	C509.827820,426.492615 542.155273,426.510376 574.482666,426.474884 
	C579.785400,426.469055 584.770569,427.214050 588.816711,431.048920 
	C594.233765,436.183014 596.398499,442.306000 594.083313,449.562164 
	C591.741638,456.901520 586.659851,461.189026 578.951355,462.153564 
	C576.975098,462.400879 574.968018,462.498810 572.974976,462.499512 
	C521.651001,462.517700 470.327087,462.522003 419.003143,462.507874 
	C407.047150,462.504578 400.382507,458.265228 397.730133,449.093262 
	C394.818604,439.025024 401.622620,428.217346 412.046173,426.933258 
	C416.977173,426.325806 422.017975,426.522034 427.009430,426.508881 
	C443.506317,426.465454 460.003387,426.492523 477.000366,426.492584 
z"/>
<path fill="#030302" opacity="1.000000" stroke="none" 
	d="
M735.999512,678.513794 
	C725.834900,678.513733 716.164246,678.710510 706.508545,678.417664 
	C702.603149,678.299194 698.440308,677.786560 694.903687,676.268005 
	C687.862549,673.244446 683.972168,665.081421 685.190735,657.700256 
	C686.477966,649.902954 692.637695,643.912048 700.526917,642.801697 
	C701.512268,642.663025 702.507446,642.507202 703.498108,642.506897 
	C751.154785,642.493530 798.811584,642.443848 846.468018,642.544067 
	C855.403870,642.562866 861.635559,647.372498 864.096985,655.310608 
	C867.335876,665.756226 860.327881,676.734436 849.451538,678.124146 
	C846.983887,678.439392 844.470093,678.496582 841.977478,678.498230 
	C806.818176,678.521179 771.658875,678.513855 735.999512,678.513794 
z"/>
<path fill="#030302" opacity="1.000000" stroke="none" 
	d="
M464.426636,355.068665 
	C466.814880,354.824463 468.801514,354.515839 470.788452,354.514160 
	C505.580109,354.484741 540.371887,354.529266 575.163452,354.465546 
	C583.188660,354.450867 589.414856,357.340515 593.091492,364.694031 
	C598.425110,375.361603 591.609863,388.375000 579.824341,390.075439 
	C577.692871,390.383026 575.516052,390.494293 573.360046,390.495911 
	C539.733582,390.521301 506.107025,390.466827 472.480774,390.545349 
	C463.653870,390.565948 456.344299,388.100098 452.526703,379.447693 
	C448.179443,369.594879 452.912262,359.754547 464.426636,355.068665 
z"/>
<path fill="#FECEAF" opacity="1.000000" stroke="none" 
	d="
M828.998413,423.000000 
	C828.998413,448.291840 828.998413,473.083679 828.998413,498.185913 
	C780.988647,498.185913 733.283142,498.185913 685.289307,498.185913 
	C685.289307,450.575378 685.289307,402.854279 685.289307,354.820862 
	C733.011108,354.820862 780.716553,354.820862 828.998413,354.820862 
	C828.998413,377.303253 828.998413,399.901642 828.998413,423.000000 
z"/>
</svg>