<?xml version="1.0" standalone="no"?>
<!DOCTYPE svg PUBLIC "-//W3C//DTD SVG 20010904//EN"
 "http://www.w3.org/TR/2001/REC-SVG-20010904/DTD/svg10.dtd">
<svg version="1.0" xmlns="http://www.w3.org/2000/svg"
 width="500.000000pt" height="500.000000pt" viewBox="0 0 500.000000 500.000000"
 preserveAspectRatio="xMidYMid meet">
<metadata>
Created by potrace 1.14, written by Peter Selinger 2001-2017
</metadata>
<g transform="translate(0.000000,500.000000) scale(0.100000,-0.100000)"
fill="#000000" stroke="none">
<path d="M2308 4995 c-1 -2 -37 -6 -78 -10 -211 -19 -521 -100 -705 -185 -33
-15 -71 -31 -85 -35 -14 -4 -29 -11 -35 -15 -5 -5 -44 -26 -87 -48 -141 -75
-293 -177 -423 -285 -94 -78 -283 -274 -356 -367 -192 -246 -353 -555 -432
-830 -27 -92 -47 -165 -47 -168 0 -1 -2 -12 -5 -25 -7 -32 -15 -76 -21 -122
-3 -22 -7 -46 -9 -53 -26 -78 -26 -626 0 -704 2 -7 6 -31 9 -53 31 -253 168
-622 328 -889 140 -232 384 -510 588 -668 387 -300 828 -477 1310 -527 92 -9
447 -7 520 4 283 41 396 71 685 178 115 42 373 188 505 285 236 174 450 397
607 632 45 68 146 238 149 250 0 3 19 43 41 90 98 207 182 488 208 699 4 30 9
63 12 75 12 52 10 448 -3 556 -14 125 -49 303 -70 363 -7 20 -11 37 -9 37 7 0
-70 218 -110 310 -75 176 -203 393 -317 539 -28 34 -57 73 -66 84 -29 37 -276
281 -310 307 -18 14 -45 35 -60 48 -72 62 -312 211 -447 277 -126 62 -333 142
-410 160 -11 2 -45 11 -75 20 -30 8 -107 24 -170 35 -63 10 -131 22 -150 25
-37 7 -476 16 -482 10z"/>
</g>
</svg>
